G04 #@! TF.GenerationSoftware,KiCad,Pcbnew,5.1.0-060a0da~80~ubuntu16.04.1*
G04 #@! TF.CreationDate,2019-04-08T13:56:48+05:30*
G04 #@! TF.ProjectId,vcu-pi,7663752d-7069-42e6-9b69-6361645f7063,rev?*
G04 #@! TF.SameCoordinates,Original*
G04 #@! TF.FileFunction,Soldermask,Top*
G04 #@! TF.FilePolarity,Negative*
%FSLAX46Y46*%
G04 Gerber Fmt 4.6, Leading zero omitted, Abs format (unit mm)*
G04 Created by KiCad (PCBNEW 5.1.0-060a0da~80~ubuntu16.04.1) date 2019-04-08 13:56:48*
%MOMM*%
%LPD*%
G04 APERTURE LIST*
%ADD10C,3.400000*%
%ADD11C,2.400000*%
%ADD12C,3.150000*%
%ADD13C,2.200000*%
%ADD14C,3.600000*%
%ADD15C,3.700000*%
%ADD16C,3.676600*%
%ADD17R,1.700000X1.700000*%
%ADD18C,1.700000*%
%ADD19R,1.800000X1.800000*%
%ADD20C,1.800000*%
%ADD21R,2.432000X2.127200*%
%ADD22O,2.432000X2.127200*%
%ADD23R,2.127200X2.127200*%
%ADD24O,2.127200X2.127200*%
%ADD25C,2.398980*%
%ADD26R,1.950000X1.000000*%
%ADD27O,2.000000X2.000000*%
G04 APERTURE END LIST*
D10*
X84360000Y-131210000D03*
X84360000Y-114165000D03*
D11*
X114200000Y-137400000D03*
X109120000Y-137400000D03*
X101500000Y-137400000D03*
X121820000Y-117000000D03*
X111660000Y-117000000D03*
X101500000Y-117000000D03*
D12*
X181150000Y-42250000D03*
X123150000Y-42250000D03*
X123150000Y-91270000D03*
X181150000Y-91250000D03*
D13*
X68960000Y-39500000D03*
X68960000Y-78500000D03*
X67000000Y-42500000D03*
X67000000Y-45500000D03*
X67000000Y-48500000D03*
X67000000Y-51500000D03*
X67000000Y-54500000D03*
X67000000Y-57500000D03*
X67000000Y-60500000D03*
X67000000Y-63500000D03*
X67000000Y-66500000D03*
X67000000Y-69500000D03*
X67000000Y-72500000D03*
X67000000Y-75500000D03*
D14*
X200570000Y-107650000D03*
D15*
X200570000Y-136350000D03*
D13*
X193250000Y-105500000D03*
X193250000Y-108500000D03*
X193250000Y-111500000D03*
X193250000Y-114500000D03*
X193250000Y-117500000D03*
X193250000Y-120500000D03*
X193250000Y-123500000D03*
X193250000Y-126500000D03*
X193250000Y-129500000D03*
X193250000Y-132500000D03*
X193250000Y-135500000D03*
X193250000Y-138500000D03*
X196250000Y-105500000D03*
X196250000Y-108500000D03*
X196250000Y-111500000D03*
X196250000Y-114500000D03*
X196250000Y-117500000D03*
X196250000Y-120500000D03*
X196250000Y-123500000D03*
X196250000Y-126500000D03*
X196250000Y-129500000D03*
X196250000Y-132500000D03*
X196250000Y-135500000D03*
X196250000Y-138500000D03*
D16*
X185125000Y-33920000D03*
X83515000Y-145230000D03*
X83515000Y-33920000D03*
X185125000Y-145230000D03*
D17*
X132500000Y-141500000D03*
D18*
X137500000Y-141500000D03*
D17*
X147000000Y-141000000D03*
D18*
X152000000Y-141000000D03*
D19*
X98700000Y-34800000D03*
D20*
X108700000Y-34800000D03*
D19*
X108750000Y-46250000D03*
D20*
X98750000Y-46250000D03*
D19*
X99000000Y-58750000D03*
D20*
X109000000Y-58750000D03*
D19*
X109000000Y-69250000D03*
D20*
X99000000Y-69250000D03*
D17*
X166500000Y-105000000D03*
D18*
X166500000Y-107500000D03*
D17*
X166500000Y-120750000D03*
D18*
X166500000Y-123250000D03*
D17*
X166500000Y-112750000D03*
D18*
X166500000Y-110250000D03*
D17*
X166500000Y-115500000D03*
D18*
X166500000Y-118000000D03*
D17*
X166500000Y-99750000D03*
D18*
X166500000Y-102250000D03*
D21*
X72475000Y-113825000D03*
D22*
X72475000Y-116365000D03*
X72475000Y-118905000D03*
X72475000Y-121445000D03*
X72475000Y-123985000D03*
X72475000Y-126525000D03*
X72475000Y-129065000D03*
X72475000Y-131605000D03*
D23*
X128000000Y-90000000D03*
D24*
X128000000Y-92540000D03*
X130540000Y-90000000D03*
X130540000Y-92540000D03*
X133080000Y-90000000D03*
X133080000Y-92540000D03*
X135620000Y-90000000D03*
X135620000Y-92540000D03*
X138160000Y-90000000D03*
X138160000Y-92540000D03*
X140700000Y-90000000D03*
X140700000Y-92540000D03*
X143240000Y-90000000D03*
X143240000Y-92540000D03*
X145780000Y-90000000D03*
X145780000Y-92540000D03*
X148320000Y-90000000D03*
X148320000Y-92540000D03*
X150860000Y-90000000D03*
X150860000Y-92540000D03*
X153400000Y-90000000D03*
X153400000Y-92540000D03*
X155940000Y-90000000D03*
X155940000Y-92540000D03*
X158480000Y-90000000D03*
X158480000Y-92540000D03*
X161020000Y-90000000D03*
X161020000Y-92540000D03*
X163560000Y-90000000D03*
X163560000Y-92540000D03*
X166100000Y-90000000D03*
X166100000Y-92540000D03*
X168640000Y-90000000D03*
X168640000Y-92540000D03*
X171180000Y-90000000D03*
X171180000Y-92540000D03*
X173720000Y-90000000D03*
X173720000Y-92540000D03*
X176260000Y-90000000D03*
X176260000Y-92540000D03*
D25*
X98200000Y-40300000D03*
X118200000Y-40300000D03*
X98250000Y-51750000D03*
X118250000Y-51750000D03*
X98500000Y-64000000D03*
X118500000Y-64000000D03*
X98500000Y-74500000D03*
X118500000Y-74500000D03*
X94500000Y-39750000D03*
X94500000Y-47370000D03*
X94500000Y-53250000D03*
X94500000Y-60870000D03*
X140230000Y-130620000D03*
X130070000Y-130620000D03*
X154700000Y-130530000D03*
X144540000Y-130530000D03*
X101800000Y-109500000D03*
X111960000Y-109500000D03*
X172000000Y-108000000D03*
X182160000Y-108000000D03*
X182250000Y-121000000D03*
X172090000Y-121000000D03*
X182250000Y-112500000D03*
X172090000Y-112500000D03*
X182250000Y-116750000D03*
X172090000Y-116750000D03*
X102000000Y-86500000D03*
X109620000Y-86500000D03*
X102000000Y-90000000D03*
X109620000Y-90000000D03*
X102000000Y-93500000D03*
X109620000Y-93500000D03*
X163250000Y-135750000D03*
X155630000Y-135750000D03*
X172000000Y-103250000D03*
X182160000Y-103250000D03*
X82000000Y-64000000D03*
X89620000Y-64000000D03*
X81990000Y-77490000D03*
X89610000Y-77490000D03*
X81990000Y-90240000D03*
X89610000Y-90240000D03*
X176000000Y-141500000D03*
X168380000Y-141500000D03*
X102000000Y-79500000D03*
X109620000Y-79500000D03*
X102000000Y-83000000D03*
X109620000Y-83000000D03*
X89000000Y-39000000D03*
X81380000Y-39000000D03*
X89000000Y-51000000D03*
X81380000Y-51000000D03*
X77500000Y-79000000D03*
X77500000Y-86620000D03*
X77250000Y-65250000D03*
X77250000Y-72870000D03*
X77500000Y-91500000D03*
X77500000Y-99120000D03*
X76750000Y-53750000D03*
X76750000Y-61370000D03*
X168500000Y-129250000D03*
X176120000Y-129250000D03*
X76500000Y-38750000D03*
X76500000Y-46370000D03*
D26*
X112800000Y-44095000D03*
X112800000Y-45365000D03*
X112800000Y-46635000D03*
X112800000Y-47905000D03*
X118200000Y-47905000D03*
X118200000Y-46635000D03*
X118200000Y-45365000D03*
X118200000Y-44095000D03*
X112550000Y-56095000D03*
X112550000Y-57365000D03*
X112550000Y-58635000D03*
X112550000Y-59905000D03*
X117950000Y-59905000D03*
X117950000Y-58635000D03*
X117950000Y-57365000D03*
X117950000Y-56095000D03*
D27*
X89500000Y-72000000D03*
X89500000Y-69460000D03*
X81880000Y-69460000D03*
X81880000Y-72000000D03*
X89410000Y-84450000D03*
X89410000Y-81910000D03*
X81790000Y-81910000D03*
X81790000Y-84450000D03*
X89500000Y-97000000D03*
X89500000Y-94460000D03*
X81880000Y-94460000D03*
X81880000Y-97000000D03*
X168250000Y-134250000D03*
X168250000Y-136790000D03*
X175870000Y-136790000D03*
X175870000Y-134250000D03*
X153250000Y-120250000D03*
X153250000Y-117710000D03*
X153250000Y-115170000D03*
X153250000Y-112630000D03*
X153250000Y-110090000D03*
X153250000Y-107550000D03*
X153250000Y-105010000D03*
X153250000Y-102470000D03*
X145630000Y-102470000D03*
X145630000Y-105010000D03*
X145630000Y-107550000D03*
X145630000Y-110090000D03*
X145630000Y-112630000D03*
X145630000Y-115170000D03*
X145630000Y-117710000D03*
X145630000Y-120250000D03*
X89000000Y-46000000D03*
X89000000Y-43460000D03*
X81380000Y-43460000D03*
X81380000Y-46000000D03*
X89000000Y-59000000D03*
X89000000Y-56460000D03*
X81380000Y-56460000D03*
X81380000Y-59000000D03*
M02*
