%FSLAX45Y45*%
G04 Gerber Fmt 4.5, Leading zero omitted, Abs format (unit mm)*
G04 Created by KiCad (PCBNEW 5.1.0-060a0da~80~ubuntu16.04.1) date 2019-04-08 13:56:52*
%MOMM*%
%LPD*%
G04 APERTURE LIST*
%ADD10C,0.150000*%
%ADD11C,0.200000*%
%ADD12C,0.300000*%
G04 APERTURE END LIST*
D10*
X6180000Y-15100000D02*
X20680000Y-15100000D01*
X6180000Y-2820000D02*
X6180000Y-15100000D01*
X20680000Y-2820000D02*
X6180000Y-2820000D01*
X20680000Y-15100000D02*
X20680000Y-2820000D01*
D11*
X11410000Y-9280000D02*
X11450000Y-9320000D01*
X11450000Y-9280000D02*
X11410000Y-9320000D01*
X11470000Y-5215000D02*
X11510000Y-5255000D01*
X11510000Y-5215000D02*
X11470000Y-5255000D01*
X11490000Y-9205000D02*
X11530000Y-9245000D01*
X11530000Y-9205000D02*
X11490000Y-9245000D01*
X11570000Y-9115000D02*
X11610000Y-9155000D01*
X11610000Y-9115000D02*
X11570000Y-9155000D01*
X11805000Y-5155000D02*
X11845000Y-5195000D01*
X11845000Y-5155000D02*
X11805000Y-5195000D01*
X12005000Y-10075000D02*
X12045000Y-10115000D01*
X12045000Y-10075000D02*
X12005000Y-10115000D01*
X12040000Y-9825000D02*
X12080000Y-9865000D01*
X12080000Y-9825000D02*
X12040000Y-9865000D01*
X12115000Y-9710000D02*
X12155000Y-9750000D01*
X12155000Y-9710000D02*
X12115000Y-9750000D01*
X12150000Y-9605000D02*
X12190000Y-9645000D01*
X12190000Y-9605000D02*
X12150000Y-9645000D01*
X12310000Y-10075000D02*
X12350000Y-10115000D01*
X12350000Y-10075000D02*
X12310000Y-10115000D01*
X13015000Y-9520000D02*
X13055000Y-9560000D01*
X13055000Y-9520000D02*
X13015000Y-9560000D01*
X13685000Y-10875000D02*
X13725000Y-10915000D01*
X13725000Y-10875000D02*
X13685000Y-10915000D01*
X13755000Y-11890000D02*
X13795000Y-11930000D01*
X13795000Y-11890000D02*
X13755000Y-11930000D01*
X13760000Y-7355000D02*
X13800000Y-7395000D01*
X13800000Y-7355000D02*
X13760000Y-7395000D01*
X13910000Y-7390000D02*
X13950000Y-7430000D01*
X13950000Y-7390000D02*
X13910000Y-7430000D01*
X13935000Y-7560000D02*
X13975000Y-7600000D01*
X13975000Y-7560000D02*
X13935000Y-7600000D01*
X13985000Y-12490000D02*
X14025000Y-12530000D01*
X14025000Y-12490000D02*
X13985000Y-12530000D01*
X14000000Y-7835000D02*
X14040000Y-7875000D01*
X14040000Y-7835000D02*
X14000000Y-7875000D01*
X14050000Y-7535000D02*
X14090000Y-7575000D01*
X14090000Y-7535000D02*
X14050000Y-7575000D01*
X14180000Y-7827500D02*
X14220000Y-7867500D01*
X14220000Y-7827500D02*
X14180000Y-7867500D01*
X14330000Y-9780000D02*
X14370000Y-9820000D01*
X14370000Y-9780000D02*
X14330000Y-9820000D01*
X14905000Y-10145000D02*
X14945000Y-10185000D01*
X14945000Y-10145000D02*
X14905000Y-10185000D01*
X15410000Y-12305000D02*
X15450000Y-12345000D01*
X15450000Y-12305000D02*
X15410000Y-12345000D01*
X15543000Y-13555000D02*
X15583000Y-13595000D01*
X15583000Y-13555000D02*
X15543000Y-13595000D01*
X15815000Y-13800000D02*
X15855000Y-13840000D01*
X15855000Y-13800000D02*
X15815000Y-13840000D01*
X15865000Y-8420000D02*
X15905000Y-8460000D01*
X15905000Y-8420000D02*
X15865000Y-8460000D01*
X15920000Y-10970000D02*
X15960000Y-11010000D01*
X15960000Y-10970000D02*
X15920000Y-11010000D01*
X16530000Y-9620000D02*
X16570000Y-9660000D01*
X16570000Y-9620000D02*
X16530000Y-9660000D01*
X17860000Y-13100000D02*
X17900000Y-13140000D01*
X17900000Y-13100000D02*
X17860000Y-13140000D01*
X18080000Y-13855000D02*
X18120000Y-13895000D01*
X18120000Y-13855000D02*
X18080000Y-13895000D01*
X18140000Y-12335000D02*
X18180000Y-12375000D01*
X18180000Y-12335000D02*
X18140000Y-12375000D01*
X18620000Y-13135000D02*
X18660000Y-13175000D01*
X18660000Y-13135000D02*
X18620000Y-13175000D01*
X18749000Y-8683000D02*
X18789000Y-8723000D01*
X18789000Y-8683000D02*
X18749000Y-8723000D01*
X19065000Y-12550000D02*
X19105000Y-12590000D01*
X19105000Y-12550000D02*
X19065000Y-12590000D01*
X19564000Y-9298000D02*
X19604000Y-9338000D01*
X19604000Y-9298000D02*
X19564000Y-9338000D01*
X20265000Y-11805000D02*
X20305000Y-11845000D01*
X20305000Y-11805000D02*
X20265000Y-11845000D01*
X20275000Y-13930000D02*
X20315000Y-13970000D01*
X20315000Y-13930000D02*
X20275000Y-13970000D01*
X11237500Y-9652500D02*
G75*
G03X11237500Y-9652500I-25000J0D01*
G01*
X11680000Y-9725000D02*
G75*
G03X11680000Y-9725000I-25000J0D01*
G01*
X13485000Y-8760000D02*
G75*
G03X13485000Y-8760000I-25000J0D01*
G01*
X13657500Y-12125000D02*
G75*
G03X13657500Y-12125000I-25000J0D01*
G01*
X14075000Y-9640000D02*
G75*
G03X14075000Y-9640000I-25000J0D01*
G01*
X14215000Y-9460000D02*
G75*
G03X14215000Y-9460000I-25000J0D01*
G01*
X14295000Y-13615000D02*
G75*
G03X14295000Y-13615000I-25000J0D01*
G01*
X15275000Y-13379000D02*
G75*
G03X15275000Y-13379000I-25000J0D01*
G01*
X16925000Y-9830000D02*
G75*
G03X16925000Y-9830000I-25000J0D01*
G01*
X16650000Y-11510000D02*
X16650000Y-11590000D01*
X16610000Y-11550000D02*
X16690000Y-11550000D01*
X8179000Y-8151000D02*
X8179000Y-8231000D01*
X8139000Y-8191000D02*
X8219000Y-8191000D01*
X8179000Y-8405000D02*
X8179000Y-8485000D01*
X8139000Y-8445000D02*
X8219000Y-8445000D01*
X8941000Y-8151000D02*
X8941000Y-8231000D01*
X8901000Y-8191000D02*
X8981000Y-8191000D01*
X8941000Y-8405000D02*
X8941000Y-8485000D01*
X8901000Y-8445000D02*
X8981000Y-8445000D01*
X16650000Y-11235000D02*
X16650000Y-11315000D01*
X16610000Y-11275000D02*
X16690000Y-11275000D01*
X16650000Y-12035000D02*
X16650000Y-12115000D01*
X16610000Y-12075000D02*
X16690000Y-12075000D01*
X16650000Y-9935000D02*
X16650000Y-10015000D01*
X16610000Y-9975000D02*
X16690000Y-9975000D01*
X8138000Y-4306000D02*
X8138000Y-4386000D01*
X8098000Y-4346000D02*
X8178000Y-4346000D01*
X8138000Y-4560000D02*
X8138000Y-4640000D01*
X8098000Y-4600000D02*
X8178000Y-4600000D01*
X8900000Y-4306000D02*
X8900000Y-4386000D01*
X8860000Y-4346000D02*
X8940000Y-4346000D01*
X8900000Y-4560000D02*
X8900000Y-4640000D01*
X8860000Y-4600000D02*
X8940000Y-4600000D01*
X8138000Y-5606000D02*
X8138000Y-5686000D01*
X8098000Y-5646000D02*
X8178000Y-5646000D01*
X8138000Y-5860000D02*
X8138000Y-5940000D01*
X8098000Y-5900000D02*
X8178000Y-5900000D01*
X8900000Y-5606000D02*
X8900000Y-5686000D01*
X8860000Y-5646000D02*
X8940000Y-5646000D01*
X8900000Y-5860000D02*
X8900000Y-5940000D01*
X8860000Y-5900000D02*
X8940000Y-5900000D01*
X8188000Y-9406000D02*
X8188000Y-9486000D01*
X8148000Y-9446000D02*
X8228000Y-9446000D01*
X8188000Y-9660000D02*
X8188000Y-9740000D01*
X8148000Y-9700000D02*
X8228000Y-9700000D01*
X8950000Y-9406000D02*
X8950000Y-9486000D01*
X8910000Y-9446000D02*
X8990000Y-9446000D01*
X8950000Y-9660000D02*
X8950000Y-9740000D01*
X8910000Y-9700000D02*
X8990000Y-9700000D01*
X13250000Y-14110000D02*
X13250000Y-14190000D01*
X13210000Y-14150000D02*
X13290000Y-14150000D01*
X13750000Y-14110000D02*
X13750000Y-14190000D01*
X13710000Y-14150000D02*
X13790000Y-14150000D01*
X16825000Y-13385000D02*
X16825000Y-13465000D01*
X16785000Y-13425000D02*
X16865000Y-13425000D01*
X16825000Y-13639000D02*
X16825000Y-13719000D01*
X16785000Y-13679000D02*
X16865000Y-13679000D01*
X17587000Y-13385000D02*
X17587000Y-13465000D01*
X17547000Y-13425000D02*
X17627000Y-13425000D01*
X17587000Y-13639000D02*
X17587000Y-13719000D01*
X17547000Y-13679000D02*
X17627000Y-13679000D01*
X8188000Y-6906000D02*
X8188000Y-6986000D01*
X8148000Y-6946000D02*
X8228000Y-6946000D01*
X8188000Y-7160000D02*
X8188000Y-7240000D01*
X8148000Y-7200000D02*
X8228000Y-7200000D01*
X8950000Y-6906000D02*
X8950000Y-6986000D01*
X8910000Y-6946000D02*
X8990000Y-6946000D01*
X8950000Y-7160000D02*
X8950000Y-7240000D01*
X8910000Y-7200000D02*
X8990000Y-7200000D01*
X14563000Y-10207000D02*
X14563000Y-10287000D01*
X14523000Y-10247000D02*
X14603000Y-10247000D01*
X14563000Y-10461000D02*
X14563000Y-10541000D01*
X14523000Y-10501000D02*
X14603000Y-10501000D01*
X14563000Y-10715000D02*
X14563000Y-10795000D01*
X14523000Y-10755000D02*
X14603000Y-10755000D01*
X14563000Y-10969000D02*
X14563000Y-11049000D01*
X14523000Y-11009000D02*
X14603000Y-11009000D01*
X14563000Y-11223000D02*
X14563000Y-11303000D01*
X14523000Y-11263000D02*
X14603000Y-11263000D01*
X14563000Y-11477000D02*
X14563000Y-11557000D01*
X14523000Y-11517000D02*
X14603000Y-11517000D01*
X14563000Y-11731000D02*
X14563000Y-11811000D01*
X14523000Y-11771000D02*
X14603000Y-11771000D01*
X14563000Y-11985000D02*
X14563000Y-12065000D01*
X14523000Y-12025000D02*
X14603000Y-12025000D01*
X15325000Y-10207000D02*
X15325000Y-10287000D01*
X15285000Y-10247000D02*
X15365000Y-10247000D01*
X15325000Y-10461000D02*
X15325000Y-10541000D01*
X15285000Y-10501000D02*
X15365000Y-10501000D01*
X15325000Y-10715000D02*
X15325000Y-10795000D01*
X15285000Y-10755000D02*
X15365000Y-10755000D01*
X15325000Y-10969000D02*
X15325000Y-11049000D01*
X15285000Y-11009000D02*
X15365000Y-11009000D01*
X15325000Y-11223000D02*
X15325000Y-11303000D01*
X15285000Y-11263000D02*
X15365000Y-11263000D01*
X15325000Y-11477000D02*
X15325000Y-11557000D01*
X15285000Y-11517000D02*
X15365000Y-11517000D01*
X15325000Y-11731000D02*
X15325000Y-11811000D01*
X15285000Y-11771000D02*
X15365000Y-11771000D01*
X15325000Y-11985000D02*
X15325000Y-12065000D01*
X15285000Y-12025000D02*
X15365000Y-12025000D01*
X16650000Y-10460000D02*
X16650000Y-10540000D01*
X16610000Y-10500000D02*
X16690000Y-10500000D01*
X14700000Y-14060000D02*
X14700000Y-14140000D01*
X14660000Y-14100000D02*
X14740000Y-14100000D01*
X15200000Y-14060000D02*
X15200000Y-14140000D01*
X15160000Y-14100000D02*
X15240000Y-14100000D01*
X16678288Y-11828288D02*
X16678288Y-11771712D01*
X16621712Y-11771712D01*
X16621712Y-11828288D01*
X16678288Y-11828288D01*
X16678288Y-11053288D02*
X16678288Y-10996712D01*
X16621712Y-10996712D01*
X16621712Y-11053288D01*
X16678288Y-11053288D01*
X16678288Y-12353288D02*
X16678288Y-12296712D01*
X16621712Y-12296712D01*
X16621712Y-12353288D01*
X16678288Y-12353288D01*
X16678288Y-10253288D02*
X16678288Y-10196712D01*
X16621712Y-10196712D01*
X16621712Y-10253288D01*
X16678288Y-10253288D01*
X16678288Y-10778288D02*
X16678288Y-10721712D01*
X16621712Y-10721712D01*
X16621712Y-10778288D01*
X16678288Y-10778288D01*
X9875000Y-4670000D02*
X9920000Y-4625000D01*
X9875000Y-4580000D01*
X9830000Y-4625000D01*
X9875000Y-4670000D01*
X9900000Y-6970000D02*
X9945000Y-6925000D01*
X9900000Y-6880000D01*
X9855000Y-6925000D01*
X9900000Y-6970000D01*
X10900000Y-6970000D02*
X10945000Y-6925000D01*
X10900000Y-6880000D01*
X10855000Y-6925000D01*
X10900000Y-6970000D01*
X9900000Y-5920000D02*
X9945000Y-5875000D01*
X9900000Y-5830000D01*
X9855000Y-5875000D01*
X9900000Y-5920000D01*
X10900000Y-5920000D02*
X10945000Y-5875000D01*
X10900000Y-5830000D01*
X10855000Y-5875000D01*
X10900000Y-5920000D01*
X9870000Y-3525000D02*
X9915000Y-3480000D01*
X9870000Y-3435000D01*
X9825000Y-3480000D01*
X9870000Y-3525000D01*
X10870000Y-3525000D02*
X10915000Y-3480000D01*
X10870000Y-3435000D01*
X10825000Y-3480000D01*
X10870000Y-3525000D01*
X10875000Y-4670000D02*
X10920000Y-4625000D01*
X10875000Y-4580000D01*
X10830000Y-4625000D01*
X10875000Y-4670000D01*
X10149962Y-8599962D02*
X10250038Y-8700038D01*
X10250038Y-8599962D02*
X10149962Y-8700038D01*
X10250038Y-8650000D02*
G75*
G03X10250038Y-8650000I-50038J0D01*
G01*
X10911962Y-8599962D02*
X11012038Y-8700038D01*
X11012038Y-8599962D02*
X10911962Y-8700038D01*
X11012038Y-8650000D02*
G75*
G03X11012038Y-8650000I-50038J0D01*
G01*
X9399962Y-5274962D02*
X9500038Y-5375038D01*
X9500038Y-5274962D02*
X9399962Y-5375038D01*
X9500038Y-5325000D02*
G75*
G03X9500038Y-5325000I-50038J0D01*
G01*
X9399962Y-6036962D02*
X9500038Y-6137038D01*
X9500038Y-6036962D02*
X9399962Y-6137038D01*
X9500038Y-6087000D02*
G75*
G03X9500038Y-6087000I-50038J0D01*
G01*
X7624962Y-5324962D02*
X7725038Y-5425038D01*
X7725038Y-5324962D02*
X7624962Y-5425038D01*
X7725038Y-5375000D02*
G75*
G03X7725038Y-5375000I-50038J0D01*
G01*
X7624962Y-6086962D02*
X7725038Y-6187038D01*
X7725038Y-6086962D02*
X7624962Y-6187038D01*
X7725038Y-6137000D02*
G75*
G03X7725038Y-6137000I-50038J0D01*
G01*
X7699962Y-7849962D02*
X7800038Y-7950038D01*
X7800038Y-7849962D02*
X7699962Y-7950038D01*
X7800038Y-7900000D02*
G75*
G03X7800038Y-7900000I-50038J0D01*
G01*
X7699962Y-8611962D02*
X7800038Y-8712038D01*
X7800038Y-8611962D02*
X7699962Y-8712038D01*
X7800038Y-8662000D02*
G75*
G03X7800038Y-8662000I-50038J0D01*
G01*
X9774962Y-5124962D02*
X9875038Y-5225038D01*
X9875038Y-5124962D02*
X9774962Y-5225038D01*
X9875038Y-5175000D02*
G75*
G03X9875038Y-5175000I-50038J0D01*
G01*
X11774962Y-5124962D02*
X11875038Y-5225038D01*
X11875038Y-5124962D02*
X11774962Y-5225038D01*
X11875038Y-5175000D02*
G75*
G03X11875038Y-5175000I-50038J0D01*
G01*
X9799962Y-7399962D02*
X9900038Y-7500038D01*
X9900038Y-7399962D02*
X9799962Y-7500038D01*
X9900038Y-7450000D02*
G75*
G03X9900038Y-7450000I-50038J0D01*
G01*
X11799962Y-7399962D02*
X11900038Y-7500038D01*
X11900038Y-7399962D02*
X11799962Y-7500038D01*
X11900038Y-7450000D02*
G75*
G03X11900038Y-7450000I-50038J0D01*
G01*
X15512962Y-13524962D02*
X15613038Y-13625038D01*
X15613038Y-13524962D02*
X15512962Y-13625038D01*
X15613038Y-13575000D02*
G75*
G03X15613038Y-13575000I-50038J0D01*
G01*
X16274962Y-13524962D02*
X16375038Y-13625038D01*
X16375038Y-13524962D02*
X16274962Y-13625038D01*
X16375038Y-13575000D02*
G75*
G03X16375038Y-13575000I-50038J0D01*
G01*
X9769962Y-3979962D02*
X9870038Y-4080038D01*
X9870038Y-3979962D02*
X9769962Y-4080038D01*
X9870038Y-4030000D02*
G75*
G03X9870038Y-4030000I-50038J0D01*
G01*
X11769962Y-3979962D02*
X11870038Y-4080038D01*
X11870038Y-3979962D02*
X11769962Y-4080038D01*
X11870038Y-4030000D02*
G75*
G03X11870038Y-4030000I-50038J0D01*
G01*
X10149962Y-8249962D02*
X10250038Y-8350038D01*
X10250038Y-8249962D02*
X10149962Y-8350038D01*
X10250038Y-8300000D02*
G75*
G03X10250038Y-8300000I-50038J0D01*
G01*
X10911962Y-8249962D02*
X11012038Y-8350038D01*
X11012038Y-8249962D02*
X10911962Y-8350038D01*
X11012038Y-8300000D02*
G75*
G03X11012038Y-8300000I-50038J0D01*
G01*
X17149962Y-10749962D02*
X17250038Y-10850038D01*
X17250038Y-10749962D02*
X17149962Y-10850038D01*
X17250038Y-10800000D02*
G75*
G03X17250038Y-10800000I-50038J0D01*
G01*
X18165962Y-10749962D02*
X18266038Y-10850038D01*
X18266038Y-10749962D02*
X18165962Y-10850038D01*
X18266038Y-10800000D02*
G75*
G03X18266038Y-10800000I-50038J0D01*
G01*
X8148962Y-8973962D02*
X8249038Y-9074038D01*
X8249038Y-8973962D02*
X8148962Y-9074038D01*
X8249038Y-9024000D02*
G75*
G03X8249038Y-9024000I-50038J0D01*
G01*
X8910962Y-8973962D02*
X9011038Y-9074038D01*
X9011038Y-8973962D02*
X8910962Y-9074038D01*
X9011038Y-9024000D02*
G75*
G03X9011038Y-9024000I-50038J0D01*
G01*
X10149962Y-8949962D02*
X10250038Y-9050038D01*
X10250038Y-8949962D02*
X10149962Y-9050038D01*
X10250038Y-9000000D02*
G75*
G03X10250038Y-9000000I-50038J0D01*
G01*
X10911962Y-8949962D02*
X11012038Y-9050038D01*
X11012038Y-8949962D02*
X10911962Y-9050038D01*
X11012038Y-9000000D02*
G75*
G03X11012038Y-9000000I-50038J0D01*
G01*
X10149962Y-7899962D02*
X10250038Y-8000038D01*
X10250038Y-7899962D02*
X10149962Y-8000038D01*
X10250038Y-7950000D02*
G75*
G03X10250038Y-7950000I-50038J0D01*
G01*
X10911962Y-7899962D02*
X11012038Y-8000038D01*
X11012038Y-7899962D02*
X10911962Y-8000038D01*
X11012038Y-7950000D02*
G75*
G03X11012038Y-7950000I-50038J0D01*
G01*
X16787962Y-14099962D02*
X16888038Y-14200038D01*
X16888038Y-14099962D02*
X16787962Y-14200038D01*
X16888038Y-14150000D02*
G75*
G03X16888038Y-14150000I-50038J0D01*
G01*
X17549962Y-14099962D02*
X17650038Y-14200038D01*
X17650038Y-14099962D02*
X17549962Y-14200038D01*
X17650038Y-14150000D02*
G75*
G03X17650038Y-14150000I-50038J0D01*
G01*
X17149962Y-10274962D02*
X17250038Y-10375038D01*
X17250038Y-10274962D02*
X17149962Y-10375038D01*
X17250038Y-10325000D02*
G75*
G03X17250038Y-10325000I-50038J0D01*
G01*
X18165962Y-10274962D02*
X18266038Y-10375038D01*
X18266038Y-10274962D02*
X18165962Y-10375038D01*
X18266038Y-10325000D02*
G75*
G03X18266038Y-10325000I-50038J0D01*
G01*
X7699962Y-9099962D02*
X7800038Y-9200038D01*
X7800038Y-9099962D02*
X7699962Y-9200038D01*
X7800038Y-9150000D02*
G75*
G03X7800038Y-9150000I-50038J0D01*
G01*
X7699962Y-9861962D02*
X7800038Y-9962038D01*
X7800038Y-9861962D02*
X7699962Y-9962038D01*
X7800038Y-9912000D02*
G75*
G03X7800038Y-9912000I-50038J0D01*
G01*
X8087962Y-3849962D02*
X8188038Y-3950038D01*
X8188038Y-3849962D02*
X8087962Y-3950038D01*
X8188038Y-3900000D02*
G75*
G03X8188038Y-3900000I-50038J0D01*
G01*
X8849962Y-3849962D02*
X8950038Y-3950038D01*
X8950038Y-3849962D02*
X8849962Y-3950038D01*
X8950038Y-3900000D02*
G75*
G03X8950038Y-3900000I-50038J0D01*
G01*
X14403962Y-13002962D02*
X14504038Y-13103038D01*
X14504038Y-13002962D02*
X14403962Y-13103038D01*
X14504038Y-13053000D02*
G75*
G03X14504038Y-13053000I-50038J0D01*
G01*
X15419962Y-13002962D02*
X15520038Y-13103038D01*
X15520038Y-13002962D02*
X15419962Y-13103038D01*
X15520038Y-13053000D02*
G75*
G03X15520038Y-13053000I-50038J0D01*
G01*
X17158962Y-11199962D02*
X17259038Y-11300038D01*
X17259038Y-11199962D02*
X17158962Y-11300038D01*
X17259038Y-11250000D02*
G75*
G03X17259038Y-11250000I-50038J0D01*
G01*
X18174962Y-11199962D02*
X18275038Y-11300038D01*
X18275038Y-11199962D02*
X18174962Y-11300038D01*
X18275038Y-11250000D02*
G75*
G03X18275038Y-11250000I-50038J0D01*
G01*
X7599962Y-3824962D02*
X7700038Y-3925038D01*
X7700038Y-3824962D02*
X7599962Y-3925038D01*
X7700038Y-3875000D02*
G75*
G03X7700038Y-3875000I-50038J0D01*
G01*
X7599962Y-4586962D02*
X7700038Y-4687038D01*
X7700038Y-4586962D02*
X7599962Y-4687038D01*
X7700038Y-4637000D02*
G75*
G03X7700038Y-4637000I-50038J0D01*
G01*
X12956962Y-13011962D02*
X13057038Y-13112038D01*
X13057038Y-13011962D02*
X12956962Y-13112038D01*
X13057038Y-13062000D02*
G75*
G03X13057038Y-13062000I-50038J0D01*
G01*
X13972962Y-13011962D02*
X14073038Y-13112038D01*
X14073038Y-13011962D02*
X13972962Y-13112038D01*
X14073038Y-13062000D02*
G75*
G03X14073038Y-13062000I-50038J0D01*
G01*
X16799962Y-12874962D02*
X16900038Y-12975038D01*
X16900038Y-12874962D02*
X16799962Y-12975038D01*
X16900038Y-12925000D02*
G75*
G03X16900038Y-12925000I-50038J0D01*
G01*
X17561962Y-12874962D02*
X17662038Y-12975038D01*
X17662038Y-12874962D02*
X17561962Y-12975038D01*
X17662038Y-12925000D02*
G75*
G03X17662038Y-12925000I-50038J0D01*
G01*
X17158962Y-12049962D02*
X17259038Y-12150038D01*
X17259038Y-12049962D02*
X17158962Y-12150038D01*
X17259038Y-12100000D02*
G75*
G03X17259038Y-12100000I-50038J0D01*
G01*
X18174962Y-12049962D02*
X18275038Y-12150038D01*
X18275038Y-12049962D02*
X18174962Y-12150038D01*
X18275038Y-12100000D02*
G75*
G03X18275038Y-12100000I-50038J0D01*
G01*
X9399962Y-3924962D02*
X9500038Y-4025038D01*
X9500038Y-3924962D02*
X9399962Y-4025038D01*
X9500038Y-3975000D02*
G75*
G03X9500038Y-3975000I-50038J0D01*
G01*
X9399962Y-4686962D02*
X9500038Y-4787038D01*
X9500038Y-4686962D02*
X9399962Y-4787038D01*
X9500038Y-4737000D02*
G75*
G03X9500038Y-4737000I-50038J0D01*
G01*
X8087962Y-5049962D02*
X8188038Y-5150038D01*
X8188038Y-5049962D02*
X8087962Y-5150038D01*
X8188038Y-5100000D02*
G75*
G03X8188038Y-5100000I-50038J0D01*
G01*
X8849962Y-5049962D02*
X8950038Y-5150038D01*
X8950038Y-5049962D02*
X8849962Y-5150038D01*
X8950038Y-5100000D02*
G75*
G03X8950038Y-5100000I-50038J0D01*
G01*
X17158962Y-11624962D02*
X17259038Y-11725038D01*
X17259038Y-11624962D02*
X17158962Y-11725038D01*
X17259038Y-11675000D02*
G75*
G03X17259038Y-11675000I-50038J0D01*
G01*
X18174962Y-11624962D02*
X18275038Y-11725038D01*
X18275038Y-11624962D02*
X18174962Y-11725038D01*
X18275038Y-11675000D02*
G75*
G03X18275038Y-11675000I-50038J0D01*
G01*
X9799962Y-6349962D02*
X9900038Y-6450038D01*
X9900038Y-6349962D02*
X9799962Y-6450038D01*
X9900038Y-6400000D02*
G75*
G03X9900038Y-6400000I-50038J0D01*
G01*
X11799962Y-6349962D02*
X11900038Y-6450038D01*
X11900038Y-6349962D02*
X11799962Y-6450038D01*
X11900038Y-6400000D02*
G75*
G03X11900038Y-6400000I-50038J0D01*
G01*
X7674962Y-6474962D02*
X7775038Y-6575038D01*
X7775038Y-6474962D02*
X7674962Y-6575038D01*
X7775038Y-6525000D02*
G75*
G03X7775038Y-6525000I-50038J0D01*
G01*
X7674962Y-7236962D02*
X7775038Y-7337038D01*
X7775038Y-7236962D02*
X7674962Y-7337038D01*
X7775038Y-7287000D02*
G75*
G03X7775038Y-7287000I-50038J0D01*
G01*
X10129962Y-10899962D02*
X10230038Y-11000038D01*
X10230038Y-10899962D02*
X10129962Y-11000038D01*
X10230038Y-10950000D02*
G75*
G03X10230038Y-10950000I-50038J0D01*
G01*
X11145962Y-10899962D02*
X11246038Y-11000038D01*
X11246038Y-10899962D02*
X11145962Y-11000038D01*
X11246038Y-10950000D02*
G75*
G03X11246038Y-10950000I-50038J0D01*
G01*
X8149962Y-6349962D02*
X8250038Y-6450038D01*
X8250038Y-6349962D02*
X8149962Y-6450038D01*
X8250038Y-6400000D02*
G75*
G03X8250038Y-6400000I-50038J0D01*
G01*
X8911962Y-6349962D02*
X9012038Y-6450038D01*
X9012038Y-6349962D02*
X8911962Y-6450038D01*
X9012038Y-6400000D02*
G75*
G03X9012038Y-6400000I-50038J0D01*
G01*
X8148962Y-7698962D02*
X8249038Y-7799038D01*
X8249038Y-7698962D02*
X8148962Y-7799038D01*
X8249038Y-7749000D02*
G75*
G03X8249038Y-7749000I-50038J0D01*
G01*
X8910962Y-7698962D02*
X9011038Y-7799038D01*
X9011038Y-7698962D02*
X8910962Y-7799038D01*
X9011038Y-7749000D02*
G75*
G03X9011038Y-7749000I-50038J0D01*
G01*
X10149962Y-9299962D02*
X10250038Y-9400038D01*
X10250038Y-9299962D02*
X10149962Y-9400038D01*
X10250038Y-9350000D02*
G75*
G03X10250038Y-9350000I-50038J0D01*
G01*
X10911962Y-9299962D02*
X11012038Y-9400038D01*
X11012038Y-9299962D02*
X10911962Y-9400038D01*
X11012038Y-9350000D02*
G75*
G03X11012038Y-9350000I-50038J0D01*
G01*
X12749200Y-8949200D02*
X12850800Y-9050800D01*
X12850800Y-8949200D02*
X12749200Y-9050800D01*
X12800000Y-8949200D02*
X12800000Y-9050800D01*
X12749200Y-9000000D02*
X12850800Y-9000000D01*
X12749200Y-9203200D02*
X12850800Y-9304800D01*
X12850800Y-9203200D02*
X12749200Y-9304800D01*
X12800000Y-9203200D02*
X12800000Y-9304800D01*
X12749200Y-9254000D02*
X12850800Y-9254000D01*
X13003200Y-8949200D02*
X13104800Y-9050800D01*
X13104800Y-8949200D02*
X13003200Y-9050800D01*
X13054000Y-8949200D02*
X13054000Y-9050800D01*
X13003200Y-9000000D02*
X13104800Y-9000000D01*
X13003200Y-9203200D02*
X13104800Y-9304800D01*
X13104800Y-9203200D02*
X13003200Y-9304800D01*
X13054000Y-9203200D02*
X13054000Y-9304800D01*
X13003200Y-9254000D02*
X13104800Y-9254000D01*
X13257200Y-8949200D02*
X13358800Y-9050800D01*
X13358800Y-8949200D02*
X13257200Y-9050800D01*
X13308000Y-8949200D02*
X13308000Y-9050800D01*
X13257200Y-9000000D02*
X13358800Y-9000000D01*
X13257200Y-9203200D02*
X13358800Y-9304800D01*
X13358800Y-9203200D02*
X13257200Y-9304800D01*
X13308000Y-9203200D02*
X13308000Y-9304800D01*
X13257200Y-9254000D02*
X13358800Y-9254000D01*
X13511200Y-8949200D02*
X13612800Y-9050800D01*
X13612800Y-8949200D02*
X13511200Y-9050800D01*
X13562000Y-8949200D02*
X13562000Y-9050800D01*
X13511200Y-9000000D02*
X13612800Y-9000000D01*
X13511200Y-9203200D02*
X13612800Y-9304800D01*
X13612800Y-9203200D02*
X13511200Y-9304800D01*
X13562000Y-9203200D02*
X13562000Y-9304800D01*
X13511200Y-9254000D02*
X13612800Y-9254000D01*
X13765200Y-8949200D02*
X13866800Y-9050800D01*
X13866800Y-8949200D02*
X13765200Y-9050800D01*
X13816000Y-8949200D02*
X13816000Y-9050800D01*
X13765200Y-9000000D02*
X13866800Y-9000000D01*
X13765200Y-9203200D02*
X13866800Y-9304800D01*
X13866800Y-9203200D02*
X13765200Y-9304800D01*
X13816000Y-9203200D02*
X13816000Y-9304800D01*
X13765200Y-9254000D02*
X13866800Y-9254000D01*
X14019200Y-8949200D02*
X14120800Y-9050800D01*
X14120800Y-8949200D02*
X14019200Y-9050800D01*
X14070000Y-8949200D02*
X14070000Y-9050800D01*
X14019200Y-9000000D02*
X14120800Y-9000000D01*
X14019200Y-9203200D02*
X14120800Y-9304800D01*
X14120800Y-9203200D02*
X14019200Y-9304800D01*
X14070000Y-9203200D02*
X14070000Y-9304800D01*
X14019200Y-9254000D02*
X14120800Y-9254000D01*
X14273200Y-8949200D02*
X14374800Y-9050800D01*
X14374800Y-8949200D02*
X14273200Y-9050800D01*
X14324000Y-8949200D02*
X14324000Y-9050800D01*
X14273200Y-9000000D02*
X14374800Y-9000000D01*
X14273200Y-9203200D02*
X14374800Y-9304800D01*
X14374800Y-9203200D02*
X14273200Y-9304800D01*
X14324000Y-9203200D02*
X14324000Y-9304800D01*
X14273200Y-9254000D02*
X14374800Y-9254000D01*
X14527200Y-8949200D02*
X14628800Y-9050800D01*
X14628800Y-8949200D02*
X14527200Y-9050800D01*
X14578000Y-8949200D02*
X14578000Y-9050800D01*
X14527200Y-9000000D02*
X14628800Y-9000000D01*
X14527200Y-9203200D02*
X14628800Y-9304800D01*
X14628800Y-9203200D02*
X14527200Y-9304800D01*
X14578000Y-9203200D02*
X14578000Y-9304800D01*
X14527200Y-9254000D02*
X14628800Y-9254000D01*
X14781200Y-8949200D02*
X14882800Y-9050800D01*
X14882800Y-8949200D02*
X14781200Y-9050800D01*
X14832000Y-8949200D02*
X14832000Y-9050800D01*
X14781200Y-9000000D02*
X14882800Y-9000000D01*
X14781200Y-9203200D02*
X14882800Y-9304800D01*
X14882800Y-9203200D02*
X14781200Y-9304800D01*
X14832000Y-9203200D02*
X14832000Y-9304800D01*
X14781200Y-9254000D02*
X14882800Y-9254000D01*
X15035200Y-8949200D02*
X15136800Y-9050800D01*
X15136800Y-8949200D02*
X15035200Y-9050800D01*
X15086000Y-8949200D02*
X15086000Y-9050800D01*
X15035200Y-9000000D02*
X15136800Y-9000000D01*
X15035200Y-9203200D02*
X15136800Y-9304800D01*
X15136800Y-9203200D02*
X15035200Y-9304800D01*
X15086000Y-9203200D02*
X15086000Y-9304800D01*
X15035200Y-9254000D02*
X15136800Y-9254000D01*
X15289200Y-8949200D02*
X15390800Y-9050800D01*
X15390800Y-8949200D02*
X15289200Y-9050800D01*
X15340000Y-8949200D02*
X15340000Y-9050800D01*
X15289200Y-9000000D02*
X15390800Y-9000000D01*
X15289200Y-9203200D02*
X15390800Y-9304800D01*
X15390800Y-9203200D02*
X15289200Y-9304800D01*
X15340000Y-9203200D02*
X15340000Y-9304800D01*
X15289200Y-9254000D02*
X15390800Y-9254000D01*
X15543200Y-8949200D02*
X15644800Y-9050800D01*
X15644800Y-8949200D02*
X15543200Y-9050800D01*
X15594000Y-8949200D02*
X15594000Y-9050800D01*
X15543200Y-9000000D02*
X15644800Y-9000000D01*
X15543200Y-9203200D02*
X15644800Y-9304800D01*
X15644800Y-9203200D02*
X15543200Y-9304800D01*
X15594000Y-9203200D02*
X15594000Y-9304800D01*
X15543200Y-9254000D02*
X15644800Y-9254000D01*
X15797200Y-8949200D02*
X15898800Y-9050800D01*
X15898800Y-8949200D02*
X15797200Y-9050800D01*
X15848000Y-8949200D02*
X15848000Y-9050800D01*
X15797200Y-9000000D02*
X15898800Y-9000000D01*
X15797200Y-9203200D02*
X15898800Y-9304800D01*
X15898800Y-9203200D02*
X15797200Y-9304800D01*
X15848000Y-9203200D02*
X15848000Y-9304800D01*
X15797200Y-9254000D02*
X15898800Y-9254000D01*
X16051200Y-8949200D02*
X16152800Y-9050800D01*
X16152800Y-8949200D02*
X16051200Y-9050800D01*
X16102000Y-8949200D02*
X16102000Y-9050800D01*
X16051200Y-9000000D02*
X16152800Y-9000000D01*
X16051200Y-9203200D02*
X16152800Y-9304800D01*
X16152800Y-9203200D02*
X16051200Y-9304800D01*
X16102000Y-9203200D02*
X16102000Y-9304800D01*
X16051200Y-9254000D02*
X16152800Y-9254000D01*
X16305200Y-8949200D02*
X16406800Y-9050800D01*
X16406800Y-8949200D02*
X16305200Y-9050800D01*
X16356000Y-8949200D02*
X16356000Y-9050800D01*
X16305200Y-9000000D02*
X16406800Y-9000000D01*
X16305200Y-9203200D02*
X16406800Y-9304800D01*
X16406800Y-9203200D02*
X16305200Y-9304800D01*
X16356000Y-9203200D02*
X16356000Y-9304800D01*
X16305200Y-9254000D02*
X16406800Y-9254000D01*
X16559200Y-8949200D02*
X16660800Y-9050800D01*
X16660800Y-8949200D02*
X16559200Y-9050800D01*
X16610000Y-8949200D02*
X16610000Y-9050800D01*
X16559200Y-9000000D02*
X16660800Y-9000000D01*
X16559200Y-9203200D02*
X16660800Y-9304800D01*
X16660800Y-9203200D02*
X16559200Y-9304800D01*
X16610000Y-9203200D02*
X16610000Y-9304800D01*
X16559200Y-9254000D02*
X16660800Y-9254000D01*
X16813200Y-8949200D02*
X16914800Y-9050800D01*
X16914800Y-8949200D02*
X16813200Y-9050800D01*
X16864000Y-8949200D02*
X16864000Y-9050800D01*
X16813200Y-9000000D02*
X16914800Y-9000000D01*
X16813200Y-9203200D02*
X16914800Y-9304800D01*
X16914800Y-9203200D02*
X16813200Y-9304800D01*
X16864000Y-9203200D02*
X16864000Y-9304800D01*
X16813200Y-9254000D02*
X16914800Y-9254000D01*
X17067200Y-8949200D02*
X17168800Y-9050800D01*
X17168800Y-8949200D02*
X17067200Y-9050800D01*
X17118000Y-8949200D02*
X17118000Y-9050800D01*
X17067200Y-9000000D02*
X17168800Y-9000000D01*
X17067200Y-9203200D02*
X17168800Y-9304800D01*
X17168800Y-9203200D02*
X17067200Y-9304800D01*
X17118000Y-9203200D02*
X17118000Y-9304800D01*
X17067200Y-9254000D02*
X17168800Y-9254000D01*
X17321200Y-8949200D02*
X17422800Y-9050800D01*
X17422800Y-8949200D02*
X17321200Y-9050800D01*
X17372000Y-8949200D02*
X17372000Y-9050800D01*
X17321200Y-9000000D02*
X17422800Y-9000000D01*
X17321200Y-9203200D02*
X17422800Y-9304800D01*
X17422800Y-9203200D02*
X17321200Y-9304800D01*
X17372000Y-9203200D02*
X17372000Y-9304800D01*
X17321200Y-9254000D02*
X17422800Y-9254000D01*
X17575200Y-8949200D02*
X17676800Y-9050800D01*
X17676800Y-8949200D02*
X17575200Y-9050800D01*
X17626000Y-8949200D02*
X17626000Y-9050800D01*
X17575200Y-9000000D02*
X17676800Y-9000000D01*
X17575200Y-9203200D02*
X17676800Y-9304800D01*
X17676800Y-9203200D02*
X17575200Y-9304800D01*
X17626000Y-9203200D02*
X17626000Y-9304800D01*
X17575200Y-9254000D02*
X17676800Y-9254000D01*
X7196700Y-11331700D02*
X7298300Y-11433300D01*
X7298300Y-11331700D02*
X7196700Y-11433300D01*
X7247500Y-11331700D02*
X7247500Y-11433300D01*
X7196700Y-11382500D02*
X7298300Y-11382500D01*
X7196700Y-11585700D02*
X7298300Y-11687300D01*
X7298300Y-11585700D02*
X7196700Y-11687300D01*
X7247500Y-11585700D02*
X7247500Y-11687300D01*
X7196700Y-11636500D02*
X7298300Y-11636500D01*
X7196700Y-11839700D02*
X7298300Y-11941300D01*
X7298300Y-11839700D02*
X7196700Y-11941300D01*
X7247500Y-11839700D02*
X7247500Y-11941300D01*
X7196700Y-11890500D02*
X7298300Y-11890500D01*
X7196700Y-12093700D02*
X7298300Y-12195300D01*
X7298300Y-12093700D02*
X7196700Y-12195300D01*
X7247500Y-12093700D02*
X7247500Y-12195300D01*
X7196700Y-12144500D02*
X7298300Y-12144500D01*
X7196700Y-12347700D02*
X7298300Y-12449300D01*
X7298300Y-12347700D02*
X7196700Y-12449300D01*
X7247500Y-12347700D02*
X7247500Y-12449300D01*
X7196700Y-12398500D02*
X7298300Y-12398500D01*
X7196700Y-12601700D02*
X7298300Y-12703300D01*
X7298300Y-12601700D02*
X7196700Y-12703300D01*
X7247500Y-12601700D02*
X7247500Y-12703300D01*
X7196700Y-12652500D02*
X7298300Y-12652500D01*
X7196700Y-12855700D02*
X7298300Y-12957300D01*
X7298300Y-12855700D02*
X7196700Y-12957300D01*
X7247500Y-12855700D02*
X7247500Y-12957300D01*
X7196700Y-12906500D02*
X7298300Y-12906500D01*
X7196700Y-13109700D02*
X7298300Y-13211300D01*
X7298300Y-13109700D02*
X7196700Y-13211300D01*
X7247500Y-13109700D02*
X7247500Y-13211300D01*
X7196700Y-13160500D02*
X7298300Y-13160500D01*
X6647000Y-4197000D02*
X6753000Y-4303000D01*
X6753000Y-4197000D02*
X6647000Y-4303000D01*
X6737477Y-4287477D02*
X6737477Y-4212523D01*
X6662523Y-4212523D01*
X6662523Y-4287477D01*
X6737477Y-4287477D01*
X6647000Y-4497000D02*
X6753000Y-4603000D01*
X6753000Y-4497000D02*
X6647000Y-4603000D01*
X6737477Y-4587477D02*
X6737477Y-4512523D01*
X6662523Y-4512523D01*
X6662523Y-4587477D01*
X6737477Y-4587477D01*
X6647000Y-4797000D02*
X6753000Y-4903000D01*
X6753000Y-4797000D02*
X6647000Y-4903000D01*
X6737477Y-4887477D02*
X6737477Y-4812523D01*
X6662523Y-4812523D01*
X6662523Y-4887477D01*
X6737477Y-4887477D01*
X6647000Y-5097000D02*
X6753000Y-5203000D01*
X6753000Y-5097000D02*
X6647000Y-5203000D01*
X6737477Y-5187477D02*
X6737477Y-5112523D01*
X6662523Y-5112523D01*
X6662523Y-5187477D01*
X6737477Y-5187477D01*
X6647000Y-5397000D02*
X6753000Y-5503000D01*
X6753000Y-5397000D02*
X6647000Y-5503000D01*
X6737477Y-5487477D02*
X6737477Y-5412523D01*
X6662523Y-5412523D01*
X6662523Y-5487477D01*
X6737477Y-5487477D01*
X6647000Y-5697000D02*
X6753000Y-5803000D01*
X6753000Y-5697000D02*
X6647000Y-5803000D01*
X6737477Y-5787477D02*
X6737477Y-5712523D01*
X6662523Y-5712523D01*
X6662523Y-5787477D01*
X6737477Y-5787477D01*
X6647000Y-5997000D02*
X6753000Y-6103000D01*
X6753000Y-5997000D02*
X6647000Y-6103000D01*
X6737477Y-6087477D02*
X6737477Y-6012523D01*
X6662523Y-6012523D01*
X6662523Y-6087477D01*
X6737477Y-6087477D01*
X6647000Y-6297000D02*
X6753000Y-6403000D01*
X6753000Y-6297000D02*
X6647000Y-6403000D01*
X6737477Y-6387477D02*
X6737477Y-6312523D01*
X6662523Y-6312523D01*
X6662523Y-6387477D01*
X6737477Y-6387477D01*
X6647000Y-6597000D02*
X6753000Y-6703000D01*
X6753000Y-6597000D02*
X6647000Y-6703000D01*
X6737477Y-6687477D02*
X6737477Y-6612523D01*
X6662523Y-6612523D01*
X6662523Y-6687477D01*
X6737477Y-6687477D01*
X6647000Y-6897000D02*
X6753000Y-7003000D01*
X6753000Y-6897000D02*
X6647000Y-7003000D01*
X6737477Y-6987477D02*
X6737477Y-6912523D01*
X6662523Y-6912523D01*
X6662523Y-6987477D01*
X6737477Y-6987477D01*
X6647000Y-7197000D02*
X6753000Y-7303000D01*
X6753000Y-7197000D02*
X6647000Y-7303000D01*
X6737477Y-7287477D02*
X6737477Y-7212523D01*
X6662523Y-7212523D01*
X6662523Y-7287477D01*
X6737477Y-7287477D01*
X6647000Y-7497000D02*
X6753000Y-7603000D01*
X6753000Y-7497000D02*
X6647000Y-7603000D01*
X6737477Y-7587477D02*
X6737477Y-7512523D01*
X6662523Y-7512523D01*
X6662523Y-7587477D01*
X6737477Y-7587477D01*
X10090000Y-11640000D02*
X10210000Y-11760000D01*
X10210000Y-11640000D02*
X10090000Y-11760000D01*
X10150000Y-11760000D02*
X10210000Y-11700000D01*
X10150000Y-11640000D01*
X10090000Y-11700000D01*
X10150000Y-11760000D01*
X10090000Y-13680000D02*
X10210000Y-13800000D01*
X10210000Y-13680000D02*
X10090000Y-13800000D01*
X10150000Y-13800000D02*
X10210000Y-13740000D01*
X10150000Y-13680000D01*
X10090000Y-13740000D01*
X10150000Y-13800000D01*
X10852000Y-13680000D02*
X10972000Y-13800000D01*
X10972000Y-13680000D02*
X10852000Y-13800000D01*
X10912000Y-13800000D02*
X10972000Y-13740000D01*
X10912000Y-13680000D01*
X10852000Y-13740000D01*
X10912000Y-13800000D01*
X11106000Y-11640000D02*
X11226000Y-11760000D01*
X11226000Y-11640000D02*
X11106000Y-11760000D01*
X11166000Y-11760000D02*
X11226000Y-11700000D01*
X11166000Y-11640000D01*
X11106000Y-11700000D01*
X11166000Y-11760000D01*
X11360000Y-13680000D02*
X11480000Y-13800000D01*
X11480000Y-13680000D02*
X11360000Y-13800000D01*
X11420000Y-13800000D02*
X11480000Y-13740000D01*
X11420000Y-13680000D01*
X11360000Y-13740000D01*
X11420000Y-13800000D01*
X12122000Y-11640000D02*
X12242000Y-11760000D01*
X12242000Y-11640000D02*
X12122000Y-11760000D01*
X12182000Y-11760000D02*
X12242000Y-11700000D01*
X12182000Y-11640000D01*
X12122000Y-11700000D01*
X12182000Y-11760000D01*
X19265000Y-10490000D02*
X19385000Y-10610000D01*
X19385000Y-10490000D02*
X19265000Y-10610000D01*
X19325000Y-10610000D02*
X19385000Y-10550000D01*
X19325000Y-10490000D01*
X19265000Y-10550000D01*
X19325000Y-10610000D01*
X19265000Y-10790000D02*
X19385000Y-10910000D01*
X19385000Y-10790000D02*
X19265000Y-10910000D01*
X19325000Y-10910000D02*
X19385000Y-10850000D01*
X19325000Y-10790000D01*
X19265000Y-10850000D01*
X19325000Y-10910000D01*
X19265000Y-11090000D02*
X19385000Y-11210000D01*
X19385000Y-11090000D02*
X19265000Y-11210000D01*
X19325000Y-11210000D02*
X19385000Y-11150000D01*
X19325000Y-11090000D01*
X19265000Y-11150000D01*
X19325000Y-11210000D01*
X19265000Y-11390000D02*
X19385000Y-11510000D01*
X19385000Y-11390000D02*
X19265000Y-11510000D01*
X19325000Y-11510000D02*
X19385000Y-11450000D01*
X19325000Y-11390000D01*
X19265000Y-11450000D01*
X19325000Y-11510000D01*
X19265000Y-11690000D02*
X19385000Y-11810000D01*
X19385000Y-11690000D02*
X19265000Y-11810000D01*
X19325000Y-11810000D02*
X19385000Y-11750000D01*
X19325000Y-11690000D01*
X19265000Y-11750000D01*
X19325000Y-11810000D01*
X19265000Y-11990000D02*
X19385000Y-12110000D01*
X19385000Y-11990000D02*
X19265000Y-12110000D01*
X19325000Y-12110000D02*
X19385000Y-12050000D01*
X19325000Y-11990000D01*
X19265000Y-12050000D01*
X19325000Y-12110000D01*
X19265000Y-12290000D02*
X19385000Y-12410000D01*
X19385000Y-12290000D02*
X19265000Y-12410000D01*
X19325000Y-12410000D02*
X19385000Y-12350000D01*
X19325000Y-12290000D01*
X19265000Y-12350000D01*
X19325000Y-12410000D01*
X19265000Y-12590000D02*
X19385000Y-12710000D01*
X19385000Y-12590000D02*
X19265000Y-12710000D01*
X19325000Y-12710000D02*
X19385000Y-12650000D01*
X19325000Y-12590000D01*
X19265000Y-12650000D01*
X19325000Y-12710000D01*
X19265000Y-12890000D02*
X19385000Y-13010000D01*
X19385000Y-12890000D02*
X19265000Y-13010000D01*
X19325000Y-13010000D02*
X19385000Y-12950000D01*
X19325000Y-12890000D01*
X19265000Y-12950000D01*
X19325000Y-13010000D01*
X19265000Y-13190000D02*
X19385000Y-13310000D01*
X19385000Y-13190000D02*
X19265000Y-13310000D01*
X19325000Y-13310000D02*
X19385000Y-13250000D01*
X19325000Y-13190000D01*
X19265000Y-13250000D01*
X19325000Y-13310000D01*
X19265000Y-13490000D02*
X19385000Y-13610000D01*
X19385000Y-13490000D02*
X19265000Y-13610000D01*
X19325000Y-13610000D02*
X19385000Y-13550000D01*
X19325000Y-13490000D01*
X19265000Y-13550000D01*
X19325000Y-13610000D01*
X19265000Y-13790000D02*
X19385000Y-13910000D01*
X19385000Y-13790000D02*
X19265000Y-13910000D01*
X19325000Y-13910000D02*
X19385000Y-13850000D01*
X19325000Y-13790000D01*
X19265000Y-13850000D01*
X19325000Y-13910000D01*
X19565000Y-10490000D02*
X19685000Y-10610000D01*
X19685000Y-10490000D02*
X19565000Y-10610000D01*
X19625000Y-10610000D02*
X19685000Y-10550000D01*
X19625000Y-10490000D01*
X19565000Y-10550000D01*
X19625000Y-10610000D01*
X19565000Y-10790000D02*
X19685000Y-10910000D01*
X19685000Y-10790000D02*
X19565000Y-10910000D01*
X19625000Y-10910000D02*
X19685000Y-10850000D01*
X19625000Y-10790000D01*
X19565000Y-10850000D01*
X19625000Y-10910000D01*
X19565000Y-11090000D02*
X19685000Y-11210000D01*
X19685000Y-11090000D02*
X19565000Y-11210000D01*
X19625000Y-11210000D02*
X19685000Y-11150000D01*
X19625000Y-11090000D01*
X19565000Y-11150000D01*
X19625000Y-11210000D01*
X19565000Y-11390000D02*
X19685000Y-11510000D01*
X19685000Y-11390000D02*
X19565000Y-11510000D01*
X19625000Y-11510000D02*
X19685000Y-11450000D01*
X19625000Y-11390000D01*
X19565000Y-11450000D01*
X19625000Y-11510000D01*
X19565000Y-11690000D02*
X19685000Y-11810000D01*
X19685000Y-11690000D02*
X19565000Y-11810000D01*
X19625000Y-11810000D02*
X19685000Y-11750000D01*
X19625000Y-11690000D01*
X19565000Y-11750000D01*
X19625000Y-11810000D01*
X19565000Y-11990000D02*
X19685000Y-12110000D01*
X19685000Y-11990000D02*
X19565000Y-12110000D01*
X19625000Y-12110000D02*
X19685000Y-12050000D01*
X19625000Y-11990000D01*
X19565000Y-12050000D01*
X19625000Y-12110000D01*
X19565000Y-12290000D02*
X19685000Y-12410000D01*
X19685000Y-12290000D02*
X19565000Y-12410000D01*
X19625000Y-12410000D02*
X19685000Y-12350000D01*
X19625000Y-12290000D01*
X19565000Y-12350000D01*
X19625000Y-12410000D01*
X19565000Y-12590000D02*
X19685000Y-12710000D01*
X19685000Y-12590000D02*
X19565000Y-12710000D01*
X19625000Y-12710000D02*
X19685000Y-12650000D01*
X19625000Y-12590000D01*
X19565000Y-12650000D01*
X19625000Y-12710000D01*
X19565000Y-12890000D02*
X19685000Y-13010000D01*
X19685000Y-12890000D02*
X19565000Y-13010000D01*
X19625000Y-13010000D02*
X19685000Y-12950000D01*
X19625000Y-12890000D01*
X19565000Y-12950000D01*
X19625000Y-13010000D01*
X19565000Y-13190000D02*
X19685000Y-13310000D01*
X19685000Y-13190000D02*
X19565000Y-13310000D01*
X19625000Y-13310000D02*
X19685000Y-13250000D01*
X19625000Y-13190000D01*
X19565000Y-13250000D01*
X19625000Y-13310000D01*
X19565000Y-13490000D02*
X19685000Y-13610000D01*
X19685000Y-13490000D02*
X19565000Y-13610000D01*
X19625000Y-13610000D02*
X19685000Y-13550000D01*
X19625000Y-13490000D01*
X19565000Y-13550000D01*
X19625000Y-13610000D01*
X19565000Y-13790000D02*
X19685000Y-13910000D01*
X19685000Y-13790000D02*
X19565000Y-13910000D01*
X19625000Y-13910000D02*
X19685000Y-13850000D01*
X19625000Y-13790000D01*
X19565000Y-13850000D01*
X19625000Y-13910000D01*
X6896000Y-3886500D02*
X6896000Y-4013500D01*
X6832500Y-3950000D02*
X6959500Y-3950000D01*
X6959500Y-3950000D02*
G75*
G03X6959500Y-3950000I-63500J0D01*
G01*
X6896000Y-7786500D02*
X6896000Y-7913500D01*
X6832500Y-7850000D02*
X6959500Y-7850000D01*
X6959500Y-7850000D02*
G75*
G03X6959500Y-7850000I-63500J0D01*
G01*
X18212228Y-9222228D02*
X18212228Y-9027772D01*
X18017772Y-9027772D01*
X18017772Y-9222228D01*
X18212228Y-9222228D01*
X18252500Y-9125000D02*
G75*
G03X18252500Y-9125000I-137500J0D01*
G01*
X12412228Y-4322228D02*
X12412228Y-4127772D01*
X12217772Y-4127772D01*
X12217772Y-4322228D01*
X12412228Y-4322228D01*
X12452500Y-4225000D02*
G75*
G03X12452500Y-4225000I-137500J0D01*
G01*
X12412228Y-9224228D02*
X12412228Y-9029772D01*
X12217772Y-9029772D01*
X12217772Y-9224228D01*
X12412228Y-9224228D01*
X12452500Y-9127000D02*
G75*
G03X12452500Y-9127000I-137500J0D01*
G01*
X18212228Y-4322228D02*
X18212228Y-4127772D01*
X18017772Y-4127772D01*
X18017772Y-4322228D01*
X18212228Y-4322228D01*
X18252500Y-4225000D02*
G75*
G03X18252500Y-4225000I-137500J0D01*
G01*
X20057000Y-10915000D02*
X20207000Y-10765000D01*
X20057000Y-10615000D01*
X19907000Y-10765000D01*
X20057000Y-10915000D01*
X20207000Y-10765000D02*
G75*
G03X20207000Y-10765000I-150000J0D01*
G01*
X20057000Y-13785000D02*
X20207000Y-13635000D01*
X20057000Y-13485000D01*
X19907000Y-13635000D01*
X20057000Y-13785000D01*
X20207000Y-13635000D02*
G75*
G03X20207000Y-13635000I-150000J0D01*
G01*
X8436000Y-11566500D02*
X8586000Y-11416500D01*
X8436000Y-11266500D01*
X8286000Y-11416500D01*
X8436000Y-11566500D01*
X8586000Y-11416500D02*
G75*
G03X8586000Y-11416500I-150000J0D01*
G01*
X8436000Y-13271000D02*
X8586000Y-13121000D01*
X8436000Y-12971000D01*
X8286000Y-13121000D01*
X8436000Y-13271000D01*
X8586000Y-13121000D02*
G75*
G03X8586000Y-13121000I-150000J0D01*
G01*
X18512500Y-3228170D02*
X18512500Y-3555830D01*
X18348670Y-3392000D02*
X18676330Y-3392000D01*
X18628346Y-3507846D02*
X18628346Y-3276154D01*
X18396654Y-3276154D01*
X18396654Y-3507846D01*
X18628346Y-3507846D01*
X8351500Y-14359170D02*
X8351500Y-14686830D01*
X8187670Y-14523000D02*
X8515330Y-14523000D01*
X8467346Y-14638846D02*
X8467346Y-14407154D01*
X8235654Y-14407154D01*
X8235654Y-14638846D01*
X8467346Y-14638846D01*
X18512500Y-14359170D02*
X18512500Y-14686830D01*
X18348670Y-14523000D02*
X18676330Y-14523000D01*
X18628346Y-14638846D02*
X18628346Y-14407154D01*
X18396654Y-14407154D01*
X18396654Y-14638846D01*
X18628346Y-14638846D01*
X8351500Y-3228170D02*
X8351500Y-3555830D01*
X8187670Y-3392000D02*
X8515330Y-3392000D01*
X8467346Y-3507846D02*
X8467346Y-3276154D01*
X8235654Y-3276154D01*
X8235654Y-3507846D01*
X8467346Y-3507846D01*
D12*
X6458928Y-15573214D02*
X6458928Y-15273214D01*
X6530357Y-15273214D01*
X6573214Y-15287500D01*
X6601786Y-15316071D01*
X6616071Y-15344643D01*
X6630357Y-15401786D01*
X6630357Y-15444643D01*
X6616071Y-15501786D01*
X6601786Y-15530357D01*
X6573214Y-15558929D01*
X6530357Y-15573214D01*
X6458928Y-15573214D01*
X6758928Y-15573214D02*
X6758928Y-15373214D01*
X6758928Y-15430357D02*
X6773214Y-15401786D01*
X6787500Y-15387500D01*
X6816071Y-15373214D01*
X6844643Y-15373214D01*
X6944643Y-15573214D02*
X6944643Y-15373214D01*
X6944643Y-15273214D02*
X6930357Y-15287500D01*
X6944643Y-15301786D01*
X6958928Y-15287500D01*
X6944643Y-15273214D01*
X6944643Y-15301786D01*
X7130357Y-15573214D02*
X7101786Y-15558929D01*
X7087500Y-15530357D01*
X7087500Y-15273214D01*
X7287500Y-15573214D02*
X7258928Y-15558929D01*
X7244643Y-15530357D01*
X7244643Y-15273214D01*
X7630357Y-15573214D02*
X7630357Y-15273214D01*
X7730357Y-15487500D01*
X7830357Y-15273214D01*
X7830357Y-15573214D01*
X8101786Y-15573214D02*
X8101786Y-15416071D01*
X8087500Y-15387500D01*
X8058928Y-15373214D01*
X8001786Y-15373214D01*
X7973214Y-15387500D01*
X8101786Y-15558929D02*
X8073214Y-15573214D01*
X8001786Y-15573214D01*
X7973214Y-15558929D01*
X7958928Y-15530357D01*
X7958928Y-15501786D01*
X7973214Y-15473214D01*
X8001786Y-15458929D01*
X8073214Y-15458929D01*
X8101786Y-15444643D01*
X8244643Y-15373214D02*
X8244643Y-15673214D01*
X8244643Y-15387500D02*
X8273214Y-15373214D01*
X8330357Y-15373214D01*
X8358928Y-15387500D01*
X8373214Y-15401786D01*
X8387500Y-15430357D01*
X8387500Y-15516071D01*
X8373214Y-15544643D01*
X8358928Y-15558929D01*
X8330357Y-15573214D01*
X8273214Y-15573214D01*
X8244643Y-15558929D01*
X8516071Y-15544643D02*
X8530357Y-15558929D01*
X8516071Y-15573214D01*
X8501786Y-15558929D01*
X8516071Y-15544643D01*
X8516071Y-15573214D01*
X8516071Y-15387500D02*
X8530357Y-15401786D01*
X8516071Y-15416071D01*
X8501786Y-15401786D01*
X8516071Y-15387500D01*
X8516071Y-15416071D01*
X6132500Y-16047500D02*
X6172500Y-16087500D01*
X6172500Y-16047500D02*
X6132500Y-16087500D01*
X6516071Y-15903214D02*
X6544643Y-15903214D01*
X6573214Y-15917500D01*
X6587500Y-15931786D01*
X6601786Y-15960357D01*
X6616071Y-16017500D01*
X6616071Y-16088929D01*
X6601786Y-16146071D01*
X6587500Y-16174643D01*
X6573214Y-16188929D01*
X6544643Y-16203214D01*
X6516071Y-16203214D01*
X6487500Y-16188929D01*
X6473214Y-16174643D01*
X6458928Y-16146071D01*
X6444643Y-16088929D01*
X6444643Y-16017500D01*
X6458928Y-15960357D01*
X6473214Y-15931786D01*
X6487500Y-15917500D01*
X6516071Y-15903214D01*
X6744643Y-16174643D02*
X6758928Y-16188929D01*
X6744643Y-16203214D01*
X6730357Y-16188929D01*
X6744643Y-16174643D01*
X6744643Y-16203214D01*
X7016071Y-16003214D02*
X7016071Y-16203214D01*
X6944643Y-15888929D02*
X6873214Y-16103214D01*
X7058928Y-16103214D01*
X7230357Y-15903214D02*
X7258928Y-15903214D01*
X7287500Y-15917500D01*
X7301786Y-15931786D01*
X7316071Y-15960357D01*
X7330357Y-16017500D01*
X7330357Y-16088929D01*
X7316071Y-16146071D01*
X7301786Y-16174643D01*
X7287500Y-16188929D01*
X7258928Y-16203214D01*
X7230357Y-16203214D01*
X7201786Y-16188929D01*
X7187500Y-16174643D01*
X7173214Y-16146071D01*
X7158928Y-16088929D01*
X7158928Y-16017500D01*
X7173214Y-15960357D01*
X7187500Y-15931786D01*
X7201786Y-15917500D01*
X7230357Y-15903214D01*
X7458928Y-16203214D02*
X7458928Y-16003214D01*
X7458928Y-16031786D02*
X7473214Y-16017500D01*
X7501786Y-16003214D01*
X7544643Y-16003214D01*
X7573214Y-16017500D01*
X7587500Y-16046071D01*
X7587500Y-16203214D01*
X7587500Y-16046071D02*
X7601786Y-16017500D01*
X7630357Y-16003214D01*
X7673214Y-16003214D01*
X7701786Y-16017500D01*
X7716071Y-16046071D01*
X7716071Y-16203214D01*
X7858928Y-16203214D02*
X7858928Y-16003214D01*
X7858928Y-16031786D02*
X7873214Y-16017500D01*
X7901786Y-16003214D01*
X7944643Y-16003214D01*
X7973214Y-16017500D01*
X7987500Y-16046071D01*
X7987500Y-16203214D01*
X7987500Y-16046071D02*
X8001786Y-16017500D01*
X8030357Y-16003214D01*
X8073214Y-16003214D01*
X8101786Y-16017500D01*
X8116071Y-16046071D01*
X8116071Y-16203214D01*
X8701786Y-15888929D02*
X8444643Y-16274643D01*
X9087500Y-15903214D02*
X9116071Y-15903214D01*
X9144643Y-15917500D01*
X9158928Y-15931786D01*
X9173214Y-15960357D01*
X9187500Y-16017500D01*
X9187500Y-16088929D01*
X9173214Y-16146071D01*
X9158928Y-16174643D01*
X9144643Y-16188929D01*
X9116071Y-16203214D01*
X9087500Y-16203214D01*
X9058928Y-16188929D01*
X9044643Y-16174643D01*
X9030357Y-16146071D01*
X9016071Y-16088929D01*
X9016071Y-16017500D01*
X9030357Y-15960357D01*
X9044643Y-15931786D01*
X9058928Y-15917500D01*
X9087500Y-15903214D01*
X9316071Y-16174643D02*
X9330357Y-16188929D01*
X9316071Y-16203214D01*
X9301786Y-16188929D01*
X9316071Y-16174643D01*
X9316071Y-16203214D01*
X9516071Y-15903214D02*
X9544643Y-15903214D01*
X9573214Y-15917500D01*
X9587500Y-15931786D01*
X9601786Y-15960357D01*
X9616071Y-16017500D01*
X9616071Y-16088929D01*
X9601786Y-16146071D01*
X9587500Y-16174643D01*
X9573214Y-16188929D01*
X9544643Y-16203214D01*
X9516071Y-16203214D01*
X9487500Y-16188929D01*
X9473214Y-16174643D01*
X9458928Y-16146071D01*
X9444643Y-16088929D01*
X9444643Y-16017500D01*
X9458928Y-15960357D01*
X9473214Y-15931786D01*
X9487500Y-15917500D01*
X9516071Y-15903214D01*
X9901786Y-16203214D02*
X9730357Y-16203214D01*
X9816071Y-16203214D02*
X9816071Y-15903214D01*
X9787500Y-15946071D01*
X9758928Y-15974643D01*
X9730357Y-15988929D01*
X10158928Y-15903214D02*
X10101786Y-15903214D01*
X10073214Y-15917500D01*
X10058928Y-15931786D01*
X10030357Y-15974643D01*
X10016071Y-16031786D01*
X10016071Y-16146071D01*
X10030357Y-16174643D01*
X10044643Y-16188929D01*
X10073214Y-16203214D01*
X10130357Y-16203214D01*
X10158928Y-16188929D01*
X10173214Y-16174643D01*
X10187500Y-16146071D01*
X10187500Y-16074643D01*
X10173214Y-16046071D01*
X10158928Y-16031786D01*
X10130357Y-16017500D01*
X10073214Y-16017500D01*
X10044643Y-16031786D01*
X10030357Y-16046071D01*
X10016071Y-16074643D01*
X10301786Y-15903214D02*
X10301786Y-15960357D01*
X10416071Y-15903214D02*
X10416071Y-15960357D01*
X10858928Y-16317500D02*
X10844643Y-16303214D01*
X10816071Y-16260357D01*
X10801786Y-16231786D01*
X10787500Y-16188929D01*
X10773214Y-16117500D01*
X10773214Y-16060357D01*
X10787500Y-15988929D01*
X10801786Y-15946071D01*
X10816071Y-15917500D01*
X10844643Y-15874643D01*
X10858928Y-15860357D01*
X10944643Y-15903214D02*
X11130357Y-15903214D01*
X11030357Y-16017500D01*
X11073214Y-16017500D01*
X11101786Y-16031786D01*
X11116071Y-16046071D01*
X11130357Y-16074643D01*
X11130357Y-16146071D01*
X11116071Y-16174643D01*
X11101786Y-16188929D01*
X11073214Y-16203214D01*
X10987500Y-16203214D01*
X10958928Y-16188929D01*
X10944643Y-16174643D01*
X11230357Y-15903214D02*
X11430357Y-15903214D01*
X11301786Y-16203214D01*
X11773214Y-16203214D02*
X11773214Y-15903214D01*
X11901786Y-16203214D02*
X11901786Y-16046071D01*
X11887500Y-16017500D01*
X11858928Y-16003214D01*
X11816071Y-16003214D01*
X11787500Y-16017500D01*
X11773214Y-16031786D01*
X12087500Y-16203214D02*
X12058928Y-16188929D01*
X12044643Y-16174643D01*
X12030357Y-16146071D01*
X12030357Y-16060357D01*
X12044643Y-16031786D01*
X12058928Y-16017500D01*
X12087500Y-16003214D01*
X12130357Y-16003214D01*
X12158928Y-16017500D01*
X12173214Y-16031786D01*
X12187500Y-16060357D01*
X12187500Y-16146071D01*
X12173214Y-16174643D01*
X12158928Y-16188929D01*
X12130357Y-16203214D01*
X12087500Y-16203214D01*
X12358928Y-16203214D02*
X12330357Y-16188929D01*
X12316071Y-16160357D01*
X12316071Y-15903214D01*
X12587500Y-16188929D02*
X12558928Y-16203214D01*
X12501786Y-16203214D01*
X12473214Y-16188929D01*
X12458928Y-16160357D01*
X12458928Y-16046071D01*
X12473214Y-16017500D01*
X12501786Y-16003214D01*
X12558928Y-16003214D01*
X12587500Y-16017500D01*
X12601786Y-16046071D01*
X12601786Y-16074643D01*
X12458928Y-16103214D01*
X12716071Y-16188929D02*
X12744643Y-16203214D01*
X12801786Y-16203214D01*
X12830357Y-16188929D01*
X12844643Y-16160357D01*
X12844643Y-16146071D01*
X12830357Y-16117500D01*
X12801786Y-16103214D01*
X12758928Y-16103214D01*
X12730357Y-16088929D01*
X12716071Y-16060357D01*
X12716071Y-16046071D01*
X12730357Y-16017500D01*
X12758928Y-16003214D01*
X12801786Y-16003214D01*
X12830357Y-16017500D01*
X12944643Y-16317500D02*
X12958928Y-16303214D01*
X12987500Y-16260357D01*
X13001786Y-16231786D01*
X13016071Y-16188929D01*
X13030357Y-16117500D01*
X13030357Y-16060357D01*
X13016071Y-15988929D01*
X13001786Y-15946071D01*
X12987500Y-15917500D01*
X12958928Y-15874643D01*
X12944643Y-15860357D01*
X6172500Y-16463500D02*
G75*
G03X6172500Y-16463500I-25000J0D01*
G01*
X6516071Y-16299214D02*
X6544643Y-16299214D01*
X6573214Y-16313500D01*
X6587500Y-16327786D01*
X6601786Y-16356357D01*
X6616071Y-16413500D01*
X6616071Y-16484929D01*
X6601786Y-16542071D01*
X6587500Y-16570643D01*
X6573214Y-16584929D01*
X6544643Y-16599214D01*
X6516071Y-16599214D01*
X6487500Y-16584929D01*
X6473214Y-16570643D01*
X6458928Y-16542071D01*
X6444643Y-16484929D01*
X6444643Y-16413500D01*
X6458928Y-16356357D01*
X6473214Y-16327786D01*
X6487500Y-16313500D01*
X6516071Y-16299214D01*
X6744643Y-16570643D02*
X6758928Y-16584929D01*
X6744643Y-16599214D01*
X6730357Y-16584929D01*
X6744643Y-16570643D01*
X6744643Y-16599214D01*
X7030357Y-16299214D02*
X6887500Y-16299214D01*
X6873214Y-16442071D01*
X6887500Y-16427786D01*
X6916071Y-16413500D01*
X6987500Y-16413500D01*
X7016071Y-16427786D01*
X7030357Y-16442071D01*
X7044643Y-16470643D01*
X7044643Y-16542071D01*
X7030357Y-16570643D01*
X7016071Y-16584929D01*
X6987500Y-16599214D01*
X6916071Y-16599214D01*
X6887500Y-16584929D01*
X6873214Y-16570643D01*
X7230357Y-16299214D02*
X7258928Y-16299214D01*
X7287500Y-16313500D01*
X7301786Y-16327786D01*
X7316071Y-16356357D01*
X7330357Y-16413500D01*
X7330357Y-16484929D01*
X7316071Y-16542071D01*
X7301786Y-16570643D01*
X7287500Y-16584929D01*
X7258928Y-16599214D01*
X7230357Y-16599214D01*
X7201786Y-16584929D01*
X7187500Y-16570643D01*
X7173214Y-16542071D01*
X7158928Y-16484929D01*
X7158928Y-16413500D01*
X7173214Y-16356357D01*
X7187500Y-16327786D01*
X7201786Y-16313500D01*
X7230357Y-16299214D01*
X7458928Y-16599214D02*
X7458928Y-16399214D01*
X7458928Y-16427786D02*
X7473214Y-16413500D01*
X7501786Y-16399214D01*
X7544643Y-16399214D01*
X7573214Y-16413500D01*
X7587500Y-16442071D01*
X7587500Y-16599214D01*
X7587500Y-16442071D02*
X7601786Y-16413500D01*
X7630357Y-16399214D01*
X7673214Y-16399214D01*
X7701786Y-16413500D01*
X7716071Y-16442071D01*
X7716071Y-16599214D01*
X7858928Y-16599214D02*
X7858928Y-16399214D01*
X7858928Y-16427786D02*
X7873214Y-16413500D01*
X7901786Y-16399214D01*
X7944643Y-16399214D01*
X7973214Y-16413500D01*
X7987500Y-16442071D01*
X7987500Y-16599214D01*
X7987500Y-16442071D02*
X8001786Y-16413500D01*
X8030357Y-16399214D01*
X8073214Y-16399214D01*
X8101786Y-16413500D01*
X8116071Y-16442071D01*
X8116071Y-16599214D01*
X8701786Y-16284929D02*
X8444643Y-16670643D01*
X9087500Y-16299214D02*
X9116071Y-16299214D01*
X9144643Y-16313500D01*
X9158928Y-16327786D01*
X9173214Y-16356357D01*
X9187500Y-16413500D01*
X9187500Y-16484929D01*
X9173214Y-16542071D01*
X9158928Y-16570643D01*
X9144643Y-16584929D01*
X9116071Y-16599214D01*
X9087500Y-16599214D01*
X9058928Y-16584929D01*
X9044643Y-16570643D01*
X9030357Y-16542071D01*
X9016071Y-16484929D01*
X9016071Y-16413500D01*
X9030357Y-16356357D01*
X9044643Y-16327786D01*
X9058928Y-16313500D01*
X9087500Y-16299214D01*
X9316071Y-16570643D02*
X9330357Y-16584929D01*
X9316071Y-16599214D01*
X9301786Y-16584929D01*
X9316071Y-16570643D01*
X9316071Y-16599214D01*
X9516071Y-16299214D02*
X9544643Y-16299214D01*
X9573214Y-16313500D01*
X9587500Y-16327786D01*
X9601786Y-16356357D01*
X9616071Y-16413500D01*
X9616071Y-16484929D01*
X9601786Y-16542071D01*
X9587500Y-16570643D01*
X9573214Y-16584929D01*
X9544643Y-16599214D01*
X9516071Y-16599214D01*
X9487500Y-16584929D01*
X9473214Y-16570643D01*
X9458928Y-16542071D01*
X9444643Y-16484929D01*
X9444643Y-16413500D01*
X9458928Y-16356357D01*
X9473214Y-16327786D01*
X9487500Y-16313500D01*
X9516071Y-16299214D01*
X9730357Y-16327786D02*
X9744643Y-16313500D01*
X9773214Y-16299214D01*
X9844643Y-16299214D01*
X9873214Y-16313500D01*
X9887500Y-16327786D01*
X9901786Y-16356357D01*
X9901786Y-16384929D01*
X9887500Y-16427786D01*
X9716071Y-16599214D01*
X9901786Y-16599214D01*
X10087500Y-16299214D02*
X10116071Y-16299214D01*
X10144643Y-16313500D01*
X10158928Y-16327786D01*
X10173214Y-16356357D01*
X10187500Y-16413500D01*
X10187500Y-16484929D01*
X10173214Y-16542071D01*
X10158928Y-16570643D01*
X10144643Y-16584929D01*
X10116071Y-16599214D01*
X10087500Y-16599214D01*
X10058928Y-16584929D01*
X10044643Y-16570643D01*
X10030357Y-16542071D01*
X10016071Y-16484929D01*
X10016071Y-16413500D01*
X10030357Y-16356357D01*
X10044643Y-16327786D01*
X10058928Y-16313500D01*
X10087500Y-16299214D01*
X10301786Y-16299214D02*
X10301786Y-16356357D01*
X10416071Y-16299214D02*
X10416071Y-16356357D01*
X10858928Y-16713500D02*
X10844643Y-16699214D01*
X10816071Y-16656357D01*
X10801786Y-16627786D01*
X10787500Y-16584929D01*
X10773214Y-16513500D01*
X10773214Y-16456357D01*
X10787500Y-16384929D01*
X10801786Y-16342071D01*
X10816071Y-16313500D01*
X10844643Y-16270643D01*
X10858928Y-16256357D01*
X10987500Y-16599214D02*
X11044643Y-16599214D01*
X11073214Y-16584929D01*
X11087500Y-16570643D01*
X11116071Y-16527786D01*
X11130357Y-16470643D01*
X11130357Y-16356357D01*
X11116071Y-16327786D01*
X11101786Y-16313500D01*
X11073214Y-16299214D01*
X11016071Y-16299214D01*
X10987500Y-16313500D01*
X10973214Y-16327786D01*
X10958928Y-16356357D01*
X10958928Y-16427786D01*
X10973214Y-16456357D01*
X10987500Y-16470643D01*
X11016071Y-16484929D01*
X11073214Y-16484929D01*
X11101786Y-16470643D01*
X11116071Y-16456357D01*
X11130357Y-16427786D01*
X11487500Y-16599214D02*
X11487500Y-16299214D01*
X11616071Y-16599214D02*
X11616071Y-16442071D01*
X11601786Y-16413500D01*
X11573214Y-16399214D01*
X11530357Y-16399214D01*
X11501786Y-16413500D01*
X11487500Y-16427786D01*
X11801786Y-16599214D02*
X11773214Y-16584929D01*
X11758928Y-16570643D01*
X11744643Y-16542071D01*
X11744643Y-16456357D01*
X11758928Y-16427786D01*
X11773214Y-16413500D01*
X11801786Y-16399214D01*
X11844643Y-16399214D01*
X11873214Y-16413500D01*
X11887500Y-16427786D01*
X11901786Y-16456357D01*
X11901786Y-16542071D01*
X11887500Y-16570643D01*
X11873214Y-16584929D01*
X11844643Y-16599214D01*
X11801786Y-16599214D01*
X12073214Y-16599214D02*
X12044643Y-16584929D01*
X12030357Y-16556357D01*
X12030357Y-16299214D01*
X12301786Y-16584929D02*
X12273214Y-16599214D01*
X12216071Y-16599214D01*
X12187500Y-16584929D01*
X12173214Y-16556357D01*
X12173214Y-16442071D01*
X12187500Y-16413500D01*
X12216071Y-16399214D01*
X12273214Y-16399214D01*
X12301786Y-16413500D01*
X12316071Y-16442071D01*
X12316071Y-16470643D01*
X12173214Y-16499214D01*
X12430357Y-16584929D02*
X12458928Y-16599214D01*
X12516071Y-16599214D01*
X12544643Y-16584929D01*
X12558928Y-16556357D01*
X12558928Y-16542071D01*
X12544643Y-16513500D01*
X12516071Y-16499214D01*
X12473214Y-16499214D01*
X12444643Y-16484929D01*
X12430357Y-16456357D01*
X12430357Y-16442071D01*
X12444643Y-16413500D01*
X12473214Y-16399214D01*
X12516071Y-16399214D01*
X12544643Y-16413500D01*
X12658928Y-16713500D02*
X12673214Y-16699214D01*
X12701786Y-16656357D01*
X12716071Y-16627786D01*
X12730357Y-16584929D01*
X12744643Y-16513500D01*
X12744643Y-16456357D01*
X12730357Y-16384929D01*
X12716071Y-16342071D01*
X12701786Y-16313500D01*
X12673214Y-16270643D01*
X12658928Y-16256357D01*
X6132500Y-16819500D02*
X6132500Y-16899500D01*
X6092500Y-16859500D02*
X6172500Y-16859500D01*
X6516071Y-16695214D02*
X6544643Y-16695214D01*
X6573214Y-16709500D01*
X6587500Y-16723786D01*
X6601786Y-16752357D01*
X6616071Y-16809500D01*
X6616071Y-16880929D01*
X6601786Y-16938072D01*
X6587500Y-16966643D01*
X6573214Y-16980929D01*
X6544643Y-16995214D01*
X6516071Y-16995214D01*
X6487500Y-16980929D01*
X6473214Y-16966643D01*
X6458928Y-16938072D01*
X6444643Y-16880929D01*
X6444643Y-16809500D01*
X6458928Y-16752357D01*
X6473214Y-16723786D01*
X6487500Y-16709500D01*
X6516071Y-16695214D01*
X6744643Y-16966643D02*
X6758928Y-16980929D01*
X6744643Y-16995214D01*
X6730357Y-16980929D01*
X6744643Y-16966643D01*
X6744643Y-16995214D01*
X6930357Y-16823786D02*
X6901786Y-16809500D01*
X6887500Y-16795214D01*
X6873214Y-16766643D01*
X6873214Y-16752357D01*
X6887500Y-16723786D01*
X6901786Y-16709500D01*
X6930357Y-16695214D01*
X6987500Y-16695214D01*
X7016071Y-16709500D01*
X7030357Y-16723786D01*
X7044643Y-16752357D01*
X7044643Y-16766643D01*
X7030357Y-16795214D01*
X7016071Y-16809500D01*
X6987500Y-16823786D01*
X6930357Y-16823786D01*
X6901786Y-16838072D01*
X6887500Y-16852357D01*
X6873214Y-16880929D01*
X6873214Y-16938072D01*
X6887500Y-16966643D01*
X6901786Y-16980929D01*
X6930357Y-16995214D01*
X6987500Y-16995214D01*
X7016071Y-16980929D01*
X7030357Y-16966643D01*
X7044643Y-16938072D01*
X7044643Y-16880929D01*
X7030357Y-16852357D01*
X7016071Y-16838072D01*
X6987500Y-16823786D01*
X7230357Y-16695214D02*
X7258928Y-16695214D01*
X7287500Y-16709500D01*
X7301786Y-16723786D01*
X7316071Y-16752357D01*
X7330357Y-16809500D01*
X7330357Y-16880929D01*
X7316071Y-16938072D01*
X7301786Y-16966643D01*
X7287500Y-16980929D01*
X7258928Y-16995214D01*
X7230357Y-16995214D01*
X7201786Y-16980929D01*
X7187500Y-16966643D01*
X7173214Y-16938072D01*
X7158928Y-16880929D01*
X7158928Y-16809500D01*
X7173214Y-16752357D01*
X7187500Y-16723786D01*
X7201786Y-16709500D01*
X7230357Y-16695214D01*
X7458928Y-16995214D02*
X7458928Y-16795214D01*
X7458928Y-16823786D02*
X7473214Y-16809500D01*
X7501786Y-16795214D01*
X7544643Y-16795214D01*
X7573214Y-16809500D01*
X7587500Y-16838072D01*
X7587500Y-16995214D01*
X7587500Y-16838072D02*
X7601786Y-16809500D01*
X7630357Y-16795214D01*
X7673214Y-16795214D01*
X7701786Y-16809500D01*
X7716071Y-16838072D01*
X7716071Y-16995214D01*
X7858928Y-16995214D02*
X7858928Y-16795214D01*
X7858928Y-16823786D02*
X7873214Y-16809500D01*
X7901786Y-16795214D01*
X7944643Y-16795214D01*
X7973214Y-16809500D01*
X7987500Y-16838072D01*
X7987500Y-16995214D01*
X7987500Y-16838072D02*
X8001786Y-16809500D01*
X8030357Y-16795214D01*
X8073214Y-16795214D01*
X8101786Y-16809500D01*
X8116071Y-16838072D01*
X8116071Y-16995214D01*
X8701786Y-16680929D02*
X8444643Y-17066643D01*
X9087500Y-16695214D02*
X9116071Y-16695214D01*
X9144643Y-16709500D01*
X9158928Y-16723786D01*
X9173214Y-16752357D01*
X9187500Y-16809500D01*
X9187500Y-16880929D01*
X9173214Y-16938072D01*
X9158928Y-16966643D01*
X9144643Y-16980929D01*
X9116071Y-16995214D01*
X9087500Y-16995214D01*
X9058928Y-16980929D01*
X9044643Y-16966643D01*
X9030357Y-16938072D01*
X9016071Y-16880929D01*
X9016071Y-16809500D01*
X9030357Y-16752357D01*
X9044643Y-16723786D01*
X9058928Y-16709500D01*
X9087500Y-16695214D01*
X9316071Y-16966643D02*
X9330357Y-16980929D01*
X9316071Y-16995214D01*
X9301786Y-16980929D01*
X9316071Y-16966643D01*
X9316071Y-16995214D01*
X9516071Y-16695214D02*
X9544643Y-16695214D01*
X9573214Y-16709500D01*
X9587500Y-16723786D01*
X9601786Y-16752357D01*
X9616071Y-16809500D01*
X9616071Y-16880929D01*
X9601786Y-16938072D01*
X9587500Y-16966643D01*
X9573214Y-16980929D01*
X9544643Y-16995214D01*
X9516071Y-16995214D01*
X9487500Y-16980929D01*
X9473214Y-16966643D01*
X9458928Y-16938072D01*
X9444643Y-16880929D01*
X9444643Y-16809500D01*
X9458928Y-16752357D01*
X9473214Y-16723786D01*
X9487500Y-16709500D01*
X9516071Y-16695214D01*
X9716071Y-16695214D02*
X9901786Y-16695214D01*
X9801786Y-16809500D01*
X9844643Y-16809500D01*
X9873214Y-16823786D01*
X9887500Y-16838072D01*
X9901786Y-16866643D01*
X9901786Y-16938072D01*
X9887500Y-16966643D01*
X9873214Y-16980929D01*
X9844643Y-16995214D01*
X9758928Y-16995214D01*
X9730357Y-16980929D01*
X9716071Y-16966643D01*
X10187500Y-16995214D02*
X10016071Y-16995214D01*
X10101786Y-16995214D02*
X10101786Y-16695214D01*
X10073214Y-16738071D01*
X10044643Y-16766643D01*
X10016071Y-16780929D01*
X10301786Y-16695214D02*
X10301786Y-16752357D01*
X10416071Y-16695214D02*
X10416071Y-16752357D01*
X10858928Y-17109500D02*
X10844643Y-17095214D01*
X10816071Y-17052357D01*
X10801786Y-17023786D01*
X10787500Y-16980929D01*
X10773214Y-16909500D01*
X10773214Y-16852357D01*
X10787500Y-16780929D01*
X10801786Y-16738071D01*
X10816071Y-16709500D01*
X10844643Y-16666643D01*
X10858928Y-16652357D01*
X11101786Y-16795214D02*
X11101786Y-16995214D01*
X11030357Y-16680929D02*
X10958928Y-16895214D01*
X11144643Y-16895214D01*
X11273214Y-16995214D02*
X11330357Y-16995214D01*
X11358928Y-16980929D01*
X11373214Y-16966643D01*
X11401786Y-16923786D01*
X11416071Y-16866643D01*
X11416071Y-16752357D01*
X11401786Y-16723786D01*
X11387500Y-16709500D01*
X11358928Y-16695214D01*
X11301786Y-16695214D01*
X11273214Y-16709500D01*
X11258928Y-16723786D01*
X11244643Y-16752357D01*
X11244643Y-16823786D01*
X11258928Y-16852357D01*
X11273214Y-16866643D01*
X11301786Y-16880929D01*
X11358928Y-16880929D01*
X11387500Y-16866643D01*
X11401786Y-16852357D01*
X11416071Y-16823786D01*
X11773214Y-16995214D02*
X11773214Y-16695214D01*
X11901786Y-16995214D02*
X11901786Y-16838072D01*
X11887500Y-16809500D01*
X11858928Y-16795214D01*
X11816071Y-16795214D01*
X11787500Y-16809500D01*
X11773214Y-16823786D01*
X12087500Y-16995214D02*
X12058928Y-16980929D01*
X12044643Y-16966643D01*
X12030357Y-16938072D01*
X12030357Y-16852357D01*
X12044643Y-16823786D01*
X12058928Y-16809500D01*
X12087500Y-16795214D01*
X12130357Y-16795214D01*
X12158928Y-16809500D01*
X12173214Y-16823786D01*
X12187500Y-16852357D01*
X12187500Y-16938072D01*
X12173214Y-16966643D01*
X12158928Y-16980929D01*
X12130357Y-16995214D01*
X12087500Y-16995214D01*
X12358928Y-16995214D02*
X12330357Y-16980929D01*
X12316071Y-16952357D01*
X12316071Y-16695214D01*
X12587500Y-16980929D02*
X12558928Y-16995214D01*
X12501786Y-16995214D01*
X12473214Y-16980929D01*
X12458928Y-16952357D01*
X12458928Y-16838072D01*
X12473214Y-16809500D01*
X12501786Y-16795214D01*
X12558928Y-16795214D01*
X12587500Y-16809500D01*
X12601786Y-16838072D01*
X12601786Y-16866643D01*
X12458928Y-16895214D01*
X12716071Y-16980929D02*
X12744643Y-16995214D01*
X12801786Y-16995214D01*
X12830357Y-16980929D01*
X12844643Y-16952357D01*
X12844643Y-16938072D01*
X12830357Y-16909500D01*
X12801786Y-16895214D01*
X12758928Y-16895214D01*
X12730357Y-16880929D01*
X12716071Y-16852357D01*
X12716071Y-16838072D01*
X12730357Y-16809500D01*
X12758928Y-16795214D01*
X12801786Y-16795214D01*
X12830357Y-16809500D01*
X12944643Y-17109500D02*
X12958928Y-17095214D01*
X12987500Y-17052357D01*
X13001786Y-17023786D01*
X13016071Y-16980929D01*
X13030357Y-16909500D01*
X13030357Y-16852357D01*
X13016071Y-16780929D01*
X13001786Y-16738071D01*
X12987500Y-16709500D01*
X12958928Y-16666643D01*
X12944643Y-16652357D01*
X6160783Y-17283788D02*
X6160783Y-17227212D01*
X6104207Y-17227212D01*
X6104207Y-17283788D01*
X6160783Y-17283788D01*
X6516071Y-17091214D02*
X6544643Y-17091214D01*
X6573214Y-17105500D01*
X6587500Y-17119786D01*
X6601786Y-17148357D01*
X6616071Y-17205500D01*
X6616071Y-17276929D01*
X6601786Y-17334072D01*
X6587500Y-17362643D01*
X6573214Y-17376929D01*
X6544643Y-17391214D01*
X6516071Y-17391214D01*
X6487500Y-17376929D01*
X6473214Y-17362643D01*
X6458928Y-17334072D01*
X6444643Y-17276929D01*
X6444643Y-17205500D01*
X6458928Y-17148357D01*
X6473214Y-17119786D01*
X6487500Y-17105500D01*
X6516071Y-17091214D01*
X6744643Y-17362643D02*
X6758928Y-17376929D01*
X6744643Y-17391214D01*
X6730357Y-17376929D01*
X6744643Y-17362643D01*
X6744643Y-17391214D01*
X6930357Y-17219786D02*
X6901786Y-17205500D01*
X6887500Y-17191214D01*
X6873214Y-17162643D01*
X6873214Y-17148357D01*
X6887500Y-17119786D01*
X6901786Y-17105500D01*
X6930357Y-17091214D01*
X6987500Y-17091214D01*
X7016071Y-17105500D01*
X7030357Y-17119786D01*
X7044643Y-17148357D01*
X7044643Y-17162643D01*
X7030357Y-17191214D01*
X7016071Y-17205500D01*
X6987500Y-17219786D01*
X6930357Y-17219786D01*
X6901786Y-17234072D01*
X6887500Y-17248357D01*
X6873214Y-17276929D01*
X6873214Y-17334072D01*
X6887500Y-17362643D01*
X6901786Y-17376929D01*
X6930357Y-17391214D01*
X6987500Y-17391214D01*
X7016071Y-17376929D01*
X7030357Y-17362643D01*
X7044643Y-17334072D01*
X7044643Y-17276929D01*
X7030357Y-17248357D01*
X7016071Y-17234072D01*
X6987500Y-17219786D01*
X7230357Y-17091214D02*
X7258928Y-17091214D01*
X7287500Y-17105500D01*
X7301786Y-17119786D01*
X7316071Y-17148357D01*
X7330357Y-17205500D01*
X7330357Y-17276929D01*
X7316071Y-17334072D01*
X7301786Y-17362643D01*
X7287500Y-17376929D01*
X7258928Y-17391214D01*
X7230357Y-17391214D01*
X7201786Y-17376929D01*
X7187500Y-17362643D01*
X7173214Y-17334072D01*
X7158928Y-17276929D01*
X7158928Y-17205500D01*
X7173214Y-17148357D01*
X7187500Y-17119786D01*
X7201786Y-17105500D01*
X7230357Y-17091214D01*
X7458928Y-17391214D02*
X7458928Y-17191214D01*
X7458928Y-17219786D02*
X7473214Y-17205500D01*
X7501786Y-17191214D01*
X7544643Y-17191214D01*
X7573214Y-17205500D01*
X7587500Y-17234072D01*
X7587500Y-17391214D01*
X7587500Y-17234072D02*
X7601786Y-17205500D01*
X7630357Y-17191214D01*
X7673214Y-17191214D01*
X7701786Y-17205500D01*
X7716071Y-17234072D01*
X7716071Y-17391214D01*
X7858928Y-17391214D02*
X7858928Y-17191214D01*
X7858928Y-17219786D02*
X7873214Y-17205500D01*
X7901786Y-17191214D01*
X7944643Y-17191214D01*
X7973214Y-17205500D01*
X7987500Y-17234072D01*
X7987500Y-17391214D01*
X7987500Y-17234072D02*
X8001786Y-17205500D01*
X8030357Y-17191214D01*
X8073214Y-17191214D01*
X8101786Y-17205500D01*
X8116071Y-17234072D01*
X8116071Y-17391214D01*
X8701786Y-17076929D02*
X8444643Y-17462643D01*
X9087500Y-17091214D02*
X9116071Y-17091214D01*
X9144643Y-17105500D01*
X9158928Y-17119786D01*
X9173214Y-17148357D01*
X9187500Y-17205500D01*
X9187500Y-17276929D01*
X9173214Y-17334072D01*
X9158928Y-17362643D01*
X9144643Y-17376929D01*
X9116071Y-17391214D01*
X9087500Y-17391214D01*
X9058928Y-17376929D01*
X9044643Y-17362643D01*
X9030357Y-17334072D01*
X9016071Y-17276929D01*
X9016071Y-17205500D01*
X9030357Y-17148357D01*
X9044643Y-17119786D01*
X9058928Y-17105500D01*
X9087500Y-17091214D01*
X9316071Y-17362643D02*
X9330357Y-17376929D01*
X9316071Y-17391214D01*
X9301786Y-17376929D01*
X9316071Y-17362643D01*
X9316071Y-17391214D01*
X9516071Y-17091214D02*
X9544643Y-17091214D01*
X9573214Y-17105500D01*
X9587500Y-17119786D01*
X9601786Y-17148357D01*
X9616071Y-17205500D01*
X9616071Y-17276929D01*
X9601786Y-17334072D01*
X9587500Y-17362643D01*
X9573214Y-17376929D01*
X9544643Y-17391214D01*
X9516071Y-17391214D01*
X9487500Y-17376929D01*
X9473214Y-17362643D01*
X9458928Y-17334072D01*
X9444643Y-17276929D01*
X9444643Y-17205500D01*
X9458928Y-17148357D01*
X9473214Y-17119786D01*
X9487500Y-17105500D01*
X9516071Y-17091214D01*
X9716071Y-17091214D02*
X9901786Y-17091214D01*
X9801786Y-17205500D01*
X9844643Y-17205500D01*
X9873214Y-17219786D01*
X9887500Y-17234072D01*
X9901786Y-17262643D01*
X9901786Y-17334072D01*
X9887500Y-17362643D01*
X9873214Y-17376929D01*
X9844643Y-17391214D01*
X9758928Y-17391214D01*
X9730357Y-17376929D01*
X9716071Y-17362643D01*
X10016071Y-17119786D02*
X10030357Y-17105500D01*
X10058928Y-17091214D01*
X10130357Y-17091214D01*
X10158928Y-17105500D01*
X10173214Y-17119786D01*
X10187500Y-17148357D01*
X10187500Y-17176929D01*
X10173214Y-17219786D01*
X10001786Y-17391214D01*
X10187500Y-17391214D01*
X10301786Y-17091214D02*
X10301786Y-17148357D01*
X10416071Y-17091214D02*
X10416071Y-17148357D01*
X10858928Y-17505500D02*
X10844643Y-17491214D01*
X10816071Y-17448357D01*
X10801786Y-17419786D01*
X10787500Y-17376929D01*
X10773214Y-17305500D01*
X10773214Y-17248357D01*
X10787500Y-17176929D01*
X10801786Y-17134072D01*
X10816071Y-17105500D01*
X10844643Y-17062643D01*
X10858928Y-17048357D01*
X11116071Y-17091214D02*
X10973214Y-17091214D01*
X10958928Y-17234072D01*
X10973214Y-17219786D01*
X11001786Y-17205500D01*
X11073214Y-17205500D01*
X11101786Y-17219786D01*
X11116071Y-17234072D01*
X11130357Y-17262643D01*
X11130357Y-17334072D01*
X11116071Y-17362643D01*
X11101786Y-17376929D01*
X11073214Y-17391214D01*
X11001786Y-17391214D01*
X10973214Y-17376929D01*
X10958928Y-17362643D01*
X11487500Y-17391214D02*
X11487500Y-17091214D01*
X11616071Y-17391214D02*
X11616071Y-17234072D01*
X11601786Y-17205500D01*
X11573214Y-17191214D01*
X11530357Y-17191214D01*
X11501786Y-17205500D01*
X11487500Y-17219786D01*
X11801786Y-17391214D02*
X11773214Y-17376929D01*
X11758928Y-17362643D01*
X11744643Y-17334072D01*
X11744643Y-17248357D01*
X11758928Y-17219786D01*
X11773214Y-17205500D01*
X11801786Y-17191214D01*
X11844643Y-17191214D01*
X11873214Y-17205500D01*
X11887500Y-17219786D01*
X11901786Y-17248357D01*
X11901786Y-17334072D01*
X11887500Y-17362643D01*
X11873214Y-17376929D01*
X11844643Y-17391214D01*
X11801786Y-17391214D01*
X12073214Y-17391214D02*
X12044643Y-17376929D01*
X12030357Y-17348357D01*
X12030357Y-17091214D01*
X12301786Y-17376929D02*
X12273214Y-17391214D01*
X12216071Y-17391214D01*
X12187500Y-17376929D01*
X12173214Y-17348357D01*
X12173214Y-17234072D01*
X12187500Y-17205500D01*
X12216071Y-17191214D01*
X12273214Y-17191214D01*
X12301786Y-17205500D01*
X12316071Y-17234072D01*
X12316071Y-17262643D01*
X12173214Y-17291214D01*
X12430357Y-17376929D02*
X12458928Y-17391214D01*
X12516071Y-17391214D01*
X12544643Y-17376929D01*
X12558928Y-17348357D01*
X12558928Y-17334072D01*
X12544643Y-17305500D01*
X12516071Y-17291214D01*
X12473214Y-17291214D01*
X12444643Y-17276929D01*
X12430357Y-17248357D01*
X12430357Y-17234072D01*
X12444643Y-17205500D01*
X12473214Y-17191214D01*
X12516071Y-17191214D01*
X12544643Y-17205500D01*
X12658928Y-17505500D02*
X12673214Y-17491214D01*
X12701786Y-17448357D01*
X12716071Y-17419786D01*
X12730357Y-17376929D01*
X12744643Y-17305500D01*
X12744643Y-17248357D01*
X12730357Y-17176929D01*
X12716071Y-17134072D01*
X12701786Y-17105500D01*
X12673214Y-17062643D01*
X12658928Y-17048357D01*
X6127500Y-17696500D02*
X6172500Y-17651500D01*
X6127500Y-17606500D01*
X6082500Y-17651500D01*
X6127500Y-17696500D01*
X6516071Y-17487214D02*
X6544643Y-17487214D01*
X6573214Y-17501500D01*
X6587500Y-17515786D01*
X6601786Y-17544357D01*
X6616071Y-17601500D01*
X6616071Y-17672929D01*
X6601786Y-17730072D01*
X6587500Y-17758643D01*
X6573214Y-17772929D01*
X6544643Y-17787214D01*
X6516071Y-17787214D01*
X6487500Y-17772929D01*
X6473214Y-17758643D01*
X6458928Y-17730072D01*
X6444643Y-17672929D01*
X6444643Y-17601500D01*
X6458928Y-17544357D01*
X6473214Y-17515786D01*
X6487500Y-17501500D01*
X6516071Y-17487214D01*
X6744643Y-17758643D02*
X6758928Y-17772929D01*
X6744643Y-17787214D01*
X6730357Y-17772929D01*
X6744643Y-17758643D01*
X6744643Y-17787214D01*
X6901786Y-17787214D02*
X6958928Y-17787214D01*
X6987500Y-17772929D01*
X7001786Y-17758643D01*
X7030357Y-17715786D01*
X7044643Y-17658643D01*
X7044643Y-17544357D01*
X7030357Y-17515786D01*
X7016071Y-17501500D01*
X6987500Y-17487214D01*
X6930357Y-17487214D01*
X6901786Y-17501500D01*
X6887500Y-17515786D01*
X6873214Y-17544357D01*
X6873214Y-17615786D01*
X6887500Y-17644357D01*
X6901786Y-17658643D01*
X6930357Y-17672929D01*
X6987500Y-17672929D01*
X7016071Y-17658643D01*
X7030357Y-17644357D01*
X7044643Y-17615786D01*
X7230357Y-17487214D02*
X7258928Y-17487214D01*
X7287500Y-17501500D01*
X7301786Y-17515786D01*
X7316071Y-17544357D01*
X7330357Y-17601500D01*
X7330357Y-17672929D01*
X7316071Y-17730072D01*
X7301786Y-17758643D01*
X7287500Y-17772929D01*
X7258928Y-17787214D01*
X7230357Y-17787214D01*
X7201786Y-17772929D01*
X7187500Y-17758643D01*
X7173214Y-17730072D01*
X7158928Y-17672929D01*
X7158928Y-17601500D01*
X7173214Y-17544357D01*
X7187500Y-17515786D01*
X7201786Y-17501500D01*
X7230357Y-17487214D01*
X7458928Y-17787214D02*
X7458928Y-17587214D01*
X7458928Y-17615786D02*
X7473214Y-17601500D01*
X7501786Y-17587214D01*
X7544643Y-17587214D01*
X7573214Y-17601500D01*
X7587500Y-17630072D01*
X7587500Y-17787214D01*
X7587500Y-17630072D02*
X7601786Y-17601500D01*
X7630357Y-17587214D01*
X7673214Y-17587214D01*
X7701786Y-17601500D01*
X7716071Y-17630072D01*
X7716071Y-17787214D01*
X7858928Y-17787214D02*
X7858928Y-17587214D01*
X7858928Y-17615786D02*
X7873214Y-17601500D01*
X7901786Y-17587214D01*
X7944643Y-17587214D01*
X7973214Y-17601500D01*
X7987500Y-17630072D01*
X7987500Y-17787214D01*
X7987500Y-17630072D02*
X8001786Y-17601500D01*
X8030357Y-17587214D01*
X8073214Y-17587214D01*
X8101786Y-17601500D01*
X8116071Y-17630072D01*
X8116071Y-17787214D01*
X8701786Y-17472929D02*
X8444643Y-17858643D01*
X9087500Y-17487214D02*
X9116071Y-17487214D01*
X9144643Y-17501500D01*
X9158928Y-17515786D01*
X9173214Y-17544357D01*
X9187500Y-17601500D01*
X9187500Y-17672929D01*
X9173214Y-17730072D01*
X9158928Y-17758643D01*
X9144643Y-17772929D01*
X9116071Y-17787214D01*
X9087500Y-17787214D01*
X9058928Y-17772929D01*
X9044643Y-17758643D01*
X9030357Y-17730072D01*
X9016071Y-17672929D01*
X9016071Y-17601500D01*
X9030357Y-17544357D01*
X9044643Y-17515786D01*
X9058928Y-17501500D01*
X9087500Y-17487214D01*
X9316071Y-17758643D02*
X9330357Y-17772929D01*
X9316071Y-17787214D01*
X9301786Y-17772929D01*
X9316071Y-17758643D01*
X9316071Y-17787214D01*
X9516071Y-17487214D02*
X9544643Y-17487214D01*
X9573214Y-17501500D01*
X9587500Y-17515786D01*
X9601786Y-17544357D01*
X9616071Y-17601500D01*
X9616071Y-17672929D01*
X9601786Y-17730072D01*
X9587500Y-17758643D01*
X9573214Y-17772929D01*
X9544643Y-17787214D01*
X9516071Y-17787214D01*
X9487500Y-17772929D01*
X9473214Y-17758643D01*
X9458928Y-17730072D01*
X9444643Y-17672929D01*
X9444643Y-17601500D01*
X9458928Y-17544357D01*
X9473214Y-17515786D01*
X9487500Y-17501500D01*
X9516071Y-17487214D01*
X9716071Y-17487214D02*
X9901786Y-17487214D01*
X9801786Y-17601500D01*
X9844643Y-17601500D01*
X9873214Y-17615786D01*
X9887500Y-17630072D01*
X9901786Y-17658643D01*
X9901786Y-17730072D01*
X9887500Y-17758643D01*
X9873214Y-17772929D01*
X9844643Y-17787214D01*
X9758928Y-17787214D01*
X9730357Y-17772929D01*
X9716071Y-17758643D01*
X10173214Y-17487214D02*
X10030357Y-17487214D01*
X10016071Y-17630072D01*
X10030357Y-17615786D01*
X10058928Y-17601500D01*
X10130357Y-17601500D01*
X10158928Y-17615786D01*
X10173214Y-17630072D01*
X10187500Y-17658643D01*
X10187500Y-17730072D01*
X10173214Y-17758643D01*
X10158928Y-17772929D01*
X10130357Y-17787214D01*
X10058928Y-17787214D01*
X10030357Y-17772929D01*
X10016071Y-17758643D01*
X10301786Y-17487214D02*
X10301786Y-17544357D01*
X10416071Y-17487214D02*
X10416071Y-17544357D01*
X10858928Y-17901500D02*
X10844643Y-17887214D01*
X10816071Y-17844357D01*
X10801786Y-17815786D01*
X10787500Y-17772929D01*
X10773214Y-17701500D01*
X10773214Y-17644357D01*
X10787500Y-17572929D01*
X10801786Y-17530072D01*
X10816071Y-17501500D01*
X10844643Y-17458643D01*
X10858928Y-17444357D01*
X11016071Y-17615786D02*
X10987500Y-17601500D01*
X10973214Y-17587214D01*
X10958928Y-17558643D01*
X10958928Y-17544357D01*
X10973214Y-17515786D01*
X10987500Y-17501500D01*
X11016071Y-17487214D01*
X11073214Y-17487214D01*
X11101786Y-17501500D01*
X11116071Y-17515786D01*
X11130357Y-17544357D01*
X11130357Y-17558643D01*
X11116071Y-17587214D01*
X11101786Y-17601500D01*
X11073214Y-17615786D01*
X11016071Y-17615786D01*
X10987500Y-17630072D01*
X10973214Y-17644357D01*
X10958928Y-17672929D01*
X10958928Y-17730072D01*
X10973214Y-17758643D01*
X10987500Y-17772929D01*
X11016071Y-17787214D01*
X11073214Y-17787214D01*
X11101786Y-17772929D01*
X11116071Y-17758643D01*
X11130357Y-17730072D01*
X11130357Y-17672929D01*
X11116071Y-17644357D01*
X11101786Y-17630072D01*
X11073214Y-17615786D01*
X11487500Y-17787214D02*
X11487500Y-17487214D01*
X11616071Y-17787214D02*
X11616071Y-17630072D01*
X11601786Y-17601500D01*
X11573214Y-17587214D01*
X11530357Y-17587214D01*
X11501786Y-17601500D01*
X11487500Y-17615786D01*
X11801786Y-17787214D02*
X11773214Y-17772929D01*
X11758928Y-17758643D01*
X11744643Y-17730072D01*
X11744643Y-17644357D01*
X11758928Y-17615786D01*
X11773214Y-17601500D01*
X11801786Y-17587214D01*
X11844643Y-17587214D01*
X11873214Y-17601500D01*
X11887500Y-17615786D01*
X11901786Y-17644357D01*
X11901786Y-17730072D01*
X11887500Y-17758643D01*
X11873214Y-17772929D01*
X11844643Y-17787214D01*
X11801786Y-17787214D01*
X12073214Y-17787214D02*
X12044643Y-17772929D01*
X12030357Y-17744357D01*
X12030357Y-17487214D01*
X12301786Y-17772929D02*
X12273214Y-17787214D01*
X12216071Y-17787214D01*
X12187500Y-17772929D01*
X12173214Y-17744357D01*
X12173214Y-17630072D01*
X12187500Y-17601500D01*
X12216071Y-17587214D01*
X12273214Y-17587214D01*
X12301786Y-17601500D01*
X12316071Y-17630072D01*
X12316071Y-17658643D01*
X12173214Y-17687214D01*
X12430357Y-17772929D02*
X12458928Y-17787214D01*
X12516071Y-17787214D01*
X12544643Y-17772929D01*
X12558928Y-17744357D01*
X12558928Y-17730072D01*
X12544643Y-17701500D01*
X12516071Y-17687214D01*
X12473214Y-17687214D01*
X12444643Y-17672929D01*
X12430357Y-17644357D01*
X12430357Y-17630072D01*
X12444643Y-17601500D01*
X12473214Y-17587214D01*
X12516071Y-17587214D01*
X12544643Y-17601500D01*
X12658928Y-17901500D02*
X12673214Y-17887214D01*
X12701786Y-17844357D01*
X12716071Y-17815786D01*
X12730357Y-17772929D01*
X12744643Y-17701500D01*
X12744643Y-17644357D01*
X12730357Y-17572929D01*
X12716071Y-17530072D01*
X12701786Y-17501500D01*
X12673214Y-17458643D01*
X12658928Y-17444357D01*
X6072424Y-17997462D02*
X6172500Y-18097538D01*
X6172500Y-17997462D02*
X6072424Y-18097538D01*
X6172500Y-18047500D02*
G75*
G03X6172500Y-18047500I-50038J0D01*
G01*
X6616071Y-18183214D02*
X6444643Y-18183214D01*
X6530357Y-18183214D02*
X6530357Y-17883214D01*
X6501786Y-17926072D01*
X6473214Y-17954643D01*
X6444643Y-17968929D01*
X6744643Y-18154643D02*
X6758928Y-18168929D01*
X6744643Y-18183214D01*
X6730357Y-18168929D01*
X6744643Y-18154643D01*
X6744643Y-18183214D01*
X6944643Y-17883214D02*
X6973214Y-17883214D01*
X7001786Y-17897500D01*
X7016071Y-17911786D01*
X7030357Y-17940357D01*
X7044643Y-17997500D01*
X7044643Y-18068929D01*
X7030357Y-18126072D01*
X7016071Y-18154643D01*
X7001786Y-18168929D01*
X6973214Y-18183214D01*
X6944643Y-18183214D01*
X6916071Y-18168929D01*
X6901786Y-18154643D01*
X6887500Y-18126072D01*
X6873214Y-18068929D01*
X6873214Y-17997500D01*
X6887500Y-17940357D01*
X6901786Y-17911786D01*
X6916071Y-17897500D01*
X6944643Y-17883214D01*
X7230357Y-17883214D02*
X7258928Y-17883214D01*
X7287500Y-17897500D01*
X7301786Y-17911786D01*
X7316071Y-17940357D01*
X7330357Y-17997500D01*
X7330357Y-18068929D01*
X7316071Y-18126072D01*
X7301786Y-18154643D01*
X7287500Y-18168929D01*
X7258928Y-18183214D01*
X7230357Y-18183214D01*
X7201786Y-18168929D01*
X7187500Y-18154643D01*
X7173214Y-18126072D01*
X7158928Y-18068929D01*
X7158928Y-17997500D01*
X7173214Y-17940357D01*
X7187500Y-17911786D01*
X7201786Y-17897500D01*
X7230357Y-17883214D01*
X7458928Y-18183214D02*
X7458928Y-17983214D01*
X7458928Y-18011786D02*
X7473214Y-17997500D01*
X7501786Y-17983214D01*
X7544643Y-17983214D01*
X7573214Y-17997500D01*
X7587500Y-18026072D01*
X7587500Y-18183214D01*
X7587500Y-18026072D02*
X7601786Y-17997500D01*
X7630357Y-17983214D01*
X7673214Y-17983214D01*
X7701786Y-17997500D01*
X7716071Y-18026072D01*
X7716071Y-18183214D01*
X7858928Y-18183214D02*
X7858928Y-17983214D01*
X7858928Y-18011786D02*
X7873214Y-17997500D01*
X7901786Y-17983214D01*
X7944643Y-17983214D01*
X7973214Y-17997500D01*
X7987500Y-18026072D01*
X7987500Y-18183214D01*
X7987500Y-18026072D02*
X8001786Y-17997500D01*
X8030357Y-17983214D01*
X8073214Y-17983214D01*
X8101786Y-17997500D01*
X8116071Y-18026072D01*
X8116071Y-18183214D01*
X8701786Y-17868929D02*
X8444643Y-18254643D01*
X9087500Y-17883214D02*
X9116071Y-17883214D01*
X9144643Y-17897500D01*
X9158928Y-17911786D01*
X9173214Y-17940357D01*
X9187500Y-17997500D01*
X9187500Y-18068929D01*
X9173214Y-18126072D01*
X9158928Y-18154643D01*
X9144643Y-18168929D01*
X9116071Y-18183214D01*
X9087500Y-18183214D01*
X9058928Y-18168929D01*
X9044643Y-18154643D01*
X9030357Y-18126072D01*
X9016071Y-18068929D01*
X9016071Y-17997500D01*
X9030357Y-17940357D01*
X9044643Y-17911786D01*
X9058928Y-17897500D01*
X9087500Y-17883214D01*
X9316071Y-18154643D02*
X9330357Y-18168929D01*
X9316071Y-18183214D01*
X9301786Y-18168929D01*
X9316071Y-18154643D01*
X9316071Y-18183214D01*
X9516071Y-17883214D02*
X9544643Y-17883214D01*
X9573214Y-17897500D01*
X9587500Y-17911786D01*
X9601786Y-17940357D01*
X9616071Y-17997500D01*
X9616071Y-18068929D01*
X9601786Y-18126072D01*
X9587500Y-18154643D01*
X9573214Y-18168929D01*
X9544643Y-18183214D01*
X9516071Y-18183214D01*
X9487500Y-18168929D01*
X9473214Y-18154643D01*
X9458928Y-18126072D01*
X9444643Y-18068929D01*
X9444643Y-17997500D01*
X9458928Y-17940357D01*
X9473214Y-17911786D01*
X9487500Y-17897500D01*
X9516071Y-17883214D01*
X9716071Y-17883214D02*
X9901786Y-17883214D01*
X9801786Y-17997500D01*
X9844643Y-17997500D01*
X9873214Y-18011786D01*
X9887500Y-18026072D01*
X9901786Y-18054643D01*
X9901786Y-18126072D01*
X9887500Y-18154643D01*
X9873214Y-18168929D01*
X9844643Y-18183214D01*
X9758928Y-18183214D01*
X9730357Y-18168929D01*
X9716071Y-18154643D01*
X10044643Y-18183214D02*
X10101786Y-18183214D01*
X10130357Y-18168929D01*
X10144643Y-18154643D01*
X10173214Y-18111786D01*
X10187500Y-18054643D01*
X10187500Y-17940357D01*
X10173214Y-17911786D01*
X10158928Y-17897500D01*
X10130357Y-17883214D01*
X10073214Y-17883214D01*
X10044643Y-17897500D01*
X10030357Y-17911786D01*
X10016071Y-17940357D01*
X10016071Y-18011786D01*
X10030357Y-18040357D01*
X10044643Y-18054643D01*
X10073214Y-18068929D01*
X10130357Y-18068929D01*
X10158928Y-18054643D01*
X10173214Y-18040357D01*
X10187500Y-18011786D01*
X10301786Y-17883214D02*
X10301786Y-17940357D01*
X10416071Y-17883214D02*
X10416071Y-17940357D01*
X10858928Y-18297500D02*
X10844643Y-18283214D01*
X10816071Y-18240357D01*
X10801786Y-18211786D01*
X10787500Y-18168929D01*
X10773214Y-18097500D01*
X10773214Y-18040357D01*
X10787500Y-17968929D01*
X10801786Y-17926072D01*
X10816071Y-17897500D01*
X10844643Y-17854643D01*
X10858928Y-17840357D01*
X11101786Y-17883214D02*
X11044643Y-17883214D01*
X11016071Y-17897500D01*
X11001786Y-17911786D01*
X10973214Y-17954643D01*
X10958928Y-18011786D01*
X10958928Y-18126072D01*
X10973214Y-18154643D01*
X10987500Y-18168929D01*
X11016071Y-18183214D01*
X11073214Y-18183214D01*
X11101786Y-18168929D01*
X11116071Y-18154643D01*
X11130357Y-18126072D01*
X11130357Y-18054643D01*
X11116071Y-18026072D01*
X11101786Y-18011786D01*
X11073214Y-17997500D01*
X11016071Y-17997500D01*
X10987500Y-18011786D01*
X10973214Y-18026072D01*
X10958928Y-18054643D01*
X11387500Y-17983214D02*
X11387500Y-18183214D01*
X11316071Y-17868929D02*
X11244643Y-18083214D01*
X11430357Y-18083214D01*
X11773214Y-18183214D02*
X11773214Y-17883214D01*
X11901786Y-18183214D02*
X11901786Y-18026072D01*
X11887500Y-17997500D01*
X11858928Y-17983214D01*
X11816071Y-17983214D01*
X11787500Y-17997500D01*
X11773214Y-18011786D01*
X12087500Y-18183214D02*
X12058928Y-18168929D01*
X12044643Y-18154643D01*
X12030357Y-18126072D01*
X12030357Y-18040357D01*
X12044643Y-18011786D01*
X12058928Y-17997500D01*
X12087500Y-17983214D01*
X12130357Y-17983214D01*
X12158928Y-17997500D01*
X12173214Y-18011786D01*
X12187500Y-18040357D01*
X12187500Y-18126072D01*
X12173214Y-18154643D01*
X12158928Y-18168929D01*
X12130357Y-18183214D01*
X12087500Y-18183214D01*
X12358928Y-18183214D02*
X12330357Y-18168929D01*
X12316071Y-18140357D01*
X12316071Y-17883214D01*
X12587500Y-18168929D02*
X12558928Y-18183214D01*
X12501786Y-18183214D01*
X12473214Y-18168929D01*
X12458928Y-18140357D01*
X12458928Y-18026072D01*
X12473214Y-17997500D01*
X12501786Y-17983214D01*
X12558928Y-17983214D01*
X12587500Y-17997500D01*
X12601786Y-18026072D01*
X12601786Y-18054643D01*
X12458928Y-18083214D01*
X12716071Y-18168929D02*
X12744643Y-18183214D01*
X12801786Y-18183214D01*
X12830357Y-18168929D01*
X12844643Y-18140357D01*
X12844643Y-18126072D01*
X12830357Y-18097500D01*
X12801786Y-18083214D01*
X12758928Y-18083214D01*
X12730357Y-18068929D01*
X12716071Y-18040357D01*
X12716071Y-18026072D01*
X12730357Y-17997500D01*
X12758928Y-17983214D01*
X12801786Y-17983214D01*
X12830357Y-17997500D01*
X12944643Y-18297500D02*
X12958928Y-18283214D01*
X12987500Y-18240357D01*
X13001786Y-18211786D01*
X13016071Y-18168929D01*
X13030357Y-18097500D01*
X13030357Y-18040357D01*
X13016071Y-17968929D01*
X13001786Y-17926072D01*
X12987500Y-17897500D01*
X12958928Y-17854643D01*
X12944643Y-17840357D01*
X6070900Y-18392700D02*
X6172500Y-18494300D01*
X6172500Y-18392700D02*
X6070900Y-18494300D01*
X6121700Y-18392700D02*
X6121700Y-18494300D01*
X6070900Y-18443500D02*
X6172500Y-18443500D01*
X6616071Y-18579214D02*
X6444643Y-18579214D01*
X6530357Y-18579214D02*
X6530357Y-18279214D01*
X6501786Y-18322072D01*
X6473214Y-18350643D01*
X6444643Y-18364929D01*
X6744643Y-18550643D02*
X6758928Y-18564929D01*
X6744643Y-18579214D01*
X6730357Y-18564929D01*
X6744643Y-18550643D01*
X6744643Y-18579214D01*
X6944643Y-18279214D02*
X6973214Y-18279214D01*
X7001786Y-18293500D01*
X7016071Y-18307786D01*
X7030357Y-18336357D01*
X7044643Y-18393500D01*
X7044643Y-18464929D01*
X7030357Y-18522072D01*
X7016071Y-18550643D01*
X7001786Y-18564929D01*
X6973214Y-18579214D01*
X6944643Y-18579214D01*
X6916071Y-18564929D01*
X6901786Y-18550643D01*
X6887500Y-18522072D01*
X6873214Y-18464929D01*
X6873214Y-18393500D01*
X6887500Y-18336357D01*
X6901786Y-18307786D01*
X6916071Y-18293500D01*
X6944643Y-18279214D01*
X7158928Y-18307786D02*
X7173214Y-18293500D01*
X7201786Y-18279214D01*
X7273214Y-18279214D01*
X7301786Y-18293500D01*
X7316071Y-18307786D01*
X7330357Y-18336357D01*
X7330357Y-18364929D01*
X7316071Y-18407786D01*
X7144643Y-18579214D01*
X7330357Y-18579214D01*
X7458928Y-18579214D02*
X7458928Y-18379214D01*
X7458928Y-18407786D02*
X7473214Y-18393500D01*
X7501786Y-18379214D01*
X7544643Y-18379214D01*
X7573214Y-18393500D01*
X7587500Y-18422072D01*
X7587500Y-18579214D01*
X7587500Y-18422072D02*
X7601786Y-18393500D01*
X7630357Y-18379214D01*
X7673214Y-18379214D01*
X7701786Y-18393500D01*
X7716071Y-18422072D01*
X7716071Y-18579214D01*
X7858928Y-18579214D02*
X7858928Y-18379214D01*
X7858928Y-18407786D02*
X7873214Y-18393500D01*
X7901786Y-18379214D01*
X7944643Y-18379214D01*
X7973214Y-18393500D01*
X7987500Y-18422072D01*
X7987500Y-18579214D01*
X7987500Y-18422072D02*
X8001786Y-18393500D01*
X8030357Y-18379214D01*
X8073214Y-18379214D01*
X8101786Y-18393500D01*
X8116071Y-18422072D01*
X8116071Y-18579214D01*
X8701786Y-18264929D02*
X8444643Y-18650643D01*
X9087500Y-18279214D02*
X9116071Y-18279214D01*
X9144643Y-18293500D01*
X9158928Y-18307786D01*
X9173214Y-18336357D01*
X9187500Y-18393500D01*
X9187500Y-18464929D01*
X9173214Y-18522072D01*
X9158928Y-18550643D01*
X9144643Y-18564929D01*
X9116071Y-18579214D01*
X9087500Y-18579214D01*
X9058928Y-18564929D01*
X9044643Y-18550643D01*
X9030357Y-18522072D01*
X9016071Y-18464929D01*
X9016071Y-18393500D01*
X9030357Y-18336357D01*
X9044643Y-18307786D01*
X9058928Y-18293500D01*
X9087500Y-18279214D01*
X9316071Y-18550643D02*
X9330357Y-18564929D01*
X9316071Y-18579214D01*
X9301786Y-18564929D01*
X9316071Y-18550643D01*
X9316071Y-18579214D01*
X9516071Y-18279214D02*
X9544643Y-18279214D01*
X9573214Y-18293500D01*
X9587500Y-18307786D01*
X9601786Y-18336357D01*
X9616071Y-18393500D01*
X9616071Y-18464929D01*
X9601786Y-18522072D01*
X9587500Y-18550643D01*
X9573214Y-18564929D01*
X9544643Y-18579214D01*
X9516071Y-18579214D01*
X9487500Y-18564929D01*
X9473214Y-18550643D01*
X9458928Y-18522072D01*
X9444643Y-18464929D01*
X9444643Y-18393500D01*
X9458928Y-18336357D01*
X9473214Y-18307786D01*
X9487500Y-18293500D01*
X9516071Y-18279214D01*
X9873214Y-18379214D02*
X9873214Y-18579214D01*
X9801786Y-18264929D02*
X9730357Y-18479214D01*
X9916071Y-18479214D01*
X10087500Y-18279214D02*
X10116071Y-18279214D01*
X10144643Y-18293500D01*
X10158928Y-18307786D01*
X10173214Y-18336357D01*
X10187500Y-18393500D01*
X10187500Y-18464929D01*
X10173214Y-18522072D01*
X10158928Y-18550643D01*
X10144643Y-18564929D01*
X10116071Y-18579214D01*
X10087500Y-18579214D01*
X10058928Y-18564929D01*
X10044643Y-18550643D01*
X10030357Y-18522072D01*
X10016071Y-18464929D01*
X10016071Y-18393500D01*
X10030357Y-18336357D01*
X10044643Y-18307786D01*
X10058928Y-18293500D01*
X10087500Y-18279214D01*
X10301786Y-18279214D02*
X10301786Y-18336357D01*
X10416071Y-18279214D02*
X10416071Y-18336357D01*
X10858928Y-18693500D02*
X10844643Y-18679214D01*
X10816071Y-18636357D01*
X10801786Y-18607786D01*
X10787500Y-18564929D01*
X10773214Y-18493500D01*
X10773214Y-18436357D01*
X10787500Y-18364929D01*
X10801786Y-18322072D01*
X10816071Y-18293500D01*
X10844643Y-18250643D01*
X10858928Y-18236357D01*
X11101786Y-18379214D02*
X11101786Y-18579214D01*
X11030357Y-18264929D02*
X10958928Y-18479214D01*
X11144643Y-18479214D01*
X11301786Y-18407786D02*
X11273214Y-18393500D01*
X11258928Y-18379214D01*
X11244643Y-18350643D01*
X11244643Y-18336357D01*
X11258928Y-18307786D01*
X11273214Y-18293500D01*
X11301786Y-18279214D01*
X11358928Y-18279214D01*
X11387500Y-18293500D01*
X11401786Y-18307786D01*
X11416071Y-18336357D01*
X11416071Y-18350643D01*
X11401786Y-18379214D01*
X11387500Y-18393500D01*
X11358928Y-18407786D01*
X11301786Y-18407786D01*
X11273214Y-18422072D01*
X11258928Y-18436357D01*
X11244643Y-18464929D01*
X11244643Y-18522072D01*
X11258928Y-18550643D01*
X11273214Y-18564929D01*
X11301786Y-18579214D01*
X11358928Y-18579214D01*
X11387500Y-18564929D01*
X11401786Y-18550643D01*
X11416071Y-18522072D01*
X11416071Y-18464929D01*
X11401786Y-18436357D01*
X11387500Y-18422072D01*
X11358928Y-18407786D01*
X11773214Y-18579214D02*
X11773214Y-18279214D01*
X11901786Y-18579214D02*
X11901786Y-18422072D01*
X11887500Y-18393500D01*
X11858928Y-18379214D01*
X11816071Y-18379214D01*
X11787500Y-18393500D01*
X11773214Y-18407786D01*
X12087500Y-18579214D02*
X12058928Y-18564929D01*
X12044643Y-18550643D01*
X12030357Y-18522072D01*
X12030357Y-18436357D01*
X12044643Y-18407786D01*
X12058928Y-18393500D01*
X12087500Y-18379214D01*
X12130357Y-18379214D01*
X12158928Y-18393500D01*
X12173214Y-18407786D01*
X12187500Y-18436357D01*
X12187500Y-18522072D01*
X12173214Y-18550643D01*
X12158928Y-18564929D01*
X12130357Y-18579214D01*
X12087500Y-18579214D01*
X12358928Y-18579214D02*
X12330357Y-18564929D01*
X12316071Y-18536357D01*
X12316071Y-18279214D01*
X12587500Y-18564929D02*
X12558928Y-18579214D01*
X12501786Y-18579214D01*
X12473214Y-18564929D01*
X12458928Y-18536357D01*
X12458928Y-18422072D01*
X12473214Y-18393500D01*
X12501786Y-18379214D01*
X12558928Y-18379214D01*
X12587500Y-18393500D01*
X12601786Y-18422072D01*
X12601786Y-18450643D01*
X12458928Y-18479214D01*
X12716071Y-18564929D02*
X12744643Y-18579214D01*
X12801786Y-18579214D01*
X12830357Y-18564929D01*
X12844643Y-18536357D01*
X12844643Y-18522072D01*
X12830357Y-18493500D01*
X12801786Y-18479214D01*
X12758928Y-18479214D01*
X12730357Y-18464929D01*
X12716071Y-18436357D01*
X12716071Y-18422072D01*
X12730357Y-18393500D01*
X12758928Y-18379214D01*
X12801786Y-18379214D01*
X12830357Y-18393500D01*
X12944643Y-18693500D02*
X12958928Y-18679214D01*
X12987500Y-18636357D01*
X13001786Y-18607786D01*
X13016071Y-18564929D01*
X13030357Y-18493500D01*
X13030357Y-18436357D01*
X13016071Y-18364929D01*
X13001786Y-18322072D01*
X12987500Y-18293500D01*
X12958928Y-18250643D01*
X12944643Y-18236357D01*
X6066500Y-18786500D02*
X6172500Y-18892500D01*
X6172500Y-18786500D02*
X6066500Y-18892500D01*
X6156977Y-18876977D02*
X6156977Y-18802023D01*
X6082023Y-18802023D01*
X6082023Y-18876977D01*
X6156977Y-18876977D01*
X6616071Y-18975214D02*
X6444643Y-18975214D01*
X6530357Y-18975214D02*
X6530357Y-18675214D01*
X6501786Y-18718072D01*
X6473214Y-18746643D01*
X6444643Y-18760929D01*
X6744643Y-18946643D02*
X6758928Y-18960929D01*
X6744643Y-18975214D01*
X6730357Y-18960929D01*
X6744643Y-18946643D01*
X6744643Y-18975214D01*
X6944643Y-18675214D02*
X6973214Y-18675214D01*
X7001786Y-18689500D01*
X7016071Y-18703786D01*
X7030357Y-18732357D01*
X7044643Y-18789500D01*
X7044643Y-18860929D01*
X7030357Y-18918072D01*
X7016071Y-18946643D01*
X7001786Y-18960929D01*
X6973214Y-18975214D01*
X6944643Y-18975214D01*
X6916071Y-18960929D01*
X6901786Y-18946643D01*
X6887500Y-18918072D01*
X6873214Y-18860929D01*
X6873214Y-18789500D01*
X6887500Y-18732357D01*
X6901786Y-18703786D01*
X6916071Y-18689500D01*
X6944643Y-18675214D01*
X7301786Y-18675214D02*
X7244643Y-18675214D01*
X7216071Y-18689500D01*
X7201786Y-18703786D01*
X7173214Y-18746643D01*
X7158928Y-18803786D01*
X7158928Y-18918072D01*
X7173214Y-18946643D01*
X7187500Y-18960929D01*
X7216071Y-18975214D01*
X7273214Y-18975214D01*
X7301786Y-18960929D01*
X7316071Y-18946643D01*
X7330357Y-18918072D01*
X7330357Y-18846643D01*
X7316071Y-18818072D01*
X7301786Y-18803786D01*
X7273214Y-18789500D01*
X7216071Y-18789500D01*
X7187500Y-18803786D01*
X7173214Y-18818072D01*
X7158928Y-18846643D01*
X7458928Y-18975214D02*
X7458928Y-18775214D01*
X7458928Y-18803786D02*
X7473214Y-18789500D01*
X7501786Y-18775214D01*
X7544643Y-18775214D01*
X7573214Y-18789500D01*
X7587500Y-18818072D01*
X7587500Y-18975214D01*
X7587500Y-18818072D02*
X7601786Y-18789500D01*
X7630357Y-18775214D01*
X7673214Y-18775214D01*
X7701786Y-18789500D01*
X7716071Y-18818072D01*
X7716071Y-18975214D01*
X7858928Y-18975214D02*
X7858928Y-18775214D01*
X7858928Y-18803786D02*
X7873214Y-18789500D01*
X7901786Y-18775214D01*
X7944643Y-18775214D01*
X7973214Y-18789500D01*
X7987500Y-18818072D01*
X7987500Y-18975214D01*
X7987500Y-18818072D02*
X8001786Y-18789500D01*
X8030357Y-18775214D01*
X8073214Y-18775214D01*
X8101786Y-18789500D01*
X8116071Y-18818072D01*
X8116071Y-18975214D01*
X8701786Y-18660929D02*
X8444643Y-19046643D01*
X9087500Y-18675214D02*
X9116071Y-18675214D01*
X9144643Y-18689500D01*
X9158928Y-18703786D01*
X9173214Y-18732357D01*
X9187500Y-18789500D01*
X9187500Y-18860929D01*
X9173214Y-18918072D01*
X9158928Y-18946643D01*
X9144643Y-18960929D01*
X9116071Y-18975214D01*
X9087500Y-18975214D01*
X9058928Y-18960929D01*
X9044643Y-18946643D01*
X9030357Y-18918072D01*
X9016071Y-18860929D01*
X9016071Y-18789500D01*
X9030357Y-18732357D01*
X9044643Y-18703786D01*
X9058928Y-18689500D01*
X9087500Y-18675214D01*
X9316071Y-18946643D02*
X9330357Y-18960929D01*
X9316071Y-18975214D01*
X9301786Y-18960929D01*
X9316071Y-18946643D01*
X9316071Y-18975214D01*
X9516071Y-18675214D02*
X9544643Y-18675214D01*
X9573214Y-18689500D01*
X9587500Y-18703786D01*
X9601786Y-18732357D01*
X9616071Y-18789500D01*
X9616071Y-18860929D01*
X9601786Y-18918072D01*
X9587500Y-18946643D01*
X9573214Y-18960929D01*
X9544643Y-18975214D01*
X9516071Y-18975214D01*
X9487500Y-18960929D01*
X9473214Y-18946643D01*
X9458928Y-18918072D01*
X9444643Y-18860929D01*
X9444643Y-18789500D01*
X9458928Y-18732357D01*
X9473214Y-18703786D01*
X9487500Y-18689500D01*
X9516071Y-18675214D01*
X9873214Y-18775214D02*
X9873214Y-18975214D01*
X9801786Y-18660929D02*
X9730357Y-18875214D01*
X9916071Y-18875214D01*
X10016071Y-18703786D02*
X10030357Y-18689500D01*
X10058928Y-18675214D01*
X10130357Y-18675214D01*
X10158928Y-18689500D01*
X10173214Y-18703786D01*
X10187500Y-18732357D01*
X10187500Y-18760929D01*
X10173214Y-18803786D01*
X10001786Y-18975214D01*
X10187500Y-18975214D01*
X10301786Y-18675214D02*
X10301786Y-18732357D01*
X10416071Y-18675214D02*
X10416071Y-18732357D01*
X10858928Y-19089500D02*
X10844643Y-19075214D01*
X10816071Y-19032357D01*
X10801786Y-19003786D01*
X10787500Y-18960929D01*
X10773214Y-18889500D01*
X10773214Y-18832357D01*
X10787500Y-18760929D01*
X10801786Y-18718072D01*
X10816071Y-18689500D01*
X10844643Y-18646643D01*
X10858928Y-18632357D01*
X11130357Y-18975214D02*
X10958928Y-18975214D01*
X11044643Y-18975214D02*
X11044643Y-18675214D01*
X11016071Y-18718072D01*
X10987500Y-18746643D01*
X10958928Y-18760929D01*
X11244643Y-18703786D02*
X11258928Y-18689500D01*
X11287500Y-18675214D01*
X11358928Y-18675214D01*
X11387500Y-18689500D01*
X11401786Y-18703786D01*
X11416071Y-18732357D01*
X11416071Y-18760929D01*
X11401786Y-18803786D01*
X11230357Y-18975214D01*
X11416071Y-18975214D01*
X11773214Y-18975214D02*
X11773214Y-18675214D01*
X11901786Y-18975214D02*
X11901786Y-18818072D01*
X11887500Y-18789500D01*
X11858928Y-18775214D01*
X11816071Y-18775214D01*
X11787500Y-18789500D01*
X11773214Y-18803786D01*
X12087500Y-18975214D02*
X12058928Y-18960929D01*
X12044643Y-18946643D01*
X12030357Y-18918072D01*
X12030357Y-18832357D01*
X12044643Y-18803786D01*
X12058928Y-18789500D01*
X12087500Y-18775214D01*
X12130357Y-18775214D01*
X12158928Y-18789500D01*
X12173214Y-18803786D01*
X12187500Y-18832357D01*
X12187500Y-18918072D01*
X12173214Y-18946643D01*
X12158928Y-18960929D01*
X12130357Y-18975214D01*
X12087500Y-18975214D01*
X12358928Y-18975214D02*
X12330357Y-18960929D01*
X12316071Y-18932357D01*
X12316071Y-18675214D01*
X12587500Y-18960929D02*
X12558928Y-18975214D01*
X12501786Y-18975214D01*
X12473214Y-18960929D01*
X12458928Y-18932357D01*
X12458928Y-18818072D01*
X12473214Y-18789500D01*
X12501786Y-18775214D01*
X12558928Y-18775214D01*
X12587500Y-18789500D01*
X12601786Y-18818072D01*
X12601786Y-18846643D01*
X12458928Y-18875214D01*
X12716071Y-18960929D02*
X12744643Y-18975214D01*
X12801786Y-18975214D01*
X12830357Y-18960929D01*
X12844643Y-18932357D01*
X12844643Y-18918072D01*
X12830357Y-18889500D01*
X12801786Y-18875214D01*
X12758928Y-18875214D01*
X12730357Y-18860929D01*
X12716071Y-18832357D01*
X12716071Y-18818072D01*
X12730357Y-18789500D01*
X12758928Y-18775214D01*
X12801786Y-18775214D01*
X12830357Y-18789500D01*
X12944643Y-19089500D02*
X12958928Y-19075214D01*
X12987500Y-19032357D01*
X13001786Y-19003786D01*
X13016071Y-18960929D01*
X13030357Y-18889500D01*
X13030357Y-18832357D01*
X13016071Y-18760929D01*
X13001786Y-18718072D01*
X12987500Y-18689500D01*
X12958928Y-18646643D01*
X12944643Y-18632357D01*
X6052500Y-19175500D02*
X6172500Y-19295500D01*
X6172500Y-19175500D02*
X6052500Y-19295500D01*
X6112500Y-19295500D02*
X6172500Y-19235500D01*
X6112500Y-19175500D01*
X6052500Y-19235500D01*
X6112500Y-19295500D01*
X6616071Y-19371214D02*
X6444643Y-19371214D01*
X6530357Y-19371214D02*
X6530357Y-19071214D01*
X6501786Y-19114072D01*
X6473214Y-19142643D01*
X6444643Y-19156929D01*
X6744643Y-19342643D02*
X6758928Y-19356929D01*
X6744643Y-19371214D01*
X6730357Y-19356929D01*
X6744643Y-19342643D01*
X6744643Y-19371214D01*
X6873214Y-19099786D02*
X6887500Y-19085500D01*
X6916071Y-19071214D01*
X6987500Y-19071214D01*
X7016071Y-19085500D01*
X7030357Y-19099786D01*
X7044643Y-19128357D01*
X7044643Y-19156929D01*
X7030357Y-19199786D01*
X6858928Y-19371214D01*
X7044643Y-19371214D01*
X7230357Y-19071214D02*
X7258928Y-19071214D01*
X7287500Y-19085500D01*
X7301786Y-19099786D01*
X7316071Y-19128357D01*
X7330357Y-19185500D01*
X7330357Y-19256929D01*
X7316071Y-19314072D01*
X7301786Y-19342643D01*
X7287500Y-19356929D01*
X7258928Y-19371214D01*
X7230357Y-19371214D01*
X7201786Y-19356929D01*
X7187500Y-19342643D01*
X7173214Y-19314072D01*
X7158928Y-19256929D01*
X7158928Y-19185500D01*
X7173214Y-19128357D01*
X7187500Y-19099786D01*
X7201786Y-19085500D01*
X7230357Y-19071214D01*
X7458928Y-19371214D02*
X7458928Y-19171214D01*
X7458928Y-19199786D02*
X7473214Y-19185500D01*
X7501786Y-19171214D01*
X7544643Y-19171214D01*
X7573214Y-19185500D01*
X7587500Y-19214072D01*
X7587500Y-19371214D01*
X7587500Y-19214072D02*
X7601786Y-19185500D01*
X7630357Y-19171214D01*
X7673214Y-19171214D01*
X7701786Y-19185500D01*
X7716071Y-19214072D01*
X7716071Y-19371214D01*
X7858928Y-19371214D02*
X7858928Y-19171214D01*
X7858928Y-19199786D02*
X7873214Y-19185500D01*
X7901786Y-19171214D01*
X7944643Y-19171214D01*
X7973214Y-19185500D01*
X7987500Y-19214072D01*
X7987500Y-19371214D01*
X7987500Y-19214072D02*
X8001786Y-19185500D01*
X8030357Y-19171214D01*
X8073214Y-19171214D01*
X8101786Y-19185500D01*
X8116071Y-19214072D01*
X8116071Y-19371214D01*
X8701786Y-19056929D02*
X8444643Y-19442643D01*
X9087500Y-19071214D02*
X9116071Y-19071214D01*
X9144643Y-19085500D01*
X9158928Y-19099786D01*
X9173214Y-19128357D01*
X9187500Y-19185500D01*
X9187500Y-19256929D01*
X9173214Y-19314072D01*
X9158928Y-19342643D01*
X9144643Y-19356929D01*
X9116071Y-19371214D01*
X9087500Y-19371214D01*
X9058928Y-19356929D01*
X9044643Y-19342643D01*
X9030357Y-19314072D01*
X9016071Y-19256929D01*
X9016071Y-19185500D01*
X9030357Y-19128357D01*
X9044643Y-19099786D01*
X9058928Y-19085500D01*
X9087500Y-19071214D01*
X9316071Y-19342643D02*
X9330357Y-19356929D01*
X9316071Y-19371214D01*
X9301786Y-19356929D01*
X9316071Y-19342643D01*
X9316071Y-19371214D01*
X9516071Y-19071214D02*
X9544643Y-19071214D01*
X9573214Y-19085500D01*
X9587500Y-19099786D01*
X9601786Y-19128357D01*
X9616071Y-19185500D01*
X9616071Y-19256929D01*
X9601786Y-19314072D01*
X9587500Y-19342643D01*
X9573214Y-19356929D01*
X9544643Y-19371214D01*
X9516071Y-19371214D01*
X9487500Y-19356929D01*
X9473214Y-19342643D01*
X9458928Y-19314072D01*
X9444643Y-19256929D01*
X9444643Y-19185500D01*
X9458928Y-19128357D01*
X9473214Y-19099786D01*
X9487500Y-19085500D01*
X9516071Y-19071214D01*
X9873214Y-19171214D02*
X9873214Y-19371214D01*
X9801786Y-19056929D02*
X9730357Y-19271214D01*
X9916071Y-19271214D01*
X10001786Y-19071214D02*
X10201786Y-19071214D01*
X10073214Y-19371214D01*
X10301786Y-19071214D02*
X10301786Y-19128357D01*
X10416071Y-19071214D02*
X10416071Y-19128357D01*
X10858928Y-19485500D02*
X10844643Y-19471214D01*
X10816071Y-19428357D01*
X10801786Y-19399786D01*
X10787500Y-19356929D01*
X10773214Y-19285500D01*
X10773214Y-19228357D01*
X10787500Y-19156929D01*
X10801786Y-19114072D01*
X10816071Y-19085500D01*
X10844643Y-19042643D01*
X10858928Y-19028357D01*
X10944643Y-19071214D02*
X11130357Y-19071214D01*
X11030357Y-19185500D01*
X11073214Y-19185500D01*
X11101786Y-19199786D01*
X11116071Y-19214072D01*
X11130357Y-19242643D01*
X11130357Y-19314072D01*
X11116071Y-19342643D01*
X11101786Y-19356929D01*
X11073214Y-19371214D01*
X10987500Y-19371214D01*
X10958928Y-19356929D01*
X10944643Y-19342643D01*
X11316071Y-19071214D02*
X11344643Y-19071214D01*
X11373214Y-19085500D01*
X11387500Y-19099786D01*
X11401786Y-19128357D01*
X11416071Y-19185500D01*
X11416071Y-19256929D01*
X11401786Y-19314072D01*
X11387500Y-19342643D01*
X11373214Y-19356929D01*
X11344643Y-19371214D01*
X11316071Y-19371214D01*
X11287500Y-19356929D01*
X11273214Y-19342643D01*
X11258928Y-19314072D01*
X11244643Y-19256929D01*
X11244643Y-19185500D01*
X11258928Y-19128357D01*
X11273214Y-19099786D01*
X11287500Y-19085500D01*
X11316071Y-19071214D01*
X11773214Y-19371214D02*
X11773214Y-19071214D01*
X11901786Y-19371214D02*
X11901786Y-19214072D01*
X11887500Y-19185500D01*
X11858928Y-19171214D01*
X11816071Y-19171214D01*
X11787500Y-19185500D01*
X11773214Y-19199786D01*
X12087500Y-19371214D02*
X12058928Y-19356929D01*
X12044643Y-19342643D01*
X12030357Y-19314072D01*
X12030357Y-19228357D01*
X12044643Y-19199786D01*
X12058928Y-19185500D01*
X12087500Y-19171214D01*
X12130357Y-19171214D01*
X12158928Y-19185500D01*
X12173214Y-19199786D01*
X12187500Y-19228357D01*
X12187500Y-19314072D01*
X12173214Y-19342643D01*
X12158928Y-19356929D01*
X12130357Y-19371214D01*
X12087500Y-19371214D01*
X12358928Y-19371214D02*
X12330357Y-19356929D01*
X12316071Y-19328357D01*
X12316071Y-19071214D01*
X12587500Y-19356929D02*
X12558928Y-19371214D01*
X12501786Y-19371214D01*
X12473214Y-19356929D01*
X12458928Y-19328357D01*
X12458928Y-19214072D01*
X12473214Y-19185500D01*
X12501786Y-19171214D01*
X12558928Y-19171214D01*
X12587500Y-19185500D01*
X12601786Y-19214072D01*
X12601786Y-19242643D01*
X12458928Y-19271214D01*
X12716071Y-19356929D02*
X12744643Y-19371214D01*
X12801786Y-19371214D01*
X12830357Y-19356929D01*
X12844643Y-19328357D01*
X12844643Y-19314072D01*
X12830357Y-19285500D01*
X12801786Y-19271214D01*
X12758928Y-19271214D01*
X12730357Y-19256929D01*
X12716071Y-19228357D01*
X12716071Y-19214072D01*
X12730357Y-19185500D01*
X12758928Y-19171214D01*
X12801786Y-19171214D01*
X12830357Y-19185500D01*
X12944643Y-19485500D02*
X12958928Y-19471214D01*
X12987500Y-19428357D01*
X13001786Y-19399786D01*
X13016071Y-19356929D01*
X13030357Y-19285500D01*
X13030357Y-19228357D01*
X13016071Y-19156929D01*
X13001786Y-19114072D01*
X12987500Y-19085500D01*
X12958928Y-19042643D01*
X12944643Y-19028357D01*
X6109000Y-19568000D02*
X6109000Y-19695000D01*
X6045500Y-19631500D02*
X6172500Y-19631500D01*
X6172500Y-19631500D02*
G75*
G03X6172500Y-19631500I-63500J0D01*
G01*
X6616071Y-19767214D02*
X6444643Y-19767214D01*
X6530357Y-19767214D02*
X6530357Y-19467214D01*
X6501786Y-19510072D01*
X6473214Y-19538643D01*
X6444643Y-19552929D01*
X6744643Y-19738643D02*
X6758928Y-19752929D01*
X6744643Y-19767214D01*
X6730357Y-19752929D01*
X6744643Y-19738643D01*
X6744643Y-19767214D01*
X6873214Y-19495786D02*
X6887500Y-19481500D01*
X6916071Y-19467214D01*
X6987500Y-19467214D01*
X7016071Y-19481500D01*
X7030357Y-19495786D01*
X7044643Y-19524357D01*
X7044643Y-19552929D01*
X7030357Y-19595786D01*
X6858928Y-19767214D01*
X7044643Y-19767214D01*
X7144643Y-19467214D02*
X7344643Y-19467214D01*
X7216071Y-19767214D01*
X7458928Y-19767214D02*
X7458928Y-19567214D01*
X7458928Y-19595786D02*
X7473214Y-19581500D01*
X7501786Y-19567214D01*
X7544643Y-19567214D01*
X7573214Y-19581500D01*
X7587500Y-19610072D01*
X7587500Y-19767214D01*
X7587500Y-19610072D02*
X7601786Y-19581500D01*
X7630357Y-19567214D01*
X7673214Y-19567214D01*
X7701786Y-19581500D01*
X7716071Y-19610072D01*
X7716071Y-19767214D01*
X7858928Y-19767214D02*
X7858928Y-19567214D01*
X7858928Y-19595786D02*
X7873214Y-19581500D01*
X7901786Y-19567214D01*
X7944643Y-19567214D01*
X7973214Y-19581500D01*
X7987500Y-19610072D01*
X7987500Y-19767214D01*
X7987500Y-19610072D02*
X8001786Y-19581500D01*
X8030357Y-19567214D01*
X8073214Y-19567214D01*
X8101786Y-19581500D01*
X8116071Y-19610072D01*
X8116071Y-19767214D01*
X8701786Y-19452929D02*
X8444643Y-19838643D01*
X9087500Y-19467214D02*
X9116071Y-19467214D01*
X9144643Y-19481500D01*
X9158928Y-19495786D01*
X9173214Y-19524357D01*
X9187500Y-19581500D01*
X9187500Y-19652929D01*
X9173214Y-19710072D01*
X9158928Y-19738643D01*
X9144643Y-19752929D01*
X9116071Y-19767214D01*
X9087500Y-19767214D01*
X9058928Y-19752929D01*
X9044643Y-19738643D01*
X9030357Y-19710072D01*
X9016071Y-19652929D01*
X9016071Y-19581500D01*
X9030357Y-19524357D01*
X9044643Y-19495786D01*
X9058928Y-19481500D01*
X9087500Y-19467214D01*
X9316071Y-19738643D02*
X9330357Y-19752929D01*
X9316071Y-19767214D01*
X9301786Y-19752929D01*
X9316071Y-19738643D01*
X9316071Y-19767214D01*
X9516071Y-19467214D02*
X9544643Y-19467214D01*
X9573214Y-19481500D01*
X9587500Y-19495786D01*
X9601786Y-19524357D01*
X9616071Y-19581500D01*
X9616071Y-19652929D01*
X9601786Y-19710072D01*
X9587500Y-19738643D01*
X9573214Y-19752929D01*
X9544643Y-19767214D01*
X9516071Y-19767214D01*
X9487500Y-19752929D01*
X9473214Y-19738643D01*
X9458928Y-19710072D01*
X9444643Y-19652929D01*
X9444643Y-19581500D01*
X9458928Y-19524357D01*
X9473214Y-19495786D01*
X9487500Y-19481500D01*
X9516071Y-19467214D01*
X9887500Y-19467214D02*
X9744643Y-19467214D01*
X9730357Y-19610072D01*
X9744643Y-19595786D01*
X9773214Y-19581500D01*
X9844643Y-19581500D01*
X9873214Y-19595786D01*
X9887500Y-19610072D01*
X9901786Y-19638643D01*
X9901786Y-19710072D01*
X9887500Y-19738643D01*
X9873214Y-19752929D01*
X9844643Y-19767214D01*
X9773214Y-19767214D01*
X9744643Y-19752929D01*
X9730357Y-19738643D01*
X10087500Y-19467214D02*
X10116071Y-19467214D01*
X10144643Y-19481500D01*
X10158928Y-19495786D01*
X10173214Y-19524357D01*
X10187500Y-19581500D01*
X10187500Y-19652929D01*
X10173214Y-19710072D01*
X10158928Y-19738643D01*
X10144643Y-19752929D01*
X10116071Y-19767214D01*
X10087500Y-19767214D01*
X10058928Y-19752929D01*
X10044643Y-19738643D01*
X10030357Y-19710072D01*
X10016071Y-19652929D01*
X10016071Y-19581500D01*
X10030357Y-19524357D01*
X10044643Y-19495786D01*
X10058928Y-19481500D01*
X10087500Y-19467214D01*
X10301786Y-19467214D02*
X10301786Y-19524357D01*
X10416071Y-19467214D02*
X10416071Y-19524357D01*
X10858928Y-19881500D02*
X10844643Y-19867214D01*
X10816071Y-19824357D01*
X10801786Y-19795786D01*
X10787500Y-19752929D01*
X10773214Y-19681500D01*
X10773214Y-19624357D01*
X10787500Y-19552929D01*
X10801786Y-19510072D01*
X10816071Y-19481500D01*
X10844643Y-19438643D01*
X10858928Y-19424357D01*
X10958928Y-19495786D02*
X10973214Y-19481500D01*
X11001786Y-19467214D01*
X11073214Y-19467214D01*
X11101786Y-19481500D01*
X11116071Y-19495786D01*
X11130357Y-19524357D01*
X11130357Y-19552929D01*
X11116071Y-19595786D01*
X10944643Y-19767214D01*
X11130357Y-19767214D01*
X11487500Y-19767214D02*
X11487500Y-19467214D01*
X11616071Y-19767214D02*
X11616071Y-19610072D01*
X11601786Y-19581500D01*
X11573214Y-19567214D01*
X11530357Y-19567214D01*
X11501786Y-19581500D01*
X11487500Y-19595786D01*
X11801786Y-19767214D02*
X11773214Y-19752929D01*
X11758928Y-19738643D01*
X11744643Y-19710072D01*
X11744643Y-19624357D01*
X11758928Y-19595786D01*
X11773214Y-19581500D01*
X11801786Y-19567214D01*
X11844643Y-19567214D01*
X11873214Y-19581500D01*
X11887500Y-19595786D01*
X11901786Y-19624357D01*
X11901786Y-19710072D01*
X11887500Y-19738643D01*
X11873214Y-19752929D01*
X11844643Y-19767214D01*
X11801786Y-19767214D01*
X12073214Y-19767214D02*
X12044643Y-19752929D01*
X12030357Y-19724357D01*
X12030357Y-19467214D01*
X12301786Y-19752929D02*
X12273214Y-19767214D01*
X12216071Y-19767214D01*
X12187500Y-19752929D01*
X12173214Y-19724357D01*
X12173214Y-19610072D01*
X12187500Y-19581500D01*
X12216071Y-19567214D01*
X12273214Y-19567214D01*
X12301786Y-19581500D01*
X12316071Y-19610072D01*
X12316071Y-19638643D01*
X12173214Y-19667214D01*
X12430357Y-19752929D02*
X12458928Y-19767214D01*
X12516071Y-19767214D01*
X12544643Y-19752929D01*
X12558928Y-19724357D01*
X12558928Y-19710072D01*
X12544643Y-19681500D01*
X12516071Y-19667214D01*
X12473214Y-19667214D01*
X12444643Y-19652929D01*
X12430357Y-19624357D01*
X12430357Y-19610072D01*
X12444643Y-19581500D01*
X12473214Y-19567214D01*
X12516071Y-19567214D01*
X12544643Y-19581500D01*
X12658928Y-19881500D02*
X12673214Y-19867214D01*
X12701786Y-19824357D01*
X12716071Y-19795786D01*
X12730357Y-19752929D01*
X12744643Y-19681500D01*
X12744643Y-19624357D01*
X12730357Y-19552929D01*
X12716071Y-19510072D01*
X12701786Y-19481500D01*
X12673214Y-19438643D01*
X12658928Y-19424357D01*
X6132228Y-20124728D02*
X6132228Y-19930272D01*
X5937772Y-19930272D01*
X5937772Y-20124728D01*
X6132228Y-20124728D01*
X6172500Y-20027500D02*
G75*
G03X6172500Y-20027500I-137500J0D01*
G01*
X6444643Y-19891786D02*
X6458928Y-19877500D01*
X6487500Y-19863214D01*
X6558928Y-19863214D01*
X6587500Y-19877500D01*
X6601786Y-19891786D01*
X6616071Y-19920357D01*
X6616071Y-19948929D01*
X6601786Y-19991786D01*
X6430357Y-20163214D01*
X6616071Y-20163214D01*
X6744643Y-20134643D02*
X6758928Y-20148929D01*
X6744643Y-20163214D01*
X6730357Y-20148929D01*
X6744643Y-20134643D01*
X6744643Y-20163214D01*
X6858928Y-19863214D02*
X7058928Y-19863214D01*
X6930357Y-20163214D01*
X7316071Y-19863214D02*
X7173214Y-19863214D01*
X7158928Y-20006072D01*
X7173214Y-19991786D01*
X7201786Y-19977500D01*
X7273214Y-19977500D01*
X7301786Y-19991786D01*
X7316071Y-20006072D01*
X7330357Y-20034643D01*
X7330357Y-20106072D01*
X7316071Y-20134643D01*
X7301786Y-20148929D01*
X7273214Y-20163214D01*
X7201786Y-20163214D01*
X7173214Y-20148929D01*
X7158928Y-20134643D01*
X7458928Y-20163214D02*
X7458928Y-19963214D01*
X7458928Y-19991786D02*
X7473214Y-19977500D01*
X7501786Y-19963214D01*
X7544643Y-19963214D01*
X7573214Y-19977500D01*
X7587500Y-20006072D01*
X7587500Y-20163214D01*
X7587500Y-20006072D02*
X7601786Y-19977500D01*
X7630357Y-19963214D01*
X7673214Y-19963214D01*
X7701786Y-19977500D01*
X7716071Y-20006072D01*
X7716071Y-20163214D01*
X7858928Y-20163214D02*
X7858928Y-19963214D01*
X7858928Y-19991786D02*
X7873214Y-19977500D01*
X7901786Y-19963214D01*
X7944643Y-19963214D01*
X7973214Y-19977500D01*
X7987500Y-20006072D01*
X7987500Y-20163214D01*
X7987500Y-20006072D02*
X8001786Y-19977500D01*
X8030357Y-19963214D01*
X8073214Y-19963214D01*
X8101786Y-19977500D01*
X8116071Y-20006072D01*
X8116071Y-20163214D01*
X8701786Y-19848929D02*
X8444643Y-20234643D01*
X9087500Y-19863214D02*
X9116071Y-19863214D01*
X9144643Y-19877500D01*
X9158928Y-19891786D01*
X9173214Y-19920357D01*
X9187500Y-19977500D01*
X9187500Y-20048929D01*
X9173214Y-20106072D01*
X9158928Y-20134643D01*
X9144643Y-20148929D01*
X9116071Y-20163214D01*
X9087500Y-20163214D01*
X9058928Y-20148929D01*
X9044643Y-20134643D01*
X9030357Y-20106072D01*
X9016071Y-20048929D01*
X9016071Y-19977500D01*
X9030357Y-19920357D01*
X9044643Y-19891786D01*
X9058928Y-19877500D01*
X9087500Y-19863214D01*
X9316071Y-20134643D02*
X9330357Y-20148929D01*
X9316071Y-20163214D01*
X9301786Y-20148929D01*
X9316071Y-20134643D01*
X9316071Y-20163214D01*
X9616071Y-20163214D02*
X9444643Y-20163214D01*
X9530357Y-20163214D02*
X9530357Y-19863214D01*
X9501786Y-19906072D01*
X9473214Y-19934643D01*
X9444643Y-19948929D01*
X9801786Y-19863214D02*
X9830357Y-19863214D01*
X9858928Y-19877500D01*
X9873214Y-19891786D01*
X9887500Y-19920357D01*
X9901786Y-19977500D01*
X9901786Y-20048929D01*
X9887500Y-20106072D01*
X9873214Y-20134643D01*
X9858928Y-20148929D01*
X9830357Y-20163214D01*
X9801786Y-20163214D01*
X9773214Y-20148929D01*
X9758928Y-20134643D01*
X9744643Y-20106072D01*
X9730357Y-20048929D01*
X9730357Y-19977500D01*
X9744643Y-19920357D01*
X9758928Y-19891786D01*
X9773214Y-19877500D01*
X9801786Y-19863214D01*
X10073214Y-19991786D02*
X10044643Y-19977500D01*
X10030357Y-19963214D01*
X10016071Y-19934643D01*
X10016071Y-19920357D01*
X10030357Y-19891786D01*
X10044643Y-19877500D01*
X10073214Y-19863214D01*
X10130357Y-19863214D01*
X10158928Y-19877500D01*
X10173214Y-19891786D01*
X10187500Y-19920357D01*
X10187500Y-19934643D01*
X10173214Y-19963214D01*
X10158928Y-19977500D01*
X10130357Y-19991786D01*
X10073214Y-19991786D01*
X10044643Y-20006072D01*
X10030357Y-20020357D01*
X10016071Y-20048929D01*
X10016071Y-20106072D01*
X10030357Y-20134643D01*
X10044643Y-20148929D01*
X10073214Y-20163214D01*
X10130357Y-20163214D01*
X10158928Y-20148929D01*
X10173214Y-20134643D01*
X10187500Y-20106072D01*
X10187500Y-20048929D01*
X10173214Y-20020357D01*
X10158928Y-20006072D01*
X10130357Y-19991786D01*
X10301786Y-19863214D02*
X10301786Y-19920357D01*
X10416071Y-19863214D02*
X10416071Y-19920357D01*
X10858928Y-20277500D02*
X10844643Y-20263214D01*
X10816071Y-20220357D01*
X10801786Y-20191786D01*
X10787500Y-20148929D01*
X10773214Y-20077500D01*
X10773214Y-20020357D01*
X10787500Y-19948929D01*
X10801786Y-19906072D01*
X10816071Y-19877500D01*
X10844643Y-19834643D01*
X10858928Y-19820357D01*
X11101786Y-19963214D02*
X11101786Y-20163214D01*
X11030357Y-19848929D02*
X10958928Y-20063214D01*
X11144643Y-20063214D01*
X11487500Y-20163214D02*
X11487500Y-19863214D01*
X11616071Y-20163214D02*
X11616071Y-20006072D01*
X11601786Y-19977500D01*
X11573214Y-19963214D01*
X11530357Y-19963214D01*
X11501786Y-19977500D01*
X11487500Y-19991786D01*
X11801786Y-20163214D02*
X11773214Y-20148929D01*
X11758928Y-20134643D01*
X11744643Y-20106072D01*
X11744643Y-20020357D01*
X11758928Y-19991786D01*
X11773214Y-19977500D01*
X11801786Y-19963214D01*
X11844643Y-19963214D01*
X11873214Y-19977500D01*
X11887500Y-19991786D01*
X11901786Y-20020357D01*
X11901786Y-20106072D01*
X11887500Y-20134643D01*
X11873214Y-20148929D01*
X11844643Y-20163214D01*
X11801786Y-20163214D01*
X12073214Y-20163214D02*
X12044643Y-20148929D01*
X12030357Y-20120357D01*
X12030357Y-19863214D01*
X12301786Y-20148929D02*
X12273214Y-20163214D01*
X12216071Y-20163214D01*
X12187500Y-20148929D01*
X12173214Y-20120357D01*
X12173214Y-20006072D01*
X12187500Y-19977500D01*
X12216071Y-19963214D01*
X12273214Y-19963214D01*
X12301786Y-19977500D01*
X12316071Y-20006072D01*
X12316071Y-20034643D01*
X12173214Y-20063214D01*
X12430357Y-20148929D02*
X12458928Y-20163214D01*
X12516071Y-20163214D01*
X12544643Y-20148929D01*
X12558928Y-20120357D01*
X12558928Y-20106072D01*
X12544643Y-20077500D01*
X12516071Y-20063214D01*
X12473214Y-20063214D01*
X12444643Y-20048929D01*
X12430357Y-20020357D01*
X12430357Y-20006072D01*
X12444643Y-19977500D01*
X12473214Y-19963214D01*
X12516071Y-19963214D01*
X12544643Y-19977500D01*
X12658928Y-20277500D02*
X12673214Y-20263214D01*
X12701786Y-20220357D01*
X12716071Y-20191786D01*
X12730357Y-20148929D01*
X12744643Y-20077500D01*
X12744643Y-20020357D01*
X12730357Y-19948929D01*
X12716071Y-19906072D01*
X12701786Y-19877500D01*
X12673214Y-19834643D01*
X12658928Y-19820357D01*
X6022500Y-20582500D02*
X6172500Y-20432500D01*
X6022500Y-20282500D01*
X5872500Y-20432500D01*
X6022500Y-20582500D01*
X6172500Y-20432500D02*
G75*
G03X6172500Y-20432500I-150000J0D01*
G01*
X6430357Y-20268214D02*
X6616071Y-20268214D01*
X6516071Y-20382500D01*
X6558928Y-20382500D01*
X6587500Y-20396786D01*
X6601786Y-20411072D01*
X6616071Y-20439643D01*
X6616071Y-20511072D01*
X6601786Y-20539643D01*
X6587500Y-20553929D01*
X6558928Y-20568214D01*
X6473214Y-20568214D01*
X6444643Y-20553929D01*
X6430357Y-20539643D01*
X6744643Y-20539643D02*
X6758928Y-20553929D01*
X6744643Y-20568214D01*
X6730357Y-20553929D01*
X6744643Y-20539643D01*
X6744643Y-20568214D01*
X6944643Y-20268214D02*
X6973214Y-20268214D01*
X7001786Y-20282500D01*
X7016071Y-20296786D01*
X7030357Y-20325357D01*
X7044643Y-20382500D01*
X7044643Y-20453929D01*
X7030357Y-20511072D01*
X7016071Y-20539643D01*
X7001786Y-20553929D01*
X6973214Y-20568214D01*
X6944643Y-20568214D01*
X6916071Y-20553929D01*
X6901786Y-20539643D01*
X6887500Y-20511072D01*
X6873214Y-20453929D01*
X6873214Y-20382500D01*
X6887500Y-20325357D01*
X6901786Y-20296786D01*
X6916071Y-20282500D01*
X6944643Y-20268214D01*
X7230357Y-20268214D02*
X7258928Y-20268214D01*
X7287500Y-20282500D01*
X7301786Y-20296786D01*
X7316071Y-20325357D01*
X7330357Y-20382500D01*
X7330357Y-20453929D01*
X7316071Y-20511072D01*
X7301786Y-20539643D01*
X7287500Y-20553929D01*
X7258928Y-20568214D01*
X7230357Y-20568214D01*
X7201786Y-20553929D01*
X7187500Y-20539643D01*
X7173214Y-20511072D01*
X7158928Y-20453929D01*
X7158928Y-20382500D01*
X7173214Y-20325357D01*
X7187500Y-20296786D01*
X7201786Y-20282500D01*
X7230357Y-20268214D01*
X7458928Y-20568214D02*
X7458928Y-20368214D01*
X7458928Y-20396786D02*
X7473214Y-20382500D01*
X7501786Y-20368214D01*
X7544643Y-20368214D01*
X7573214Y-20382500D01*
X7587500Y-20411072D01*
X7587500Y-20568214D01*
X7587500Y-20411072D02*
X7601786Y-20382500D01*
X7630357Y-20368214D01*
X7673214Y-20368214D01*
X7701786Y-20382500D01*
X7716071Y-20411072D01*
X7716071Y-20568214D01*
X7858928Y-20568214D02*
X7858928Y-20368214D01*
X7858928Y-20396786D02*
X7873214Y-20382500D01*
X7901786Y-20368214D01*
X7944643Y-20368214D01*
X7973214Y-20382500D01*
X7987500Y-20411072D01*
X7987500Y-20568214D01*
X7987500Y-20411072D02*
X8001786Y-20382500D01*
X8030357Y-20368214D01*
X8073214Y-20368214D01*
X8101786Y-20382500D01*
X8116071Y-20411072D01*
X8116071Y-20568214D01*
X8701786Y-20253929D02*
X8444643Y-20639643D01*
X9087500Y-20268214D02*
X9116071Y-20268214D01*
X9144643Y-20282500D01*
X9158928Y-20296786D01*
X9173214Y-20325357D01*
X9187500Y-20382500D01*
X9187500Y-20453929D01*
X9173214Y-20511072D01*
X9158928Y-20539643D01*
X9144643Y-20553929D01*
X9116071Y-20568214D01*
X9087500Y-20568214D01*
X9058928Y-20553929D01*
X9044643Y-20539643D01*
X9030357Y-20511072D01*
X9016071Y-20453929D01*
X9016071Y-20382500D01*
X9030357Y-20325357D01*
X9044643Y-20296786D01*
X9058928Y-20282500D01*
X9087500Y-20268214D01*
X9316071Y-20539643D02*
X9330357Y-20553929D01*
X9316071Y-20568214D01*
X9301786Y-20553929D01*
X9316071Y-20539643D01*
X9316071Y-20568214D01*
X9616071Y-20568214D02*
X9444643Y-20568214D01*
X9530357Y-20568214D02*
X9530357Y-20268214D01*
X9501786Y-20311072D01*
X9473214Y-20339643D01*
X9444643Y-20353929D01*
X9901786Y-20568214D02*
X9730357Y-20568214D01*
X9816071Y-20568214D02*
X9816071Y-20268214D01*
X9787500Y-20311072D01*
X9758928Y-20339643D01*
X9730357Y-20353929D01*
X10073214Y-20396786D02*
X10044643Y-20382500D01*
X10030357Y-20368214D01*
X10016071Y-20339643D01*
X10016071Y-20325357D01*
X10030357Y-20296786D01*
X10044643Y-20282500D01*
X10073214Y-20268214D01*
X10130357Y-20268214D01*
X10158928Y-20282500D01*
X10173214Y-20296786D01*
X10187500Y-20325357D01*
X10187500Y-20339643D01*
X10173214Y-20368214D01*
X10158928Y-20382500D01*
X10130357Y-20396786D01*
X10073214Y-20396786D01*
X10044643Y-20411072D01*
X10030357Y-20425357D01*
X10016071Y-20453929D01*
X10016071Y-20511072D01*
X10030357Y-20539643D01*
X10044643Y-20553929D01*
X10073214Y-20568214D01*
X10130357Y-20568214D01*
X10158928Y-20553929D01*
X10173214Y-20539643D01*
X10187500Y-20511072D01*
X10187500Y-20453929D01*
X10173214Y-20425357D01*
X10158928Y-20411072D01*
X10130357Y-20396786D01*
X10301786Y-20268214D02*
X10301786Y-20325357D01*
X10416071Y-20268214D02*
X10416071Y-20325357D01*
X10858928Y-20682500D02*
X10844643Y-20668214D01*
X10816071Y-20625357D01*
X10801786Y-20596786D01*
X10787500Y-20553929D01*
X10773214Y-20482500D01*
X10773214Y-20425357D01*
X10787500Y-20353929D01*
X10801786Y-20311072D01*
X10816071Y-20282500D01*
X10844643Y-20239643D01*
X10858928Y-20225357D01*
X11101786Y-20368214D02*
X11101786Y-20568214D01*
X11030357Y-20253929D02*
X10958928Y-20468214D01*
X11144643Y-20468214D01*
X11487500Y-20568214D02*
X11487500Y-20268214D01*
X11616071Y-20568214D02*
X11616071Y-20411072D01*
X11601786Y-20382500D01*
X11573214Y-20368214D01*
X11530357Y-20368214D01*
X11501786Y-20382500D01*
X11487500Y-20396786D01*
X11801786Y-20568214D02*
X11773214Y-20553929D01*
X11758928Y-20539643D01*
X11744643Y-20511072D01*
X11744643Y-20425357D01*
X11758928Y-20396786D01*
X11773214Y-20382500D01*
X11801786Y-20368214D01*
X11844643Y-20368214D01*
X11873214Y-20382500D01*
X11887500Y-20396786D01*
X11901786Y-20425357D01*
X11901786Y-20511072D01*
X11887500Y-20539643D01*
X11873214Y-20553929D01*
X11844643Y-20568214D01*
X11801786Y-20568214D01*
X12073214Y-20568214D02*
X12044643Y-20553929D01*
X12030357Y-20525357D01*
X12030357Y-20268214D01*
X12301786Y-20553929D02*
X12273214Y-20568214D01*
X12216071Y-20568214D01*
X12187500Y-20553929D01*
X12173214Y-20525357D01*
X12173214Y-20411072D01*
X12187500Y-20382500D01*
X12216071Y-20368214D01*
X12273214Y-20368214D01*
X12301786Y-20382500D01*
X12316071Y-20411072D01*
X12316071Y-20439643D01*
X12173214Y-20468214D01*
X12430357Y-20553929D02*
X12458928Y-20568214D01*
X12516071Y-20568214D01*
X12544643Y-20553929D01*
X12558928Y-20525357D01*
X12558928Y-20511072D01*
X12544643Y-20482500D01*
X12516071Y-20468214D01*
X12473214Y-20468214D01*
X12444643Y-20453929D01*
X12430357Y-20425357D01*
X12430357Y-20411072D01*
X12444643Y-20382500D01*
X12473214Y-20368214D01*
X12516071Y-20368214D01*
X12544643Y-20382500D01*
X12658928Y-20682500D02*
X12673214Y-20668214D01*
X12701786Y-20625357D01*
X12716071Y-20596786D01*
X12730357Y-20553929D01*
X12744643Y-20482500D01*
X12744643Y-20425357D01*
X12730357Y-20353929D01*
X12716071Y-20311072D01*
X12701786Y-20282500D01*
X12673214Y-20239643D01*
X12658928Y-20225357D01*
X6008670Y-20698670D02*
X6008670Y-21026330D01*
X5844840Y-20862500D02*
X6172500Y-20862500D01*
X6124516Y-20978347D02*
X6124516Y-20746654D01*
X5892823Y-20746654D01*
X5892823Y-20978347D01*
X6124516Y-20978347D01*
X6430357Y-20698214D02*
X6616071Y-20698214D01*
X6516071Y-20812500D01*
X6558928Y-20812500D01*
X6587500Y-20826786D01*
X6601786Y-20841072D01*
X6616071Y-20869643D01*
X6616071Y-20941072D01*
X6601786Y-20969643D01*
X6587500Y-20983929D01*
X6558928Y-20998214D01*
X6473214Y-20998214D01*
X6444643Y-20983929D01*
X6430357Y-20969643D01*
X6744643Y-20969643D02*
X6758928Y-20983929D01*
X6744643Y-20998214D01*
X6730357Y-20983929D01*
X6744643Y-20969643D01*
X6744643Y-20998214D01*
X6873214Y-20726786D02*
X6887500Y-20712500D01*
X6916071Y-20698214D01*
X6987500Y-20698214D01*
X7016071Y-20712500D01*
X7030357Y-20726786D01*
X7044643Y-20755357D01*
X7044643Y-20783929D01*
X7030357Y-20826786D01*
X6858928Y-20998214D01*
X7044643Y-20998214D01*
X7216071Y-20826786D02*
X7187500Y-20812500D01*
X7173214Y-20798214D01*
X7158928Y-20769643D01*
X7158928Y-20755357D01*
X7173214Y-20726786D01*
X7187500Y-20712500D01*
X7216071Y-20698214D01*
X7273214Y-20698214D01*
X7301786Y-20712500D01*
X7316071Y-20726786D01*
X7330357Y-20755357D01*
X7330357Y-20769643D01*
X7316071Y-20798214D01*
X7301786Y-20812500D01*
X7273214Y-20826786D01*
X7216071Y-20826786D01*
X7187500Y-20841072D01*
X7173214Y-20855357D01*
X7158928Y-20883929D01*
X7158928Y-20941072D01*
X7173214Y-20969643D01*
X7187500Y-20983929D01*
X7216071Y-20998214D01*
X7273214Y-20998214D01*
X7301786Y-20983929D01*
X7316071Y-20969643D01*
X7330357Y-20941072D01*
X7330357Y-20883929D01*
X7316071Y-20855357D01*
X7301786Y-20841072D01*
X7273214Y-20826786D01*
X7458928Y-20998214D02*
X7458928Y-20798214D01*
X7458928Y-20826786D02*
X7473214Y-20812500D01*
X7501786Y-20798214D01*
X7544643Y-20798214D01*
X7573214Y-20812500D01*
X7587500Y-20841072D01*
X7587500Y-20998214D01*
X7587500Y-20841072D02*
X7601786Y-20812500D01*
X7630357Y-20798214D01*
X7673214Y-20798214D01*
X7701786Y-20812500D01*
X7716071Y-20841072D01*
X7716071Y-20998214D01*
X7858928Y-20998214D02*
X7858928Y-20798214D01*
X7858928Y-20826786D02*
X7873214Y-20812500D01*
X7901786Y-20798214D01*
X7944643Y-20798214D01*
X7973214Y-20812500D01*
X7987500Y-20841072D01*
X7987500Y-20998214D01*
X7987500Y-20841072D02*
X8001786Y-20812500D01*
X8030357Y-20798214D01*
X8073214Y-20798214D01*
X8101786Y-20812500D01*
X8116071Y-20841072D01*
X8116071Y-20998214D01*
X8701786Y-20683929D02*
X8444643Y-21069643D01*
X9087500Y-20698214D02*
X9116071Y-20698214D01*
X9144643Y-20712500D01*
X9158928Y-20726786D01*
X9173214Y-20755357D01*
X9187500Y-20812500D01*
X9187500Y-20883929D01*
X9173214Y-20941072D01*
X9158928Y-20969643D01*
X9144643Y-20983929D01*
X9116071Y-20998214D01*
X9087500Y-20998214D01*
X9058928Y-20983929D01*
X9044643Y-20969643D01*
X9030357Y-20941072D01*
X9016071Y-20883929D01*
X9016071Y-20812500D01*
X9030357Y-20755357D01*
X9044643Y-20726786D01*
X9058928Y-20712500D01*
X9087500Y-20698214D01*
X9316071Y-20969643D02*
X9330357Y-20983929D01*
X9316071Y-20998214D01*
X9301786Y-20983929D01*
X9316071Y-20969643D01*
X9316071Y-20998214D01*
X9616071Y-20998214D02*
X9444643Y-20998214D01*
X9530357Y-20998214D02*
X9530357Y-20698214D01*
X9501786Y-20741072D01*
X9473214Y-20769643D01*
X9444643Y-20783929D01*
X9730357Y-20726786D02*
X9744643Y-20712500D01*
X9773214Y-20698214D01*
X9844643Y-20698214D01*
X9873214Y-20712500D01*
X9887500Y-20726786D01*
X9901786Y-20755357D01*
X9901786Y-20783929D01*
X9887500Y-20826786D01*
X9716071Y-20998214D01*
X9901786Y-20998214D01*
X10044643Y-20998214D02*
X10101786Y-20998214D01*
X10130357Y-20983929D01*
X10144643Y-20969643D01*
X10173214Y-20926786D01*
X10187500Y-20869643D01*
X10187500Y-20755357D01*
X10173214Y-20726786D01*
X10158928Y-20712500D01*
X10130357Y-20698214D01*
X10073214Y-20698214D01*
X10044643Y-20712500D01*
X10030357Y-20726786D01*
X10016071Y-20755357D01*
X10016071Y-20826786D01*
X10030357Y-20855357D01*
X10044643Y-20869643D01*
X10073214Y-20883929D01*
X10130357Y-20883929D01*
X10158928Y-20869643D01*
X10173214Y-20855357D01*
X10187500Y-20826786D01*
X10301786Y-20698214D02*
X10301786Y-20755357D01*
X10416071Y-20698214D02*
X10416071Y-20755357D01*
X10858928Y-21112500D02*
X10844643Y-21098214D01*
X10816071Y-21055357D01*
X10801786Y-21026786D01*
X10787500Y-20983929D01*
X10773214Y-20912500D01*
X10773214Y-20855357D01*
X10787500Y-20783929D01*
X10801786Y-20741072D01*
X10816071Y-20712500D01*
X10844643Y-20669643D01*
X10858928Y-20655357D01*
X11101786Y-20798214D02*
X11101786Y-20998214D01*
X11030357Y-20683929D02*
X10958928Y-20898214D01*
X11144643Y-20898214D01*
X11487500Y-20998214D02*
X11487500Y-20698214D01*
X11616071Y-20998214D02*
X11616071Y-20841072D01*
X11601786Y-20812500D01*
X11573214Y-20798214D01*
X11530357Y-20798214D01*
X11501786Y-20812500D01*
X11487500Y-20826786D01*
X11801786Y-20998214D02*
X11773214Y-20983929D01*
X11758928Y-20969643D01*
X11744643Y-20941072D01*
X11744643Y-20855357D01*
X11758928Y-20826786D01*
X11773214Y-20812500D01*
X11801786Y-20798214D01*
X11844643Y-20798214D01*
X11873214Y-20812500D01*
X11887500Y-20826786D01*
X11901786Y-20855357D01*
X11901786Y-20941072D01*
X11887500Y-20969643D01*
X11873214Y-20983929D01*
X11844643Y-20998214D01*
X11801786Y-20998214D01*
X12073214Y-20998214D02*
X12044643Y-20983929D01*
X12030357Y-20955357D01*
X12030357Y-20698214D01*
X12301786Y-20983929D02*
X12273214Y-20998214D01*
X12216071Y-20998214D01*
X12187500Y-20983929D01*
X12173214Y-20955357D01*
X12173214Y-20841072D01*
X12187500Y-20812500D01*
X12216071Y-20798214D01*
X12273214Y-20798214D01*
X12301786Y-20812500D01*
X12316071Y-20841072D01*
X12316071Y-20869643D01*
X12173214Y-20898214D01*
X12430357Y-20983929D02*
X12458928Y-20998214D01*
X12516071Y-20998214D01*
X12544643Y-20983929D01*
X12558928Y-20955357D01*
X12558928Y-20941072D01*
X12544643Y-20912500D01*
X12516071Y-20898214D01*
X12473214Y-20898214D01*
X12444643Y-20883929D01*
X12430357Y-20855357D01*
X12430357Y-20841072D01*
X12444643Y-20812500D01*
X12473214Y-20798214D01*
X12516071Y-20798214D01*
X12544643Y-20812500D01*
X12658928Y-21112500D02*
X12673214Y-21098214D01*
X12701786Y-21055357D01*
X12716071Y-21026786D01*
X12730357Y-20983929D01*
X12744643Y-20912500D01*
X12744643Y-20855357D01*
X12730357Y-20783929D01*
X12716071Y-20741072D01*
X12701786Y-20712500D01*
X12673214Y-20669643D01*
X12658928Y-20655357D01*
M02*
