M48
; DRILL file {KiCad 5.1.0-060a0da~80~ubuntu16.04.1} date Mon Apr  8 13:56:51 2019
; FORMAT={-:-/ absolute / metric / decimal}
; #@! TF.CreationDate,2019-04-08T13:56:51+05:30
; #@! TF.GenerationSoftware,Kicad,Pcbnew,5.1.0-060a0da~80~ubuntu16.04.1
; #@! TF.FileFunction,Plated,1,2,PTH
FMAT,2
METRIC
T1C0.400
T2C0.500
T3C0.800
T4C0.800
T5C0.900
T6C1.001
T7C1.016
T8C1.060
T9C1.200
T10C1.270
T11C2.750
T12C3.000
T13C3.277
%
G90
G05
T1
X114.3Y-93.0
X114.9Y-52.35
X115.1Y-92.25
X115.9Y-91.35
X118.25Y-51.75
X120.25Y-100.95
X120.6Y-98.45
X121.35Y-97.3
X121.7Y-96.25
X123.3Y-100.95
X130.35Y-95.4
X137.05Y-108.95
X137.75Y-119.1
X137.8Y-73.75
X139.3Y-74.1
X139.55Y-75.8
X140.05Y-125.1
X140.2Y-78.55
X140.7Y-75.55
X142.0Y-78.475
X143.5Y-98.0
X149.25Y-101.65
X154.3Y-123.25
X155.63Y-135.75
X158.35Y-138.2
X158.85Y-84.4
X159.4Y-109.9
X165.5Y-96.4
X178.8Y-131.2
X181.0Y-138.75
X181.6Y-123.55
X186.4Y-131.55
X187.69Y-87.03
X190.85Y-125.7
X195.84Y-93.18
X202.85Y-118.25
X202.95Y-139.5
T2
X112.125Y-96.525
X116.55Y-97.25
X134.6Y-87.6
X136.325Y-121.25
X140.5Y-96.4
X141.9Y-94.6
X142.7Y-136.15
X152.5Y-133.79
X169.0Y-98.3
T3
X166.5Y-115.5
X81.79Y-81.91
X81.79Y-84.45
X89.41Y-81.91
X89.41Y-84.45
X166.5Y-112.75
X166.5Y-120.75
X166.5Y-99.75
X81.38Y-43.46
X81.38Y-46.0
X89.0Y-43.46
X89.0Y-46.0
X81.38Y-56.46
X81.38Y-59.0
X89.0Y-56.46
X89.0Y-59.0
X81.88Y-94.46
X81.88Y-97.0
X89.5Y-94.46
X89.5Y-97.0
X132.5Y-141.5
X137.5Y-141.5
X168.25Y-134.25
X168.25Y-136.79
X175.87Y-134.25
X175.87Y-136.79
X81.88Y-69.46
X81.88Y-72.0
X89.5Y-69.46
X89.5Y-72.0
X145.63Y-102.47
X145.63Y-105.01
X145.63Y-107.55
X145.63Y-110.09
X145.63Y-112.63
X145.63Y-115.17
X145.63Y-117.71
X145.63Y-120.25
X153.25Y-102.47
X153.25Y-105.01
X153.25Y-107.55
X153.25Y-110.09
X153.25Y-112.63
X153.25Y-115.17
X153.25Y-117.71
X153.25Y-120.25
X166.5Y-105.0
X147.0Y-141.0
X152.0Y-141.0
T4
X166.5Y-118.0
X166.5Y-110.25
X166.5Y-123.25
X166.5Y-102.25
X166.5Y-107.5
T5
X98.75Y-46.25
X99.0Y-69.25
X109.0Y-69.25
X99.0Y-58.75
X109.0Y-58.75
X98.7Y-34.8
X108.7Y-34.8
X108.75Y-46.25
T6
X102.0Y-86.5
X109.62Y-86.5
X94.5Y-53.25
X94.5Y-60.87
X76.75Y-53.75
X76.75Y-61.37
X77.5Y-79.0
X77.5Y-86.62
X98.25Y-51.75
X118.25Y-51.75
X98.5Y-74.5
X118.5Y-74.5
X155.63Y-135.75
X163.25Y-135.75
X98.2Y-40.3
X118.2Y-40.3
X102.0Y-83.0
X109.62Y-83.0
X172.0Y-108.0
X182.16Y-108.0
X81.99Y-90.24
X89.61Y-90.24
X102.0Y-90.0
X109.62Y-90.0
X102.0Y-79.5
X109.62Y-79.5
X168.38Y-141.5
X176.0Y-141.5
X172.0Y-103.25
X182.16Y-103.25
X77.5Y-91.5
X77.5Y-99.12
X81.38Y-39.0
X89.0Y-39.0
X144.54Y-130.53
X154.7Y-130.53
X172.09Y-112.5
X182.25Y-112.5
X76.5Y-38.75
X76.5Y-46.37
X130.07Y-130.62
X140.23Y-130.62
X168.5Y-129.25
X176.12Y-129.25
X172.09Y-121.0
X182.25Y-121.0
X94.5Y-39.75
X94.5Y-47.37
X81.38Y-51.0
X89.0Y-51.0
X172.09Y-116.75
X182.25Y-116.75
X98.5Y-64.0
X118.5Y-64.0
X77.25Y-65.25
X77.25Y-72.87
X101.8Y-109.5
X111.96Y-109.5
X82.0Y-64.0
X89.62Y-64.0
X81.99Y-77.49
X89.61Y-77.49
X102.0Y-93.5
X109.62Y-93.5
T7
X128.0Y-90.0
X128.0Y-92.54
X130.54Y-90.0
X130.54Y-92.54
X133.08Y-90.0
X133.08Y-92.54
X135.62Y-90.0
X135.62Y-92.54
X138.16Y-90.0
X138.16Y-92.54
X140.7Y-90.0
X140.7Y-92.54
X143.24Y-90.0
X143.24Y-92.54
X145.78Y-90.0
X145.78Y-92.54
X148.32Y-90.0
X148.32Y-92.54
X150.86Y-90.0
X150.86Y-92.54
X153.4Y-90.0
X153.4Y-92.54
X155.94Y-90.0
X155.94Y-92.54
X158.48Y-90.0
X158.48Y-92.54
X161.02Y-90.0
X161.02Y-92.54
X163.56Y-90.0
X163.56Y-92.54
X166.1Y-90.0
X166.1Y-92.54
X168.64Y-90.0
X168.64Y-92.54
X171.18Y-90.0
X171.18Y-92.54
X173.72Y-90.0
X173.72Y-92.54
X176.26Y-90.0
X176.26Y-92.54
X72.475Y-113.825
X72.475Y-116.365
X72.475Y-118.905
X72.475Y-121.445
X72.475Y-123.985
X72.475Y-126.525
X72.475Y-129.065
X72.475Y-131.605
T8
X67.0Y-42.5
X67.0Y-45.5
X67.0Y-48.5
X67.0Y-51.5
X67.0Y-54.5
X67.0Y-57.5
X67.0Y-60.5
X67.0Y-63.5
X67.0Y-66.5
X67.0Y-69.5
X67.0Y-72.5
X67.0Y-75.5
T9
X101.5Y-117.0
X101.5Y-137.4
X109.12Y-137.4
X111.66Y-117.0
X114.2Y-137.4
X121.82Y-117.0
X193.25Y-105.5
X193.25Y-108.5
X193.25Y-111.5
X193.25Y-114.5
X193.25Y-117.5
X193.25Y-120.5
X193.25Y-123.5
X193.25Y-126.5
X193.25Y-129.5
X193.25Y-132.5
X193.25Y-135.5
X193.25Y-138.5
X196.25Y-105.5
X196.25Y-108.5
X196.25Y-111.5
X196.25Y-114.5
X196.25Y-117.5
X196.25Y-120.5
X196.25Y-123.5
X196.25Y-126.5
X196.25Y-129.5
X196.25Y-132.5
X196.25Y-135.5
X196.25Y-138.5
T10
X68.96Y-39.5
X68.96Y-78.5
T11
X181.15Y-91.25
X123.15Y-42.25
X123.15Y-91.27
X181.15Y-42.25
T12
X200.57Y-107.65
X200.57Y-136.35
X84.36Y-114.165
X84.36Y-131.21
T13
X185.125Y-33.92
X83.515Y-145.23
X185.125Y-145.23
X83.515Y-33.92
T0
M30
