%FSLAX45Y45*%
G04 Gerber Fmt 4.5, Leading zero omitted, Abs format (unit mm)*
G04 Created by KiCad (PCBNEW 5.1.0-060a0da~80~ubuntu16.04.1) date 2019-04-08 13:56:52*
%MOMM*%
%LPD*%
G04 APERTURE LIST*
%ADD10C,0.150000*%
%ADD11C,0.200000*%
%ADD12C,0.300000*%
G04 APERTURE END LIST*
D10*
X6180000Y-15100000D02*
X20680000Y-15100000D01*
X6180000Y-2820000D02*
X6180000Y-15100000D01*
X20680000Y-2820000D02*
X6180000Y-2820000D01*
X20680000Y-15100000D02*
X20680000Y-2820000D01*
D11*
D12*
X6458928Y-15573214D02*
X6458928Y-15273214D01*
X6530357Y-15273214D01*
X6573214Y-15287500D01*
X6601786Y-15316071D01*
X6616071Y-15344643D01*
X6630357Y-15401786D01*
X6630357Y-15444643D01*
X6616071Y-15501786D01*
X6601786Y-15530357D01*
X6573214Y-15558929D01*
X6530357Y-15573214D01*
X6458928Y-15573214D01*
X6758928Y-15573214D02*
X6758928Y-15373214D01*
X6758928Y-15430357D02*
X6773214Y-15401786D01*
X6787500Y-15387500D01*
X6816071Y-15373214D01*
X6844643Y-15373214D01*
X6944643Y-15573214D02*
X6944643Y-15373214D01*
X6944643Y-15273214D02*
X6930357Y-15287500D01*
X6944643Y-15301786D01*
X6958928Y-15287500D01*
X6944643Y-15273214D01*
X6944643Y-15301786D01*
X7130357Y-15573214D02*
X7101786Y-15558929D01*
X7087500Y-15530357D01*
X7087500Y-15273214D01*
X7287500Y-15573214D02*
X7258928Y-15558929D01*
X7244643Y-15530357D01*
X7244643Y-15273214D01*
X7630357Y-15573214D02*
X7630357Y-15273214D01*
X7730357Y-15487500D01*
X7830357Y-15273214D01*
X7830357Y-15573214D01*
X8101786Y-15573214D02*
X8101786Y-15416071D01*
X8087500Y-15387500D01*
X8058928Y-15373214D01*
X8001786Y-15373214D01*
X7973214Y-15387500D01*
X8101786Y-15558929D02*
X8073214Y-15573214D01*
X8001786Y-15573214D01*
X7973214Y-15558929D01*
X7958928Y-15530357D01*
X7958928Y-15501786D01*
X7973214Y-15473214D01*
X8001786Y-15458929D01*
X8073214Y-15458929D01*
X8101786Y-15444643D01*
X8244643Y-15373214D02*
X8244643Y-15673214D01*
X8244643Y-15387500D02*
X8273214Y-15373214D01*
X8330357Y-15373214D01*
X8358928Y-15387500D01*
X8373214Y-15401786D01*
X8387500Y-15430357D01*
X8387500Y-15516071D01*
X8373214Y-15544643D01*
X8358928Y-15558929D01*
X8330357Y-15573214D01*
X8273214Y-15573214D01*
X8244643Y-15558929D01*
X8516071Y-15544643D02*
X8530357Y-15558929D01*
X8516071Y-15573214D01*
X8501786Y-15558929D01*
X8516071Y-15544643D01*
X8516071Y-15573214D01*
X8516071Y-15387500D02*
X8530357Y-15401786D01*
X8516071Y-15416071D01*
X8501786Y-15401786D01*
X8516071Y-15387500D01*
X8516071Y-15416071D01*
M02*
