G04 #@! TF.GenerationSoftware,KiCad,Pcbnew,5.1.0-060a0da~80~ubuntu16.04.1*
G04 #@! TF.CreationDate,2019-04-08T13:55:54+05:30*
G04 #@! TF.ProjectId,vcu-power,7663752d-706f-4776-9572-2e6b69636164,rev?*
G04 #@! TF.SameCoordinates,Original*
G04 #@! TF.FileFunction,Soldermask,Top*
G04 #@! TF.FilePolarity,Negative*
%FSLAX46Y46*%
G04 Gerber Fmt 4.6, Leading zero omitted, Abs format (unit mm)*
G04 Created by KiCad (PCBNEW 5.1.0-060a0da~80~ubuntu16.04.1) date 2019-04-08 13:55:54*
%MOMM*%
%LPD*%
G04 APERTURE LIST*
%ADD10R,1.901140X2.899360*%
%ADD11O,1.901140X2.899360*%
%ADD12C,6.750000*%
%ADD13C,6.900000*%
%ADD14C,2.200000*%
%ADD15C,2.400000*%
%ADD16C,2.600000*%
%ADD17C,9.544000*%
%ADD18C,3.676600*%
%ADD19C,2.100000*%
%ADD20R,2.100000X2.100000*%
%ADD21R,2.899360X1.901140*%
%ADD22O,2.899360X1.901140*%
%ADD23C,2.686000*%
%ADD24O,5.901640X3.900120*%
%ADD25C,2.398980*%
G04 APERTURE END LIST*
D10*
X185400000Y-141500000D03*
D11*
X182860000Y-141500000D03*
X187940000Y-141500000D03*
D12*
X61925000Y-49500000D03*
D13*
X162450000Y-117450000D03*
X78450000Y-117450000D03*
D14*
X116700000Y-34700000D03*
X113700000Y-34700000D03*
X110700000Y-34700000D03*
X107700000Y-34700000D03*
X104700000Y-34700000D03*
X101700000Y-34700000D03*
X98700000Y-34700000D03*
X95700000Y-34700000D03*
X92700000Y-34700000D03*
X89700000Y-34700000D03*
X86700000Y-34700000D03*
X83700000Y-34700000D03*
X119700000Y-32740000D03*
X80700000Y-32740000D03*
D15*
X121100000Y-52700000D03*
X121100000Y-48000000D03*
D16*
X109600000Y-48000000D03*
X102600000Y-48000000D03*
D17*
X157560000Y-49590000D03*
D12*
X62000000Y-37000000D03*
D18*
X71715000Y-144220000D03*
X173325000Y-144220000D03*
X71715000Y-32980000D03*
X173325000Y-32980000D03*
D19*
X164800000Y-35725000D03*
D20*
X159800000Y-35725000D03*
D21*
X158190000Y-82627460D03*
D22*
X158190000Y-80087460D03*
X158190000Y-85167460D03*
D21*
X158242000Y-95758000D03*
D22*
X158242000Y-93218000D03*
X158242000Y-98298000D03*
D10*
X185200000Y-121400000D03*
D11*
X182660000Y-121400000D03*
X187740000Y-121400000D03*
D10*
X79475000Y-87750000D03*
D11*
X82015000Y-87750000D03*
X76935000Y-87750000D03*
D21*
X143960000Y-37497460D03*
D22*
X143960000Y-34957460D03*
X143960000Y-40037460D03*
D17*
X157860000Y-66090000D03*
D12*
X61975000Y-87675000D03*
X61975000Y-74800000D03*
X62000000Y-62000000D03*
X61950000Y-100200000D03*
D23*
X137890000Y-48570000D03*
D24*
X175000000Y-68000000D03*
X175000000Y-62412000D03*
X175000000Y-73588000D03*
X175000000Y-86000000D03*
X175000000Y-80412000D03*
X175000000Y-91588000D03*
X175000000Y-50000000D03*
X175000000Y-44412000D03*
X175000000Y-55588000D03*
D22*
X182050000Y-110200000D03*
X182050000Y-107660000D03*
X182050000Y-112740000D03*
X82470000Y-79310000D03*
X82470000Y-81850000D03*
X82470000Y-76770000D03*
X181800000Y-130600000D03*
X181800000Y-128060000D03*
X181800000Y-133140000D03*
D11*
X133440000Y-38870000D03*
X130900000Y-38870000D03*
X135980000Y-38870000D03*
D25*
X109440000Y-41230000D03*
X117060000Y-41230000D03*
X181800000Y-100540000D03*
X174180000Y-100540000D03*
X91000000Y-42710000D03*
X98620000Y-42710000D03*
X177190000Y-126410000D03*
X177190000Y-134030000D03*
D11*
X94940000Y-48200000D03*
X89860000Y-48200000D03*
D25*
X125200000Y-39300000D03*
X125200000Y-31680000D03*
M02*
