%FSLAX45Y45*%
G04 Gerber Fmt 4.5, Leading zero omitted, Abs format (unit mm)*
G04 Created by KiCad (PCBNEW 5.1.0-060a0da~80~ubuntu16.04.1) date 2019-04-08 13:55:46*
%MOMM*%
%LPD*%
G04 APERTURE LIST*
%ADD10C,0.150000*%
%ADD11C,0.200000*%
%ADD12C,0.300000*%
G04 APERTURE END LIST*
D10*
X5000000Y-9400000D02*
X5000000Y-15000000D01*
X5000000Y-2720000D02*
X5000000Y-9400000D01*
X5020000Y-2720000D02*
X5000000Y-2720000D01*
X19500000Y-2720000D02*
X5020000Y-2720000D01*
X19500000Y-15000000D02*
X19500000Y-2720000D01*
X5000000Y-15000000D02*
X19500000Y-15000000D01*
D11*
X6953000Y-10000000D02*
X6993000Y-10040000D01*
X6993000Y-10000000D02*
X6953000Y-10040000D01*
X7241000Y-9306000D02*
X7281000Y-9346000D01*
X7281000Y-9306000D02*
X7241000Y-9346000D01*
X7695000Y-9465000D02*
X7735000Y-9505000D01*
X7735000Y-9465000D02*
X7695000Y-9505000D01*
X7797750Y-10624750D02*
X7837750Y-10664750D01*
X7837750Y-10624750D02*
X7797750Y-10664750D01*
X8329000Y-9628500D02*
X8369000Y-9668500D01*
X8369000Y-9628500D02*
X8329000Y-9668500D01*
X8471500Y-11298500D02*
X8511500Y-11338500D01*
X8511500Y-11298500D02*
X8471500Y-11338500D01*
X8846500Y-10146000D02*
X8886500Y-10186000D01*
X8886500Y-10146000D02*
X8846500Y-10186000D01*
X8846500Y-10146000D02*
X8886500Y-10186000D01*
X8886500Y-10146000D02*
X8846500Y-10186000D01*
X9035250Y-11862250D02*
X9075250Y-11902250D01*
X9075250Y-11862250D02*
X9035250Y-11902250D01*
X9566500Y-10146000D02*
X9606500Y-10186000D01*
X9606500Y-10146000D02*
X9566500Y-10186000D01*
X9604000Y-12431000D02*
X9644000Y-12471000D01*
X9644000Y-12431000D02*
X9604000Y-12471000D01*
X10316500Y-12879000D02*
X10356500Y-12919000D01*
X10356500Y-12879000D02*
X10316500Y-12919000D01*
X10326000Y-10146000D02*
X10366000Y-10186000D01*
X10366000Y-10146000D02*
X10326000Y-10186000D01*
X11099000Y-12879000D02*
X11139000Y-12919000D01*
X11139000Y-12879000D02*
X11099000Y-12919000D01*
X11572000Y-10318000D02*
X11612000Y-10358000D01*
X11612000Y-10318000D02*
X11572000Y-10358000D01*
X11759000Y-12879000D02*
X11799000Y-12919000D01*
X11799000Y-12879000D02*
X11759000Y-12919000D01*
X12489000Y-12879000D02*
X12529000Y-12919000D01*
X12529000Y-12879000D02*
X12489000Y-12919000D01*
X12689500Y-10898000D02*
X12729500Y-10938000D01*
X12729500Y-10898000D02*
X12689500Y-10938000D01*
X13189000Y-12879000D02*
X13229000Y-12919000D01*
X13229000Y-12879000D02*
X13189000Y-12919000D01*
X13789500Y-10898000D02*
X13829500Y-10938000D01*
X13829500Y-10898000D02*
X13789500Y-10938000D01*
X13984000Y-12879000D02*
X14024000Y-12919000D01*
X14024000Y-12879000D02*
X13984000Y-12919000D01*
X14844000Y-12879000D02*
X14884000Y-12919000D01*
X14884000Y-12879000D02*
X14844000Y-12919000D01*
X15014500Y-10898000D02*
X15054500Y-10938000D01*
X15054500Y-10898000D02*
X15014500Y-10938000D01*
X15973500Y-12879000D02*
X16013500Y-12919000D01*
X16013500Y-12879000D02*
X15973500Y-12919000D01*
X16190500Y-10898000D02*
X16230500Y-10938000D01*
X16230500Y-10898000D02*
X16190500Y-10938000D01*
X16286800Y-7497800D02*
X16326800Y-7537800D01*
X16326800Y-7497800D02*
X16286800Y-7537800D01*
X16286800Y-7955600D02*
X16326800Y-7995600D01*
X16326800Y-7955600D02*
X16286800Y-7995600D01*
X16286800Y-8555200D02*
X16326800Y-8595200D01*
X16326800Y-8555200D02*
X16286800Y-8595200D01*
X16307200Y-7046200D02*
X16347200Y-7086200D01*
X16347200Y-7046200D02*
X16307200Y-7086200D01*
X16354797Y-9335203D02*
X16394797Y-9375203D01*
X16394797Y-9335203D02*
X16354797Y-9375203D01*
X16475000Y-5880000D02*
X16515000Y-5920000D01*
X16515000Y-5880000D02*
X16475000Y-5920000D01*
X16670000Y-6410000D02*
X16710000Y-6450000D01*
X16710000Y-6410000D02*
X16670000Y-6450000D01*
X16682984Y-8747984D02*
X16722984Y-8787984D01*
X16722984Y-8747984D02*
X16682984Y-8787984D01*
X16754800Y-7225200D02*
X16794800Y-7265200D01*
X16794800Y-7225200D02*
X16754800Y-7265200D01*
X16906000Y-7818000D02*
X16946000Y-7858000D01*
X16946000Y-7818000D02*
X16906000Y-7858000D01*
X16915000Y-6086000D02*
X16955000Y-6126000D01*
X16955000Y-6086000D02*
X16915000Y-6126000D01*
X17037000Y-7573000D02*
X17077000Y-7613000D01*
X17077000Y-7573000D02*
X17037000Y-7613000D01*
X17039500Y-10898000D02*
X17079500Y-10938000D01*
X17079500Y-10898000D02*
X17039500Y-10938000D01*
X17100000Y-13040000D02*
X17140000Y-13080000D01*
X17140000Y-13040000D02*
X17100000Y-13080000D01*
X17741000Y-10898000D02*
X17781000Y-10938000D01*
X17781000Y-10898000D02*
X17741000Y-10938000D01*
X14446038Y-3495746D02*
G75*
G03X14446038Y-3495746I-50038J0D01*
G01*
X14446038Y-3749746D02*
G75*
G03X14446038Y-3749746I-50038J0D01*
G01*
X14446038Y-4003746D02*
G75*
G03X14446038Y-4003746I-50038J0D01*
G01*
X17769038Y-12641000D02*
G75*
G03X17769038Y-12641000I-50038J0D01*
G01*
X17769038Y-13403000D02*
G75*
G03X17769038Y-13403000I-50038J0D01*
G01*
X15874238Y-9321800D02*
G75*
G03X15874238Y-9321800I-50038J0D01*
G01*
X15874238Y-9575800D02*
G75*
G03X15874238Y-9575800I-50038J0D01*
G01*
X15874238Y-9829800D02*
G75*
G03X15874238Y-9829800I-50038J0D01*
G01*
X18255038Y-10766000D02*
G75*
G03X18255038Y-10766000I-50038J0D01*
G01*
X18255038Y-11020000D02*
G75*
G03X18255038Y-11020000I-50038J0D01*
G01*
X18255038Y-11274000D02*
G75*
G03X18255038Y-11274000I-50038J0D01*
G01*
X12570038Y-3168000D02*
G75*
G03X12570038Y-3168000I-50038J0D01*
G01*
X12570038Y-3930000D02*
G75*
G03X12570038Y-3930000I-50038J0D01*
G01*
X18336038Y-14150000D02*
G75*
G03X18336038Y-14150000I-50038J0D01*
G01*
X18590038Y-14150000D02*
G75*
G03X18590038Y-14150000I-50038J0D01*
G01*
X18844038Y-14150000D02*
G75*
G03X18844038Y-14150000I-50038J0D01*
G01*
X7743538Y-8775000D02*
G75*
G03X7743538Y-8775000I-50038J0D01*
G01*
X7997538Y-8775000D02*
G75*
G03X7997538Y-8775000I-50038J0D01*
G01*
X8251538Y-8775000D02*
G75*
G03X8251538Y-8775000I-50038J0D01*
G01*
X17468038Y-10054000D02*
G75*
G03X17468038Y-10054000I-50038J0D01*
G01*
X18230038Y-10054000D02*
G75*
G03X18230038Y-10054000I-50038J0D01*
G01*
X10994038Y-4123000D02*
G75*
G03X10994038Y-4123000I-50038J0D01*
G01*
X11756038Y-4123000D02*
G75*
G03X11756038Y-4123000I-50038J0D01*
G01*
X8297038Y-7677000D02*
G75*
G03X8297038Y-7677000I-50038J0D01*
G01*
X8297038Y-7931000D02*
G75*
G03X8297038Y-7931000I-50038J0D01*
G01*
X8297038Y-8185000D02*
G75*
G03X8297038Y-8185000I-50038J0D01*
G01*
X9150038Y-4271000D02*
G75*
G03X9150038Y-4271000I-50038J0D01*
G01*
X9912038Y-4271000D02*
G75*
G03X9912038Y-4271000I-50038J0D01*
G01*
X18230038Y-12806000D02*
G75*
G03X18230038Y-12806000I-50038J0D01*
G01*
X18230038Y-13060000D02*
G75*
G03X18230038Y-13060000I-50038J0D01*
G01*
X18230038Y-13314000D02*
G75*
G03X18230038Y-13314000I-50038J0D01*
G01*
X13140038Y-3887000D02*
G75*
G03X13140038Y-3887000I-50038J0D01*
G01*
X13394038Y-3887000D02*
G75*
G03X13394038Y-3887000I-50038J0D01*
G01*
X13648038Y-3887000D02*
G75*
G03X13648038Y-3887000I-50038J0D01*
G01*
X9036038Y-4820000D02*
G75*
G03X9036038Y-4820000I-50038J0D01*
G01*
X9544038Y-4820000D02*
G75*
G03X9544038Y-4820000I-50038J0D01*
G01*
X18316038Y-12140000D02*
G75*
G03X18316038Y-12140000I-50038J0D01*
G01*
X18570038Y-12140000D02*
G75*
G03X18570038Y-12140000I-50038J0D01*
G01*
X18824038Y-12140000D02*
G75*
G03X18824038Y-12140000I-50038J0D01*
G01*
X15869038Y-8008746D02*
G75*
G03X15869038Y-8008746I-50038J0D01*
G01*
X15869038Y-8262746D02*
G75*
G03X15869038Y-8262746I-50038J0D01*
G01*
X15869038Y-8516746D02*
G75*
G03X15869038Y-8516746I-50038J0D01*
G01*
X8370000Y-3417000D02*
X8370000Y-3523000D01*
X8317000Y-3470000D02*
X8423000Y-3470000D01*
X8670000Y-3417000D02*
X8670000Y-3523000D01*
X8617000Y-3470000D02*
X8723000Y-3470000D01*
X8970000Y-3417000D02*
X8970000Y-3523000D01*
X8917000Y-3470000D02*
X9023000Y-3470000D01*
X9270000Y-3417000D02*
X9270000Y-3523000D01*
X9217000Y-3470000D02*
X9323000Y-3470000D01*
X9570000Y-3417000D02*
X9570000Y-3523000D01*
X9517000Y-3470000D02*
X9623000Y-3470000D01*
X9870000Y-3417000D02*
X9870000Y-3523000D01*
X9817000Y-3470000D02*
X9923000Y-3470000D01*
X10170000Y-3417000D02*
X10170000Y-3523000D01*
X10117000Y-3470000D02*
X10223000Y-3470000D01*
X10470000Y-3417000D02*
X10470000Y-3523000D01*
X10417000Y-3470000D02*
X10523000Y-3470000D01*
X10770000Y-3417000D02*
X10770000Y-3523000D01*
X10717000Y-3470000D02*
X10823000Y-3470000D01*
X11070000Y-3417000D02*
X11070000Y-3523000D01*
X11017000Y-3470000D02*
X11123000Y-3470000D01*
X11370000Y-3417000D02*
X11370000Y-3523000D01*
X11317000Y-3470000D02*
X11423000Y-3470000D01*
X11670000Y-3417000D02*
X11670000Y-3523000D01*
X11617000Y-3470000D02*
X11723000Y-3470000D01*
X16022427Y-3614927D02*
X16022427Y-3530073D01*
X15937573Y-3530073D01*
X15937573Y-3614927D01*
X16022427Y-3614927D01*
X16522427Y-3614927D02*
X16522427Y-3530073D01*
X16437573Y-3530073D01*
X16437573Y-3614927D01*
X16522427Y-3614927D01*
X12152427Y-4842427D02*
X12152427Y-4757573D01*
X12067573Y-4757573D01*
X12067573Y-4842427D01*
X12152427Y-4842427D01*
X12152427Y-5312427D02*
X12152427Y-5227573D01*
X12067573Y-5227573D01*
X12067573Y-5312427D01*
X12152427Y-5312427D01*
X13789000Y-4920500D02*
X13852500Y-4857000D01*
X13789000Y-4793500D01*
X13725500Y-4857000D01*
X13789000Y-4920500D01*
X8070000Y-3337500D02*
X8133500Y-3274000D01*
X8070000Y-3210500D01*
X8006500Y-3274000D01*
X8070000Y-3337500D01*
X11970000Y-3337500D02*
X12033500Y-3274000D01*
X11970000Y-3210500D01*
X11906500Y-3274000D01*
X11970000Y-3337500D01*
X10195000Y-4735000D02*
X10325000Y-4865000D01*
X10325000Y-4735000D02*
X10195000Y-4865000D01*
X10325000Y-4800000D02*
G75*
G03X10325000Y-4800000I-65000J0D01*
G01*
X10895000Y-4735000D02*
X11025000Y-4865000D01*
X11025000Y-4735000D02*
X10895000Y-4865000D01*
X11025000Y-4800000D02*
G75*
G03X11025000Y-4800000I-65000J0D01*
G01*
X17424943Y-7966143D02*
X17575057Y-8116257D01*
X17575057Y-7966143D02*
X17424943Y-8116257D01*
X17500000Y-7966143D02*
X17500000Y-8116257D01*
X17424943Y-8041200D02*
X17575057Y-8041200D01*
X17424943Y-8524943D02*
X17575057Y-8675057D01*
X17575057Y-8524943D02*
X17424943Y-8675057D01*
X17500000Y-8524943D02*
X17500000Y-8675057D01*
X17424943Y-8600000D02*
X17575057Y-8600000D01*
X17424943Y-9083743D02*
X17575057Y-9233857D01*
X17575057Y-9083743D02*
X17424943Y-9233857D01*
X17500000Y-9083743D02*
X17500000Y-9233857D01*
X17424943Y-9158800D02*
X17575057Y-9158800D01*
X17424943Y-6166143D02*
X17575057Y-6316257D01*
X17575057Y-6166143D02*
X17424943Y-6316257D01*
X17500000Y-6166143D02*
X17500000Y-6316257D01*
X17424943Y-6241200D02*
X17575057Y-6241200D01*
X17424943Y-6724943D02*
X17575057Y-6875057D01*
X17575057Y-6724943D02*
X17424943Y-6875057D01*
X17500000Y-6724943D02*
X17500000Y-6875057D01*
X17424943Y-6800000D02*
X17575057Y-6800000D01*
X17424943Y-7283743D02*
X17575057Y-7433857D01*
X17575057Y-7283743D02*
X17424943Y-7433857D01*
X17500000Y-7283743D02*
X17500000Y-7433857D01*
X17424943Y-7358800D02*
X17575057Y-7358800D01*
X17424943Y-4366143D02*
X17575057Y-4516257D01*
X17575057Y-4366143D02*
X17424943Y-4516257D01*
X17500000Y-4366143D02*
X17500000Y-4516257D01*
X17424943Y-4441200D02*
X17575057Y-4441200D01*
X17424943Y-4924943D02*
X17575057Y-5075057D01*
X17575057Y-4924943D02*
X17424943Y-5075057D01*
X17500000Y-4924943D02*
X17500000Y-5075057D01*
X17424943Y-5000000D02*
X17575057Y-5000000D01*
X17424943Y-5483743D02*
X17575057Y-5633857D01*
X17575057Y-5483743D02*
X17424943Y-5633857D01*
X17500000Y-5483743D02*
X17500000Y-5633857D01*
X17424943Y-5558800D02*
X17575057Y-5558800D01*
X7007670Y-3134170D02*
X7335330Y-3461830D01*
X7335330Y-3134170D02*
X7007670Y-3461830D01*
X7287346Y-3413846D02*
X7287346Y-3182154D01*
X7055654Y-3182154D01*
X7055654Y-3413846D01*
X7287346Y-3413846D01*
X7007670Y-14258170D02*
X7335330Y-14585830D01*
X7335330Y-14258170D02*
X7007670Y-14585830D01*
X7287346Y-14537846D02*
X7287346Y-14306154D01*
X7055654Y-14306154D01*
X7055654Y-14537846D01*
X7287346Y-14537846D01*
X17168670Y-3134170D02*
X17496330Y-3461830D01*
X17496330Y-3134170D02*
X17168670Y-3461830D01*
X17448346Y-3413846D02*
X17448346Y-3182154D01*
X17216654Y-3182154D01*
X17216654Y-3413846D01*
X17448346Y-3413846D01*
X17168670Y-14258170D02*
X17496330Y-14585830D01*
X17496330Y-14258170D02*
X17168670Y-14585830D01*
X17448346Y-14537846D02*
X17448346Y-14306154D01*
X17216654Y-14306154D01*
X17216654Y-14537846D01*
X17448346Y-14537846D01*
X6034900Y-6034900D02*
X6365100Y-6365100D01*
X6365100Y-6034900D02*
X6034900Y-6365100D01*
X6200000Y-6365100D02*
X6365100Y-6200000D01*
X6200000Y-6034900D01*
X6034900Y-6200000D01*
X6200000Y-6365100D01*
X6034900Y-3534900D02*
X6365100Y-3865100D01*
X6365100Y-3534900D02*
X6034900Y-3865100D01*
X6200000Y-3865100D02*
X6365100Y-3700000D01*
X6200000Y-3534900D01*
X6034900Y-3700000D01*
X6200000Y-3865100D01*
X6032400Y-7314900D02*
X6362600Y-7645100D01*
X6362600Y-7314900D02*
X6032400Y-7645100D01*
X6197500Y-7645100D02*
X6362600Y-7480000D01*
X6197500Y-7314900D01*
X6032400Y-7480000D01*
X6197500Y-7645100D01*
X6027400Y-4784900D02*
X6357600Y-5115100D01*
X6357600Y-4784900D02*
X6027400Y-5115100D01*
X6192500Y-5115100D02*
X6357600Y-4950000D01*
X6192500Y-4784900D01*
X6027400Y-4950000D01*
X6192500Y-5115100D01*
X6029900Y-9854900D02*
X6360100Y-10185100D01*
X6360100Y-9854900D02*
X6029900Y-10185100D01*
X6195000Y-10185100D02*
X6360100Y-10020000D01*
X6195000Y-9854900D01*
X6029900Y-10020000D01*
X6195000Y-10185100D01*
X6032400Y-8602400D02*
X6362600Y-8932600D01*
X6362600Y-8602400D02*
X6032400Y-8932600D01*
X6197500Y-8932600D02*
X6362600Y-8767500D01*
X6197500Y-8602400D01*
X6032400Y-8767500D01*
X6197500Y-8932600D01*
X15786000Y-6342300D02*
X15786000Y-6875700D01*
X15519300Y-6609000D02*
X16052700Y-6609000D01*
X16052700Y-6609000D02*
G75*
G03X16052700Y-6609000I-266700J0D01*
G01*
X15756000Y-4692300D02*
X15756000Y-5225700D01*
X15489300Y-4959000D02*
X16022700Y-4959000D01*
X16022700Y-4959000D02*
G75*
G03X16022700Y-4959000I-266700J0D01*
G01*
X8074812Y-11974812D02*
X8074812Y-11515188D01*
X7615188Y-11515188D01*
X7615188Y-11974812D01*
X8074812Y-11974812D01*
X8170000Y-11745000D02*
G75*
G03X8170000Y-11745000I-325000J0D01*
G01*
X16474812Y-11974812D02*
X16474812Y-11515188D01*
X16015188Y-11515188D01*
X16015188Y-11974812D01*
X16474812Y-11974812D01*
X16570000Y-11745000D02*
G75*
G03X16570000Y-11745000I-325000J0D01*
G01*
D12*
X5278928Y-15473214D02*
X5278928Y-15173214D01*
X5350357Y-15173214D01*
X5393214Y-15187500D01*
X5421786Y-15216071D01*
X5436071Y-15244643D01*
X5450357Y-15301786D01*
X5450357Y-15344643D01*
X5436071Y-15401786D01*
X5421786Y-15430357D01*
X5393214Y-15458929D01*
X5350357Y-15473214D01*
X5278928Y-15473214D01*
X5578928Y-15473214D02*
X5578928Y-15273214D01*
X5578928Y-15330357D02*
X5593214Y-15301786D01*
X5607500Y-15287500D01*
X5636071Y-15273214D01*
X5664643Y-15273214D01*
X5764643Y-15473214D02*
X5764643Y-15273214D01*
X5764643Y-15173214D02*
X5750357Y-15187500D01*
X5764643Y-15201786D01*
X5778928Y-15187500D01*
X5764643Y-15173214D01*
X5764643Y-15201786D01*
X5950357Y-15473214D02*
X5921786Y-15458929D01*
X5907500Y-15430357D01*
X5907500Y-15173214D01*
X6107500Y-15473214D02*
X6078928Y-15458929D01*
X6064643Y-15430357D01*
X6064643Y-15173214D01*
X6450357Y-15473214D02*
X6450357Y-15173214D01*
X6550357Y-15387500D01*
X6650357Y-15173214D01*
X6650357Y-15473214D01*
X6921786Y-15473214D02*
X6921786Y-15316071D01*
X6907500Y-15287500D01*
X6878928Y-15273214D01*
X6821786Y-15273214D01*
X6793214Y-15287500D01*
X6921786Y-15458929D02*
X6893214Y-15473214D01*
X6821786Y-15473214D01*
X6793214Y-15458929D01*
X6778928Y-15430357D01*
X6778928Y-15401786D01*
X6793214Y-15373214D01*
X6821786Y-15358929D01*
X6893214Y-15358929D01*
X6921786Y-15344643D01*
X7064643Y-15273214D02*
X7064643Y-15573214D01*
X7064643Y-15287500D02*
X7093214Y-15273214D01*
X7150357Y-15273214D01*
X7178928Y-15287500D01*
X7193214Y-15301786D01*
X7207500Y-15330357D01*
X7207500Y-15416071D01*
X7193214Y-15444643D01*
X7178928Y-15458929D01*
X7150357Y-15473214D01*
X7093214Y-15473214D01*
X7064643Y-15458929D01*
X7336071Y-15444643D02*
X7350357Y-15458929D01*
X7336071Y-15473214D01*
X7321786Y-15458929D01*
X7336071Y-15444643D01*
X7336071Y-15473214D01*
X7336071Y-15287500D02*
X7350357Y-15301786D01*
X7336071Y-15316071D01*
X7321786Y-15301786D01*
X7336071Y-15287500D01*
X7336071Y-15316071D01*
X4952500Y-15947500D02*
X4992500Y-15987500D01*
X4992500Y-15947500D02*
X4952500Y-15987500D01*
X5336071Y-15803214D02*
X5364643Y-15803214D01*
X5393214Y-15817500D01*
X5407500Y-15831786D01*
X5421786Y-15860357D01*
X5436071Y-15917500D01*
X5436071Y-15988929D01*
X5421786Y-16046071D01*
X5407500Y-16074643D01*
X5393214Y-16088929D01*
X5364643Y-16103214D01*
X5336071Y-16103214D01*
X5307500Y-16088929D01*
X5293214Y-16074643D01*
X5278928Y-16046071D01*
X5264643Y-15988929D01*
X5264643Y-15917500D01*
X5278928Y-15860357D01*
X5293214Y-15831786D01*
X5307500Y-15817500D01*
X5336071Y-15803214D01*
X5564643Y-16074643D02*
X5578928Y-16088929D01*
X5564643Y-16103214D01*
X5550357Y-16088929D01*
X5564643Y-16074643D01*
X5564643Y-16103214D01*
X5836071Y-15903214D02*
X5836071Y-16103214D01*
X5764643Y-15788929D02*
X5693214Y-16003214D01*
X5878928Y-16003214D01*
X6050357Y-15803214D02*
X6078928Y-15803214D01*
X6107500Y-15817500D01*
X6121786Y-15831786D01*
X6136071Y-15860357D01*
X6150357Y-15917500D01*
X6150357Y-15988929D01*
X6136071Y-16046071D01*
X6121786Y-16074643D01*
X6107500Y-16088929D01*
X6078928Y-16103214D01*
X6050357Y-16103214D01*
X6021786Y-16088929D01*
X6007500Y-16074643D01*
X5993214Y-16046071D01*
X5978928Y-15988929D01*
X5978928Y-15917500D01*
X5993214Y-15860357D01*
X6007500Y-15831786D01*
X6021786Y-15817500D01*
X6050357Y-15803214D01*
X6278928Y-16103214D02*
X6278928Y-15903214D01*
X6278928Y-15931786D02*
X6293214Y-15917500D01*
X6321786Y-15903214D01*
X6364643Y-15903214D01*
X6393214Y-15917500D01*
X6407500Y-15946071D01*
X6407500Y-16103214D01*
X6407500Y-15946071D02*
X6421786Y-15917500D01*
X6450357Y-15903214D01*
X6493214Y-15903214D01*
X6521786Y-15917500D01*
X6536071Y-15946071D01*
X6536071Y-16103214D01*
X6678928Y-16103214D02*
X6678928Y-15903214D01*
X6678928Y-15931786D02*
X6693214Y-15917500D01*
X6721786Y-15903214D01*
X6764643Y-15903214D01*
X6793214Y-15917500D01*
X6807500Y-15946071D01*
X6807500Y-16103214D01*
X6807500Y-15946071D02*
X6821786Y-15917500D01*
X6850357Y-15903214D01*
X6893214Y-15903214D01*
X6921786Y-15917500D01*
X6936071Y-15946071D01*
X6936071Y-16103214D01*
X7521786Y-15788929D02*
X7264643Y-16174643D01*
X7907500Y-15803214D02*
X7936071Y-15803214D01*
X7964643Y-15817500D01*
X7978928Y-15831786D01*
X7993214Y-15860357D01*
X8007500Y-15917500D01*
X8007500Y-15988929D01*
X7993214Y-16046071D01*
X7978928Y-16074643D01*
X7964643Y-16088929D01*
X7936071Y-16103214D01*
X7907500Y-16103214D01*
X7878928Y-16088929D01*
X7864643Y-16074643D01*
X7850357Y-16046071D01*
X7836071Y-15988929D01*
X7836071Y-15917500D01*
X7850357Y-15860357D01*
X7864643Y-15831786D01*
X7878928Y-15817500D01*
X7907500Y-15803214D01*
X8136071Y-16074643D02*
X8150357Y-16088929D01*
X8136071Y-16103214D01*
X8121786Y-16088929D01*
X8136071Y-16074643D01*
X8136071Y-16103214D01*
X8336071Y-15803214D02*
X8364643Y-15803214D01*
X8393214Y-15817500D01*
X8407500Y-15831786D01*
X8421786Y-15860357D01*
X8436071Y-15917500D01*
X8436071Y-15988929D01*
X8421786Y-16046071D01*
X8407500Y-16074643D01*
X8393214Y-16088929D01*
X8364643Y-16103214D01*
X8336071Y-16103214D01*
X8307500Y-16088929D01*
X8293214Y-16074643D01*
X8278928Y-16046071D01*
X8264643Y-15988929D01*
X8264643Y-15917500D01*
X8278928Y-15860357D01*
X8293214Y-15831786D01*
X8307500Y-15817500D01*
X8336071Y-15803214D01*
X8721786Y-16103214D02*
X8550357Y-16103214D01*
X8636071Y-16103214D02*
X8636071Y-15803214D01*
X8607500Y-15846071D01*
X8578928Y-15874643D01*
X8550357Y-15888929D01*
X8978928Y-15803214D02*
X8921786Y-15803214D01*
X8893214Y-15817500D01*
X8878928Y-15831786D01*
X8850357Y-15874643D01*
X8836071Y-15931786D01*
X8836071Y-16046071D01*
X8850357Y-16074643D01*
X8864643Y-16088929D01*
X8893214Y-16103214D01*
X8950357Y-16103214D01*
X8978928Y-16088929D01*
X8993214Y-16074643D01*
X9007500Y-16046071D01*
X9007500Y-15974643D01*
X8993214Y-15946071D01*
X8978928Y-15931786D01*
X8950357Y-15917500D01*
X8893214Y-15917500D01*
X8864643Y-15931786D01*
X8850357Y-15946071D01*
X8836071Y-15974643D01*
X9121786Y-15803214D02*
X9121786Y-15860357D01*
X9236071Y-15803214D02*
X9236071Y-15860357D01*
X9678928Y-16217500D02*
X9664643Y-16203214D01*
X9636071Y-16160357D01*
X9621786Y-16131786D01*
X9607500Y-16088929D01*
X9593214Y-16017500D01*
X9593214Y-15960357D01*
X9607500Y-15888929D01*
X9621786Y-15846071D01*
X9636071Y-15817500D01*
X9664643Y-15774643D01*
X9678928Y-15760357D01*
X9921786Y-15903214D02*
X9921786Y-16103214D01*
X9850357Y-15788929D02*
X9778928Y-16003214D01*
X9964643Y-16003214D01*
X10136071Y-15803214D02*
X10164643Y-15803214D01*
X10193214Y-15817500D01*
X10207500Y-15831786D01*
X10221786Y-15860357D01*
X10236071Y-15917500D01*
X10236071Y-15988929D01*
X10221786Y-16046071D01*
X10207500Y-16074643D01*
X10193214Y-16088929D01*
X10164643Y-16103214D01*
X10136071Y-16103214D01*
X10107500Y-16088929D01*
X10093214Y-16074643D01*
X10078928Y-16046071D01*
X10064643Y-15988929D01*
X10064643Y-15917500D01*
X10078928Y-15860357D01*
X10093214Y-15831786D01*
X10107500Y-15817500D01*
X10136071Y-15803214D01*
X10593214Y-16103214D02*
X10593214Y-15803214D01*
X10721786Y-16103214D02*
X10721786Y-15946071D01*
X10707500Y-15917500D01*
X10678928Y-15903214D01*
X10636071Y-15903214D01*
X10607500Y-15917500D01*
X10593214Y-15931786D01*
X10907500Y-16103214D02*
X10878928Y-16088929D01*
X10864643Y-16074643D01*
X10850357Y-16046071D01*
X10850357Y-15960357D01*
X10864643Y-15931786D01*
X10878928Y-15917500D01*
X10907500Y-15903214D01*
X10950357Y-15903214D01*
X10978928Y-15917500D01*
X10993214Y-15931786D01*
X11007500Y-15960357D01*
X11007500Y-16046071D01*
X10993214Y-16074643D01*
X10978928Y-16088929D01*
X10950357Y-16103214D01*
X10907500Y-16103214D01*
X11178928Y-16103214D02*
X11150357Y-16088929D01*
X11136071Y-16060357D01*
X11136071Y-15803214D01*
X11407500Y-16088929D02*
X11378928Y-16103214D01*
X11321786Y-16103214D01*
X11293214Y-16088929D01*
X11278928Y-16060357D01*
X11278928Y-15946071D01*
X11293214Y-15917500D01*
X11321786Y-15903214D01*
X11378928Y-15903214D01*
X11407500Y-15917500D01*
X11421786Y-15946071D01*
X11421786Y-15974643D01*
X11278928Y-16003214D01*
X11536071Y-16088929D02*
X11564643Y-16103214D01*
X11621786Y-16103214D01*
X11650357Y-16088929D01*
X11664643Y-16060357D01*
X11664643Y-16046071D01*
X11650357Y-16017500D01*
X11621786Y-16003214D01*
X11578928Y-16003214D01*
X11550357Y-15988929D01*
X11536071Y-15960357D01*
X11536071Y-15946071D01*
X11550357Y-15917500D01*
X11578928Y-15903214D01*
X11621786Y-15903214D01*
X11650357Y-15917500D01*
X11764643Y-16217500D02*
X11778928Y-16203214D01*
X11807500Y-16160357D01*
X11821786Y-16131786D01*
X11836071Y-16088929D01*
X11850357Y-16017500D01*
X11850357Y-15960357D01*
X11836071Y-15888929D01*
X11821786Y-15846071D01*
X11807500Y-15817500D01*
X11778928Y-15774643D01*
X11764643Y-15760357D01*
X4992500Y-16363500D02*
G75*
G03X4992500Y-16363500I-50038J0D01*
G01*
X5436071Y-16499214D02*
X5264643Y-16499214D01*
X5350357Y-16499214D02*
X5350357Y-16199214D01*
X5321786Y-16242071D01*
X5293214Y-16270643D01*
X5264643Y-16284929D01*
X5564643Y-16470643D02*
X5578928Y-16484929D01*
X5564643Y-16499214D01*
X5550357Y-16484929D01*
X5564643Y-16470643D01*
X5564643Y-16499214D01*
X5764643Y-16199214D02*
X5793214Y-16199214D01*
X5821786Y-16213500D01*
X5836071Y-16227786D01*
X5850357Y-16256357D01*
X5864643Y-16313500D01*
X5864643Y-16384929D01*
X5850357Y-16442071D01*
X5836071Y-16470643D01*
X5821786Y-16484929D01*
X5793214Y-16499214D01*
X5764643Y-16499214D01*
X5736071Y-16484929D01*
X5721786Y-16470643D01*
X5707500Y-16442071D01*
X5693214Y-16384929D01*
X5693214Y-16313500D01*
X5707500Y-16256357D01*
X5721786Y-16227786D01*
X5736071Y-16213500D01*
X5764643Y-16199214D01*
X6050357Y-16199214D02*
X6078928Y-16199214D01*
X6107500Y-16213500D01*
X6121786Y-16227786D01*
X6136071Y-16256357D01*
X6150357Y-16313500D01*
X6150357Y-16384929D01*
X6136071Y-16442071D01*
X6121786Y-16470643D01*
X6107500Y-16484929D01*
X6078928Y-16499214D01*
X6050357Y-16499214D01*
X6021786Y-16484929D01*
X6007500Y-16470643D01*
X5993214Y-16442071D01*
X5978928Y-16384929D01*
X5978928Y-16313500D01*
X5993214Y-16256357D01*
X6007500Y-16227786D01*
X6021786Y-16213500D01*
X6050357Y-16199214D01*
X6278928Y-16499214D02*
X6278928Y-16299214D01*
X6278928Y-16327786D02*
X6293214Y-16313500D01*
X6321786Y-16299214D01*
X6364643Y-16299214D01*
X6393214Y-16313500D01*
X6407500Y-16342071D01*
X6407500Y-16499214D01*
X6407500Y-16342071D02*
X6421786Y-16313500D01*
X6450357Y-16299214D01*
X6493214Y-16299214D01*
X6521786Y-16313500D01*
X6536071Y-16342071D01*
X6536071Y-16499214D01*
X6678928Y-16499214D02*
X6678928Y-16299214D01*
X6678928Y-16327786D02*
X6693214Y-16313500D01*
X6721786Y-16299214D01*
X6764643Y-16299214D01*
X6793214Y-16313500D01*
X6807500Y-16342071D01*
X6807500Y-16499214D01*
X6807500Y-16342071D02*
X6821786Y-16313500D01*
X6850357Y-16299214D01*
X6893214Y-16299214D01*
X6921786Y-16313500D01*
X6936071Y-16342071D01*
X6936071Y-16499214D01*
X7521786Y-16184929D02*
X7264643Y-16570643D01*
X7907500Y-16199214D02*
X7936071Y-16199214D01*
X7964643Y-16213500D01*
X7978928Y-16227786D01*
X7993214Y-16256357D01*
X8007500Y-16313500D01*
X8007500Y-16384929D01*
X7993214Y-16442071D01*
X7978928Y-16470643D01*
X7964643Y-16484929D01*
X7936071Y-16499214D01*
X7907500Y-16499214D01*
X7878928Y-16484929D01*
X7864643Y-16470643D01*
X7850357Y-16442071D01*
X7836071Y-16384929D01*
X7836071Y-16313500D01*
X7850357Y-16256357D01*
X7864643Y-16227786D01*
X7878928Y-16213500D01*
X7907500Y-16199214D01*
X8136071Y-16470643D02*
X8150357Y-16484929D01*
X8136071Y-16499214D01*
X8121786Y-16484929D01*
X8136071Y-16470643D01*
X8136071Y-16499214D01*
X8336071Y-16199214D02*
X8364643Y-16199214D01*
X8393214Y-16213500D01*
X8407500Y-16227786D01*
X8421786Y-16256357D01*
X8436071Y-16313500D01*
X8436071Y-16384929D01*
X8421786Y-16442071D01*
X8407500Y-16470643D01*
X8393214Y-16484929D01*
X8364643Y-16499214D01*
X8336071Y-16499214D01*
X8307500Y-16484929D01*
X8293214Y-16470643D01*
X8278928Y-16442071D01*
X8264643Y-16384929D01*
X8264643Y-16313500D01*
X8278928Y-16256357D01*
X8293214Y-16227786D01*
X8307500Y-16213500D01*
X8336071Y-16199214D01*
X8536071Y-16199214D02*
X8721786Y-16199214D01*
X8621786Y-16313500D01*
X8664643Y-16313500D01*
X8693214Y-16327786D01*
X8707500Y-16342071D01*
X8721786Y-16370643D01*
X8721786Y-16442071D01*
X8707500Y-16470643D01*
X8693214Y-16484929D01*
X8664643Y-16499214D01*
X8578928Y-16499214D01*
X8550357Y-16484929D01*
X8536071Y-16470643D01*
X8864643Y-16499214D02*
X8921786Y-16499214D01*
X8950357Y-16484929D01*
X8964643Y-16470643D01*
X8993214Y-16427786D01*
X9007500Y-16370643D01*
X9007500Y-16256357D01*
X8993214Y-16227786D01*
X8978928Y-16213500D01*
X8950357Y-16199214D01*
X8893214Y-16199214D01*
X8864643Y-16213500D01*
X8850357Y-16227786D01*
X8836071Y-16256357D01*
X8836071Y-16327786D01*
X8850357Y-16356357D01*
X8864643Y-16370643D01*
X8893214Y-16384929D01*
X8950357Y-16384929D01*
X8978928Y-16370643D01*
X8993214Y-16356357D01*
X9007500Y-16327786D01*
X9121786Y-16199214D02*
X9121786Y-16256357D01*
X9236071Y-16199214D02*
X9236071Y-16256357D01*
X9678928Y-16613500D02*
X9664643Y-16599214D01*
X9636071Y-16556357D01*
X9621786Y-16527786D01*
X9607500Y-16484929D01*
X9593214Y-16413500D01*
X9593214Y-16356357D01*
X9607500Y-16284929D01*
X9621786Y-16242071D01*
X9636071Y-16213500D01*
X9664643Y-16170643D01*
X9678928Y-16156357D01*
X9921786Y-16299214D02*
X9921786Y-16499214D01*
X9850357Y-16184929D02*
X9778928Y-16399214D01*
X9964643Y-16399214D01*
X10064643Y-16227786D02*
X10078928Y-16213500D01*
X10107500Y-16199214D01*
X10178928Y-16199214D01*
X10207500Y-16213500D01*
X10221786Y-16227786D01*
X10236071Y-16256357D01*
X10236071Y-16284929D01*
X10221786Y-16327786D01*
X10050357Y-16499214D01*
X10236071Y-16499214D01*
X10593214Y-16499214D02*
X10593214Y-16199214D01*
X10721786Y-16499214D02*
X10721786Y-16342071D01*
X10707500Y-16313500D01*
X10678928Y-16299214D01*
X10636071Y-16299214D01*
X10607500Y-16313500D01*
X10593214Y-16327786D01*
X10907500Y-16499214D02*
X10878928Y-16484929D01*
X10864643Y-16470643D01*
X10850357Y-16442071D01*
X10850357Y-16356357D01*
X10864643Y-16327786D01*
X10878928Y-16313500D01*
X10907500Y-16299214D01*
X10950357Y-16299214D01*
X10978928Y-16313500D01*
X10993214Y-16327786D01*
X11007500Y-16356357D01*
X11007500Y-16442071D01*
X10993214Y-16470643D01*
X10978928Y-16484929D01*
X10950357Y-16499214D01*
X10907500Y-16499214D01*
X11178928Y-16499214D02*
X11150357Y-16484929D01*
X11136071Y-16456357D01*
X11136071Y-16199214D01*
X11407500Y-16484929D02*
X11378928Y-16499214D01*
X11321786Y-16499214D01*
X11293214Y-16484929D01*
X11278928Y-16456357D01*
X11278928Y-16342071D01*
X11293214Y-16313500D01*
X11321786Y-16299214D01*
X11378928Y-16299214D01*
X11407500Y-16313500D01*
X11421786Y-16342071D01*
X11421786Y-16370643D01*
X11278928Y-16399214D01*
X11536071Y-16484929D02*
X11564643Y-16499214D01*
X11621786Y-16499214D01*
X11650357Y-16484929D01*
X11664643Y-16456357D01*
X11664643Y-16442071D01*
X11650357Y-16413500D01*
X11621786Y-16399214D01*
X11578928Y-16399214D01*
X11550357Y-16384929D01*
X11536071Y-16356357D01*
X11536071Y-16342071D01*
X11550357Y-16313500D01*
X11578928Y-16299214D01*
X11621786Y-16299214D01*
X11650357Y-16313500D01*
X11764643Y-16613500D02*
X11778928Y-16599214D01*
X11807500Y-16556357D01*
X11821786Y-16527786D01*
X11836071Y-16484929D01*
X11850357Y-16413500D01*
X11850357Y-16356357D01*
X11836071Y-16284929D01*
X11821786Y-16242071D01*
X11807500Y-16213500D01*
X11778928Y-16170643D01*
X11764643Y-16156357D01*
X4939500Y-16706500D02*
X4939500Y-16812500D01*
X4886500Y-16759500D02*
X4992500Y-16759500D01*
X5436071Y-16895214D02*
X5264643Y-16895214D01*
X5350357Y-16895214D02*
X5350357Y-16595214D01*
X5321786Y-16638071D01*
X5293214Y-16666643D01*
X5264643Y-16680929D01*
X5564643Y-16866643D02*
X5578928Y-16880929D01*
X5564643Y-16895214D01*
X5550357Y-16880929D01*
X5564643Y-16866643D01*
X5564643Y-16895214D01*
X5764643Y-16595214D02*
X5793214Y-16595214D01*
X5821786Y-16609500D01*
X5836071Y-16623786D01*
X5850357Y-16652357D01*
X5864643Y-16709500D01*
X5864643Y-16780929D01*
X5850357Y-16838072D01*
X5836071Y-16866643D01*
X5821786Y-16880929D01*
X5793214Y-16895214D01*
X5764643Y-16895214D01*
X5736071Y-16880929D01*
X5721786Y-16866643D01*
X5707500Y-16838072D01*
X5693214Y-16780929D01*
X5693214Y-16709500D01*
X5707500Y-16652357D01*
X5721786Y-16623786D01*
X5736071Y-16609500D01*
X5764643Y-16595214D01*
X6121786Y-16595214D02*
X6064643Y-16595214D01*
X6036071Y-16609500D01*
X6021786Y-16623786D01*
X5993214Y-16666643D01*
X5978928Y-16723786D01*
X5978928Y-16838072D01*
X5993214Y-16866643D01*
X6007500Y-16880929D01*
X6036071Y-16895214D01*
X6093214Y-16895214D01*
X6121786Y-16880929D01*
X6136071Y-16866643D01*
X6150357Y-16838072D01*
X6150357Y-16766643D01*
X6136071Y-16738071D01*
X6121786Y-16723786D01*
X6093214Y-16709500D01*
X6036071Y-16709500D01*
X6007500Y-16723786D01*
X5993214Y-16738071D01*
X5978928Y-16766643D01*
X6278928Y-16895214D02*
X6278928Y-16695214D01*
X6278928Y-16723786D02*
X6293214Y-16709500D01*
X6321786Y-16695214D01*
X6364643Y-16695214D01*
X6393214Y-16709500D01*
X6407500Y-16738071D01*
X6407500Y-16895214D01*
X6407500Y-16738071D02*
X6421786Y-16709500D01*
X6450357Y-16695214D01*
X6493214Y-16695214D01*
X6521786Y-16709500D01*
X6536071Y-16738071D01*
X6536071Y-16895214D01*
X6678928Y-16895214D02*
X6678928Y-16695214D01*
X6678928Y-16723786D02*
X6693214Y-16709500D01*
X6721786Y-16695214D01*
X6764643Y-16695214D01*
X6793214Y-16709500D01*
X6807500Y-16738071D01*
X6807500Y-16895214D01*
X6807500Y-16738071D02*
X6821786Y-16709500D01*
X6850357Y-16695214D01*
X6893214Y-16695214D01*
X6921786Y-16709500D01*
X6936071Y-16738071D01*
X6936071Y-16895214D01*
X7521786Y-16580929D02*
X7264643Y-16966643D01*
X7907500Y-16595214D02*
X7936071Y-16595214D01*
X7964643Y-16609500D01*
X7978928Y-16623786D01*
X7993214Y-16652357D01*
X8007500Y-16709500D01*
X8007500Y-16780929D01*
X7993214Y-16838072D01*
X7978928Y-16866643D01*
X7964643Y-16880929D01*
X7936071Y-16895214D01*
X7907500Y-16895214D01*
X7878928Y-16880929D01*
X7864643Y-16866643D01*
X7850357Y-16838072D01*
X7836071Y-16780929D01*
X7836071Y-16709500D01*
X7850357Y-16652357D01*
X7864643Y-16623786D01*
X7878928Y-16609500D01*
X7907500Y-16595214D01*
X8136071Y-16866643D02*
X8150357Y-16880929D01*
X8136071Y-16895214D01*
X8121786Y-16880929D01*
X8136071Y-16866643D01*
X8136071Y-16895214D01*
X8336071Y-16595214D02*
X8364643Y-16595214D01*
X8393214Y-16609500D01*
X8407500Y-16623786D01*
X8421786Y-16652357D01*
X8436071Y-16709500D01*
X8436071Y-16780929D01*
X8421786Y-16838072D01*
X8407500Y-16866643D01*
X8393214Y-16880929D01*
X8364643Y-16895214D01*
X8336071Y-16895214D01*
X8307500Y-16880929D01*
X8293214Y-16866643D01*
X8278928Y-16838072D01*
X8264643Y-16780929D01*
X8264643Y-16709500D01*
X8278928Y-16652357D01*
X8293214Y-16623786D01*
X8307500Y-16609500D01*
X8336071Y-16595214D01*
X8693214Y-16695214D02*
X8693214Y-16895214D01*
X8621786Y-16580929D02*
X8550357Y-16795214D01*
X8736071Y-16795214D01*
X8836071Y-16623786D02*
X8850357Y-16609500D01*
X8878928Y-16595214D01*
X8950357Y-16595214D01*
X8978928Y-16609500D01*
X8993214Y-16623786D01*
X9007500Y-16652357D01*
X9007500Y-16680929D01*
X8993214Y-16723786D01*
X8821786Y-16895214D01*
X9007500Y-16895214D01*
X9121786Y-16595214D02*
X9121786Y-16652357D01*
X9236071Y-16595214D02*
X9236071Y-16652357D01*
X9678928Y-17009500D02*
X9664643Y-16995214D01*
X9636071Y-16952357D01*
X9621786Y-16923786D01*
X9607500Y-16880929D01*
X9593214Y-16809500D01*
X9593214Y-16752357D01*
X9607500Y-16680929D01*
X9621786Y-16638071D01*
X9636071Y-16609500D01*
X9664643Y-16566643D01*
X9678928Y-16552357D01*
X9950357Y-16895214D02*
X9778928Y-16895214D01*
X9864643Y-16895214D02*
X9864643Y-16595214D01*
X9836071Y-16638071D01*
X9807500Y-16666643D01*
X9778928Y-16680929D01*
X10064643Y-16623786D02*
X10078928Y-16609500D01*
X10107500Y-16595214D01*
X10178928Y-16595214D01*
X10207500Y-16609500D01*
X10221786Y-16623786D01*
X10236071Y-16652357D01*
X10236071Y-16680929D01*
X10221786Y-16723786D01*
X10050357Y-16895214D01*
X10236071Y-16895214D01*
X10593214Y-16895214D02*
X10593214Y-16595214D01*
X10721786Y-16895214D02*
X10721786Y-16738071D01*
X10707500Y-16709500D01*
X10678928Y-16695214D01*
X10636071Y-16695214D01*
X10607500Y-16709500D01*
X10593214Y-16723786D01*
X10907500Y-16895214D02*
X10878928Y-16880929D01*
X10864643Y-16866643D01*
X10850357Y-16838072D01*
X10850357Y-16752357D01*
X10864643Y-16723786D01*
X10878928Y-16709500D01*
X10907500Y-16695214D01*
X10950357Y-16695214D01*
X10978928Y-16709500D01*
X10993214Y-16723786D01*
X11007500Y-16752357D01*
X11007500Y-16838072D01*
X10993214Y-16866643D01*
X10978928Y-16880929D01*
X10950357Y-16895214D01*
X10907500Y-16895214D01*
X11178928Y-16895214D02*
X11150357Y-16880929D01*
X11136071Y-16852357D01*
X11136071Y-16595214D01*
X11407500Y-16880929D02*
X11378928Y-16895214D01*
X11321786Y-16895214D01*
X11293214Y-16880929D01*
X11278928Y-16852357D01*
X11278928Y-16738071D01*
X11293214Y-16709500D01*
X11321786Y-16695214D01*
X11378928Y-16695214D01*
X11407500Y-16709500D01*
X11421786Y-16738071D01*
X11421786Y-16766643D01*
X11278928Y-16795214D01*
X11536071Y-16880929D02*
X11564643Y-16895214D01*
X11621786Y-16895214D01*
X11650357Y-16880929D01*
X11664643Y-16852357D01*
X11664643Y-16838072D01*
X11650357Y-16809500D01*
X11621786Y-16795214D01*
X11578928Y-16795214D01*
X11550357Y-16780929D01*
X11536071Y-16752357D01*
X11536071Y-16738071D01*
X11550357Y-16709500D01*
X11578928Y-16695214D01*
X11621786Y-16695214D01*
X11650357Y-16709500D01*
X11764643Y-17009500D02*
X11778928Y-16995214D01*
X11807500Y-16952357D01*
X11821786Y-16923786D01*
X11836071Y-16880929D01*
X11850357Y-16809500D01*
X11850357Y-16752357D01*
X11836071Y-16680929D01*
X11821786Y-16638071D01*
X11807500Y-16609500D01*
X11778928Y-16566643D01*
X11764643Y-16552357D01*
X4974927Y-17197927D02*
X4974927Y-17113073D01*
X4890073Y-17113073D01*
X4890073Y-17197927D01*
X4974927Y-17197927D01*
X5436071Y-17291214D02*
X5264643Y-17291214D01*
X5350357Y-17291214D02*
X5350357Y-16991214D01*
X5321786Y-17034072D01*
X5293214Y-17062643D01*
X5264643Y-17076929D01*
X5564643Y-17262643D02*
X5578928Y-17276929D01*
X5564643Y-17291214D01*
X5550357Y-17276929D01*
X5564643Y-17262643D01*
X5564643Y-17291214D01*
X5693214Y-17019786D02*
X5707500Y-17005500D01*
X5736071Y-16991214D01*
X5807500Y-16991214D01*
X5836071Y-17005500D01*
X5850357Y-17019786D01*
X5864643Y-17048357D01*
X5864643Y-17076929D01*
X5850357Y-17119786D01*
X5678928Y-17291214D01*
X5864643Y-17291214D01*
X6050357Y-16991214D02*
X6078928Y-16991214D01*
X6107500Y-17005500D01*
X6121786Y-17019786D01*
X6136071Y-17048357D01*
X6150357Y-17105500D01*
X6150357Y-17176929D01*
X6136071Y-17234072D01*
X6121786Y-17262643D01*
X6107500Y-17276929D01*
X6078928Y-17291214D01*
X6050357Y-17291214D01*
X6021786Y-17276929D01*
X6007500Y-17262643D01*
X5993214Y-17234072D01*
X5978928Y-17176929D01*
X5978928Y-17105500D01*
X5993214Y-17048357D01*
X6007500Y-17019786D01*
X6021786Y-17005500D01*
X6050357Y-16991214D01*
X6278928Y-17291214D02*
X6278928Y-17091214D01*
X6278928Y-17119786D02*
X6293214Y-17105500D01*
X6321786Y-17091214D01*
X6364643Y-17091214D01*
X6393214Y-17105500D01*
X6407500Y-17134072D01*
X6407500Y-17291214D01*
X6407500Y-17134072D02*
X6421786Y-17105500D01*
X6450357Y-17091214D01*
X6493214Y-17091214D01*
X6521786Y-17105500D01*
X6536071Y-17134072D01*
X6536071Y-17291214D01*
X6678928Y-17291214D02*
X6678928Y-17091214D01*
X6678928Y-17119786D02*
X6693214Y-17105500D01*
X6721786Y-17091214D01*
X6764643Y-17091214D01*
X6793214Y-17105500D01*
X6807500Y-17134072D01*
X6807500Y-17291214D01*
X6807500Y-17134072D02*
X6821786Y-17105500D01*
X6850357Y-17091214D01*
X6893214Y-17091214D01*
X6921786Y-17105500D01*
X6936071Y-17134072D01*
X6936071Y-17291214D01*
X7521786Y-16976929D02*
X7264643Y-17362643D01*
X7907500Y-16991214D02*
X7936071Y-16991214D01*
X7964643Y-17005500D01*
X7978928Y-17019786D01*
X7993214Y-17048357D01*
X8007500Y-17105500D01*
X8007500Y-17176929D01*
X7993214Y-17234072D01*
X7978928Y-17262643D01*
X7964643Y-17276929D01*
X7936071Y-17291214D01*
X7907500Y-17291214D01*
X7878928Y-17276929D01*
X7864643Y-17262643D01*
X7850357Y-17234072D01*
X7836071Y-17176929D01*
X7836071Y-17105500D01*
X7850357Y-17048357D01*
X7864643Y-17019786D01*
X7878928Y-17005500D01*
X7907500Y-16991214D01*
X8136071Y-17262643D02*
X8150357Y-17276929D01*
X8136071Y-17291214D01*
X8121786Y-17276929D01*
X8136071Y-17262643D01*
X8136071Y-17291214D01*
X8336071Y-16991214D02*
X8364643Y-16991214D01*
X8393214Y-17005500D01*
X8407500Y-17019786D01*
X8421786Y-17048357D01*
X8436071Y-17105500D01*
X8436071Y-17176929D01*
X8421786Y-17234072D01*
X8407500Y-17262643D01*
X8393214Y-17276929D01*
X8364643Y-17291214D01*
X8336071Y-17291214D01*
X8307500Y-17276929D01*
X8293214Y-17262643D01*
X8278928Y-17234072D01*
X8264643Y-17176929D01*
X8264643Y-17105500D01*
X8278928Y-17048357D01*
X8293214Y-17019786D01*
X8307500Y-17005500D01*
X8336071Y-16991214D01*
X8693214Y-17091214D02*
X8693214Y-17291214D01*
X8621786Y-16976929D02*
X8550357Y-17191214D01*
X8736071Y-17191214D01*
X8821786Y-16991214D02*
X9021786Y-16991214D01*
X8893214Y-17291214D01*
X9121786Y-16991214D02*
X9121786Y-17048357D01*
X9236071Y-16991214D02*
X9236071Y-17048357D01*
X9678928Y-17405500D02*
X9664643Y-17391214D01*
X9636071Y-17348357D01*
X9621786Y-17319786D01*
X9607500Y-17276929D01*
X9593214Y-17205500D01*
X9593214Y-17148357D01*
X9607500Y-17076929D01*
X9621786Y-17034072D01*
X9636071Y-17005500D01*
X9664643Y-16962643D01*
X9678928Y-16948357D01*
X9921786Y-17091214D02*
X9921786Y-17291214D01*
X9850357Y-16976929D02*
X9778928Y-17191214D01*
X9964643Y-17191214D01*
X10307500Y-17291214D02*
X10307500Y-16991214D01*
X10436071Y-17291214D02*
X10436071Y-17134072D01*
X10421786Y-17105500D01*
X10393214Y-17091214D01*
X10350357Y-17091214D01*
X10321786Y-17105500D01*
X10307500Y-17119786D01*
X10621786Y-17291214D02*
X10593214Y-17276929D01*
X10578928Y-17262643D01*
X10564643Y-17234072D01*
X10564643Y-17148357D01*
X10578928Y-17119786D01*
X10593214Y-17105500D01*
X10621786Y-17091214D01*
X10664643Y-17091214D01*
X10693214Y-17105500D01*
X10707500Y-17119786D01*
X10721786Y-17148357D01*
X10721786Y-17234072D01*
X10707500Y-17262643D01*
X10693214Y-17276929D01*
X10664643Y-17291214D01*
X10621786Y-17291214D01*
X10893214Y-17291214D02*
X10864643Y-17276929D01*
X10850357Y-17248357D01*
X10850357Y-16991214D01*
X11121786Y-17276929D02*
X11093214Y-17291214D01*
X11036071Y-17291214D01*
X11007500Y-17276929D01*
X10993214Y-17248357D01*
X10993214Y-17134072D01*
X11007500Y-17105500D01*
X11036071Y-17091214D01*
X11093214Y-17091214D01*
X11121786Y-17105500D01*
X11136071Y-17134072D01*
X11136071Y-17162643D01*
X10993214Y-17191214D01*
X11250357Y-17276929D02*
X11278928Y-17291214D01*
X11336071Y-17291214D01*
X11364643Y-17276929D01*
X11378928Y-17248357D01*
X11378928Y-17234072D01*
X11364643Y-17205500D01*
X11336071Y-17191214D01*
X11293214Y-17191214D01*
X11264643Y-17176929D01*
X11250357Y-17148357D01*
X11250357Y-17134072D01*
X11264643Y-17105500D01*
X11293214Y-17091214D01*
X11336071Y-17091214D01*
X11364643Y-17105500D01*
X11478928Y-17405500D02*
X11493214Y-17391214D01*
X11521786Y-17348357D01*
X11536071Y-17319786D01*
X11550357Y-17276929D01*
X11564643Y-17205500D01*
X11564643Y-17148357D01*
X11550357Y-17076929D01*
X11536071Y-17034072D01*
X11521786Y-17005500D01*
X11493214Y-16962643D01*
X11478928Y-16948357D01*
X4929000Y-17615000D02*
X4992500Y-17551500D01*
X4929000Y-17488000D01*
X4865500Y-17551500D01*
X4929000Y-17615000D01*
X5436071Y-17687214D02*
X5264643Y-17687214D01*
X5350357Y-17687214D02*
X5350357Y-17387214D01*
X5321786Y-17430072D01*
X5293214Y-17458643D01*
X5264643Y-17472929D01*
X5564643Y-17658643D02*
X5578928Y-17672929D01*
X5564643Y-17687214D01*
X5550357Y-17672929D01*
X5564643Y-17658643D01*
X5564643Y-17687214D01*
X5693214Y-17415786D02*
X5707500Y-17401500D01*
X5736071Y-17387214D01*
X5807500Y-17387214D01*
X5836071Y-17401500D01*
X5850357Y-17415786D01*
X5864643Y-17444357D01*
X5864643Y-17472929D01*
X5850357Y-17515786D01*
X5678928Y-17687214D01*
X5864643Y-17687214D01*
X5964643Y-17387214D02*
X6164643Y-17387214D01*
X6036071Y-17687214D01*
X6278928Y-17687214D02*
X6278928Y-17487214D01*
X6278928Y-17515786D02*
X6293214Y-17501500D01*
X6321786Y-17487214D01*
X6364643Y-17487214D01*
X6393214Y-17501500D01*
X6407500Y-17530072D01*
X6407500Y-17687214D01*
X6407500Y-17530072D02*
X6421786Y-17501500D01*
X6450357Y-17487214D01*
X6493214Y-17487214D01*
X6521786Y-17501500D01*
X6536071Y-17530072D01*
X6536071Y-17687214D01*
X6678928Y-17687214D02*
X6678928Y-17487214D01*
X6678928Y-17515786D02*
X6693214Y-17501500D01*
X6721786Y-17487214D01*
X6764643Y-17487214D01*
X6793214Y-17501500D01*
X6807500Y-17530072D01*
X6807500Y-17687214D01*
X6807500Y-17530072D02*
X6821786Y-17501500D01*
X6850357Y-17487214D01*
X6893214Y-17487214D01*
X6921786Y-17501500D01*
X6936071Y-17530072D01*
X6936071Y-17687214D01*
X7521786Y-17372929D02*
X7264643Y-17758643D01*
X7907500Y-17387214D02*
X7936071Y-17387214D01*
X7964643Y-17401500D01*
X7978928Y-17415786D01*
X7993214Y-17444357D01*
X8007500Y-17501500D01*
X8007500Y-17572929D01*
X7993214Y-17630072D01*
X7978928Y-17658643D01*
X7964643Y-17672929D01*
X7936071Y-17687214D01*
X7907500Y-17687214D01*
X7878928Y-17672929D01*
X7864643Y-17658643D01*
X7850357Y-17630072D01*
X7836071Y-17572929D01*
X7836071Y-17501500D01*
X7850357Y-17444357D01*
X7864643Y-17415786D01*
X7878928Y-17401500D01*
X7907500Y-17387214D01*
X8136071Y-17658643D02*
X8150357Y-17672929D01*
X8136071Y-17687214D01*
X8121786Y-17672929D01*
X8136071Y-17658643D01*
X8136071Y-17687214D01*
X8336071Y-17387214D02*
X8364643Y-17387214D01*
X8393214Y-17401500D01*
X8407500Y-17415786D01*
X8421786Y-17444357D01*
X8436071Y-17501500D01*
X8436071Y-17572929D01*
X8421786Y-17630072D01*
X8407500Y-17658643D01*
X8393214Y-17672929D01*
X8364643Y-17687214D01*
X8336071Y-17687214D01*
X8307500Y-17672929D01*
X8293214Y-17658643D01*
X8278928Y-17630072D01*
X8264643Y-17572929D01*
X8264643Y-17501500D01*
X8278928Y-17444357D01*
X8293214Y-17415786D01*
X8307500Y-17401500D01*
X8336071Y-17387214D01*
X8707500Y-17387214D02*
X8564643Y-17387214D01*
X8550357Y-17530072D01*
X8564643Y-17515786D01*
X8593214Y-17501500D01*
X8664643Y-17501500D01*
X8693214Y-17515786D01*
X8707500Y-17530072D01*
X8721786Y-17558643D01*
X8721786Y-17630072D01*
X8707500Y-17658643D01*
X8693214Y-17672929D01*
X8664643Y-17687214D01*
X8593214Y-17687214D01*
X8564643Y-17672929D01*
X8550357Y-17658643D01*
X8907500Y-17387214D02*
X8936071Y-17387214D01*
X8964643Y-17401500D01*
X8978928Y-17415786D01*
X8993214Y-17444357D01*
X9007500Y-17501500D01*
X9007500Y-17572929D01*
X8993214Y-17630072D01*
X8978928Y-17658643D01*
X8964643Y-17672929D01*
X8936071Y-17687214D01*
X8907500Y-17687214D01*
X8878928Y-17672929D01*
X8864643Y-17658643D01*
X8850357Y-17630072D01*
X8836071Y-17572929D01*
X8836071Y-17501500D01*
X8850357Y-17444357D01*
X8864643Y-17415786D01*
X8878928Y-17401500D01*
X8907500Y-17387214D01*
X9121786Y-17387214D02*
X9121786Y-17444357D01*
X9236071Y-17387214D02*
X9236071Y-17444357D01*
X9678928Y-17801500D02*
X9664643Y-17787214D01*
X9636071Y-17744357D01*
X9621786Y-17715786D01*
X9607500Y-17672929D01*
X9593214Y-17601500D01*
X9593214Y-17544357D01*
X9607500Y-17472929D01*
X9621786Y-17430072D01*
X9636071Y-17401500D01*
X9664643Y-17358643D01*
X9678928Y-17344357D01*
X9764643Y-17387214D02*
X9950357Y-17387214D01*
X9850357Y-17501500D01*
X9893214Y-17501500D01*
X9921786Y-17515786D01*
X9936071Y-17530072D01*
X9950357Y-17558643D01*
X9950357Y-17630072D01*
X9936071Y-17658643D01*
X9921786Y-17672929D01*
X9893214Y-17687214D01*
X9807500Y-17687214D01*
X9778928Y-17672929D01*
X9764643Y-17658643D01*
X10307500Y-17687214D02*
X10307500Y-17387214D01*
X10436071Y-17687214D02*
X10436071Y-17530072D01*
X10421786Y-17501500D01*
X10393214Y-17487214D01*
X10350357Y-17487214D01*
X10321786Y-17501500D01*
X10307500Y-17515786D01*
X10621786Y-17687214D02*
X10593214Y-17672929D01*
X10578928Y-17658643D01*
X10564643Y-17630072D01*
X10564643Y-17544357D01*
X10578928Y-17515786D01*
X10593214Y-17501500D01*
X10621786Y-17487214D01*
X10664643Y-17487214D01*
X10693214Y-17501500D01*
X10707500Y-17515786D01*
X10721786Y-17544357D01*
X10721786Y-17630072D01*
X10707500Y-17658643D01*
X10693214Y-17672929D01*
X10664643Y-17687214D01*
X10621786Y-17687214D01*
X10893214Y-17687214D02*
X10864643Y-17672929D01*
X10850357Y-17644357D01*
X10850357Y-17387214D01*
X11121786Y-17672929D02*
X11093214Y-17687214D01*
X11036071Y-17687214D01*
X11007500Y-17672929D01*
X10993214Y-17644357D01*
X10993214Y-17530072D01*
X11007500Y-17501500D01*
X11036071Y-17487214D01*
X11093214Y-17487214D01*
X11121786Y-17501500D01*
X11136071Y-17530072D01*
X11136071Y-17558643D01*
X10993214Y-17587214D01*
X11250357Y-17672929D02*
X11278928Y-17687214D01*
X11336071Y-17687214D01*
X11364643Y-17672929D01*
X11378928Y-17644357D01*
X11378928Y-17630072D01*
X11364643Y-17601500D01*
X11336071Y-17587214D01*
X11293214Y-17587214D01*
X11264643Y-17572929D01*
X11250357Y-17544357D01*
X11250357Y-17530072D01*
X11264643Y-17501500D01*
X11293214Y-17487214D01*
X11336071Y-17487214D01*
X11364643Y-17501500D01*
X11478928Y-17801500D02*
X11493214Y-17787214D01*
X11521786Y-17744357D01*
X11536071Y-17715786D01*
X11550357Y-17672929D01*
X11564643Y-17601500D01*
X11564643Y-17544357D01*
X11550357Y-17472929D01*
X11536071Y-17430072D01*
X11521786Y-17401500D01*
X11493214Y-17358643D01*
X11478928Y-17344357D01*
X4862500Y-17882500D02*
X4992500Y-18012500D01*
X4992500Y-17882500D02*
X4862500Y-18012500D01*
X4992500Y-17947500D02*
G75*
G03X4992500Y-17947500I-65000J0D01*
G01*
X5436071Y-18083214D02*
X5264643Y-18083214D01*
X5350357Y-18083214D02*
X5350357Y-17783214D01*
X5321786Y-17826072D01*
X5293214Y-17854643D01*
X5264643Y-17868929D01*
X5564643Y-18054643D02*
X5578928Y-18068929D01*
X5564643Y-18083214D01*
X5550357Y-18068929D01*
X5564643Y-18054643D01*
X5564643Y-18083214D01*
X5678928Y-17783214D02*
X5864643Y-17783214D01*
X5764643Y-17897500D01*
X5807500Y-17897500D01*
X5836071Y-17911786D01*
X5850357Y-17926072D01*
X5864643Y-17954643D01*
X5864643Y-18026072D01*
X5850357Y-18054643D01*
X5836071Y-18068929D01*
X5807500Y-18083214D01*
X5721786Y-18083214D01*
X5693214Y-18068929D01*
X5678928Y-18054643D01*
X6050357Y-17783214D02*
X6078928Y-17783214D01*
X6107500Y-17797500D01*
X6121786Y-17811786D01*
X6136071Y-17840357D01*
X6150357Y-17897500D01*
X6150357Y-17968929D01*
X6136071Y-18026072D01*
X6121786Y-18054643D01*
X6107500Y-18068929D01*
X6078928Y-18083214D01*
X6050357Y-18083214D01*
X6021786Y-18068929D01*
X6007500Y-18054643D01*
X5993214Y-18026072D01*
X5978928Y-17968929D01*
X5978928Y-17897500D01*
X5993214Y-17840357D01*
X6007500Y-17811786D01*
X6021786Y-17797500D01*
X6050357Y-17783214D01*
X6278928Y-18083214D02*
X6278928Y-17883214D01*
X6278928Y-17911786D02*
X6293214Y-17897500D01*
X6321786Y-17883214D01*
X6364643Y-17883214D01*
X6393214Y-17897500D01*
X6407500Y-17926072D01*
X6407500Y-18083214D01*
X6407500Y-17926072D02*
X6421786Y-17897500D01*
X6450357Y-17883214D01*
X6493214Y-17883214D01*
X6521786Y-17897500D01*
X6536071Y-17926072D01*
X6536071Y-18083214D01*
X6678928Y-18083214D02*
X6678928Y-17883214D01*
X6678928Y-17911786D02*
X6693214Y-17897500D01*
X6721786Y-17883214D01*
X6764643Y-17883214D01*
X6793214Y-17897500D01*
X6807500Y-17926072D01*
X6807500Y-18083214D01*
X6807500Y-17926072D02*
X6821786Y-17897500D01*
X6850357Y-17883214D01*
X6893214Y-17883214D01*
X6921786Y-17897500D01*
X6936071Y-17926072D01*
X6936071Y-18083214D01*
X7521786Y-17768929D02*
X7264643Y-18154643D01*
X7907500Y-17783214D02*
X7936071Y-17783214D01*
X7964643Y-17797500D01*
X7978928Y-17811786D01*
X7993214Y-17840357D01*
X8007500Y-17897500D01*
X8007500Y-17968929D01*
X7993214Y-18026072D01*
X7978928Y-18054643D01*
X7964643Y-18068929D01*
X7936071Y-18083214D01*
X7907500Y-18083214D01*
X7878928Y-18068929D01*
X7864643Y-18054643D01*
X7850357Y-18026072D01*
X7836071Y-17968929D01*
X7836071Y-17897500D01*
X7850357Y-17840357D01*
X7864643Y-17811786D01*
X7878928Y-17797500D01*
X7907500Y-17783214D01*
X8136071Y-18054643D02*
X8150357Y-18068929D01*
X8136071Y-18083214D01*
X8121786Y-18068929D01*
X8136071Y-18054643D01*
X8136071Y-18083214D01*
X8336071Y-17783214D02*
X8364643Y-17783214D01*
X8393214Y-17797500D01*
X8407500Y-17811786D01*
X8421786Y-17840357D01*
X8436071Y-17897500D01*
X8436071Y-17968929D01*
X8421786Y-18026072D01*
X8407500Y-18054643D01*
X8393214Y-18068929D01*
X8364643Y-18083214D01*
X8336071Y-18083214D01*
X8307500Y-18068929D01*
X8293214Y-18054643D01*
X8278928Y-18026072D01*
X8264643Y-17968929D01*
X8264643Y-17897500D01*
X8278928Y-17840357D01*
X8293214Y-17811786D01*
X8307500Y-17797500D01*
X8336071Y-17783214D01*
X8707500Y-17783214D02*
X8564643Y-17783214D01*
X8550357Y-17926072D01*
X8564643Y-17911786D01*
X8593214Y-17897500D01*
X8664643Y-17897500D01*
X8693214Y-17911786D01*
X8707500Y-17926072D01*
X8721786Y-17954643D01*
X8721786Y-18026072D01*
X8707500Y-18054643D01*
X8693214Y-18068929D01*
X8664643Y-18083214D01*
X8593214Y-18083214D01*
X8564643Y-18068929D01*
X8550357Y-18054643D01*
X9007500Y-18083214D02*
X8836071Y-18083214D01*
X8921786Y-18083214D02*
X8921786Y-17783214D01*
X8893214Y-17826072D01*
X8864643Y-17854643D01*
X8836071Y-17868929D01*
X9121786Y-17783214D02*
X9121786Y-17840357D01*
X9236071Y-17783214D02*
X9236071Y-17840357D01*
X9678928Y-18197500D02*
X9664643Y-18183214D01*
X9636071Y-18140357D01*
X9621786Y-18111786D01*
X9607500Y-18068929D01*
X9593214Y-17997500D01*
X9593214Y-17940357D01*
X9607500Y-17868929D01*
X9621786Y-17826072D01*
X9636071Y-17797500D01*
X9664643Y-17754643D01*
X9678928Y-17740357D01*
X9778928Y-17811786D02*
X9793214Y-17797500D01*
X9821786Y-17783214D01*
X9893214Y-17783214D01*
X9921786Y-17797500D01*
X9936071Y-17811786D01*
X9950357Y-17840357D01*
X9950357Y-17868929D01*
X9936071Y-17911786D01*
X9764643Y-18083214D01*
X9950357Y-18083214D01*
X10307500Y-18083214D02*
X10307500Y-17783214D01*
X10436071Y-18083214D02*
X10436071Y-17926072D01*
X10421786Y-17897500D01*
X10393214Y-17883214D01*
X10350357Y-17883214D01*
X10321786Y-17897500D01*
X10307500Y-17911786D01*
X10621786Y-18083214D02*
X10593214Y-18068929D01*
X10578928Y-18054643D01*
X10564643Y-18026072D01*
X10564643Y-17940357D01*
X10578928Y-17911786D01*
X10593214Y-17897500D01*
X10621786Y-17883214D01*
X10664643Y-17883214D01*
X10693214Y-17897500D01*
X10707500Y-17911786D01*
X10721786Y-17940357D01*
X10721786Y-18026072D01*
X10707500Y-18054643D01*
X10693214Y-18068929D01*
X10664643Y-18083214D01*
X10621786Y-18083214D01*
X10893214Y-18083214D02*
X10864643Y-18068929D01*
X10850357Y-18040357D01*
X10850357Y-17783214D01*
X11121786Y-18068929D02*
X11093214Y-18083214D01*
X11036071Y-18083214D01*
X11007500Y-18068929D01*
X10993214Y-18040357D01*
X10993214Y-17926072D01*
X11007500Y-17897500D01*
X11036071Y-17883214D01*
X11093214Y-17883214D01*
X11121786Y-17897500D01*
X11136071Y-17926072D01*
X11136071Y-17954643D01*
X10993214Y-17983214D01*
X11250357Y-18068929D02*
X11278928Y-18083214D01*
X11336071Y-18083214D01*
X11364643Y-18068929D01*
X11378928Y-18040357D01*
X11378928Y-18026072D01*
X11364643Y-17997500D01*
X11336071Y-17983214D01*
X11293214Y-17983214D01*
X11264643Y-17968929D01*
X11250357Y-17940357D01*
X11250357Y-17926072D01*
X11264643Y-17897500D01*
X11293214Y-17883214D01*
X11336071Y-17883214D01*
X11364643Y-17897500D01*
X11478928Y-18197500D02*
X11493214Y-18183214D01*
X11521786Y-18140357D01*
X11536071Y-18111786D01*
X11550357Y-18068929D01*
X11564643Y-17997500D01*
X11564643Y-17940357D01*
X11550357Y-17868929D01*
X11536071Y-17826072D01*
X11521786Y-17797500D01*
X11493214Y-17754643D01*
X11478928Y-17740357D01*
X4842386Y-18268443D02*
X4992500Y-18418557D01*
X4992500Y-18268443D02*
X4842386Y-18418557D01*
X4917443Y-18268443D02*
X4917443Y-18418557D01*
X4842386Y-18343500D02*
X4992500Y-18343500D01*
X5436071Y-18479214D02*
X5264643Y-18479214D01*
X5350357Y-18479214D02*
X5350357Y-18179214D01*
X5321786Y-18222072D01*
X5293214Y-18250643D01*
X5264643Y-18264929D01*
X5564643Y-18450643D02*
X5578928Y-18464929D01*
X5564643Y-18479214D01*
X5550357Y-18464929D01*
X5564643Y-18450643D01*
X5564643Y-18479214D01*
X5850357Y-18179214D02*
X5707500Y-18179214D01*
X5693214Y-18322072D01*
X5707500Y-18307786D01*
X5736071Y-18293500D01*
X5807500Y-18293500D01*
X5836071Y-18307786D01*
X5850357Y-18322072D01*
X5864643Y-18350643D01*
X5864643Y-18422072D01*
X5850357Y-18450643D01*
X5836071Y-18464929D01*
X5807500Y-18479214D01*
X5736071Y-18479214D01*
X5707500Y-18464929D01*
X5693214Y-18450643D01*
X6050357Y-18179214D02*
X6078928Y-18179214D01*
X6107500Y-18193500D01*
X6121786Y-18207786D01*
X6136071Y-18236357D01*
X6150357Y-18293500D01*
X6150357Y-18364929D01*
X6136071Y-18422072D01*
X6121786Y-18450643D01*
X6107500Y-18464929D01*
X6078928Y-18479214D01*
X6050357Y-18479214D01*
X6021786Y-18464929D01*
X6007500Y-18450643D01*
X5993214Y-18422072D01*
X5978928Y-18364929D01*
X5978928Y-18293500D01*
X5993214Y-18236357D01*
X6007500Y-18207786D01*
X6021786Y-18193500D01*
X6050357Y-18179214D01*
X6278928Y-18479214D02*
X6278928Y-18279214D01*
X6278928Y-18307786D02*
X6293214Y-18293500D01*
X6321786Y-18279214D01*
X6364643Y-18279214D01*
X6393214Y-18293500D01*
X6407500Y-18322072D01*
X6407500Y-18479214D01*
X6407500Y-18322072D02*
X6421786Y-18293500D01*
X6450357Y-18279214D01*
X6493214Y-18279214D01*
X6521786Y-18293500D01*
X6536071Y-18322072D01*
X6536071Y-18479214D01*
X6678928Y-18479214D02*
X6678928Y-18279214D01*
X6678928Y-18307786D02*
X6693214Y-18293500D01*
X6721786Y-18279214D01*
X6764643Y-18279214D01*
X6793214Y-18293500D01*
X6807500Y-18322072D01*
X6807500Y-18479214D01*
X6807500Y-18322072D02*
X6821786Y-18293500D01*
X6850357Y-18279214D01*
X6893214Y-18279214D01*
X6921786Y-18293500D01*
X6936071Y-18322072D01*
X6936071Y-18479214D01*
X7521786Y-18164929D02*
X7264643Y-18550643D01*
X7907500Y-18179214D02*
X7936071Y-18179214D01*
X7964643Y-18193500D01*
X7978928Y-18207786D01*
X7993214Y-18236357D01*
X8007500Y-18293500D01*
X8007500Y-18364929D01*
X7993214Y-18422072D01*
X7978928Y-18450643D01*
X7964643Y-18464929D01*
X7936071Y-18479214D01*
X7907500Y-18479214D01*
X7878928Y-18464929D01*
X7864643Y-18450643D01*
X7850357Y-18422072D01*
X7836071Y-18364929D01*
X7836071Y-18293500D01*
X7850357Y-18236357D01*
X7864643Y-18207786D01*
X7878928Y-18193500D01*
X7907500Y-18179214D01*
X8136071Y-18450643D02*
X8150357Y-18464929D01*
X8136071Y-18479214D01*
X8121786Y-18464929D01*
X8136071Y-18450643D01*
X8136071Y-18479214D01*
X8336071Y-18179214D02*
X8364643Y-18179214D01*
X8393214Y-18193500D01*
X8407500Y-18207786D01*
X8421786Y-18236357D01*
X8436071Y-18293500D01*
X8436071Y-18364929D01*
X8421786Y-18422072D01*
X8407500Y-18450643D01*
X8393214Y-18464929D01*
X8364643Y-18479214D01*
X8336071Y-18479214D01*
X8307500Y-18464929D01*
X8293214Y-18450643D01*
X8278928Y-18422072D01*
X8264643Y-18364929D01*
X8264643Y-18293500D01*
X8278928Y-18236357D01*
X8293214Y-18207786D01*
X8307500Y-18193500D01*
X8336071Y-18179214D01*
X8707500Y-18179214D02*
X8564643Y-18179214D01*
X8550357Y-18322072D01*
X8564643Y-18307786D01*
X8593214Y-18293500D01*
X8664643Y-18293500D01*
X8693214Y-18307786D01*
X8707500Y-18322072D01*
X8721786Y-18350643D01*
X8721786Y-18422072D01*
X8707500Y-18450643D01*
X8693214Y-18464929D01*
X8664643Y-18479214D01*
X8593214Y-18479214D01*
X8564643Y-18464929D01*
X8550357Y-18450643D01*
X8864643Y-18479214D02*
X8921786Y-18479214D01*
X8950357Y-18464929D01*
X8964643Y-18450643D01*
X8993214Y-18407786D01*
X9007500Y-18350643D01*
X9007500Y-18236357D01*
X8993214Y-18207786D01*
X8978928Y-18193500D01*
X8950357Y-18179214D01*
X8893214Y-18179214D01*
X8864643Y-18193500D01*
X8850357Y-18207786D01*
X8836071Y-18236357D01*
X8836071Y-18307786D01*
X8850357Y-18336357D01*
X8864643Y-18350643D01*
X8893214Y-18364929D01*
X8950357Y-18364929D01*
X8978928Y-18350643D01*
X8993214Y-18336357D01*
X9007500Y-18307786D01*
X9121786Y-18179214D02*
X9121786Y-18236357D01*
X9236071Y-18179214D02*
X9236071Y-18236357D01*
X9678928Y-18593500D02*
X9664643Y-18579214D01*
X9636071Y-18536357D01*
X9621786Y-18507786D01*
X9607500Y-18464929D01*
X9593214Y-18393500D01*
X9593214Y-18336357D01*
X9607500Y-18264929D01*
X9621786Y-18222072D01*
X9636071Y-18193500D01*
X9664643Y-18150643D01*
X9678928Y-18136357D01*
X9807500Y-18479214D02*
X9864643Y-18479214D01*
X9893214Y-18464929D01*
X9907500Y-18450643D01*
X9936071Y-18407786D01*
X9950357Y-18350643D01*
X9950357Y-18236357D01*
X9936071Y-18207786D01*
X9921786Y-18193500D01*
X9893214Y-18179214D01*
X9836071Y-18179214D01*
X9807500Y-18193500D01*
X9793214Y-18207786D01*
X9778928Y-18236357D01*
X9778928Y-18307786D01*
X9793214Y-18336357D01*
X9807500Y-18350643D01*
X9836071Y-18364929D01*
X9893214Y-18364929D01*
X9921786Y-18350643D01*
X9936071Y-18336357D01*
X9950357Y-18307786D01*
X10307500Y-18479214D02*
X10307500Y-18179214D01*
X10436071Y-18479214D02*
X10436071Y-18322072D01*
X10421786Y-18293500D01*
X10393214Y-18279214D01*
X10350357Y-18279214D01*
X10321786Y-18293500D01*
X10307500Y-18307786D01*
X10621786Y-18479214D02*
X10593214Y-18464929D01*
X10578928Y-18450643D01*
X10564643Y-18422072D01*
X10564643Y-18336357D01*
X10578928Y-18307786D01*
X10593214Y-18293500D01*
X10621786Y-18279214D01*
X10664643Y-18279214D01*
X10693214Y-18293500D01*
X10707500Y-18307786D01*
X10721786Y-18336357D01*
X10721786Y-18422072D01*
X10707500Y-18450643D01*
X10693214Y-18464929D01*
X10664643Y-18479214D01*
X10621786Y-18479214D01*
X10893214Y-18479214D02*
X10864643Y-18464929D01*
X10850357Y-18436357D01*
X10850357Y-18179214D01*
X11121786Y-18464929D02*
X11093214Y-18479214D01*
X11036071Y-18479214D01*
X11007500Y-18464929D01*
X10993214Y-18436357D01*
X10993214Y-18322072D01*
X11007500Y-18293500D01*
X11036071Y-18279214D01*
X11093214Y-18279214D01*
X11121786Y-18293500D01*
X11136071Y-18322072D01*
X11136071Y-18350643D01*
X10993214Y-18379214D01*
X11250357Y-18464929D02*
X11278928Y-18479214D01*
X11336071Y-18479214D01*
X11364643Y-18464929D01*
X11378928Y-18436357D01*
X11378928Y-18422072D01*
X11364643Y-18393500D01*
X11336071Y-18379214D01*
X11293214Y-18379214D01*
X11264643Y-18364929D01*
X11250357Y-18336357D01*
X11250357Y-18322072D01*
X11264643Y-18293500D01*
X11293214Y-18279214D01*
X11336071Y-18279214D01*
X11364643Y-18293500D01*
X11478928Y-18593500D02*
X11493214Y-18579214D01*
X11521786Y-18536357D01*
X11536071Y-18507786D01*
X11550357Y-18464929D01*
X11564643Y-18393500D01*
X11564643Y-18336357D01*
X11550357Y-18264929D01*
X11536071Y-18222072D01*
X11521786Y-18193500D01*
X11493214Y-18150643D01*
X11478928Y-18136357D01*
X4664840Y-18575670D02*
X4992500Y-18903330D01*
X4992500Y-18575670D02*
X4664840Y-18903330D01*
X4944516Y-18855347D02*
X4944516Y-18623654D01*
X4712824Y-18623654D01*
X4712824Y-18855347D01*
X4944516Y-18855347D01*
X5250357Y-18575214D02*
X5436071Y-18575214D01*
X5336071Y-18689500D01*
X5378928Y-18689500D01*
X5407500Y-18703786D01*
X5421786Y-18718072D01*
X5436071Y-18746643D01*
X5436071Y-18818072D01*
X5421786Y-18846643D01*
X5407500Y-18860929D01*
X5378928Y-18875214D01*
X5293214Y-18875214D01*
X5264643Y-18860929D01*
X5250357Y-18846643D01*
X5564643Y-18846643D02*
X5578928Y-18860929D01*
X5564643Y-18875214D01*
X5550357Y-18860929D01*
X5564643Y-18846643D01*
X5564643Y-18875214D01*
X5693214Y-18603786D02*
X5707500Y-18589500D01*
X5736071Y-18575214D01*
X5807500Y-18575214D01*
X5836071Y-18589500D01*
X5850357Y-18603786D01*
X5864643Y-18632357D01*
X5864643Y-18660929D01*
X5850357Y-18703786D01*
X5678928Y-18875214D01*
X5864643Y-18875214D01*
X6036071Y-18703786D02*
X6007500Y-18689500D01*
X5993214Y-18675214D01*
X5978928Y-18646643D01*
X5978928Y-18632357D01*
X5993214Y-18603786D01*
X6007500Y-18589500D01*
X6036071Y-18575214D01*
X6093214Y-18575214D01*
X6121786Y-18589500D01*
X6136071Y-18603786D01*
X6150357Y-18632357D01*
X6150357Y-18646643D01*
X6136071Y-18675214D01*
X6121786Y-18689500D01*
X6093214Y-18703786D01*
X6036071Y-18703786D01*
X6007500Y-18718072D01*
X5993214Y-18732357D01*
X5978928Y-18760929D01*
X5978928Y-18818072D01*
X5993214Y-18846643D01*
X6007500Y-18860929D01*
X6036071Y-18875214D01*
X6093214Y-18875214D01*
X6121786Y-18860929D01*
X6136071Y-18846643D01*
X6150357Y-18818072D01*
X6150357Y-18760929D01*
X6136071Y-18732357D01*
X6121786Y-18718072D01*
X6093214Y-18703786D01*
X6278928Y-18875214D02*
X6278928Y-18675214D01*
X6278928Y-18703786D02*
X6293214Y-18689500D01*
X6321786Y-18675214D01*
X6364643Y-18675214D01*
X6393214Y-18689500D01*
X6407500Y-18718072D01*
X6407500Y-18875214D01*
X6407500Y-18718072D02*
X6421786Y-18689500D01*
X6450357Y-18675214D01*
X6493214Y-18675214D01*
X6521786Y-18689500D01*
X6536071Y-18718072D01*
X6536071Y-18875214D01*
X6678928Y-18875214D02*
X6678928Y-18675214D01*
X6678928Y-18703786D02*
X6693214Y-18689500D01*
X6721786Y-18675214D01*
X6764643Y-18675214D01*
X6793214Y-18689500D01*
X6807500Y-18718072D01*
X6807500Y-18875214D01*
X6807500Y-18718072D02*
X6821786Y-18689500D01*
X6850357Y-18675214D01*
X6893214Y-18675214D01*
X6921786Y-18689500D01*
X6936071Y-18718072D01*
X6936071Y-18875214D01*
X7521786Y-18560929D02*
X7264643Y-18946643D01*
X7907500Y-18575214D02*
X7936071Y-18575214D01*
X7964643Y-18589500D01*
X7978928Y-18603786D01*
X7993214Y-18632357D01*
X8007500Y-18689500D01*
X8007500Y-18760929D01*
X7993214Y-18818072D01*
X7978928Y-18846643D01*
X7964643Y-18860929D01*
X7936071Y-18875214D01*
X7907500Y-18875214D01*
X7878928Y-18860929D01*
X7864643Y-18846643D01*
X7850357Y-18818072D01*
X7836071Y-18760929D01*
X7836071Y-18689500D01*
X7850357Y-18632357D01*
X7864643Y-18603786D01*
X7878928Y-18589500D01*
X7907500Y-18575214D01*
X8136071Y-18846643D02*
X8150357Y-18860929D01*
X8136071Y-18875214D01*
X8121786Y-18860929D01*
X8136071Y-18846643D01*
X8136071Y-18875214D01*
X8436071Y-18875214D02*
X8264643Y-18875214D01*
X8350357Y-18875214D02*
X8350357Y-18575214D01*
X8321786Y-18618072D01*
X8293214Y-18646643D01*
X8264643Y-18660929D01*
X8550357Y-18603786D02*
X8564643Y-18589500D01*
X8593214Y-18575214D01*
X8664643Y-18575214D01*
X8693214Y-18589500D01*
X8707500Y-18603786D01*
X8721786Y-18632357D01*
X8721786Y-18660929D01*
X8707500Y-18703786D01*
X8536071Y-18875214D01*
X8721786Y-18875214D01*
X8864643Y-18875214D02*
X8921786Y-18875214D01*
X8950357Y-18860929D01*
X8964643Y-18846643D01*
X8993214Y-18803786D01*
X9007500Y-18746643D01*
X9007500Y-18632357D01*
X8993214Y-18603786D01*
X8978928Y-18589500D01*
X8950357Y-18575214D01*
X8893214Y-18575214D01*
X8864643Y-18589500D01*
X8850357Y-18603786D01*
X8836071Y-18632357D01*
X8836071Y-18703786D01*
X8850357Y-18732357D01*
X8864643Y-18746643D01*
X8893214Y-18760929D01*
X8950357Y-18760929D01*
X8978928Y-18746643D01*
X8993214Y-18732357D01*
X9007500Y-18703786D01*
X9121786Y-18575214D02*
X9121786Y-18632357D01*
X9236071Y-18575214D02*
X9236071Y-18632357D01*
X9678928Y-18989500D02*
X9664643Y-18975214D01*
X9636071Y-18932357D01*
X9621786Y-18903786D01*
X9607500Y-18860929D01*
X9593214Y-18789500D01*
X9593214Y-18732357D01*
X9607500Y-18660929D01*
X9621786Y-18618072D01*
X9636071Y-18589500D01*
X9664643Y-18546643D01*
X9678928Y-18532357D01*
X9921786Y-18675214D02*
X9921786Y-18875214D01*
X9850357Y-18560929D02*
X9778928Y-18775214D01*
X9964643Y-18775214D01*
X10307500Y-18875214D02*
X10307500Y-18575214D01*
X10436071Y-18875214D02*
X10436071Y-18718072D01*
X10421786Y-18689500D01*
X10393214Y-18675214D01*
X10350357Y-18675214D01*
X10321786Y-18689500D01*
X10307500Y-18703786D01*
X10621786Y-18875214D02*
X10593214Y-18860929D01*
X10578928Y-18846643D01*
X10564643Y-18818072D01*
X10564643Y-18732357D01*
X10578928Y-18703786D01*
X10593214Y-18689500D01*
X10621786Y-18675214D01*
X10664643Y-18675214D01*
X10693214Y-18689500D01*
X10707500Y-18703786D01*
X10721786Y-18732357D01*
X10721786Y-18818072D01*
X10707500Y-18846643D01*
X10693214Y-18860929D01*
X10664643Y-18875214D01*
X10621786Y-18875214D01*
X10893214Y-18875214D02*
X10864643Y-18860929D01*
X10850357Y-18832357D01*
X10850357Y-18575214D01*
X11121786Y-18860929D02*
X11093214Y-18875214D01*
X11036071Y-18875214D01*
X11007500Y-18860929D01*
X10993214Y-18832357D01*
X10993214Y-18718072D01*
X11007500Y-18689500D01*
X11036071Y-18675214D01*
X11093214Y-18675214D01*
X11121786Y-18689500D01*
X11136071Y-18718072D01*
X11136071Y-18746643D01*
X10993214Y-18775214D01*
X11250357Y-18860929D02*
X11278928Y-18875214D01*
X11336071Y-18875214D01*
X11364643Y-18860929D01*
X11378928Y-18832357D01*
X11378928Y-18818072D01*
X11364643Y-18789500D01*
X11336071Y-18775214D01*
X11293214Y-18775214D01*
X11264643Y-18760929D01*
X11250357Y-18732357D01*
X11250357Y-18718072D01*
X11264643Y-18689500D01*
X11293214Y-18675214D01*
X11336071Y-18675214D01*
X11364643Y-18689500D01*
X11478928Y-18989500D02*
X11493214Y-18975214D01*
X11521786Y-18932357D01*
X11536071Y-18903786D01*
X11550357Y-18860929D01*
X11564643Y-18789500D01*
X11564643Y-18732357D01*
X11550357Y-18660929D01*
X11536071Y-18618072D01*
X11521786Y-18589500D01*
X11493214Y-18546643D01*
X11478928Y-18532357D01*
X4662300Y-19032060D02*
X4992500Y-19362260D01*
X4992500Y-19032060D02*
X4662300Y-19362260D01*
X4827400Y-19362260D02*
X4992500Y-19197160D01*
X4827400Y-19032060D01*
X4662300Y-19197160D01*
X4827400Y-19362260D01*
X5250357Y-19032874D02*
X5436071Y-19032874D01*
X5336071Y-19147160D01*
X5378928Y-19147160D01*
X5407500Y-19161446D01*
X5421786Y-19175732D01*
X5436071Y-19204303D01*
X5436071Y-19275732D01*
X5421786Y-19304303D01*
X5407500Y-19318589D01*
X5378928Y-19332874D01*
X5293214Y-19332874D01*
X5264643Y-19318589D01*
X5250357Y-19304303D01*
X5564643Y-19304303D02*
X5578928Y-19318589D01*
X5564643Y-19332874D01*
X5550357Y-19318589D01*
X5564643Y-19304303D01*
X5564643Y-19332874D01*
X5678928Y-19032874D02*
X5864643Y-19032874D01*
X5764643Y-19147160D01*
X5807500Y-19147160D01*
X5836071Y-19161446D01*
X5850357Y-19175732D01*
X5864643Y-19204303D01*
X5864643Y-19275732D01*
X5850357Y-19304303D01*
X5836071Y-19318589D01*
X5807500Y-19332874D01*
X5721786Y-19332874D01*
X5693214Y-19318589D01*
X5678928Y-19304303D01*
X6050357Y-19032874D02*
X6078928Y-19032874D01*
X6107500Y-19047160D01*
X6121786Y-19061446D01*
X6136071Y-19090017D01*
X6150357Y-19147160D01*
X6150357Y-19218589D01*
X6136071Y-19275732D01*
X6121786Y-19304303D01*
X6107500Y-19318589D01*
X6078928Y-19332874D01*
X6050357Y-19332874D01*
X6021786Y-19318589D01*
X6007500Y-19304303D01*
X5993214Y-19275732D01*
X5978928Y-19218589D01*
X5978928Y-19147160D01*
X5993214Y-19090017D01*
X6007500Y-19061446D01*
X6021786Y-19047160D01*
X6050357Y-19032874D01*
X6278928Y-19332874D02*
X6278928Y-19132874D01*
X6278928Y-19161446D02*
X6293214Y-19147160D01*
X6321786Y-19132874D01*
X6364643Y-19132874D01*
X6393214Y-19147160D01*
X6407500Y-19175732D01*
X6407500Y-19332874D01*
X6407500Y-19175732D02*
X6421786Y-19147160D01*
X6450357Y-19132874D01*
X6493214Y-19132874D01*
X6521786Y-19147160D01*
X6536071Y-19175732D01*
X6536071Y-19332874D01*
X6678928Y-19332874D02*
X6678928Y-19132874D01*
X6678928Y-19161446D02*
X6693214Y-19147160D01*
X6721786Y-19132874D01*
X6764643Y-19132874D01*
X6793214Y-19147160D01*
X6807500Y-19175732D01*
X6807500Y-19332874D01*
X6807500Y-19175732D02*
X6821786Y-19147160D01*
X6850357Y-19132874D01*
X6893214Y-19132874D01*
X6921786Y-19147160D01*
X6936071Y-19175732D01*
X6936071Y-19332874D01*
X7521786Y-19018589D02*
X7264643Y-19404303D01*
X7907500Y-19032874D02*
X7936071Y-19032874D01*
X7964643Y-19047160D01*
X7978928Y-19061446D01*
X7993214Y-19090017D01*
X8007500Y-19147160D01*
X8007500Y-19218589D01*
X7993214Y-19275732D01*
X7978928Y-19304303D01*
X7964643Y-19318589D01*
X7936071Y-19332874D01*
X7907500Y-19332874D01*
X7878928Y-19318589D01*
X7864643Y-19304303D01*
X7850357Y-19275732D01*
X7836071Y-19218589D01*
X7836071Y-19147160D01*
X7850357Y-19090017D01*
X7864643Y-19061446D01*
X7878928Y-19047160D01*
X7907500Y-19032874D01*
X8136071Y-19304303D02*
X8150357Y-19318589D01*
X8136071Y-19332874D01*
X8121786Y-19318589D01*
X8136071Y-19304303D01*
X8136071Y-19332874D01*
X8436071Y-19332874D02*
X8264643Y-19332874D01*
X8350357Y-19332874D02*
X8350357Y-19032874D01*
X8321786Y-19075732D01*
X8293214Y-19104303D01*
X8264643Y-19118589D01*
X8536071Y-19032874D02*
X8721786Y-19032874D01*
X8621786Y-19147160D01*
X8664643Y-19147160D01*
X8693214Y-19161446D01*
X8707500Y-19175732D01*
X8721786Y-19204303D01*
X8721786Y-19275732D01*
X8707500Y-19304303D01*
X8693214Y-19318589D01*
X8664643Y-19332874D01*
X8578928Y-19332874D01*
X8550357Y-19318589D01*
X8536071Y-19304303D01*
X8907500Y-19032874D02*
X8936071Y-19032874D01*
X8964643Y-19047160D01*
X8978928Y-19061446D01*
X8993214Y-19090017D01*
X9007500Y-19147160D01*
X9007500Y-19218589D01*
X8993214Y-19275732D01*
X8978928Y-19304303D01*
X8964643Y-19318589D01*
X8936071Y-19332874D01*
X8907500Y-19332874D01*
X8878928Y-19318589D01*
X8864643Y-19304303D01*
X8850357Y-19275732D01*
X8836071Y-19218589D01*
X8836071Y-19147160D01*
X8850357Y-19090017D01*
X8864643Y-19061446D01*
X8878928Y-19047160D01*
X8907500Y-19032874D01*
X9121786Y-19032874D02*
X9121786Y-19090017D01*
X9236071Y-19032874D02*
X9236071Y-19090017D01*
X9678928Y-19447160D02*
X9664643Y-19432874D01*
X9636071Y-19390017D01*
X9621786Y-19361446D01*
X9607500Y-19318589D01*
X9593214Y-19247160D01*
X9593214Y-19190017D01*
X9607500Y-19118589D01*
X9621786Y-19075732D01*
X9636071Y-19047160D01*
X9664643Y-19004303D01*
X9678928Y-18990017D01*
X9921786Y-19032874D02*
X9864643Y-19032874D01*
X9836071Y-19047160D01*
X9821786Y-19061446D01*
X9793214Y-19104303D01*
X9778928Y-19161446D01*
X9778928Y-19275732D01*
X9793214Y-19304303D01*
X9807500Y-19318589D01*
X9836071Y-19332874D01*
X9893214Y-19332874D01*
X9921786Y-19318589D01*
X9936071Y-19304303D01*
X9950357Y-19275732D01*
X9950357Y-19204303D01*
X9936071Y-19175732D01*
X9921786Y-19161446D01*
X9893214Y-19147160D01*
X9836071Y-19147160D01*
X9807500Y-19161446D01*
X9793214Y-19175732D01*
X9778928Y-19204303D01*
X10307500Y-19332874D02*
X10307500Y-19032874D01*
X10436071Y-19332874D02*
X10436071Y-19175732D01*
X10421786Y-19147160D01*
X10393214Y-19132874D01*
X10350357Y-19132874D01*
X10321786Y-19147160D01*
X10307500Y-19161446D01*
X10621786Y-19332874D02*
X10593214Y-19318589D01*
X10578928Y-19304303D01*
X10564643Y-19275732D01*
X10564643Y-19190017D01*
X10578928Y-19161446D01*
X10593214Y-19147160D01*
X10621786Y-19132874D01*
X10664643Y-19132874D01*
X10693214Y-19147160D01*
X10707500Y-19161446D01*
X10721786Y-19190017D01*
X10721786Y-19275732D01*
X10707500Y-19304303D01*
X10693214Y-19318589D01*
X10664643Y-19332874D01*
X10621786Y-19332874D01*
X10893214Y-19332874D02*
X10864643Y-19318589D01*
X10850357Y-19290017D01*
X10850357Y-19032874D01*
X11121786Y-19318589D02*
X11093214Y-19332874D01*
X11036071Y-19332874D01*
X11007500Y-19318589D01*
X10993214Y-19290017D01*
X10993214Y-19175732D01*
X11007500Y-19147160D01*
X11036071Y-19132874D01*
X11093214Y-19132874D01*
X11121786Y-19147160D01*
X11136071Y-19175732D01*
X11136071Y-19204303D01*
X10993214Y-19232874D01*
X11250357Y-19318589D02*
X11278928Y-19332874D01*
X11336071Y-19332874D01*
X11364643Y-19318589D01*
X11378928Y-19290017D01*
X11378928Y-19275732D01*
X11364643Y-19247160D01*
X11336071Y-19232874D01*
X11293214Y-19232874D01*
X11264643Y-19218589D01*
X11250357Y-19190017D01*
X11250357Y-19175732D01*
X11264643Y-19147160D01*
X11293214Y-19132874D01*
X11336071Y-19132874D01*
X11364643Y-19147160D01*
X11478928Y-19447160D02*
X11493214Y-19432874D01*
X11521786Y-19390017D01*
X11536071Y-19361446D01*
X11550357Y-19318589D01*
X11564643Y-19247160D01*
X11564643Y-19190017D01*
X11550357Y-19118589D01*
X11536071Y-19075732D01*
X11521786Y-19047160D01*
X11493214Y-19004303D01*
X11478928Y-18990017D01*
X4725800Y-19390660D02*
X4725800Y-19924060D01*
X4459100Y-19657360D02*
X4992500Y-19657360D01*
X4992500Y-19657360D02*
G75*
G03X4992500Y-19657360I-266700J0D01*
G01*
X5421786Y-19493074D02*
X5278928Y-19493074D01*
X5264643Y-19635932D01*
X5278928Y-19621646D01*
X5307500Y-19607360D01*
X5378928Y-19607360D01*
X5407500Y-19621646D01*
X5421786Y-19635932D01*
X5436071Y-19664503D01*
X5436071Y-19735932D01*
X5421786Y-19764503D01*
X5407500Y-19778789D01*
X5378928Y-19793074D01*
X5307500Y-19793074D01*
X5278928Y-19778789D01*
X5264643Y-19764503D01*
X5564643Y-19764503D02*
X5578928Y-19778789D01*
X5564643Y-19793074D01*
X5550357Y-19778789D01*
X5564643Y-19764503D01*
X5564643Y-19793074D01*
X5678928Y-19493074D02*
X5864643Y-19493074D01*
X5764643Y-19607360D01*
X5807500Y-19607360D01*
X5836071Y-19621646D01*
X5850357Y-19635932D01*
X5864643Y-19664503D01*
X5864643Y-19735932D01*
X5850357Y-19764503D01*
X5836071Y-19778789D01*
X5807500Y-19793074D01*
X5721786Y-19793074D01*
X5693214Y-19778789D01*
X5678928Y-19764503D01*
X5964643Y-19493074D02*
X6150357Y-19493074D01*
X6050357Y-19607360D01*
X6093214Y-19607360D01*
X6121786Y-19621646D01*
X6136071Y-19635932D01*
X6150357Y-19664503D01*
X6150357Y-19735932D01*
X6136071Y-19764503D01*
X6121786Y-19778789D01*
X6093214Y-19793074D01*
X6007500Y-19793074D01*
X5978928Y-19778789D01*
X5964643Y-19764503D01*
X6278928Y-19793074D02*
X6278928Y-19593074D01*
X6278928Y-19621646D02*
X6293214Y-19607360D01*
X6321786Y-19593074D01*
X6364643Y-19593074D01*
X6393214Y-19607360D01*
X6407500Y-19635932D01*
X6407500Y-19793074D01*
X6407500Y-19635932D02*
X6421786Y-19607360D01*
X6450357Y-19593074D01*
X6493214Y-19593074D01*
X6521786Y-19607360D01*
X6536071Y-19635932D01*
X6536071Y-19793074D01*
X6678928Y-19793074D02*
X6678928Y-19593074D01*
X6678928Y-19621646D02*
X6693214Y-19607360D01*
X6721786Y-19593074D01*
X6764643Y-19593074D01*
X6793214Y-19607360D01*
X6807500Y-19635932D01*
X6807500Y-19793074D01*
X6807500Y-19635932D02*
X6821786Y-19607360D01*
X6850357Y-19593074D01*
X6893214Y-19593074D01*
X6921786Y-19607360D01*
X6936071Y-19635932D01*
X6936071Y-19793074D01*
X7521786Y-19478789D02*
X7264643Y-19864503D01*
X7907500Y-19493074D02*
X7936071Y-19493074D01*
X7964643Y-19507360D01*
X7978928Y-19521646D01*
X7993214Y-19550217D01*
X8007500Y-19607360D01*
X8007500Y-19678789D01*
X7993214Y-19735932D01*
X7978928Y-19764503D01*
X7964643Y-19778789D01*
X7936071Y-19793074D01*
X7907500Y-19793074D01*
X7878928Y-19778789D01*
X7864643Y-19764503D01*
X7850357Y-19735932D01*
X7836071Y-19678789D01*
X7836071Y-19607360D01*
X7850357Y-19550217D01*
X7864643Y-19521646D01*
X7878928Y-19507360D01*
X7907500Y-19493074D01*
X8136071Y-19764503D02*
X8150357Y-19778789D01*
X8136071Y-19793074D01*
X8121786Y-19778789D01*
X8136071Y-19764503D01*
X8136071Y-19793074D01*
X8264643Y-19521646D02*
X8278928Y-19507360D01*
X8307500Y-19493074D01*
X8378928Y-19493074D01*
X8407500Y-19507360D01*
X8421786Y-19521646D01*
X8436071Y-19550217D01*
X8436071Y-19578789D01*
X8421786Y-19621646D01*
X8250357Y-19793074D01*
X8436071Y-19793074D01*
X8721786Y-19793074D02*
X8550357Y-19793074D01*
X8636071Y-19793074D02*
X8636071Y-19493074D01*
X8607500Y-19535932D01*
X8578928Y-19564503D01*
X8550357Y-19578789D01*
X8907500Y-19493074D02*
X8936071Y-19493074D01*
X8964643Y-19507360D01*
X8978928Y-19521646D01*
X8993214Y-19550217D01*
X9007500Y-19607360D01*
X9007500Y-19678789D01*
X8993214Y-19735932D01*
X8978928Y-19764503D01*
X8964643Y-19778789D01*
X8936071Y-19793074D01*
X8907500Y-19793074D01*
X8878928Y-19778789D01*
X8864643Y-19764503D01*
X8850357Y-19735932D01*
X8836071Y-19678789D01*
X8836071Y-19607360D01*
X8850357Y-19550217D01*
X8864643Y-19521646D01*
X8878928Y-19507360D01*
X8907500Y-19493074D01*
X9121786Y-19493074D02*
X9121786Y-19550217D01*
X9236071Y-19493074D02*
X9236071Y-19550217D01*
X9678928Y-19907360D02*
X9664643Y-19893074D01*
X9636071Y-19850217D01*
X9621786Y-19821646D01*
X9607500Y-19778789D01*
X9593214Y-19707360D01*
X9593214Y-19650217D01*
X9607500Y-19578789D01*
X9621786Y-19535932D01*
X9636071Y-19507360D01*
X9664643Y-19464503D01*
X9678928Y-19450217D01*
X9778928Y-19521646D02*
X9793214Y-19507360D01*
X9821786Y-19493074D01*
X9893214Y-19493074D01*
X9921786Y-19507360D01*
X9936071Y-19521646D01*
X9950357Y-19550217D01*
X9950357Y-19578789D01*
X9936071Y-19621646D01*
X9764643Y-19793074D01*
X9950357Y-19793074D01*
X10307500Y-19793074D02*
X10307500Y-19493074D01*
X10436071Y-19793074D02*
X10436071Y-19635932D01*
X10421786Y-19607360D01*
X10393214Y-19593074D01*
X10350357Y-19593074D01*
X10321786Y-19607360D01*
X10307500Y-19621646D01*
X10621786Y-19793074D02*
X10593214Y-19778789D01*
X10578928Y-19764503D01*
X10564643Y-19735932D01*
X10564643Y-19650217D01*
X10578928Y-19621646D01*
X10593214Y-19607360D01*
X10621786Y-19593074D01*
X10664643Y-19593074D01*
X10693214Y-19607360D01*
X10707500Y-19621646D01*
X10721786Y-19650217D01*
X10721786Y-19735932D01*
X10707500Y-19764503D01*
X10693214Y-19778789D01*
X10664643Y-19793074D01*
X10621786Y-19793074D01*
X10893214Y-19793074D02*
X10864643Y-19778789D01*
X10850357Y-19750217D01*
X10850357Y-19493074D01*
X11121786Y-19778789D02*
X11093214Y-19793074D01*
X11036071Y-19793074D01*
X11007500Y-19778789D01*
X10993214Y-19750217D01*
X10993214Y-19635932D01*
X11007500Y-19607360D01*
X11036071Y-19593074D01*
X11093214Y-19593074D01*
X11121786Y-19607360D01*
X11136071Y-19635932D01*
X11136071Y-19664503D01*
X10993214Y-19693074D01*
X11250357Y-19778789D02*
X11278928Y-19793074D01*
X11336071Y-19793074D01*
X11364643Y-19778789D01*
X11378928Y-19750217D01*
X11378928Y-19735932D01*
X11364643Y-19707360D01*
X11336071Y-19693074D01*
X11293214Y-19693074D01*
X11264643Y-19678789D01*
X11250357Y-19650217D01*
X11250357Y-19635932D01*
X11264643Y-19607360D01*
X11293214Y-19593074D01*
X11336071Y-19593074D01*
X11364643Y-19607360D01*
X11478928Y-19907360D02*
X11493214Y-19893074D01*
X11521786Y-19850217D01*
X11536071Y-19821646D01*
X11550357Y-19778789D01*
X11564643Y-19707360D01*
X11564643Y-19650217D01*
X11550357Y-19578789D01*
X11536071Y-19535932D01*
X11521786Y-19507360D01*
X11493214Y-19464503D01*
X11478928Y-19450217D01*
X4897312Y-20550572D02*
X4897312Y-20090948D01*
X4437688Y-20090948D01*
X4437688Y-20550572D01*
X4897312Y-20550572D01*
X4992500Y-20320760D02*
G75*
G03X4992500Y-20320760I-325000J0D01*
G01*
X5407500Y-20156474D02*
X5350357Y-20156474D01*
X5321786Y-20170760D01*
X5307500Y-20185046D01*
X5278928Y-20227903D01*
X5264643Y-20285046D01*
X5264643Y-20399332D01*
X5278928Y-20427903D01*
X5293214Y-20442189D01*
X5321786Y-20456474D01*
X5378928Y-20456474D01*
X5407500Y-20442189D01*
X5421786Y-20427903D01*
X5436071Y-20399332D01*
X5436071Y-20327903D01*
X5421786Y-20299332D01*
X5407500Y-20285046D01*
X5378928Y-20270760D01*
X5321786Y-20270760D01*
X5293214Y-20285046D01*
X5278928Y-20299332D01*
X5264643Y-20327903D01*
X5564643Y-20427903D02*
X5578928Y-20442189D01*
X5564643Y-20456474D01*
X5550357Y-20442189D01*
X5564643Y-20427903D01*
X5564643Y-20456474D01*
X5850357Y-20156474D02*
X5707500Y-20156474D01*
X5693214Y-20299332D01*
X5707500Y-20285046D01*
X5736071Y-20270760D01*
X5807500Y-20270760D01*
X5836071Y-20285046D01*
X5850357Y-20299332D01*
X5864643Y-20327903D01*
X5864643Y-20399332D01*
X5850357Y-20427903D01*
X5836071Y-20442189D01*
X5807500Y-20456474D01*
X5736071Y-20456474D01*
X5707500Y-20442189D01*
X5693214Y-20427903D01*
X6050357Y-20156474D02*
X6078928Y-20156474D01*
X6107500Y-20170760D01*
X6121786Y-20185046D01*
X6136071Y-20213617D01*
X6150357Y-20270760D01*
X6150357Y-20342189D01*
X6136071Y-20399332D01*
X6121786Y-20427903D01*
X6107500Y-20442189D01*
X6078928Y-20456474D01*
X6050357Y-20456474D01*
X6021786Y-20442189D01*
X6007500Y-20427903D01*
X5993214Y-20399332D01*
X5978928Y-20342189D01*
X5978928Y-20270760D01*
X5993214Y-20213617D01*
X6007500Y-20185046D01*
X6021786Y-20170760D01*
X6050357Y-20156474D01*
X6278928Y-20456474D02*
X6278928Y-20256474D01*
X6278928Y-20285046D02*
X6293214Y-20270760D01*
X6321786Y-20256474D01*
X6364643Y-20256474D01*
X6393214Y-20270760D01*
X6407500Y-20299332D01*
X6407500Y-20456474D01*
X6407500Y-20299332D02*
X6421786Y-20270760D01*
X6450357Y-20256474D01*
X6493214Y-20256474D01*
X6521786Y-20270760D01*
X6536071Y-20299332D01*
X6536071Y-20456474D01*
X6678928Y-20456474D02*
X6678928Y-20256474D01*
X6678928Y-20285046D02*
X6693214Y-20270760D01*
X6721786Y-20256474D01*
X6764643Y-20256474D01*
X6793214Y-20270760D01*
X6807500Y-20299332D01*
X6807500Y-20456474D01*
X6807500Y-20299332D02*
X6821786Y-20270760D01*
X6850357Y-20256474D01*
X6893214Y-20256474D01*
X6921786Y-20270760D01*
X6936071Y-20299332D01*
X6936071Y-20456474D01*
X7521786Y-20142189D02*
X7264643Y-20527903D01*
X7907500Y-20156474D02*
X7936071Y-20156474D01*
X7964643Y-20170760D01*
X7978928Y-20185046D01*
X7993214Y-20213617D01*
X8007500Y-20270760D01*
X8007500Y-20342189D01*
X7993214Y-20399332D01*
X7978928Y-20427903D01*
X7964643Y-20442189D01*
X7936071Y-20456474D01*
X7907500Y-20456474D01*
X7878928Y-20442189D01*
X7864643Y-20427903D01*
X7850357Y-20399332D01*
X7836071Y-20342189D01*
X7836071Y-20270760D01*
X7850357Y-20213617D01*
X7864643Y-20185046D01*
X7878928Y-20170760D01*
X7907500Y-20156474D01*
X8136071Y-20427903D02*
X8150357Y-20442189D01*
X8136071Y-20456474D01*
X8121786Y-20442189D01*
X8136071Y-20427903D01*
X8136071Y-20456474D01*
X8264643Y-20185046D02*
X8278928Y-20170760D01*
X8307500Y-20156474D01*
X8378928Y-20156474D01*
X8407500Y-20170760D01*
X8421786Y-20185046D01*
X8436071Y-20213617D01*
X8436071Y-20242189D01*
X8421786Y-20285046D01*
X8250357Y-20456474D01*
X8436071Y-20456474D01*
X8707500Y-20156474D02*
X8564643Y-20156474D01*
X8550357Y-20299332D01*
X8564643Y-20285046D01*
X8593214Y-20270760D01*
X8664643Y-20270760D01*
X8693214Y-20285046D01*
X8707500Y-20299332D01*
X8721786Y-20327903D01*
X8721786Y-20399332D01*
X8707500Y-20427903D01*
X8693214Y-20442189D01*
X8664643Y-20456474D01*
X8593214Y-20456474D01*
X8564643Y-20442189D01*
X8550357Y-20427903D01*
X8978928Y-20156474D02*
X8921786Y-20156474D01*
X8893214Y-20170760D01*
X8878928Y-20185046D01*
X8850357Y-20227903D01*
X8836071Y-20285046D01*
X8836071Y-20399332D01*
X8850357Y-20427903D01*
X8864643Y-20442189D01*
X8893214Y-20456474D01*
X8950357Y-20456474D01*
X8978928Y-20442189D01*
X8993214Y-20427903D01*
X9007500Y-20399332D01*
X9007500Y-20327903D01*
X8993214Y-20299332D01*
X8978928Y-20285046D01*
X8950357Y-20270760D01*
X8893214Y-20270760D01*
X8864643Y-20285046D01*
X8850357Y-20299332D01*
X8836071Y-20327903D01*
X9121786Y-20156474D02*
X9121786Y-20213617D01*
X9236071Y-20156474D02*
X9236071Y-20213617D01*
X9678928Y-20570760D02*
X9664643Y-20556474D01*
X9636071Y-20513617D01*
X9621786Y-20485046D01*
X9607500Y-20442189D01*
X9593214Y-20370760D01*
X9593214Y-20313617D01*
X9607500Y-20242189D01*
X9621786Y-20199332D01*
X9636071Y-20170760D01*
X9664643Y-20127903D01*
X9678928Y-20113617D01*
X9778928Y-20185046D02*
X9793214Y-20170760D01*
X9821786Y-20156474D01*
X9893214Y-20156474D01*
X9921786Y-20170760D01*
X9936071Y-20185046D01*
X9950357Y-20213617D01*
X9950357Y-20242189D01*
X9936071Y-20285046D01*
X9764643Y-20456474D01*
X9950357Y-20456474D01*
X10307500Y-20456474D02*
X10307500Y-20156474D01*
X10436071Y-20456474D02*
X10436071Y-20299332D01*
X10421786Y-20270760D01*
X10393214Y-20256474D01*
X10350357Y-20256474D01*
X10321786Y-20270760D01*
X10307500Y-20285046D01*
X10621786Y-20456474D02*
X10593214Y-20442189D01*
X10578928Y-20427903D01*
X10564643Y-20399332D01*
X10564643Y-20313617D01*
X10578928Y-20285046D01*
X10593214Y-20270760D01*
X10621786Y-20256474D01*
X10664643Y-20256474D01*
X10693214Y-20270760D01*
X10707500Y-20285046D01*
X10721786Y-20313617D01*
X10721786Y-20399332D01*
X10707500Y-20427903D01*
X10693214Y-20442189D01*
X10664643Y-20456474D01*
X10621786Y-20456474D01*
X10893214Y-20456474D02*
X10864643Y-20442189D01*
X10850357Y-20413617D01*
X10850357Y-20156474D01*
X11121786Y-20442189D02*
X11093214Y-20456474D01*
X11036071Y-20456474D01*
X11007500Y-20442189D01*
X10993214Y-20413617D01*
X10993214Y-20299332D01*
X11007500Y-20270760D01*
X11036071Y-20256474D01*
X11093214Y-20256474D01*
X11121786Y-20270760D01*
X11136071Y-20299332D01*
X11136071Y-20327903D01*
X10993214Y-20356474D01*
X11250357Y-20442189D02*
X11278928Y-20456474D01*
X11336071Y-20456474D01*
X11364643Y-20442189D01*
X11378928Y-20413617D01*
X11378928Y-20399332D01*
X11364643Y-20370760D01*
X11336071Y-20356474D01*
X11293214Y-20356474D01*
X11264643Y-20342189D01*
X11250357Y-20313617D01*
X11250357Y-20299332D01*
X11264643Y-20270760D01*
X11293214Y-20256474D01*
X11336071Y-20256474D01*
X11364643Y-20270760D01*
X11478928Y-20570760D02*
X11493214Y-20556474D01*
X11521786Y-20513617D01*
X11536071Y-20485046D01*
X11550357Y-20442189D01*
X11564643Y-20370760D01*
X11564643Y-20313617D01*
X11550357Y-20242189D01*
X11536071Y-20199332D01*
X11521786Y-20170760D01*
X11493214Y-20127903D01*
X11478928Y-20113617D01*
M02*
