G04 #@! TF.GenerationSoftware,KiCad,Pcbnew,5.1.0-060a0da~80~ubuntu16.04.1*
G04 #@! TF.CreationDate,2019-04-08T13:55:54+05:30*
G04 #@! TF.ProjectId,vcu-power,7663752d-706f-4776-9572-2e6b69636164,rev?*
G04 #@! TF.SameCoordinates,Original*
G04 #@! TF.FileFunction,Copper,L2,Bot*
G04 #@! TF.FilePolarity,Positive*
%FSLAX46Y46*%
G04 Gerber Fmt 4.6, Leading zero omitted, Abs format (unit mm)*
G04 Created by KiCad (PCBNEW 5.1.0-060a0da~80~ubuntu16.04.1) date 2019-04-08 13:55:54*
%MOMM*%
%LPD*%
G04 APERTURE LIST*
%ADD10R,1.501140X2.499360*%
%ADD11O,1.501140X2.499360*%
%ADD12C,6.350000*%
%ADD13C,6.500000*%
%ADD14C,1.800000*%
%ADD15C,2.000000*%
%ADD16C,2.200000*%
%ADD17C,9.144000*%
%ADD18C,3.276600*%
%ADD19C,1.700000*%
%ADD20R,1.700000X1.700000*%
%ADD21R,2.499360X1.501140*%
%ADD22O,2.499360X1.501140*%
%ADD23C,2.286000*%
%ADD24O,5.501640X3.500120*%
%ADD25C,1.998980*%
%ADD26C,0.600000*%
%ADD27C,6.000000*%
%ADD28C,2.000000*%
%ADD29C,0.250000*%
%ADD30C,0.254000*%
G04 APERTURE END LIST*
D10*
X185400000Y-141500000D03*
D11*
X182860000Y-141500000D03*
X187940000Y-141500000D03*
D12*
X61925000Y-49500000D03*
D13*
X162450000Y-117450000D03*
X78450000Y-117450000D03*
D14*
X116700000Y-34700000D03*
X113700000Y-34700000D03*
X110700000Y-34700000D03*
X107700000Y-34700000D03*
X104700000Y-34700000D03*
X101700000Y-34700000D03*
X98700000Y-34700000D03*
X95700000Y-34700000D03*
X92700000Y-34700000D03*
X89700000Y-34700000D03*
X86700000Y-34700000D03*
X83700000Y-34700000D03*
X119700000Y-32740000D03*
X80700000Y-32740000D03*
D15*
X121100000Y-52700000D03*
X121100000Y-48000000D03*
D16*
X109600000Y-48000000D03*
X102600000Y-48000000D03*
D17*
X157560000Y-49590000D03*
D12*
X62000000Y-37000000D03*
D18*
X71715000Y-144220000D03*
X173325000Y-144220000D03*
X71715000Y-32980000D03*
X173325000Y-32980000D03*
D19*
X164800000Y-35725000D03*
D20*
X159800000Y-35725000D03*
D21*
X158190000Y-82627460D03*
D22*
X158190000Y-80087460D03*
X158190000Y-85167460D03*
D21*
X158242000Y-95758000D03*
D22*
X158242000Y-93218000D03*
X158242000Y-98298000D03*
D10*
X185200000Y-121400000D03*
D11*
X182660000Y-121400000D03*
X187740000Y-121400000D03*
D10*
X79475000Y-87750000D03*
D11*
X82015000Y-87750000D03*
X76935000Y-87750000D03*
D21*
X143960000Y-37497460D03*
D22*
X143960000Y-34957460D03*
X143960000Y-40037460D03*
D17*
X157860000Y-66090000D03*
D12*
X61975000Y-87675000D03*
X61975000Y-74800000D03*
X62000000Y-62000000D03*
X61950000Y-100200000D03*
D23*
X137890000Y-48570000D03*
D24*
X175000000Y-68000000D03*
X175000000Y-62412000D03*
X175000000Y-73588000D03*
X175000000Y-86000000D03*
X175000000Y-80412000D03*
X175000000Y-91588000D03*
X175000000Y-50000000D03*
X175000000Y-44412000D03*
X175000000Y-55588000D03*
D22*
X182050000Y-110200000D03*
X182050000Y-107660000D03*
X182050000Y-112740000D03*
X82470000Y-79310000D03*
X82470000Y-81850000D03*
X82470000Y-76770000D03*
X181800000Y-130600000D03*
X181800000Y-128060000D03*
X181800000Y-133140000D03*
D11*
X133440000Y-38870000D03*
X130900000Y-38870000D03*
X135980000Y-38870000D03*
D25*
X109440000Y-41230000D03*
X117060000Y-41230000D03*
X181800000Y-100540000D03*
X174180000Y-100540000D03*
X91000000Y-42710000D03*
X98620000Y-42710000D03*
X177190000Y-126410000D03*
X177190000Y-134030000D03*
D11*
X94940000Y-48200000D03*
X89860000Y-48200000D03*
D25*
X125200000Y-39300000D03*
X125200000Y-31680000D03*
D26*
X163068000Y-75178000D03*
X163068000Y-79756000D03*
X163272001Y-70661999D03*
X167029840Y-87679840D03*
X163068000Y-85752000D03*
X163747971Y-93552029D03*
X164950000Y-59000000D03*
X169260000Y-78380000D03*
X170570000Y-75930000D03*
X169350000Y-61060000D03*
X167748000Y-72452000D03*
X166900000Y-64300000D03*
X88665000Y-101660000D03*
X95865000Y-101660000D03*
X103460000Y-101660000D03*
X115920000Y-103380000D03*
X127095000Y-109180000D03*
X138095000Y-109180000D03*
X150345000Y-109180000D03*
X162105000Y-109180000D03*
X170595000Y-109180000D03*
X177610000Y-109180000D03*
X88665000Y-101660000D03*
X83490000Y-96485000D03*
X77150000Y-94850000D03*
X72610000Y-93260000D03*
X103365000Y-128990000D03*
X111190000Y-128990000D03*
X117790000Y-128990000D03*
X125090000Y-128990000D03*
X132090000Y-128990000D03*
X140040000Y-128990000D03*
X148640000Y-128990000D03*
X159935000Y-128990000D03*
X171200000Y-130600000D03*
X96240000Y-124510000D03*
X90552500Y-118822500D03*
X84915000Y-113185000D03*
X78177500Y-106447500D03*
X69730000Y-100200000D03*
D27*
X172586784Y-86000000D02*
X172438784Y-85852000D01*
X175000000Y-86000000D02*
X172586784Y-86000000D01*
X169049170Y-68042830D02*
X165976830Y-68042830D01*
X169092000Y-68000000D02*
X169049170Y-68042830D01*
X165976830Y-68042830D02*
X165934000Y-68000000D01*
X175000000Y-68000000D02*
X169092000Y-68000000D01*
X175000000Y-50000000D02*
X170726000Y-50000000D01*
X170726000Y-50000000D02*
X167748000Y-52978000D01*
X167748000Y-84436000D02*
X169164000Y-85852000D01*
X157860000Y-72555784D02*
X158180000Y-72875784D01*
X157860000Y-66090000D02*
X157860000Y-72555784D01*
X158180000Y-72875784D02*
X160765784Y-72875784D01*
X160765784Y-72875784D02*
X163068000Y-75178000D01*
X163068000Y-79756000D02*
X163068000Y-75178000D01*
X157860000Y-66090000D02*
X162431999Y-61518001D01*
X163272001Y-70661999D02*
X165934000Y-68000000D01*
X162431999Y-70661999D02*
X163272001Y-70661999D01*
X157860000Y-66090000D02*
X162431999Y-70661999D01*
X157860000Y-66090000D02*
X162590000Y-66090000D01*
D28*
X167748000Y-86961680D02*
X167748000Y-84436000D01*
X165934000Y-85796000D02*
X165934000Y-82622000D01*
X164470000Y-89890000D02*
X164644840Y-90064840D01*
X164644840Y-87085160D02*
X164990000Y-86740000D01*
X164990000Y-86740000D02*
X165934000Y-85796000D01*
X164644840Y-90064840D02*
X164644840Y-87085160D01*
X164990000Y-86740000D02*
X166090000Y-86740000D01*
X166090000Y-86740000D02*
X167029840Y-87679840D01*
X167029840Y-87679840D02*
X167748000Y-86961680D01*
X164644840Y-90064840D02*
X167029840Y-87679840D01*
D29*
X165794000Y-72452000D02*
X163068000Y-75178000D01*
X167748000Y-72452000D02*
X165794000Y-72452000D01*
X167748000Y-75076000D02*
X163068000Y-79756000D01*
X167748000Y-72452000D02*
X167748000Y-75076000D01*
X161378216Y-72555784D02*
X163272001Y-70661999D01*
X157860000Y-72555784D02*
X161378216Y-72555784D01*
X167748000Y-84436000D02*
X165934000Y-82622000D01*
D28*
X161850000Y-89880000D02*
X161840000Y-89890000D01*
X161850000Y-80974000D02*
X163068000Y-79756000D01*
X163068000Y-80180264D02*
X163068000Y-79756000D01*
X162977500Y-88752500D02*
X163068000Y-88662000D01*
X162977500Y-88752500D02*
X164990000Y-86740000D01*
X161840000Y-89890000D02*
X162977500Y-88752500D01*
X164644840Y-83911160D02*
X165934000Y-82622000D01*
X164644840Y-87085160D02*
X164644840Y-83911160D01*
X157860000Y-66090000D02*
X157860000Y-61640000D01*
X166522000Y-52978000D02*
X167748000Y-52978000D01*
X163400000Y-60550000D02*
X157860000Y-66090000D01*
X162431999Y-61518001D02*
X162431999Y-58568001D01*
X157860000Y-66090000D02*
X164950000Y-59000000D01*
X164950000Y-56850000D02*
X165000000Y-56000000D01*
X162431999Y-58568001D02*
X164950000Y-56850000D01*
X161702460Y-82627460D02*
X161850000Y-82775000D01*
X158190000Y-82627460D02*
X161702460Y-82627460D01*
X161850000Y-82775000D02*
X161850000Y-80974000D01*
X161850000Y-89880000D02*
X161850000Y-82775000D01*
X163068000Y-80999140D02*
X163068000Y-80180264D01*
X161439680Y-82627460D02*
X163068000Y-80999140D01*
X158190000Y-82627460D02*
X161439680Y-82627460D01*
X161850000Y-95399680D02*
X161850000Y-89880000D01*
X161491680Y-95758000D02*
X161850000Y-95399680D01*
X158242000Y-95758000D02*
X161491680Y-95758000D01*
X166250000Y-93450000D02*
X166250000Y-90875000D01*
X173999240Y-86000000D02*
X175000000Y-86000000D01*
X169124240Y-90875000D02*
X173999240Y-86000000D01*
X166250000Y-90875000D02*
X169124240Y-90875000D01*
X158242000Y-95758000D02*
X161492000Y-95758000D01*
X161492000Y-95758000D02*
X163942000Y-95758000D01*
X167375000Y-89350000D02*
X167375000Y-87641000D01*
X167375000Y-87641000D02*
X169164000Y-85852000D01*
X161492000Y-95758000D02*
X161492000Y-95233000D01*
X161850000Y-91600000D02*
X164950000Y-94700000D01*
X161850000Y-89880000D02*
X161850000Y-91600000D01*
X164950000Y-94700000D02*
X166250000Y-93450000D01*
X163942000Y-95758000D02*
X164950000Y-94700000D01*
X162700000Y-89175000D02*
X162700000Y-90450000D01*
X162700000Y-90450000D02*
X164925000Y-92675000D01*
X162700000Y-89175000D02*
X164470000Y-89890000D01*
X161840000Y-89890000D02*
X162700000Y-89175000D01*
X164470000Y-90620000D02*
X165025000Y-91175000D01*
X165025000Y-91175000D02*
X167375000Y-89350000D01*
X164470000Y-89890000D02*
X164470000Y-90620000D01*
X164925000Y-92675000D02*
X165025000Y-91175000D01*
X167375000Y-89350000D02*
X169050000Y-89350000D01*
D27*
X169550000Y-88850000D02*
X169164000Y-85852000D01*
X172438784Y-85852000D02*
X169550000Y-88850000D01*
D29*
X165534680Y-89175000D02*
X167029840Y-87679840D01*
X162700000Y-89175000D02*
X165534680Y-89175000D01*
D28*
X163068000Y-88662000D02*
X163068000Y-85752000D01*
D29*
X164470000Y-87154000D02*
X163068000Y-85752000D01*
D28*
X163068000Y-85752000D02*
X163068000Y-80180264D01*
D29*
X164470000Y-89890000D02*
X164470000Y-87154000D01*
D28*
X161492000Y-95233000D02*
X163747971Y-93552029D01*
X163747971Y-93552029D02*
X164925000Y-92675000D01*
D29*
X162700000Y-90450000D02*
X162700000Y-92504058D01*
X162700000Y-92504058D02*
X163747971Y-93552029D01*
X164950000Y-56850000D02*
X164950000Y-59000000D01*
X167748000Y-76868000D02*
X167748000Y-72452000D01*
X169260000Y-78380000D02*
X167748000Y-76868000D01*
X167748000Y-73108000D02*
X170570000Y-75930000D01*
X167748000Y-72452000D02*
X167748000Y-73108000D01*
X167748000Y-62662000D02*
X167748000Y-66656000D01*
X169350000Y-61060000D02*
X167748000Y-62662000D01*
X167748000Y-66656000D02*
X167748000Y-72452000D01*
X163400000Y-60550000D02*
X163400000Y-60800000D01*
D28*
X167748000Y-66741660D02*
X169049170Y-68042830D01*
X167748000Y-52978000D02*
X167748000Y-66741660D01*
X170726000Y-50000000D02*
X170726000Y-66366000D01*
X169270000Y-54500000D02*
X167748000Y-52978000D01*
X169270000Y-60980000D02*
X169270000Y-54500000D01*
X169350000Y-67040000D02*
X169701000Y-67391000D01*
X169701000Y-67391000D02*
X169049170Y-68042830D01*
X169350000Y-61060000D02*
X169350000Y-67040000D01*
X170726000Y-66366000D02*
X169701000Y-67391000D01*
X167748000Y-53252000D02*
X165000000Y-56000000D01*
X167748000Y-52978000D02*
X167748000Y-53252000D01*
X165000000Y-56000000D02*
X165480000Y-56000000D01*
X165480000Y-56000000D02*
X166260000Y-56780000D01*
X166260000Y-67674000D02*
X165934000Y-68000000D01*
X166260000Y-56780000D02*
X166260000Y-67674000D01*
X164120000Y-61520000D02*
X164120000Y-66186000D01*
D29*
X163400000Y-60800000D02*
X164120000Y-61520000D01*
X164120000Y-61520000D02*
X166900000Y-64300000D01*
D28*
X165000000Y-66640000D02*
X165840000Y-67480000D01*
X165840000Y-67480000D02*
X165934000Y-68000000D01*
X165000000Y-56000000D02*
X165000000Y-66640000D01*
X164120000Y-66186000D02*
X165840000Y-67480000D01*
X169049170Y-89100830D02*
X168930000Y-89220000D01*
X169049170Y-68042830D02*
X169049170Y-89100830D01*
X168930000Y-89220000D02*
X169550000Y-88850000D01*
X169050000Y-89350000D02*
X168930000Y-89220000D01*
X170570000Y-69563660D02*
X169049170Y-68042830D01*
X169164000Y-84586000D02*
X170570000Y-83180000D01*
X170570000Y-83180000D02*
X170570000Y-69563660D01*
X169164000Y-85852000D02*
X169164000Y-84586000D01*
X169049170Y-68042830D02*
X169049170Y-69480830D01*
X167748000Y-70782000D02*
X167748000Y-84436000D01*
X169049170Y-69480830D02*
X167748000Y-70782000D01*
X169164000Y-85852000D02*
X163068000Y-79756000D01*
X163068000Y-85752000D02*
X163068000Y-84042000D01*
X163068000Y-84042000D02*
X166350000Y-80760000D01*
X166350000Y-80760000D02*
X166350000Y-71940000D01*
X166306000Y-71940000D02*
X163068000Y-75178000D01*
X166350000Y-71940000D02*
X166306000Y-71940000D01*
X157860000Y-66090000D02*
X157860000Y-59624216D01*
X158340000Y-59144216D02*
X157860000Y-59624216D01*
X161030000Y-58080000D02*
X166552000Y-53078000D01*
X157860000Y-61640000D02*
X161000000Y-57980000D01*
X157860000Y-59624216D02*
X157895784Y-59624216D01*
X159540000Y-57980000D02*
X161000000Y-57980000D01*
X157895784Y-59624216D02*
X159540000Y-57980000D01*
X109530000Y-101660000D02*
X112300000Y-101660000D01*
X109530000Y-101660000D02*
X113510000Y-101660000D01*
X114430000Y-102580000D02*
X113510000Y-101660000D01*
X114430000Y-103790000D02*
X114430000Y-102580000D01*
X178730000Y-110300000D02*
X182000000Y-110300000D01*
X177610000Y-109180000D02*
X178730000Y-110300000D01*
X112905000Y-102265000D02*
X114805000Y-102265000D01*
X112300000Y-101660000D02*
X112905000Y-102265000D01*
X112905000Y-102265000D02*
X114430000Y-103790000D01*
X114430000Y-103790000D02*
X114770000Y-103790000D01*
X120160000Y-109180000D02*
X121720000Y-109180000D01*
X114770000Y-103790000D02*
X120160000Y-109180000D01*
X88665000Y-101660000D02*
X95865000Y-101660000D01*
X103460000Y-101660000D02*
X109530000Y-101660000D01*
X95865000Y-101660000D02*
X103460000Y-101660000D01*
X114805000Y-102265000D02*
X115920000Y-103380000D01*
X115920000Y-103380000D02*
X121720000Y-109180000D01*
X121720000Y-109180000D02*
X127095000Y-109180000D01*
X127095000Y-109180000D02*
X138095000Y-109180000D01*
X138095000Y-109180000D02*
X150345000Y-109180000D01*
X150345000Y-109180000D02*
X162105000Y-109180000D01*
X162105000Y-109180000D02*
X170595000Y-109180000D01*
X170595000Y-109180000D02*
X177610000Y-109180000D01*
X81530000Y-94525000D02*
X88665000Y-101660000D01*
X61975000Y-87675000D02*
X65149999Y-90849999D01*
X73875000Y-94525000D02*
X81530000Y-94525000D01*
X65149999Y-90849999D02*
X70199999Y-90849999D01*
D29*
X71850000Y-92500000D02*
X72610000Y-93260000D01*
D28*
X70199999Y-90849999D02*
X71850000Y-92500000D01*
X71850000Y-92500000D02*
X73875000Y-94525000D01*
X61975000Y-74800000D02*
X65250000Y-78075000D01*
X65250000Y-78075000D02*
X76500000Y-78075000D01*
X77735000Y-79310000D02*
X82470000Y-79310000D01*
X76500000Y-78075000D02*
X77735000Y-79310000D01*
X79475000Y-84500320D02*
X78075000Y-83100320D01*
X79475000Y-87750000D02*
X79475000Y-84500320D01*
X78075000Y-79650000D02*
X77735000Y-79310000D01*
X78075000Y-83100320D02*
X78075000Y-79650000D01*
X177720000Y-130600000D02*
X179480000Y-130600000D01*
X176640000Y-129520000D02*
X177720000Y-130600000D01*
X179480000Y-130600000D02*
X179530000Y-130650000D01*
X179530000Y-130650000D02*
X182100000Y-130650000D01*
X176640000Y-128990000D02*
X176640000Y-129520000D01*
X100720000Y-128990000D02*
X103365000Y-128990000D01*
X103365000Y-128990000D02*
X111190000Y-128990000D01*
X111190000Y-128990000D02*
X117790000Y-128990000D01*
X117790000Y-128990000D02*
X125090000Y-128990000D01*
X125090000Y-128990000D02*
X132090000Y-128990000D01*
X132090000Y-128990000D02*
X140040000Y-128990000D01*
X140040000Y-128990000D02*
X148640000Y-128990000D01*
X148640000Y-128990000D02*
X159935000Y-128990000D01*
D29*
X170485000Y-129885000D02*
X171200000Y-130600000D01*
D28*
X159935000Y-128990000D02*
X170485000Y-128990000D01*
D29*
X170485000Y-128990000D02*
X170485000Y-129885000D01*
D28*
X170485000Y-128990000D02*
X176640000Y-128990000D01*
X96240000Y-124510000D02*
X100720000Y-128990000D01*
X90552500Y-118822500D02*
X96240000Y-124510000D01*
X84915000Y-113185000D02*
X90552500Y-118822500D01*
X78177500Y-106447500D02*
X84915000Y-113185000D01*
X71930000Y-100200000D02*
X78177500Y-106447500D01*
X187940000Y-141500000D02*
X187940000Y-133240000D01*
X185300000Y-130600000D02*
X181800000Y-130600000D01*
X187940000Y-133240000D02*
X185300000Y-130600000D01*
D29*
X68440000Y-100200000D02*
X69730000Y-100200000D01*
D28*
X61950000Y-100200000D02*
X68440000Y-100200000D01*
X68440000Y-100200000D02*
X71930000Y-100200000D01*
X133440000Y-44120000D02*
X137890000Y-48570000D01*
X133440000Y-38870000D02*
X133440000Y-44120000D01*
X133440000Y-35620320D02*
X134360320Y-34700000D01*
X133440000Y-38870000D02*
X133440000Y-35620320D01*
X141982460Y-34957460D02*
X143960000Y-34957460D01*
X141725000Y-34700000D02*
X141982460Y-34957460D01*
X134360320Y-34700000D02*
X141725000Y-34700000D01*
D29*
X171720000Y-103000000D02*
X174180000Y-100540000D01*
X113700000Y-34700000D02*
X113700000Y-55950000D01*
X149320000Y-91570000D02*
X149320000Y-98760000D01*
X153560000Y-103000000D02*
X171720000Y-103000000D01*
X113700000Y-55950000D02*
X149320000Y-91570000D01*
X149320000Y-98760000D02*
X153560000Y-103000000D01*
X107885001Y-31514999D02*
X117205001Y-31514999D01*
X104700000Y-34700000D02*
X107885001Y-31514999D01*
X117205001Y-31514999D02*
X118780000Y-29940000D01*
X123460000Y-29940000D02*
X125200000Y-31680000D01*
X118780000Y-29940000D02*
X123460000Y-29940000D01*
X86700000Y-34700000D02*
X92010000Y-40010000D01*
X108220000Y-40010000D02*
X109440000Y-41230000D01*
X92010000Y-40010000D02*
X108220000Y-40010000D01*
X117060000Y-41230000D02*
X119250000Y-41230000D01*
X129463301Y-31016699D02*
X168043301Y-31016699D01*
X119250000Y-41230000D02*
X129463301Y-31016699D01*
X168043301Y-31016699D02*
X170580000Y-28480000D01*
X170580000Y-28480000D02*
X190180000Y-28480000D01*
X190180000Y-28480000D02*
X193160000Y-31460000D01*
X193160000Y-31460000D02*
X193160000Y-44230000D01*
X192978000Y-44412000D02*
X175000000Y-44412000D01*
X193160000Y-44230000D02*
X192978000Y-44412000D01*
X193160000Y-44230000D02*
X193160000Y-62250000D01*
X192998000Y-62412000D02*
X175000000Y-62412000D01*
X193160000Y-62250000D02*
X192998000Y-62412000D01*
X193160000Y-62250000D02*
X193160000Y-77220000D01*
X189968000Y-80412000D02*
X175000000Y-80412000D01*
X193160000Y-77220000D02*
X189968000Y-80412000D01*
X181800000Y-107560000D02*
X182000000Y-107760000D01*
X181800000Y-100540000D02*
X181800000Y-107560000D01*
X91000000Y-42710000D02*
X91000000Y-45350000D01*
X91000000Y-45350000D02*
X92000000Y-46350000D01*
X92000000Y-46350000D02*
X92000000Y-77750000D01*
X87900000Y-81850000D02*
X82470000Y-81850000D01*
X92000000Y-77750000D02*
X87900000Y-81850000D01*
X130470000Y-39300000D02*
X130900000Y-38870000D01*
X125200000Y-39300000D02*
X130470000Y-39300000D01*
D30*
G36*
X170039999Y-27939999D02*
G01*
X170016201Y-27968997D01*
X167728500Y-30256699D01*
X129500626Y-30256699D01*
X129463301Y-30253023D01*
X129425976Y-30256699D01*
X129425968Y-30256699D01*
X129314315Y-30267696D01*
X129171054Y-30311153D01*
X129039025Y-30381725D01*
X128923300Y-30476698D01*
X128899502Y-30505696D01*
X118935199Y-40470000D01*
X118514358Y-40470000D01*
X118508467Y-40455778D01*
X118329592Y-40188073D01*
X118101927Y-39960408D01*
X117834222Y-39781533D01*
X117536763Y-39658322D01*
X117220983Y-39595510D01*
X116899017Y-39595510D01*
X116583237Y-39658322D01*
X116285778Y-39781533D01*
X116018073Y-39960408D01*
X115790408Y-40188073D01*
X115611533Y-40455778D01*
X115488322Y-40753237D01*
X115425510Y-41069017D01*
X115425510Y-41390983D01*
X115488322Y-41706763D01*
X115611533Y-42004222D01*
X115790408Y-42271927D01*
X116018073Y-42499592D01*
X116285778Y-42678467D01*
X116583237Y-42801678D01*
X116899017Y-42864490D01*
X117220983Y-42864490D01*
X117536763Y-42801678D01*
X117834222Y-42678467D01*
X118101927Y-42499592D01*
X118329592Y-42271927D01*
X118508467Y-42004222D01*
X118514358Y-41990000D01*
X119212678Y-41990000D01*
X119250000Y-41993676D01*
X119287322Y-41990000D01*
X119287333Y-41990000D01*
X119398986Y-41979003D01*
X119542247Y-41935546D01*
X119674276Y-41864974D01*
X119790001Y-41770001D01*
X119813804Y-41740997D01*
X122415784Y-39139017D01*
X123565510Y-39139017D01*
X123565510Y-39460983D01*
X123628322Y-39776763D01*
X123751533Y-40074222D01*
X123930408Y-40341927D01*
X124158073Y-40569592D01*
X124425778Y-40748467D01*
X124723237Y-40871678D01*
X125039017Y-40934490D01*
X125360983Y-40934490D01*
X125676763Y-40871678D01*
X125974222Y-40748467D01*
X126241927Y-40569592D01*
X126469592Y-40341927D01*
X126648467Y-40074222D01*
X126654358Y-40060000D01*
X129698207Y-40060000D01*
X129742366Y-40142616D01*
X129915515Y-40353596D01*
X130126495Y-40526744D01*
X130367201Y-40655403D01*
X130628382Y-40734632D01*
X130900000Y-40761384D01*
X131171619Y-40734632D01*
X131432800Y-40655403D01*
X131673506Y-40526744D01*
X131805000Y-40418829D01*
X131805001Y-44039671D01*
X131797089Y-44120000D01*
X131828658Y-44440516D01*
X131922148Y-44748714D01*
X132053084Y-44993677D01*
X132073970Y-45032752D01*
X132278287Y-45281714D01*
X132340682Y-45332920D01*
X136239685Y-49231924D01*
X136314357Y-49412199D01*
X136508937Y-49703409D01*
X136756591Y-49951063D01*
X137047801Y-50145643D01*
X137371377Y-50279672D01*
X137714882Y-50348000D01*
X138065118Y-50348000D01*
X138408623Y-50279672D01*
X138732199Y-50145643D01*
X139023409Y-49951063D01*
X139271063Y-49703409D01*
X139465643Y-49412199D01*
X139599672Y-49088623D01*
X139668000Y-48745118D01*
X139668000Y-48394882D01*
X139599672Y-48051377D01*
X139465643Y-47727801D01*
X139271063Y-47436591D01*
X139023409Y-47188937D01*
X138732199Y-46994357D01*
X138551924Y-46919685D01*
X135075000Y-43442762D01*
X135075000Y-36335000D01*
X141091240Y-36335000D01*
X141353745Y-36475312D01*
X141661944Y-36568803D01*
X141902138Y-36592460D01*
X141902140Y-36592460D01*
X141982459Y-36600371D01*
X142062779Y-36592460D01*
X142093593Y-36592460D01*
X142084508Y-36622408D01*
X142072248Y-36746890D01*
X142072248Y-38248030D01*
X142084508Y-38372512D01*
X142120818Y-38492210D01*
X142179783Y-38602524D01*
X142259135Y-38699215D01*
X142355826Y-38778567D01*
X142466140Y-38837532D01*
X142585838Y-38873842D01*
X142683014Y-38883413D01*
X142476404Y-39052974D01*
X142303256Y-39263954D01*
X142174597Y-39504660D01*
X142095368Y-39765841D01*
X142068616Y-40037460D01*
X142095368Y-40309079D01*
X142174597Y-40570260D01*
X142303256Y-40810966D01*
X142476404Y-41021946D01*
X142687384Y-41195094D01*
X142928090Y-41323753D01*
X143189271Y-41402982D01*
X143392823Y-41423030D01*
X144527177Y-41423030D01*
X144730729Y-41402982D01*
X144991910Y-41323753D01*
X145232616Y-41195094D01*
X145443596Y-41021946D01*
X145616744Y-40810966D01*
X145745403Y-40570260D01*
X145824632Y-40309079D01*
X145851384Y-40037460D01*
X145824632Y-39765841D01*
X145745403Y-39504660D01*
X145616744Y-39263954D01*
X145443596Y-39052974D01*
X145236986Y-38883413D01*
X145334162Y-38873842D01*
X145453860Y-38837532D01*
X145564174Y-38778567D01*
X145660865Y-38699215D01*
X145740217Y-38602524D01*
X145799182Y-38492210D01*
X145835492Y-38372512D01*
X145847752Y-38248030D01*
X145847752Y-36746890D01*
X145835492Y-36622408D01*
X145799182Y-36502710D01*
X145740217Y-36392396D01*
X145660865Y-36295705D01*
X145564174Y-36216353D01*
X145453860Y-36157388D01*
X145334162Y-36121078D01*
X145236986Y-36111507D01*
X145443596Y-35941946D01*
X145616744Y-35730966D01*
X145745403Y-35490260D01*
X145824632Y-35229079D01*
X145851384Y-34957460D01*
X145843263Y-34875000D01*
X158311928Y-34875000D01*
X158311928Y-36575000D01*
X158324188Y-36699482D01*
X158360498Y-36819180D01*
X158419463Y-36929494D01*
X158498815Y-37026185D01*
X158595506Y-37105537D01*
X158705820Y-37164502D01*
X158825518Y-37200812D01*
X158950000Y-37213072D01*
X160650000Y-37213072D01*
X160774482Y-37200812D01*
X160894180Y-37164502D01*
X161004494Y-37105537D01*
X161101185Y-37026185D01*
X161180537Y-36929494D01*
X161239502Y-36819180D01*
X161275812Y-36699482D01*
X161288072Y-36575000D01*
X161288072Y-34875000D01*
X161275812Y-34750518D01*
X161239502Y-34630820D01*
X161180537Y-34520506D01*
X161101185Y-34423815D01*
X161004494Y-34344463D01*
X160894180Y-34285498D01*
X160774482Y-34249188D01*
X160650000Y-34236928D01*
X158950000Y-34236928D01*
X158825518Y-34249188D01*
X158705820Y-34285498D01*
X158595506Y-34344463D01*
X158498815Y-34423815D01*
X158419463Y-34520506D01*
X158360498Y-34630820D01*
X158324188Y-34750518D01*
X158311928Y-34875000D01*
X145843263Y-34875000D01*
X145824632Y-34685841D01*
X145745403Y-34424660D01*
X145616744Y-34183954D01*
X145443596Y-33972974D01*
X145232616Y-33799826D01*
X144991910Y-33671167D01*
X144957015Y-33660582D01*
X144872752Y-33591429D01*
X144588715Y-33439608D01*
X144280516Y-33346117D01*
X144040322Y-33322460D01*
X142616220Y-33322460D01*
X142353715Y-33182148D01*
X142045516Y-33088657D01*
X141805322Y-33065000D01*
X141805319Y-33065000D01*
X141725000Y-33057089D01*
X141644681Y-33065000D01*
X134440639Y-33065000D01*
X134360319Y-33057089D01*
X134280000Y-33065000D01*
X134279998Y-33065000D01*
X134039804Y-33088657D01*
X133731605Y-33182148D01*
X133447568Y-33333969D01*
X133198606Y-33538286D01*
X133147395Y-33600687D01*
X132340682Y-34407400D01*
X132278287Y-34458606D01*
X132091801Y-34685841D01*
X132073970Y-34707568D01*
X131922148Y-34991606D01*
X131828658Y-35299804D01*
X131797089Y-35620320D01*
X131805001Y-35700649D01*
X131805000Y-37321172D01*
X131673505Y-37213256D01*
X131432799Y-37084597D01*
X131171618Y-37005368D01*
X130900000Y-36978616D01*
X130628381Y-37005368D01*
X130367200Y-37084597D01*
X130126494Y-37213256D01*
X129915514Y-37386405D01*
X129742366Y-37597385D01*
X129613707Y-37838091D01*
X129534478Y-38099272D01*
X129514430Y-38302824D01*
X129514430Y-38540000D01*
X126654358Y-38540000D01*
X126648467Y-38525778D01*
X126469592Y-38258073D01*
X126241927Y-38030408D01*
X125974222Y-37851533D01*
X125676763Y-37728322D01*
X125360983Y-37665510D01*
X125039017Y-37665510D01*
X124723237Y-37728322D01*
X124425778Y-37851533D01*
X124158073Y-38030408D01*
X123930408Y-38258073D01*
X123751533Y-38525778D01*
X123628322Y-38823237D01*
X123565510Y-39139017D01*
X122415784Y-39139017D01*
X128798702Y-32756099D01*
X171051700Y-32756099D01*
X171051700Y-33203901D01*
X171139061Y-33643097D01*
X171310427Y-34056812D01*
X171559212Y-34429145D01*
X171875855Y-34745788D01*
X172248188Y-34994573D01*
X172661903Y-35165939D01*
X173101099Y-35253300D01*
X173548901Y-35253300D01*
X173988097Y-35165939D01*
X174401812Y-34994573D01*
X174774145Y-34745788D01*
X175090788Y-34429145D01*
X175339573Y-34056812D01*
X175510939Y-33643097D01*
X175598300Y-33203901D01*
X175598300Y-32756099D01*
X175510939Y-32316903D01*
X175339573Y-31903188D01*
X175090788Y-31530855D01*
X174774145Y-31214212D01*
X174401812Y-30965427D01*
X173988097Y-30794061D01*
X173548901Y-30706700D01*
X173101099Y-30706700D01*
X172661903Y-30794061D01*
X172248188Y-30965427D01*
X171875855Y-31214212D01*
X171559212Y-31530855D01*
X171310427Y-31903188D01*
X171139061Y-32316903D01*
X171051700Y-32756099D01*
X128798702Y-32756099D01*
X129778103Y-31776699D01*
X168005979Y-31776699D01*
X168043301Y-31780375D01*
X168080623Y-31776699D01*
X168080634Y-31776699D01*
X168192287Y-31765702D01*
X168335548Y-31722245D01*
X168467577Y-31651673D01*
X168583302Y-31556700D01*
X168607105Y-31527696D01*
X170894802Y-29240000D01*
X189865199Y-29240000D01*
X192400000Y-31774803D01*
X192400001Y-43652000D01*
X178262597Y-43652000D01*
X178214930Y-43494861D01*
X177993460Y-43080520D01*
X177695412Y-42717348D01*
X177332240Y-42419300D01*
X176917899Y-42197830D01*
X176468313Y-42061450D01*
X176117927Y-42026940D01*
X173882073Y-42026940D01*
X173531687Y-42061450D01*
X173082101Y-42197830D01*
X172667760Y-42419300D01*
X172304588Y-42717348D01*
X172006540Y-43080520D01*
X171785070Y-43494861D01*
X171648690Y-43944447D01*
X171602640Y-44412000D01*
X171648690Y-44879553D01*
X171785070Y-45329139D01*
X172006540Y-45743480D01*
X172304588Y-46106652D01*
X172619385Y-46365000D01*
X170904572Y-46365000D01*
X170726000Y-46347412D01*
X170547427Y-46365000D01*
X170547425Y-46365000D01*
X170013415Y-46417595D01*
X169328215Y-46625449D01*
X168696730Y-46962984D01*
X168530991Y-47099003D01*
X168143230Y-47417230D01*
X168029392Y-47555942D01*
X165259000Y-50326335D01*
X165259000Y-48831715D01*
X164963132Y-47344285D01*
X164382765Y-45943156D01*
X163540204Y-44682174D01*
X162467826Y-43609796D01*
X161206844Y-42767235D01*
X159805715Y-42186868D01*
X158318285Y-41891000D01*
X156801715Y-41891000D01*
X155314285Y-42186868D01*
X153913156Y-42767235D01*
X152652174Y-43609796D01*
X151579796Y-44682174D01*
X150737235Y-45943156D01*
X150156868Y-47344285D01*
X149861000Y-48831715D01*
X149861000Y-50348285D01*
X150156868Y-51835715D01*
X150737235Y-53236844D01*
X151579796Y-54497826D01*
X152652174Y-55570204D01*
X153913156Y-56412765D01*
X155314285Y-56993132D01*
X156801715Y-57289000D01*
X157918761Y-57289000D01*
X157432247Y-57775514D01*
X157427248Y-57778186D01*
X157240677Y-57931300D01*
X156760686Y-58411292D01*
X156698286Y-58462502D01*
X156689709Y-58472953D01*
X155614285Y-58686868D01*
X154213156Y-59267235D01*
X152952174Y-60109796D01*
X151879796Y-61182174D01*
X151037235Y-62443156D01*
X150456868Y-63844285D01*
X150161000Y-65331715D01*
X150161000Y-66848285D01*
X150456868Y-68335715D01*
X151037235Y-69736844D01*
X151879796Y-70997826D01*
X152952174Y-72070204D01*
X154213156Y-72912765D01*
X154243823Y-72925468D01*
X154247399Y-72961774D01*
X154277596Y-73268369D01*
X154317601Y-73400246D01*
X154485449Y-73953568D01*
X154822984Y-74585053D01*
X154999387Y-74800000D01*
X155277231Y-75138554D01*
X155415942Y-75252391D01*
X155483388Y-75319837D01*
X155597230Y-75458554D01*
X156150731Y-75912800D01*
X156782215Y-76250335D01*
X157467415Y-76458189D01*
X158001425Y-76510784D01*
X158001427Y-76510784D01*
X158179999Y-76528372D01*
X158358572Y-76510784D01*
X159260119Y-76510784D01*
X159433001Y-76683666D01*
X159433000Y-79934574D01*
X159485595Y-80468584D01*
X159644512Y-80992460D01*
X158109678Y-80992460D01*
X157869484Y-81016117D01*
X157561285Y-81109608D01*
X157319550Y-81238818D01*
X156940320Y-81238818D01*
X156815838Y-81251078D01*
X156696140Y-81287388D01*
X156585826Y-81346353D01*
X156489135Y-81425705D01*
X156409783Y-81522396D01*
X156350818Y-81632710D01*
X156314508Y-81752408D01*
X156302248Y-81876890D01*
X156302248Y-83378030D01*
X156314508Y-83502512D01*
X156350818Y-83622210D01*
X156409783Y-83732524D01*
X156489135Y-83829215D01*
X156585826Y-83908567D01*
X156696140Y-83967532D01*
X156815838Y-84003842D01*
X156940320Y-84016102D01*
X157319550Y-84016102D01*
X157561285Y-84145312D01*
X157869484Y-84238803D01*
X158109678Y-84262460D01*
X160215001Y-84262460D01*
X160215000Y-89682220D01*
X160204007Y-89739385D01*
X160204488Y-89814879D01*
X160197089Y-89890000D01*
X160205511Y-89975512D01*
X160206059Y-90061445D01*
X160215000Y-90104944D01*
X160215000Y-91519681D01*
X160207089Y-91600000D01*
X160215000Y-91680319D01*
X160215000Y-91680322D01*
X160215001Y-91680329D01*
X160215000Y-94123000D01*
X158161678Y-94123000D01*
X157921484Y-94146657D01*
X157613285Y-94240148D01*
X157371550Y-94369358D01*
X156992320Y-94369358D01*
X156867838Y-94381618D01*
X156748140Y-94417928D01*
X156637826Y-94476893D01*
X156541135Y-94556245D01*
X156461783Y-94652936D01*
X156402818Y-94763250D01*
X156366508Y-94882948D01*
X156354248Y-95007430D01*
X156354248Y-96508570D01*
X156366508Y-96633052D01*
X156402818Y-96752750D01*
X156461783Y-96863064D01*
X156541135Y-96959755D01*
X156637826Y-97039107D01*
X156748140Y-97098072D01*
X156867838Y-97134382D01*
X156992320Y-97146642D01*
X157371550Y-97146642D01*
X157613285Y-97275852D01*
X157921484Y-97369343D01*
X158161678Y-97393000D01*
X161411361Y-97393000D01*
X161491680Y-97400911D01*
X161491840Y-97400895D01*
X161492000Y-97400911D01*
X161572322Y-97393000D01*
X163881501Y-97393000D01*
X163981749Y-97400430D01*
X164121931Y-97383189D01*
X164262516Y-97369343D01*
X164281610Y-97363551D01*
X164301408Y-97361116D01*
X164435527Y-97316861D01*
X164570715Y-97275852D01*
X164588312Y-97266446D01*
X164607254Y-97260196D01*
X164730160Y-97190627D01*
X164854752Y-97124031D01*
X164870176Y-97111373D01*
X164887535Y-97101547D01*
X164994497Y-97009345D01*
X165103714Y-96919714D01*
X165167496Y-96841995D01*
X166064660Y-95900328D01*
X166111713Y-95861713D01*
X166152720Y-95811745D01*
X167336908Y-94673105D01*
X167411714Y-94611714D01*
X167503716Y-94499609D01*
X167597874Y-94389357D01*
X167605773Y-94375252D01*
X167616031Y-94362752D01*
X167684391Y-94234860D01*
X167755235Y-94108350D01*
X167760230Y-94092974D01*
X167767852Y-94078715D01*
X167809950Y-93939935D01*
X167854749Y-93802044D01*
X167856649Y-93785992D01*
X167861343Y-93770516D01*
X167875556Y-93626210D01*
X167892596Y-93482208D01*
X167885000Y-93385733D01*
X167885000Y-92510000D01*
X169043921Y-92510000D01*
X169124240Y-92517911D01*
X169204559Y-92510000D01*
X169204562Y-92510000D01*
X169394853Y-92491258D01*
X169459451Y-92489328D01*
X169617753Y-92501959D01*
X169816452Y-92478660D01*
X170016429Y-92472684D01*
X170171192Y-92437063D01*
X170328914Y-92418569D01*
X170519249Y-92356954D01*
X170714218Y-92312079D01*
X170859054Y-92246952D01*
X171010140Y-92198042D01*
X171184803Y-92100475D01*
X171367266Y-92018428D01*
X171496610Y-91926298D01*
X171628693Y-91852517D01*
X171648690Y-92055553D01*
X171785070Y-92505139D01*
X172006540Y-92919480D01*
X172304588Y-93282652D01*
X172667760Y-93580700D01*
X173082101Y-93802170D01*
X173531687Y-93938550D01*
X173882073Y-93973060D01*
X176117927Y-93973060D01*
X176468313Y-93938550D01*
X176917899Y-93802170D01*
X177332240Y-93580700D01*
X177695412Y-93282652D01*
X177993460Y-92919480D01*
X178214930Y-92505139D01*
X178351310Y-92055553D01*
X178397360Y-91588000D01*
X178351310Y-91120447D01*
X178214930Y-90670861D01*
X177993460Y-90256520D01*
X177695412Y-89893348D01*
X177332240Y-89595300D01*
X176917899Y-89373830D01*
X176586953Y-89273439D01*
X177029269Y-89037016D01*
X177582770Y-88582770D01*
X178037016Y-88029269D01*
X178374551Y-87397785D01*
X178582405Y-86712585D01*
X178652588Y-86000000D01*
X178582405Y-85287415D01*
X178374551Y-84602215D01*
X178037016Y-83970731D01*
X177582770Y-83417230D01*
X177029269Y-82962984D01*
X176586953Y-82726561D01*
X176917899Y-82626170D01*
X177332240Y-82404700D01*
X177695412Y-82106652D01*
X177993460Y-81743480D01*
X178214930Y-81329139D01*
X178262597Y-81172000D01*
X189930678Y-81172000D01*
X189968000Y-81175676D01*
X190005322Y-81172000D01*
X190005333Y-81172000D01*
X190116986Y-81161003D01*
X190260247Y-81117546D01*
X190392276Y-81046974D01*
X190508001Y-80952001D01*
X190531804Y-80922997D01*
X193671003Y-77783799D01*
X193700001Y-77760001D01*
X193794974Y-77644276D01*
X193865546Y-77512247D01*
X193909003Y-77368986D01*
X193920000Y-77257333D01*
X193920000Y-77257325D01*
X193923676Y-77220000D01*
X193920000Y-77182675D01*
X193920000Y-62287333D01*
X193923677Y-62250000D01*
X193920000Y-62212667D01*
X193920000Y-44267323D01*
X193923676Y-44230000D01*
X193920000Y-44192677D01*
X193920000Y-31497322D01*
X193923676Y-31459999D01*
X193920000Y-31422676D01*
X193920000Y-31422667D01*
X193909003Y-31311014D01*
X193865546Y-31167753D01*
X193794974Y-31035724D01*
X193779361Y-31016699D01*
X193723799Y-30948996D01*
X193723795Y-30948992D01*
X193700001Y-30919999D01*
X193671009Y-30896206D01*
X190743804Y-27969003D01*
X190720001Y-27939999D01*
X190683447Y-27910000D01*
X194290001Y-27910000D01*
X194290000Y-149290000D01*
X50710000Y-149290000D01*
X50710000Y-143996099D01*
X69441700Y-143996099D01*
X69441700Y-144443901D01*
X69529061Y-144883097D01*
X69700427Y-145296812D01*
X69949212Y-145669145D01*
X70265855Y-145985788D01*
X70638188Y-146234573D01*
X71051903Y-146405939D01*
X71491099Y-146493300D01*
X71938901Y-146493300D01*
X72378097Y-146405939D01*
X72791812Y-146234573D01*
X73164145Y-145985788D01*
X73480788Y-145669145D01*
X73729573Y-145296812D01*
X73900939Y-144883097D01*
X73988300Y-144443901D01*
X73988300Y-143996099D01*
X171051700Y-143996099D01*
X171051700Y-144443901D01*
X171139061Y-144883097D01*
X171310427Y-145296812D01*
X171559212Y-145669145D01*
X171875855Y-145985788D01*
X172248188Y-146234573D01*
X172661903Y-146405939D01*
X173101099Y-146493300D01*
X173548901Y-146493300D01*
X173988097Y-146405939D01*
X174401812Y-146234573D01*
X174774145Y-145985788D01*
X175090788Y-145669145D01*
X175339573Y-145296812D01*
X175510939Y-144883097D01*
X175598300Y-144443901D01*
X175598300Y-143996099D01*
X175510939Y-143556903D01*
X175339573Y-143143188D01*
X175090788Y-142770855D01*
X174774145Y-142454212D01*
X174401812Y-142205427D01*
X173988097Y-142034061D01*
X173548901Y-141946700D01*
X173101099Y-141946700D01*
X172661903Y-142034061D01*
X172248188Y-142205427D01*
X171875855Y-142454212D01*
X171559212Y-142770855D01*
X171310427Y-143143188D01*
X171139061Y-143556903D01*
X171051700Y-143996099D01*
X73988300Y-143996099D01*
X73900939Y-143556903D01*
X73729573Y-143143188D01*
X73480788Y-142770855D01*
X73164145Y-142454212D01*
X72791812Y-142205427D01*
X72378097Y-142034061D01*
X71938901Y-141946700D01*
X71491099Y-141946700D01*
X71051903Y-142034061D01*
X70638188Y-142205427D01*
X70265855Y-142454212D01*
X69949212Y-142770855D01*
X69700427Y-143143188D01*
X69529061Y-143556903D01*
X69441700Y-143996099D01*
X50710000Y-143996099D01*
X50710000Y-133869017D01*
X175555510Y-133869017D01*
X175555510Y-134190983D01*
X175618322Y-134506763D01*
X175741533Y-134804222D01*
X175920408Y-135071927D01*
X176148073Y-135299592D01*
X176415778Y-135478467D01*
X176713237Y-135601678D01*
X177029017Y-135664490D01*
X177350983Y-135664490D01*
X177666763Y-135601678D01*
X177964222Y-135478467D01*
X178231927Y-135299592D01*
X178459592Y-135071927D01*
X178638467Y-134804222D01*
X178761678Y-134506763D01*
X178824490Y-134190983D01*
X178824490Y-133869017D01*
X178761678Y-133553237D01*
X178638467Y-133255778D01*
X178459592Y-132988073D01*
X178231927Y-132760408D01*
X177964222Y-132581533D01*
X177666763Y-132458322D01*
X177350983Y-132395510D01*
X177029017Y-132395510D01*
X176713237Y-132458322D01*
X176415778Y-132581533D01*
X176148073Y-132760408D01*
X175920408Y-132988073D01*
X175741533Y-133255778D01*
X175618322Y-133553237D01*
X175555510Y-133869017D01*
X50710000Y-133869017D01*
X50710000Y-117067361D01*
X74565000Y-117067361D01*
X74565000Y-117832639D01*
X74714298Y-118583213D01*
X75007158Y-119290238D01*
X75432323Y-119926543D01*
X75973457Y-120467677D01*
X76609762Y-120892842D01*
X77316787Y-121185702D01*
X78067361Y-121335000D01*
X78832639Y-121335000D01*
X79583213Y-121185702D01*
X80290238Y-120892842D01*
X80926543Y-120467677D01*
X81467677Y-119926543D01*
X81892842Y-119290238D01*
X82185702Y-118583213D01*
X82335000Y-117832639D01*
X82335000Y-117067361D01*
X82185702Y-116316787D01*
X81892842Y-115609762D01*
X81467677Y-114973457D01*
X80926543Y-114432323D01*
X80290238Y-114007158D01*
X79583213Y-113714298D01*
X78832639Y-113565000D01*
X78067361Y-113565000D01*
X77316787Y-113714298D01*
X76609762Y-114007158D01*
X75973457Y-114432323D01*
X75432323Y-114973457D01*
X75007158Y-115609762D01*
X74714298Y-116316787D01*
X74565000Y-117067361D01*
X50710000Y-117067361D01*
X50710000Y-99579307D01*
X55648000Y-99579307D01*
X55648000Y-100820693D01*
X55890182Y-102038226D01*
X56365240Y-103185117D01*
X57054917Y-104217291D01*
X57932709Y-105095083D01*
X58964883Y-105784760D01*
X60111774Y-106259818D01*
X61329307Y-106502000D01*
X62570693Y-106502000D01*
X63788226Y-106259818D01*
X64935117Y-105784760D01*
X65967291Y-105095083D01*
X66845083Y-104217291D01*
X67534760Y-103185117D01*
X68009818Y-102038226D01*
X68050242Y-101835000D01*
X71252762Y-101835000D01*
X77078176Y-107660415D01*
X83815676Y-114397915D01*
X83815681Y-114397919D01*
X89453176Y-120035415D01*
X89453181Y-120035419D01*
X95140676Y-125722916D01*
X95140687Y-125722925D01*
X99507080Y-130089319D01*
X99558286Y-130151714D01*
X99807248Y-130356031D01*
X99936282Y-130425001D01*
X100091285Y-130507852D01*
X100399483Y-130601343D01*
X100720000Y-130632911D01*
X100800322Y-130625000D01*
X170150199Y-130625000D01*
X170276847Y-130751649D01*
X170300932Y-130872729D01*
X170371414Y-131042889D01*
X170473738Y-131196028D01*
X170603972Y-131326262D01*
X170757111Y-131428586D01*
X170927271Y-131499068D01*
X171107911Y-131535000D01*
X171292089Y-131535000D01*
X171472729Y-131499068D01*
X171642889Y-131428586D01*
X171796028Y-131326262D01*
X171926262Y-131196028D01*
X172028586Y-131042889D01*
X172099068Y-130872729D01*
X172135000Y-130692089D01*
X172135000Y-130625000D01*
X175431742Y-130625000D01*
X175478286Y-130681714D01*
X175540685Y-130732923D01*
X176507079Y-131699318D01*
X176558286Y-131761714D01*
X176807248Y-131966031D01*
X177017262Y-132078286D01*
X177091285Y-132117852D01*
X177399483Y-132211343D01*
X177720000Y-132242911D01*
X177800322Y-132235000D01*
X179122643Y-132235000D01*
X179209484Y-132261343D01*
X179530000Y-132292911D01*
X179610322Y-132285000D01*
X182180322Y-132285000D01*
X182420516Y-132261343D01*
X182507357Y-132235000D01*
X184622762Y-132235000D01*
X186305001Y-133917240D01*
X186305000Y-139633593D01*
X186275052Y-139624508D01*
X186150570Y-139612248D01*
X184649430Y-139612248D01*
X184524948Y-139624508D01*
X184405250Y-139660818D01*
X184294936Y-139719783D01*
X184198245Y-139799135D01*
X184118893Y-139895826D01*
X184059928Y-140006140D01*
X184023618Y-140125838D01*
X184014047Y-140223014D01*
X183844485Y-140016404D01*
X183633505Y-139843256D01*
X183392799Y-139714597D01*
X183131618Y-139635368D01*
X182860000Y-139608616D01*
X182588381Y-139635368D01*
X182327200Y-139714597D01*
X182086494Y-139843256D01*
X181875514Y-140016405D01*
X181702366Y-140227385D01*
X181573707Y-140468091D01*
X181494478Y-140729272D01*
X181474430Y-140932824D01*
X181474430Y-142067177D01*
X181494478Y-142270729D01*
X181573707Y-142531910D01*
X181702366Y-142772616D01*
X181875515Y-142983596D01*
X182086495Y-143156744D01*
X182327201Y-143285403D01*
X182588382Y-143364632D01*
X182860000Y-143391384D01*
X183131619Y-143364632D01*
X183392800Y-143285403D01*
X183633506Y-143156744D01*
X183844486Y-142983596D01*
X184014047Y-142776986D01*
X184023618Y-142874162D01*
X184059928Y-142993860D01*
X184118893Y-143104174D01*
X184198245Y-143200865D01*
X184294936Y-143280217D01*
X184405250Y-143339182D01*
X184524948Y-143375492D01*
X184649430Y-143387752D01*
X186150570Y-143387752D01*
X186275052Y-143375492D01*
X186394750Y-143339182D01*
X186505064Y-143280217D01*
X186601755Y-143200865D01*
X186681107Y-143104174D01*
X186740072Y-142993860D01*
X186776382Y-142874162D01*
X186785953Y-142776986D01*
X186955515Y-142983596D01*
X187166495Y-143156744D01*
X187407201Y-143285403D01*
X187668382Y-143364632D01*
X187940000Y-143391384D01*
X188211619Y-143364632D01*
X188472800Y-143285403D01*
X188713506Y-143156744D01*
X188924486Y-142983596D01*
X189097634Y-142772616D01*
X189226293Y-142531910D01*
X189236878Y-142497015D01*
X189306031Y-142412752D01*
X189457852Y-142128715D01*
X189551343Y-141820516D01*
X189575000Y-141580322D01*
X189575000Y-133320322D01*
X189582911Y-133240000D01*
X189551343Y-132919483D01*
X189457852Y-132611285D01*
X189441949Y-132581533D01*
X189306031Y-132327248D01*
X189101714Y-132078286D01*
X189039319Y-132027080D01*
X186512925Y-129500687D01*
X186461714Y-129438286D01*
X186212752Y-129233969D01*
X185928715Y-129082148D01*
X185620516Y-128988657D01*
X185380322Y-128965000D01*
X185380319Y-128965000D01*
X185300000Y-128957089D01*
X185219681Y-128965000D01*
X183348829Y-128965000D01*
X183456744Y-128833506D01*
X183585403Y-128592800D01*
X183664632Y-128331619D01*
X183691384Y-128060000D01*
X183664632Y-127788381D01*
X183585403Y-127527200D01*
X183456744Y-127286494D01*
X183283596Y-127075514D01*
X183072616Y-126902366D01*
X182831910Y-126773707D01*
X182570729Y-126694478D01*
X182367177Y-126674430D01*
X181232823Y-126674430D01*
X181029271Y-126694478D01*
X180768090Y-126773707D01*
X180527384Y-126902366D01*
X180316404Y-127075514D01*
X180143256Y-127286494D01*
X180014597Y-127527200D01*
X179935368Y-127788381D01*
X179908616Y-128060000D01*
X179935368Y-128331619D01*
X180014597Y-128592800D01*
X180143256Y-128833506D01*
X180292205Y-129015000D01*
X179887357Y-129015000D01*
X179800516Y-128988657D01*
X179560322Y-128965000D01*
X179560319Y-128965000D01*
X179480000Y-128957089D01*
X179399681Y-128965000D01*
X178397239Y-128965000D01*
X178267689Y-128835451D01*
X178251343Y-128669484D01*
X178157852Y-128361285D01*
X178006031Y-128077248D01*
X177861426Y-127901046D01*
X177964222Y-127858467D01*
X178231927Y-127679592D01*
X178459592Y-127451927D01*
X178638467Y-127184222D01*
X178761678Y-126886763D01*
X178824490Y-126570983D01*
X178824490Y-126249017D01*
X178761678Y-125933237D01*
X178638467Y-125635778D01*
X178459592Y-125368073D01*
X178231927Y-125140408D01*
X177964222Y-124961533D01*
X177666763Y-124838322D01*
X177350983Y-124775510D01*
X177029017Y-124775510D01*
X176713237Y-124838322D01*
X176415778Y-124961533D01*
X176148073Y-125140408D01*
X175920408Y-125368073D01*
X175741533Y-125635778D01*
X175618322Y-125933237D01*
X175555510Y-126249017D01*
X175555510Y-126570983D01*
X175618322Y-126886763D01*
X175741533Y-127184222D01*
X175855643Y-127355000D01*
X101397239Y-127355000D01*
X97452925Y-123410687D01*
X97452916Y-123410676D01*
X91765419Y-117723181D01*
X91765415Y-117723176D01*
X91109600Y-117067361D01*
X158565000Y-117067361D01*
X158565000Y-117832639D01*
X158714298Y-118583213D01*
X159007158Y-119290238D01*
X159432323Y-119926543D01*
X159973457Y-120467677D01*
X160609762Y-120892842D01*
X161316787Y-121185702D01*
X162067361Y-121335000D01*
X162832639Y-121335000D01*
X163583213Y-121185702D01*
X164290238Y-120892842D01*
X164380061Y-120832824D01*
X181274430Y-120832824D01*
X181274430Y-121967177D01*
X181294478Y-122170729D01*
X181373707Y-122431910D01*
X181502366Y-122672616D01*
X181675515Y-122883596D01*
X181886495Y-123056744D01*
X182127201Y-123185403D01*
X182388382Y-123264632D01*
X182660000Y-123291384D01*
X182931619Y-123264632D01*
X183192800Y-123185403D01*
X183433506Y-123056744D01*
X183644486Y-122883596D01*
X183814047Y-122676986D01*
X183823618Y-122774162D01*
X183859928Y-122893860D01*
X183918893Y-123004174D01*
X183998245Y-123100865D01*
X184094936Y-123180217D01*
X184205250Y-123239182D01*
X184324948Y-123275492D01*
X184449430Y-123287752D01*
X185950570Y-123287752D01*
X186075052Y-123275492D01*
X186194750Y-123239182D01*
X186305064Y-123180217D01*
X186401755Y-123100865D01*
X186481107Y-123004174D01*
X186540072Y-122893860D01*
X186576382Y-122774162D01*
X186585953Y-122676986D01*
X186755515Y-122883596D01*
X186966495Y-123056744D01*
X187207201Y-123185403D01*
X187468382Y-123264632D01*
X187740000Y-123291384D01*
X188011619Y-123264632D01*
X188272800Y-123185403D01*
X188513506Y-123056744D01*
X188724486Y-122883596D01*
X188897634Y-122672616D01*
X189026293Y-122431910D01*
X189105522Y-122170729D01*
X189125570Y-121967177D01*
X189125570Y-120832823D01*
X189105522Y-120629271D01*
X189026293Y-120368090D01*
X188897634Y-120127384D01*
X188724485Y-119916404D01*
X188513505Y-119743256D01*
X188272799Y-119614597D01*
X188011618Y-119535368D01*
X187740000Y-119508616D01*
X187468381Y-119535368D01*
X187207200Y-119614597D01*
X186966494Y-119743256D01*
X186755514Y-119916405D01*
X186585953Y-120123015D01*
X186576382Y-120025838D01*
X186540072Y-119906140D01*
X186481107Y-119795826D01*
X186401755Y-119699135D01*
X186305064Y-119619783D01*
X186194750Y-119560818D01*
X186075052Y-119524508D01*
X185950570Y-119512248D01*
X184449430Y-119512248D01*
X184324948Y-119524508D01*
X184205250Y-119560818D01*
X184094936Y-119619783D01*
X183998245Y-119699135D01*
X183918893Y-119795826D01*
X183859928Y-119906140D01*
X183823618Y-120025838D01*
X183814047Y-120123014D01*
X183644485Y-119916404D01*
X183433505Y-119743256D01*
X183192799Y-119614597D01*
X182931618Y-119535368D01*
X182660000Y-119508616D01*
X182388381Y-119535368D01*
X182127200Y-119614597D01*
X181886494Y-119743256D01*
X181675514Y-119916405D01*
X181502366Y-120127385D01*
X181373707Y-120368091D01*
X181294478Y-120629272D01*
X181274430Y-120832824D01*
X164380061Y-120832824D01*
X164926543Y-120467677D01*
X165467677Y-119926543D01*
X165892842Y-119290238D01*
X166185702Y-118583213D01*
X166335000Y-117832639D01*
X166335000Y-117067361D01*
X166185702Y-116316787D01*
X165892842Y-115609762D01*
X165467677Y-114973457D01*
X164926543Y-114432323D01*
X164290238Y-114007158D01*
X163583213Y-113714298D01*
X162832639Y-113565000D01*
X162067361Y-113565000D01*
X161316787Y-113714298D01*
X160609762Y-114007158D01*
X159973457Y-114432323D01*
X159432323Y-114973457D01*
X159007158Y-115609762D01*
X158714298Y-116316787D01*
X158565000Y-117067361D01*
X91109600Y-117067361D01*
X86127919Y-112085681D01*
X86127915Y-112085676D01*
X79390415Y-105348176D01*
X73142925Y-99100687D01*
X73091714Y-99038286D01*
X72842752Y-98833969D01*
X72558715Y-98682148D01*
X72250516Y-98588657D01*
X72010322Y-98565000D01*
X72010319Y-98565000D01*
X71930000Y-98557089D01*
X71849681Y-98565000D01*
X68050242Y-98565000D01*
X68009818Y-98361774D01*
X67534760Y-97214883D01*
X66845083Y-96182709D01*
X65967291Y-95304917D01*
X64935117Y-94615240D01*
X63788226Y-94140182D01*
X62781773Y-93939986D01*
X63813226Y-93734818D01*
X64960117Y-93259760D01*
X65992291Y-92570083D01*
X66077375Y-92484999D01*
X69522761Y-92484999D01*
X70750676Y-93712915D01*
X70750681Y-93712919D01*
X72662080Y-95624318D01*
X72713286Y-95686714D01*
X72962248Y-95891031D01*
X73246285Y-96042852D01*
X73554484Y-96136343D01*
X73794678Y-96160000D01*
X73794680Y-96160000D01*
X73874999Y-96167911D01*
X73955319Y-96160000D01*
X80852762Y-96160000D01*
X87452080Y-102759319D01*
X87503286Y-102821714D01*
X87752248Y-103026031D01*
X87982279Y-103148985D01*
X88036285Y-103177852D01*
X88344483Y-103271343D01*
X88665000Y-103302911D01*
X88745322Y-103295000D01*
X111622762Y-103295000D01*
X111692075Y-103364313D01*
X111743286Y-103426714D01*
X111805686Y-103477924D01*
X113217083Y-104889323D01*
X113268286Y-104951714D01*
X113517248Y-105156031D01*
X113760004Y-105285787D01*
X113801285Y-105307852D01*
X114051523Y-105383761D01*
X118947080Y-110279319D01*
X118998286Y-110341714D01*
X119247248Y-110546031D01*
X119531285Y-110697852D01*
X119839484Y-110791343D01*
X120079678Y-110815000D01*
X120079680Y-110815000D01*
X120159999Y-110822911D01*
X120240319Y-110815000D01*
X121639678Y-110815000D01*
X121720000Y-110822911D01*
X121800322Y-110815000D01*
X176932762Y-110815000D01*
X177517079Y-111399318D01*
X177568286Y-111461714D01*
X177817248Y-111666031D01*
X178101285Y-111817852D01*
X178409484Y-111911343D01*
X178649678Y-111935000D01*
X178649680Y-111935000D01*
X178729999Y-111942911D01*
X178810319Y-111935000D01*
X182080322Y-111935000D01*
X182320516Y-111911343D01*
X182628715Y-111817852D01*
X182912752Y-111666031D01*
X183161714Y-111461714D01*
X183188142Y-111429511D01*
X183322616Y-111357634D01*
X183533596Y-111184486D01*
X183706744Y-110973506D01*
X183835403Y-110732800D01*
X183914632Y-110471619D01*
X183941384Y-110200000D01*
X183914632Y-109928381D01*
X183835403Y-109667200D01*
X183706744Y-109426494D01*
X183533596Y-109215514D01*
X183322616Y-109042366D01*
X183112392Y-108930000D01*
X183322616Y-108817634D01*
X183533596Y-108644486D01*
X183706744Y-108433506D01*
X183835403Y-108192800D01*
X183914632Y-107931619D01*
X183941384Y-107660000D01*
X183914632Y-107388381D01*
X183835403Y-107127200D01*
X183706744Y-106886494D01*
X183533596Y-106675514D01*
X183322616Y-106502366D01*
X183081910Y-106373707D01*
X182820729Y-106294478D01*
X182617177Y-106274430D01*
X182560000Y-106274430D01*
X182560000Y-101994358D01*
X182574222Y-101988467D01*
X182841927Y-101809592D01*
X183069592Y-101581927D01*
X183248467Y-101314222D01*
X183371678Y-101016763D01*
X183434490Y-100700983D01*
X183434490Y-100379017D01*
X183371678Y-100063237D01*
X183248467Y-99765778D01*
X183069592Y-99498073D01*
X182841927Y-99270408D01*
X182574222Y-99091533D01*
X182276763Y-98968322D01*
X181960983Y-98905510D01*
X181639017Y-98905510D01*
X181323237Y-98968322D01*
X181025778Y-99091533D01*
X180758073Y-99270408D01*
X180530408Y-99498073D01*
X180351533Y-99765778D01*
X180228322Y-100063237D01*
X180165510Y-100379017D01*
X180165510Y-100700983D01*
X180228322Y-101016763D01*
X180351533Y-101314222D01*
X180530408Y-101581927D01*
X180758073Y-101809592D01*
X181025778Y-101988467D01*
X181040000Y-101994358D01*
X181040001Y-106367060D01*
X181018090Y-106373707D01*
X180777384Y-106502366D01*
X180566404Y-106675514D01*
X180393256Y-106886494D01*
X180264597Y-107127200D01*
X180185368Y-107388381D01*
X180158616Y-107660000D01*
X180185368Y-107931619D01*
X180264597Y-108192800D01*
X180393256Y-108433506D01*
X180566404Y-108644486D01*
X180591400Y-108665000D01*
X179407239Y-108665000D01*
X178822924Y-108080686D01*
X178771714Y-108018286D01*
X178522752Y-107813969D01*
X178238715Y-107662148D01*
X177930516Y-107568657D01*
X177690322Y-107545000D01*
X177690319Y-107545000D01*
X177610000Y-107537089D01*
X177529681Y-107545000D01*
X122397240Y-107545000D01*
X117132919Y-102280681D01*
X117132915Y-102280676D01*
X116017924Y-101165686D01*
X115966714Y-101103286D01*
X115717752Y-100898969D01*
X115433715Y-100747148D01*
X115125516Y-100653657D01*
X114885322Y-100630000D01*
X114885319Y-100630000D01*
X114805000Y-100622089D01*
X114786181Y-100623943D01*
X114722925Y-100560687D01*
X114671714Y-100498286D01*
X114422752Y-100293969D01*
X114138715Y-100142148D01*
X113830516Y-100048657D01*
X113590322Y-100025000D01*
X113590319Y-100025000D01*
X113510000Y-100017089D01*
X113429681Y-100025000D01*
X112380319Y-100025000D01*
X112300000Y-100017089D01*
X112219681Y-100025000D01*
X89342239Y-100025000D01*
X82742925Y-93425687D01*
X82691714Y-93363286D01*
X82442752Y-93158969D01*
X82158715Y-93007148D01*
X81850516Y-92913657D01*
X81610322Y-92890000D01*
X81610319Y-92890000D01*
X81530000Y-92882089D01*
X81449681Y-92890000D01*
X74552239Y-92890000D01*
X73062919Y-91400681D01*
X73062915Y-91400676D01*
X71412924Y-89750685D01*
X71361713Y-89688285D01*
X71112751Y-89483968D01*
X70828714Y-89332147D01*
X70520515Y-89238656D01*
X70280321Y-89214999D01*
X70280318Y-89214999D01*
X70199999Y-89207088D01*
X70119680Y-89214999D01*
X68094139Y-89214999D01*
X68277000Y-88295693D01*
X68277000Y-87054307D01*
X68034818Y-85836774D01*
X67559760Y-84689883D01*
X66870083Y-83657709D01*
X65992291Y-82779917D01*
X64960117Y-82090240D01*
X63813226Y-81615182D01*
X62595693Y-81373000D01*
X61354307Y-81373000D01*
X60136774Y-81615182D01*
X58989883Y-82090240D01*
X57957709Y-82779917D01*
X57079917Y-83657709D01*
X56390240Y-84689883D01*
X55915182Y-85836774D01*
X55673000Y-87054307D01*
X55673000Y-88295693D01*
X55915182Y-89513226D01*
X56390240Y-90660117D01*
X57079917Y-91692291D01*
X57957709Y-92570083D01*
X58989883Y-93259760D01*
X60136774Y-93734818D01*
X61143227Y-93935014D01*
X60111774Y-94140182D01*
X58964883Y-94615240D01*
X57932709Y-95304917D01*
X57054917Y-96182709D01*
X56365240Y-97214883D01*
X55890182Y-98361774D01*
X55648000Y-99579307D01*
X50710000Y-99579307D01*
X50710000Y-74179307D01*
X55673000Y-74179307D01*
X55673000Y-75420693D01*
X55915182Y-76638226D01*
X56390240Y-77785117D01*
X57079917Y-78817291D01*
X57957709Y-79695083D01*
X58989883Y-80384760D01*
X60136774Y-80859818D01*
X61354307Y-81102000D01*
X62595693Y-81102000D01*
X63813226Y-80859818D01*
X64960117Y-80384760D01*
X65969966Y-79710000D01*
X75822762Y-79710000D01*
X76440001Y-80327240D01*
X76440000Y-83020000D01*
X76432089Y-83100320D01*
X76440000Y-83180639D01*
X76440000Y-83180641D01*
X76463657Y-83420835D01*
X76557148Y-83729034D01*
X76708969Y-84013071D01*
X76913286Y-84262034D01*
X76975686Y-84313244D01*
X77840001Y-85177559D01*
X77840000Y-87830321D01*
X77863657Y-88070515D01*
X77957148Y-88378714D01*
X78086358Y-88620449D01*
X78086358Y-88999680D01*
X78098618Y-89124162D01*
X78134928Y-89243860D01*
X78193893Y-89354174D01*
X78273245Y-89450865D01*
X78369936Y-89530217D01*
X78480250Y-89589182D01*
X78599948Y-89625492D01*
X78724430Y-89637752D01*
X80225570Y-89637752D01*
X80350052Y-89625492D01*
X80469750Y-89589182D01*
X80580064Y-89530217D01*
X80676755Y-89450865D01*
X80756107Y-89354174D01*
X80815072Y-89243860D01*
X80851382Y-89124162D01*
X80863642Y-88999680D01*
X80863642Y-88620450D01*
X80992852Y-88378715D01*
X81086343Y-88070516D01*
X81110000Y-87830322D01*
X81110000Y-84580639D01*
X81117911Y-84500320D01*
X81109794Y-84417911D01*
X81086343Y-84179804D01*
X80992852Y-83871605D01*
X80841031Y-83587568D01*
X80636714Y-83338606D01*
X80574318Y-83287399D01*
X79710000Y-82423082D01*
X79710000Y-80945000D01*
X80921171Y-80945000D01*
X80813256Y-81076494D01*
X80684597Y-81317200D01*
X80605368Y-81578381D01*
X80578616Y-81850000D01*
X80605368Y-82121619D01*
X80684597Y-82382800D01*
X80813256Y-82623506D01*
X80986404Y-82834486D01*
X81197384Y-83007634D01*
X81438090Y-83136293D01*
X81699271Y-83215522D01*
X81902823Y-83235570D01*
X83037177Y-83235570D01*
X83240729Y-83215522D01*
X83501910Y-83136293D01*
X83742616Y-83007634D01*
X83953596Y-82834486D01*
X84126744Y-82623506D01*
X84133963Y-82610000D01*
X87862678Y-82610000D01*
X87900000Y-82613676D01*
X87937322Y-82610000D01*
X87937333Y-82610000D01*
X88048986Y-82599003D01*
X88192247Y-82555546D01*
X88324276Y-82484974D01*
X88440001Y-82390001D01*
X88463804Y-82360997D01*
X92511003Y-78313799D01*
X92540001Y-78290001D01*
X92634974Y-78174276D01*
X92705546Y-78042247D01*
X92749003Y-77898986D01*
X92760000Y-77787333D01*
X92763677Y-77750000D01*
X92760000Y-77712667D01*
X92760000Y-47632823D01*
X93554430Y-47632823D01*
X93554430Y-48767176D01*
X93574478Y-48970728D01*
X93653707Y-49231909D01*
X93782366Y-49472615D01*
X93955514Y-49683595D01*
X94166494Y-49856744D01*
X94407200Y-49985403D01*
X94668381Y-50064632D01*
X94940000Y-50091384D01*
X95211618Y-50064632D01*
X95472799Y-49985403D01*
X95713505Y-49856744D01*
X95924485Y-49683596D01*
X96097634Y-49472616D01*
X96226293Y-49231910D01*
X96305522Y-48970729D01*
X96325570Y-48767177D01*
X96325570Y-47829117D01*
X100865000Y-47829117D01*
X100865000Y-48170883D01*
X100931675Y-48506081D01*
X101062463Y-48821831D01*
X101252337Y-49105998D01*
X101494002Y-49347663D01*
X101778169Y-49537537D01*
X102093919Y-49668325D01*
X102429117Y-49735000D01*
X102770883Y-49735000D01*
X103106081Y-49668325D01*
X103421831Y-49537537D01*
X103705998Y-49347663D01*
X103947663Y-49105998D01*
X104137537Y-48821831D01*
X104268325Y-48506081D01*
X104335000Y-48170883D01*
X104335000Y-47829117D01*
X107865000Y-47829117D01*
X107865000Y-48170883D01*
X107931675Y-48506081D01*
X108062463Y-48821831D01*
X108252337Y-49105998D01*
X108494002Y-49347663D01*
X108778169Y-49537537D01*
X109093919Y-49668325D01*
X109429117Y-49735000D01*
X109770883Y-49735000D01*
X110106081Y-49668325D01*
X110421831Y-49537537D01*
X110705998Y-49347663D01*
X110947663Y-49105998D01*
X111137537Y-48821831D01*
X111268325Y-48506081D01*
X111335000Y-48170883D01*
X111335000Y-47829117D01*
X111268325Y-47493919D01*
X111137537Y-47178169D01*
X110947663Y-46894002D01*
X110705998Y-46652337D01*
X110421831Y-46462463D01*
X110106081Y-46331675D01*
X109770883Y-46265000D01*
X109429117Y-46265000D01*
X109093919Y-46331675D01*
X108778169Y-46462463D01*
X108494002Y-46652337D01*
X108252337Y-46894002D01*
X108062463Y-47178169D01*
X107931675Y-47493919D01*
X107865000Y-47829117D01*
X104335000Y-47829117D01*
X104268325Y-47493919D01*
X104137537Y-47178169D01*
X103947663Y-46894002D01*
X103705998Y-46652337D01*
X103421831Y-46462463D01*
X103106081Y-46331675D01*
X102770883Y-46265000D01*
X102429117Y-46265000D01*
X102093919Y-46331675D01*
X101778169Y-46462463D01*
X101494002Y-46652337D01*
X101252337Y-46894002D01*
X101062463Y-47178169D01*
X100931675Y-47493919D01*
X100865000Y-47829117D01*
X96325570Y-47829117D01*
X96325570Y-47632823D01*
X96305522Y-47429271D01*
X96226293Y-47168090D01*
X96097634Y-46927384D01*
X95924486Y-46716404D01*
X95713506Y-46543256D01*
X95472800Y-46414597D01*
X95211619Y-46335368D01*
X94940000Y-46308616D01*
X94668382Y-46335368D01*
X94407201Y-46414597D01*
X94166495Y-46543256D01*
X93955515Y-46716404D01*
X93782366Y-46927384D01*
X93653707Y-47168090D01*
X93574478Y-47429271D01*
X93554430Y-47632823D01*
X92760000Y-47632823D01*
X92760000Y-46387333D01*
X92763677Y-46350000D01*
X92749003Y-46201014D01*
X92705546Y-46057753D01*
X92634974Y-45925724D01*
X92563799Y-45838997D01*
X92540001Y-45809999D01*
X92511004Y-45786202D01*
X91760000Y-45035199D01*
X91760000Y-44164358D01*
X91774222Y-44158467D01*
X92041927Y-43979592D01*
X92269592Y-43751927D01*
X92448467Y-43484222D01*
X92571678Y-43186763D01*
X92634490Y-42870983D01*
X92634490Y-42549017D01*
X96985510Y-42549017D01*
X96985510Y-42870983D01*
X97048322Y-43186763D01*
X97171533Y-43484222D01*
X97350408Y-43751927D01*
X97578073Y-43979592D01*
X97845778Y-44158467D01*
X98143237Y-44281678D01*
X98459017Y-44344490D01*
X98780983Y-44344490D01*
X99096763Y-44281678D01*
X99394222Y-44158467D01*
X99661927Y-43979592D01*
X99889592Y-43751927D01*
X100068467Y-43484222D01*
X100191678Y-43186763D01*
X100254490Y-42870983D01*
X100254490Y-42549017D01*
X100191678Y-42233237D01*
X100068467Y-41935778D01*
X99889592Y-41668073D01*
X99661927Y-41440408D01*
X99394222Y-41261533D01*
X99096763Y-41138322D01*
X98780983Y-41075510D01*
X98459017Y-41075510D01*
X98143237Y-41138322D01*
X97845778Y-41261533D01*
X97578073Y-41440408D01*
X97350408Y-41668073D01*
X97171533Y-41935778D01*
X97048322Y-42233237D01*
X96985510Y-42549017D01*
X92634490Y-42549017D01*
X92571678Y-42233237D01*
X92448467Y-41935778D01*
X92269592Y-41668073D01*
X92041927Y-41440408D01*
X91774222Y-41261533D01*
X91476763Y-41138322D01*
X91160983Y-41075510D01*
X90839017Y-41075510D01*
X90523237Y-41138322D01*
X90225778Y-41261533D01*
X89958073Y-41440408D01*
X89730408Y-41668073D01*
X89551533Y-41935778D01*
X89428322Y-42233237D01*
X89365510Y-42549017D01*
X89365510Y-42870983D01*
X89428322Y-43186763D01*
X89551533Y-43484222D01*
X89730408Y-43751927D01*
X89958073Y-43979592D01*
X90225778Y-44158467D01*
X90240001Y-44164358D01*
X90240001Y-45312668D01*
X90236324Y-45350000D01*
X90250998Y-45498985D01*
X90294454Y-45642246D01*
X90365026Y-45774276D01*
X90418142Y-45838997D01*
X90460000Y-45890001D01*
X90488998Y-45913799D01*
X91240000Y-46664802D01*
X91240000Y-47576270D01*
X91225522Y-47429271D01*
X91146293Y-47168090D01*
X91017634Y-46927384D01*
X90844486Y-46716404D01*
X90633506Y-46543256D01*
X90392800Y-46414597D01*
X90131619Y-46335368D01*
X89860000Y-46308616D01*
X89588382Y-46335368D01*
X89327201Y-46414597D01*
X89086495Y-46543256D01*
X88875515Y-46716404D01*
X88702366Y-46927384D01*
X88573707Y-47168090D01*
X88494478Y-47429271D01*
X88474430Y-47632823D01*
X88474430Y-48767176D01*
X88494478Y-48970728D01*
X88573707Y-49231909D01*
X88702366Y-49472615D01*
X88875514Y-49683595D01*
X89086494Y-49856744D01*
X89327200Y-49985403D01*
X89588381Y-50064632D01*
X89860000Y-50091384D01*
X90131618Y-50064632D01*
X90392799Y-49985403D01*
X90633505Y-49856744D01*
X90844485Y-49683596D01*
X91017634Y-49472616D01*
X91146293Y-49231910D01*
X91225522Y-48970729D01*
X91240000Y-48823730D01*
X91240001Y-77435197D01*
X87585199Y-81090000D01*
X84133963Y-81090000D01*
X84126744Y-81076494D01*
X83953596Y-80865514D01*
X83742616Y-80692366D01*
X83532392Y-80580000D01*
X83742616Y-80467634D01*
X83953596Y-80294486D01*
X84126744Y-80083506D01*
X84255403Y-79842800D01*
X84334632Y-79581619D01*
X84361384Y-79310000D01*
X84334632Y-79038381D01*
X84255403Y-78777200D01*
X84126744Y-78536494D01*
X83953596Y-78325514D01*
X83742616Y-78152366D01*
X83532392Y-78040000D01*
X83742616Y-77927634D01*
X83953596Y-77754486D01*
X84126744Y-77543506D01*
X84255403Y-77302800D01*
X84334632Y-77041619D01*
X84361384Y-76770000D01*
X84334632Y-76498381D01*
X84255403Y-76237200D01*
X84126744Y-75996494D01*
X83953596Y-75785514D01*
X83742616Y-75612366D01*
X83501910Y-75483707D01*
X83240729Y-75404478D01*
X83037177Y-75384430D01*
X81902823Y-75384430D01*
X81699271Y-75404478D01*
X81438090Y-75483707D01*
X81197384Y-75612366D01*
X80986404Y-75785514D01*
X80813256Y-75996494D01*
X80684597Y-76237200D01*
X80605368Y-76498381D01*
X80578616Y-76770000D01*
X80605368Y-77041619D01*
X80684597Y-77302800D01*
X80813256Y-77543506D01*
X80921171Y-77675000D01*
X78412239Y-77675000D01*
X77712924Y-76975686D01*
X77661714Y-76913286D01*
X77412752Y-76708969D01*
X77128715Y-76557148D01*
X76820516Y-76463657D01*
X76580322Y-76440000D01*
X76580319Y-76440000D01*
X76500000Y-76432089D01*
X76419681Y-76440000D01*
X68074248Y-76440000D01*
X68277000Y-75420693D01*
X68277000Y-74179307D01*
X68034818Y-72961774D01*
X67559760Y-71814883D01*
X66870083Y-70782709D01*
X65992291Y-69904917D01*
X64960117Y-69215240D01*
X63813226Y-68740182D01*
X62595693Y-68498000D01*
X61354307Y-68498000D01*
X60136774Y-68740182D01*
X58989883Y-69215240D01*
X57957709Y-69904917D01*
X57079917Y-70782709D01*
X56390240Y-71814883D01*
X55915182Y-72961774D01*
X55673000Y-74179307D01*
X50710000Y-74179307D01*
X50710000Y-48879307D01*
X55623000Y-48879307D01*
X55623000Y-50120693D01*
X55865182Y-51338226D01*
X56340240Y-52485117D01*
X57029917Y-53517291D01*
X57907709Y-54395083D01*
X58939883Y-55084760D01*
X60086774Y-55559818D01*
X61304307Y-55802000D01*
X62545693Y-55802000D01*
X63763226Y-55559818D01*
X64910117Y-55084760D01*
X65942291Y-54395083D01*
X66820083Y-53517291D01*
X67509760Y-52485117D01*
X67984818Y-51338226D01*
X68227000Y-50120693D01*
X68227000Y-48879307D01*
X67984818Y-47661774D01*
X67509760Y-46514883D01*
X66820083Y-45482709D01*
X65942291Y-44604917D01*
X64910117Y-43915240D01*
X63763226Y-43440182D01*
X62844615Y-43257459D01*
X63838226Y-43059818D01*
X64985117Y-42584760D01*
X66017291Y-41895083D01*
X66895083Y-41017291D01*
X67584760Y-39985117D01*
X68059818Y-38838226D01*
X68302000Y-37620693D01*
X68302000Y-36379307D01*
X68059818Y-35161774D01*
X67584760Y-34014883D01*
X66895083Y-32982709D01*
X66668473Y-32756099D01*
X69441700Y-32756099D01*
X69441700Y-33203901D01*
X69529061Y-33643097D01*
X69700427Y-34056812D01*
X69949212Y-34429145D01*
X70265855Y-34745788D01*
X70638188Y-34994573D01*
X71051903Y-35165939D01*
X71491099Y-35253300D01*
X71938901Y-35253300D01*
X72378097Y-35165939D01*
X72791812Y-34994573D01*
X73164145Y-34745788D01*
X73361117Y-34548816D01*
X85165000Y-34548816D01*
X85165000Y-34851184D01*
X85223989Y-35147743D01*
X85339701Y-35427095D01*
X85507688Y-35678505D01*
X85721495Y-35892312D01*
X85972905Y-36060299D01*
X86252257Y-36176011D01*
X86548816Y-36235000D01*
X86851184Y-36235000D01*
X87108930Y-36183731D01*
X91446200Y-40521002D01*
X91469999Y-40550001D01*
X91498997Y-40573799D01*
X91585723Y-40644974D01*
X91717753Y-40715546D01*
X91861014Y-40759003D01*
X91972667Y-40770000D01*
X91972677Y-40770000D01*
X92009999Y-40773676D01*
X92047322Y-40770000D01*
X107864988Y-40770000D01*
X107805510Y-41069017D01*
X107805510Y-41390983D01*
X107868322Y-41706763D01*
X107991533Y-42004222D01*
X108170408Y-42271927D01*
X108398073Y-42499592D01*
X108665778Y-42678467D01*
X108963237Y-42801678D01*
X109279017Y-42864490D01*
X109600983Y-42864490D01*
X109916763Y-42801678D01*
X110214222Y-42678467D01*
X110481927Y-42499592D01*
X110709592Y-42271927D01*
X110888467Y-42004222D01*
X111011678Y-41706763D01*
X111074490Y-41390983D01*
X111074490Y-41069017D01*
X111011678Y-40753237D01*
X110888467Y-40455778D01*
X110709592Y-40188073D01*
X110481927Y-39960408D01*
X110214222Y-39781533D01*
X109916763Y-39658322D01*
X109600983Y-39595510D01*
X109279017Y-39595510D01*
X108963237Y-39658322D01*
X108949014Y-39664213D01*
X108783804Y-39499003D01*
X108760001Y-39469999D01*
X108644276Y-39375026D01*
X108512247Y-39304454D01*
X108368986Y-39260997D01*
X108257333Y-39250000D01*
X108257322Y-39250000D01*
X108220000Y-39246324D01*
X108182678Y-39250000D01*
X92324802Y-39250000D01*
X89249791Y-36174989D01*
X89252257Y-36176011D01*
X89548816Y-36235000D01*
X89851184Y-36235000D01*
X90147743Y-36176011D01*
X90427095Y-36060299D01*
X90678505Y-35892312D01*
X90892312Y-35678505D01*
X91060299Y-35427095D01*
X91176011Y-35147743D01*
X91200000Y-35027142D01*
X91223989Y-35147743D01*
X91339701Y-35427095D01*
X91507688Y-35678505D01*
X91721495Y-35892312D01*
X91972905Y-36060299D01*
X92252257Y-36176011D01*
X92548816Y-36235000D01*
X92851184Y-36235000D01*
X93147743Y-36176011D01*
X93427095Y-36060299D01*
X93678505Y-35892312D01*
X93892312Y-35678505D01*
X94060299Y-35427095D01*
X94176011Y-35147743D01*
X94200000Y-35027142D01*
X94223989Y-35147743D01*
X94339701Y-35427095D01*
X94507688Y-35678505D01*
X94721495Y-35892312D01*
X94972905Y-36060299D01*
X95252257Y-36176011D01*
X95548816Y-36235000D01*
X95851184Y-36235000D01*
X96147743Y-36176011D01*
X96427095Y-36060299D01*
X96678505Y-35892312D01*
X96892312Y-35678505D01*
X97060299Y-35427095D01*
X97176011Y-35147743D01*
X97200000Y-35027142D01*
X97223989Y-35147743D01*
X97339701Y-35427095D01*
X97507688Y-35678505D01*
X97721495Y-35892312D01*
X97972905Y-36060299D01*
X98252257Y-36176011D01*
X98548816Y-36235000D01*
X98851184Y-36235000D01*
X99147743Y-36176011D01*
X99427095Y-36060299D01*
X99678505Y-35892312D01*
X99892312Y-35678505D01*
X100060299Y-35427095D01*
X100176011Y-35147743D01*
X100200000Y-35027142D01*
X100223989Y-35147743D01*
X100339701Y-35427095D01*
X100507688Y-35678505D01*
X100721495Y-35892312D01*
X100972905Y-36060299D01*
X101252257Y-36176011D01*
X101548816Y-36235000D01*
X101851184Y-36235000D01*
X102147743Y-36176011D01*
X102427095Y-36060299D01*
X102678505Y-35892312D01*
X102892312Y-35678505D01*
X103060299Y-35427095D01*
X103176011Y-35147743D01*
X103200000Y-35027142D01*
X103223989Y-35147743D01*
X103339701Y-35427095D01*
X103507688Y-35678505D01*
X103721495Y-35892312D01*
X103972905Y-36060299D01*
X104252257Y-36176011D01*
X104548816Y-36235000D01*
X104851184Y-36235000D01*
X105147743Y-36176011D01*
X105427095Y-36060299D01*
X105678505Y-35892312D01*
X105892312Y-35678505D01*
X106060299Y-35427095D01*
X106176011Y-35147743D01*
X106200000Y-35027142D01*
X106223989Y-35147743D01*
X106339701Y-35427095D01*
X106507688Y-35678505D01*
X106721495Y-35892312D01*
X106972905Y-36060299D01*
X107252257Y-36176011D01*
X107548816Y-36235000D01*
X107851184Y-36235000D01*
X108147743Y-36176011D01*
X108427095Y-36060299D01*
X108678505Y-35892312D01*
X108892312Y-35678505D01*
X109060299Y-35427095D01*
X109176011Y-35147743D01*
X109200000Y-35027142D01*
X109223989Y-35147743D01*
X109339701Y-35427095D01*
X109507688Y-35678505D01*
X109721495Y-35892312D01*
X109972905Y-36060299D01*
X110252257Y-36176011D01*
X110548816Y-36235000D01*
X110851184Y-36235000D01*
X111147743Y-36176011D01*
X111427095Y-36060299D01*
X111678505Y-35892312D01*
X111892312Y-35678505D01*
X112060299Y-35427095D01*
X112176011Y-35147743D01*
X112200000Y-35027142D01*
X112223989Y-35147743D01*
X112339701Y-35427095D01*
X112507688Y-35678505D01*
X112721495Y-35892312D01*
X112940000Y-36038313D01*
X112940001Y-55912667D01*
X112936324Y-55950000D01*
X112950998Y-56098985D01*
X112994454Y-56242246D01*
X113065026Y-56374276D01*
X113134955Y-56459484D01*
X113160000Y-56490001D01*
X113188998Y-56513799D01*
X148560000Y-91884802D01*
X148560001Y-98722668D01*
X148556324Y-98760000D01*
X148560001Y-98797333D01*
X148563610Y-98833970D01*
X148570998Y-98908985D01*
X148614454Y-99052246D01*
X148685026Y-99184276D01*
X148751275Y-99265000D01*
X148780000Y-99300001D01*
X148808998Y-99323799D01*
X152996201Y-103511003D01*
X153019999Y-103540001D01*
X153048997Y-103563799D01*
X153135724Y-103634974D01*
X153267753Y-103705546D01*
X153411014Y-103749003D01*
X153560000Y-103763677D01*
X153597333Y-103760000D01*
X171682678Y-103760000D01*
X171720000Y-103763676D01*
X171757322Y-103760000D01*
X171757333Y-103760000D01*
X171868986Y-103749003D01*
X172012247Y-103705546D01*
X172144276Y-103634974D01*
X172260001Y-103540001D01*
X172283804Y-103510997D01*
X173689015Y-102105787D01*
X173703237Y-102111678D01*
X174019017Y-102174490D01*
X174340983Y-102174490D01*
X174656763Y-102111678D01*
X174954222Y-101988467D01*
X175221927Y-101809592D01*
X175449592Y-101581927D01*
X175628467Y-101314222D01*
X175751678Y-101016763D01*
X175814490Y-100700983D01*
X175814490Y-100379017D01*
X175751678Y-100063237D01*
X175628467Y-99765778D01*
X175449592Y-99498073D01*
X175221927Y-99270408D01*
X174954222Y-99091533D01*
X174656763Y-98968322D01*
X174340983Y-98905510D01*
X174019017Y-98905510D01*
X173703237Y-98968322D01*
X173405778Y-99091533D01*
X173138073Y-99270408D01*
X172910408Y-99498073D01*
X172731533Y-99765778D01*
X172608322Y-100063237D01*
X172545510Y-100379017D01*
X172545510Y-100700983D01*
X172608322Y-101016763D01*
X172614213Y-101030985D01*
X171405199Y-102240000D01*
X153874802Y-102240000D01*
X150080000Y-98445199D01*
X150080000Y-91607322D01*
X150083676Y-91569999D01*
X150080000Y-91532676D01*
X150080000Y-91532667D01*
X150069003Y-91421014D01*
X150025546Y-91277753D01*
X150013935Y-91256030D01*
X149954974Y-91145723D01*
X149883799Y-91058997D01*
X149860001Y-91029999D01*
X149831004Y-91006202D01*
X114460000Y-55635199D01*
X114460000Y-47838967D01*
X119465000Y-47838967D01*
X119465000Y-48161033D01*
X119527832Y-48476912D01*
X119651082Y-48774463D01*
X119830013Y-49042252D01*
X120057748Y-49269987D01*
X120325537Y-49448918D01*
X120623088Y-49572168D01*
X120938967Y-49635000D01*
X121261033Y-49635000D01*
X121576912Y-49572168D01*
X121874463Y-49448918D01*
X122142252Y-49269987D01*
X122369987Y-49042252D01*
X122548918Y-48774463D01*
X122672168Y-48476912D01*
X122735000Y-48161033D01*
X122735000Y-47838967D01*
X122672168Y-47523088D01*
X122548918Y-47225537D01*
X122369987Y-46957748D01*
X122142252Y-46730013D01*
X121874463Y-46551082D01*
X121576912Y-46427832D01*
X121261033Y-46365000D01*
X120938967Y-46365000D01*
X120623088Y-46427832D01*
X120325537Y-46551082D01*
X120057748Y-46730013D01*
X119830013Y-46957748D01*
X119651082Y-47225537D01*
X119527832Y-47523088D01*
X119465000Y-47838967D01*
X114460000Y-47838967D01*
X114460000Y-36038313D01*
X114678505Y-35892312D01*
X114892312Y-35678505D01*
X115060299Y-35427095D01*
X115176011Y-35147743D01*
X115235000Y-34851184D01*
X115235000Y-34548816D01*
X115176011Y-34252257D01*
X115060299Y-33972905D01*
X114892312Y-33721495D01*
X114678505Y-33507688D01*
X114427095Y-33339701D01*
X114147743Y-33223989D01*
X113851184Y-33165000D01*
X113548816Y-33165000D01*
X113252257Y-33223989D01*
X112972905Y-33339701D01*
X112721495Y-33507688D01*
X112507688Y-33721495D01*
X112339701Y-33972905D01*
X112223989Y-34252257D01*
X112200000Y-34372858D01*
X112176011Y-34252257D01*
X112060299Y-33972905D01*
X111892312Y-33721495D01*
X111678505Y-33507688D01*
X111427095Y-33339701D01*
X111147743Y-33223989D01*
X110851184Y-33165000D01*
X110548816Y-33165000D01*
X110252257Y-33223989D01*
X109972905Y-33339701D01*
X109721495Y-33507688D01*
X109507688Y-33721495D01*
X109339701Y-33972905D01*
X109223989Y-34252257D01*
X109200000Y-34372858D01*
X109176011Y-34252257D01*
X109060299Y-33972905D01*
X108892312Y-33721495D01*
X108678505Y-33507688D01*
X108427095Y-33339701D01*
X108147743Y-33223989D01*
X107851184Y-33165000D01*
X107548816Y-33165000D01*
X107252257Y-33223989D01*
X107249791Y-33225010D01*
X107885985Y-32588816D01*
X118165000Y-32588816D01*
X118165000Y-32891184D01*
X118223989Y-33187743D01*
X118339701Y-33467095D01*
X118507688Y-33718505D01*
X118721495Y-33932312D01*
X118972905Y-34100299D01*
X119252257Y-34216011D01*
X119548816Y-34275000D01*
X119851184Y-34275000D01*
X120147743Y-34216011D01*
X120427095Y-34100299D01*
X120678505Y-33932312D01*
X120892312Y-33718505D01*
X121060299Y-33467095D01*
X121176011Y-33187743D01*
X121235000Y-32891184D01*
X121235000Y-32588816D01*
X121176011Y-32292257D01*
X121060299Y-32012905D01*
X120892312Y-31761495D01*
X120678505Y-31547688D01*
X120427095Y-31379701D01*
X120147743Y-31263989D01*
X119851184Y-31205000D01*
X119548816Y-31205000D01*
X119252257Y-31263989D01*
X118972905Y-31379701D01*
X118721495Y-31547688D01*
X118507688Y-31761495D01*
X118339701Y-32012905D01*
X118223989Y-32292257D01*
X118165000Y-32588816D01*
X107885985Y-32588816D01*
X108199803Y-32274999D01*
X117167679Y-32274999D01*
X117205001Y-32278675D01*
X117242323Y-32274999D01*
X117242334Y-32274999D01*
X117353987Y-32264002D01*
X117497248Y-32220545D01*
X117629277Y-32149973D01*
X117745002Y-32055000D01*
X117768805Y-32025996D01*
X119094802Y-30700000D01*
X123145199Y-30700000D01*
X123634213Y-31189015D01*
X123628322Y-31203237D01*
X123565510Y-31519017D01*
X123565510Y-31840983D01*
X123628322Y-32156763D01*
X123751533Y-32454222D01*
X123930408Y-32721927D01*
X124158073Y-32949592D01*
X124425778Y-33128467D01*
X124723237Y-33251678D01*
X125039017Y-33314490D01*
X125360983Y-33314490D01*
X125676763Y-33251678D01*
X125974222Y-33128467D01*
X126241927Y-32949592D01*
X126469592Y-32721927D01*
X126648467Y-32454222D01*
X126771678Y-32156763D01*
X126834490Y-31840983D01*
X126834490Y-31519017D01*
X126771678Y-31203237D01*
X126648467Y-30905778D01*
X126469592Y-30638073D01*
X126241927Y-30410408D01*
X125974222Y-30231533D01*
X125676763Y-30108322D01*
X125360983Y-30045510D01*
X125039017Y-30045510D01*
X124723237Y-30108322D01*
X124709015Y-30114213D01*
X124023804Y-29429003D01*
X124000001Y-29399999D01*
X123884276Y-29305026D01*
X123752247Y-29234454D01*
X123608986Y-29190997D01*
X123497333Y-29180000D01*
X123497322Y-29180000D01*
X123460000Y-29176324D01*
X123422678Y-29180000D01*
X118817323Y-29180000D01*
X118780000Y-29176324D01*
X118742677Y-29180000D01*
X118742667Y-29180000D01*
X118631014Y-29190997D01*
X118505723Y-29229003D01*
X118487753Y-29234454D01*
X118355723Y-29305026D01*
X118272083Y-29373668D01*
X118239999Y-29399999D01*
X118216201Y-29428997D01*
X116890200Y-30754999D01*
X107922334Y-30754999D01*
X107885001Y-30751322D01*
X107847668Y-30754999D01*
X107736015Y-30765996D01*
X107592754Y-30809453D01*
X107460725Y-30880025D01*
X107345000Y-30974998D01*
X107321202Y-31003996D01*
X105108930Y-33216269D01*
X104851184Y-33165000D01*
X104548816Y-33165000D01*
X104252257Y-33223989D01*
X103972905Y-33339701D01*
X103721495Y-33507688D01*
X103507688Y-33721495D01*
X103339701Y-33972905D01*
X103223989Y-34252257D01*
X103200000Y-34372858D01*
X103176011Y-34252257D01*
X103060299Y-33972905D01*
X102892312Y-33721495D01*
X102678505Y-33507688D01*
X102427095Y-33339701D01*
X102147743Y-33223989D01*
X101851184Y-33165000D01*
X101548816Y-33165000D01*
X101252257Y-33223989D01*
X100972905Y-33339701D01*
X100721495Y-33507688D01*
X100507688Y-33721495D01*
X100339701Y-33972905D01*
X100223989Y-34252257D01*
X100200000Y-34372858D01*
X100176011Y-34252257D01*
X100060299Y-33972905D01*
X99892312Y-33721495D01*
X99678505Y-33507688D01*
X99427095Y-33339701D01*
X99147743Y-33223989D01*
X98851184Y-33165000D01*
X98548816Y-33165000D01*
X98252257Y-33223989D01*
X97972905Y-33339701D01*
X97721495Y-33507688D01*
X97507688Y-33721495D01*
X97339701Y-33972905D01*
X97223989Y-34252257D01*
X97200000Y-34372858D01*
X97176011Y-34252257D01*
X97060299Y-33972905D01*
X96892312Y-33721495D01*
X96678505Y-33507688D01*
X96427095Y-33339701D01*
X96147743Y-33223989D01*
X95851184Y-33165000D01*
X95548816Y-33165000D01*
X95252257Y-33223989D01*
X94972905Y-33339701D01*
X94721495Y-33507688D01*
X94507688Y-33721495D01*
X94339701Y-33972905D01*
X94223989Y-34252257D01*
X94200000Y-34372858D01*
X94176011Y-34252257D01*
X94060299Y-33972905D01*
X93892312Y-33721495D01*
X93678505Y-33507688D01*
X93427095Y-33339701D01*
X93147743Y-33223989D01*
X92851184Y-33165000D01*
X92548816Y-33165000D01*
X92252257Y-33223989D01*
X91972905Y-33339701D01*
X91721495Y-33507688D01*
X91507688Y-33721495D01*
X91339701Y-33972905D01*
X91223989Y-34252257D01*
X91200000Y-34372858D01*
X91176011Y-34252257D01*
X91060299Y-33972905D01*
X90892312Y-33721495D01*
X90678505Y-33507688D01*
X90427095Y-33339701D01*
X90147743Y-33223989D01*
X89851184Y-33165000D01*
X89548816Y-33165000D01*
X89252257Y-33223989D01*
X88972905Y-33339701D01*
X88721495Y-33507688D01*
X88507688Y-33721495D01*
X88339701Y-33972905D01*
X88223989Y-34252257D01*
X88200000Y-34372858D01*
X88176011Y-34252257D01*
X88060299Y-33972905D01*
X87892312Y-33721495D01*
X87678505Y-33507688D01*
X87427095Y-33339701D01*
X87147743Y-33223989D01*
X86851184Y-33165000D01*
X86548816Y-33165000D01*
X86252257Y-33223989D01*
X85972905Y-33339701D01*
X85721495Y-33507688D01*
X85507688Y-33721495D01*
X85339701Y-33972905D01*
X85223989Y-34252257D01*
X85165000Y-34548816D01*
X73361117Y-34548816D01*
X73480788Y-34429145D01*
X73729573Y-34056812D01*
X73900939Y-33643097D01*
X73988300Y-33203901D01*
X73988300Y-32756099D01*
X73955026Y-32588816D01*
X79165000Y-32588816D01*
X79165000Y-32891184D01*
X79223989Y-33187743D01*
X79339701Y-33467095D01*
X79507688Y-33718505D01*
X79721495Y-33932312D01*
X79972905Y-34100299D01*
X80252257Y-34216011D01*
X80548816Y-34275000D01*
X80851184Y-34275000D01*
X81147743Y-34216011D01*
X81427095Y-34100299D01*
X81678505Y-33932312D01*
X81892312Y-33718505D01*
X82060299Y-33467095D01*
X82176011Y-33187743D01*
X82235000Y-32891184D01*
X82235000Y-32588816D01*
X82176011Y-32292257D01*
X82060299Y-32012905D01*
X81892312Y-31761495D01*
X81678505Y-31547688D01*
X81427095Y-31379701D01*
X81147743Y-31263989D01*
X80851184Y-31205000D01*
X80548816Y-31205000D01*
X80252257Y-31263989D01*
X79972905Y-31379701D01*
X79721495Y-31547688D01*
X79507688Y-31761495D01*
X79339701Y-32012905D01*
X79223989Y-32292257D01*
X79165000Y-32588816D01*
X73955026Y-32588816D01*
X73900939Y-32316903D01*
X73729573Y-31903188D01*
X73480788Y-31530855D01*
X73164145Y-31214212D01*
X72791812Y-30965427D01*
X72378097Y-30794061D01*
X71938901Y-30706700D01*
X71491099Y-30706700D01*
X71051903Y-30794061D01*
X70638188Y-30965427D01*
X70265855Y-31214212D01*
X69949212Y-31530855D01*
X69700427Y-31903188D01*
X69529061Y-32316903D01*
X69441700Y-32756099D01*
X66668473Y-32756099D01*
X66017291Y-32104917D01*
X64985117Y-31415240D01*
X63838226Y-30940182D01*
X62620693Y-30698000D01*
X61379307Y-30698000D01*
X60161774Y-30940182D01*
X59014883Y-31415240D01*
X57982709Y-32104917D01*
X57104917Y-32982709D01*
X56415240Y-34014883D01*
X55940182Y-35161774D01*
X55698000Y-36379307D01*
X55698000Y-37620693D01*
X55940182Y-38838226D01*
X56415240Y-39985117D01*
X57104917Y-41017291D01*
X57982709Y-41895083D01*
X59014883Y-42584760D01*
X60161774Y-43059818D01*
X61080385Y-43242541D01*
X60086774Y-43440182D01*
X58939883Y-43915240D01*
X57907709Y-44604917D01*
X57029917Y-45482709D01*
X56340240Y-46514883D01*
X55865182Y-47661774D01*
X55623000Y-48879307D01*
X50710000Y-48879307D01*
X50710000Y-27910000D01*
X170076553Y-27910000D01*
X170039999Y-27939999D01*
X170039999Y-27939999D01*
G37*
X170039999Y-27939999D02*
X170016201Y-27968997D01*
X167728500Y-30256699D01*
X129500626Y-30256699D01*
X129463301Y-30253023D01*
X129425976Y-30256699D01*
X129425968Y-30256699D01*
X129314315Y-30267696D01*
X129171054Y-30311153D01*
X129039025Y-30381725D01*
X128923300Y-30476698D01*
X128899502Y-30505696D01*
X118935199Y-40470000D01*
X118514358Y-40470000D01*
X118508467Y-40455778D01*
X118329592Y-40188073D01*
X118101927Y-39960408D01*
X117834222Y-39781533D01*
X117536763Y-39658322D01*
X117220983Y-39595510D01*
X116899017Y-39595510D01*
X116583237Y-39658322D01*
X116285778Y-39781533D01*
X116018073Y-39960408D01*
X115790408Y-40188073D01*
X115611533Y-40455778D01*
X115488322Y-40753237D01*
X115425510Y-41069017D01*
X115425510Y-41390983D01*
X115488322Y-41706763D01*
X115611533Y-42004222D01*
X115790408Y-42271927D01*
X116018073Y-42499592D01*
X116285778Y-42678467D01*
X116583237Y-42801678D01*
X116899017Y-42864490D01*
X117220983Y-42864490D01*
X117536763Y-42801678D01*
X117834222Y-42678467D01*
X118101927Y-42499592D01*
X118329592Y-42271927D01*
X118508467Y-42004222D01*
X118514358Y-41990000D01*
X119212678Y-41990000D01*
X119250000Y-41993676D01*
X119287322Y-41990000D01*
X119287333Y-41990000D01*
X119398986Y-41979003D01*
X119542247Y-41935546D01*
X119674276Y-41864974D01*
X119790001Y-41770001D01*
X119813804Y-41740997D01*
X122415784Y-39139017D01*
X123565510Y-39139017D01*
X123565510Y-39460983D01*
X123628322Y-39776763D01*
X123751533Y-40074222D01*
X123930408Y-40341927D01*
X124158073Y-40569592D01*
X124425778Y-40748467D01*
X124723237Y-40871678D01*
X125039017Y-40934490D01*
X125360983Y-40934490D01*
X125676763Y-40871678D01*
X125974222Y-40748467D01*
X126241927Y-40569592D01*
X126469592Y-40341927D01*
X126648467Y-40074222D01*
X126654358Y-40060000D01*
X129698207Y-40060000D01*
X129742366Y-40142616D01*
X129915515Y-40353596D01*
X130126495Y-40526744D01*
X130367201Y-40655403D01*
X130628382Y-40734632D01*
X130900000Y-40761384D01*
X131171619Y-40734632D01*
X131432800Y-40655403D01*
X131673506Y-40526744D01*
X131805000Y-40418829D01*
X131805001Y-44039671D01*
X131797089Y-44120000D01*
X131828658Y-44440516D01*
X131922148Y-44748714D01*
X132053084Y-44993677D01*
X132073970Y-45032752D01*
X132278287Y-45281714D01*
X132340682Y-45332920D01*
X136239685Y-49231924D01*
X136314357Y-49412199D01*
X136508937Y-49703409D01*
X136756591Y-49951063D01*
X137047801Y-50145643D01*
X137371377Y-50279672D01*
X137714882Y-50348000D01*
X138065118Y-50348000D01*
X138408623Y-50279672D01*
X138732199Y-50145643D01*
X139023409Y-49951063D01*
X139271063Y-49703409D01*
X139465643Y-49412199D01*
X139599672Y-49088623D01*
X139668000Y-48745118D01*
X139668000Y-48394882D01*
X139599672Y-48051377D01*
X139465643Y-47727801D01*
X139271063Y-47436591D01*
X139023409Y-47188937D01*
X138732199Y-46994357D01*
X138551924Y-46919685D01*
X135075000Y-43442762D01*
X135075000Y-36335000D01*
X141091240Y-36335000D01*
X141353745Y-36475312D01*
X141661944Y-36568803D01*
X141902138Y-36592460D01*
X141902140Y-36592460D01*
X141982459Y-36600371D01*
X142062779Y-36592460D01*
X142093593Y-36592460D01*
X142084508Y-36622408D01*
X142072248Y-36746890D01*
X142072248Y-38248030D01*
X142084508Y-38372512D01*
X142120818Y-38492210D01*
X142179783Y-38602524D01*
X142259135Y-38699215D01*
X142355826Y-38778567D01*
X142466140Y-38837532D01*
X142585838Y-38873842D01*
X142683014Y-38883413D01*
X142476404Y-39052974D01*
X142303256Y-39263954D01*
X142174597Y-39504660D01*
X142095368Y-39765841D01*
X142068616Y-40037460D01*
X142095368Y-40309079D01*
X142174597Y-40570260D01*
X142303256Y-40810966D01*
X142476404Y-41021946D01*
X142687384Y-41195094D01*
X142928090Y-41323753D01*
X143189271Y-41402982D01*
X143392823Y-41423030D01*
X144527177Y-41423030D01*
X144730729Y-41402982D01*
X144991910Y-41323753D01*
X145232616Y-41195094D01*
X145443596Y-41021946D01*
X145616744Y-40810966D01*
X145745403Y-40570260D01*
X145824632Y-40309079D01*
X145851384Y-40037460D01*
X145824632Y-39765841D01*
X145745403Y-39504660D01*
X145616744Y-39263954D01*
X145443596Y-39052974D01*
X145236986Y-38883413D01*
X145334162Y-38873842D01*
X145453860Y-38837532D01*
X145564174Y-38778567D01*
X145660865Y-38699215D01*
X145740217Y-38602524D01*
X145799182Y-38492210D01*
X145835492Y-38372512D01*
X145847752Y-38248030D01*
X145847752Y-36746890D01*
X145835492Y-36622408D01*
X145799182Y-36502710D01*
X145740217Y-36392396D01*
X145660865Y-36295705D01*
X145564174Y-36216353D01*
X145453860Y-36157388D01*
X145334162Y-36121078D01*
X145236986Y-36111507D01*
X145443596Y-35941946D01*
X145616744Y-35730966D01*
X145745403Y-35490260D01*
X145824632Y-35229079D01*
X145851384Y-34957460D01*
X145843263Y-34875000D01*
X158311928Y-34875000D01*
X158311928Y-36575000D01*
X158324188Y-36699482D01*
X158360498Y-36819180D01*
X158419463Y-36929494D01*
X158498815Y-37026185D01*
X158595506Y-37105537D01*
X158705820Y-37164502D01*
X158825518Y-37200812D01*
X158950000Y-37213072D01*
X160650000Y-37213072D01*
X160774482Y-37200812D01*
X160894180Y-37164502D01*
X161004494Y-37105537D01*
X161101185Y-37026185D01*
X161180537Y-36929494D01*
X161239502Y-36819180D01*
X161275812Y-36699482D01*
X161288072Y-36575000D01*
X161288072Y-34875000D01*
X161275812Y-34750518D01*
X161239502Y-34630820D01*
X161180537Y-34520506D01*
X161101185Y-34423815D01*
X161004494Y-34344463D01*
X160894180Y-34285498D01*
X160774482Y-34249188D01*
X160650000Y-34236928D01*
X158950000Y-34236928D01*
X158825518Y-34249188D01*
X158705820Y-34285498D01*
X158595506Y-34344463D01*
X158498815Y-34423815D01*
X158419463Y-34520506D01*
X158360498Y-34630820D01*
X158324188Y-34750518D01*
X158311928Y-34875000D01*
X145843263Y-34875000D01*
X145824632Y-34685841D01*
X145745403Y-34424660D01*
X145616744Y-34183954D01*
X145443596Y-33972974D01*
X145232616Y-33799826D01*
X144991910Y-33671167D01*
X144957015Y-33660582D01*
X144872752Y-33591429D01*
X144588715Y-33439608D01*
X144280516Y-33346117D01*
X144040322Y-33322460D01*
X142616220Y-33322460D01*
X142353715Y-33182148D01*
X142045516Y-33088657D01*
X141805322Y-33065000D01*
X141805319Y-33065000D01*
X141725000Y-33057089D01*
X141644681Y-33065000D01*
X134440639Y-33065000D01*
X134360319Y-33057089D01*
X134280000Y-33065000D01*
X134279998Y-33065000D01*
X134039804Y-33088657D01*
X133731605Y-33182148D01*
X133447568Y-33333969D01*
X133198606Y-33538286D01*
X133147395Y-33600687D01*
X132340682Y-34407400D01*
X132278287Y-34458606D01*
X132091801Y-34685841D01*
X132073970Y-34707568D01*
X131922148Y-34991606D01*
X131828658Y-35299804D01*
X131797089Y-35620320D01*
X131805001Y-35700649D01*
X131805000Y-37321172D01*
X131673505Y-37213256D01*
X131432799Y-37084597D01*
X131171618Y-37005368D01*
X130900000Y-36978616D01*
X130628381Y-37005368D01*
X130367200Y-37084597D01*
X130126494Y-37213256D01*
X129915514Y-37386405D01*
X129742366Y-37597385D01*
X129613707Y-37838091D01*
X129534478Y-38099272D01*
X129514430Y-38302824D01*
X129514430Y-38540000D01*
X126654358Y-38540000D01*
X126648467Y-38525778D01*
X126469592Y-38258073D01*
X126241927Y-38030408D01*
X125974222Y-37851533D01*
X125676763Y-37728322D01*
X125360983Y-37665510D01*
X125039017Y-37665510D01*
X124723237Y-37728322D01*
X124425778Y-37851533D01*
X124158073Y-38030408D01*
X123930408Y-38258073D01*
X123751533Y-38525778D01*
X123628322Y-38823237D01*
X123565510Y-39139017D01*
X122415784Y-39139017D01*
X128798702Y-32756099D01*
X171051700Y-32756099D01*
X171051700Y-33203901D01*
X171139061Y-33643097D01*
X171310427Y-34056812D01*
X171559212Y-34429145D01*
X171875855Y-34745788D01*
X172248188Y-34994573D01*
X172661903Y-35165939D01*
X173101099Y-35253300D01*
X173548901Y-35253300D01*
X173988097Y-35165939D01*
X174401812Y-34994573D01*
X174774145Y-34745788D01*
X175090788Y-34429145D01*
X175339573Y-34056812D01*
X175510939Y-33643097D01*
X175598300Y-33203901D01*
X175598300Y-32756099D01*
X175510939Y-32316903D01*
X175339573Y-31903188D01*
X175090788Y-31530855D01*
X174774145Y-31214212D01*
X174401812Y-30965427D01*
X173988097Y-30794061D01*
X173548901Y-30706700D01*
X173101099Y-30706700D01*
X172661903Y-30794061D01*
X172248188Y-30965427D01*
X171875855Y-31214212D01*
X171559212Y-31530855D01*
X171310427Y-31903188D01*
X171139061Y-32316903D01*
X171051700Y-32756099D01*
X128798702Y-32756099D01*
X129778103Y-31776699D01*
X168005979Y-31776699D01*
X168043301Y-31780375D01*
X168080623Y-31776699D01*
X168080634Y-31776699D01*
X168192287Y-31765702D01*
X168335548Y-31722245D01*
X168467577Y-31651673D01*
X168583302Y-31556700D01*
X168607105Y-31527696D01*
X170894802Y-29240000D01*
X189865199Y-29240000D01*
X192400000Y-31774803D01*
X192400001Y-43652000D01*
X178262597Y-43652000D01*
X178214930Y-43494861D01*
X177993460Y-43080520D01*
X177695412Y-42717348D01*
X177332240Y-42419300D01*
X176917899Y-42197830D01*
X176468313Y-42061450D01*
X176117927Y-42026940D01*
X173882073Y-42026940D01*
X173531687Y-42061450D01*
X173082101Y-42197830D01*
X172667760Y-42419300D01*
X172304588Y-42717348D01*
X172006540Y-43080520D01*
X171785070Y-43494861D01*
X171648690Y-43944447D01*
X171602640Y-44412000D01*
X171648690Y-44879553D01*
X171785070Y-45329139D01*
X172006540Y-45743480D01*
X172304588Y-46106652D01*
X172619385Y-46365000D01*
X170904572Y-46365000D01*
X170726000Y-46347412D01*
X170547427Y-46365000D01*
X170547425Y-46365000D01*
X170013415Y-46417595D01*
X169328215Y-46625449D01*
X168696730Y-46962984D01*
X168530991Y-47099003D01*
X168143230Y-47417230D01*
X168029392Y-47555942D01*
X165259000Y-50326335D01*
X165259000Y-48831715D01*
X164963132Y-47344285D01*
X164382765Y-45943156D01*
X163540204Y-44682174D01*
X162467826Y-43609796D01*
X161206844Y-42767235D01*
X159805715Y-42186868D01*
X158318285Y-41891000D01*
X156801715Y-41891000D01*
X155314285Y-42186868D01*
X153913156Y-42767235D01*
X152652174Y-43609796D01*
X151579796Y-44682174D01*
X150737235Y-45943156D01*
X150156868Y-47344285D01*
X149861000Y-48831715D01*
X149861000Y-50348285D01*
X150156868Y-51835715D01*
X150737235Y-53236844D01*
X151579796Y-54497826D01*
X152652174Y-55570204D01*
X153913156Y-56412765D01*
X155314285Y-56993132D01*
X156801715Y-57289000D01*
X157918761Y-57289000D01*
X157432247Y-57775514D01*
X157427248Y-57778186D01*
X157240677Y-57931300D01*
X156760686Y-58411292D01*
X156698286Y-58462502D01*
X156689709Y-58472953D01*
X155614285Y-58686868D01*
X154213156Y-59267235D01*
X152952174Y-60109796D01*
X151879796Y-61182174D01*
X151037235Y-62443156D01*
X150456868Y-63844285D01*
X150161000Y-65331715D01*
X150161000Y-66848285D01*
X150456868Y-68335715D01*
X151037235Y-69736844D01*
X151879796Y-70997826D01*
X152952174Y-72070204D01*
X154213156Y-72912765D01*
X154243823Y-72925468D01*
X154247399Y-72961774D01*
X154277596Y-73268369D01*
X154317601Y-73400246D01*
X154485449Y-73953568D01*
X154822984Y-74585053D01*
X154999387Y-74800000D01*
X155277231Y-75138554D01*
X155415942Y-75252391D01*
X155483388Y-75319837D01*
X155597230Y-75458554D01*
X156150731Y-75912800D01*
X156782215Y-76250335D01*
X157467415Y-76458189D01*
X158001425Y-76510784D01*
X158001427Y-76510784D01*
X158179999Y-76528372D01*
X158358572Y-76510784D01*
X159260119Y-76510784D01*
X159433001Y-76683666D01*
X159433000Y-79934574D01*
X159485595Y-80468584D01*
X159644512Y-80992460D01*
X158109678Y-80992460D01*
X157869484Y-81016117D01*
X157561285Y-81109608D01*
X157319550Y-81238818D01*
X156940320Y-81238818D01*
X156815838Y-81251078D01*
X156696140Y-81287388D01*
X156585826Y-81346353D01*
X156489135Y-81425705D01*
X156409783Y-81522396D01*
X156350818Y-81632710D01*
X156314508Y-81752408D01*
X156302248Y-81876890D01*
X156302248Y-83378030D01*
X156314508Y-83502512D01*
X156350818Y-83622210D01*
X156409783Y-83732524D01*
X156489135Y-83829215D01*
X156585826Y-83908567D01*
X156696140Y-83967532D01*
X156815838Y-84003842D01*
X156940320Y-84016102D01*
X157319550Y-84016102D01*
X157561285Y-84145312D01*
X157869484Y-84238803D01*
X158109678Y-84262460D01*
X160215001Y-84262460D01*
X160215000Y-89682220D01*
X160204007Y-89739385D01*
X160204488Y-89814879D01*
X160197089Y-89890000D01*
X160205511Y-89975512D01*
X160206059Y-90061445D01*
X160215000Y-90104944D01*
X160215000Y-91519681D01*
X160207089Y-91600000D01*
X160215000Y-91680319D01*
X160215000Y-91680322D01*
X160215001Y-91680329D01*
X160215000Y-94123000D01*
X158161678Y-94123000D01*
X157921484Y-94146657D01*
X157613285Y-94240148D01*
X157371550Y-94369358D01*
X156992320Y-94369358D01*
X156867838Y-94381618D01*
X156748140Y-94417928D01*
X156637826Y-94476893D01*
X156541135Y-94556245D01*
X156461783Y-94652936D01*
X156402818Y-94763250D01*
X156366508Y-94882948D01*
X156354248Y-95007430D01*
X156354248Y-96508570D01*
X156366508Y-96633052D01*
X156402818Y-96752750D01*
X156461783Y-96863064D01*
X156541135Y-96959755D01*
X156637826Y-97039107D01*
X156748140Y-97098072D01*
X156867838Y-97134382D01*
X156992320Y-97146642D01*
X157371550Y-97146642D01*
X157613285Y-97275852D01*
X157921484Y-97369343D01*
X158161678Y-97393000D01*
X161411361Y-97393000D01*
X161491680Y-97400911D01*
X161491840Y-97400895D01*
X161492000Y-97400911D01*
X161572322Y-97393000D01*
X163881501Y-97393000D01*
X163981749Y-97400430D01*
X164121931Y-97383189D01*
X164262516Y-97369343D01*
X164281610Y-97363551D01*
X164301408Y-97361116D01*
X164435527Y-97316861D01*
X164570715Y-97275852D01*
X164588312Y-97266446D01*
X164607254Y-97260196D01*
X164730160Y-97190627D01*
X164854752Y-97124031D01*
X164870176Y-97111373D01*
X164887535Y-97101547D01*
X164994497Y-97009345D01*
X165103714Y-96919714D01*
X165167496Y-96841995D01*
X166064660Y-95900328D01*
X166111713Y-95861713D01*
X166152720Y-95811745D01*
X167336908Y-94673105D01*
X167411714Y-94611714D01*
X167503716Y-94499609D01*
X167597874Y-94389357D01*
X167605773Y-94375252D01*
X167616031Y-94362752D01*
X167684391Y-94234860D01*
X167755235Y-94108350D01*
X167760230Y-94092974D01*
X167767852Y-94078715D01*
X167809950Y-93939935D01*
X167854749Y-93802044D01*
X167856649Y-93785992D01*
X167861343Y-93770516D01*
X167875556Y-93626210D01*
X167892596Y-93482208D01*
X167885000Y-93385733D01*
X167885000Y-92510000D01*
X169043921Y-92510000D01*
X169124240Y-92517911D01*
X169204559Y-92510000D01*
X169204562Y-92510000D01*
X169394853Y-92491258D01*
X169459451Y-92489328D01*
X169617753Y-92501959D01*
X169816452Y-92478660D01*
X170016429Y-92472684D01*
X170171192Y-92437063D01*
X170328914Y-92418569D01*
X170519249Y-92356954D01*
X170714218Y-92312079D01*
X170859054Y-92246952D01*
X171010140Y-92198042D01*
X171184803Y-92100475D01*
X171367266Y-92018428D01*
X171496610Y-91926298D01*
X171628693Y-91852517D01*
X171648690Y-92055553D01*
X171785070Y-92505139D01*
X172006540Y-92919480D01*
X172304588Y-93282652D01*
X172667760Y-93580700D01*
X173082101Y-93802170D01*
X173531687Y-93938550D01*
X173882073Y-93973060D01*
X176117927Y-93973060D01*
X176468313Y-93938550D01*
X176917899Y-93802170D01*
X177332240Y-93580700D01*
X177695412Y-93282652D01*
X177993460Y-92919480D01*
X178214930Y-92505139D01*
X178351310Y-92055553D01*
X178397360Y-91588000D01*
X178351310Y-91120447D01*
X178214930Y-90670861D01*
X177993460Y-90256520D01*
X177695412Y-89893348D01*
X177332240Y-89595300D01*
X176917899Y-89373830D01*
X176586953Y-89273439D01*
X177029269Y-89037016D01*
X177582770Y-88582770D01*
X178037016Y-88029269D01*
X178374551Y-87397785D01*
X178582405Y-86712585D01*
X178652588Y-86000000D01*
X178582405Y-85287415D01*
X178374551Y-84602215D01*
X178037016Y-83970731D01*
X177582770Y-83417230D01*
X177029269Y-82962984D01*
X176586953Y-82726561D01*
X176917899Y-82626170D01*
X177332240Y-82404700D01*
X177695412Y-82106652D01*
X177993460Y-81743480D01*
X178214930Y-81329139D01*
X178262597Y-81172000D01*
X189930678Y-81172000D01*
X189968000Y-81175676D01*
X190005322Y-81172000D01*
X190005333Y-81172000D01*
X190116986Y-81161003D01*
X190260247Y-81117546D01*
X190392276Y-81046974D01*
X190508001Y-80952001D01*
X190531804Y-80922997D01*
X193671003Y-77783799D01*
X193700001Y-77760001D01*
X193794974Y-77644276D01*
X193865546Y-77512247D01*
X193909003Y-77368986D01*
X193920000Y-77257333D01*
X193920000Y-77257325D01*
X193923676Y-77220000D01*
X193920000Y-77182675D01*
X193920000Y-62287333D01*
X193923677Y-62250000D01*
X193920000Y-62212667D01*
X193920000Y-44267323D01*
X193923676Y-44230000D01*
X193920000Y-44192677D01*
X193920000Y-31497322D01*
X193923676Y-31459999D01*
X193920000Y-31422676D01*
X193920000Y-31422667D01*
X193909003Y-31311014D01*
X193865546Y-31167753D01*
X193794974Y-31035724D01*
X193779361Y-31016699D01*
X193723799Y-30948996D01*
X193723795Y-30948992D01*
X193700001Y-30919999D01*
X193671009Y-30896206D01*
X190743804Y-27969003D01*
X190720001Y-27939999D01*
X190683447Y-27910000D01*
X194290001Y-27910000D01*
X194290000Y-149290000D01*
X50710000Y-149290000D01*
X50710000Y-143996099D01*
X69441700Y-143996099D01*
X69441700Y-144443901D01*
X69529061Y-144883097D01*
X69700427Y-145296812D01*
X69949212Y-145669145D01*
X70265855Y-145985788D01*
X70638188Y-146234573D01*
X71051903Y-146405939D01*
X71491099Y-146493300D01*
X71938901Y-146493300D01*
X72378097Y-146405939D01*
X72791812Y-146234573D01*
X73164145Y-145985788D01*
X73480788Y-145669145D01*
X73729573Y-145296812D01*
X73900939Y-144883097D01*
X73988300Y-144443901D01*
X73988300Y-143996099D01*
X171051700Y-143996099D01*
X171051700Y-144443901D01*
X171139061Y-144883097D01*
X171310427Y-145296812D01*
X171559212Y-145669145D01*
X171875855Y-145985788D01*
X172248188Y-146234573D01*
X172661903Y-146405939D01*
X173101099Y-146493300D01*
X173548901Y-146493300D01*
X173988097Y-146405939D01*
X174401812Y-146234573D01*
X174774145Y-145985788D01*
X175090788Y-145669145D01*
X175339573Y-145296812D01*
X175510939Y-144883097D01*
X175598300Y-144443901D01*
X175598300Y-143996099D01*
X175510939Y-143556903D01*
X175339573Y-143143188D01*
X175090788Y-142770855D01*
X174774145Y-142454212D01*
X174401812Y-142205427D01*
X173988097Y-142034061D01*
X173548901Y-141946700D01*
X173101099Y-141946700D01*
X172661903Y-142034061D01*
X172248188Y-142205427D01*
X171875855Y-142454212D01*
X171559212Y-142770855D01*
X171310427Y-143143188D01*
X171139061Y-143556903D01*
X171051700Y-143996099D01*
X73988300Y-143996099D01*
X73900939Y-143556903D01*
X73729573Y-143143188D01*
X73480788Y-142770855D01*
X73164145Y-142454212D01*
X72791812Y-142205427D01*
X72378097Y-142034061D01*
X71938901Y-141946700D01*
X71491099Y-141946700D01*
X71051903Y-142034061D01*
X70638188Y-142205427D01*
X70265855Y-142454212D01*
X69949212Y-142770855D01*
X69700427Y-143143188D01*
X69529061Y-143556903D01*
X69441700Y-143996099D01*
X50710000Y-143996099D01*
X50710000Y-133869017D01*
X175555510Y-133869017D01*
X175555510Y-134190983D01*
X175618322Y-134506763D01*
X175741533Y-134804222D01*
X175920408Y-135071927D01*
X176148073Y-135299592D01*
X176415778Y-135478467D01*
X176713237Y-135601678D01*
X177029017Y-135664490D01*
X177350983Y-135664490D01*
X177666763Y-135601678D01*
X177964222Y-135478467D01*
X178231927Y-135299592D01*
X178459592Y-135071927D01*
X178638467Y-134804222D01*
X178761678Y-134506763D01*
X178824490Y-134190983D01*
X178824490Y-133869017D01*
X178761678Y-133553237D01*
X178638467Y-133255778D01*
X178459592Y-132988073D01*
X178231927Y-132760408D01*
X177964222Y-132581533D01*
X177666763Y-132458322D01*
X177350983Y-132395510D01*
X177029017Y-132395510D01*
X176713237Y-132458322D01*
X176415778Y-132581533D01*
X176148073Y-132760408D01*
X175920408Y-132988073D01*
X175741533Y-133255778D01*
X175618322Y-133553237D01*
X175555510Y-133869017D01*
X50710000Y-133869017D01*
X50710000Y-117067361D01*
X74565000Y-117067361D01*
X74565000Y-117832639D01*
X74714298Y-118583213D01*
X75007158Y-119290238D01*
X75432323Y-119926543D01*
X75973457Y-120467677D01*
X76609762Y-120892842D01*
X77316787Y-121185702D01*
X78067361Y-121335000D01*
X78832639Y-121335000D01*
X79583213Y-121185702D01*
X80290238Y-120892842D01*
X80926543Y-120467677D01*
X81467677Y-119926543D01*
X81892842Y-119290238D01*
X82185702Y-118583213D01*
X82335000Y-117832639D01*
X82335000Y-117067361D01*
X82185702Y-116316787D01*
X81892842Y-115609762D01*
X81467677Y-114973457D01*
X80926543Y-114432323D01*
X80290238Y-114007158D01*
X79583213Y-113714298D01*
X78832639Y-113565000D01*
X78067361Y-113565000D01*
X77316787Y-113714298D01*
X76609762Y-114007158D01*
X75973457Y-114432323D01*
X75432323Y-114973457D01*
X75007158Y-115609762D01*
X74714298Y-116316787D01*
X74565000Y-117067361D01*
X50710000Y-117067361D01*
X50710000Y-99579307D01*
X55648000Y-99579307D01*
X55648000Y-100820693D01*
X55890182Y-102038226D01*
X56365240Y-103185117D01*
X57054917Y-104217291D01*
X57932709Y-105095083D01*
X58964883Y-105784760D01*
X60111774Y-106259818D01*
X61329307Y-106502000D01*
X62570693Y-106502000D01*
X63788226Y-106259818D01*
X64935117Y-105784760D01*
X65967291Y-105095083D01*
X66845083Y-104217291D01*
X67534760Y-103185117D01*
X68009818Y-102038226D01*
X68050242Y-101835000D01*
X71252762Y-101835000D01*
X77078176Y-107660415D01*
X83815676Y-114397915D01*
X83815681Y-114397919D01*
X89453176Y-120035415D01*
X89453181Y-120035419D01*
X95140676Y-125722916D01*
X95140687Y-125722925D01*
X99507080Y-130089319D01*
X99558286Y-130151714D01*
X99807248Y-130356031D01*
X99936282Y-130425001D01*
X100091285Y-130507852D01*
X100399483Y-130601343D01*
X100720000Y-130632911D01*
X100800322Y-130625000D01*
X170150199Y-130625000D01*
X170276847Y-130751649D01*
X170300932Y-130872729D01*
X170371414Y-131042889D01*
X170473738Y-131196028D01*
X170603972Y-131326262D01*
X170757111Y-131428586D01*
X170927271Y-131499068D01*
X171107911Y-131535000D01*
X171292089Y-131535000D01*
X171472729Y-131499068D01*
X171642889Y-131428586D01*
X171796028Y-131326262D01*
X171926262Y-131196028D01*
X172028586Y-131042889D01*
X172099068Y-130872729D01*
X172135000Y-130692089D01*
X172135000Y-130625000D01*
X175431742Y-130625000D01*
X175478286Y-130681714D01*
X175540685Y-130732923D01*
X176507079Y-131699318D01*
X176558286Y-131761714D01*
X176807248Y-131966031D01*
X177017262Y-132078286D01*
X177091285Y-132117852D01*
X177399483Y-132211343D01*
X177720000Y-132242911D01*
X177800322Y-132235000D01*
X179122643Y-132235000D01*
X179209484Y-132261343D01*
X179530000Y-132292911D01*
X179610322Y-132285000D01*
X182180322Y-132285000D01*
X182420516Y-132261343D01*
X182507357Y-132235000D01*
X184622762Y-132235000D01*
X186305001Y-133917240D01*
X186305000Y-139633593D01*
X186275052Y-139624508D01*
X186150570Y-139612248D01*
X184649430Y-139612248D01*
X184524948Y-139624508D01*
X184405250Y-139660818D01*
X184294936Y-139719783D01*
X184198245Y-139799135D01*
X184118893Y-139895826D01*
X184059928Y-140006140D01*
X184023618Y-140125838D01*
X184014047Y-140223014D01*
X183844485Y-140016404D01*
X183633505Y-139843256D01*
X183392799Y-139714597D01*
X183131618Y-139635368D01*
X182860000Y-139608616D01*
X182588381Y-139635368D01*
X182327200Y-139714597D01*
X182086494Y-139843256D01*
X181875514Y-140016405D01*
X181702366Y-140227385D01*
X181573707Y-140468091D01*
X181494478Y-140729272D01*
X181474430Y-140932824D01*
X181474430Y-142067177D01*
X181494478Y-142270729D01*
X181573707Y-142531910D01*
X181702366Y-142772616D01*
X181875515Y-142983596D01*
X182086495Y-143156744D01*
X182327201Y-143285403D01*
X182588382Y-143364632D01*
X182860000Y-143391384D01*
X183131619Y-143364632D01*
X183392800Y-143285403D01*
X183633506Y-143156744D01*
X183844486Y-142983596D01*
X184014047Y-142776986D01*
X184023618Y-142874162D01*
X184059928Y-142993860D01*
X184118893Y-143104174D01*
X184198245Y-143200865D01*
X184294936Y-143280217D01*
X184405250Y-143339182D01*
X184524948Y-143375492D01*
X184649430Y-143387752D01*
X186150570Y-143387752D01*
X186275052Y-143375492D01*
X186394750Y-143339182D01*
X186505064Y-143280217D01*
X186601755Y-143200865D01*
X186681107Y-143104174D01*
X186740072Y-142993860D01*
X186776382Y-142874162D01*
X186785953Y-142776986D01*
X186955515Y-142983596D01*
X187166495Y-143156744D01*
X187407201Y-143285403D01*
X187668382Y-143364632D01*
X187940000Y-143391384D01*
X188211619Y-143364632D01*
X188472800Y-143285403D01*
X188713506Y-143156744D01*
X188924486Y-142983596D01*
X189097634Y-142772616D01*
X189226293Y-142531910D01*
X189236878Y-142497015D01*
X189306031Y-142412752D01*
X189457852Y-142128715D01*
X189551343Y-141820516D01*
X189575000Y-141580322D01*
X189575000Y-133320322D01*
X189582911Y-133240000D01*
X189551343Y-132919483D01*
X189457852Y-132611285D01*
X189441949Y-132581533D01*
X189306031Y-132327248D01*
X189101714Y-132078286D01*
X189039319Y-132027080D01*
X186512925Y-129500687D01*
X186461714Y-129438286D01*
X186212752Y-129233969D01*
X185928715Y-129082148D01*
X185620516Y-128988657D01*
X185380322Y-128965000D01*
X185380319Y-128965000D01*
X185300000Y-128957089D01*
X185219681Y-128965000D01*
X183348829Y-128965000D01*
X183456744Y-128833506D01*
X183585403Y-128592800D01*
X183664632Y-128331619D01*
X183691384Y-128060000D01*
X183664632Y-127788381D01*
X183585403Y-127527200D01*
X183456744Y-127286494D01*
X183283596Y-127075514D01*
X183072616Y-126902366D01*
X182831910Y-126773707D01*
X182570729Y-126694478D01*
X182367177Y-126674430D01*
X181232823Y-126674430D01*
X181029271Y-126694478D01*
X180768090Y-126773707D01*
X180527384Y-126902366D01*
X180316404Y-127075514D01*
X180143256Y-127286494D01*
X180014597Y-127527200D01*
X179935368Y-127788381D01*
X179908616Y-128060000D01*
X179935368Y-128331619D01*
X180014597Y-128592800D01*
X180143256Y-128833506D01*
X180292205Y-129015000D01*
X179887357Y-129015000D01*
X179800516Y-128988657D01*
X179560322Y-128965000D01*
X179560319Y-128965000D01*
X179480000Y-128957089D01*
X179399681Y-128965000D01*
X178397239Y-128965000D01*
X178267689Y-128835451D01*
X178251343Y-128669484D01*
X178157852Y-128361285D01*
X178006031Y-128077248D01*
X177861426Y-127901046D01*
X177964222Y-127858467D01*
X178231927Y-127679592D01*
X178459592Y-127451927D01*
X178638467Y-127184222D01*
X178761678Y-126886763D01*
X178824490Y-126570983D01*
X178824490Y-126249017D01*
X178761678Y-125933237D01*
X178638467Y-125635778D01*
X178459592Y-125368073D01*
X178231927Y-125140408D01*
X177964222Y-124961533D01*
X177666763Y-124838322D01*
X177350983Y-124775510D01*
X177029017Y-124775510D01*
X176713237Y-124838322D01*
X176415778Y-124961533D01*
X176148073Y-125140408D01*
X175920408Y-125368073D01*
X175741533Y-125635778D01*
X175618322Y-125933237D01*
X175555510Y-126249017D01*
X175555510Y-126570983D01*
X175618322Y-126886763D01*
X175741533Y-127184222D01*
X175855643Y-127355000D01*
X101397239Y-127355000D01*
X97452925Y-123410687D01*
X97452916Y-123410676D01*
X91765419Y-117723181D01*
X91765415Y-117723176D01*
X91109600Y-117067361D01*
X158565000Y-117067361D01*
X158565000Y-117832639D01*
X158714298Y-118583213D01*
X159007158Y-119290238D01*
X159432323Y-119926543D01*
X159973457Y-120467677D01*
X160609762Y-120892842D01*
X161316787Y-121185702D01*
X162067361Y-121335000D01*
X162832639Y-121335000D01*
X163583213Y-121185702D01*
X164290238Y-120892842D01*
X164380061Y-120832824D01*
X181274430Y-120832824D01*
X181274430Y-121967177D01*
X181294478Y-122170729D01*
X181373707Y-122431910D01*
X181502366Y-122672616D01*
X181675515Y-122883596D01*
X181886495Y-123056744D01*
X182127201Y-123185403D01*
X182388382Y-123264632D01*
X182660000Y-123291384D01*
X182931619Y-123264632D01*
X183192800Y-123185403D01*
X183433506Y-123056744D01*
X183644486Y-122883596D01*
X183814047Y-122676986D01*
X183823618Y-122774162D01*
X183859928Y-122893860D01*
X183918893Y-123004174D01*
X183998245Y-123100865D01*
X184094936Y-123180217D01*
X184205250Y-123239182D01*
X184324948Y-123275492D01*
X184449430Y-123287752D01*
X185950570Y-123287752D01*
X186075052Y-123275492D01*
X186194750Y-123239182D01*
X186305064Y-123180217D01*
X186401755Y-123100865D01*
X186481107Y-123004174D01*
X186540072Y-122893860D01*
X186576382Y-122774162D01*
X186585953Y-122676986D01*
X186755515Y-122883596D01*
X186966495Y-123056744D01*
X187207201Y-123185403D01*
X187468382Y-123264632D01*
X187740000Y-123291384D01*
X188011619Y-123264632D01*
X188272800Y-123185403D01*
X188513506Y-123056744D01*
X188724486Y-122883596D01*
X188897634Y-122672616D01*
X189026293Y-122431910D01*
X189105522Y-122170729D01*
X189125570Y-121967177D01*
X189125570Y-120832823D01*
X189105522Y-120629271D01*
X189026293Y-120368090D01*
X188897634Y-120127384D01*
X188724485Y-119916404D01*
X188513505Y-119743256D01*
X188272799Y-119614597D01*
X188011618Y-119535368D01*
X187740000Y-119508616D01*
X187468381Y-119535368D01*
X187207200Y-119614597D01*
X186966494Y-119743256D01*
X186755514Y-119916405D01*
X186585953Y-120123015D01*
X186576382Y-120025838D01*
X186540072Y-119906140D01*
X186481107Y-119795826D01*
X186401755Y-119699135D01*
X186305064Y-119619783D01*
X186194750Y-119560818D01*
X186075052Y-119524508D01*
X185950570Y-119512248D01*
X184449430Y-119512248D01*
X184324948Y-119524508D01*
X184205250Y-119560818D01*
X184094936Y-119619783D01*
X183998245Y-119699135D01*
X183918893Y-119795826D01*
X183859928Y-119906140D01*
X183823618Y-120025838D01*
X183814047Y-120123014D01*
X183644485Y-119916404D01*
X183433505Y-119743256D01*
X183192799Y-119614597D01*
X182931618Y-119535368D01*
X182660000Y-119508616D01*
X182388381Y-119535368D01*
X182127200Y-119614597D01*
X181886494Y-119743256D01*
X181675514Y-119916405D01*
X181502366Y-120127385D01*
X181373707Y-120368091D01*
X181294478Y-120629272D01*
X181274430Y-120832824D01*
X164380061Y-120832824D01*
X164926543Y-120467677D01*
X165467677Y-119926543D01*
X165892842Y-119290238D01*
X166185702Y-118583213D01*
X166335000Y-117832639D01*
X166335000Y-117067361D01*
X166185702Y-116316787D01*
X165892842Y-115609762D01*
X165467677Y-114973457D01*
X164926543Y-114432323D01*
X164290238Y-114007158D01*
X163583213Y-113714298D01*
X162832639Y-113565000D01*
X162067361Y-113565000D01*
X161316787Y-113714298D01*
X160609762Y-114007158D01*
X159973457Y-114432323D01*
X159432323Y-114973457D01*
X159007158Y-115609762D01*
X158714298Y-116316787D01*
X158565000Y-117067361D01*
X91109600Y-117067361D01*
X86127919Y-112085681D01*
X86127915Y-112085676D01*
X79390415Y-105348176D01*
X73142925Y-99100687D01*
X73091714Y-99038286D01*
X72842752Y-98833969D01*
X72558715Y-98682148D01*
X72250516Y-98588657D01*
X72010322Y-98565000D01*
X72010319Y-98565000D01*
X71930000Y-98557089D01*
X71849681Y-98565000D01*
X68050242Y-98565000D01*
X68009818Y-98361774D01*
X67534760Y-97214883D01*
X66845083Y-96182709D01*
X65967291Y-95304917D01*
X64935117Y-94615240D01*
X63788226Y-94140182D01*
X62781773Y-93939986D01*
X63813226Y-93734818D01*
X64960117Y-93259760D01*
X65992291Y-92570083D01*
X66077375Y-92484999D01*
X69522761Y-92484999D01*
X70750676Y-93712915D01*
X70750681Y-93712919D01*
X72662080Y-95624318D01*
X72713286Y-95686714D01*
X72962248Y-95891031D01*
X73246285Y-96042852D01*
X73554484Y-96136343D01*
X73794678Y-96160000D01*
X73794680Y-96160000D01*
X73874999Y-96167911D01*
X73955319Y-96160000D01*
X80852762Y-96160000D01*
X87452080Y-102759319D01*
X87503286Y-102821714D01*
X87752248Y-103026031D01*
X87982279Y-103148985D01*
X88036285Y-103177852D01*
X88344483Y-103271343D01*
X88665000Y-103302911D01*
X88745322Y-103295000D01*
X111622762Y-103295000D01*
X111692075Y-103364313D01*
X111743286Y-103426714D01*
X111805686Y-103477924D01*
X113217083Y-104889323D01*
X113268286Y-104951714D01*
X113517248Y-105156031D01*
X113760004Y-105285787D01*
X113801285Y-105307852D01*
X114051523Y-105383761D01*
X118947080Y-110279319D01*
X118998286Y-110341714D01*
X119247248Y-110546031D01*
X119531285Y-110697852D01*
X119839484Y-110791343D01*
X120079678Y-110815000D01*
X120079680Y-110815000D01*
X120159999Y-110822911D01*
X120240319Y-110815000D01*
X121639678Y-110815000D01*
X121720000Y-110822911D01*
X121800322Y-110815000D01*
X176932762Y-110815000D01*
X177517079Y-111399318D01*
X177568286Y-111461714D01*
X177817248Y-111666031D01*
X178101285Y-111817852D01*
X178409484Y-111911343D01*
X178649678Y-111935000D01*
X178649680Y-111935000D01*
X178729999Y-111942911D01*
X178810319Y-111935000D01*
X182080322Y-111935000D01*
X182320516Y-111911343D01*
X182628715Y-111817852D01*
X182912752Y-111666031D01*
X183161714Y-111461714D01*
X183188142Y-111429511D01*
X183322616Y-111357634D01*
X183533596Y-111184486D01*
X183706744Y-110973506D01*
X183835403Y-110732800D01*
X183914632Y-110471619D01*
X183941384Y-110200000D01*
X183914632Y-109928381D01*
X183835403Y-109667200D01*
X183706744Y-109426494D01*
X183533596Y-109215514D01*
X183322616Y-109042366D01*
X183112392Y-108930000D01*
X183322616Y-108817634D01*
X183533596Y-108644486D01*
X183706744Y-108433506D01*
X183835403Y-108192800D01*
X183914632Y-107931619D01*
X183941384Y-107660000D01*
X183914632Y-107388381D01*
X183835403Y-107127200D01*
X183706744Y-106886494D01*
X183533596Y-106675514D01*
X183322616Y-106502366D01*
X183081910Y-106373707D01*
X182820729Y-106294478D01*
X182617177Y-106274430D01*
X182560000Y-106274430D01*
X182560000Y-101994358D01*
X182574222Y-101988467D01*
X182841927Y-101809592D01*
X183069592Y-101581927D01*
X183248467Y-101314222D01*
X183371678Y-101016763D01*
X183434490Y-100700983D01*
X183434490Y-100379017D01*
X183371678Y-100063237D01*
X183248467Y-99765778D01*
X183069592Y-99498073D01*
X182841927Y-99270408D01*
X182574222Y-99091533D01*
X182276763Y-98968322D01*
X181960983Y-98905510D01*
X181639017Y-98905510D01*
X181323237Y-98968322D01*
X181025778Y-99091533D01*
X180758073Y-99270408D01*
X180530408Y-99498073D01*
X180351533Y-99765778D01*
X180228322Y-100063237D01*
X180165510Y-100379017D01*
X180165510Y-100700983D01*
X180228322Y-101016763D01*
X180351533Y-101314222D01*
X180530408Y-101581927D01*
X180758073Y-101809592D01*
X181025778Y-101988467D01*
X181040000Y-101994358D01*
X181040001Y-106367060D01*
X181018090Y-106373707D01*
X180777384Y-106502366D01*
X180566404Y-106675514D01*
X180393256Y-106886494D01*
X180264597Y-107127200D01*
X180185368Y-107388381D01*
X180158616Y-107660000D01*
X180185368Y-107931619D01*
X180264597Y-108192800D01*
X180393256Y-108433506D01*
X180566404Y-108644486D01*
X180591400Y-108665000D01*
X179407239Y-108665000D01*
X178822924Y-108080686D01*
X178771714Y-108018286D01*
X178522752Y-107813969D01*
X178238715Y-107662148D01*
X177930516Y-107568657D01*
X177690322Y-107545000D01*
X177690319Y-107545000D01*
X177610000Y-107537089D01*
X177529681Y-107545000D01*
X122397240Y-107545000D01*
X117132919Y-102280681D01*
X117132915Y-102280676D01*
X116017924Y-101165686D01*
X115966714Y-101103286D01*
X115717752Y-100898969D01*
X115433715Y-100747148D01*
X115125516Y-100653657D01*
X114885322Y-100630000D01*
X114885319Y-100630000D01*
X114805000Y-100622089D01*
X114786181Y-100623943D01*
X114722925Y-100560687D01*
X114671714Y-100498286D01*
X114422752Y-100293969D01*
X114138715Y-100142148D01*
X113830516Y-100048657D01*
X113590322Y-100025000D01*
X113590319Y-100025000D01*
X113510000Y-100017089D01*
X113429681Y-100025000D01*
X112380319Y-100025000D01*
X112300000Y-100017089D01*
X112219681Y-100025000D01*
X89342239Y-100025000D01*
X82742925Y-93425687D01*
X82691714Y-93363286D01*
X82442752Y-93158969D01*
X82158715Y-93007148D01*
X81850516Y-92913657D01*
X81610322Y-92890000D01*
X81610319Y-92890000D01*
X81530000Y-92882089D01*
X81449681Y-92890000D01*
X74552239Y-92890000D01*
X73062919Y-91400681D01*
X73062915Y-91400676D01*
X71412924Y-89750685D01*
X71361713Y-89688285D01*
X71112751Y-89483968D01*
X70828714Y-89332147D01*
X70520515Y-89238656D01*
X70280321Y-89214999D01*
X70280318Y-89214999D01*
X70199999Y-89207088D01*
X70119680Y-89214999D01*
X68094139Y-89214999D01*
X68277000Y-88295693D01*
X68277000Y-87054307D01*
X68034818Y-85836774D01*
X67559760Y-84689883D01*
X66870083Y-83657709D01*
X65992291Y-82779917D01*
X64960117Y-82090240D01*
X63813226Y-81615182D01*
X62595693Y-81373000D01*
X61354307Y-81373000D01*
X60136774Y-81615182D01*
X58989883Y-82090240D01*
X57957709Y-82779917D01*
X57079917Y-83657709D01*
X56390240Y-84689883D01*
X55915182Y-85836774D01*
X55673000Y-87054307D01*
X55673000Y-88295693D01*
X55915182Y-89513226D01*
X56390240Y-90660117D01*
X57079917Y-91692291D01*
X57957709Y-92570083D01*
X58989883Y-93259760D01*
X60136774Y-93734818D01*
X61143227Y-93935014D01*
X60111774Y-94140182D01*
X58964883Y-94615240D01*
X57932709Y-95304917D01*
X57054917Y-96182709D01*
X56365240Y-97214883D01*
X55890182Y-98361774D01*
X55648000Y-99579307D01*
X50710000Y-99579307D01*
X50710000Y-74179307D01*
X55673000Y-74179307D01*
X55673000Y-75420693D01*
X55915182Y-76638226D01*
X56390240Y-77785117D01*
X57079917Y-78817291D01*
X57957709Y-79695083D01*
X58989883Y-80384760D01*
X60136774Y-80859818D01*
X61354307Y-81102000D01*
X62595693Y-81102000D01*
X63813226Y-80859818D01*
X64960117Y-80384760D01*
X65969966Y-79710000D01*
X75822762Y-79710000D01*
X76440001Y-80327240D01*
X76440000Y-83020000D01*
X76432089Y-83100320D01*
X76440000Y-83180639D01*
X76440000Y-83180641D01*
X76463657Y-83420835D01*
X76557148Y-83729034D01*
X76708969Y-84013071D01*
X76913286Y-84262034D01*
X76975686Y-84313244D01*
X77840001Y-85177559D01*
X77840000Y-87830321D01*
X77863657Y-88070515D01*
X77957148Y-88378714D01*
X78086358Y-88620449D01*
X78086358Y-88999680D01*
X78098618Y-89124162D01*
X78134928Y-89243860D01*
X78193893Y-89354174D01*
X78273245Y-89450865D01*
X78369936Y-89530217D01*
X78480250Y-89589182D01*
X78599948Y-89625492D01*
X78724430Y-89637752D01*
X80225570Y-89637752D01*
X80350052Y-89625492D01*
X80469750Y-89589182D01*
X80580064Y-89530217D01*
X80676755Y-89450865D01*
X80756107Y-89354174D01*
X80815072Y-89243860D01*
X80851382Y-89124162D01*
X80863642Y-88999680D01*
X80863642Y-88620450D01*
X80992852Y-88378715D01*
X81086343Y-88070516D01*
X81110000Y-87830322D01*
X81110000Y-84580639D01*
X81117911Y-84500320D01*
X81109794Y-84417911D01*
X81086343Y-84179804D01*
X80992852Y-83871605D01*
X80841031Y-83587568D01*
X80636714Y-83338606D01*
X80574318Y-83287399D01*
X79710000Y-82423082D01*
X79710000Y-80945000D01*
X80921171Y-80945000D01*
X80813256Y-81076494D01*
X80684597Y-81317200D01*
X80605368Y-81578381D01*
X80578616Y-81850000D01*
X80605368Y-82121619D01*
X80684597Y-82382800D01*
X80813256Y-82623506D01*
X80986404Y-82834486D01*
X81197384Y-83007634D01*
X81438090Y-83136293D01*
X81699271Y-83215522D01*
X81902823Y-83235570D01*
X83037177Y-83235570D01*
X83240729Y-83215522D01*
X83501910Y-83136293D01*
X83742616Y-83007634D01*
X83953596Y-82834486D01*
X84126744Y-82623506D01*
X84133963Y-82610000D01*
X87862678Y-82610000D01*
X87900000Y-82613676D01*
X87937322Y-82610000D01*
X87937333Y-82610000D01*
X88048986Y-82599003D01*
X88192247Y-82555546D01*
X88324276Y-82484974D01*
X88440001Y-82390001D01*
X88463804Y-82360997D01*
X92511003Y-78313799D01*
X92540001Y-78290001D01*
X92634974Y-78174276D01*
X92705546Y-78042247D01*
X92749003Y-77898986D01*
X92760000Y-77787333D01*
X92763677Y-77750000D01*
X92760000Y-77712667D01*
X92760000Y-47632823D01*
X93554430Y-47632823D01*
X93554430Y-48767176D01*
X93574478Y-48970728D01*
X93653707Y-49231909D01*
X93782366Y-49472615D01*
X93955514Y-49683595D01*
X94166494Y-49856744D01*
X94407200Y-49985403D01*
X94668381Y-50064632D01*
X94940000Y-50091384D01*
X95211618Y-50064632D01*
X95472799Y-49985403D01*
X95713505Y-49856744D01*
X95924485Y-49683596D01*
X96097634Y-49472616D01*
X96226293Y-49231910D01*
X96305522Y-48970729D01*
X96325570Y-48767177D01*
X96325570Y-47829117D01*
X100865000Y-47829117D01*
X100865000Y-48170883D01*
X100931675Y-48506081D01*
X101062463Y-48821831D01*
X101252337Y-49105998D01*
X101494002Y-49347663D01*
X101778169Y-49537537D01*
X102093919Y-49668325D01*
X102429117Y-49735000D01*
X102770883Y-49735000D01*
X103106081Y-49668325D01*
X103421831Y-49537537D01*
X103705998Y-49347663D01*
X103947663Y-49105998D01*
X104137537Y-48821831D01*
X104268325Y-48506081D01*
X104335000Y-48170883D01*
X104335000Y-47829117D01*
X107865000Y-47829117D01*
X107865000Y-48170883D01*
X107931675Y-48506081D01*
X108062463Y-48821831D01*
X108252337Y-49105998D01*
X108494002Y-49347663D01*
X108778169Y-49537537D01*
X109093919Y-49668325D01*
X109429117Y-49735000D01*
X109770883Y-49735000D01*
X110106081Y-49668325D01*
X110421831Y-49537537D01*
X110705998Y-49347663D01*
X110947663Y-49105998D01*
X111137537Y-48821831D01*
X111268325Y-48506081D01*
X111335000Y-48170883D01*
X111335000Y-47829117D01*
X111268325Y-47493919D01*
X111137537Y-47178169D01*
X110947663Y-46894002D01*
X110705998Y-46652337D01*
X110421831Y-46462463D01*
X110106081Y-46331675D01*
X109770883Y-46265000D01*
X109429117Y-46265000D01*
X109093919Y-46331675D01*
X108778169Y-46462463D01*
X108494002Y-46652337D01*
X108252337Y-46894002D01*
X108062463Y-47178169D01*
X107931675Y-47493919D01*
X107865000Y-47829117D01*
X104335000Y-47829117D01*
X104268325Y-47493919D01*
X104137537Y-47178169D01*
X103947663Y-46894002D01*
X103705998Y-46652337D01*
X103421831Y-46462463D01*
X103106081Y-46331675D01*
X102770883Y-46265000D01*
X102429117Y-46265000D01*
X102093919Y-46331675D01*
X101778169Y-46462463D01*
X101494002Y-46652337D01*
X101252337Y-46894002D01*
X101062463Y-47178169D01*
X100931675Y-47493919D01*
X100865000Y-47829117D01*
X96325570Y-47829117D01*
X96325570Y-47632823D01*
X96305522Y-47429271D01*
X96226293Y-47168090D01*
X96097634Y-46927384D01*
X95924486Y-46716404D01*
X95713506Y-46543256D01*
X95472800Y-46414597D01*
X95211619Y-46335368D01*
X94940000Y-46308616D01*
X94668382Y-46335368D01*
X94407201Y-46414597D01*
X94166495Y-46543256D01*
X93955515Y-46716404D01*
X93782366Y-46927384D01*
X93653707Y-47168090D01*
X93574478Y-47429271D01*
X93554430Y-47632823D01*
X92760000Y-47632823D01*
X92760000Y-46387333D01*
X92763677Y-46350000D01*
X92749003Y-46201014D01*
X92705546Y-46057753D01*
X92634974Y-45925724D01*
X92563799Y-45838997D01*
X92540001Y-45809999D01*
X92511004Y-45786202D01*
X91760000Y-45035199D01*
X91760000Y-44164358D01*
X91774222Y-44158467D01*
X92041927Y-43979592D01*
X92269592Y-43751927D01*
X92448467Y-43484222D01*
X92571678Y-43186763D01*
X92634490Y-42870983D01*
X92634490Y-42549017D01*
X96985510Y-42549017D01*
X96985510Y-42870983D01*
X97048322Y-43186763D01*
X97171533Y-43484222D01*
X97350408Y-43751927D01*
X97578073Y-43979592D01*
X97845778Y-44158467D01*
X98143237Y-44281678D01*
X98459017Y-44344490D01*
X98780983Y-44344490D01*
X99096763Y-44281678D01*
X99394222Y-44158467D01*
X99661927Y-43979592D01*
X99889592Y-43751927D01*
X100068467Y-43484222D01*
X100191678Y-43186763D01*
X100254490Y-42870983D01*
X100254490Y-42549017D01*
X100191678Y-42233237D01*
X100068467Y-41935778D01*
X99889592Y-41668073D01*
X99661927Y-41440408D01*
X99394222Y-41261533D01*
X99096763Y-41138322D01*
X98780983Y-41075510D01*
X98459017Y-41075510D01*
X98143237Y-41138322D01*
X97845778Y-41261533D01*
X97578073Y-41440408D01*
X97350408Y-41668073D01*
X97171533Y-41935778D01*
X97048322Y-42233237D01*
X96985510Y-42549017D01*
X92634490Y-42549017D01*
X92571678Y-42233237D01*
X92448467Y-41935778D01*
X92269592Y-41668073D01*
X92041927Y-41440408D01*
X91774222Y-41261533D01*
X91476763Y-41138322D01*
X91160983Y-41075510D01*
X90839017Y-41075510D01*
X90523237Y-41138322D01*
X90225778Y-41261533D01*
X89958073Y-41440408D01*
X89730408Y-41668073D01*
X89551533Y-41935778D01*
X89428322Y-42233237D01*
X89365510Y-42549017D01*
X89365510Y-42870983D01*
X89428322Y-43186763D01*
X89551533Y-43484222D01*
X89730408Y-43751927D01*
X89958073Y-43979592D01*
X90225778Y-44158467D01*
X90240001Y-44164358D01*
X90240001Y-45312668D01*
X90236324Y-45350000D01*
X90250998Y-45498985D01*
X90294454Y-45642246D01*
X90365026Y-45774276D01*
X90418142Y-45838997D01*
X90460000Y-45890001D01*
X90488998Y-45913799D01*
X91240000Y-46664802D01*
X91240000Y-47576270D01*
X91225522Y-47429271D01*
X91146293Y-47168090D01*
X91017634Y-46927384D01*
X90844486Y-46716404D01*
X90633506Y-46543256D01*
X90392800Y-46414597D01*
X90131619Y-46335368D01*
X89860000Y-46308616D01*
X89588382Y-46335368D01*
X89327201Y-46414597D01*
X89086495Y-46543256D01*
X88875515Y-46716404D01*
X88702366Y-46927384D01*
X88573707Y-47168090D01*
X88494478Y-47429271D01*
X88474430Y-47632823D01*
X88474430Y-48767176D01*
X88494478Y-48970728D01*
X88573707Y-49231909D01*
X88702366Y-49472615D01*
X88875514Y-49683595D01*
X89086494Y-49856744D01*
X89327200Y-49985403D01*
X89588381Y-50064632D01*
X89860000Y-50091384D01*
X90131618Y-50064632D01*
X90392799Y-49985403D01*
X90633505Y-49856744D01*
X90844485Y-49683596D01*
X91017634Y-49472616D01*
X91146293Y-49231910D01*
X91225522Y-48970729D01*
X91240000Y-48823730D01*
X91240001Y-77435197D01*
X87585199Y-81090000D01*
X84133963Y-81090000D01*
X84126744Y-81076494D01*
X83953596Y-80865514D01*
X83742616Y-80692366D01*
X83532392Y-80580000D01*
X83742616Y-80467634D01*
X83953596Y-80294486D01*
X84126744Y-80083506D01*
X84255403Y-79842800D01*
X84334632Y-79581619D01*
X84361384Y-79310000D01*
X84334632Y-79038381D01*
X84255403Y-78777200D01*
X84126744Y-78536494D01*
X83953596Y-78325514D01*
X83742616Y-78152366D01*
X83532392Y-78040000D01*
X83742616Y-77927634D01*
X83953596Y-77754486D01*
X84126744Y-77543506D01*
X84255403Y-77302800D01*
X84334632Y-77041619D01*
X84361384Y-76770000D01*
X84334632Y-76498381D01*
X84255403Y-76237200D01*
X84126744Y-75996494D01*
X83953596Y-75785514D01*
X83742616Y-75612366D01*
X83501910Y-75483707D01*
X83240729Y-75404478D01*
X83037177Y-75384430D01*
X81902823Y-75384430D01*
X81699271Y-75404478D01*
X81438090Y-75483707D01*
X81197384Y-75612366D01*
X80986404Y-75785514D01*
X80813256Y-75996494D01*
X80684597Y-76237200D01*
X80605368Y-76498381D01*
X80578616Y-76770000D01*
X80605368Y-77041619D01*
X80684597Y-77302800D01*
X80813256Y-77543506D01*
X80921171Y-77675000D01*
X78412239Y-77675000D01*
X77712924Y-76975686D01*
X77661714Y-76913286D01*
X77412752Y-76708969D01*
X77128715Y-76557148D01*
X76820516Y-76463657D01*
X76580322Y-76440000D01*
X76580319Y-76440000D01*
X76500000Y-76432089D01*
X76419681Y-76440000D01*
X68074248Y-76440000D01*
X68277000Y-75420693D01*
X68277000Y-74179307D01*
X68034818Y-72961774D01*
X67559760Y-71814883D01*
X66870083Y-70782709D01*
X65992291Y-69904917D01*
X64960117Y-69215240D01*
X63813226Y-68740182D01*
X62595693Y-68498000D01*
X61354307Y-68498000D01*
X60136774Y-68740182D01*
X58989883Y-69215240D01*
X57957709Y-69904917D01*
X57079917Y-70782709D01*
X56390240Y-71814883D01*
X55915182Y-72961774D01*
X55673000Y-74179307D01*
X50710000Y-74179307D01*
X50710000Y-48879307D01*
X55623000Y-48879307D01*
X55623000Y-50120693D01*
X55865182Y-51338226D01*
X56340240Y-52485117D01*
X57029917Y-53517291D01*
X57907709Y-54395083D01*
X58939883Y-55084760D01*
X60086774Y-55559818D01*
X61304307Y-55802000D01*
X62545693Y-55802000D01*
X63763226Y-55559818D01*
X64910117Y-55084760D01*
X65942291Y-54395083D01*
X66820083Y-53517291D01*
X67509760Y-52485117D01*
X67984818Y-51338226D01*
X68227000Y-50120693D01*
X68227000Y-48879307D01*
X67984818Y-47661774D01*
X67509760Y-46514883D01*
X66820083Y-45482709D01*
X65942291Y-44604917D01*
X64910117Y-43915240D01*
X63763226Y-43440182D01*
X62844615Y-43257459D01*
X63838226Y-43059818D01*
X64985117Y-42584760D01*
X66017291Y-41895083D01*
X66895083Y-41017291D01*
X67584760Y-39985117D01*
X68059818Y-38838226D01*
X68302000Y-37620693D01*
X68302000Y-36379307D01*
X68059818Y-35161774D01*
X67584760Y-34014883D01*
X66895083Y-32982709D01*
X66668473Y-32756099D01*
X69441700Y-32756099D01*
X69441700Y-33203901D01*
X69529061Y-33643097D01*
X69700427Y-34056812D01*
X69949212Y-34429145D01*
X70265855Y-34745788D01*
X70638188Y-34994573D01*
X71051903Y-35165939D01*
X71491099Y-35253300D01*
X71938901Y-35253300D01*
X72378097Y-35165939D01*
X72791812Y-34994573D01*
X73164145Y-34745788D01*
X73361117Y-34548816D01*
X85165000Y-34548816D01*
X85165000Y-34851184D01*
X85223989Y-35147743D01*
X85339701Y-35427095D01*
X85507688Y-35678505D01*
X85721495Y-35892312D01*
X85972905Y-36060299D01*
X86252257Y-36176011D01*
X86548816Y-36235000D01*
X86851184Y-36235000D01*
X87108930Y-36183731D01*
X91446200Y-40521002D01*
X91469999Y-40550001D01*
X91498997Y-40573799D01*
X91585723Y-40644974D01*
X91717753Y-40715546D01*
X91861014Y-40759003D01*
X91972667Y-40770000D01*
X91972677Y-40770000D01*
X92009999Y-40773676D01*
X92047322Y-40770000D01*
X107864988Y-40770000D01*
X107805510Y-41069017D01*
X107805510Y-41390983D01*
X107868322Y-41706763D01*
X107991533Y-42004222D01*
X108170408Y-42271927D01*
X108398073Y-42499592D01*
X108665778Y-42678467D01*
X108963237Y-42801678D01*
X109279017Y-42864490D01*
X109600983Y-42864490D01*
X109916763Y-42801678D01*
X110214222Y-42678467D01*
X110481927Y-42499592D01*
X110709592Y-42271927D01*
X110888467Y-42004222D01*
X111011678Y-41706763D01*
X111074490Y-41390983D01*
X111074490Y-41069017D01*
X111011678Y-40753237D01*
X110888467Y-40455778D01*
X110709592Y-40188073D01*
X110481927Y-39960408D01*
X110214222Y-39781533D01*
X109916763Y-39658322D01*
X109600983Y-39595510D01*
X109279017Y-39595510D01*
X108963237Y-39658322D01*
X108949014Y-39664213D01*
X108783804Y-39499003D01*
X108760001Y-39469999D01*
X108644276Y-39375026D01*
X108512247Y-39304454D01*
X108368986Y-39260997D01*
X108257333Y-39250000D01*
X108257322Y-39250000D01*
X108220000Y-39246324D01*
X108182678Y-39250000D01*
X92324802Y-39250000D01*
X89249791Y-36174989D01*
X89252257Y-36176011D01*
X89548816Y-36235000D01*
X89851184Y-36235000D01*
X90147743Y-36176011D01*
X90427095Y-36060299D01*
X90678505Y-35892312D01*
X90892312Y-35678505D01*
X91060299Y-35427095D01*
X91176011Y-35147743D01*
X91200000Y-35027142D01*
X91223989Y-35147743D01*
X91339701Y-35427095D01*
X91507688Y-35678505D01*
X91721495Y-35892312D01*
X91972905Y-36060299D01*
X92252257Y-36176011D01*
X92548816Y-36235000D01*
X92851184Y-36235000D01*
X93147743Y-36176011D01*
X93427095Y-36060299D01*
X93678505Y-35892312D01*
X93892312Y-35678505D01*
X94060299Y-35427095D01*
X94176011Y-35147743D01*
X94200000Y-35027142D01*
X94223989Y-35147743D01*
X94339701Y-35427095D01*
X94507688Y-35678505D01*
X94721495Y-35892312D01*
X94972905Y-36060299D01*
X95252257Y-36176011D01*
X95548816Y-36235000D01*
X95851184Y-36235000D01*
X96147743Y-36176011D01*
X96427095Y-36060299D01*
X96678505Y-35892312D01*
X96892312Y-35678505D01*
X97060299Y-35427095D01*
X97176011Y-35147743D01*
X97200000Y-35027142D01*
X97223989Y-35147743D01*
X97339701Y-35427095D01*
X97507688Y-35678505D01*
X97721495Y-35892312D01*
X97972905Y-36060299D01*
X98252257Y-36176011D01*
X98548816Y-36235000D01*
X98851184Y-36235000D01*
X99147743Y-36176011D01*
X99427095Y-36060299D01*
X99678505Y-35892312D01*
X99892312Y-35678505D01*
X100060299Y-35427095D01*
X100176011Y-35147743D01*
X100200000Y-35027142D01*
X100223989Y-35147743D01*
X100339701Y-35427095D01*
X100507688Y-35678505D01*
X100721495Y-35892312D01*
X100972905Y-36060299D01*
X101252257Y-36176011D01*
X101548816Y-36235000D01*
X101851184Y-36235000D01*
X102147743Y-36176011D01*
X102427095Y-36060299D01*
X102678505Y-35892312D01*
X102892312Y-35678505D01*
X103060299Y-35427095D01*
X103176011Y-35147743D01*
X103200000Y-35027142D01*
X103223989Y-35147743D01*
X103339701Y-35427095D01*
X103507688Y-35678505D01*
X103721495Y-35892312D01*
X103972905Y-36060299D01*
X104252257Y-36176011D01*
X104548816Y-36235000D01*
X104851184Y-36235000D01*
X105147743Y-36176011D01*
X105427095Y-36060299D01*
X105678505Y-35892312D01*
X105892312Y-35678505D01*
X106060299Y-35427095D01*
X106176011Y-35147743D01*
X106200000Y-35027142D01*
X106223989Y-35147743D01*
X106339701Y-35427095D01*
X106507688Y-35678505D01*
X106721495Y-35892312D01*
X106972905Y-36060299D01*
X107252257Y-36176011D01*
X107548816Y-36235000D01*
X107851184Y-36235000D01*
X108147743Y-36176011D01*
X108427095Y-36060299D01*
X108678505Y-35892312D01*
X108892312Y-35678505D01*
X109060299Y-35427095D01*
X109176011Y-35147743D01*
X109200000Y-35027142D01*
X109223989Y-35147743D01*
X109339701Y-35427095D01*
X109507688Y-35678505D01*
X109721495Y-35892312D01*
X109972905Y-36060299D01*
X110252257Y-36176011D01*
X110548816Y-36235000D01*
X110851184Y-36235000D01*
X111147743Y-36176011D01*
X111427095Y-36060299D01*
X111678505Y-35892312D01*
X111892312Y-35678505D01*
X112060299Y-35427095D01*
X112176011Y-35147743D01*
X112200000Y-35027142D01*
X112223989Y-35147743D01*
X112339701Y-35427095D01*
X112507688Y-35678505D01*
X112721495Y-35892312D01*
X112940000Y-36038313D01*
X112940001Y-55912667D01*
X112936324Y-55950000D01*
X112950998Y-56098985D01*
X112994454Y-56242246D01*
X113065026Y-56374276D01*
X113134955Y-56459484D01*
X113160000Y-56490001D01*
X113188998Y-56513799D01*
X148560000Y-91884802D01*
X148560001Y-98722668D01*
X148556324Y-98760000D01*
X148560001Y-98797333D01*
X148563610Y-98833970D01*
X148570998Y-98908985D01*
X148614454Y-99052246D01*
X148685026Y-99184276D01*
X148751275Y-99265000D01*
X148780000Y-99300001D01*
X148808998Y-99323799D01*
X152996201Y-103511003D01*
X153019999Y-103540001D01*
X153048997Y-103563799D01*
X153135724Y-103634974D01*
X153267753Y-103705546D01*
X153411014Y-103749003D01*
X153560000Y-103763677D01*
X153597333Y-103760000D01*
X171682678Y-103760000D01*
X171720000Y-103763676D01*
X171757322Y-103760000D01*
X171757333Y-103760000D01*
X171868986Y-103749003D01*
X172012247Y-103705546D01*
X172144276Y-103634974D01*
X172260001Y-103540001D01*
X172283804Y-103510997D01*
X173689015Y-102105787D01*
X173703237Y-102111678D01*
X174019017Y-102174490D01*
X174340983Y-102174490D01*
X174656763Y-102111678D01*
X174954222Y-101988467D01*
X175221927Y-101809592D01*
X175449592Y-101581927D01*
X175628467Y-101314222D01*
X175751678Y-101016763D01*
X175814490Y-100700983D01*
X175814490Y-100379017D01*
X175751678Y-100063237D01*
X175628467Y-99765778D01*
X175449592Y-99498073D01*
X175221927Y-99270408D01*
X174954222Y-99091533D01*
X174656763Y-98968322D01*
X174340983Y-98905510D01*
X174019017Y-98905510D01*
X173703237Y-98968322D01*
X173405778Y-99091533D01*
X173138073Y-99270408D01*
X172910408Y-99498073D01*
X172731533Y-99765778D01*
X172608322Y-100063237D01*
X172545510Y-100379017D01*
X172545510Y-100700983D01*
X172608322Y-101016763D01*
X172614213Y-101030985D01*
X171405199Y-102240000D01*
X153874802Y-102240000D01*
X150080000Y-98445199D01*
X150080000Y-91607322D01*
X150083676Y-91569999D01*
X150080000Y-91532676D01*
X150080000Y-91532667D01*
X150069003Y-91421014D01*
X150025546Y-91277753D01*
X150013935Y-91256030D01*
X149954974Y-91145723D01*
X149883799Y-91058997D01*
X149860001Y-91029999D01*
X149831004Y-91006202D01*
X114460000Y-55635199D01*
X114460000Y-47838967D01*
X119465000Y-47838967D01*
X119465000Y-48161033D01*
X119527832Y-48476912D01*
X119651082Y-48774463D01*
X119830013Y-49042252D01*
X120057748Y-49269987D01*
X120325537Y-49448918D01*
X120623088Y-49572168D01*
X120938967Y-49635000D01*
X121261033Y-49635000D01*
X121576912Y-49572168D01*
X121874463Y-49448918D01*
X122142252Y-49269987D01*
X122369987Y-49042252D01*
X122548918Y-48774463D01*
X122672168Y-48476912D01*
X122735000Y-48161033D01*
X122735000Y-47838967D01*
X122672168Y-47523088D01*
X122548918Y-47225537D01*
X122369987Y-46957748D01*
X122142252Y-46730013D01*
X121874463Y-46551082D01*
X121576912Y-46427832D01*
X121261033Y-46365000D01*
X120938967Y-46365000D01*
X120623088Y-46427832D01*
X120325537Y-46551082D01*
X120057748Y-46730013D01*
X119830013Y-46957748D01*
X119651082Y-47225537D01*
X119527832Y-47523088D01*
X119465000Y-47838967D01*
X114460000Y-47838967D01*
X114460000Y-36038313D01*
X114678505Y-35892312D01*
X114892312Y-35678505D01*
X115060299Y-35427095D01*
X115176011Y-35147743D01*
X115235000Y-34851184D01*
X115235000Y-34548816D01*
X115176011Y-34252257D01*
X115060299Y-33972905D01*
X114892312Y-33721495D01*
X114678505Y-33507688D01*
X114427095Y-33339701D01*
X114147743Y-33223989D01*
X113851184Y-33165000D01*
X113548816Y-33165000D01*
X113252257Y-33223989D01*
X112972905Y-33339701D01*
X112721495Y-33507688D01*
X112507688Y-33721495D01*
X112339701Y-33972905D01*
X112223989Y-34252257D01*
X112200000Y-34372858D01*
X112176011Y-34252257D01*
X112060299Y-33972905D01*
X111892312Y-33721495D01*
X111678505Y-33507688D01*
X111427095Y-33339701D01*
X111147743Y-33223989D01*
X110851184Y-33165000D01*
X110548816Y-33165000D01*
X110252257Y-33223989D01*
X109972905Y-33339701D01*
X109721495Y-33507688D01*
X109507688Y-33721495D01*
X109339701Y-33972905D01*
X109223989Y-34252257D01*
X109200000Y-34372858D01*
X109176011Y-34252257D01*
X109060299Y-33972905D01*
X108892312Y-33721495D01*
X108678505Y-33507688D01*
X108427095Y-33339701D01*
X108147743Y-33223989D01*
X107851184Y-33165000D01*
X107548816Y-33165000D01*
X107252257Y-33223989D01*
X107249791Y-33225010D01*
X107885985Y-32588816D01*
X118165000Y-32588816D01*
X118165000Y-32891184D01*
X118223989Y-33187743D01*
X118339701Y-33467095D01*
X118507688Y-33718505D01*
X118721495Y-33932312D01*
X118972905Y-34100299D01*
X119252257Y-34216011D01*
X119548816Y-34275000D01*
X119851184Y-34275000D01*
X120147743Y-34216011D01*
X120427095Y-34100299D01*
X120678505Y-33932312D01*
X120892312Y-33718505D01*
X121060299Y-33467095D01*
X121176011Y-33187743D01*
X121235000Y-32891184D01*
X121235000Y-32588816D01*
X121176011Y-32292257D01*
X121060299Y-32012905D01*
X120892312Y-31761495D01*
X120678505Y-31547688D01*
X120427095Y-31379701D01*
X120147743Y-31263989D01*
X119851184Y-31205000D01*
X119548816Y-31205000D01*
X119252257Y-31263989D01*
X118972905Y-31379701D01*
X118721495Y-31547688D01*
X118507688Y-31761495D01*
X118339701Y-32012905D01*
X118223989Y-32292257D01*
X118165000Y-32588816D01*
X107885985Y-32588816D01*
X108199803Y-32274999D01*
X117167679Y-32274999D01*
X117205001Y-32278675D01*
X117242323Y-32274999D01*
X117242334Y-32274999D01*
X117353987Y-32264002D01*
X117497248Y-32220545D01*
X117629277Y-32149973D01*
X117745002Y-32055000D01*
X117768805Y-32025996D01*
X119094802Y-30700000D01*
X123145199Y-30700000D01*
X123634213Y-31189015D01*
X123628322Y-31203237D01*
X123565510Y-31519017D01*
X123565510Y-31840983D01*
X123628322Y-32156763D01*
X123751533Y-32454222D01*
X123930408Y-32721927D01*
X124158073Y-32949592D01*
X124425778Y-33128467D01*
X124723237Y-33251678D01*
X125039017Y-33314490D01*
X125360983Y-33314490D01*
X125676763Y-33251678D01*
X125974222Y-33128467D01*
X126241927Y-32949592D01*
X126469592Y-32721927D01*
X126648467Y-32454222D01*
X126771678Y-32156763D01*
X126834490Y-31840983D01*
X126834490Y-31519017D01*
X126771678Y-31203237D01*
X126648467Y-30905778D01*
X126469592Y-30638073D01*
X126241927Y-30410408D01*
X125974222Y-30231533D01*
X125676763Y-30108322D01*
X125360983Y-30045510D01*
X125039017Y-30045510D01*
X124723237Y-30108322D01*
X124709015Y-30114213D01*
X124023804Y-29429003D01*
X124000001Y-29399999D01*
X123884276Y-29305026D01*
X123752247Y-29234454D01*
X123608986Y-29190997D01*
X123497333Y-29180000D01*
X123497322Y-29180000D01*
X123460000Y-29176324D01*
X123422678Y-29180000D01*
X118817323Y-29180000D01*
X118780000Y-29176324D01*
X118742677Y-29180000D01*
X118742667Y-29180000D01*
X118631014Y-29190997D01*
X118505723Y-29229003D01*
X118487753Y-29234454D01*
X118355723Y-29305026D01*
X118272083Y-29373668D01*
X118239999Y-29399999D01*
X118216201Y-29428997D01*
X116890200Y-30754999D01*
X107922334Y-30754999D01*
X107885001Y-30751322D01*
X107847668Y-30754999D01*
X107736015Y-30765996D01*
X107592754Y-30809453D01*
X107460725Y-30880025D01*
X107345000Y-30974998D01*
X107321202Y-31003996D01*
X105108930Y-33216269D01*
X104851184Y-33165000D01*
X104548816Y-33165000D01*
X104252257Y-33223989D01*
X103972905Y-33339701D01*
X103721495Y-33507688D01*
X103507688Y-33721495D01*
X103339701Y-33972905D01*
X103223989Y-34252257D01*
X103200000Y-34372858D01*
X103176011Y-34252257D01*
X103060299Y-33972905D01*
X102892312Y-33721495D01*
X102678505Y-33507688D01*
X102427095Y-33339701D01*
X102147743Y-33223989D01*
X101851184Y-33165000D01*
X101548816Y-33165000D01*
X101252257Y-33223989D01*
X100972905Y-33339701D01*
X100721495Y-33507688D01*
X100507688Y-33721495D01*
X100339701Y-33972905D01*
X100223989Y-34252257D01*
X100200000Y-34372858D01*
X100176011Y-34252257D01*
X100060299Y-33972905D01*
X99892312Y-33721495D01*
X99678505Y-33507688D01*
X99427095Y-33339701D01*
X99147743Y-33223989D01*
X98851184Y-33165000D01*
X98548816Y-33165000D01*
X98252257Y-33223989D01*
X97972905Y-33339701D01*
X97721495Y-33507688D01*
X97507688Y-33721495D01*
X97339701Y-33972905D01*
X97223989Y-34252257D01*
X97200000Y-34372858D01*
X97176011Y-34252257D01*
X97060299Y-33972905D01*
X96892312Y-33721495D01*
X96678505Y-33507688D01*
X96427095Y-33339701D01*
X96147743Y-33223989D01*
X95851184Y-33165000D01*
X95548816Y-33165000D01*
X95252257Y-33223989D01*
X94972905Y-33339701D01*
X94721495Y-33507688D01*
X94507688Y-33721495D01*
X94339701Y-33972905D01*
X94223989Y-34252257D01*
X94200000Y-34372858D01*
X94176011Y-34252257D01*
X94060299Y-33972905D01*
X93892312Y-33721495D01*
X93678505Y-33507688D01*
X93427095Y-33339701D01*
X93147743Y-33223989D01*
X92851184Y-33165000D01*
X92548816Y-33165000D01*
X92252257Y-33223989D01*
X91972905Y-33339701D01*
X91721495Y-33507688D01*
X91507688Y-33721495D01*
X91339701Y-33972905D01*
X91223989Y-34252257D01*
X91200000Y-34372858D01*
X91176011Y-34252257D01*
X91060299Y-33972905D01*
X90892312Y-33721495D01*
X90678505Y-33507688D01*
X90427095Y-33339701D01*
X90147743Y-33223989D01*
X89851184Y-33165000D01*
X89548816Y-33165000D01*
X89252257Y-33223989D01*
X88972905Y-33339701D01*
X88721495Y-33507688D01*
X88507688Y-33721495D01*
X88339701Y-33972905D01*
X88223989Y-34252257D01*
X88200000Y-34372858D01*
X88176011Y-34252257D01*
X88060299Y-33972905D01*
X87892312Y-33721495D01*
X87678505Y-33507688D01*
X87427095Y-33339701D01*
X87147743Y-33223989D01*
X86851184Y-33165000D01*
X86548816Y-33165000D01*
X86252257Y-33223989D01*
X85972905Y-33339701D01*
X85721495Y-33507688D01*
X85507688Y-33721495D01*
X85339701Y-33972905D01*
X85223989Y-34252257D01*
X85165000Y-34548816D01*
X73361117Y-34548816D01*
X73480788Y-34429145D01*
X73729573Y-34056812D01*
X73900939Y-33643097D01*
X73988300Y-33203901D01*
X73988300Y-32756099D01*
X73955026Y-32588816D01*
X79165000Y-32588816D01*
X79165000Y-32891184D01*
X79223989Y-33187743D01*
X79339701Y-33467095D01*
X79507688Y-33718505D01*
X79721495Y-33932312D01*
X79972905Y-34100299D01*
X80252257Y-34216011D01*
X80548816Y-34275000D01*
X80851184Y-34275000D01*
X81147743Y-34216011D01*
X81427095Y-34100299D01*
X81678505Y-33932312D01*
X81892312Y-33718505D01*
X82060299Y-33467095D01*
X82176011Y-33187743D01*
X82235000Y-32891184D01*
X82235000Y-32588816D01*
X82176011Y-32292257D01*
X82060299Y-32012905D01*
X81892312Y-31761495D01*
X81678505Y-31547688D01*
X81427095Y-31379701D01*
X81147743Y-31263989D01*
X80851184Y-31205000D01*
X80548816Y-31205000D01*
X80252257Y-31263989D01*
X79972905Y-31379701D01*
X79721495Y-31547688D01*
X79507688Y-31761495D01*
X79339701Y-32012905D01*
X79223989Y-32292257D01*
X79165000Y-32588816D01*
X73955026Y-32588816D01*
X73900939Y-32316903D01*
X73729573Y-31903188D01*
X73480788Y-31530855D01*
X73164145Y-31214212D01*
X72791812Y-30965427D01*
X72378097Y-30794061D01*
X71938901Y-30706700D01*
X71491099Y-30706700D01*
X71051903Y-30794061D01*
X70638188Y-30965427D01*
X70265855Y-31214212D01*
X69949212Y-31530855D01*
X69700427Y-31903188D01*
X69529061Y-32316903D01*
X69441700Y-32756099D01*
X66668473Y-32756099D01*
X66017291Y-32104917D01*
X64985117Y-31415240D01*
X63838226Y-30940182D01*
X62620693Y-30698000D01*
X61379307Y-30698000D01*
X60161774Y-30940182D01*
X59014883Y-31415240D01*
X57982709Y-32104917D01*
X57104917Y-32982709D01*
X56415240Y-34014883D01*
X55940182Y-35161774D01*
X55698000Y-36379307D01*
X55698000Y-37620693D01*
X55940182Y-38838226D01*
X56415240Y-39985117D01*
X57104917Y-41017291D01*
X57982709Y-41895083D01*
X59014883Y-42584760D01*
X60161774Y-43059818D01*
X61080385Y-43242541D01*
X60086774Y-43440182D01*
X58939883Y-43915240D01*
X57907709Y-44604917D01*
X57029917Y-45482709D01*
X56340240Y-46514883D01*
X55865182Y-47661774D01*
X55623000Y-48879307D01*
X50710000Y-48879307D01*
X50710000Y-27910000D01*
X170076553Y-27910000D01*
X170039999Y-27939999D01*
M02*
