G04 #@! TF.GenerationSoftware,KiCad,Pcbnew,5.1.0-060a0da~80~ubuntu16.04.1*
G04 #@! TF.CreationDate,2019-04-08T13:55:54+05:30*
G04 #@! TF.ProjectId,vcu-power,7663752d-706f-4776-9572-2e6b69636164,rev?*
G04 #@! TF.SameCoordinates,Original*
G04 #@! TF.FileFunction,Copper,L1,Top*
G04 #@! TF.FilePolarity,Positive*
%FSLAX46Y46*%
G04 Gerber Fmt 4.6, Leading zero omitted, Abs format (unit mm)*
G04 Created by KiCad (PCBNEW 5.1.0-060a0da~80~ubuntu16.04.1) date 2019-04-08 13:55:54*
%MOMM*%
%LPD*%
G04 APERTURE LIST*
%ADD10R,1.501140X2.499360*%
%ADD11O,1.501140X2.499360*%
%ADD12C,6.350000*%
%ADD13C,6.500000*%
%ADD14C,1.800000*%
%ADD15C,2.000000*%
%ADD16C,2.200000*%
%ADD17C,9.144000*%
%ADD18C,3.276600*%
%ADD19C,1.700000*%
%ADD20R,1.700000X1.700000*%
%ADD21R,2.499360X1.501140*%
%ADD22O,2.499360X1.501140*%
%ADD23C,2.286000*%
%ADD24O,5.501640X3.500120*%
%ADD25C,1.998980*%
%ADD26C,0.600000*%
%ADD27C,5.000000*%
%ADD28C,6.000000*%
%ADD29C,2.000000*%
%ADD30C,0.250000*%
%ADD31C,0.254000*%
G04 APERTURE END LIST*
D10*
X185400000Y-141500000D03*
D11*
X182860000Y-141500000D03*
X187940000Y-141500000D03*
D12*
X61925000Y-49500000D03*
D13*
X162450000Y-117450000D03*
X78450000Y-117450000D03*
D14*
X116700000Y-34700000D03*
X113700000Y-34700000D03*
X110700000Y-34700000D03*
X107700000Y-34700000D03*
X104700000Y-34700000D03*
X101700000Y-34700000D03*
X98700000Y-34700000D03*
X95700000Y-34700000D03*
X92700000Y-34700000D03*
X89700000Y-34700000D03*
X86700000Y-34700000D03*
X83700000Y-34700000D03*
X119700000Y-32740000D03*
X80700000Y-32740000D03*
D15*
X121100000Y-52700000D03*
X121100000Y-48000000D03*
D16*
X109600000Y-48000000D03*
X102600000Y-48000000D03*
D17*
X157560000Y-49590000D03*
D12*
X62000000Y-37000000D03*
D18*
X71715000Y-144220000D03*
X173325000Y-144220000D03*
X71715000Y-32980000D03*
X173325000Y-32980000D03*
D19*
X164800000Y-35725000D03*
D20*
X159800000Y-35725000D03*
D21*
X158190000Y-82627460D03*
D22*
X158190000Y-80087460D03*
X158190000Y-85167460D03*
D21*
X158242000Y-95758000D03*
D22*
X158242000Y-93218000D03*
X158242000Y-98298000D03*
D10*
X185200000Y-121400000D03*
D11*
X182660000Y-121400000D03*
X187740000Y-121400000D03*
D10*
X79475000Y-87750000D03*
D11*
X82015000Y-87750000D03*
X76935000Y-87750000D03*
D21*
X143960000Y-37497460D03*
D22*
X143960000Y-34957460D03*
X143960000Y-40037460D03*
D17*
X157860000Y-66090000D03*
D12*
X61975000Y-87675000D03*
X61975000Y-74800000D03*
X62000000Y-62000000D03*
X61950000Y-100200000D03*
D23*
X137890000Y-48570000D03*
D24*
X175000000Y-68000000D03*
X175000000Y-62412000D03*
X175000000Y-73588000D03*
X175000000Y-86000000D03*
X175000000Y-80412000D03*
X175000000Y-91588000D03*
X175000000Y-50000000D03*
X175000000Y-44412000D03*
X175000000Y-55588000D03*
D22*
X182050000Y-110200000D03*
X182050000Y-107660000D03*
X182050000Y-112740000D03*
X82470000Y-79310000D03*
X82470000Y-81850000D03*
X82470000Y-76770000D03*
X181800000Y-130600000D03*
X181800000Y-128060000D03*
X181800000Y-133140000D03*
D11*
X133440000Y-38870000D03*
X130900000Y-38870000D03*
X135980000Y-38870000D03*
D25*
X109440000Y-41230000D03*
X117060000Y-41230000D03*
X181800000Y-100540000D03*
X174180000Y-100540000D03*
X91000000Y-42710000D03*
X98620000Y-42710000D03*
X177190000Y-126410000D03*
X177190000Y-134030000D03*
D11*
X94940000Y-48200000D03*
X89860000Y-48200000D03*
D25*
X125200000Y-39300000D03*
X125200000Y-31680000D03*
D26*
X163068000Y-75178000D03*
X163068000Y-79756000D03*
X163272001Y-70661999D03*
X167029840Y-87679840D03*
X163068000Y-85752000D03*
X163747971Y-93552029D03*
X164950000Y-59000000D03*
X169260000Y-78380000D03*
X170570000Y-75930000D03*
X169350000Y-61060000D03*
X167748000Y-72452000D03*
X166900000Y-64300000D03*
X88665000Y-101660000D03*
X95865000Y-101660000D03*
X103460000Y-101660000D03*
X115920000Y-103380000D03*
X127095000Y-109180000D03*
X138095000Y-109180000D03*
X150345000Y-109180000D03*
X162105000Y-109180000D03*
X170595000Y-109180000D03*
X177610000Y-109180000D03*
X88665000Y-101660000D03*
X83490000Y-96485000D03*
X77150000Y-94850000D03*
X72610000Y-93260000D03*
X103365000Y-128990000D03*
X111190000Y-128990000D03*
X117790000Y-128990000D03*
X125090000Y-128990000D03*
X132090000Y-128990000D03*
X140040000Y-128990000D03*
X148640000Y-128990000D03*
X159935000Y-128990000D03*
X171200000Y-130600000D03*
X96240000Y-124510000D03*
X90552500Y-118822500D03*
X84915000Y-113185000D03*
X78177500Y-106447500D03*
X69730000Y-100200000D03*
D27*
X159770000Y-68000000D02*
X165370000Y-68000000D01*
X162431999Y-73131999D02*
X165370000Y-76070000D01*
X165370000Y-76070000D02*
X165370000Y-68000000D01*
X165805000Y-58145000D02*
X165370000Y-58580000D01*
X165805000Y-55575000D02*
X165805000Y-58145000D01*
X165805000Y-55575000D02*
X169555000Y-51825000D01*
X165370000Y-68000000D02*
X168650000Y-68000000D01*
X168650000Y-68000000D02*
X175000000Y-68000000D01*
X157860000Y-66090000D02*
X164325784Y-66090000D01*
D28*
X159770000Y-68000000D02*
X157860000Y-66090000D01*
X175000000Y-50000000D02*
X172586784Y-50000000D01*
X172586784Y-50000000D02*
X171380000Y-50000000D01*
X175000000Y-86000000D02*
X169566000Y-86000000D01*
X169566000Y-86000000D02*
X169312000Y-86000000D01*
X163068000Y-71298000D02*
X157860000Y-66090000D01*
X163068000Y-79756000D02*
X163068000Y-71298000D01*
X157860000Y-72555784D02*
X158436215Y-73131999D01*
X158436215Y-73131999D02*
X162431999Y-73131999D01*
X157860000Y-66090000D02*
X157860000Y-72555784D01*
X169312000Y-86000000D02*
X168811000Y-85499000D01*
D29*
X162162500Y-80661500D02*
X163068000Y-79756000D01*
X162162500Y-89787500D02*
X163575000Y-88375000D01*
X163575000Y-88375000D02*
X163575000Y-84175000D01*
X164887500Y-87062500D02*
X164887500Y-85487500D01*
X164887500Y-85487500D02*
X163575000Y-84175000D01*
X163575000Y-88375000D02*
X164887500Y-87062500D01*
X169836562Y-50000000D02*
X175000000Y-50000000D01*
X160487999Y-58162001D02*
X161674561Y-58162001D01*
X167475000Y-50000000D02*
X167325000Y-50150000D01*
X175000000Y-50000000D02*
X167475000Y-50000000D01*
X167475000Y-50000000D02*
X167475000Y-52250000D01*
X167475000Y-52250000D02*
X167275000Y-52450000D01*
D27*
X169555000Y-51825000D02*
X167275000Y-52450000D01*
D29*
X170875000Y-50000000D02*
X170250000Y-49375000D01*
X175000000Y-50000000D02*
X170875000Y-50000000D01*
D27*
X170250000Y-49375000D02*
X171380000Y-50000000D01*
X167275000Y-52450000D02*
X170250000Y-49375000D01*
D29*
X158159216Y-59325000D02*
X158325000Y-59325000D01*
X157860000Y-59624216D02*
X158159216Y-59325000D01*
X157860000Y-66090000D02*
X157860000Y-59624216D01*
X158325000Y-59325000D02*
X160487999Y-58162001D01*
X164325784Y-65400784D02*
X159150000Y-60225000D01*
X164325784Y-66090000D02*
X164325784Y-65400784D01*
X164180000Y-58580000D02*
X162550000Y-56950000D01*
X165370000Y-58580000D02*
X164180000Y-58580000D01*
X161674561Y-58162001D02*
X162550000Y-56950000D01*
X160487999Y-59662999D02*
X162600000Y-61775000D01*
X160487999Y-58162001D02*
X160487999Y-59662999D01*
X161674561Y-58499561D02*
X163150000Y-59975000D01*
X161674561Y-58162001D02*
X161674561Y-58499561D01*
D27*
X165370000Y-58580000D02*
X163150000Y-59975000D01*
D29*
X159975000Y-59325000D02*
X161925000Y-57375000D01*
X158325000Y-59325000D02*
X159975000Y-59325000D01*
X161925000Y-57375000D02*
X169836562Y-50000000D01*
X162550000Y-56950000D02*
X161925000Y-57375000D01*
X161439680Y-82627460D02*
X162162500Y-81904640D01*
X162162500Y-81904640D02*
X162162500Y-80661500D01*
X158190000Y-82627460D02*
X161439680Y-82627460D01*
X158190000Y-82627460D02*
X160196540Y-82627460D01*
X161491680Y-95758000D02*
X162162500Y-95087180D01*
X158242000Y-95758000D02*
X161491680Y-95758000D01*
X162162500Y-89787500D02*
X162162500Y-86837500D01*
X162162500Y-95087180D02*
X162162500Y-86837500D01*
X162162500Y-86837500D02*
X162162500Y-80661500D01*
X161491680Y-95758000D02*
X164200000Y-93049680D01*
X164200000Y-93049680D02*
X164200000Y-90110000D01*
X163517000Y-95758000D02*
X165675000Y-93600000D01*
X165675000Y-93600000D02*
X165675000Y-91325000D01*
X168811000Y-88189000D02*
X168811000Y-85499000D01*
X165675000Y-91325000D02*
X168811000Y-88189000D01*
X163575000Y-92424680D02*
X164200000Y-93049680D01*
X163575000Y-88375000D02*
X163575000Y-92424680D01*
D30*
X162162500Y-80661500D02*
X166978500Y-80661500D01*
X170570000Y-75930000D02*
X169290000Y-74650000D01*
D28*
X169290000Y-68000000D02*
X159770000Y-68000000D01*
D30*
X169290000Y-74650000D02*
X169290000Y-68000000D01*
D28*
X175000000Y-68000000D02*
X169290000Y-68000000D01*
D30*
X166870000Y-58580000D02*
X169350000Y-61060000D01*
X165370000Y-58580000D02*
X166870000Y-58580000D01*
X169290000Y-66690000D02*
X169290000Y-68000000D01*
X166900000Y-64300000D02*
X169290000Y-66690000D01*
D29*
X173950000Y-50000000D02*
X175000000Y-50000000D01*
X170875000Y-50000000D02*
X170875000Y-50505000D01*
X169790000Y-66860000D02*
X168650000Y-68000000D01*
X169790000Y-51590000D02*
X169790000Y-66860000D01*
X171380000Y-50000000D02*
X169790000Y-51590000D01*
X167110000Y-65820000D02*
X169290000Y-68000000D01*
X167110000Y-54270000D02*
X167110000Y-65820000D01*
X170875000Y-50505000D02*
X167110000Y-54270000D01*
X167110000Y-54270000D02*
X165805000Y-55575000D01*
X165805000Y-55575000D02*
X166405000Y-55575000D01*
X168650000Y-57820000D02*
X168650000Y-68000000D01*
X166405000Y-55575000D02*
X168650000Y-57820000D01*
X165370000Y-64080000D02*
X167110000Y-65820000D01*
X165370000Y-58580000D02*
X165370000Y-64080000D01*
X162360000Y-61590000D02*
X162360000Y-61670000D01*
X157860000Y-66090000D02*
X162360000Y-61590000D01*
X162360000Y-61590000D02*
X173950000Y-50000000D01*
X164990000Y-64300000D02*
X166900000Y-64300000D01*
X162360000Y-61670000D02*
X164990000Y-64300000D01*
X168650000Y-68000000D02*
X168650000Y-69800000D01*
X168650000Y-69800000D02*
X169870000Y-71020000D01*
X169870000Y-85442000D02*
X169312000Y-86000000D01*
X169870000Y-71020000D02*
X169870000Y-85442000D01*
X168650000Y-68000000D02*
X168650000Y-78990000D01*
X168650000Y-78990000D02*
X167425000Y-80215000D01*
D30*
X167425000Y-80215000D02*
X169260000Y-78380000D01*
X166978500Y-80661500D02*
X167425000Y-80215000D01*
D29*
X167425000Y-80215000D02*
X167425000Y-80305000D01*
X168811000Y-81691000D02*
X168811000Y-85499000D01*
X167425000Y-80305000D02*
X168811000Y-81691000D01*
X165370000Y-76070000D02*
X165370000Y-79910000D01*
X168811000Y-83351000D02*
X168811000Y-85499000D01*
X165370000Y-79910000D02*
X168811000Y-83351000D01*
X165730000Y-76070000D02*
X168650000Y-78990000D01*
X165370000Y-76070000D02*
X165730000Y-76070000D01*
X165370000Y-78250000D02*
X167425000Y-80305000D01*
X165370000Y-76070000D02*
X165370000Y-78250000D01*
X163068000Y-83468000D02*
X166955000Y-87355000D01*
X163068000Y-79756000D02*
X163068000Y-83468000D01*
X166955000Y-87355000D02*
X168811000Y-85499000D01*
X164200000Y-90110000D02*
X166955000Y-87355000D01*
X163068000Y-79756000D02*
X163068000Y-81368000D01*
X167199000Y-85499000D02*
X168811000Y-85499000D01*
X163068000Y-81368000D02*
X167199000Y-85499000D01*
X163068000Y-79756000D02*
X169312000Y-86000000D01*
X160196540Y-82627460D02*
X163068000Y-79756000D01*
X161439680Y-94820320D02*
X160502000Y-95758000D01*
X161439680Y-82627460D02*
X161439680Y-94820320D01*
X160502000Y-95758000D02*
X163517000Y-95758000D01*
X158242000Y-95758000D02*
X160502000Y-95758000D01*
D30*
X89245000Y-102240000D02*
X88665000Y-101660000D01*
X96445000Y-102240000D02*
X95865000Y-101660000D01*
X98690000Y-102240000D02*
X96445000Y-102240000D01*
D29*
X90740000Y-102240000D02*
X98690000Y-102240000D01*
D30*
X106135000Y-102240000D02*
X104040000Y-102240000D01*
D29*
X106135000Y-102240000D02*
X113160000Y-102240000D01*
D30*
X104040000Y-102240000D02*
X103460000Y-101660000D01*
D29*
X98690000Y-102240000D02*
X106135000Y-102240000D01*
D30*
X117372500Y-106452500D02*
X117372500Y-104832500D01*
X117372500Y-104832500D02*
X115920000Y-103380000D01*
D29*
X117372500Y-106452500D02*
X121220000Y-110300000D01*
X113160000Y-102240000D02*
X117372500Y-106452500D01*
D30*
X128215000Y-110300000D02*
X127095000Y-109180000D01*
X129275000Y-110300000D02*
X128215000Y-110300000D01*
D29*
X121220000Y-110300000D02*
X129275000Y-110300000D01*
X129275000Y-110300000D02*
X140050000Y-110300000D01*
D30*
X139215000Y-110300000D02*
X138095000Y-109180000D01*
X140050000Y-110300000D02*
X139215000Y-110300000D01*
X151465000Y-110300000D02*
X150345000Y-109180000D01*
X151950000Y-110300000D02*
X151465000Y-110300000D01*
D29*
X140050000Y-110300000D02*
X151950000Y-110300000D01*
D30*
X163225000Y-110300000D02*
X162105000Y-109180000D01*
D29*
X151950000Y-110300000D02*
X163400000Y-110300000D01*
D30*
X163400000Y-110300000D02*
X163225000Y-110300000D01*
X172725000Y-110300000D02*
X171715000Y-110300000D01*
X171715000Y-110300000D02*
X170595000Y-109180000D01*
D29*
X163400000Y-110300000D02*
X172725000Y-110300000D01*
X178775000Y-110300000D02*
X182000000Y-110300000D01*
X172725000Y-110300000D02*
X178775000Y-110300000D01*
D30*
X178775000Y-110300000D02*
X178730000Y-110300000D01*
X178730000Y-110300000D02*
X177610000Y-109180000D01*
D29*
X61975000Y-87675000D02*
X65175000Y-90875000D01*
X70125000Y-90875000D02*
X74100000Y-94850000D01*
X89245000Y-102240000D02*
X90740000Y-102240000D01*
X177610000Y-116350000D02*
X177610000Y-109180000D01*
X182660000Y-121400000D02*
X177610000Y-116350000D01*
D30*
X85252500Y-98247500D02*
X83490000Y-96485000D01*
D29*
X81855000Y-94850000D02*
X85252500Y-98247500D01*
X85252500Y-98247500D02*
X89245000Y-102240000D01*
X74100000Y-94850000D02*
X75950000Y-94850000D01*
D30*
X75950000Y-94850000D02*
X77150000Y-94850000D01*
D29*
X75950000Y-94850000D02*
X81855000Y-94850000D01*
X65175000Y-90875000D02*
X70125000Y-90875000D01*
X65149999Y-77974999D02*
X76349999Y-77974999D01*
X61975000Y-74800000D02*
X65149999Y-77974999D01*
X77685000Y-79310000D02*
X82470000Y-79310000D01*
X76349999Y-77974999D02*
X77685000Y-79310000D01*
X77685000Y-82710320D02*
X77685000Y-79310000D01*
X79475000Y-84500320D02*
X77685000Y-82710320D01*
X79475000Y-87750000D02*
X79475000Y-84500320D01*
X80810000Y-110810000D02*
X80890000Y-110810000D01*
D30*
X105725000Y-130600000D02*
X104975000Y-130600000D01*
X104975000Y-130600000D02*
X103365000Y-128990000D01*
D29*
X100680000Y-130600000D02*
X105725000Y-130600000D01*
D30*
X112800000Y-130600000D02*
X111190000Y-128990000D01*
X113725000Y-130600000D02*
X112800000Y-130600000D01*
D29*
X105725000Y-130600000D02*
X113725000Y-130600000D01*
D30*
X119175000Y-130600000D02*
X119175000Y-130375000D01*
D29*
X113725000Y-130600000D02*
X119175000Y-130600000D01*
D30*
X119175000Y-130375000D02*
X117790000Y-128990000D01*
X125375000Y-129275000D02*
X125090000Y-128990000D01*
X125375000Y-130600000D02*
X125375000Y-129275000D01*
D29*
X119175000Y-130600000D02*
X125375000Y-130600000D01*
D30*
X133500000Y-130400000D02*
X132090000Y-128990000D01*
D29*
X125375000Y-130600000D02*
X133500000Y-130600000D01*
D30*
X133500000Y-130600000D02*
X133500000Y-130400000D01*
X140975000Y-130600000D02*
X140975000Y-129925000D01*
X140975000Y-129925000D02*
X140040000Y-128990000D01*
D29*
X133500000Y-130600000D02*
X140975000Y-130600000D01*
D30*
X149625000Y-129975000D02*
X148640000Y-128990000D01*
D29*
X140975000Y-130600000D02*
X149625000Y-130600000D01*
D30*
X149625000Y-130600000D02*
X149625000Y-129975000D01*
X160825000Y-129880000D02*
X159935000Y-128990000D01*
X160825000Y-130600000D02*
X160825000Y-129880000D01*
D29*
X149625000Y-130600000D02*
X160825000Y-130600000D01*
X160825000Y-130600000D02*
X171200000Y-130600000D01*
X171200000Y-130600000D02*
X181800000Y-130600000D01*
D30*
X170300000Y-130600000D02*
X171200000Y-130600000D01*
X96327500Y-126247500D02*
X96327500Y-124597500D01*
D29*
X96327500Y-126247500D02*
X100680000Y-130600000D01*
D30*
X96327500Y-124597500D02*
X96240000Y-124510000D01*
X90815000Y-120735000D02*
X90815000Y-119085000D01*
D29*
X90815000Y-120735000D02*
X96327500Y-126247500D01*
D30*
X90815000Y-119085000D02*
X90552500Y-118822500D01*
X84727500Y-114647500D02*
X84727500Y-113147500D01*
D29*
X80890000Y-110810000D02*
X84727500Y-114647500D01*
X84727500Y-114647500D02*
X90815000Y-120735000D01*
D30*
X84727500Y-114647500D02*
X84727500Y-113372500D01*
X84727500Y-113372500D02*
X84915000Y-113185000D01*
X77725000Y-106900000D02*
X78177500Y-106447500D01*
X77725000Y-107725000D02*
X77725000Y-106900000D01*
D29*
X77725000Y-107725000D02*
X80810000Y-110810000D01*
X66440128Y-100200000D02*
X66565128Y-100325000D01*
X61950000Y-100200000D02*
X66440128Y-100200000D01*
X70325000Y-100325000D02*
X77725000Y-107725000D01*
X66565128Y-100325000D02*
X70325000Y-100325000D01*
D30*
X110700000Y-30100000D02*
X110700000Y-34700000D01*
X59530000Y-29320000D02*
X109920000Y-29320000D01*
X109920000Y-29320000D02*
X110700000Y-30100000D01*
X51940000Y-36910000D02*
X59530000Y-29320000D01*
X51940000Y-115610000D02*
X51940000Y-36910000D01*
X177190000Y-134030000D02*
X175630000Y-134030000D01*
X175630000Y-134030000D02*
X164630000Y-145030000D01*
X81360000Y-145030000D02*
X51940000Y-115610000D01*
X164630000Y-145030000D02*
X81360000Y-145030000D01*
X92700000Y-36790000D02*
X98620000Y-42710000D01*
X92700000Y-34700000D02*
X92700000Y-36790000D01*
D29*
X61925000Y-49500000D02*
X80300000Y-49500000D01*
X80300000Y-49500000D02*
X86325000Y-55525000D01*
X113575000Y-55525000D02*
X121100000Y-48000000D01*
X86325000Y-55525000D02*
X113575000Y-55525000D01*
X62000000Y-37000000D02*
X65225000Y-40225000D01*
X65225000Y-40225000D02*
X79100000Y-40225000D01*
X87075000Y-48200000D02*
X89860000Y-48200000D01*
X79100000Y-40225000D02*
X87075000Y-48200000D01*
D30*
X181800000Y-127059430D02*
X181800000Y-128060000D01*
X181150570Y-126410000D02*
X181800000Y-127059430D01*
X177190000Y-126410000D02*
X181150570Y-126410000D01*
D29*
X94940000Y-51449680D02*
X95300320Y-51810000D01*
X94940000Y-48200000D02*
X94940000Y-51449680D01*
X105790000Y-51810000D02*
X109600000Y-48000000D01*
X95300320Y-51810000D02*
X105790000Y-51810000D01*
D31*
G36*
X194290000Y-149290000D02*
G01*
X50710000Y-149290000D01*
X50710000Y-143996099D01*
X69441700Y-143996099D01*
X69441700Y-144443901D01*
X69529061Y-144883097D01*
X69700427Y-145296812D01*
X69949212Y-145669145D01*
X70265855Y-145985788D01*
X70638188Y-146234573D01*
X71051903Y-146405939D01*
X71491099Y-146493300D01*
X71938901Y-146493300D01*
X72378097Y-146405939D01*
X72791812Y-146234573D01*
X73164145Y-145985788D01*
X73480788Y-145669145D01*
X73729573Y-145296812D01*
X73900939Y-144883097D01*
X73988300Y-144443901D01*
X73988300Y-143996099D01*
X73900939Y-143556903D01*
X73729573Y-143143188D01*
X73480788Y-142770855D01*
X73164145Y-142454212D01*
X72791812Y-142205427D01*
X72378097Y-142034061D01*
X71938901Y-141946700D01*
X71491099Y-141946700D01*
X71051903Y-142034061D01*
X70638188Y-142205427D01*
X70265855Y-142454212D01*
X69949212Y-142770855D01*
X69700427Y-143143188D01*
X69529061Y-143556903D01*
X69441700Y-143996099D01*
X50710000Y-143996099D01*
X50710000Y-36910000D01*
X51176324Y-36910000D01*
X51180001Y-36947333D01*
X51180000Y-115572678D01*
X51176324Y-115610000D01*
X51180000Y-115647322D01*
X51180000Y-115647332D01*
X51190997Y-115758985D01*
X51234454Y-115902246D01*
X51305026Y-116034276D01*
X51344871Y-116082826D01*
X51399999Y-116150001D01*
X51429003Y-116173804D01*
X80796201Y-145541003D01*
X80819999Y-145570001D01*
X80848997Y-145593799D01*
X80935723Y-145664974D01*
X81067753Y-145735546D01*
X81211014Y-145779003D01*
X81322667Y-145790000D01*
X81322677Y-145790000D01*
X81359999Y-145793676D01*
X81397322Y-145790000D01*
X164592678Y-145790000D01*
X164630000Y-145793676D01*
X164667322Y-145790000D01*
X164667333Y-145790000D01*
X164778986Y-145779003D01*
X164922247Y-145735546D01*
X165054276Y-145664974D01*
X165170001Y-145570001D01*
X165193804Y-145540997D01*
X166738702Y-143996099D01*
X171051700Y-143996099D01*
X171051700Y-144443901D01*
X171139061Y-144883097D01*
X171310427Y-145296812D01*
X171559212Y-145669145D01*
X171875855Y-145985788D01*
X172248188Y-146234573D01*
X172661903Y-146405939D01*
X173101099Y-146493300D01*
X173548901Y-146493300D01*
X173988097Y-146405939D01*
X174401812Y-146234573D01*
X174774145Y-145985788D01*
X175090788Y-145669145D01*
X175339573Y-145296812D01*
X175510939Y-144883097D01*
X175598300Y-144443901D01*
X175598300Y-143996099D01*
X175510939Y-143556903D01*
X175339573Y-143143188D01*
X175090788Y-142770855D01*
X174774145Y-142454212D01*
X174401812Y-142205427D01*
X173988097Y-142034061D01*
X173548901Y-141946700D01*
X173101099Y-141946700D01*
X172661903Y-142034061D01*
X172248188Y-142205427D01*
X171875855Y-142454212D01*
X171559212Y-142770855D01*
X171310427Y-143143188D01*
X171139061Y-143556903D01*
X171051700Y-143996099D01*
X166738702Y-143996099D01*
X169801977Y-140932824D01*
X181474430Y-140932824D01*
X181474430Y-142067177D01*
X181494478Y-142270729D01*
X181573707Y-142531910D01*
X181702366Y-142772616D01*
X181875515Y-142983596D01*
X182086495Y-143156744D01*
X182327201Y-143285403D01*
X182588382Y-143364632D01*
X182860000Y-143391384D01*
X183131619Y-143364632D01*
X183392800Y-143285403D01*
X183633506Y-143156744D01*
X183844486Y-142983596D01*
X184017634Y-142772616D01*
X184146293Y-142531910D01*
X184225522Y-142270729D01*
X184245570Y-142067177D01*
X184245570Y-140932824D01*
X186554430Y-140932824D01*
X186554430Y-142067177D01*
X186574478Y-142270729D01*
X186653707Y-142531910D01*
X186782366Y-142772616D01*
X186955515Y-142983596D01*
X187166495Y-143156744D01*
X187407201Y-143285403D01*
X187668382Y-143364632D01*
X187940000Y-143391384D01*
X188211619Y-143364632D01*
X188472800Y-143285403D01*
X188713506Y-143156744D01*
X188924486Y-142983596D01*
X189097634Y-142772616D01*
X189226293Y-142531910D01*
X189305522Y-142270729D01*
X189325570Y-142067177D01*
X189325570Y-140932823D01*
X189305522Y-140729271D01*
X189226293Y-140468090D01*
X189097634Y-140227384D01*
X188924485Y-140016404D01*
X188713505Y-139843256D01*
X188472799Y-139714597D01*
X188211618Y-139635368D01*
X187940000Y-139608616D01*
X187668381Y-139635368D01*
X187407200Y-139714597D01*
X187166494Y-139843256D01*
X186955514Y-140016405D01*
X186782366Y-140227385D01*
X186653707Y-140468091D01*
X186574478Y-140729272D01*
X186554430Y-140932824D01*
X184245570Y-140932824D01*
X184245570Y-140932823D01*
X184225522Y-140729271D01*
X184146293Y-140468090D01*
X184017634Y-140227384D01*
X183844485Y-140016404D01*
X183633505Y-139843256D01*
X183392799Y-139714597D01*
X183131618Y-139635368D01*
X182860000Y-139608616D01*
X182588381Y-139635368D01*
X182327200Y-139714597D01*
X182086494Y-139843256D01*
X181875514Y-140016405D01*
X181702366Y-140227385D01*
X181573707Y-140468091D01*
X181494478Y-140729272D01*
X181474430Y-140932824D01*
X169801977Y-140932824D01*
X175817255Y-134917547D01*
X175920408Y-135071927D01*
X176148073Y-135299592D01*
X176415778Y-135478467D01*
X176713237Y-135601678D01*
X177029017Y-135664490D01*
X177350983Y-135664490D01*
X177666763Y-135601678D01*
X177964222Y-135478467D01*
X178231927Y-135299592D01*
X178459592Y-135071927D01*
X178638467Y-134804222D01*
X178761678Y-134506763D01*
X178824490Y-134190983D01*
X178824490Y-133869017D01*
X178761678Y-133553237D01*
X178638467Y-133255778D01*
X178459592Y-132988073D01*
X178231927Y-132760408D01*
X177964222Y-132581533D01*
X177666763Y-132458322D01*
X177350983Y-132395510D01*
X177029017Y-132395510D01*
X176713237Y-132458322D01*
X176415778Y-132581533D01*
X176148073Y-132760408D01*
X175920408Y-132988073D01*
X175741533Y-133255778D01*
X175735642Y-133270000D01*
X175667322Y-133270000D01*
X175629999Y-133266324D01*
X175592676Y-133270000D01*
X175592667Y-133270000D01*
X175481014Y-133280997D01*
X175337753Y-133324454D01*
X175205724Y-133395026D01*
X175089999Y-133489999D01*
X175066201Y-133518997D01*
X164315199Y-144270000D01*
X81674802Y-144270000D01*
X54472163Y-117067361D01*
X74565000Y-117067361D01*
X74565000Y-117832639D01*
X74714298Y-118583213D01*
X75007158Y-119290238D01*
X75432323Y-119926543D01*
X75973457Y-120467677D01*
X76609762Y-120892842D01*
X77316787Y-121185702D01*
X78067361Y-121335000D01*
X78832639Y-121335000D01*
X79583213Y-121185702D01*
X80290238Y-120892842D01*
X80926543Y-120467677D01*
X81467677Y-119926543D01*
X81892842Y-119290238D01*
X82185702Y-118583213D01*
X82335000Y-117832639D01*
X82335000Y-117067361D01*
X82185702Y-116316787D01*
X81892842Y-115609762D01*
X81467677Y-114973457D01*
X80926543Y-114432323D01*
X80290238Y-114007158D01*
X79583213Y-113714298D01*
X78832639Y-113565000D01*
X78067361Y-113565000D01*
X77316787Y-113714298D01*
X76609762Y-114007158D01*
X75973457Y-114432323D01*
X75432323Y-114973457D01*
X75007158Y-115609762D01*
X74714298Y-116316787D01*
X74565000Y-117067361D01*
X54472163Y-117067361D01*
X52700000Y-115295199D01*
X52700000Y-99579307D01*
X55648000Y-99579307D01*
X55648000Y-100820693D01*
X55890182Y-102038226D01*
X56365240Y-103185117D01*
X57054917Y-104217291D01*
X57932709Y-105095083D01*
X58964883Y-105784760D01*
X60111774Y-106259818D01*
X61329307Y-106502000D01*
X62570693Y-106502000D01*
X63788226Y-106259818D01*
X64935117Y-105784760D01*
X65967291Y-105095083D01*
X66845083Y-104217291D01*
X67534760Y-103185117D01*
X68009818Y-102038226D01*
X68025378Y-101960000D01*
X69647762Y-101960000D01*
X76625676Y-108937915D01*
X76625681Y-108937919D01*
X79597080Y-111909319D01*
X79648286Y-111971714D01*
X79897248Y-112176031D01*
X79997239Y-112229478D01*
X83628176Y-115860416D01*
X83628187Y-115860425D01*
X89715676Y-121947915D01*
X89715681Y-121947919D01*
X95228176Y-127460415D01*
X95228181Y-127460419D01*
X99467084Y-131699324D01*
X99518286Y-131761714D01*
X99767248Y-131966031D01*
X100051285Y-132117852D01*
X100359483Y-132211343D01*
X100680000Y-132242912D01*
X100760330Y-132235000D01*
X180251171Y-132235000D01*
X180143256Y-132366494D01*
X180014597Y-132607200D01*
X179935368Y-132868381D01*
X179908616Y-133140000D01*
X179935368Y-133411619D01*
X180014597Y-133672800D01*
X180143256Y-133913506D01*
X180316404Y-134124486D01*
X180527384Y-134297634D01*
X180768090Y-134426293D01*
X181029271Y-134505522D01*
X181232823Y-134525570D01*
X182367177Y-134525570D01*
X182570729Y-134505522D01*
X182831910Y-134426293D01*
X183072616Y-134297634D01*
X183283596Y-134124486D01*
X183456744Y-133913506D01*
X183585403Y-133672800D01*
X183664632Y-133411619D01*
X183691384Y-133140000D01*
X183664632Y-132868381D01*
X183585403Y-132607200D01*
X183456744Y-132366494D01*
X183283596Y-132155514D01*
X183072616Y-131982366D01*
X182862392Y-131870000D01*
X183072616Y-131757634D01*
X183283596Y-131584486D01*
X183456744Y-131373506D01*
X183585403Y-131132800D01*
X183664632Y-130871619D01*
X183691384Y-130600000D01*
X183664632Y-130328381D01*
X183585403Y-130067200D01*
X183456744Y-129826494D01*
X183283596Y-129615514D01*
X183072616Y-129442366D01*
X182862392Y-129330000D01*
X183072616Y-129217634D01*
X183283596Y-129044486D01*
X183456744Y-128833506D01*
X183585403Y-128592800D01*
X183664632Y-128331619D01*
X183691384Y-128060000D01*
X183664632Y-127788381D01*
X183585403Y-127527200D01*
X183456744Y-127286494D01*
X183283596Y-127075514D01*
X183072616Y-126902366D01*
X182831910Y-126773707D01*
X182570729Y-126694478D01*
X182460902Y-126683661D01*
X182434974Y-126635154D01*
X182340001Y-126519429D01*
X182311004Y-126495632D01*
X181714373Y-125899002D01*
X181690571Y-125869999D01*
X181574846Y-125775026D01*
X181442817Y-125704454D01*
X181299556Y-125660997D01*
X181187903Y-125650000D01*
X181187892Y-125650000D01*
X181150570Y-125646324D01*
X181113248Y-125650000D01*
X178644358Y-125650000D01*
X178638467Y-125635778D01*
X178459592Y-125368073D01*
X178231927Y-125140408D01*
X177964222Y-124961533D01*
X177666763Y-124838322D01*
X177350983Y-124775510D01*
X177029017Y-124775510D01*
X176713237Y-124838322D01*
X176415778Y-124961533D01*
X176148073Y-125140408D01*
X175920408Y-125368073D01*
X175741533Y-125635778D01*
X175618322Y-125933237D01*
X175555510Y-126249017D01*
X175555510Y-126570983D01*
X175618322Y-126886763D01*
X175741533Y-127184222D01*
X175920408Y-127451927D01*
X176148073Y-127679592D01*
X176415778Y-127858467D01*
X176713237Y-127981678D01*
X177029017Y-128044490D01*
X177350983Y-128044490D01*
X177666763Y-127981678D01*
X177964222Y-127858467D01*
X178231927Y-127679592D01*
X178459592Y-127451927D01*
X178638467Y-127184222D01*
X178644358Y-127170000D01*
X180238861Y-127170000D01*
X180143256Y-127286494D01*
X180014597Y-127527200D01*
X179935368Y-127788381D01*
X179908616Y-128060000D01*
X179935368Y-128331619D01*
X180014597Y-128592800D01*
X180143256Y-128833506D01*
X180251171Y-128965000D01*
X160984802Y-128965000D01*
X160858153Y-128838351D01*
X160834068Y-128717271D01*
X160763586Y-128547111D01*
X160661262Y-128393972D01*
X160531028Y-128263738D01*
X160377889Y-128161414D01*
X160207729Y-128090932D01*
X160027089Y-128055000D01*
X159842911Y-128055000D01*
X159662271Y-128090932D01*
X159492111Y-128161414D01*
X159338972Y-128263738D01*
X159208738Y-128393972D01*
X159106414Y-128547111D01*
X159035932Y-128717271D01*
X159000000Y-128897911D01*
X159000000Y-128965000D01*
X149689802Y-128965000D01*
X149563153Y-128838351D01*
X149539068Y-128717271D01*
X149468586Y-128547111D01*
X149366262Y-128393972D01*
X149236028Y-128263738D01*
X149082889Y-128161414D01*
X148912729Y-128090932D01*
X148732089Y-128055000D01*
X148547911Y-128055000D01*
X148367271Y-128090932D01*
X148197111Y-128161414D01*
X148043972Y-128263738D01*
X147913738Y-128393972D01*
X147811414Y-128547111D01*
X147740932Y-128717271D01*
X147705000Y-128897911D01*
X147705000Y-128965000D01*
X141089802Y-128965000D01*
X140963153Y-128838351D01*
X140939068Y-128717271D01*
X140868586Y-128547111D01*
X140766262Y-128393972D01*
X140636028Y-128263738D01*
X140482889Y-128161414D01*
X140312729Y-128090932D01*
X140132089Y-128055000D01*
X139947911Y-128055000D01*
X139767271Y-128090932D01*
X139597111Y-128161414D01*
X139443972Y-128263738D01*
X139313738Y-128393972D01*
X139211414Y-128547111D01*
X139140932Y-128717271D01*
X139105000Y-128897911D01*
X139105000Y-128965000D01*
X133139801Y-128965000D01*
X133013153Y-128838351D01*
X132989068Y-128717271D01*
X132918586Y-128547111D01*
X132816262Y-128393972D01*
X132686028Y-128263738D01*
X132532889Y-128161414D01*
X132362729Y-128090932D01*
X132182089Y-128055000D01*
X131997911Y-128055000D01*
X131817271Y-128090932D01*
X131647111Y-128161414D01*
X131493972Y-128263738D01*
X131363738Y-128393972D01*
X131261414Y-128547111D01*
X131190932Y-128717271D01*
X131155000Y-128897911D01*
X131155000Y-128965000D01*
X126071057Y-128965000D01*
X126018957Y-128867529D01*
X125989068Y-128717271D01*
X125918586Y-128547111D01*
X125816262Y-128393972D01*
X125686028Y-128263738D01*
X125532889Y-128161414D01*
X125362729Y-128090932D01*
X125182089Y-128055000D01*
X124997911Y-128055000D01*
X124817271Y-128090932D01*
X124647111Y-128161414D01*
X124493972Y-128263738D01*
X124363738Y-128393972D01*
X124261414Y-128547111D01*
X124190932Y-128717271D01*
X124155000Y-128897911D01*
X124155000Y-128965000D01*
X118839801Y-128965000D01*
X118713153Y-128838351D01*
X118689068Y-128717271D01*
X118618586Y-128547111D01*
X118516262Y-128393972D01*
X118386028Y-128263738D01*
X118232889Y-128161414D01*
X118062729Y-128090932D01*
X117882089Y-128055000D01*
X117697911Y-128055000D01*
X117517271Y-128090932D01*
X117347111Y-128161414D01*
X117193972Y-128263738D01*
X117063738Y-128393972D01*
X116961414Y-128547111D01*
X116890932Y-128717271D01*
X116855000Y-128897911D01*
X116855000Y-128965000D01*
X112239801Y-128965000D01*
X112113153Y-128838351D01*
X112089068Y-128717271D01*
X112018586Y-128547111D01*
X111916262Y-128393972D01*
X111786028Y-128263738D01*
X111632889Y-128161414D01*
X111462729Y-128090932D01*
X111282089Y-128055000D01*
X111097911Y-128055000D01*
X110917271Y-128090932D01*
X110747111Y-128161414D01*
X110593972Y-128263738D01*
X110463738Y-128393972D01*
X110361414Y-128547111D01*
X110290932Y-128717271D01*
X110255000Y-128897911D01*
X110255000Y-128965000D01*
X104414801Y-128965000D01*
X104288153Y-128838351D01*
X104264068Y-128717271D01*
X104193586Y-128547111D01*
X104091262Y-128393972D01*
X103961028Y-128263738D01*
X103807889Y-128161414D01*
X103637729Y-128090932D01*
X103457089Y-128055000D01*
X103272911Y-128055000D01*
X103092271Y-128090932D01*
X102922111Y-128161414D01*
X102768972Y-128263738D01*
X102638738Y-128393972D01*
X102536414Y-128547111D01*
X102465932Y-128717271D01*
X102430000Y-128897911D01*
X102430000Y-128965000D01*
X101357240Y-128965000D01*
X97540419Y-125148181D01*
X97540415Y-125148176D01*
X97145024Y-124752785D01*
X97175000Y-124602089D01*
X97175000Y-124417911D01*
X97139068Y-124237271D01*
X97068586Y-124067111D01*
X96966262Y-123913972D01*
X96836028Y-123783738D01*
X96682889Y-123681414D01*
X96512729Y-123610932D01*
X96332089Y-123575000D01*
X96147911Y-123575000D01*
X95997215Y-123604976D01*
X92027919Y-119635681D01*
X92027915Y-119635676D01*
X91575000Y-119182761D01*
X91575000Y-119122322D01*
X91578676Y-119084999D01*
X91575000Y-119047676D01*
X91575000Y-119047667D01*
X91564003Y-118936014D01*
X91520546Y-118792753D01*
X91487500Y-118730929D01*
X91487500Y-118730411D01*
X91451568Y-118549771D01*
X91381086Y-118379611D01*
X91278762Y-118226472D01*
X91148528Y-118096238D01*
X90995389Y-117993914D01*
X90825229Y-117923432D01*
X90644589Y-117887500D01*
X90460411Y-117887500D01*
X90309715Y-117917476D01*
X89459600Y-117067361D01*
X158565000Y-117067361D01*
X158565000Y-117832639D01*
X158714298Y-118583213D01*
X159007158Y-119290238D01*
X159432323Y-119926543D01*
X159973457Y-120467677D01*
X160609762Y-120892842D01*
X161316787Y-121185702D01*
X162067361Y-121335000D01*
X162832639Y-121335000D01*
X163583213Y-121185702D01*
X164290238Y-120892842D01*
X164926543Y-120467677D01*
X165467677Y-119926543D01*
X165892842Y-119290238D01*
X166185702Y-118583213D01*
X166335000Y-117832639D01*
X166335000Y-117067361D01*
X166185702Y-116316787D01*
X165892842Y-115609762D01*
X165467677Y-114973457D01*
X164926543Y-114432323D01*
X164290238Y-114007158D01*
X163583213Y-113714298D01*
X162832639Y-113565000D01*
X162067361Y-113565000D01*
X161316787Y-113714298D01*
X160609762Y-114007158D01*
X159973457Y-114432323D01*
X159432323Y-114973457D01*
X159007158Y-115609762D01*
X158714298Y-116316787D01*
X158565000Y-117067361D01*
X89459600Y-117067361D01*
X85940425Y-113548187D01*
X85940416Y-113548176D01*
X85820024Y-113427784D01*
X85850000Y-113277089D01*
X85850000Y-113092911D01*
X85814068Y-112912271D01*
X85743586Y-112742111D01*
X85641262Y-112588972D01*
X85511028Y-112458738D01*
X85357889Y-112356414D01*
X85187729Y-112285932D01*
X85007089Y-112250000D01*
X84822911Y-112250000D01*
X84672215Y-112279976D01*
X82102925Y-109710687D01*
X82051714Y-109648286D01*
X81802752Y-109443969D01*
X81702762Y-109390523D01*
X79063651Y-106751413D01*
X79076568Y-106720229D01*
X79112500Y-106539589D01*
X79112500Y-106355411D01*
X79076568Y-106174771D01*
X79006086Y-106004611D01*
X78903762Y-105851472D01*
X78773528Y-105721238D01*
X78620389Y-105618914D01*
X78450229Y-105548432D01*
X78269589Y-105512500D01*
X78085411Y-105512500D01*
X77904771Y-105548432D01*
X77873587Y-105561349D01*
X71537925Y-99225687D01*
X71486714Y-99163286D01*
X71237752Y-98958969D01*
X70953715Y-98807148D01*
X70645516Y-98713657D01*
X70405322Y-98690000D01*
X70405319Y-98690000D01*
X70325000Y-98682089D01*
X70244681Y-98690000D01*
X68075106Y-98690000D01*
X68009818Y-98361774D01*
X67534760Y-97214883D01*
X66845083Y-96182709D01*
X65967291Y-95304917D01*
X64935117Y-94615240D01*
X63788226Y-94140182D01*
X62781773Y-93939986D01*
X63813226Y-93734818D01*
X64960117Y-93259760D01*
X65992291Y-92570083D01*
X66052374Y-92510000D01*
X69447762Y-92510000D01*
X72887080Y-95949319D01*
X72938286Y-96011714D01*
X73187248Y-96216031D01*
X73471285Y-96367852D01*
X73779484Y-96461343D01*
X74019678Y-96485000D01*
X74019680Y-96485000D01*
X74100000Y-96492911D01*
X74180319Y-96485000D01*
X81177762Y-96485000D01*
X84153176Y-99460416D01*
X84153187Y-99460425D01*
X88032083Y-103339323D01*
X88083286Y-103401714D01*
X88145676Y-103452916D01*
X88191876Y-103490831D01*
X88332248Y-103606031D01*
X88419614Y-103652729D01*
X88616285Y-103757852D01*
X88924483Y-103851343D01*
X89245000Y-103882911D01*
X89325322Y-103875000D01*
X112482762Y-103875000D01*
X116273176Y-107665416D01*
X116273187Y-107665425D01*
X120007084Y-111399324D01*
X120058286Y-111461714D01*
X120307248Y-111666031D01*
X120474659Y-111755514D01*
X120591285Y-111817852D01*
X120899483Y-111911343D01*
X121220000Y-111942911D01*
X121300322Y-111935000D01*
X175975001Y-111935000D01*
X175975000Y-116269680D01*
X175967089Y-116350000D01*
X175975000Y-116430319D01*
X175975000Y-116430321D01*
X175998657Y-116670515D01*
X176092148Y-116978714D01*
X176243969Y-117262751D01*
X176448286Y-117511714D01*
X176510687Y-117562925D01*
X181371110Y-122423349D01*
X181373707Y-122431910D01*
X181502366Y-122672616D01*
X181675515Y-122883596D01*
X181886495Y-123056744D01*
X182127201Y-123185403D01*
X182388382Y-123264632D01*
X182660000Y-123291384D01*
X182931619Y-123264632D01*
X183192800Y-123185403D01*
X183433506Y-123056744D01*
X183644486Y-122883596D01*
X183817634Y-122672616D01*
X183946293Y-122431910D01*
X183956879Y-122397013D01*
X184026030Y-122312752D01*
X184177851Y-122028714D01*
X184271342Y-121720516D01*
X184302911Y-121399999D01*
X184271342Y-121079482D01*
X184196519Y-120832824D01*
X186354430Y-120832824D01*
X186354430Y-121967177D01*
X186374478Y-122170729D01*
X186453707Y-122431910D01*
X186582366Y-122672616D01*
X186755515Y-122883596D01*
X186966495Y-123056744D01*
X187207201Y-123185403D01*
X187468382Y-123264632D01*
X187740000Y-123291384D01*
X188011619Y-123264632D01*
X188272800Y-123185403D01*
X188513506Y-123056744D01*
X188724486Y-122883596D01*
X188897634Y-122672616D01*
X189026293Y-122431910D01*
X189105522Y-122170729D01*
X189125570Y-121967177D01*
X189125570Y-120832823D01*
X189105522Y-120629271D01*
X189026293Y-120368090D01*
X188897634Y-120127384D01*
X188724485Y-119916404D01*
X188513505Y-119743256D01*
X188272799Y-119614597D01*
X188011618Y-119535368D01*
X187740000Y-119508616D01*
X187468381Y-119535368D01*
X187207200Y-119614597D01*
X186966494Y-119743256D01*
X186755514Y-119916405D01*
X186582366Y-120127385D01*
X186453707Y-120368091D01*
X186374478Y-120629272D01*
X186354430Y-120832824D01*
X184196519Y-120832824D01*
X184177851Y-120771284D01*
X184026030Y-120487247D01*
X183956879Y-120402986D01*
X183946293Y-120368090D01*
X183817634Y-120127384D01*
X183644485Y-119916404D01*
X183433505Y-119743256D01*
X183192799Y-119614597D01*
X183184239Y-119612000D01*
X179245000Y-115672762D01*
X179245000Y-111935000D01*
X180419103Y-111935000D01*
X180393256Y-111966494D01*
X180264597Y-112207200D01*
X180185368Y-112468381D01*
X180158616Y-112740000D01*
X180185368Y-113011619D01*
X180264597Y-113272800D01*
X180393256Y-113513506D01*
X180566404Y-113724486D01*
X180777384Y-113897634D01*
X181018090Y-114026293D01*
X181279271Y-114105522D01*
X181482823Y-114125570D01*
X182617177Y-114125570D01*
X182820729Y-114105522D01*
X183081910Y-114026293D01*
X183322616Y-113897634D01*
X183533596Y-113724486D01*
X183706744Y-113513506D01*
X183835403Y-113272800D01*
X183914632Y-113011619D01*
X183941384Y-112740000D01*
X183914632Y-112468381D01*
X183835403Y-112207200D01*
X183706744Y-111966494D01*
X183533596Y-111755514D01*
X183322616Y-111582366D01*
X183136146Y-111482697D01*
X183161714Y-111461714D01*
X183188142Y-111429511D01*
X183322616Y-111357634D01*
X183533596Y-111184486D01*
X183706744Y-110973506D01*
X183835403Y-110732800D01*
X183914632Y-110471619D01*
X183941384Y-110200000D01*
X183914632Y-109928381D01*
X183835403Y-109667200D01*
X183706744Y-109426494D01*
X183533596Y-109215514D01*
X183322616Y-109042366D01*
X183112392Y-108930000D01*
X183322616Y-108817634D01*
X183533596Y-108644486D01*
X183706744Y-108433506D01*
X183835403Y-108192800D01*
X183914632Y-107931619D01*
X183941384Y-107660000D01*
X183914632Y-107388381D01*
X183835403Y-107127200D01*
X183706744Y-106886494D01*
X183533596Y-106675514D01*
X183322616Y-106502366D01*
X183081910Y-106373707D01*
X182820729Y-106294478D01*
X182617177Y-106274430D01*
X181482823Y-106274430D01*
X181279271Y-106294478D01*
X181018090Y-106373707D01*
X180777384Y-106502366D01*
X180566404Y-106675514D01*
X180393256Y-106886494D01*
X180264597Y-107127200D01*
X180185368Y-107388381D01*
X180158616Y-107660000D01*
X180185368Y-107931619D01*
X180264597Y-108192800D01*
X180393256Y-108433506D01*
X180566404Y-108644486D01*
X180591400Y-108665000D01*
X179162347Y-108665000D01*
X179127852Y-108551285D01*
X178976031Y-108267248D01*
X178771714Y-108018286D01*
X178522752Y-107813969D01*
X178238715Y-107662148D01*
X177930516Y-107568657D01*
X177610000Y-107537089D01*
X177289485Y-107568657D01*
X176981286Y-107662148D01*
X176697249Y-107813969D01*
X176448287Y-108018286D01*
X176243970Y-108267248D01*
X176092149Y-108551285D01*
X176057654Y-108665000D01*
X171375403Y-108665000D01*
X171321262Y-108583972D01*
X171191028Y-108453738D01*
X171037889Y-108351414D01*
X170867729Y-108280932D01*
X170687089Y-108245000D01*
X170502911Y-108245000D01*
X170322271Y-108280932D01*
X170152111Y-108351414D01*
X169998972Y-108453738D01*
X169868738Y-108583972D01*
X169814597Y-108665000D01*
X162885403Y-108665000D01*
X162831262Y-108583972D01*
X162701028Y-108453738D01*
X162547889Y-108351414D01*
X162377729Y-108280932D01*
X162197089Y-108245000D01*
X162012911Y-108245000D01*
X161832271Y-108280932D01*
X161662111Y-108351414D01*
X161508972Y-108453738D01*
X161378738Y-108583972D01*
X161324597Y-108665000D01*
X151125403Y-108665000D01*
X151071262Y-108583972D01*
X150941028Y-108453738D01*
X150787889Y-108351414D01*
X150617729Y-108280932D01*
X150437089Y-108245000D01*
X150252911Y-108245000D01*
X150072271Y-108280932D01*
X149902111Y-108351414D01*
X149748972Y-108453738D01*
X149618738Y-108583972D01*
X149564597Y-108665000D01*
X138875403Y-108665000D01*
X138821262Y-108583972D01*
X138691028Y-108453738D01*
X138537889Y-108351414D01*
X138367729Y-108280932D01*
X138187089Y-108245000D01*
X138002911Y-108245000D01*
X137822271Y-108280932D01*
X137652111Y-108351414D01*
X137498972Y-108453738D01*
X137368738Y-108583972D01*
X137314597Y-108665000D01*
X127875403Y-108665000D01*
X127821262Y-108583972D01*
X127691028Y-108453738D01*
X127537889Y-108351414D01*
X127367729Y-108280932D01*
X127187089Y-108245000D01*
X127002911Y-108245000D01*
X126822271Y-108280932D01*
X126652111Y-108351414D01*
X126498972Y-108453738D01*
X126368738Y-108583972D01*
X126314597Y-108665000D01*
X121897240Y-108665000D01*
X118585425Y-105353187D01*
X118585416Y-105353176D01*
X118132500Y-104900260D01*
X118132500Y-104869822D01*
X118136176Y-104832499D01*
X118132500Y-104795176D01*
X118132500Y-104795167D01*
X118121503Y-104683514D01*
X118078046Y-104540253D01*
X118007474Y-104408224D01*
X117912501Y-104292499D01*
X117883503Y-104268701D01*
X116843153Y-103228351D01*
X116819068Y-103107271D01*
X116748586Y-102937111D01*
X116646262Y-102783972D01*
X116516028Y-102653738D01*
X116362889Y-102551414D01*
X116192729Y-102480932D01*
X116012089Y-102445000D01*
X115827911Y-102445000D01*
X115702237Y-102469998D01*
X114372925Y-101140687D01*
X114321714Y-101078286D01*
X114072752Y-100873969D01*
X113788715Y-100722148D01*
X113480516Y-100628657D01*
X113240322Y-100605000D01*
X113240319Y-100605000D01*
X113160000Y-100597089D01*
X113079681Y-100605000D01*
X89922240Y-100605000D01*
X89696257Y-100379017D01*
X172545510Y-100379017D01*
X172545510Y-100700983D01*
X172608322Y-101016763D01*
X172731533Y-101314222D01*
X172910408Y-101581927D01*
X173138073Y-101809592D01*
X173405778Y-101988467D01*
X173703237Y-102111678D01*
X174019017Y-102174490D01*
X174340983Y-102174490D01*
X174656763Y-102111678D01*
X174954222Y-101988467D01*
X175221927Y-101809592D01*
X175449592Y-101581927D01*
X175628467Y-101314222D01*
X175751678Y-101016763D01*
X175814490Y-100700983D01*
X175814490Y-100379017D01*
X180165510Y-100379017D01*
X180165510Y-100700983D01*
X180228322Y-101016763D01*
X180351533Y-101314222D01*
X180530408Y-101581927D01*
X180758073Y-101809592D01*
X181025778Y-101988467D01*
X181323237Y-102111678D01*
X181639017Y-102174490D01*
X181960983Y-102174490D01*
X182276763Y-102111678D01*
X182574222Y-101988467D01*
X182841927Y-101809592D01*
X183069592Y-101581927D01*
X183248467Y-101314222D01*
X183371678Y-101016763D01*
X183434490Y-100700983D01*
X183434490Y-100379017D01*
X183371678Y-100063237D01*
X183248467Y-99765778D01*
X183069592Y-99498073D01*
X182841927Y-99270408D01*
X182574222Y-99091533D01*
X182276763Y-98968322D01*
X181960983Y-98905510D01*
X181639017Y-98905510D01*
X181323237Y-98968322D01*
X181025778Y-99091533D01*
X180758073Y-99270408D01*
X180530408Y-99498073D01*
X180351533Y-99765778D01*
X180228322Y-100063237D01*
X180165510Y-100379017D01*
X175814490Y-100379017D01*
X175751678Y-100063237D01*
X175628467Y-99765778D01*
X175449592Y-99498073D01*
X175221927Y-99270408D01*
X174954222Y-99091533D01*
X174656763Y-98968322D01*
X174340983Y-98905510D01*
X174019017Y-98905510D01*
X173703237Y-98968322D01*
X173405778Y-99091533D01*
X173138073Y-99270408D01*
X172910408Y-99498073D01*
X172731533Y-99765778D01*
X172608322Y-100063237D01*
X172545510Y-100379017D01*
X89696257Y-100379017D01*
X86465425Y-97148187D01*
X86465416Y-97148176D01*
X83067925Y-93750686D01*
X83016714Y-93688286D01*
X82767752Y-93483969D01*
X82483715Y-93332148D01*
X82175516Y-93238657D01*
X81935322Y-93215000D01*
X81935319Y-93215000D01*
X81855000Y-93207089D01*
X81774681Y-93215000D01*
X74777239Y-93215000D01*
X71337925Y-89775687D01*
X71286714Y-89713286D01*
X71037752Y-89508969D01*
X70753715Y-89357148D01*
X70445516Y-89263657D01*
X70205322Y-89240000D01*
X70205319Y-89240000D01*
X70125000Y-89232089D01*
X70044681Y-89240000D01*
X68089166Y-89240000D01*
X68277000Y-88295693D01*
X68277000Y-87054307D01*
X68034818Y-85836774D01*
X67559760Y-84689883D01*
X66870083Y-83657709D01*
X65992291Y-82779917D01*
X64960117Y-82090240D01*
X63813226Y-81615182D01*
X62595693Y-81373000D01*
X61354307Y-81373000D01*
X60136774Y-81615182D01*
X58989883Y-82090240D01*
X57957709Y-82779917D01*
X57079917Y-83657709D01*
X56390240Y-84689883D01*
X55915182Y-85836774D01*
X55673000Y-87054307D01*
X55673000Y-88295693D01*
X55915182Y-89513226D01*
X56390240Y-90660117D01*
X57079917Y-91692291D01*
X57957709Y-92570083D01*
X58989883Y-93259760D01*
X60136774Y-93734818D01*
X61143227Y-93935014D01*
X60111774Y-94140182D01*
X58964883Y-94615240D01*
X57932709Y-95304917D01*
X57054917Y-96182709D01*
X56365240Y-97214883D01*
X55890182Y-98361774D01*
X55648000Y-99579307D01*
X52700000Y-99579307D01*
X52700000Y-74179307D01*
X55673000Y-74179307D01*
X55673000Y-75420693D01*
X55915182Y-76638226D01*
X56390240Y-77785117D01*
X57079917Y-78817291D01*
X57957709Y-79695083D01*
X58989883Y-80384760D01*
X60136774Y-80859818D01*
X61354307Y-81102000D01*
X62595693Y-81102000D01*
X63813226Y-80859818D01*
X64960117Y-80384760D01*
X65992291Y-79695083D01*
X66077375Y-79609999D01*
X75672760Y-79609999D01*
X76050001Y-79987240D01*
X76050000Y-82630000D01*
X76042089Y-82710320D01*
X76050000Y-82790639D01*
X76050000Y-82790641D01*
X76073657Y-83030835D01*
X76167148Y-83339034D01*
X76318969Y-83623071D01*
X76523286Y-83872034D01*
X76585686Y-83923245D01*
X77840001Y-85177559D01*
X77840000Y-86201171D01*
X77708506Y-86093256D01*
X77467800Y-85964597D01*
X77206619Y-85885368D01*
X76935000Y-85858616D01*
X76663382Y-85885368D01*
X76402201Y-85964597D01*
X76161495Y-86093256D01*
X75950515Y-86266404D01*
X75777366Y-86477384D01*
X75648707Y-86718090D01*
X75569478Y-86979271D01*
X75549430Y-87182823D01*
X75549430Y-88317176D01*
X75569478Y-88520728D01*
X75648707Y-88781909D01*
X75777366Y-89022615D01*
X75950514Y-89233595D01*
X76161494Y-89406744D01*
X76402200Y-89535403D01*
X76663381Y-89614632D01*
X76935000Y-89641384D01*
X77206618Y-89614632D01*
X77467799Y-89535403D01*
X77708505Y-89406744D01*
X77919485Y-89233596D01*
X78089047Y-89026986D01*
X78098618Y-89124162D01*
X78134928Y-89243860D01*
X78193893Y-89354174D01*
X78273245Y-89450865D01*
X78369936Y-89530217D01*
X78480250Y-89589182D01*
X78599948Y-89625492D01*
X78724430Y-89637752D01*
X80225570Y-89637752D01*
X80350052Y-89625492D01*
X80469750Y-89589182D01*
X80580064Y-89530217D01*
X80676755Y-89450865D01*
X80756107Y-89354174D01*
X80815072Y-89243860D01*
X80851382Y-89124162D01*
X80860953Y-89026985D01*
X81030514Y-89233595D01*
X81241494Y-89406744D01*
X81482200Y-89535403D01*
X81743381Y-89614632D01*
X82015000Y-89641384D01*
X82286618Y-89614632D01*
X82547799Y-89535403D01*
X82788505Y-89406744D01*
X82999485Y-89233596D01*
X83172634Y-89022616D01*
X83301293Y-88781910D01*
X83380522Y-88520729D01*
X83400570Y-88317177D01*
X83400570Y-87182823D01*
X83380522Y-86979271D01*
X83301293Y-86718090D01*
X83172634Y-86477384D01*
X82999486Y-86266404D01*
X82788506Y-86093256D01*
X82547800Y-85964597D01*
X82286619Y-85885368D01*
X82015000Y-85858616D01*
X81743382Y-85885368D01*
X81482201Y-85964597D01*
X81241495Y-86093256D01*
X81110000Y-86201172D01*
X81110000Y-84580639D01*
X81117911Y-84500319D01*
X81106866Y-84388176D01*
X81086343Y-84179804D01*
X80992852Y-83871605D01*
X80841031Y-83587568D01*
X80636714Y-83338606D01*
X80574318Y-83287399D01*
X79320000Y-82033082D01*
X79320000Y-80945000D01*
X80921171Y-80945000D01*
X80813256Y-81076494D01*
X80684597Y-81317200D01*
X80605368Y-81578381D01*
X80578616Y-81850000D01*
X80605368Y-82121619D01*
X80684597Y-82382800D01*
X80813256Y-82623506D01*
X80986404Y-82834486D01*
X81197384Y-83007634D01*
X81438090Y-83136293D01*
X81699271Y-83215522D01*
X81902823Y-83235570D01*
X83037177Y-83235570D01*
X83240729Y-83215522D01*
X83501910Y-83136293D01*
X83742616Y-83007634D01*
X83953596Y-82834486D01*
X84126744Y-82623506D01*
X84255403Y-82382800D01*
X84334632Y-82121619D01*
X84361384Y-81850000D01*
X84334632Y-81578381D01*
X84255403Y-81317200D01*
X84126744Y-81076494D01*
X83953596Y-80865514D01*
X83742616Y-80692366D01*
X83532392Y-80580000D01*
X83742616Y-80467634D01*
X83953596Y-80294486D01*
X84126744Y-80083506D01*
X84255403Y-79842800D01*
X84334632Y-79581619D01*
X84361384Y-79310000D01*
X84334632Y-79038381D01*
X84255403Y-78777200D01*
X84126744Y-78536494D01*
X83953596Y-78325514D01*
X83742616Y-78152366D01*
X83501910Y-78023707D01*
X83467015Y-78013122D01*
X83382752Y-77943969D01*
X83098715Y-77792148D01*
X82790516Y-77698657D01*
X82550322Y-77675000D01*
X78362239Y-77675000D01*
X77562923Y-76875685D01*
X77511713Y-76813285D01*
X77262751Y-76608968D01*
X76978714Y-76457147D01*
X76670515Y-76363656D01*
X76430321Y-76339999D01*
X76430318Y-76339999D01*
X76349999Y-76332088D01*
X76269680Y-76339999D01*
X68094139Y-76339999D01*
X68277000Y-75420693D01*
X68277000Y-74179307D01*
X68034818Y-72961774D01*
X67559760Y-71814883D01*
X66870083Y-70782709D01*
X65992291Y-69904917D01*
X64960117Y-69215240D01*
X63813226Y-68740182D01*
X62595693Y-68498000D01*
X61354307Y-68498000D01*
X60136774Y-68740182D01*
X58989883Y-69215240D01*
X57957709Y-69904917D01*
X57079917Y-70782709D01*
X56390240Y-71814883D01*
X55915182Y-72961774D01*
X55673000Y-74179307D01*
X52700000Y-74179307D01*
X52700000Y-48879307D01*
X55623000Y-48879307D01*
X55623000Y-50120693D01*
X55865182Y-51338226D01*
X56340240Y-52485117D01*
X57029917Y-53517291D01*
X57907709Y-54395083D01*
X58939883Y-55084760D01*
X60086774Y-55559818D01*
X61080385Y-55757459D01*
X60161774Y-55940182D01*
X59014883Y-56415240D01*
X57982709Y-57104917D01*
X57104917Y-57982709D01*
X56415240Y-59014883D01*
X55940182Y-60161774D01*
X55698000Y-61379307D01*
X55698000Y-62620693D01*
X55940182Y-63838226D01*
X56415240Y-64985117D01*
X57104917Y-66017291D01*
X57982709Y-66895083D01*
X59014883Y-67584760D01*
X60161774Y-68059818D01*
X61379307Y-68302000D01*
X62620693Y-68302000D01*
X63838226Y-68059818D01*
X64985117Y-67584760D01*
X66017291Y-66895083D01*
X66895083Y-66017291D01*
X67353170Y-65331715D01*
X150161000Y-65331715D01*
X150161000Y-66848285D01*
X150456868Y-68335715D01*
X151037235Y-69736844D01*
X151879796Y-70997826D01*
X152952174Y-72070204D01*
X154213156Y-72912765D01*
X154243823Y-72925468D01*
X154277596Y-73268369D01*
X154327831Y-73433970D01*
X154485449Y-73953568D01*
X154822984Y-74585053D01*
X154946134Y-74735111D01*
X155277231Y-75138554D01*
X155415942Y-75252391D01*
X155739603Y-75576052D01*
X155853445Y-75714769D01*
X156406946Y-76169015D01*
X157038430Y-76506550D01*
X157723630Y-76714404D01*
X158257640Y-76766999D01*
X158257642Y-76766999D01*
X158436214Y-76784587D01*
X158614787Y-76766999D01*
X159433000Y-76766999D01*
X159433000Y-78913996D01*
X159221910Y-78801167D01*
X158960729Y-78721938D01*
X158757177Y-78701890D01*
X157622823Y-78701890D01*
X157419271Y-78721938D01*
X157158090Y-78801167D01*
X156917384Y-78929826D01*
X156706404Y-79102974D01*
X156533256Y-79313954D01*
X156404597Y-79554660D01*
X156325368Y-79815841D01*
X156298616Y-80087460D01*
X156325368Y-80359079D01*
X156404597Y-80620260D01*
X156533256Y-80860966D01*
X156706404Y-81071946D01*
X156913014Y-81241507D01*
X156815838Y-81251078D01*
X156696140Y-81287388D01*
X156585826Y-81346353D01*
X156489135Y-81425705D01*
X156409783Y-81522396D01*
X156350818Y-81632710D01*
X156314508Y-81752408D01*
X156302248Y-81876890D01*
X156302248Y-83378030D01*
X156314508Y-83502512D01*
X156350818Y-83622210D01*
X156409783Y-83732524D01*
X156489135Y-83829215D01*
X156585826Y-83908567D01*
X156696140Y-83967532D01*
X156815838Y-84003842D01*
X156913014Y-84013413D01*
X156706404Y-84182974D01*
X156533256Y-84393954D01*
X156404597Y-84634660D01*
X156325368Y-84895841D01*
X156298616Y-85167460D01*
X156325368Y-85439079D01*
X156404597Y-85700260D01*
X156533256Y-85940966D01*
X156706404Y-86151946D01*
X156917384Y-86325094D01*
X157158090Y-86453753D01*
X157419271Y-86532982D01*
X157622823Y-86553030D01*
X158757177Y-86553030D01*
X158960729Y-86532982D01*
X159221910Y-86453753D01*
X159462616Y-86325094D01*
X159673596Y-86151946D01*
X159804680Y-85992220D01*
X159804681Y-92329878D01*
X159725596Y-92233514D01*
X159514616Y-92060366D01*
X159273910Y-91931707D01*
X159012729Y-91852478D01*
X158809177Y-91832430D01*
X157674823Y-91832430D01*
X157471271Y-91852478D01*
X157210090Y-91931707D01*
X156969384Y-92060366D01*
X156758404Y-92233514D01*
X156585256Y-92444494D01*
X156456597Y-92685200D01*
X156377368Y-92946381D01*
X156350616Y-93218000D01*
X156377368Y-93489619D01*
X156456597Y-93750800D01*
X156585256Y-93991506D01*
X156758404Y-94202486D01*
X156965014Y-94372047D01*
X156867838Y-94381618D01*
X156748140Y-94417928D01*
X156637826Y-94476893D01*
X156541135Y-94556245D01*
X156461783Y-94652936D01*
X156402818Y-94763250D01*
X156366508Y-94882948D01*
X156354248Y-95007430D01*
X156354248Y-96508570D01*
X156366508Y-96633052D01*
X156402818Y-96752750D01*
X156461783Y-96863064D01*
X156541135Y-96959755D01*
X156637826Y-97039107D01*
X156748140Y-97098072D01*
X156867838Y-97134382D01*
X156965014Y-97143953D01*
X156758404Y-97313514D01*
X156585256Y-97524494D01*
X156456597Y-97765200D01*
X156377368Y-98026381D01*
X156350616Y-98298000D01*
X156377368Y-98569619D01*
X156456597Y-98830800D01*
X156585256Y-99071506D01*
X156758404Y-99282486D01*
X156969384Y-99455634D01*
X157210090Y-99584293D01*
X157471271Y-99663522D01*
X157674823Y-99683570D01*
X158809177Y-99683570D01*
X159012729Y-99663522D01*
X159273910Y-99584293D01*
X159514616Y-99455634D01*
X159725596Y-99282486D01*
X159898744Y-99071506D01*
X160027403Y-98830800D01*
X160106632Y-98569619D01*
X160133384Y-98298000D01*
X160106632Y-98026381D01*
X160027403Y-97765200D01*
X159898744Y-97524494D01*
X159790829Y-97393000D01*
X160421681Y-97393000D01*
X160502000Y-97400911D01*
X160582319Y-97393000D01*
X161411361Y-97393000D01*
X161491680Y-97400911D01*
X161571999Y-97393000D01*
X163436681Y-97393000D01*
X163517000Y-97400911D01*
X163597319Y-97393000D01*
X163597322Y-97393000D01*
X163837516Y-97369343D01*
X164145715Y-97275852D01*
X164429752Y-97124031D01*
X164678714Y-96919714D01*
X164729925Y-96857313D01*
X166774320Y-94812919D01*
X166836714Y-94761714D01*
X167041031Y-94512752D01*
X167192852Y-94228715D01*
X167235360Y-94088586D01*
X167286343Y-93920517D01*
X167317911Y-93600000D01*
X167310000Y-93519678D01*
X167310000Y-92002238D01*
X169677240Y-89635000D01*
X175178575Y-89635000D01*
X175712585Y-89582405D01*
X176397785Y-89374551D01*
X177029269Y-89037016D01*
X177582770Y-88582770D01*
X178037016Y-88029269D01*
X178374551Y-87397785D01*
X178582405Y-86712585D01*
X178652588Y-86000000D01*
X178582405Y-85287415D01*
X178374551Y-84602215D01*
X178037016Y-83970731D01*
X177582770Y-83417230D01*
X177029269Y-82962984D01*
X176586953Y-82726561D01*
X176917899Y-82626170D01*
X177332240Y-82404700D01*
X177695412Y-82106652D01*
X177993460Y-81743480D01*
X178214930Y-81329139D01*
X178351310Y-80879553D01*
X178397360Y-80412000D01*
X178351310Y-79944447D01*
X178214930Y-79494861D01*
X177993460Y-79080520D01*
X177695412Y-78717348D01*
X177332240Y-78419300D01*
X176917899Y-78197830D01*
X176468313Y-78061450D01*
X176117927Y-78026940D01*
X173882073Y-78026940D01*
X173531687Y-78061450D01*
X173082101Y-78197830D01*
X172667760Y-78419300D01*
X172304588Y-78717348D01*
X172006540Y-79080520D01*
X171785070Y-79494861D01*
X171648690Y-79944447D01*
X171602640Y-80412000D01*
X171648690Y-80879553D01*
X171785070Y-81329139D01*
X172006540Y-81743480D01*
X172304588Y-82106652D01*
X172619385Y-82365000D01*
X171505000Y-82365000D01*
X171505000Y-71635000D01*
X175178575Y-71635000D01*
X175712585Y-71582405D01*
X176397785Y-71374551D01*
X177029269Y-71037016D01*
X177582770Y-70582770D01*
X178037016Y-70029269D01*
X178374551Y-69397785D01*
X178582405Y-68712585D01*
X178652588Y-68000000D01*
X178582405Y-67287415D01*
X178374551Y-66602215D01*
X178037016Y-65970731D01*
X177582770Y-65417230D01*
X177029269Y-64962984D01*
X176586953Y-64726561D01*
X176917899Y-64626170D01*
X177332240Y-64404700D01*
X177695412Y-64106652D01*
X177993460Y-63743480D01*
X178214930Y-63329139D01*
X178351310Y-62879553D01*
X178397360Y-62412000D01*
X178351310Y-61944447D01*
X178214930Y-61494861D01*
X177993460Y-61080520D01*
X177695412Y-60717348D01*
X177332240Y-60419300D01*
X176917899Y-60197830D01*
X176468313Y-60061450D01*
X176117927Y-60026940D01*
X173882073Y-60026940D01*
X173531687Y-60061450D01*
X173082101Y-60197830D01*
X172667760Y-60419300D01*
X172304588Y-60717348D01*
X172006540Y-61080520D01*
X171785070Y-61494861D01*
X171648690Y-61944447D01*
X171602640Y-62412000D01*
X171648690Y-62879553D01*
X171785070Y-63329139D01*
X172006540Y-63743480D01*
X172304588Y-64106652D01*
X172619385Y-64365000D01*
X171425000Y-64365000D01*
X171425000Y-54837239D01*
X172627239Y-53635000D01*
X175178575Y-53635000D01*
X175712585Y-53582405D01*
X176397785Y-53374551D01*
X177029269Y-53037016D01*
X177582770Y-52582770D01*
X178037016Y-52029269D01*
X178374551Y-51397785D01*
X178582405Y-50712585D01*
X178652588Y-50000000D01*
X178582405Y-49287415D01*
X178374551Y-48602215D01*
X178037016Y-47970731D01*
X177582770Y-47417230D01*
X177029269Y-46962984D01*
X176586953Y-46726561D01*
X176917899Y-46626170D01*
X177332240Y-46404700D01*
X177695412Y-46106652D01*
X177993460Y-45743480D01*
X178214930Y-45329139D01*
X178351310Y-44879553D01*
X178397360Y-44412000D01*
X178351310Y-43944447D01*
X178214930Y-43494861D01*
X177993460Y-43080520D01*
X177695412Y-42717348D01*
X177332240Y-42419300D01*
X176917899Y-42197830D01*
X176468313Y-42061450D01*
X176117927Y-42026940D01*
X173882073Y-42026940D01*
X173531687Y-42061450D01*
X173082101Y-42197830D01*
X172667760Y-42419300D01*
X172304588Y-42717348D01*
X172006540Y-43080520D01*
X171785070Y-43494861D01*
X171648690Y-43944447D01*
X171602640Y-44412000D01*
X171648690Y-44879553D01*
X171785070Y-45329139D01*
X172006540Y-45743480D01*
X172304588Y-46106652D01*
X172619385Y-46365000D01*
X171201425Y-46365000D01*
X171177138Y-46367392D01*
X171008859Y-46331402D01*
X170813421Y-46275627D01*
X170707564Y-46266965D01*
X170603706Y-46244753D01*
X170400493Y-46241838D01*
X170197937Y-46225263D01*
X170092428Y-46237418D01*
X169986229Y-46235895D01*
X169786350Y-46272681D01*
X169584455Y-46295941D01*
X169483344Y-46328447D01*
X169378889Y-46347671D01*
X169190027Y-46422745D01*
X168996548Y-46484946D01*
X168903721Y-46536553D01*
X168805024Y-46575786D01*
X168634438Y-46686262D01*
X168456811Y-46785014D01*
X168375836Y-46853739D01*
X168286689Y-46911473D01*
X168140938Y-47053102D01*
X168103968Y-47084479D01*
X168030504Y-47160412D01*
X167843804Y-47341832D01*
X167816124Y-47381998D01*
X166650512Y-48586791D01*
X166562248Y-48633969D01*
X166313286Y-48838286D01*
X166262075Y-48900687D01*
X166112085Y-49050677D01*
X165958970Y-49237248D01*
X165882135Y-49380996D01*
X165069295Y-50221158D01*
X164894672Y-50386606D01*
X164765791Y-50568662D01*
X164627166Y-50743388D01*
X164587740Y-50820175D01*
X164537862Y-50890632D01*
X164446976Y-51094330D01*
X164345099Y-51292747D01*
X164321411Y-51375752D01*
X164286237Y-51454584D01*
X164236837Y-51672099D01*
X164175627Y-51886579D01*
X164168587Y-51972610D01*
X164149469Y-52056790D01*
X164143454Y-52279758D01*
X164125263Y-52502061D01*
X164135143Y-52587819D01*
X164132815Y-52674105D01*
X164153191Y-52793251D01*
X163697125Y-53249317D01*
X163577495Y-53347495D01*
X163185731Y-53824861D01*
X163036901Y-54103302D01*
X160847889Y-56143855D01*
X160825676Y-56162085D01*
X160820961Y-56166800D01*
X160753883Y-56222768D01*
X160707378Y-56280383D01*
X160466560Y-56521202D01*
X160407677Y-56527001D01*
X160405663Y-56527199D01*
X160322942Y-56527403D01*
X160245804Y-56542944D01*
X160167483Y-56550658D01*
X160088313Y-56574674D01*
X160007219Y-56591012D01*
X159934592Y-56621305D01*
X159859284Y-56644149D01*
X159786325Y-56683146D01*
X159784463Y-56683923D01*
X159715442Y-56721034D01*
X159575247Y-56795970D01*
X159573677Y-56797258D01*
X157876185Y-57709965D01*
X157838700Y-57713657D01*
X157530501Y-57807148D01*
X157246464Y-57958969D01*
X156997502Y-58163286D01*
X156946291Y-58225687D01*
X156760682Y-58411296D01*
X156698287Y-58462502D01*
X156689710Y-58472953D01*
X155614285Y-58686868D01*
X154213156Y-59267235D01*
X152952174Y-60109796D01*
X151879796Y-61182174D01*
X151037235Y-62443156D01*
X150456868Y-63844285D01*
X150161000Y-65331715D01*
X67353170Y-65331715D01*
X67584760Y-64985117D01*
X68059818Y-63838226D01*
X68302000Y-62620693D01*
X68302000Y-61379307D01*
X68059818Y-60161774D01*
X67584760Y-59014883D01*
X66895083Y-57982709D01*
X66017291Y-57104917D01*
X64985117Y-56415240D01*
X63838226Y-55940182D01*
X62844615Y-55742541D01*
X63763226Y-55559818D01*
X64910117Y-55084760D01*
X65942291Y-54395083D01*
X66820083Y-53517291D01*
X67509760Y-52485117D01*
X67984818Y-51338226D01*
X68025242Y-51135000D01*
X79622762Y-51135000D01*
X85112084Y-56624324D01*
X85163286Y-56686714D01*
X85412248Y-56891031D01*
X85557476Y-56968657D01*
X85696285Y-57042852D01*
X86004483Y-57136343D01*
X86325000Y-57167911D01*
X86405322Y-57160000D01*
X113494681Y-57160000D01*
X113575000Y-57167911D01*
X113655319Y-57160000D01*
X113655322Y-57160000D01*
X113895516Y-57136343D01*
X114203715Y-57042852D01*
X114487752Y-56891031D01*
X114736714Y-56686714D01*
X114787925Y-56624313D01*
X118873271Y-52538967D01*
X119465000Y-52538967D01*
X119465000Y-52861033D01*
X119527832Y-53176912D01*
X119651082Y-53474463D01*
X119830013Y-53742252D01*
X120057748Y-53969987D01*
X120325537Y-54148918D01*
X120623088Y-54272168D01*
X120938967Y-54335000D01*
X121261033Y-54335000D01*
X121576912Y-54272168D01*
X121874463Y-54148918D01*
X122142252Y-53969987D01*
X122369987Y-53742252D01*
X122548918Y-53474463D01*
X122672168Y-53176912D01*
X122735000Y-52861033D01*
X122735000Y-52538967D01*
X122672168Y-52223088D01*
X122548918Y-51925537D01*
X122369987Y-51657748D01*
X122142252Y-51430013D01*
X121874463Y-51251082D01*
X121576912Y-51127832D01*
X121261033Y-51065000D01*
X120938967Y-51065000D01*
X120623088Y-51127832D01*
X120325537Y-51251082D01*
X120057748Y-51430013D01*
X119830013Y-51657748D01*
X119651082Y-51925537D01*
X119527832Y-52223088D01*
X119465000Y-52538967D01*
X118873271Y-52538967D01*
X122312915Y-49099324D01*
X122369987Y-49042252D01*
X122414828Y-48975143D01*
X122466030Y-48912753D01*
X122504077Y-48841572D01*
X122548918Y-48774463D01*
X122579804Y-48699897D01*
X122617852Y-48628715D01*
X122641281Y-48551481D01*
X122672168Y-48476912D01*
X122687915Y-48397746D01*
X122688783Y-48394882D01*
X136112000Y-48394882D01*
X136112000Y-48745118D01*
X136180328Y-49088623D01*
X136314357Y-49412199D01*
X136508937Y-49703409D01*
X136756591Y-49951063D01*
X137047801Y-50145643D01*
X137371377Y-50279672D01*
X137714882Y-50348000D01*
X138065118Y-50348000D01*
X138408623Y-50279672D01*
X138732199Y-50145643D01*
X139023409Y-49951063D01*
X139271063Y-49703409D01*
X139465643Y-49412199D01*
X139599672Y-49088623D01*
X139668000Y-48745118D01*
X139668000Y-48394882D01*
X139599672Y-48051377D01*
X139465643Y-47727801D01*
X139271063Y-47436591D01*
X139023409Y-47188937D01*
X138732199Y-46994357D01*
X138408623Y-46860328D01*
X138065118Y-46792000D01*
X137714882Y-46792000D01*
X137371377Y-46860328D01*
X137047801Y-46994357D01*
X136756591Y-47188937D01*
X136508937Y-47436591D01*
X136314357Y-47727801D01*
X136180328Y-48051377D01*
X136112000Y-48394882D01*
X122688783Y-48394882D01*
X122711342Y-48320517D01*
X122719253Y-48240200D01*
X122735000Y-48161033D01*
X122735000Y-48080320D01*
X122742911Y-48000001D01*
X122735000Y-47919681D01*
X122735000Y-47838967D01*
X122719253Y-47759799D01*
X122711342Y-47679484D01*
X122687916Y-47602257D01*
X122672168Y-47523088D01*
X122641279Y-47448517D01*
X122617852Y-47371286D01*
X122579806Y-47300108D01*
X122548918Y-47225537D01*
X122504074Y-47158424D01*
X122466030Y-47087248D01*
X122414831Y-47024862D01*
X122369987Y-46957748D01*
X122312911Y-46900672D01*
X122261713Y-46838287D01*
X122199328Y-46787089D01*
X122142252Y-46730013D01*
X122075138Y-46685169D01*
X122012752Y-46633970D01*
X121941576Y-46595926D01*
X121874463Y-46551082D01*
X121799892Y-46520194D01*
X121728714Y-46482148D01*
X121651483Y-46458721D01*
X121576912Y-46427832D01*
X121497743Y-46412084D01*
X121420516Y-46388658D01*
X121340201Y-46380747D01*
X121261033Y-46365000D01*
X121180319Y-46365000D01*
X121099999Y-46357089D01*
X121019680Y-46365000D01*
X120938967Y-46365000D01*
X120859800Y-46380747D01*
X120779483Y-46388658D01*
X120702254Y-46412085D01*
X120623088Y-46427832D01*
X120548519Y-46458719D01*
X120471285Y-46482148D01*
X120400103Y-46520196D01*
X120325537Y-46551082D01*
X120258428Y-46595923D01*
X120187247Y-46633970D01*
X120124857Y-46685172D01*
X120057748Y-46730013D01*
X120000676Y-46787085D01*
X112897762Y-53890000D01*
X87002240Y-53890000D01*
X84561920Y-51449680D01*
X93297089Y-51449680D01*
X93328658Y-51770196D01*
X93422148Y-52078394D01*
X93450008Y-52130516D01*
X93573970Y-52362432D01*
X93778287Y-52611394D01*
X93840682Y-52662600D01*
X94087395Y-52909313D01*
X94138606Y-52971714D01*
X94387568Y-53176031D01*
X94671605Y-53327852D01*
X94979804Y-53421343D01*
X95219998Y-53445000D01*
X95220000Y-53445000D01*
X95300319Y-53452911D01*
X95380639Y-53445000D01*
X105709681Y-53445000D01*
X105790000Y-53452911D01*
X105870319Y-53445000D01*
X105870322Y-53445000D01*
X106110516Y-53421343D01*
X106418715Y-53327852D01*
X106702752Y-53176031D01*
X106951714Y-52971714D01*
X107002925Y-52909313D01*
X110341378Y-49570862D01*
X110421831Y-49537537D01*
X110705998Y-49347663D01*
X110947663Y-49105998D01*
X111137537Y-48821831D01*
X111268325Y-48506081D01*
X111335000Y-48170883D01*
X111335000Y-47829117D01*
X111268325Y-47493919D01*
X111137537Y-47178169D01*
X110947663Y-46894002D01*
X110705998Y-46652337D01*
X110421831Y-46462463D01*
X110106081Y-46331675D01*
X109770883Y-46265000D01*
X109429117Y-46265000D01*
X109093919Y-46331675D01*
X108778169Y-46462463D01*
X108494002Y-46652337D01*
X108252337Y-46894002D01*
X108062463Y-47178169D01*
X108029138Y-47258622D01*
X105112762Y-50175000D01*
X96575000Y-50175000D01*
X96575000Y-48119678D01*
X96551343Y-47879484D01*
X96457852Y-47571285D01*
X96306031Y-47287248D01*
X96236878Y-47202985D01*
X96226293Y-47168090D01*
X96097634Y-46927384D01*
X95924486Y-46716404D01*
X95713506Y-46543256D01*
X95472800Y-46414597D01*
X95211619Y-46335368D01*
X94940000Y-46308616D01*
X94668382Y-46335368D01*
X94407201Y-46414597D01*
X94166495Y-46543256D01*
X93955515Y-46716404D01*
X93782366Y-46927384D01*
X93653707Y-47168090D01*
X93643121Y-47202986D01*
X93573969Y-47287249D01*
X93422148Y-47571286D01*
X93328657Y-47879485D01*
X93305000Y-48119679D01*
X93305001Y-51369351D01*
X93297089Y-51449680D01*
X84561920Y-51449680D01*
X81512925Y-48400687D01*
X81461714Y-48338286D01*
X81212752Y-48133969D01*
X80928715Y-47982148D01*
X80620516Y-47888657D01*
X80380322Y-47865000D01*
X80380319Y-47865000D01*
X80300000Y-47857089D01*
X80219681Y-47865000D01*
X68025242Y-47865000D01*
X67984818Y-47661774D01*
X67509760Y-46514883D01*
X66820083Y-45482709D01*
X65942291Y-44604917D01*
X64910117Y-43915240D01*
X63763226Y-43440182D01*
X62844615Y-43257459D01*
X63838226Y-43059818D01*
X64985117Y-42584760D01*
X66017291Y-41895083D01*
X66052374Y-41860000D01*
X78422762Y-41860000D01*
X85862080Y-49299319D01*
X85913286Y-49361714D01*
X86162248Y-49566031D01*
X86446285Y-49717852D01*
X86754484Y-49811343D01*
X86994678Y-49835000D01*
X86994680Y-49835000D01*
X87074999Y-49842911D01*
X87155319Y-49835000D01*
X89059999Y-49835000D01*
X89086494Y-49856744D01*
X89327200Y-49985403D01*
X89588381Y-50064632D01*
X89860000Y-50091384D01*
X90131618Y-50064632D01*
X90392799Y-49985403D01*
X90633505Y-49856744D01*
X90844485Y-49683596D01*
X91017634Y-49472616D01*
X91146293Y-49231910D01*
X91156878Y-49197015D01*
X91226031Y-49112752D01*
X91377852Y-48828715D01*
X91471343Y-48520516D01*
X91502911Y-48200000D01*
X91471343Y-47879484D01*
X91377852Y-47571285D01*
X91226031Y-47287248D01*
X91156878Y-47202985D01*
X91146293Y-47168090D01*
X91017634Y-46927384D01*
X90844486Y-46716404D01*
X90633506Y-46543256D01*
X90392800Y-46414597D01*
X90131619Y-46335368D01*
X89860000Y-46308616D01*
X89588382Y-46335368D01*
X89327201Y-46414597D01*
X89086495Y-46543256D01*
X89060000Y-46565000D01*
X87752239Y-46565000D01*
X83736256Y-42549017D01*
X89365510Y-42549017D01*
X89365510Y-42870983D01*
X89428322Y-43186763D01*
X89551533Y-43484222D01*
X89730408Y-43751927D01*
X89958073Y-43979592D01*
X90225778Y-44158467D01*
X90523237Y-44281678D01*
X90839017Y-44344490D01*
X91160983Y-44344490D01*
X91476763Y-44281678D01*
X91774222Y-44158467D01*
X92041927Y-43979592D01*
X92269592Y-43751927D01*
X92448467Y-43484222D01*
X92571678Y-43186763D01*
X92634490Y-42870983D01*
X92634490Y-42549017D01*
X92571678Y-42233237D01*
X92448467Y-41935778D01*
X92269592Y-41668073D01*
X92041927Y-41440408D01*
X91774222Y-41261533D01*
X91476763Y-41138322D01*
X91160983Y-41075510D01*
X90839017Y-41075510D01*
X90523237Y-41138322D01*
X90225778Y-41261533D01*
X89958073Y-41440408D01*
X89730408Y-41668073D01*
X89551533Y-41935778D01*
X89428322Y-42233237D01*
X89365510Y-42549017D01*
X83736256Y-42549017D01*
X80312925Y-39125687D01*
X80261714Y-39063286D01*
X80012752Y-38858969D01*
X79728715Y-38707148D01*
X79420516Y-38613657D01*
X79180322Y-38590000D01*
X79180319Y-38590000D01*
X79100000Y-38582089D01*
X79019681Y-38590000D01*
X68109193Y-38590000D01*
X68302000Y-37620693D01*
X68302000Y-36379307D01*
X68059818Y-35161774D01*
X67584760Y-34014883D01*
X66895083Y-32982709D01*
X66668473Y-32756099D01*
X69441700Y-32756099D01*
X69441700Y-33203901D01*
X69529061Y-33643097D01*
X69700427Y-34056812D01*
X69949212Y-34429145D01*
X70265855Y-34745788D01*
X70638188Y-34994573D01*
X71051903Y-35165939D01*
X71491099Y-35253300D01*
X71938901Y-35253300D01*
X72378097Y-35165939D01*
X72791812Y-34994573D01*
X73164145Y-34745788D01*
X73361117Y-34548816D01*
X82165000Y-34548816D01*
X82165000Y-34851184D01*
X82223989Y-35147743D01*
X82339701Y-35427095D01*
X82507688Y-35678505D01*
X82721495Y-35892312D01*
X82972905Y-36060299D01*
X83252257Y-36176011D01*
X83548816Y-36235000D01*
X83851184Y-36235000D01*
X84147743Y-36176011D01*
X84427095Y-36060299D01*
X84678505Y-35892312D01*
X84892312Y-35678505D01*
X85060299Y-35427095D01*
X85176011Y-35147743D01*
X85200000Y-35027142D01*
X85223989Y-35147743D01*
X85339701Y-35427095D01*
X85507688Y-35678505D01*
X85721495Y-35892312D01*
X85972905Y-36060299D01*
X86252257Y-36176011D01*
X86548816Y-36235000D01*
X86851184Y-36235000D01*
X87147743Y-36176011D01*
X87427095Y-36060299D01*
X87678505Y-35892312D01*
X87892312Y-35678505D01*
X88060299Y-35427095D01*
X88176011Y-35147743D01*
X88200000Y-35027142D01*
X88223989Y-35147743D01*
X88339701Y-35427095D01*
X88507688Y-35678505D01*
X88721495Y-35892312D01*
X88972905Y-36060299D01*
X89252257Y-36176011D01*
X89548816Y-36235000D01*
X89851184Y-36235000D01*
X90147743Y-36176011D01*
X90427095Y-36060299D01*
X90678505Y-35892312D01*
X90892312Y-35678505D01*
X91060299Y-35427095D01*
X91176011Y-35147743D01*
X91200000Y-35027142D01*
X91223989Y-35147743D01*
X91339701Y-35427095D01*
X91507688Y-35678505D01*
X91721495Y-35892312D01*
X91940001Y-36038313D01*
X91940001Y-36752668D01*
X91936324Y-36790000D01*
X91950998Y-36938985D01*
X91994454Y-37082246D01*
X92065026Y-37214276D01*
X92136201Y-37301002D01*
X92160000Y-37330001D01*
X92188998Y-37353799D01*
X97054213Y-42219015D01*
X97048322Y-42233237D01*
X96985510Y-42549017D01*
X96985510Y-42870983D01*
X97048322Y-43186763D01*
X97171533Y-43484222D01*
X97350408Y-43751927D01*
X97578073Y-43979592D01*
X97845778Y-44158467D01*
X98143237Y-44281678D01*
X98459017Y-44344490D01*
X98780983Y-44344490D01*
X99096763Y-44281678D01*
X99394222Y-44158467D01*
X99661927Y-43979592D01*
X99889592Y-43751927D01*
X100068467Y-43484222D01*
X100191678Y-43186763D01*
X100254490Y-42870983D01*
X100254490Y-42549017D01*
X100191678Y-42233237D01*
X100068467Y-41935778D01*
X99889592Y-41668073D01*
X99661927Y-41440408D01*
X99394222Y-41261533D01*
X99096763Y-41138322D01*
X98780983Y-41075510D01*
X98459017Y-41075510D01*
X98143237Y-41138322D01*
X98129015Y-41144213D01*
X98053819Y-41069017D01*
X107805510Y-41069017D01*
X107805510Y-41390983D01*
X107868322Y-41706763D01*
X107991533Y-42004222D01*
X108170408Y-42271927D01*
X108398073Y-42499592D01*
X108665778Y-42678467D01*
X108963237Y-42801678D01*
X109279017Y-42864490D01*
X109600983Y-42864490D01*
X109916763Y-42801678D01*
X110214222Y-42678467D01*
X110481927Y-42499592D01*
X110709592Y-42271927D01*
X110888467Y-42004222D01*
X111011678Y-41706763D01*
X111074490Y-41390983D01*
X111074490Y-41069017D01*
X115425510Y-41069017D01*
X115425510Y-41390983D01*
X115488322Y-41706763D01*
X115611533Y-42004222D01*
X115790408Y-42271927D01*
X116018073Y-42499592D01*
X116285778Y-42678467D01*
X116583237Y-42801678D01*
X116899017Y-42864490D01*
X117220983Y-42864490D01*
X117536763Y-42801678D01*
X117834222Y-42678467D01*
X118101927Y-42499592D01*
X118329592Y-42271927D01*
X118508467Y-42004222D01*
X118631678Y-41706763D01*
X118694490Y-41390983D01*
X118694490Y-41069017D01*
X118631678Y-40753237D01*
X118508467Y-40455778D01*
X118329592Y-40188073D01*
X118101927Y-39960408D01*
X117834222Y-39781533D01*
X117536763Y-39658322D01*
X117220983Y-39595510D01*
X116899017Y-39595510D01*
X116583237Y-39658322D01*
X116285778Y-39781533D01*
X116018073Y-39960408D01*
X115790408Y-40188073D01*
X115611533Y-40455778D01*
X115488322Y-40753237D01*
X115425510Y-41069017D01*
X111074490Y-41069017D01*
X111011678Y-40753237D01*
X110888467Y-40455778D01*
X110709592Y-40188073D01*
X110481927Y-39960408D01*
X110214222Y-39781533D01*
X109916763Y-39658322D01*
X109600983Y-39595510D01*
X109279017Y-39595510D01*
X108963237Y-39658322D01*
X108665778Y-39781533D01*
X108398073Y-39960408D01*
X108170408Y-40188073D01*
X107991533Y-40455778D01*
X107868322Y-40753237D01*
X107805510Y-41069017D01*
X98053819Y-41069017D01*
X96123819Y-39139017D01*
X123565510Y-39139017D01*
X123565510Y-39460983D01*
X123628322Y-39776763D01*
X123751533Y-40074222D01*
X123930408Y-40341927D01*
X124158073Y-40569592D01*
X124425778Y-40748467D01*
X124723237Y-40871678D01*
X125039017Y-40934490D01*
X125360983Y-40934490D01*
X125676763Y-40871678D01*
X125974222Y-40748467D01*
X126241927Y-40569592D01*
X126469592Y-40341927D01*
X126648467Y-40074222D01*
X126771678Y-39776763D01*
X126834490Y-39460983D01*
X126834490Y-39139017D01*
X126771678Y-38823237D01*
X126648467Y-38525778D01*
X126499494Y-38302824D01*
X129514430Y-38302824D01*
X129514430Y-39437177D01*
X129534478Y-39640729D01*
X129613707Y-39901910D01*
X129742366Y-40142616D01*
X129915515Y-40353596D01*
X130126495Y-40526744D01*
X130367201Y-40655403D01*
X130628382Y-40734632D01*
X130900000Y-40761384D01*
X131171619Y-40734632D01*
X131432800Y-40655403D01*
X131673506Y-40526744D01*
X131884486Y-40353596D01*
X132057634Y-40142616D01*
X132170000Y-39932392D01*
X132282366Y-40142616D01*
X132455515Y-40353596D01*
X132666495Y-40526744D01*
X132907201Y-40655403D01*
X133168382Y-40734632D01*
X133440000Y-40761384D01*
X133711619Y-40734632D01*
X133972800Y-40655403D01*
X134213506Y-40526744D01*
X134424486Y-40353596D01*
X134597634Y-40142616D01*
X134710000Y-39932392D01*
X134822366Y-40142616D01*
X134995515Y-40353596D01*
X135206495Y-40526744D01*
X135447201Y-40655403D01*
X135708382Y-40734632D01*
X135980000Y-40761384D01*
X136251619Y-40734632D01*
X136512800Y-40655403D01*
X136753506Y-40526744D01*
X136964486Y-40353596D01*
X137137634Y-40142616D01*
X137193840Y-40037460D01*
X142068616Y-40037460D01*
X142095368Y-40309079D01*
X142174597Y-40570260D01*
X142303256Y-40810966D01*
X142476404Y-41021946D01*
X142687384Y-41195094D01*
X142928090Y-41323753D01*
X143189271Y-41402982D01*
X143392823Y-41423030D01*
X144527177Y-41423030D01*
X144730729Y-41402982D01*
X144991910Y-41323753D01*
X145232616Y-41195094D01*
X145443596Y-41021946D01*
X145616744Y-40810966D01*
X145745403Y-40570260D01*
X145824632Y-40309079D01*
X145851384Y-40037460D01*
X145824632Y-39765841D01*
X145745403Y-39504660D01*
X145616744Y-39263954D01*
X145443596Y-39052974D01*
X145232616Y-38879826D01*
X144991910Y-38751167D01*
X144730729Y-38671938D01*
X144527177Y-38651890D01*
X143392823Y-38651890D01*
X143189271Y-38671938D01*
X142928090Y-38751167D01*
X142687384Y-38879826D01*
X142476404Y-39052974D01*
X142303256Y-39263954D01*
X142174597Y-39504660D01*
X142095368Y-39765841D01*
X142068616Y-40037460D01*
X137193840Y-40037460D01*
X137266293Y-39901910D01*
X137345522Y-39640729D01*
X137365570Y-39437177D01*
X137365570Y-38302823D01*
X137345522Y-38099271D01*
X137266293Y-37838090D01*
X137137634Y-37597384D01*
X136964485Y-37386404D01*
X136753505Y-37213256D01*
X136512799Y-37084597D01*
X136251618Y-37005368D01*
X135980000Y-36978616D01*
X135708381Y-37005368D01*
X135447200Y-37084597D01*
X135206494Y-37213256D01*
X134995514Y-37386405D01*
X134822366Y-37597385D01*
X134710000Y-37807608D01*
X134597634Y-37597384D01*
X134424485Y-37386404D01*
X134213505Y-37213256D01*
X133972799Y-37084597D01*
X133711618Y-37005368D01*
X133440000Y-36978616D01*
X133168381Y-37005368D01*
X132907200Y-37084597D01*
X132666494Y-37213256D01*
X132455514Y-37386405D01*
X132282366Y-37597385D01*
X132170000Y-37807608D01*
X132057634Y-37597384D01*
X131884485Y-37386404D01*
X131673505Y-37213256D01*
X131432799Y-37084597D01*
X131171618Y-37005368D01*
X130900000Y-36978616D01*
X130628381Y-37005368D01*
X130367200Y-37084597D01*
X130126494Y-37213256D01*
X129915514Y-37386405D01*
X129742366Y-37597385D01*
X129613707Y-37838091D01*
X129534478Y-38099272D01*
X129514430Y-38302824D01*
X126499494Y-38302824D01*
X126469592Y-38258073D01*
X126241927Y-38030408D01*
X125974222Y-37851533D01*
X125676763Y-37728322D01*
X125360983Y-37665510D01*
X125039017Y-37665510D01*
X124723237Y-37728322D01*
X124425778Y-37851533D01*
X124158073Y-38030408D01*
X123930408Y-38258073D01*
X123751533Y-38525778D01*
X123628322Y-38823237D01*
X123565510Y-39139017D01*
X96123819Y-39139017D01*
X93460000Y-36475199D01*
X93460000Y-36038313D01*
X93678505Y-35892312D01*
X93892312Y-35678505D01*
X94060299Y-35427095D01*
X94176011Y-35147743D01*
X94200000Y-35027142D01*
X94223989Y-35147743D01*
X94339701Y-35427095D01*
X94507688Y-35678505D01*
X94721495Y-35892312D01*
X94972905Y-36060299D01*
X95252257Y-36176011D01*
X95548816Y-36235000D01*
X95851184Y-36235000D01*
X96147743Y-36176011D01*
X96427095Y-36060299D01*
X96678505Y-35892312D01*
X96892312Y-35678505D01*
X97060299Y-35427095D01*
X97176011Y-35147743D01*
X97200000Y-35027142D01*
X97223989Y-35147743D01*
X97339701Y-35427095D01*
X97507688Y-35678505D01*
X97721495Y-35892312D01*
X97972905Y-36060299D01*
X98252257Y-36176011D01*
X98548816Y-36235000D01*
X98851184Y-36235000D01*
X99147743Y-36176011D01*
X99427095Y-36060299D01*
X99678505Y-35892312D01*
X99892312Y-35678505D01*
X100060299Y-35427095D01*
X100176011Y-35147743D01*
X100235000Y-34851184D01*
X100235000Y-34548816D01*
X100176011Y-34252257D01*
X100060299Y-33972905D01*
X99892312Y-33721495D01*
X99678505Y-33507688D01*
X99427095Y-33339701D01*
X99147743Y-33223989D01*
X98851184Y-33165000D01*
X98548816Y-33165000D01*
X98252257Y-33223989D01*
X97972905Y-33339701D01*
X97721495Y-33507688D01*
X97507688Y-33721495D01*
X97339701Y-33972905D01*
X97223989Y-34252257D01*
X97200000Y-34372858D01*
X97176011Y-34252257D01*
X97060299Y-33972905D01*
X96892312Y-33721495D01*
X96678505Y-33507688D01*
X96427095Y-33339701D01*
X96147743Y-33223989D01*
X95851184Y-33165000D01*
X95548816Y-33165000D01*
X95252257Y-33223989D01*
X94972905Y-33339701D01*
X94721495Y-33507688D01*
X94507688Y-33721495D01*
X94339701Y-33972905D01*
X94223989Y-34252257D01*
X94200000Y-34372858D01*
X94176011Y-34252257D01*
X94060299Y-33972905D01*
X93892312Y-33721495D01*
X93678505Y-33507688D01*
X93427095Y-33339701D01*
X93147743Y-33223989D01*
X92851184Y-33165000D01*
X92548816Y-33165000D01*
X92252257Y-33223989D01*
X91972905Y-33339701D01*
X91721495Y-33507688D01*
X91507688Y-33721495D01*
X91339701Y-33972905D01*
X91223989Y-34252257D01*
X91200000Y-34372858D01*
X91176011Y-34252257D01*
X91060299Y-33972905D01*
X90892312Y-33721495D01*
X90678505Y-33507688D01*
X90427095Y-33339701D01*
X90147743Y-33223989D01*
X89851184Y-33165000D01*
X89548816Y-33165000D01*
X89252257Y-33223989D01*
X88972905Y-33339701D01*
X88721495Y-33507688D01*
X88507688Y-33721495D01*
X88339701Y-33972905D01*
X88223989Y-34252257D01*
X88200000Y-34372858D01*
X88176011Y-34252257D01*
X88060299Y-33972905D01*
X87892312Y-33721495D01*
X87678505Y-33507688D01*
X87427095Y-33339701D01*
X87147743Y-33223989D01*
X86851184Y-33165000D01*
X86548816Y-33165000D01*
X86252257Y-33223989D01*
X85972905Y-33339701D01*
X85721495Y-33507688D01*
X85507688Y-33721495D01*
X85339701Y-33972905D01*
X85223989Y-34252257D01*
X85200000Y-34372858D01*
X85176011Y-34252257D01*
X85060299Y-33972905D01*
X84892312Y-33721495D01*
X84678505Y-33507688D01*
X84427095Y-33339701D01*
X84147743Y-33223989D01*
X83851184Y-33165000D01*
X83548816Y-33165000D01*
X83252257Y-33223989D01*
X82972905Y-33339701D01*
X82721495Y-33507688D01*
X82507688Y-33721495D01*
X82339701Y-33972905D01*
X82223989Y-34252257D01*
X82165000Y-34548816D01*
X73361117Y-34548816D01*
X73480788Y-34429145D01*
X73729573Y-34056812D01*
X73900939Y-33643097D01*
X73988300Y-33203901D01*
X73988300Y-32756099D01*
X73955026Y-32588816D01*
X79165000Y-32588816D01*
X79165000Y-32891184D01*
X79223989Y-33187743D01*
X79339701Y-33467095D01*
X79507688Y-33718505D01*
X79721495Y-33932312D01*
X79972905Y-34100299D01*
X80252257Y-34216011D01*
X80548816Y-34275000D01*
X80851184Y-34275000D01*
X81147743Y-34216011D01*
X81427095Y-34100299D01*
X81678505Y-33932312D01*
X81892312Y-33718505D01*
X82060299Y-33467095D01*
X82176011Y-33187743D01*
X82235000Y-32891184D01*
X82235000Y-32588816D01*
X82176011Y-32292257D01*
X82060299Y-32012905D01*
X81892312Y-31761495D01*
X81678505Y-31547688D01*
X81427095Y-31379701D01*
X81147743Y-31263989D01*
X80851184Y-31205000D01*
X80548816Y-31205000D01*
X80252257Y-31263989D01*
X79972905Y-31379701D01*
X79721495Y-31547688D01*
X79507688Y-31761495D01*
X79339701Y-32012905D01*
X79223989Y-32292257D01*
X79165000Y-32588816D01*
X73955026Y-32588816D01*
X73900939Y-32316903D01*
X73729573Y-31903188D01*
X73480788Y-31530855D01*
X73164145Y-31214212D01*
X72791812Y-30965427D01*
X72378097Y-30794061D01*
X71938901Y-30706700D01*
X71491099Y-30706700D01*
X71051903Y-30794061D01*
X70638188Y-30965427D01*
X70265855Y-31214212D01*
X69949212Y-31530855D01*
X69700427Y-31903188D01*
X69529061Y-32316903D01*
X69441700Y-32756099D01*
X66668473Y-32756099D01*
X66017291Y-32104917D01*
X64985117Y-31415240D01*
X63838226Y-30940182D01*
X62620693Y-30698000D01*
X61379307Y-30698000D01*
X60161774Y-30940182D01*
X59014883Y-31415240D01*
X57982709Y-32104917D01*
X57104917Y-32982709D01*
X56415240Y-34014883D01*
X55940182Y-35161774D01*
X55698000Y-36379307D01*
X55698000Y-37620693D01*
X55940182Y-38838226D01*
X56415240Y-39985117D01*
X57104917Y-41017291D01*
X57982709Y-41895083D01*
X59014883Y-42584760D01*
X60161774Y-43059818D01*
X61080385Y-43242541D01*
X60086774Y-43440182D01*
X58939883Y-43915240D01*
X57907709Y-44604917D01*
X57029917Y-45482709D01*
X56340240Y-46514883D01*
X55865182Y-47661774D01*
X55623000Y-48879307D01*
X52700000Y-48879307D01*
X52700000Y-37224801D01*
X59844802Y-30080000D01*
X109605199Y-30080000D01*
X109940000Y-30414802D01*
X109940001Y-33361687D01*
X109721495Y-33507688D01*
X109507688Y-33721495D01*
X109339701Y-33972905D01*
X109223989Y-34252257D01*
X109200000Y-34372858D01*
X109176011Y-34252257D01*
X109060299Y-33972905D01*
X108892312Y-33721495D01*
X108678505Y-33507688D01*
X108427095Y-33339701D01*
X108147743Y-33223989D01*
X107851184Y-33165000D01*
X107548816Y-33165000D01*
X107252257Y-33223989D01*
X106972905Y-33339701D01*
X106721495Y-33507688D01*
X106507688Y-33721495D01*
X106339701Y-33972905D01*
X106223989Y-34252257D01*
X106200000Y-34372858D01*
X106176011Y-34252257D01*
X106060299Y-33972905D01*
X105892312Y-33721495D01*
X105678505Y-33507688D01*
X105427095Y-33339701D01*
X105147743Y-33223989D01*
X104851184Y-33165000D01*
X104548816Y-33165000D01*
X104252257Y-33223989D01*
X103972905Y-33339701D01*
X103721495Y-33507688D01*
X103507688Y-33721495D01*
X103339701Y-33972905D01*
X103223989Y-34252257D01*
X103165000Y-34548816D01*
X103165000Y-34851184D01*
X103223989Y-35147743D01*
X103339701Y-35427095D01*
X103507688Y-35678505D01*
X103721495Y-35892312D01*
X103972905Y-36060299D01*
X104252257Y-36176011D01*
X104548816Y-36235000D01*
X104851184Y-36235000D01*
X105147743Y-36176011D01*
X105427095Y-36060299D01*
X105678505Y-35892312D01*
X105892312Y-35678505D01*
X106060299Y-35427095D01*
X106176011Y-35147743D01*
X106200000Y-35027142D01*
X106223989Y-35147743D01*
X106339701Y-35427095D01*
X106507688Y-35678505D01*
X106721495Y-35892312D01*
X106972905Y-36060299D01*
X107252257Y-36176011D01*
X107548816Y-36235000D01*
X107851184Y-36235000D01*
X108147743Y-36176011D01*
X108427095Y-36060299D01*
X108678505Y-35892312D01*
X108892312Y-35678505D01*
X109060299Y-35427095D01*
X109176011Y-35147743D01*
X109200000Y-35027142D01*
X109223989Y-35147743D01*
X109339701Y-35427095D01*
X109507688Y-35678505D01*
X109721495Y-35892312D01*
X109972905Y-36060299D01*
X110252257Y-36176011D01*
X110548816Y-36235000D01*
X110851184Y-36235000D01*
X111147743Y-36176011D01*
X111427095Y-36060299D01*
X111678505Y-35892312D01*
X111892312Y-35678505D01*
X112060299Y-35427095D01*
X112176011Y-35147743D01*
X112200000Y-35027142D01*
X112223989Y-35147743D01*
X112339701Y-35427095D01*
X112507688Y-35678505D01*
X112721495Y-35892312D01*
X112972905Y-36060299D01*
X113252257Y-36176011D01*
X113548816Y-36235000D01*
X113851184Y-36235000D01*
X114147743Y-36176011D01*
X114427095Y-36060299D01*
X114678505Y-35892312D01*
X114892312Y-35678505D01*
X115060299Y-35427095D01*
X115176011Y-35147743D01*
X115200000Y-35027142D01*
X115223989Y-35147743D01*
X115339701Y-35427095D01*
X115507688Y-35678505D01*
X115721495Y-35892312D01*
X115972905Y-36060299D01*
X116252257Y-36176011D01*
X116548816Y-36235000D01*
X116851184Y-36235000D01*
X117147743Y-36176011D01*
X117427095Y-36060299D01*
X117678505Y-35892312D01*
X117892312Y-35678505D01*
X118060299Y-35427095D01*
X118176011Y-35147743D01*
X118213860Y-34957460D01*
X142068616Y-34957460D01*
X142095368Y-35229079D01*
X142174597Y-35490260D01*
X142303256Y-35730966D01*
X142476404Y-35941946D01*
X142687384Y-36115094D01*
X142928090Y-36243753D01*
X143189271Y-36322982D01*
X143392823Y-36343030D01*
X144527177Y-36343030D01*
X144730729Y-36322982D01*
X144991910Y-36243753D01*
X145232616Y-36115094D01*
X145443596Y-35941946D01*
X145616744Y-35730966D01*
X145698109Y-35578740D01*
X163315000Y-35578740D01*
X163315000Y-35871260D01*
X163372068Y-36158158D01*
X163484010Y-36428411D01*
X163646525Y-36671632D01*
X163853368Y-36878475D01*
X164096589Y-37040990D01*
X164366842Y-37152932D01*
X164653740Y-37210000D01*
X164946260Y-37210000D01*
X165233158Y-37152932D01*
X165503411Y-37040990D01*
X165746632Y-36878475D01*
X165953475Y-36671632D01*
X166115990Y-36428411D01*
X166227932Y-36158158D01*
X166285000Y-35871260D01*
X166285000Y-35578740D01*
X166227932Y-35291842D01*
X166115990Y-35021589D01*
X165953475Y-34778368D01*
X165746632Y-34571525D01*
X165503411Y-34409010D01*
X165233158Y-34297068D01*
X164946260Y-34240000D01*
X164653740Y-34240000D01*
X164366842Y-34297068D01*
X164096589Y-34409010D01*
X163853368Y-34571525D01*
X163646525Y-34778368D01*
X163484010Y-35021589D01*
X163372068Y-35291842D01*
X163315000Y-35578740D01*
X145698109Y-35578740D01*
X145745403Y-35490260D01*
X145824632Y-35229079D01*
X145851384Y-34957460D01*
X145824632Y-34685841D01*
X145745403Y-34424660D01*
X145616744Y-34183954D01*
X145443596Y-33972974D01*
X145232616Y-33799826D01*
X144991910Y-33671167D01*
X144730729Y-33591938D01*
X144527177Y-33571890D01*
X143392823Y-33571890D01*
X143189271Y-33591938D01*
X142928090Y-33671167D01*
X142687384Y-33799826D01*
X142476404Y-33972974D01*
X142303256Y-34183954D01*
X142174597Y-34424660D01*
X142095368Y-34685841D01*
X142068616Y-34957460D01*
X118213860Y-34957460D01*
X118235000Y-34851184D01*
X118235000Y-34548816D01*
X118176011Y-34252257D01*
X118060299Y-33972905D01*
X117892312Y-33721495D01*
X117678505Y-33507688D01*
X117427095Y-33339701D01*
X117147743Y-33223989D01*
X116851184Y-33165000D01*
X116548816Y-33165000D01*
X116252257Y-33223989D01*
X115972905Y-33339701D01*
X115721495Y-33507688D01*
X115507688Y-33721495D01*
X115339701Y-33972905D01*
X115223989Y-34252257D01*
X115200000Y-34372858D01*
X115176011Y-34252257D01*
X115060299Y-33972905D01*
X114892312Y-33721495D01*
X114678505Y-33507688D01*
X114427095Y-33339701D01*
X114147743Y-33223989D01*
X113851184Y-33165000D01*
X113548816Y-33165000D01*
X113252257Y-33223989D01*
X112972905Y-33339701D01*
X112721495Y-33507688D01*
X112507688Y-33721495D01*
X112339701Y-33972905D01*
X112223989Y-34252257D01*
X112200000Y-34372858D01*
X112176011Y-34252257D01*
X112060299Y-33972905D01*
X111892312Y-33721495D01*
X111678505Y-33507688D01*
X111460000Y-33361687D01*
X111460000Y-32588816D01*
X118165000Y-32588816D01*
X118165000Y-32891184D01*
X118223989Y-33187743D01*
X118339701Y-33467095D01*
X118507688Y-33718505D01*
X118721495Y-33932312D01*
X118972905Y-34100299D01*
X119252257Y-34216011D01*
X119548816Y-34275000D01*
X119851184Y-34275000D01*
X120147743Y-34216011D01*
X120427095Y-34100299D01*
X120678505Y-33932312D01*
X120892312Y-33718505D01*
X121060299Y-33467095D01*
X121176011Y-33187743D01*
X121235000Y-32891184D01*
X121235000Y-32588816D01*
X121176011Y-32292257D01*
X121060299Y-32012905D01*
X120892312Y-31761495D01*
X120678505Y-31547688D01*
X120635596Y-31519017D01*
X123565510Y-31519017D01*
X123565510Y-31840983D01*
X123628322Y-32156763D01*
X123751533Y-32454222D01*
X123930408Y-32721927D01*
X124158073Y-32949592D01*
X124425778Y-33128467D01*
X124723237Y-33251678D01*
X125039017Y-33314490D01*
X125360983Y-33314490D01*
X125676763Y-33251678D01*
X125974222Y-33128467D01*
X126241927Y-32949592D01*
X126435420Y-32756099D01*
X171051700Y-32756099D01*
X171051700Y-33203901D01*
X171139061Y-33643097D01*
X171310427Y-34056812D01*
X171559212Y-34429145D01*
X171875855Y-34745788D01*
X172248188Y-34994573D01*
X172661903Y-35165939D01*
X173101099Y-35253300D01*
X173548901Y-35253300D01*
X173988097Y-35165939D01*
X174401812Y-34994573D01*
X174774145Y-34745788D01*
X175090788Y-34429145D01*
X175339573Y-34056812D01*
X175510939Y-33643097D01*
X175598300Y-33203901D01*
X175598300Y-32756099D01*
X175510939Y-32316903D01*
X175339573Y-31903188D01*
X175090788Y-31530855D01*
X174774145Y-31214212D01*
X174401812Y-30965427D01*
X173988097Y-30794061D01*
X173548901Y-30706700D01*
X173101099Y-30706700D01*
X172661903Y-30794061D01*
X172248188Y-30965427D01*
X171875855Y-31214212D01*
X171559212Y-31530855D01*
X171310427Y-31903188D01*
X171139061Y-32316903D01*
X171051700Y-32756099D01*
X126435420Y-32756099D01*
X126469592Y-32721927D01*
X126648467Y-32454222D01*
X126771678Y-32156763D01*
X126834490Y-31840983D01*
X126834490Y-31519017D01*
X126771678Y-31203237D01*
X126648467Y-30905778D01*
X126469592Y-30638073D01*
X126241927Y-30410408D01*
X125974222Y-30231533D01*
X125676763Y-30108322D01*
X125360983Y-30045510D01*
X125039017Y-30045510D01*
X124723237Y-30108322D01*
X124425778Y-30231533D01*
X124158073Y-30410408D01*
X123930408Y-30638073D01*
X123751533Y-30905778D01*
X123628322Y-31203237D01*
X123565510Y-31519017D01*
X120635596Y-31519017D01*
X120427095Y-31379701D01*
X120147743Y-31263989D01*
X119851184Y-31205000D01*
X119548816Y-31205000D01*
X119252257Y-31263989D01*
X118972905Y-31379701D01*
X118721495Y-31547688D01*
X118507688Y-31761495D01*
X118339701Y-32012905D01*
X118223989Y-32292257D01*
X118165000Y-32588816D01*
X111460000Y-32588816D01*
X111460000Y-30137333D01*
X111463677Y-30100000D01*
X111449003Y-29951014D01*
X111405546Y-29807753D01*
X111334974Y-29675724D01*
X111263799Y-29588997D01*
X111240001Y-29559999D01*
X111211004Y-29536202D01*
X110483803Y-28809002D01*
X110460001Y-28779999D01*
X110344276Y-28685026D01*
X110212247Y-28614454D01*
X110068986Y-28570997D01*
X109957333Y-28560000D01*
X109957322Y-28560000D01*
X109920000Y-28556324D01*
X109882678Y-28560000D01*
X59567323Y-28560000D01*
X59530000Y-28556324D01*
X59492677Y-28560000D01*
X59492667Y-28560000D01*
X59381014Y-28570997D01*
X59237753Y-28614454D01*
X59105723Y-28685026D01*
X59022083Y-28753668D01*
X58989999Y-28779999D01*
X58966201Y-28808997D01*
X51428998Y-36346201D01*
X51400000Y-36369999D01*
X51376202Y-36398997D01*
X51376201Y-36398998D01*
X51305026Y-36485724D01*
X51234454Y-36617754D01*
X51190998Y-36761015D01*
X51176324Y-36910000D01*
X50710000Y-36910000D01*
X50710000Y-27910000D01*
X194290001Y-27910000D01*
X194290000Y-149290000D01*
X194290000Y-149290000D01*
G37*
X194290000Y-149290000D02*
X50710000Y-149290000D01*
X50710000Y-143996099D01*
X69441700Y-143996099D01*
X69441700Y-144443901D01*
X69529061Y-144883097D01*
X69700427Y-145296812D01*
X69949212Y-145669145D01*
X70265855Y-145985788D01*
X70638188Y-146234573D01*
X71051903Y-146405939D01*
X71491099Y-146493300D01*
X71938901Y-146493300D01*
X72378097Y-146405939D01*
X72791812Y-146234573D01*
X73164145Y-145985788D01*
X73480788Y-145669145D01*
X73729573Y-145296812D01*
X73900939Y-144883097D01*
X73988300Y-144443901D01*
X73988300Y-143996099D01*
X73900939Y-143556903D01*
X73729573Y-143143188D01*
X73480788Y-142770855D01*
X73164145Y-142454212D01*
X72791812Y-142205427D01*
X72378097Y-142034061D01*
X71938901Y-141946700D01*
X71491099Y-141946700D01*
X71051903Y-142034061D01*
X70638188Y-142205427D01*
X70265855Y-142454212D01*
X69949212Y-142770855D01*
X69700427Y-143143188D01*
X69529061Y-143556903D01*
X69441700Y-143996099D01*
X50710000Y-143996099D01*
X50710000Y-36910000D01*
X51176324Y-36910000D01*
X51180001Y-36947333D01*
X51180000Y-115572678D01*
X51176324Y-115610000D01*
X51180000Y-115647322D01*
X51180000Y-115647332D01*
X51190997Y-115758985D01*
X51234454Y-115902246D01*
X51305026Y-116034276D01*
X51344871Y-116082826D01*
X51399999Y-116150001D01*
X51429003Y-116173804D01*
X80796201Y-145541003D01*
X80819999Y-145570001D01*
X80848997Y-145593799D01*
X80935723Y-145664974D01*
X81067753Y-145735546D01*
X81211014Y-145779003D01*
X81322667Y-145790000D01*
X81322677Y-145790000D01*
X81359999Y-145793676D01*
X81397322Y-145790000D01*
X164592678Y-145790000D01*
X164630000Y-145793676D01*
X164667322Y-145790000D01*
X164667333Y-145790000D01*
X164778986Y-145779003D01*
X164922247Y-145735546D01*
X165054276Y-145664974D01*
X165170001Y-145570001D01*
X165193804Y-145540997D01*
X166738702Y-143996099D01*
X171051700Y-143996099D01*
X171051700Y-144443901D01*
X171139061Y-144883097D01*
X171310427Y-145296812D01*
X171559212Y-145669145D01*
X171875855Y-145985788D01*
X172248188Y-146234573D01*
X172661903Y-146405939D01*
X173101099Y-146493300D01*
X173548901Y-146493300D01*
X173988097Y-146405939D01*
X174401812Y-146234573D01*
X174774145Y-145985788D01*
X175090788Y-145669145D01*
X175339573Y-145296812D01*
X175510939Y-144883097D01*
X175598300Y-144443901D01*
X175598300Y-143996099D01*
X175510939Y-143556903D01*
X175339573Y-143143188D01*
X175090788Y-142770855D01*
X174774145Y-142454212D01*
X174401812Y-142205427D01*
X173988097Y-142034061D01*
X173548901Y-141946700D01*
X173101099Y-141946700D01*
X172661903Y-142034061D01*
X172248188Y-142205427D01*
X171875855Y-142454212D01*
X171559212Y-142770855D01*
X171310427Y-143143188D01*
X171139061Y-143556903D01*
X171051700Y-143996099D01*
X166738702Y-143996099D01*
X169801977Y-140932824D01*
X181474430Y-140932824D01*
X181474430Y-142067177D01*
X181494478Y-142270729D01*
X181573707Y-142531910D01*
X181702366Y-142772616D01*
X181875515Y-142983596D01*
X182086495Y-143156744D01*
X182327201Y-143285403D01*
X182588382Y-143364632D01*
X182860000Y-143391384D01*
X183131619Y-143364632D01*
X183392800Y-143285403D01*
X183633506Y-143156744D01*
X183844486Y-142983596D01*
X184017634Y-142772616D01*
X184146293Y-142531910D01*
X184225522Y-142270729D01*
X184245570Y-142067177D01*
X184245570Y-140932824D01*
X186554430Y-140932824D01*
X186554430Y-142067177D01*
X186574478Y-142270729D01*
X186653707Y-142531910D01*
X186782366Y-142772616D01*
X186955515Y-142983596D01*
X187166495Y-143156744D01*
X187407201Y-143285403D01*
X187668382Y-143364632D01*
X187940000Y-143391384D01*
X188211619Y-143364632D01*
X188472800Y-143285403D01*
X188713506Y-143156744D01*
X188924486Y-142983596D01*
X189097634Y-142772616D01*
X189226293Y-142531910D01*
X189305522Y-142270729D01*
X189325570Y-142067177D01*
X189325570Y-140932823D01*
X189305522Y-140729271D01*
X189226293Y-140468090D01*
X189097634Y-140227384D01*
X188924485Y-140016404D01*
X188713505Y-139843256D01*
X188472799Y-139714597D01*
X188211618Y-139635368D01*
X187940000Y-139608616D01*
X187668381Y-139635368D01*
X187407200Y-139714597D01*
X187166494Y-139843256D01*
X186955514Y-140016405D01*
X186782366Y-140227385D01*
X186653707Y-140468091D01*
X186574478Y-140729272D01*
X186554430Y-140932824D01*
X184245570Y-140932824D01*
X184245570Y-140932823D01*
X184225522Y-140729271D01*
X184146293Y-140468090D01*
X184017634Y-140227384D01*
X183844485Y-140016404D01*
X183633505Y-139843256D01*
X183392799Y-139714597D01*
X183131618Y-139635368D01*
X182860000Y-139608616D01*
X182588381Y-139635368D01*
X182327200Y-139714597D01*
X182086494Y-139843256D01*
X181875514Y-140016405D01*
X181702366Y-140227385D01*
X181573707Y-140468091D01*
X181494478Y-140729272D01*
X181474430Y-140932824D01*
X169801977Y-140932824D01*
X175817255Y-134917547D01*
X175920408Y-135071927D01*
X176148073Y-135299592D01*
X176415778Y-135478467D01*
X176713237Y-135601678D01*
X177029017Y-135664490D01*
X177350983Y-135664490D01*
X177666763Y-135601678D01*
X177964222Y-135478467D01*
X178231927Y-135299592D01*
X178459592Y-135071927D01*
X178638467Y-134804222D01*
X178761678Y-134506763D01*
X178824490Y-134190983D01*
X178824490Y-133869017D01*
X178761678Y-133553237D01*
X178638467Y-133255778D01*
X178459592Y-132988073D01*
X178231927Y-132760408D01*
X177964222Y-132581533D01*
X177666763Y-132458322D01*
X177350983Y-132395510D01*
X177029017Y-132395510D01*
X176713237Y-132458322D01*
X176415778Y-132581533D01*
X176148073Y-132760408D01*
X175920408Y-132988073D01*
X175741533Y-133255778D01*
X175735642Y-133270000D01*
X175667322Y-133270000D01*
X175629999Y-133266324D01*
X175592676Y-133270000D01*
X175592667Y-133270000D01*
X175481014Y-133280997D01*
X175337753Y-133324454D01*
X175205724Y-133395026D01*
X175089999Y-133489999D01*
X175066201Y-133518997D01*
X164315199Y-144270000D01*
X81674802Y-144270000D01*
X54472163Y-117067361D01*
X74565000Y-117067361D01*
X74565000Y-117832639D01*
X74714298Y-118583213D01*
X75007158Y-119290238D01*
X75432323Y-119926543D01*
X75973457Y-120467677D01*
X76609762Y-120892842D01*
X77316787Y-121185702D01*
X78067361Y-121335000D01*
X78832639Y-121335000D01*
X79583213Y-121185702D01*
X80290238Y-120892842D01*
X80926543Y-120467677D01*
X81467677Y-119926543D01*
X81892842Y-119290238D01*
X82185702Y-118583213D01*
X82335000Y-117832639D01*
X82335000Y-117067361D01*
X82185702Y-116316787D01*
X81892842Y-115609762D01*
X81467677Y-114973457D01*
X80926543Y-114432323D01*
X80290238Y-114007158D01*
X79583213Y-113714298D01*
X78832639Y-113565000D01*
X78067361Y-113565000D01*
X77316787Y-113714298D01*
X76609762Y-114007158D01*
X75973457Y-114432323D01*
X75432323Y-114973457D01*
X75007158Y-115609762D01*
X74714298Y-116316787D01*
X74565000Y-117067361D01*
X54472163Y-117067361D01*
X52700000Y-115295199D01*
X52700000Y-99579307D01*
X55648000Y-99579307D01*
X55648000Y-100820693D01*
X55890182Y-102038226D01*
X56365240Y-103185117D01*
X57054917Y-104217291D01*
X57932709Y-105095083D01*
X58964883Y-105784760D01*
X60111774Y-106259818D01*
X61329307Y-106502000D01*
X62570693Y-106502000D01*
X63788226Y-106259818D01*
X64935117Y-105784760D01*
X65967291Y-105095083D01*
X66845083Y-104217291D01*
X67534760Y-103185117D01*
X68009818Y-102038226D01*
X68025378Y-101960000D01*
X69647762Y-101960000D01*
X76625676Y-108937915D01*
X76625681Y-108937919D01*
X79597080Y-111909319D01*
X79648286Y-111971714D01*
X79897248Y-112176031D01*
X79997239Y-112229478D01*
X83628176Y-115860416D01*
X83628187Y-115860425D01*
X89715676Y-121947915D01*
X89715681Y-121947919D01*
X95228176Y-127460415D01*
X95228181Y-127460419D01*
X99467084Y-131699324D01*
X99518286Y-131761714D01*
X99767248Y-131966031D01*
X100051285Y-132117852D01*
X100359483Y-132211343D01*
X100680000Y-132242912D01*
X100760330Y-132235000D01*
X180251171Y-132235000D01*
X180143256Y-132366494D01*
X180014597Y-132607200D01*
X179935368Y-132868381D01*
X179908616Y-133140000D01*
X179935368Y-133411619D01*
X180014597Y-133672800D01*
X180143256Y-133913506D01*
X180316404Y-134124486D01*
X180527384Y-134297634D01*
X180768090Y-134426293D01*
X181029271Y-134505522D01*
X181232823Y-134525570D01*
X182367177Y-134525570D01*
X182570729Y-134505522D01*
X182831910Y-134426293D01*
X183072616Y-134297634D01*
X183283596Y-134124486D01*
X183456744Y-133913506D01*
X183585403Y-133672800D01*
X183664632Y-133411619D01*
X183691384Y-133140000D01*
X183664632Y-132868381D01*
X183585403Y-132607200D01*
X183456744Y-132366494D01*
X183283596Y-132155514D01*
X183072616Y-131982366D01*
X182862392Y-131870000D01*
X183072616Y-131757634D01*
X183283596Y-131584486D01*
X183456744Y-131373506D01*
X183585403Y-131132800D01*
X183664632Y-130871619D01*
X183691384Y-130600000D01*
X183664632Y-130328381D01*
X183585403Y-130067200D01*
X183456744Y-129826494D01*
X183283596Y-129615514D01*
X183072616Y-129442366D01*
X182862392Y-129330000D01*
X183072616Y-129217634D01*
X183283596Y-129044486D01*
X183456744Y-128833506D01*
X183585403Y-128592800D01*
X183664632Y-128331619D01*
X183691384Y-128060000D01*
X183664632Y-127788381D01*
X183585403Y-127527200D01*
X183456744Y-127286494D01*
X183283596Y-127075514D01*
X183072616Y-126902366D01*
X182831910Y-126773707D01*
X182570729Y-126694478D01*
X182460902Y-126683661D01*
X182434974Y-126635154D01*
X182340001Y-126519429D01*
X182311004Y-126495632D01*
X181714373Y-125899002D01*
X181690571Y-125869999D01*
X181574846Y-125775026D01*
X181442817Y-125704454D01*
X181299556Y-125660997D01*
X181187903Y-125650000D01*
X181187892Y-125650000D01*
X181150570Y-125646324D01*
X181113248Y-125650000D01*
X178644358Y-125650000D01*
X178638467Y-125635778D01*
X178459592Y-125368073D01*
X178231927Y-125140408D01*
X177964222Y-124961533D01*
X177666763Y-124838322D01*
X177350983Y-124775510D01*
X177029017Y-124775510D01*
X176713237Y-124838322D01*
X176415778Y-124961533D01*
X176148073Y-125140408D01*
X175920408Y-125368073D01*
X175741533Y-125635778D01*
X175618322Y-125933237D01*
X175555510Y-126249017D01*
X175555510Y-126570983D01*
X175618322Y-126886763D01*
X175741533Y-127184222D01*
X175920408Y-127451927D01*
X176148073Y-127679592D01*
X176415778Y-127858467D01*
X176713237Y-127981678D01*
X177029017Y-128044490D01*
X177350983Y-128044490D01*
X177666763Y-127981678D01*
X177964222Y-127858467D01*
X178231927Y-127679592D01*
X178459592Y-127451927D01*
X178638467Y-127184222D01*
X178644358Y-127170000D01*
X180238861Y-127170000D01*
X180143256Y-127286494D01*
X180014597Y-127527200D01*
X179935368Y-127788381D01*
X179908616Y-128060000D01*
X179935368Y-128331619D01*
X180014597Y-128592800D01*
X180143256Y-128833506D01*
X180251171Y-128965000D01*
X160984802Y-128965000D01*
X160858153Y-128838351D01*
X160834068Y-128717271D01*
X160763586Y-128547111D01*
X160661262Y-128393972D01*
X160531028Y-128263738D01*
X160377889Y-128161414D01*
X160207729Y-128090932D01*
X160027089Y-128055000D01*
X159842911Y-128055000D01*
X159662271Y-128090932D01*
X159492111Y-128161414D01*
X159338972Y-128263738D01*
X159208738Y-128393972D01*
X159106414Y-128547111D01*
X159035932Y-128717271D01*
X159000000Y-128897911D01*
X159000000Y-128965000D01*
X149689802Y-128965000D01*
X149563153Y-128838351D01*
X149539068Y-128717271D01*
X149468586Y-128547111D01*
X149366262Y-128393972D01*
X149236028Y-128263738D01*
X149082889Y-128161414D01*
X148912729Y-128090932D01*
X148732089Y-128055000D01*
X148547911Y-128055000D01*
X148367271Y-128090932D01*
X148197111Y-128161414D01*
X148043972Y-128263738D01*
X147913738Y-128393972D01*
X147811414Y-128547111D01*
X147740932Y-128717271D01*
X147705000Y-128897911D01*
X147705000Y-128965000D01*
X141089802Y-128965000D01*
X140963153Y-128838351D01*
X140939068Y-128717271D01*
X140868586Y-128547111D01*
X140766262Y-128393972D01*
X140636028Y-128263738D01*
X140482889Y-128161414D01*
X140312729Y-128090932D01*
X140132089Y-128055000D01*
X139947911Y-128055000D01*
X139767271Y-128090932D01*
X139597111Y-128161414D01*
X139443972Y-128263738D01*
X139313738Y-128393972D01*
X139211414Y-128547111D01*
X139140932Y-128717271D01*
X139105000Y-128897911D01*
X139105000Y-128965000D01*
X133139801Y-128965000D01*
X133013153Y-128838351D01*
X132989068Y-128717271D01*
X132918586Y-128547111D01*
X132816262Y-128393972D01*
X132686028Y-128263738D01*
X132532889Y-128161414D01*
X132362729Y-128090932D01*
X132182089Y-128055000D01*
X131997911Y-128055000D01*
X131817271Y-128090932D01*
X131647111Y-128161414D01*
X131493972Y-128263738D01*
X131363738Y-128393972D01*
X131261414Y-128547111D01*
X131190932Y-128717271D01*
X131155000Y-128897911D01*
X131155000Y-128965000D01*
X126071057Y-128965000D01*
X126018957Y-128867529D01*
X125989068Y-128717271D01*
X125918586Y-128547111D01*
X125816262Y-128393972D01*
X125686028Y-128263738D01*
X125532889Y-128161414D01*
X125362729Y-128090932D01*
X125182089Y-128055000D01*
X124997911Y-128055000D01*
X124817271Y-128090932D01*
X124647111Y-128161414D01*
X124493972Y-128263738D01*
X124363738Y-128393972D01*
X124261414Y-128547111D01*
X124190932Y-128717271D01*
X124155000Y-128897911D01*
X124155000Y-128965000D01*
X118839801Y-128965000D01*
X118713153Y-128838351D01*
X118689068Y-128717271D01*
X118618586Y-128547111D01*
X118516262Y-128393972D01*
X118386028Y-128263738D01*
X118232889Y-128161414D01*
X118062729Y-128090932D01*
X117882089Y-128055000D01*
X117697911Y-128055000D01*
X117517271Y-128090932D01*
X117347111Y-128161414D01*
X117193972Y-128263738D01*
X117063738Y-128393972D01*
X116961414Y-128547111D01*
X116890932Y-128717271D01*
X116855000Y-128897911D01*
X116855000Y-128965000D01*
X112239801Y-128965000D01*
X112113153Y-128838351D01*
X112089068Y-128717271D01*
X112018586Y-128547111D01*
X111916262Y-128393972D01*
X111786028Y-128263738D01*
X111632889Y-128161414D01*
X111462729Y-128090932D01*
X111282089Y-128055000D01*
X111097911Y-128055000D01*
X110917271Y-128090932D01*
X110747111Y-128161414D01*
X110593972Y-128263738D01*
X110463738Y-128393972D01*
X110361414Y-128547111D01*
X110290932Y-128717271D01*
X110255000Y-128897911D01*
X110255000Y-128965000D01*
X104414801Y-128965000D01*
X104288153Y-128838351D01*
X104264068Y-128717271D01*
X104193586Y-128547111D01*
X104091262Y-128393972D01*
X103961028Y-128263738D01*
X103807889Y-128161414D01*
X103637729Y-128090932D01*
X103457089Y-128055000D01*
X103272911Y-128055000D01*
X103092271Y-128090932D01*
X102922111Y-128161414D01*
X102768972Y-128263738D01*
X102638738Y-128393972D01*
X102536414Y-128547111D01*
X102465932Y-128717271D01*
X102430000Y-128897911D01*
X102430000Y-128965000D01*
X101357240Y-128965000D01*
X97540419Y-125148181D01*
X97540415Y-125148176D01*
X97145024Y-124752785D01*
X97175000Y-124602089D01*
X97175000Y-124417911D01*
X97139068Y-124237271D01*
X97068586Y-124067111D01*
X96966262Y-123913972D01*
X96836028Y-123783738D01*
X96682889Y-123681414D01*
X96512729Y-123610932D01*
X96332089Y-123575000D01*
X96147911Y-123575000D01*
X95997215Y-123604976D01*
X92027919Y-119635681D01*
X92027915Y-119635676D01*
X91575000Y-119182761D01*
X91575000Y-119122322D01*
X91578676Y-119084999D01*
X91575000Y-119047676D01*
X91575000Y-119047667D01*
X91564003Y-118936014D01*
X91520546Y-118792753D01*
X91487500Y-118730929D01*
X91487500Y-118730411D01*
X91451568Y-118549771D01*
X91381086Y-118379611D01*
X91278762Y-118226472D01*
X91148528Y-118096238D01*
X90995389Y-117993914D01*
X90825229Y-117923432D01*
X90644589Y-117887500D01*
X90460411Y-117887500D01*
X90309715Y-117917476D01*
X89459600Y-117067361D01*
X158565000Y-117067361D01*
X158565000Y-117832639D01*
X158714298Y-118583213D01*
X159007158Y-119290238D01*
X159432323Y-119926543D01*
X159973457Y-120467677D01*
X160609762Y-120892842D01*
X161316787Y-121185702D01*
X162067361Y-121335000D01*
X162832639Y-121335000D01*
X163583213Y-121185702D01*
X164290238Y-120892842D01*
X164926543Y-120467677D01*
X165467677Y-119926543D01*
X165892842Y-119290238D01*
X166185702Y-118583213D01*
X166335000Y-117832639D01*
X166335000Y-117067361D01*
X166185702Y-116316787D01*
X165892842Y-115609762D01*
X165467677Y-114973457D01*
X164926543Y-114432323D01*
X164290238Y-114007158D01*
X163583213Y-113714298D01*
X162832639Y-113565000D01*
X162067361Y-113565000D01*
X161316787Y-113714298D01*
X160609762Y-114007158D01*
X159973457Y-114432323D01*
X159432323Y-114973457D01*
X159007158Y-115609762D01*
X158714298Y-116316787D01*
X158565000Y-117067361D01*
X89459600Y-117067361D01*
X85940425Y-113548187D01*
X85940416Y-113548176D01*
X85820024Y-113427784D01*
X85850000Y-113277089D01*
X85850000Y-113092911D01*
X85814068Y-112912271D01*
X85743586Y-112742111D01*
X85641262Y-112588972D01*
X85511028Y-112458738D01*
X85357889Y-112356414D01*
X85187729Y-112285932D01*
X85007089Y-112250000D01*
X84822911Y-112250000D01*
X84672215Y-112279976D01*
X82102925Y-109710687D01*
X82051714Y-109648286D01*
X81802752Y-109443969D01*
X81702762Y-109390523D01*
X79063651Y-106751413D01*
X79076568Y-106720229D01*
X79112500Y-106539589D01*
X79112500Y-106355411D01*
X79076568Y-106174771D01*
X79006086Y-106004611D01*
X78903762Y-105851472D01*
X78773528Y-105721238D01*
X78620389Y-105618914D01*
X78450229Y-105548432D01*
X78269589Y-105512500D01*
X78085411Y-105512500D01*
X77904771Y-105548432D01*
X77873587Y-105561349D01*
X71537925Y-99225687D01*
X71486714Y-99163286D01*
X71237752Y-98958969D01*
X70953715Y-98807148D01*
X70645516Y-98713657D01*
X70405322Y-98690000D01*
X70405319Y-98690000D01*
X70325000Y-98682089D01*
X70244681Y-98690000D01*
X68075106Y-98690000D01*
X68009818Y-98361774D01*
X67534760Y-97214883D01*
X66845083Y-96182709D01*
X65967291Y-95304917D01*
X64935117Y-94615240D01*
X63788226Y-94140182D01*
X62781773Y-93939986D01*
X63813226Y-93734818D01*
X64960117Y-93259760D01*
X65992291Y-92570083D01*
X66052374Y-92510000D01*
X69447762Y-92510000D01*
X72887080Y-95949319D01*
X72938286Y-96011714D01*
X73187248Y-96216031D01*
X73471285Y-96367852D01*
X73779484Y-96461343D01*
X74019678Y-96485000D01*
X74019680Y-96485000D01*
X74100000Y-96492911D01*
X74180319Y-96485000D01*
X81177762Y-96485000D01*
X84153176Y-99460416D01*
X84153187Y-99460425D01*
X88032083Y-103339323D01*
X88083286Y-103401714D01*
X88145676Y-103452916D01*
X88191876Y-103490831D01*
X88332248Y-103606031D01*
X88419614Y-103652729D01*
X88616285Y-103757852D01*
X88924483Y-103851343D01*
X89245000Y-103882911D01*
X89325322Y-103875000D01*
X112482762Y-103875000D01*
X116273176Y-107665416D01*
X116273187Y-107665425D01*
X120007084Y-111399324D01*
X120058286Y-111461714D01*
X120307248Y-111666031D01*
X120474659Y-111755514D01*
X120591285Y-111817852D01*
X120899483Y-111911343D01*
X121220000Y-111942911D01*
X121300322Y-111935000D01*
X175975001Y-111935000D01*
X175975000Y-116269680D01*
X175967089Y-116350000D01*
X175975000Y-116430319D01*
X175975000Y-116430321D01*
X175998657Y-116670515D01*
X176092148Y-116978714D01*
X176243969Y-117262751D01*
X176448286Y-117511714D01*
X176510687Y-117562925D01*
X181371110Y-122423349D01*
X181373707Y-122431910D01*
X181502366Y-122672616D01*
X181675515Y-122883596D01*
X181886495Y-123056744D01*
X182127201Y-123185403D01*
X182388382Y-123264632D01*
X182660000Y-123291384D01*
X182931619Y-123264632D01*
X183192800Y-123185403D01*
X183433506Y-123056744D01*
X183644486Y-122883596D01*
X183817634Y-122672616D01*
X183946293Y-122431910D01*
X183956879Y-122397013D01*
X184026030Y-122312752D01*
X184177851Y-122028714D01*
X184271342Y-121720516D01*
X184302911Y-121399999D01*
X184271342Y-121079482D01*
X184196519Y-120832824D01*
X186354430Y-120832824D01*
X186354430Y-121967177D01*
X186374478Y-122170729D01*
X186453707Y-122431910D01*
X186582366Y-122672616D01*
X186755515Y-122883596D01*
X186966495Y-123056744D01*
X187207201Y-123185403D01*
X187468382Y-123264632D01*
X187740000Y-123291384D01*
X188011619Y-123264632D01*
X188272800Y-123185403D01*
X188513506Y-123056744D01*
X188724486Y-122883596D01*
X188897634Y-122672616D01*
X189026293Y-122431910D01*
X189105522Y-122170729D01*
X189125570Y-121967177D01*
X189125570Y-120832823D01*
X189105522Y-120629271D01*
X189026293Y-120368090D01*
X188897634Y-120127384D01*
X188724485Y-119916404D01*
X188513505Y-119743256D01*
X188272799Y-119614597D01*
X188011618Y-119535368D01*
X187740000Y-119508616D01*
X187468381Y-119535368D01*
X187207200Y-119614597D01*
X186966494Y-119743256D01*
X186755514Y-119916405D01*
X186582366Y-120127385D01*
X186453707Y-120368091D01*
X186374478Y-120629272D01*
X186354430Y-120832824D01*
X184196519Y-120832824D01*
X184177851Y-120771284D01*
X184026030Y-120487247D01*
X183956879Y-120402986D01*
X183946293Y-120368090D01*
X183817634Y-120127384D01*
X183644485Y-119916404D01*
X183433505Y-119743256D01*
X183192799Y-119614597D01*
X183184239Y-119612000D01*
X179245000Y-115672762D01*
X179245000Y-111935000D01*
X180419103Y-111935000D01*
X180393256Y-111966494D01*
X180264597Y-112207200D01*
X180185368Y-112468381D01*
X180158616Y-112740000D01*
X180185368Y-113011619D01*
X180264597Y-113272800D01*
X180393256Y-113513506D01*
X180566404Y-113724486D01*
X180777384Y-113897634D01*
X181018090Y-114026293D01*
X181279271Y-114105522D01*
X181482823Y-114125570D01*
X182617177Y-114125570D01*
X182820729Y-114105522D01*
X183081910Y-114026293D01*
X183322616Y-113897634D01*
X183533596Y-113724486D01*
X183706744Y-113513506D01*
X183835403Y-113272800D01*
X183914632Y-113011619D01*
X183941384Y-112740000D01*
X183914632Y-112468381D01*
X183835403Y-112207200D01*
X183706744Y-111966494D01*
X183533596Y-111755514D01*
X183322616Y-111582366D01*
X183136146Y-111482697D01*
X183161714Y-111461714D01*
X183188142Y-111429511D01*
X183322616Y-111357634D01*
X183533596Y-111184486D01*
X183706744Y-110973506D01*
X183835403Y-110732800D01*
X183914632Y-110471619D01*
X183941384Y-110200000D01*
X183914632Y-109928381D01*
X183835403Y-109667200D01*
X183706744Y-109426494D01*
X183533596Y-109215514D01*
X183322616Y-109042366D01*
X183112392Y-108930000D01*
X183322616Y-108817634D01*
X183533596Y-108644486D01*
X183706744Y-108433506D01*
X183835403Y-108192800D01*
X183914632Y-107931619D01*
X183941384Y-107660000D01*
X183914632Y-107388381D01*
X183835403Y-107127200D01*
X183706744Y-106886494D01*
X183533596Y-106675514D01*
X183322616Y-106502366D01*
X183081910Y-106373707D01*
X182820729Y-106294478D01*
X182617177Y-106274430D01*
X181482823Y-106274430D01*
X181279271Y-106294478D01*
X181018090Y-106373707D01*
X180777384Y-106502366D01*
X180566404Y-106675514D01*
X180393256Y-106886494D01*
X180264597Y-107127200D01*
X180185368Y-107388381D01*
X180158616Y-107660000D01*
X180185368Y-107931619D01*
X180264597Y-108192800D01*
X180393256Y-108433506D01*
X180566404Y-108644486D01*
X180591400Y-108665000D01*
X179162347Y-108665000D01*
X179127852Y-108551285D01*
X178976031Y-108267248D01*
X178771714Y-108018286D01*
X178522752Y-107813969D01*
X178238715Y-107662148D01*
X177930516Y-107568657D01*
X177610000Y-107537089D01*
X177289485Y-107568657D01*
X176981286Y-107662148D01*
X176697249Y-107813969D01*
X176448287Y-108018286D01*
X176243970Y-108267248D01*
X176092149Y-108551285D01*
X176057654Y-108665000D01*
X171375403Y-108665000D01*
X171321262Y-108583972D01*
X171191028Y-108453738D01*
X171037889Y-108351414D01*
X170867729Y-108280932D01*
X170687089Y-108245000D01*
X170502911Y-108245000D01*
X170322271Y-108280932D01*
X170152111Y-108351414D01*
X169998972Y-108453738D01*
X169868738Y-108583972D01*
X169814597Y-108665000D01*
X162885403Y-108665000D01*
X162831262Y-108583972D01*
X162701028Y-108453738D01*
X162547889Y-108351414D01*
X162377729Y-108280932D01*
X162197089Y-108245000D01*
X162012911Y-108245000D01*
X161832271Y-108280932D01*
X161662111Y-108351414D01*
X161508972Y-108453738D01*
X161378738Y-108583972D01*
X161324597Y-108665000D01*
X151125403Y-108665000D01*
X151071262Y-108583972D01*
X150941028Y-108453738D01*
X150787889Y-108351414D01*
X150617729Y-108280932D01*
X150437089Y-108245000D01*
X150252911Y-108245000D01*
X150072271Y-108280932D01*
X149902111Y-108351414D01*
X149748972Y-108453738D01*
X149618738Y-108583972D01*
X149564597Y-108665000D01*
X138875403Y-108665000D01*
X138821262Y-108583972D01*
X138691028Y-108453738D01*
X138537889Y-108351414D01*
X138367729Y-108280932D01*
X138187089Y-108245000D01*
X138002911Y-108245000D01*
X137822271Y-108280932D01*
X137652111Y-108351414D01*
X137498972Y-108453738D01*
X137368738Y-108583972D01*
X137314597Y-108665000D01*
X127875403Y-108665000D01*
X127821262Y-108583972D01*
X127691028Y-108453738D01*
X127537889Y-108351414D01*
X127367729Y-108280932D01*
X127187089Y-108245000D01*
X127002911Y-108245000D01*
X126822271Y-108280932D01*
X126652111Y-108351414D01*
X126498972Y-108453738D01*
X126368738Y-108583972D01*
X126314597Y-108665000D01*
X121897240Y-108665000D01*
X118585425Y-105353187D01*
X118585416Y-105353176D01*
X118132500Y-104900260D01*
X118132500Y-104869822D01*
X118136176Y-104832499D01*
X118132500Y-104795176D01*
X118132500Y-104795167D01*
X118121503Y-104683514D01*
X118078046Y-104540253D01*
X118007474Y-104408224D01*
X117912501Y-104292499D01*
X117883503Y-104268701D01*
X116843153Y-103228351D01*
X116819068Y-103107271D01*
X116748586Y-102937111D01*
X116646262Y-102783972D01*
X116516028Y-102653738D01*
X116362889Y-102551414D01*
X116192729Y-102480932D01*
X116012089Y-102445000D01*
X115827911Y-102445000D01*
X115702237Y-102469998D01*
X114372925Y-101140687D01*
X114321714Y-101078286D01*
X114072752Y-100873969D01*
X113788715Y-100722148D01*
X113480516Y-100628657D01*
X113240322Y-100605000D01*
X113240319Y-100605000D01*
X113160000Y-100597089D01*
X113079681Y-100605000D01*
X89922240Y-100605000D01*
X89696257Y-100379017D01*
X172545510Y-100379017D01*
X172545510Y-100700983D01*
X172608322Y-101016763D01*
X172731533Y-101314222D01*
X172910408Y-101581927D01*
X173138073Y-101809592D01*
X173405778Y-101988467D01*
X173703237Y-102111678D01*
X174019017Y-102174490D01*
X174340983Y-102174490D01*
X174656763Y-102111678D01*
X174954222Y-101988467D01*
X175221927Y-101809592D01*
X175449592Y-101581927D01*
X175628467Y-101314222D01*
X175751678Y-101016763D01*
X175814490Y-100700983D01*
X175814490Y-100379017D01*
X180165510Y-100379017D01*
X180165510Y-100700983D01*
X180228322Y-101016763D01*
X180351533Y-101314222D01*
X180530408Y-101581927D01*
X180758073Y-101809592D01*
X181025778Y-101988467D01*
X181323237Y-102111678D01*
X181639017Y-102174490D01*
X181960983Y-102174490D01*
X182276763Y-102111678D01*
X182574222Y-101988467D01*
X182841927Y-101809592D01*
X183069592Y-101581927D01*
X183248467Y-101314222D01*
X183371678Y-101016763D01*
X183434490Y-100700983D01*
X183434490Y-100379017D01*
X183371678Y-100063237D01*
X183248467Y-99765778D01*
X183069592Y-99498073D01*
X182841927Y-99270408D01*
X182574222Y-99091533D01*
X182276763Y-98968322D01*
X181960983Y-98905510D01*
X181639017Y-98905510D01*
X181323237Y-98968322D01*
X181025778Y-99091533D01*
X180758073Y-99270408D01*
X180530408Y-99498073D01*
X180351533Y-99765778D01*
X180228322Y-100063237D01*
X180165510Y-100379017D01*
X175814490Y-100379017D01*
X175751678Y-100063237D01*
X175628467Y-99765778D01*
X175449592Y-99498073D01*
X175221927Y-99270408D01*
X174954222Y-99091533D01*
X174656763Y-98968322D01*
X174340983Y-98905510D01*
X174019017Y-98905510D01*
X173703237Y-98968322D01*
X173405778Y-99091533D01*
X173138073Y-99270408D01*
X172910408Y-99498073D01*
X172731533Y-99765778D01*
X172608322Y-100063237D01*
X172545510Y-100379017D01*
X89696257Y-100379017D01*
X86465425Y-97148187D01*
X86465416Y-97148176D01*
X83067925Y-93750686D01*
X83016714Y-93688286D01*
X82767752Y-93483969D01*
X82483715Y-93332148D01*
X82175516Y-93238657D01*
X81935322Y-93215000D01*
X81935319Y-93215000D01*
X81855000Y-93207089D01*
X81774681Y-93215000D01*
X74777239Y-93215000D01*
X71337925Y-89775687D01*
X71286714Y-89713286D01*
X71037752Y-89508969D01*
X70753715Y-89357148D01*
X70445516Y-89263657D01*
X70205322Y-89240000D01*
X70205319Y-89240000D01*
X70125000Y-89232089D01*
X70044681Y-89240000D01*
X68089166Y-89240000D01*
X68277000Y-88295693D01*
X68277000Y-87054307D01*
X68034818Y-85836774D01*
X67559760Y-84689883D01*
X66870083Y-83657709D01*
X65992291Y-82779917D01*
X64960117Y-82090240D01*
X63813226Y-81615182D01*
X62595693Y-81373000D01*
X61354307Y-81373000D01*
X60136774Y-81615182D01*
X58989883Y-82090240D01*
X57957709Y-82779917D01*
X57079917Y-83657709D01*
X56390240Y-84689883D01*
X55915182Y-85836774D01*
X55673000Y-87054307D01*
X55673000Y-88295693D01*
X55915182Y-89513226D01*
X56390240Y-90660117D01*
X57079917Y-91692291D01*
X57957709Y-92570083D01*
X58989883Y-93259760D01*
X60136774Y-93734818D01*
X61143227Y-93935014D01*
X60111774Y-94140182D01*
X58964883Y-94615240D01*
X57932709Y-95304917D01*
X57054917Y-96182709D01*
X56365240Y-97214883D01*
X55890182Y-98361774D01*
X55648000Y-99579307D01*
X52700000Y-99579307D01*
X52700000Y-74179307D01*
X55673000Y-74179307D01*
X55673000Y-75420693D01*
X55915182Y-76638226D01*
X56390240Y-77785117D01*
X57079917Y-78817291D01*
X57957709Y-79695083D01*
X58989883Y-80384760D01*
X60136774Y-80859818D01*
X61354307Y-81102000D01*
X62595693Y-81102000D01*
X63813226Y-80859818D01*
X64960117Y-80384760D01*
X65992291Y-79695083D01*
X66077375Y-79609999D01*
X75672760Y-79609999D01*
X76050001Y-79987240D01*
X76050000Y-82630000D01*
X76042089Y-82710320D01*
X76050000Y-82790639D01*
X76050000Y-82790641D01*
X76073657Y-83030835D01*
X76167148Y-83339034D01*
X76318969Y-83623071D01*
X76523286Y-83872034D01*
X76585686Y-83923245D01*
X77840001Y-85177559D01*
X77840000Y-86201171D01*
X77708506Y-86093256D01*
X77467800Y-85964597D01*
X77206619Y-85885368D01*
X76935000Y-85858616D01*
X76663382Y-85885368D01*
X76402201Y-85964597D01*
X76161495Y-86093256D01*
X75950515Y-86266404D01*
X75777366Y-86477384D01*
X75648707Y-86718090D01*
X75569478Y-86979271D01*
X75549430Y-87182823D01*
X75549430Y-88317176D01*
X75569478Y-88520728D01*
X75648707Y-88781909D01*
X75777366Y-89022615D01*
X75950514Y-89233595D01*
X76161494Y-89406744D01*
X76402200Y-89535403D01*
X76663381Y-89614632D01*
X76935000Y-89641384D01*
X77206618Y-89614632D01*
X77467799Y-89535403D01*
X77708505Y-89406744D01*
X77919485Y-89233596D01*
X78089047Y-89026986D01*
X78098618Y-89124162D01*
X78134928Y-89243860D01*
X78193893Y-89354174D01*
X78273245Y-89450865D01*
X78369936Y-89530217D01*
X78480250Y-89589182D01*
X78599948Y-89625492D01*
X78724430Y-89637752D01*
X80225570Y-89637752D01*
X80350052Y-89625492D01*
X80469750Y-89589182D01*
X80580064Y-89530217D01*
X80676755Y-89450865D01*
X80756107Y-89354174D01*
X80815072Y-89243860D01*
X80851382Y-89124162D01*
X80860953Y-89026985D01*
X81030514Y-89233595D01*
X81241494Y-89406744D01*
X81482200Y-89535403D01*
X81743381Y-89614632D01*
X82015000Y-89641384D01*
X82286618Y-89614632D01*
X82547799Y-89535403D01*
X82788505Y-89406744D01*
X82999485Y-89233596D01*
X83172634Y-89022616D01*
X83301293Y-88781910D01*
X83380522Y-88520729D01*
X83400570Y-88317177D01*
X83400570Y-87182823D01*
X83380522Y-86979271D01*
X83301293Y-86718090D01*
X83172634Y-86477384D01*
X82999486Y-86266404D01*
X82788506Y-86093256D01*
X82547800Y-85964597D01*
X82286619Y-85885368D01*
X82015000Y-85858616D01*
X81743382Y-85885368D01*
X81482201Y-85964597D01*
X81241495Y-86093256D01*
X81110000Y-86201172D01*
X81110000Y-84580639D01*
X81117911Y-84500319D01*
X81106866Y-84388176D01*
X81086343Y-84179804D01*
X80992852Y-83871605D01*
X80841031Y-83587568D01*
X80636714Y-83338606D01*
X80574318Y-83287399D01*
X79320000Y-82033082D01*
X79320000Y-80945000D01*
X80921171Y-80945000D01*
X80813256Y-81076494D01*
X80684597Y-81317200D01*
X80605368Y-81578381D01*
X80578616Y-81850000D01*
X80605368Y-82121619D01*
X80684597Y-82382800D01*
X80813256Y-82623506D01*
X80986404Y-82834486D01*
X81197384Y-83007634D01*
X81438090Y-83136293D01*
X81699271Y-83215522D01*
X81902823Y-83235570D01*
X83037177Y-83235570D01*
X83240729Y-83215522D01*
X83501910Y-83136293D01*
X83742616Y-83007634D01*
X83953596Y-82834486D01*
X84126744Y-82623506D01*
X84255403Y-82382800D01*
X84334632Y-82121619D01*
X84361384Y-81850000D01*
X84334632Y-81578381D01*
X84255403Y-81317200D01*
X84126744Y-81076494D01*
X83953596Y-80865514D01*
X83742616Y-80692366D01*
X83532392Y-80580000D01*
X83742616Y-80467634D01*
X83953596Y-80294486D01*
X84126744Y-80083506D01*
X84255403Y-79842800D01*
X84334632Y-79581619D01*
X84361384Y-79310000D01*
X84334632Y-79038381D01*
X84255403Y-78777200D01*
X84126744Y-78536494D01*
X83953596Y-78325514D01*
X83742616Y-78152366D01*
X83501910Y-78023707D01*
X83467015Y-78013122D01*
X83382752Y-77943969D01*
X83098715Y-77792148D01*
X82790516Y-77698657D01*
X82550322Y-77675000D01*
X78362239Y-77675000D01*
X77562923Y-76875685D01*
X77511713Y-76813285D01*
X77262751Y-76608968D01*
X76978714Y-76457147D01*
X76670515Y-76363656D01*
X76430321Y-76339999D01*
X76430318Y-76339999D01*
X76349999Y-76332088D01*
X76269680Y-76339999D01*
X68094139Y-76339999D01*
X68277000Y-75420693D01*
X68277000Y-74179307D01*
X68034818Y-72961774D01*
X67559760Y-71814883D01*
X66870083Y-70782709D01*
X65992291Y-69904917D01*
X64960117Y-69215240D01*
X63813226Y-68740182D01*
X62595693Y-68498000D01*
X61354307Y-68498000D01*
X60136774Y-68740182D01*
X58989883Y-69215240D01*
X57957709Y-69904917D01*
X57079917Y-70782709D01*
X56390240Y-71814883D01*
X55915182Y-72961774D01*
X55673000Y-74179307D01*
X52700000Y-74179307D01*
X52700000Y-48879307D01*
X55623000Y-48879307D01*
X55623000Y-50120693D01*
X55865182Y-51338226D01*
X56340240Y-52485117D01*
X57029917Y-53517291D01*
X57907709Y-54395083D01*
X58939883Y-55084760D01*
X60086774Y-55559818D01*
X61080385Y-55757459D01*
X60161774Y-55940182D01*
X59014883Y-56415240D01*
X57982709Y-57104917D01*
X57104917Y-57982709D01*
X56415240Y-59014883D01*
X55940182Y-60161774D01*
X55698000Y-61379307D01*
X55698000Y-62620693D01*
X55940182Y-63838226D01*
X56415240Y-64985117D01*
X57104917Y-66017291D01*
X57982709Y-66895083D01*
X59014883Y-67584760D01*
X60161774Y-68059818D01*
X61379307Y-68302000D01*
X62620693Y-68302000D01*
X63838226Y-68059818D01*
X64985117Y-67584760D01*
X66017291Y-66895083D01*
X66895083Y-66017291D01*
X67353170Y-65331715D01*
X150161000Y-65331715D01*
X150161000Y-66848285D01*
X150456868Y-68335715D01*
X151037235Y-69736844D01*
X151879796Y-70997826D01*
X152952174Y-72070204D01*
X154213156Y-72912765D01*
X154243823Y-72925468D01*
X154277596Y-73268369D01*
X154327831Y-73433970D01*
X154485449Y-73953568D01*
X154822984Y-74585053D01*
X154946134Y-74735111D01*
X155277231Y-75138554D01*
X155415942Y-75252391D01*
X155739603Y-75576052D01*
X155853445Y-75714769D01*
X156406946Y-76169015D01*
X157038430Y-76506550D01*
X157723630Y-76714404D01*
X158257640Y-76766999D01*
X158257642Y-76766999D01*
X158436214Y-76784587D01*
X158614787Y-76766999D01*
X159433000Y-76766999D01*
X159433000Y-78913996D01*
X159221910Y-78801167D01*
X158960729Y-78721938D01*
X158757177Y-78701890D01*
X157622823Y-78701890D01*
X157419271Y-78721938D01*
X157158090Y-78801167D01*
X156917384Y-78929826D01*
X156706404Y-79102974D01*
X156533256Y-79313954D01*
X156404597Y-79554660D01*
X156325368Y-79815841D01*
X156298616Y-80087460D01*
X156325368Y-80359079D01*
X156404597Y-80620260D01*
X156533256Y-80860966D01*
X156706404Y-81071946D01*
X156913014Y-81241507D01*
X156815838Y-81251078D01*
X156696140Y-81287388D01*
X156585826Y-81346353D01*
X156489135Y-81425705D01*
X156409783Y-81522396D01*
X156350818Y-81632710D01*
X156314508Y-81752408D01*
X156302248Y-81876890D01*
X156302248Y-83378030D01*
X156314508Y-83502512D01*
X156350818Y-83622210D01*
X156409783Y-83732524D01*
X156489135Y-83829215D01*
X156585826Y-83908567D01*
X156696140Y-83967532D01*
X156815838Y-84003842D01*
X156913014Y-84013413D01*
X156706404Y-84182974D01*
X156533256Y-84393954D01*
X156404597Y-84634660D01*
X156325368Y-84895841D01*
X156298616Y-85167460D01*
X156325368Y-85439079D01*
X156404597Y-85700260D01*
X156533256Y-85940966D01*
X156706404Y-86151946D01*
X156917384Y-86325094D01*
X157158090Y-86453753D01*
X157419271Y-86532982D01*
X157622823Y-86553030D01*
X158757177Y-86553030D01*
X158960729Y-86532982D01*
X159221910Y-86453753D01*
X159462616Y-86325094D01*
X159673596Y-86151946D01*
X159804680Y-85992220D01*
X159804681Y-92329878D01*
X159725596Y-92233514D01*
X159514616Y-92060366D01*
X159273910Y-91931707D01*
X159012729Y-91852478D01*
X158809177Y-91832430D01*
X157674823Y-91832430D01*
X157471271Y-91852478D01*
X157210090Y-91931707D01*
X156969384Y-92060366D01*
X156758404Y-92233514D01*
X156585256Y-92444494D01*
X156456597Y-92685200D01*
X156377368Y-92946381D01*
X156350616Y-93218000D01*
X156377368Y-93489619D01*
X156456597Y-93750800D01*
X156585256Y-93991506D01*
X156758404Y-94202486D01*
X156965014Y-94372047D01*
X156867838Y-94381618D01*
X156748140Y-94417928D01*
X156637826Y-94476893D01*
X156541135Y-94556245D01*
X156461783Y-94652936D01*
X156402818Y-94763250D01*
X156366508Y-94882948D01*
X156354248Y-95007430D01*
X156354248Y-96508570D01*
X156366508Y-96633052D01*
X156402818Y-96752750D01*
X156461783Y-96863064D01*
X156541135Y-96959755D01*
X156637826Y-97039107D01*
X156748140Y-97098072D01*
X156867838Y-97134382D01*
X156965014Y-97143953D01*
X156758404Y-97313514D01*
X156585256Y-97524494D01*
X156456597Y-97765200D01*
X156377368Y-98026381D01*
X156350616Y-98298000D01*
X156377368Y-98569619D01*
X156456597Y-98830800D01*
X156585256Y-99071506D01*
X156758404Y-99282486D01*
X156969384Y-99455634D01*
X157210090Y-99584293D01*
X157471271Y-99663522D01*
X157674823Y-99683570D01*
X158809177Y-99683570D01*
X159012729Y-99663522D01*
X159273910Y-99584293D01*
X159514616Y-99455634D01*
X159725596Y-99282486D01*
X159898744Y-99071506D01*
X160027403Y-98830800D01*
X160106632Y-98569619D01*
X160133384Y-98298000D01*
X160106632Y-98026381D01*
X160027403Y-97765200D01*
X159898744Y-97524494D01*
X159790829Y-97393000D01*
X160421681Y-97393000D01*
X160502000Y-97400911D01*
X160582319Y-97393000D01*
X161411361Y-97393000D01*
X161491680Y-97400911D01*
X161571999Y-97393000D01*
X163436681Y-97393000D01*
X163517000Y-97400911D01*
X163597319Y-97393000D01*
X163597322Y-97393000D01*
X163837516Y-97369343D01*
X164145715Y-97275852D01*
X164429752Y-97124031D01*
X164678714Y-96919714D01*
X164729925Y-96857313D01*
X166774320Y-94812919D01*
X166836714Y-94761714D01*
X167041031Y-94512752D01*
X167192852Y-94228715D01*
X167235360Y-94088586D01*
X167286343Y-93920517D01*
X167317911Y-93600000D01*
X167310000Y-93519678D01*
X167310000Y-92002238D01*
X169677240Y-89635000D01*
X175178575Y-89635000D01*
X175712585Y-89582405D01*
X176397785Y-89374551D01*
X177029269Y-89037016D01*
X177582770Y-88582770D01*
X178037016Y-88029269D01*
X178374551Y-87397785D01*
X178582405Y-86712585D01*
X178652588Y-86000000D01*
X178582405Y-85287415D01*
X178374551Y-84602215D01*
X178037016Y-83970731D01*
X177582770Y-83417230D01*
X177029269Y-82962984D01*
X176586953Y-82726561D01*
X176917899Y-82626170D01*
X177332240Y-82404700D01*
X177695412Y-82106652D01*
X177993460Y-81743480D01*
X178214930Y-81329139D01*
X178351310Y-80879553D01*
X178397360Y-80412000D01*
X178351310Y-79944447D01*
X178214930Y-79494861D01*
X177993460Y-79080520D01*
X177695412Y-78717348D01*
X177332240Y-78419300D01*
X176917899Y-78197830D01*
X176468313Y-78061450D01*
X176117927Y-78026940D01*
X173882073Y-78026940D01*
X173531687Y-78061450D01*
X173082101Y-78197830D01*
X172667760Y-78419300D01*
X172304588Y-78717348D01*
X172006540Y-79080520D01*
X171785070Y-79494861D01*
X171648690Y-79944447D01*
X171602640Y-80412000D01*
X171648690Y-80879553D01*
X171785070Y-81329139D01*
X172006540Y-81743480D01*
X172304588Y-82106652D01*
X172619385Y-82365000D01*
X171505000Y-82365000D01*
X171505000Y-71635000D01*
X175178575Y-71635000D01*
X175712585Y-71582405D01*
X176397785Y-71374551D01*
X177029269Y-71037016D01*
X177582770Y-70582770D01*
X178037016Y-70029269D01*
X178374551Y-69397785D01*
X178582405Y-68712585D01*
X178652588Y-68000000D01*
X178582405Y-67287415D01*
X178374551Y-66602215D01*
X178037016Y-65970731D01*
X177582770Y-65417230D01*
X177029269Y-64962984D01*
X176586953Y-64726561D01*
X176917899Y-64626170D01*
X177332240Y-64404700D01*
X177695412Y-64106652D01*
X177993460Y-63743480D01*
X178214930Y-63329139D01*
X178351310Y-62879553D01*
X178397360Y-62412000D01*
X178351310Y-61944447D01*
X178214930Y-61494861D01*
X177993460Y-61080520D01*
X177695412Y-60717348D01*
X177332240Y-60419300D01*
X176917899Y-60197830D01*
X176468313Y-60061450D01*
X176117927Y-60026940D01*
X173882073Y-60026940D01*
X173531687Y-60061450D01*
X173082101Y-60197830D01*
X172667760Y-60419300D01*
X172304588Y-60717348D01*
X172006540Y-61080520D01*
X171785070Y-61494861D01*
X171648690Y-61944447D01*
X171602640Y-62412000D01*
X171648690Y-62879553D01*
X171785070Y-63329139D01*
X172006540Y-63743480D01*
X172304588Y-64106652D01*
X172619385Y-64365000D01*
X171425000Y-64365000D01*
X171425000Y-54837239D01*
X172627239Y-53635000D01*
X175178575Y-53635000D01*
X175712585Y-53582405D01*
X176397785Y-53374551D01*
X177029269Y-53037016D01*
X177582770Y-52582770D01*
X178037016Y-52029269D01*
X178374551Y-51397785D01*
X178582405Y-50712585D01*
X178652588Y-50000000D01*
X178582405Y-49287415D01*
X178374551Y-48602215D01*
X178037016Y-47970731D01*
X177582770Y-47417230D01*
X177029269Y-46962984D01*
X176586953Y-46726561D01*
X176917899Y-46626170D01*
X177332240Y-46404700D01*
X177695412Y-46106652D01*
X177993460Y-45743480D01*
X178214930Y-45329139D01*
X178351310Y-44879553D01*
X178397360Y-44412000D01*
X178351310Y-43944447D01*
X178214930Y-43494861D01*
X177993460Y-43080520D01*
X177695412Y-42717348D01*
X177332240Y-42419300D01*
X176917899Y-42197830D01*
X176468313Y-42061450D01*
X176117927Y-42026940D01*
X173882073Y-42026940D01*
X173531687Y-42061450D01*
X173082101Y-42197830D01*
X172667760Y-42419300D01*
X172304588Y-42717348D01*
X172006540Y-43080520D01*
X171785070Y-43494861D01*
X171648690Y-43944447D01*
X171602640Y-44412000D01*
X171648690Y-44879553D01*
X171785070Y-45329139D01*
X172006540Y-45743480D01*
X172304588Y-46106652D01*
X172619385Y-46365000D01*
X171201425Y-46365000D01*
X171177138Y-46367392D01*
X171008859Y-46331402D01*
X170813421Y-46275627D01*
X170707564Y-46266965D01*
X170603706Y-46244753D01*
X170400493Y-46241838D01*
X170197937Y-46225263D01*
X170092428Y-46237418D01*
X169986229Y-46235895D01*
X169786350Y-46272681D01*
X169584455Y-46295941D01*
X169483344Y-46328447D01*
X169378889Y-46347671D01*
X169190027Y-46422745D01*
X168996548Y-46484946D01*
X168903721Y-46536553D01*
X168805024Y-46575786D01*
X168634438Y-46686262D01*
X168456811Y-46785014D01*
X168375836Y-46853739D01*
X168286689Y-46911473D01*
X168140938Y-47053102D01*
X168103968Y-47084479D01*
X168030504Y-47160412D01*
X167843804Y-47341832D01*
X167816124Y-47381998D01*
X166650512Y-48586791D01*
X166562248Y-48633969D01*
X166313286Y-48838286D01*
X166262075Y-48900687D01*
X166112085Y-49050677D01*
X165958970Y-49237248D01*
X165882135Y-49380996D01*
X165069295Y-50221158D01*
X164894672Y-50386606D01*
X164765791Y-50568662D01*
X164627166Y-50743388D01*
X164587740Y-50820175D01*
X164537862Y-50890632D01*
X164446976Y-51094330D01*
X164345099Y-51292747D01*
X164321411Y-51375752D01*
X164286237Y-51454584D01*
X164236837Y-51672099D01*
X164175627Y-51886579D01*
X164168587Y-51972610D01*
X164149469Y-52056790D01*
X164143454Y-52279758D01*
X164125263Y-52502061D01*
X164135143Y-52587819D01*
X164132815Y-52674105D01*
X164153191Y-52793251D01*
X163697125Y-53249317D01*
X163577495Y-53347495D01*
X163185731Y-53824861D01*
X163036901Y-54103302D01*
X160847889Y-56143855D01*
X160825676Y-56162085D01*
X160820961Y-56166800D01*
X160753883Y-56222768D01*
X160707378Y-56280383D01*
X160466560Y-56521202D01*
X160407677Y-56527001D01*
X160405663Y-56527199D01*
X160322942Y-56527403D01*
X160245804Y-56542944D01*
X160167483Y-56550658D01*
X160088313Y-56574674D01*
X160007219Y-56591012D01*
X159934592Y-56621305D01*
X159859284Y-56644149D01*
X159786325Y-56683146D01*
X159784463Y-56683923D01*
X159715442Y-56721034D01*
X159575247Y-56795970D01*
X159573677Y-56797258D01*
X157876185Y-57709965D01*
X157838700Y-57713657D01*
X157530501Y-57807148D01*
X157246464Y-57958969D01*
X156997502Y-58163286D01*
X156946291Y-58225687D01*
X156760682Y-58411296D01*
X156698287Y-58462502D01*
X156689710Y-58472953D01*
X155614285Y-58686868D01*
X154213156Y-59267235D01*
X152952174Y-60109796D01*
X151879796Y-61182174D01*
X151037235Y-62443156D01*
X150456868Y-63844285D01*
X150161000Y-65331715D01*
X67353170Y-65331715D01*
X67584760Y-64985117D01*
X68059818Y-63838226D01*
X68302000Y-62620693D01*
X68302000Y-61379307D01*
X68059818Y-60161774D01*
X67584760Y-59014883D01*
X66895083Y-57982709D01*
X66017291Y-57104917D01*
X64985117Y-56415240D01*
X63838226Y-55940182D01*
X62844615Y-55742541D01*
X63763226Y-55559818D01*
X64910117Y-55084760D01*
X65942291Y-54395083D01*
X66820083Y-53517291D01*
X67509760Y-52485117D01*
X67984818Y-51338226D01*
X68025242Y-51135000D01*
X79622762Y-51135000D01*
X85112084Y-56624324D01*
X85163286Y-56686714D01*
X85412248Y-56891031D01*
X85557476Y-56968657D01*
X85696285Y-57042852D01*
X86004483Y-57136343D01*
X86325000Y-57167911D01*
X86405322Y-57160000D01*
X113494681Y-57160000D01*
X113575000Y-57167911D01*
X113655319Y-57160000D01*
X113655322Y-57160000D01*
X113895516Y-57136343D01*
X114203715Y-57042852D01*
X114487752Y-56891031D01*
X114736714Y-56686714D01*
X114787925Y-56624313D01*
X118873271Y-52538967D01*
X119465000Y-52538967D01*
X119465000Y-52861033D01*
X119527832Y-53176912D01*
X119651082Y-53474463D01*
X119830013Y-53742252D01*
X120057748Y-53969987D01*
X120325537Y-54148918D01*
X120623088Y-54272168D01*
X120938967Y-54335000D01*
X121261033Y-54335000D01*
X121576912Y-54272168D01*
X121874463Y-54148918D01*
X122142252Y-53969987D01*
X122369987Y-53742252D01*
X122548918Y-53474463D01*
X122672168Y-53176912D01*
X122735000Y-52861033D01*
X122735000Y-52538967D01*
X122672168Y-52223088D01*
X122548918Y-51925537D01*
X122369987Y-51657748D01*
X122142252Y-51430013D01*
X121874463Y-51251082D01*
X121576912Y-51127832D01*
X121261033Y-51065000D01*
X120938967Y-51065000D01*
X120623088Y-51127832D01*
X120325537Y-51251082D01*
X120057748Y-51430013D01*
X119830013Y-51657748D01*
X119651082Y-51925537D01*
X119527832Y-52223088D01*
X119465000Y-52538967D01*
X118873271Y-52538967D01*
X122312915Y-49099324D01*
X122369987Y-49042252D01*
X122414828Y-48975143D01*
X122466030Y-48912753D01*
X122504077Y-48841572D01*
X122548918Y-48774463D01*
X122579804Y-48699897D01*
X122617852Y-48628715D01*
X122641281Y-48551481D01*
X122672168Y-48476912D01*
X122687915Y-48397746D01*
X122688783Y-48394882D01*
X136112000Y-48394882D01*
X136112000Y-48745118D01*
X136180328Y-49088623D01*
X136314357Y-49412199D01*
X136508937Y-49703409D01*
X136756591Y-49951063D01*
X137047801Y-50145643D01*
X137371377Y-50279672D01*
X137714882Y-50348000D01*
X138065118Y-50348000D01*
X138408623Y-50279672D01*
X138732199Y-50145643D01*
X139023409Y-49951063D01*
X139271063Y-49703409D01*
X139465643Y-49412199D01*
X139599672Y-49088623D01*
X139668000Y-48745118D01*
X139668000Y-48394882D01*
X139599672Y-48051377D01*
X139465643Y-47727801D01*
X139271063Y-47436591D01*
X139023409Y-47188937D01*
X138732199Y-46994357D01*
X138408623Y-46860328D01*
X138065118Y-46792000D01*
X137714882Y-46792000D01*
X137371377Y-46860328D01*
X137047801Y-46994357D01*
X136756591Y-47188937D01*
X136508937Y-47436591D01*
X136314357Y-47727801D01*
X136180328Y-48051377D01*
X136112000Y-48394882D01*
X122688783Y-48394882D01*
X122711342Y-48320517D01*
X122719253Y-48240200D01*
X122735000Y-48161033D01*
X122735000Y-48080320D01*
X122742911Y-48000001D01*
X122735000Y-47919681D01*
X122735000Y-47838967D01*
X122719253Y-47759799D01*
X122711342Y-47679484D01*
X122687916Y-47602257D01*
X122672168Y-47523088D01*
X122641279Y-47448517D01*
X122617852Y-47371286D01*
X122579806Y-47300108D01*
X122548918Y-47225537D01*
X122504074Y-47158424D01*
X122466030Y-47087248D01*
X122414831Y-47024862D01*
X122369987Y-46957748D01*
X122312911Y-46900672D01*
X122261713Y-46838287D01*
X122199328Y-46787089D01*
X122142252Y-46730013D01*
X122075138Y-46685169D01*
X122012752Y-46633970D01*
X121941576Y-46595926D01*
X121874463Y-46551082D01*
X121799892Y-46520194D01*
X121728714Y-46482148D01*
X121651483Y-46458721D01*
X121576912Y-46427832D01*
X121497743Y-46412084D01*
X121420516Y-46388658D01*
X121340201Y-46380747D01*
X121261033Y-46365000D01*
X121180319Y-46365000D01*
X121099999Y-46357089D01*
X121019680Y-46365000D01*
X120938967Y-46365000D01*
X120859800Y-46380747D01*
X120779483Y-46388658D01*
X120702254Y-46412085D01*
X120623088Y-46427832D01*
X120548519Y-46458719D01*
X120471285Y-46482148D01*
X120400103Y-46520196D01*
X120325537Y-46551082D01*
X120258428Y-46595923D01*
X120187247Y-46633970D01*
X120124857Y-46685172D01*
X120057748Y-46730013D01*
X120000676Y-46787085D01*
X112897762Y-53890000D01*
X87002240Y-53890000D01*
X84561920Y-51449680D01*
X93297089Y-51449680D01*
X93328658Y-51770196D01*
X93422148Y-52078394D01*
X93450008Y-52130516D01*
X93573970Y-52362432D01*
X93778287Y-52611394D01*
X93840682Y-52662600D01*
X94087395Y-52909313D01*
X94138606Y-52971714D01*
X94387568Y-53176031D01*
X94671605Y-53327852D01*
X94979804Y-53421343D01*
X95219998Y-53445000D01*
X95220000Y-53445000D01*
X95300319Y-53452911D01*
X95380639Y-53445000D01*
X105709681Y-53445000D01*
X105790000Y-53452911D01*
X105870319Y-53445000D01*
X105870322Y-53445000D01*
X106110516Y-53421343D01*
X106418715Y-53327852D01*
X106702752Y-53176031D01*
X106951714Y-52971714D01*
X107002925Y-52909313D01*
X110341378Y-49570862D01*
X110421831Y-49537537D01*
X110705998Y-49347663D01*
X110947663Y-49105998D01*
X111137537Y-48821831D01*
X111268325Y-48506081D01*
X111335000Y-48170883D01*
X111335000Y-47829117D01*
X111268325Y-47493919D01*
X111137537Y-47178169D01*
X110947663Y-46894002D01*
X110705998Y-46652337D01*
X110421831Y-46462463D01*
X110106081Y-46331675D01*
X109770883Y-46265000D01*
X109429117Y-46265000D01*
X109093919Y-46331675D01*
X108778169Y-46462463D01*
X108494002Y-46652337D01*
X108252337Y-46894002D01*
X108062463Y-47178169D01*
X108029138Y-47258622D01*
X105112762Y-50175000D01*
X96575000Y-50175000D01*
X96575000Y-48119678D01*
X96551343Y-47879484D01*
X96457852Y-47571285D01*
X96306031Y-47287248D01*
X96236878Y-47202985D01*
X96226293Y-47168090D01*
X96097634Y-46927384D01*
X95924486Y-46716404D01*
X95713506Y-46543256D01*
X95472800Y-46414597D01*
X95211619Y-46335368D01*
X94940000Y-46308616D01*
X94668382Y-46335368D01*
X94407201Y-46414597D01*
X94166495Y-46543256D01*
X93955515Y-46716404D01*
X93782366Y-46927384D01*
X93653707Y-47168090D01*
X93643121Y-47202986D01*
X93573969Y-47287249D01*
X93422148Y-47571286D01*
X93328657Y-47879485D01*
X93305000Y-48119679D01*
X93305001Y-51369351D01*
X93297089Y-51449680D01*
X84561920Y-51449680D01*
X81512925Y-48400687D01*
X81461714Y-48338286D01*
X81212752Y-48133969D01*
X80928715Y-47982148D01*
X80620516Y-47888657D01*
X80380322Y-47865000D01*
X80380319Y-47865000D01*
X80300000Y-47857089D01*
X80219681Y-47865000D01*
X68025242Y-47865000D01*
X67984818Y-47661774D01*
X67509760Y-46514883D01*
X66820083Y-45482709D01*
X65942291Y-44604917D01*
X64910117Y-43915240D01*
X63763226Y-43440182D01*
X62844615Y-43257459D01*
X63838226Y-43059818D01*
X64985117Y-42584760D01*
X66017291Y-41895083D01*
X66052374Y-41860000D01*
X78422762Y-41860000D01*
X85862080Y-49299319D01*
X85913286Y-49361714D01*
X86162248Y-49566031D01*
X86446285Y-49717852D01*
X86754484Y-49811343D01*
X86994678Y-49835000D01*
X86994680Y-49835000D01*
X87074999Y-49842911D01*
X87155319Y-49835000D01*
X89059999Y-49835000D01*
X89086494Y-49856744D01*
X89327200Y-49985403D01*
X89588381Y-50064632D01*
X89860000Y-50091384D01*
X90131618Y-50064632D01*
X90392799Y-49985403D01*
X90633505Y-49856744D01*
X90844485Y-49683596D01*
X91017634Y-49472616D01*
X91146293Y-49231910D01*
X91156878Y-49197015D01*
X91226031Y-49112752D01*
X91377852Y-48828715D01*
X91471343Y-48520516D01*
X91502911Y-48200000D01*
X91471343Y-47879484D01*
X91377852Y-47571285D01*
X91226031Y-47287248D01*
X91156878Y-47202985D01*
X91146293Y-47168090D01*
X91017634Y-46927384D01*
X90844486Y-46716404D01*
X90633506Y-46543256D01*
X90392800Y-46414597D01*
X90131619Y-46335368D01*
X89860000Y-46308616D01*
X89588382Y-46335368D01*
X89327201Y-46414597D01*
X89086495Y-46543256D01*
X89060000Y-46565000D01*
X87752239Y-46565000D01*
X83736256Y-42549017D01*
X89365510Y-42549017D01*
X89365510Y-42870983D01*
X89428322Y-43186763D01*
X89551533Y-43484222D01*
X89730408Y-43751927D01*
X89958073Y-43979592D01*
X90225778Y-44158467D01*
X90523237Y-44281678D01*
X90839017Y-44344490D01*
X91160983Y-44344490D01*
X91476763Y-44281678D01*
X91774222Y-44158467D01*
X92041927Y-43979592D01*
X92269592Y-43751927D01*
X92448467Y-43484222D01*
X92571678Y-43186763D01*
X92634490Y-42870983D01*
X92634490Y-42549017D01*
X92571678Y-42233237D01*
X92448467Y-41935778D01*
X92269592Y-41668073D01*
X92041927Y-41440408D01*
X91774222Y-41261533D01*
X91476763Y-41138322D01*
X91160983Y-41075510D01*
X90839017Y-41075510D01*
X90523237Y-41138322D01*
X90225778Y-41261533D01*
X89958073Y-41440408D01*
X89730408Y-41668073D01*
X89551533Y-41935778D01*
X89428322Y-42233237D01*
X89365510Y-42549017D01*
X83736256Y-42549017D01*
X80312925Y-39125687D01*
X80261714Y-39063286D01*
X80012752Y-38858969D01*
X79728715Y-38707148D01*
X79420516Y-38613657D01*
X79180322Y-38590000D01*
X79180319Y-38590000D01*
X79100000Y-38582089D01*
X79019681Y-38590000D01*
X68109193Y-38590000D01*
X68302000Y-37620693D01*
X68302000Y-36379307D01*
X68059818Y-35161774D01*
X67584760Y-34014883D01*
X66895083Y-32982709D01*
X66668473Y-32756099D01*
X69441700Y-32756099D01*
X69441700Y-33203901D01*
X69529061Y-33643097D01*
X69700427Y-34056812D01*
X69949212Y-34429145D01*
X70265855Y-34745788D01*
X70638188Y-34994573D01*
X71051903Y-35165939D01*
X71491099Y-35253300D01*
X71938901Y-35253300D01*
X72378097Y-35165939D01*
X72791812Y-34994573D01*
X73164145Y-34745788D01*
X73361117Y-34548816D01*
X82165000Y-34548816D01*
X82165000Y-34851184D01*
X82223989Y-35147743D01*
X82339701Y-35427095D01*
X82507688Y-35678505D01*
X82721495Y-35892312D01*
X82972905Y-36060299D01*
X83252257Y-36176011D01*
X83548816Y-36235000D01*
X83851184Y-36235000D01*
X84147743Y-36176011D01*
X84427095Y-36060299D01*
X84678505Y-35892312D01*
X84892312Y-35678505D01*
X85060299Y-35427095D01*
X85176011Y-35147743D01*
X85200000Y-35027142D01*
X85223989Y-35147743D01*
X85339701Y-35427095D01*
X85507688Y-35678505D01*
X85721495Y-35892312D01*
X85972905Y-36060299D01*
X86252257Y-36176011D01*
X86548816Y-36235000D01*
X86851184Y-36235000D01*
X87147743Y-36176011D01*
X87427095Y-36060299D01*
X87678505Y-35892312D01*
X87892312Y-35678505D01*
X88060299Y-35427095D01*
X88176011Y-35147743D01*
X88200000Y-35027142D01*
X88223989Y-35147743D01*
X88339701Y-35427095D01*
X88507688Y-35678505D01*
X88721495Y-35892312D01*
X88972905Y-36060299D01*
X89252257Y-36176011D01*
X89548816Y-36235000D01*
X89851184Y-36235000D01*
X90147743Y-36176011D01*
X90427095Y-36060299D01*
X90678505Y-35892312D01*
X90892312Y-35678505D01*
X91060299Y-35427095D01*
X91176011Y-35147743D01*
X91200000Y-35027142D01*
X91223989Y-35147743D01*
X91339701Y-35427095D01*
X91507688Y-35678505D01*
X91721495Y-35892312D01*
X91940001Y-36038313D01*
X91940001Y-36752668D01*
X91936324Y-36790000D01*
X91950998Y-36938985D01*
X91994454Y-37082246D01*
X92065026Y-37214276D01*
X92136201Y-37301002D01*
X92160000Y-37330001D01*
X92188998Y-37353799D01*
X97054213Y-42219015D01*
X97048322Y-42233237D01*
X96985510Y-42549017D01*
X96985510Y-42870983D01*
X97048322Y-43186763D01*
X97171533Y-43484222D01*
X97350408Y-43751927D01*
X97578073Y-43979592D01*
X97845778Y-44158467D01*
X98143237Y-44281678D01*
X98459017Y-44344490D01*
X98780983Y-44344490D01*
X99096763Y-44281678D01*
X99394222Y-44158467D01*
X99661927Y-43979592D01*
X99889592Y-43751927D01*
X100068467Y-43484222D01*
X100191678Y-43186763D01*
X100254490Y-42870983D01*
X100254490Y-42549017D01*
X100191678Y-42233237D01*
X100068467Y-41935778D01*
X99889592Y-41668073D01*
X99661927Y-41440408D01*
X99394222Y-41261533D01*
X99096763Y-41138322D01*
X98780983Y-41075510D01*
X98459017Y-41075510D01*
X98143237Y-41138322D01*
X98129015Y-41144213D01*
X98053819Y-41069017D01*
X107805510Y-41069017D01*
X107805510Y-41390983D01*
X107868322Y-41706763D01*
X107991533Y-42004222D01*
X108170408Y-42271927D01*
X108398073Y-42499592D01*
X108665778Y-42678467D01*
X108963237Y-42801678D01*
X109279017Y-42864490D01*
X109600983Y-42864490D01*
X109916763Y-42801678D01*
X110214222Y-42678467D01*
X110481927Y-42499592D01*
X110709592Y-42271927D01*
X110888467Y-42004222D01*
X111011678Y-41706763D01*
X111074490Y-41390983D01*
X111074490Y-41069017D01*
X115425510Y-41069017D01*
X115425510Y-41390983D01*
X115488322Y-41706763D01*
X115611533Y-42004222D01*
X115790408Y-42271927D01*
X116018073Y-42499592D01*
X116285778Y-42678467D01*
X116583237Y-42801678D01*
X116899017Y-42864490D01*
X117220983Y-42864490D01*
X117536763Y-42801678D01*
X117834222Y-42678467D01*
X118101927Y-42499592D01*
X118329592Y-42271927D01*
X118508467Y-42004222D01*
X118631678Y-41706763D01*
X118694490Y-41390983D01*
X118694490Y-41069017D01*
X118631678Y-40753237D01*
X118508467Y-40455778D01*
X118329592Y-40188073D01*
X118101927Y-39960408D01*
X117834222Y-39781533D01*
X117536763Y-39658322D01*
X117220983Y-39595510D01*
X116899017Y-39595510D01*
X116583237Y-39658322D01*
X116285778Y-39781533D01*
X116018073Y-39960408D01*
X115790408Y-40188073D01*
X115611533Y-40455778D01*
X115488322Y-40753237D01*
X115425510Y-41069017D01*
X111074490Y-41069017D01*
X111011678Y-40753237D01*
X110888467Y-40455778D01*
X110709592Y-40188073D01*
X110481927Y-39960408D01*
X110214222Y-39781533D01*
X109916763Y-39658322D01*
X109600983Y-39595510D01*
X109279017Y-39595510D01*
X108963237Y-39658322D01*
X108665778Y-39781533D01*
X108398073Y-39960408D01*
X108170408Y-40188073D01*
X107991533Y-40455778D01*
X107868322Y-40753237D01*
X107805510Y-41069017D01*
X98053819Y-41069017D01*
X96123819Y-39139017D01*
X123565510Y-39139017D01*
X123565510Y-39460983D01*
X123628322Y-39776763D01*
X123751533Y-40074222D01*
X123930408Y-40341927D01*
X124158073Y-40569592D01*
X124425778Y-40748467D01*
X124723237Y-40871678D01*
X125039017Y-40934490D01*
X125360983Y-40934490D01*
X125676763Y-40871678D01*
X125974222Y-40748467D01*
X126241927Y-40569592D01*
X126469592Y-40341927D01*
X126648467Y-40074222D01*
X126771678Y-39776763D01*
X126834490Y-39460983D01*
X126834490Y-39139017D01*
X126771678Y-38823237D01*
X126648467Y-38525778D01*
X126499494Y-38302824D01*
X129514430Y-38302824D01*
X129514430Y-39437177D01*
X129534478Y-39640729D01*
X129613707Y-39901910D01*
X129742366Y-40142616D01*
X129915515Y-40353596D01*
X130126495Y-40526744D01*
X130367201Y-40655403D01*
X130628382Y-40734632D01*
X130900000Y-40761384D01*
X131171619Y-40734632D01*
X131432800Y-40655403D01*
X131673506Y-40526744D01*
X131884486Y-40353596D01*
X132057634Y-40142616D01*
X132170000Y-39932392D01*
X132282366Y-40142616D01*
X132455515Y-40353596D01*
X132666495Y-40526744D01*
X132907201Y-40655403D01*
X133168382Y-40734632D01*
X133440000Y-40761384D01*
X133711619Y-40734632D01*
X133972800Y-40655403D01*
X134213506Y-40526744D01*
X134424486Y-40353596D01*
X134597634Y-40142616D01*
X134710000Y-39932392D01*
X134822366Y-40142616D01*
X134995515Y-40353596D01*
X135206495Y-40526744D01*
X135447201Y-40655403D01*
X135708382Y-40734632D01*
X135980000Y-40761384D01*
X136251619Y-40734632D01*
X136512800Y-40655403D01*
X136753506Y-40526744D01*
X136964486Y-40353596D01*
X137137634Y-40142616D01*
X137193840Y-40037460D01*
X142068616Y-40037460D01*
X142095368Y-40309079D01*
X142174597Y-40570260D01*
X142303256Y-40810966D01*
X142476404Y-41021946D01*
X142687384Y-41195094D01*
X142928090Y-41323753D01*
X143189271Y-41402982D01*
X143392823Y-41423030D01*
X144527177Y-41423030D01*
X144730729Y-41402982D01*
X144991910Y-41323753D01*
X145232616Y-41195094D01*
X145443596Y-41021946D01*
X145616744Y-40810966D01*
X145745403Y-40570260D01*
X145824632Y-40309079D01*
X145851384Y-40037460D01*
X145824632Y-39765841D01*
X145745403Y-39504660D01*
X145616744Y-39263954D01*
X145443596Y-39052974D01*
X145232616Y-38879826D01*
X144991910Y-38751167D01*
X144730729Y-38671938D01*
X144527177Y-38651890D01*
X143392823Y-38651890D01*
X143189271Y-38671938D01*
X142928090Y-38751167D01*
X142687384Y-38879826D01*
X142476404Y-39052974D01*
X142303256Y-39263954D01*
X142174597Y-39504660D01*
X142095368Y-39765841D01*
X142068616Y-40037460D01*
X137193840Y-40037460D01*
X137266293Y-39901910D01*
X137345522Y-39640729D01*
X137365570Y-39437177D01*
X137365570Y-38302823D01*
X137345522Y-38099271D01*
X137266293Y-37838090D01*
X137137634Y-37597384D01*
X136964485Y-37386404D01*
X136753505Y-37213256D01*
X136512799Y-37084597D01*
X136251618Y-37005368D01*
X135980000Y-36978616D01*
X135708381Y-37005368D01*
X135447200Y-37084597D01*
X135206494Y-37213256D01*
X134995514Y-37386405D01*
X134822366Y-37597385D01*
X134710000Y-37807608D01*
X134597634Y-37597384D01*
X134424485Y-37386404D01*
X134213505Y-37213256D01*
X133972799Y-37084597D01*
X133711618Y-37005368D01*
X133440000Y-36978616D01*
X133168381Y-37005368D01*
X132907200Y-37084597D01*
X132666494Y-37213256D01*
X132455514Y-37386405D01*
X132282366Y-37597385D01*
X132170000Y-37807608D01*
X132057634Y-37597384D01*
X131884485Y-37386404D01*
X131673505Y-37213256D01*
X131432799Y-37084597D01*
X131171618Y-37005368D01*
X130900000Y-36978616D01*
X130628381Y-37005368D01*
X130367200Y-37084597D01*
X130126494Y-37213256D01*
X129915514Y-37386405D01*
X129742366Y-37597385D01*
X129613707Y-37838091D01*
X129534478Y-38099272D01*
X129514430Y-38302824D01*
X126499494Y-38302824D01*
X126469592Y-38258073D01*
X126241927Y-38030408D01*
X125974222Y-37851533D01*
X125676763Y-37728322D01*
X125360983Y-37665510D01*
X125039017Y-37665510D01*
X124723237Y-37728322D01*
X124425778Y-37851533D01*
X124158073Y-38030408D01*
X123930408Y-38258073D01*
X123751533Y-38525778D01*
X123628322Y-38823237D01*
X123565510Y-39139017D01*
X96123819Y-39139017D01*
X93460000Y-36475199D01*
X93460000Y-36038313D01*
X93678505Y-35892312D01*
X93892312Y-35678505D01*
X94060299Y-35427095D01*
X94176011Y-35147743D01*
X94200000Y-35027142D01*
X94223989Y-35147743D01*
X94339701Y-35427095D01*
X94507688Y-35678505D01*
X94721495Y-35892312D01*
X94972905Y-36060299D01*
X95252257Y-36176011D01*
X95548816Y-36235000D01*
X95851184Y-36235000D01*
X96147743Y-36176011D01*
X96427095Y-36060299D01*
X96678505Y-35892312D01*
X96892312Y-35678505D01*
X97060299Y-35427095D01*
X97176011Y-35147743D01*
X97200000Y-35027142D01*
X97223989Y-35147743D01*
X97339701Y-35427095D01*
X97507688Y-35678505D01*
X97721495Y-35892312D01*
X97972905Y-36060299D01*
X98252257Y-36176011D01*
X98548816Y-36235000D01*
X98851184Y-36235000D01*
X99147743Y-36176011D01*
X99427095Y-36060299D01*
X99678505Y-35892312D01*
X99892312Y-35678505D01*
X100060299Y-35427095D01*
X100176011Y-35147743D01*
X100235000Y-34851184D01*
X100235000Y-34548816D01*
X100176011Y-34252257D01*
X100060299Y-33972905D01*
X99892312Y-33721495D01*
X99678505Y-33507688D01*
X99427095Y-33339701D01*
X99147743Y-33223989D01*
X98851184Y-33165000D01*
X98548816Y-33165000D01*
X98252257Y-33223989D01*
X97972905Y-33339701D01*
X97721495Y-33507688D01*
X97507688Y-33721495D01*
X97339701Y-33972905D01*
X97223989Y-34252257D01*
X97200000Y-34372858D01*
X97176011Y-34252257D01*
X97060299Y-33972905D01*
X96892312Y-33721495D01*
X96678505Y-33507688D01*
X96427095Y-33339701D01*
X96147743Y-33223989D01*
X95851184Y-33165000D01*
X95548816Y-33165000D01*
X95252257Y-33223989D01*
X94972905Y-33339701D01*
X94721495Y-33507688D01*
X94507688Y-33721495D01*
X94339701Y-33972905D01*
X94223989Y-34252257D01*
X94200000Y-34372858D01*
X94176011Y-34252257D01*
X94060299Y-33972905D01*
X93892312Y-33721495D01*
X93678505Y-33507688D01*
X93427095Y-33339701D01*
X93147743Y-33223989D01*
X92851184Y-33165000D01*
X92548816Y-33165000D01*
X92252257Y-33223989D01*
X91972905Y-33339701D01*
X91721495Y-33507688D01*
X91507688Y-33721495D01*
X91339701Y-33972905D01*
X91223989Y-34252257D01*
X91200000Y-34372858D01*
X91176011Y-34252257D01*
X91060299Y-33972905D01*
X90892312Y-33721495D01*
X90678505Y-33507688D01*
X90427095Y-33339701D01*
X90147743Y-33223989D01*
X89851184Y-33165000D01*
X89548816Y-33165000D01*
X89252257Y-33223989D01*
X88972905Y-33339701D01*
X88721495Y-33507688D01*
X88507688Y-33721495D01*
X88339701Y-33972905D01*
X88223989Y-34252257D01*
X88200000Y-34372858D01*
X88176011Y-34252257D01*
X88060299Y-33972905D01*
X87892312Y-33721495D01*
X87678505Y-33507688D01*
X87427095Y-33339701D01*
X87147743Y-33223989D01*
X86851184Y-33165000D01*
X86548816Y-33165000D01*
X86252257Y-33223989D01*
X85972905Y-33339701D01*
X85721495Y-33507688D01*
X85507688Y-33721495D01*
X85339701Y-33972905D01*
X85223989Y-34252257D01*
X85200000Y-34372858D01*
X85176011Y-34252257D01*
X85060299Y-33972905D01*
X84892312Y-33721495D01*
X84678505Y-33507688D01*
X84427095Y-33339701D01*
X84147743Y-33223989D01*
X83851184Y-33165000D01*
X83548816Y-33165000D01*
X83252257Y-33223989D01*
X82972905Y-33339701D01*
X82721495Y-33507688D01*
X82507688Y-33721495D01*
X82339701Y-33972905D01*
X82223989Y-34252257D01*
X82165000Y-34548816D01*
X73361117Y-34548816D01*
X73480788Y-34429145D01*
X73729573Y-34056812D01*
X73900939Y-33643097D01*
X73988300Y-33203901D01*
X73988300Y-32756099D01*
X73955026Y-32588816D01*
X79165000Y-32588816D01*
X79165000Y-32891184D01*
X79223989Y-33187743D01*
X79339701Y-33467095D01*
X79507688Y-33718505D01*
X79721495Y-33932312D01*
X79972905Y-34100299D01*
X80252257Y-34216011D01*
X80548816Y-34275000D01*
X80851184Y-34275000D01*
X81147743Y-34216011D01*
X81427095Y-34100299D01*
X81678505Y-33932312D01*
X81892312Y-33718505D01*
X82060299Y-33467095D01*
X82176011Y-33187743D01*
X82235000Y-32891184D01*
X82235000Y-32588816D01*
X82176011Y-32292257D01*
X82060299Y-32012905D01*
X81892312Y-31761495D01*
X81678505Y-31547688D01*
X81427095Y-31379701D01*
X81147743Y-31263989D01*
X80851184Y-31205000D01*
X80548816Y-31205000D01*
X80252257Y-31263989D01*
X79972905Y-31379701D01*
X79721495Y-31547688D01*
X79507688Y-31761495D01*
X79339701Y-32012905D01*
X79223989Y-32292257D01*
X79165000Y-32588816D01*
X73955026Y-32588816D01*
X73900939Y-32316903D01*
X73729573Y-31903188D01*
X73480788Y-31530855D01*
X73164145Y-31214212D01*
X72791812Y-30965427D01*
X72378097Y-30794061D01*
X71938901Y-30706700D01*
X71491099Y-30706700D01*
X71051903Y-30794061D01*
X70638188Y-30965427D01*
X70265855Y-31214212D01*
X69949212Y-31530855D01*
X69700427Y-31903188D01*
X69529061Y-32316903D01*
X69441700Y-32756099D01*
X66668473Y-32756099D01*
X66017291Y-32104917D01*
X64985117Y-31415240D01*
X63838226Y-30940182D01*
X62620693Y-30698000D01*
X61379307Y-30698000D01*
X60161774Y-30940182D01*
X59014883Y-31415240D01*
X57982709Y-32104917D01*
X57104917Y-32982709D01*
X56415240Y-34014883D01*
X55940182Y-35161774D01*
X55698000Y-36379307D01*
X55698000Y-37620693D01*
X55940182Y-38838226D01*
X56415240Y-39985117D01*
X57104917Y-41017291D01*
X57982709Y-41895083D01*
X59014883Y-42584760D01*
X60161774Y-43059818D01*
X61080385Y-43242541D01*
X60086774Y-43440182D01*
X58939883Y-43915240D01*
X57907709Y-44604917D01*
X57029917Y-45482709D01*
X56340240Y-46514883D01*
X55865182Y-47661774D01*
X55623000Y-48879307D01*
X52700000Y-48879307D01*
X52700000Y-37224801D01*
X59844802Y-30080000D01*
X109605199Y-30080000D01*
X109940000Y-30414802D01*
X109940001Y-33361687D01*
X109721495Y-33507688D01*
X109507688Y-33721495D01*
X109339701Y-33972905D01*
X109223989Y-34252257D01*
X109200000Y-34372858D01*
X109176011Y-34252257D01*
X109060299Y-33972905D01*
X108892312Y-33721495D01*
X108678505Y-33507688D01*
X108427095Y-33339701D01*
X108147743Y-33223989D01*
X107851184Y-33165000D01*
X107548816Y-33165000D01*
X107252257Y-33223989D01*
X106972905Y-33339701D01*
X106721495Y-33507688D01*
X106507688Y-33721495D01*
X106339701Y-33972905D01*
X106223989Y-34252257D01*
X106200000Y-34372858D01*
X106176011Y-34252257D01*
X106060299Y-33972905D01*
X105892312Y-33721495D01*
X105678505Y-33507688D01*
X105427095Y-33339701D01*
X105147743Y-33223989D01*
X104851184Y-33165000D01*
X104548816Y-33165000D01*
X104252257Y-33223989D01*
X103972905Y-33339701D01*
X103721495Y-33507688D01*
X103507688Y-33721495D01*
X103339701Y-33972905D01*
X103223989Y-34252257D01*
X103165000Y-34548816D01*
X103165000Y-34851184D01*
X103223989Y-35147743D01*
X103339701Y-35427095D01*
X103507688Y-35678505D01*
X103721495Y-35892312D01*
X103972905Y-36060299D01*
X104252257Y-36176011D01*
X104548816Y-36235000D01*
X104851184Y-36235000D01*
X105147743Y-36176011D01*
X105427095Y-36060299D01*
X105678505Y-35892312D01*
X105892312Y-35678505D01*
X106060299Y-35427095D01*
X106176011Y-35147743D01*
X106200000Y-35027142D01*
X106223989Y-35147743D01*
X106339701Y-35427095D01*
X106507688Y-35678505D01*
X106721495Y-35892312D01*
X106972905Y-36060299D01*
X107252257Y-36176011D01*
X107548816Y-36235000D01*
X107851184Y-36235000D01*
X108147743Y-36176011D01*
X108427095Y-36060299D01*
X108678505Y-35892312D01*
X108892312Y-35678505D01*
X109060299Y-35427095D01*
X109176011Y-35147743D01*
X109200000Y-35027142D01*
X109223989Y-35147743D01*
X109339701Y-35427095D01*
X109507688Y-35678505D01*
X109721495Y-35892312D01*
X109972905Y-36060299D01*
X110252257Y-36176011D01*
X110548816Y-36235000D01*
X110851184Y-36235000D01*
X111147743Y-36176011D01*
X111427095Y-36060299D01*
X111678505Y-35892312D01*
X111892312Y-35678505D01*
X112060299Y-35427095D01*
X112176011Y-35147743D01*
X112200000Y-35027142D01*
X112223989Y-35147743D01*
X112339701Y-35427095D01*
X112507688Y-35678505D01*
X112721495Y-35892312D01*
X112972905Y-36060299D01*
X113252257Y-36176011D01*
X113548816Y-36235000D01*
X113851184Y-36235000D01*
X114147743Y-36176011D01*
X114427095Y-36060299D01*
X114678505Y-35892312D01*
X114892312Y-35678505D01*
X115060299Y-35427095D01*
X115176011Y-35147743D01*
X115200000Y-35027142D01*
X115223989Y-35147743D01*
X115339701Y-35427095D01*
X115507688Y-35678505D01*
X115721495Y-35892312D01*
X115972905Y-36060299D01*
X116252257Y-36176011D01*
X116548816Y-36235000D01*
X116851184Y-36235000D01*
X117147743Y-36176011D01*
X117427095Y-36060299D01*
X117678505Y-35892312D01*
X117892312Y-35678505D01*
X118060299Y-35427095D01*
X118176011Y-35147743D01*
X118213860Y-34957460D01*
X142068616Y-34957460D01*
X142095368Y-35229079D01*
X142174597Y-35490260D01*
X142303256Y-35730966D01*
X142476404Y-35941946D01*
X142687384Y-36115094D01*
X142928090Y-36243753D01*
X143189271Y-36322982D01*
X143392823Y-36343030D01*
X144527177Y-36343030D01*
X144730729Y-36322982D01*
X144991910Y-36243753D01*
X145232616Y-36115094D01*
X145443596Y-35941946D01*
X145616744Y-35730966D01*
X145698109Y-35578740D01*
X163315000Y-35578740D01*
X163315000Y-35871260D01*
X163372068Y-36158158D01*
X163484010Y-36428411D01*
X163646525Y-36671632D01*
X163853368Y-36878475D01*
X164096589Y-37040990D01*
X164366842Y-37152932D01*
X164653740Y-37210000D01*
X164946260Y-37210000D01*
X165233158Y-37152932D01*
X165503411Y-37040990D01*
X165746632Y-36878475D01*
X165953475Y-36671632D01*
X166115990Y-36428411D01*
X166227932Y-36158158D01*
X166285000Y-35871260D01*
X166285000Y-35578740D01*
X166227932Y-35291842D01*
X166115990Y-35021589D01*
X165953475Y-34778368D01*
X165746632Y-34571525D01*
X165503411Y-34409010D01*
X165233158Y-34297068D01*
X164946260Y-34240000D01*
X164653740Y-34240000D01*
X164366842Y-34297068D01*
X164096589Y-34409010D01*
X163853368Y-34571525D01*
X163646525Y-34778368D01*
X163484010Y-35021589D01*
X163372068Y-35291842D01*
X163315000Y-35578740D01*
X145698109Y-35578740D01*
X145745403Y-35490260D01*
X145824632Y-35229079D01*
X145851384Y-34957460D01*
X145824632Y-34685841D01*
X145745403Y-34424660D01*
X145616744Y-34183954D01*
X145443596Y-33972974D01*
X145232616Y-33799826D01*
X144991910Y-33671167D01*
X144730729Y-33591938D01*
X144527177Y-33571890D01*
X143392823Y-33571890D01*
X143189271Y-33591938D01*
X142928090Y-33671167D01*
X142687384Y-33799826D01*
X142476404Y-33972974D01*
X142303256Y-34183954D01*
X142174597Y-34424660D01*
X142095368Y-34685841D01*
X142068616Y-34957460D01*
X118213860Y-34957460D01*
X118235000Y-34851184D01*
X118235000Y-34548816D01*
X118176011Y-34252257D01*
X118060299Y-33972905D01*
X117892312Y-33721495D01*
X117678505Y-33507688D01*
X117427095Y-33339701D01*
X117147743Y-33223989D01*
X116851184Y-33165000D01*
X116548816Y-33165000D01*
X116252257Y-33223989D01*
X115972905Y-33339701D01*
X115721495Y-33507688D01*
X115507688Y-33721495D01*
X115339701Y-33972905D01*
X115223989Y-34252257D01*
X115200000Y-34372858D01*
X115176011Y-34252257D01*
X115060299Y-33972905D01*
X114892312Y-33721495D01*
X114678505Y-33507688D01*
X114427095Y-33339701D01*
X114147743Y-33223989D01*
X113851184Y-33165000D01*
X113548816Y-33165000D01*
X113252257Y-33223989D01*
X112972905Y-33339701D01*
X112721495Y-33507688D01*
X112507688Y-33721495D01*
X112339701Y-33972905D01*
X112223989Y-34252257D01*
X112200000Y-34372858D01*
X112176011Y-34252257D01*
X112060299Y-33972905D01*
X111892312Y-33721495D01*
X111678505Y-33507688D01*
X111460000Y-33361687D01*
X111460000Y-32588816D01*
X118165000Y-32588816D01*
X118165000Y-32891184D01*
X118223989Y-33187743D01*
X118339701Y-33467095D01*
X118507688Y-33718505D01*
X118721495Y-33932312D01*
X118972905Y-34100299D01*
X119252257Y-34216011D01*
X119548816Y-34275000D01*
X119851184Y-34275000D01*
X120147743Y-34216011D01*
X120427095Y-34100299D01*
X120678505Y-33932312D01*
X120892312Y-33718505D01*
X121060299Y-33467095D01*
X121176011Y-33187743D01*
X121235000Y-32891184D01*
X121235000Y-32588816D01*
X121176011Y-32292257D01*
X121060299Y-32012905D01*
X120892312Y-31761495D01*
X120678505Y-31547688D01*
X120635596Y-31519017D01*
X123565510Y-31519017D01*
X123565510Y-31840983D01*
X123628322Y-32156763D01*
X123751533Y-32454222D01*
X123930408Y-32721927D01*
X124158073Y-32949592D01*
X124425778Y-33128467D01*
X124723237Y-33251678D01*
X125039017Y-33314490D01*
X125360983Y-33314490D01*
X125676763Y-33251678D01*
X125974222Y-33128467D01*
X126241927Y-32949592D01*
X126435420Y-32756099D01*
X171051700Y-32756099D01*
X171051700Y-33203901D01*
X171139061Y-33643097D01*
X171310427Y-34056812D01*
X171559212Y-34429145D01*
X171875855Y-34745788D01*
X172248188Y-34994573D01*
X172661903Y-35165939D01*
X173101099Y-35253300D01*
X173548901Y-35253300D01*
X173988097Y-35165939D01*
X174401812Y-34994573D01*
X174774145Y-34745788D01*
X175090788Y-34429145D01*
X175339573Y-34056812D01*
X175510939Y-33643097D01*
X175598300Y-33203901D01*
X175598300Y-32756099D01*
X175510939Y-32316903D01*
X175339573Y-31903188D01*
X175090788Y-31530855D01*
X174774145Y-31214212D01*
X174401812Y-30965427D01*
X173988097Y-30794061D01*
X173548901Y-30706700D01*
X173101099Y-30706700D01*
X172661903Y-30794061D01*
X172248188Y-30965427D01*
X171875855Y-31214212D01*
X171559212Y-31530855D01*
X171310427Y-31903188D01*
X171139061Y-32316903D01*
X171051700Y-32756099D01*
X126435420Y-32756099D01*
X126469592Y-32721927D01*
X126648467Y-32454222D01*
X126771678Y-32156763D01*
X126834490Y-31840983D01*
X126834490Y-31519017D01*
X126771678Y-31203237D01*
X126648467Y-30905778D01*
X126469592Y-30638073D01*
X126241927Y-30410408D01*
X125974222Y-30231533D01*
X125676763Y-30108322D01*
X125360983Y-30045510D01*
X125039017Y-30045510D01*
X124723237Y-30108322D01*
X124425778Y-30231533D01*
X124158073Y-30410408D01*
X123930408Y-30638073D01*
X123751533Y-30905778D01*
X123628322Y-31203237D01*
X123565510Y-31519017D01*
X120635596Y-31519017D01*
X120427095Y-31379701D01*
X120147743Y-31263989D01*
X119851184Y-31205000D01*
X119548816Y-31205000D01*
X119252257Y-31263989D01*
X118972905Y-31379701D01*
X118721495Y-31547688D01*
X118507688Y-31761495D01*
X118339701Y-32012905D01*
X118223989Y-32292257D01*
X118165000Y-32588816D01*
X111460000Y-32588816D01*
X111460000Y-30137333D01*
X111463677Y-30100000D01*
X111449003Y-29951014D01*
X111405546Y-29807753D01*
X111334974Y-29675724D01*
X111263799Y-29588997D01*
X111240001Y-29559999D01*
X111211004Y-29536202D01*
X110483803Y-28809002D01*
X110460001Y-28779999D01*
X110344276Y-28685026D01*
X110212247Y-28614454D01*
X110068986Y-28570997D01*
X109957333Y-28560000D01*
X109957322Y-28560000D01*
X109920000Y-28556324D01*
X109882678Y-28560000D01*
X59567323Y-28560000D01*
X59530000Y-28556324D01*
X59492677Y-28560000D01*
X59492667Y-28560000D01*
X59381014Y-28570997D01*
X59237753Y-28614454D01*
X59105723Y-28685026D01*
X59022083Y-28753668D01*
X58989999Y-28779999D01*
X58966201Y-28808997D01*
X51428998Y-36346201D01*
X51400000Y-36369999D01*
X51376202Y-36398997D01*
X51376201Y-36398998D01*
X51305026Y-36485724D01*
X51234454Y-36617754D01*
X51190998Y-36761015D01*
X51176324Y-36910000D01*
X50710000Y-36910000D01*
X50710000Y-27910000D01*
X194290001Y-27910000D01*
X194290000Y-149290000D01*
M02*
