M48
; DRILL file {KiCad 5.1.0-060a0da~80~ubuntu16.04.1} date Mon Apr  8 13:55:44 2019
; FORMAT={-:-/ absolute / metric / decimal}
; #@! TF.CreationDate,2019-04-08T13:55:44+05:30
; #@! TF.GenerationSoftware,Kicad,Pcbnew,5.1.0-060a0da~80~ubuntu16.04.1
; #@! TF.FileFunction,Plated,1,2,PTH
FMAT,2
METRIC
T1C0.400
T2C1.001
T3C1.060
T4C1.200
T5C1.270
T6C1.300
T7C1.501
T8C3.277
T9C3.302
T10C5.334
T11C6.500
%
G90
G05
T1
X69.73Y-100.2
X72.61Y-93.26
X77.15Y-94.85
X78.177Y-106.447
X83.49Y-96.485
X84.915Y-113.185
X88.665Y-101.66
X88.665Y-101.66
X90.552Y-118.822
X95.865Y-101.66
X96.24Y-124.51
X103.365Y-128.99
X103.46Y-101.66
X111.19Y-128.99
X115.92Y-103.38
X117.79Y-128.99
X125.09Y-128.99
X127.095Y-109.18
X132.09Y-128.99
X138.095Y-109.18
X140.04Y-128.99
X148.64Y-128.99
X150.345Y-109.18
X159.935Y-128.99
X162.105Y-109.18
X163.068Y-75.178
X163.068Y-79.756
X163.068Y-85.752
X163.272Y-70.662
X163.748Y-93.552
X164.95Y-59.0
X166.9Y-64.3
X167.03Y-87.68
X167.748Y-72.452
X169.26Y-78.38
X169.35Y-61.06
X170.57Y-75.93
X170.595Y-109.18
X171.2Y-130.6
X177.61Y-109.18
T2
X143.96Y-34.957
X143.96Y-37.497
X143.96Y-40.037
X177.19Y-126.41
X177.19Y-134.03
X158.242Y-93.218
X158.242Y-95.758
X158.242Y-98.298
X182.05Y-107.66
X182.05Y-110.2
X182.05Y-112.74
X125.2Y-31.68
X125.2Y-39.3
X182.86Y-141.5
X185.4Y-141.5
X187.94Y-141.5
X76.935Y-87.75
X79.475Y-87.75
X82.015Y-87.75
X174.18Y-100.54
X181.8Y-100.54
X109.44Y-41.23
X117.06Y-41.23
X82.47Y-76.77
X82.47Y-79.31
X82.47Y-81.85
X91.0Y-42.71
X98.62Y-42.71
X181.8Y-128.06
X181.8Y-130.6
X181.8Y-133.14
X130.9Y-38.87
X133.44Y-38.87
X135.98Y-38.87
X89.86Y-48.2
X94.94Y-48.2
X182.66Y-121.4
X185.2Y-121.4
X187.74Y-121.4
X158.19Y-80.087
X158.19Y-82.627
X158.19Y-85.167
T3
X83.7Y-34.7
X86.7Y-34.7
X89.7Y-34.7
X92.7Y-34.7
X95.7Y-34.7
X98.7Y-34.7
X101.7Y-34.7
X104.7Y-34.7
X107.7Y-34.7
X110.7Y-34.7
X113.7Y-34.7
X116.7Y-34.7
T4
X159.8Y-35.725
X164.8Y-35.725
X121.1Y-48.0
X121.1Y-52.7
T5
X137.89Y-48.57
X80.7Y-32.74
X119.7Y-32.74
T6
X102.6Y-48.0
X109.6Y-48.0
T7
X175.0Y-80.412
X175.0Y-86.0
X175.0Y-91.588
X175.0Y-62.412
X175.0Y-68.0
X175.0Y-73.588
X175.0Y-44.412
X175.0Y-50.0
X175.0Y-55.588
T8
X71.715Y-32.98
X71.715Y-144.22
X173.325Y-32.98
X173.325Y-144.22
T9
X62.0Y-62.0
X62.0Y-37.0
X61.975Y-74.8
X61.925Y-49.5
X61.95Y-100.2
X61.975Y-87.675
T10
X157.86Y-66.09
X157.56Y-49.59
T11
X78.45Y-117.45
X162.45Y-117.45
T0
M30
