G04 #@! TF.GenerationSoftware,KiCad,Pcbnew,5.1.0-060a0da~80~ubuntu16.04.1*
G04 #@! TF.CreationDate,2019-04-08T13:55:54+05:30*
G04 #@! TF.ProjectId,vcu-power,7663752d-706f-4776-9572-2e6b69636164,rev?*
G04 #@! TF.SameCoordinates,Original*
G04 #@! TF.FileFunction,Legend,Top*
G04 #@! TF.FilePolarity,Positive*
%FSLAX46Y46*%
G04 Gerber Fmt 4.6, Leading zero omitted, Abs format (unit mm)*
G04 Created by KiCad (PCBNEW 5.1.0-060a0da~80~ubuntu16.04.1) date 2019-04-08 13:55:54*
%MOMM*%
%LPD*%
G04 APERTURE LIST*
%ADD10C,0.150000*%
%ADD11C,0.200000*%
%ADD12C,1.000000*%
%ADD13C,0.800000*%
%ADD14C,0.300000*%
G04 APERTURE END LIST*
D10*
X77679761Y-76172619D02*
X77584523Y-76125000D01*
X77489285Y-76029761D01*
X77346428Y-75886904D01*
X77251190Y-75839285D01*
X77155952Y-75839285D01*
X77203571Y-76077380D02*
X77108333Y-76029761D01*
X77013095Y-75934523D01*
X76965476Y-75744047D01*
X76965476Y-75410714D01*
X77013095Y-75220238D01*
X77108333Y-75125000D01*
X77203571Y-75077380D01*
X77394047Y-75077380D01*
X77489285Y-75125000D01*
X77584523Y-75220238D01*
X77632142Y-75410714D01*
X77632142Y-75744047D01*
X77584523Y-75934523D01*
X77489285Y-76029761D01*
X77394047Y-76077380D01*
X77203571Y-76077380D01*
X78536904Y-75077380D02*
X78060714Y-75077380D01*
X78013095Y-75553571D01*
X78060714Y-75505952D01*
X78155952Y-75458333D01*
X78394047Y-75458333D01*
X78489285Y-75505952D01*
X78536904Y-75553571D01*
X78584523Y-75648809D01*
X78584523Y-75886904D01*
X78536904Y-75982142D01*
X78489285Y-76029761D01*
X78394047Y-76077380D01*
X78155952Y-76077380D01*
X78060714Y-76029761D01*
X78013095Y-75982142D01*
X175392380Y-127680476D02*
X175392380Y-128251904D01*
X175392380Y-127966190D02*
X174392380Y-127966190D01*
X174535238Y-128061428D01*
X174630476Y-128156666D01*
X174678095Y-128251904D01*
X174392380Y-127061428D02*
X174392380Y-126966190D01*
X174440000Y-126870952D01*
X174487619Y-126823333D01*
X174582857Y-126775714D01*
X174773333Y-126728095D01*
X175011428Y-126728095D01*
X175201904Y-126775714D01*
X175297142Y-126823333D01*
X175344761Y-126870952D01*
X175392380Y-126966190D01*
X175392380Y-127061428D01*
X175344761Y-127156666D01*
X175297142Y-127204285D01*
X175201904Y-127251904D01*
X175011428Y-127299523D01*
X174773333Y-127299523D01*
X174582857Y-127251904D01*
X174487619Y-127204285D01*
X174440000Y-127156666D01*
X174392380Y-127061428D01*
X175392380Y-125728095D02*
X174916190Y-126061428D01*
X175392380Y-126299523D02*
X174392380Y-126299523D01*
X174392380Y-125918571D01*
X174440000Y-125823333D01*
X174487619Y-125775714D01*
X174582857Y-125728095D01*
X174725714Y-125728095D01*
X174820952Y-125775714D01*
X174868571Y-125823333D01*
X174916190Y-125918571D01*
X174916190Y-126299523D01*
D11*
X51242857Y-33252857D02*
X51457142Y-33324285D01*
X51528571Y-33395714D01*
X51600000Y-33538571D01*
X51600000Y-33752857D01*
X51528571Y-33895714D01*
X51457142Y-33967142D01*
X51314285Y-34038571D01*
X50742857Y-34038571D01*
X50742857Y-32538571D01*
X51242857Y-32538571D01*
X51385714Y-32610000D01*
X51457142Y-32681428D01*
X51528571Y-32824285D01*
X51528571Y-32967142D01*
X51457142Y-33110000D01*
X51385714Y-33181428D01*
X51242857Y-33252857D01*
X50742857Y-33252857D01*
X52885714Y-34038571D02*
X52885714Y-33252857D01*
X52814285Y-33110000D01*
X52671428Y-33038571D01*
X52385714Y-33038571D01*
X52242857Y-33110000D01*
X52885714Y-33967142D02*
X52742857Y-34038571D01*
X52385714Y-34038571D01*
X52242857Y-33967142D01*
X52171428Y-33824285D01*
X52171428Y-33681428D01*
X52242857Y-33538571D01*
X52385714Y-33467142D01*
X52742857Y-33467142D01*
X52885714Y-33395714D01*
X53385714Y-33038571D02*
X53957142Y-33038571D01*
X53600000Y-32538571D02*
X53600000Y-33824285D01*
X53671428Y-33967142D01*
X53814285Y-34038571D01*
X53957142Y-34038571D01*
X54100000Y-34181428D02*
X55242857Y-34181428D01*
X55600000Y-34038571D02*
X55600000Y-32538571D01*
X56171428Y-32538571D01*
X56314285Y-32610000D01*
X56385714Y-32681428D01*
X56457142Y-32824285D01*
X56457142Y-33038571D01*
X56385714Y-33181428D01*
X56314285Y-33252857D01*
X56171428Y-33324285D01*
X55600000Y-33324285D01*
X57314285Y-34038571D02*
X57171428Y-33967142D01*
X57100000Y-33895714D01*
X57028571Y-33752857D01*
X57028571Y-33324285D01*
X57100000Y-33181428D01*
X57171428Y-33110000D01*
X57314285Y-33038571D01*
X57528571Y-33038571D01*
X57671428Y-33110000D01*
X57742857Y-33181428D01*
X57814285Y-33324285D01*
X57814285Y-33752857D01*
X57742857Y-33895714D01*
X57671428Y-33967142D01*
X57528571Y-34038571D01*
X57314285Y-34038571D01*
X58385714Y-33967142D02*
X58528571Y-34038571D01*
X58814285Y-34038571D01*
X58957142Y-33967142D01*
X59028571Y-33824285D01*
X59028571Y-33752857D01*
X58957142Y-33610000D01*
X58814285Y-33538571D01*
X58600000Y-33538571D01*
X58457142Y-33467142D01*
X58385714Y-33324285D01*
X58385714Y-33252857D01*
X58457142Y-33110000D01*
X58600000Y-33038571D01*
X58814285Y-33038571D01*
X58957142Y-33110000D01*
D10*
X183876000Y-138452000D02*
X183876000Y-139595000D01*
X186924000Y-138452000D02*
X186924000Y-139595000D01*
X190734000Y-139595000D02*
X190734000Y-143278000D01*
X190734000Y-143278000D02*
X180066000Y-143278000D01*
X180066000Y-143278000D02*
X180066000Y-139595000D01*
X190734000Y-138452000D02*
X190734000Y-139595000D01*
X190734000Y-139595000D02*
X180066000Y-139595000D01*
X180066000Y-139595000D02*
X180066000Y-138452000D01*
X185400000Y-138452000D02*
X180066000Y-138452000D01*
X185400000Y-138452000D02*
X190734000Y-138452000D01*
D12*
X152450000Y-149450000D02*
X152450000Y-131450000D01*
X152450000Y-149450000D02*
X90450000Y-149450000D01*
X90450000Y-149450000D02*
X90450000Y-131450000D01*
X88450000Y-104450000D02*
X68450000Y-104450000D01*
X68450000Y-104450000D02*
X68450000Y-131450000D01*
X134450000Y-103450000D02*
X129450000Y-103450000D01*
X129450000Y-103450000D02*
X129450000Y-75450000D01*
X129450000Y-75450000D02*
X88450000Y-75450000D01*
X88450000Y-75450000D02*
X88450000Y-104450000D01*
X152450000Y-103450000D02*
X152450000Y-81450000D01*
X152450000Y-81450000D02*
X134450000Y-81450000D01*
X134450000Y-81450000D02*
X134450000Y-103450000D01*
X173450000Y-117450000D02*
X173450000Y-131450000D01*
X173450000Y-117450000D02*
X173450000Y-103450000D01*
X173450000Y-131450000D02*
X152450000Y-131450000D01*
X173450000Y-103450000D02*
X152450000Y-103450000D01*
X90450000Y-131450000D02*
X68450000Y-131450000D01*
D13*
X121700000Y-29700000D02*
X77700000Y-29700000D01*
X77700000Y-29700000D02*
X77700000Y-38700000D01*
X77700000Y-38700000D02*
X121700000Y-38700000D01*
X121700000Y-38700000D02*
X121700000Y-29700000D01*
X123100000Y-54700000D02*
X100600000Y-54700000D01*
X100600000Y-54700000D02*
X100600000Y-46200000D01*
X100600000Y-46200000D02*
X123100000Y-46200000D01*
X123100000Y-46200000D02*
X123100000Y-54700000D01*
D10*
X162375000Y-29475000D02*
X162375000Y-41975000D01*
X162515000Y-29479000D02*
X162515000Y-41971000D01*
X162655000Y-29485000D02*
X162655000Y-41965000D01*
X162795000Y-29495000D02*
X162795000Y-41955000D01*
X162935000Y-29507000D02*
X162935000Y-41943000D01*
X163075000Y-29523000D02*
X163075000Y-41927000D01*
X163215000Y-29542000D02*
X163215000Y-41908000D01*
X163355000Y-29565000D02*
X163355000Y-41885000D01*
X163495000Y-29590000D02*
X163495000Y-41860000D01*
X163635000Y-29619000D02*
X163635000Y-41831000D01*
X163775000Y-29652000D02*
X163775000Y-35204000D01*
X163775000Y-36246000D02*
X163775000Y-41798000D01*
X163915000Y-29687000D02*
X163915000Y-34991000D01*
X163915000Y-36459000D02*
X163915000Y-41763000D01*
X164055000Y-29726000D02*
X164055000Y-34849000D01*
X164055000Y-36601000D02*
X164055000Y-41724000D01*
X164195000Y-29769000D02*
X164195000Y-34747000D01*
X164195000Y-36703000D02*
X164195000Y-41681000D01*
X164335000Y-29816000D02*
X164335000Y-34673000D01*
X164335000Y-36777000D02*
X164335000Y-41634000D01*
X164475000Y-29866000D02*
X164475000Y-34622000D01*
X164475000Y-36828000D02*
X164475000Y-41584000D01*
X164615000Y-29920000D02*
X164615000Y-34590000D01*
X164615000Y-36860000D02*
X164615000Y-41530000D01*
X164755000Y-29977000D02*
X164755000Y-34576000D01*
X164755000Y-36874000D02*
X164755000Y-41473000D01*
X164895000Y-30039000D02*
X164895000Y-34579000D01*
X164895000Y-36871000D02*
X164895000Y-41411000D01*
X165035000Y-30105000D02*
X165035000Y-34599000D01*
X165035000Y-36851000D02*
X165035000Y-41345000D01*
X165175000Y-30176000D02*
X165175000Y-34638000D01*
X165175000Y-36812000D02*
X165175000Y-41274000D01*
X165315000Y-30250000D02*
X165315000Y-34697000D01*
X165315000Y-36753000D02*
X165315000Y-41200000D01*
X165455000Y-30330000D02*
X165455000Y-34780000D01*
X165455000Y-36670000D02*
X165455000Y-41120000D01*
X165595000Y-30414000D02*
X165595000Y-34894000D01*
X165595000Y-36556000D02*
X165595000Y-41036000D01*
X165735000Y-30504000D02*
X165735000Y-35055000D01*
X165735000Y-36395000D02*
X165735000Y-40946000D01*
X165875000Y-30598000D02*
X165875000Y-35316000D01*
X165875000Y-36134000D02*
X165875000Y-40852000D01*
X166015000Y-30699000D02*
X166015000Y-40751000D01*
X166155000Y-30806000D02*
X166155000Y-40644000D01*
X166295000Y-30918000D02*
X166295000Y-40532000D01*
X166435000Y-31038000D02*
X166435000Y-40412000D01*
X166575000Y-31166000D02*
X166575000Y-40284000D01*
X166715000Y-31301000D02*
X166715000Y-40149000D01*
X166855000Y-31445000D02*
X166855000Y-40005000D01*
X166995000Y-31600000D02*
X166995000Y-39850000D01*
X167135000Y-31765000D02*
X167135000Y-39685000D01*
X167275000Y-31942000D02*
X167275000Y-39508000D01*
X167415000Y-32133000D02*
X167415000Y-39317000D01*
X167555000Y-32342000D02*
X167555000Y-39108000D01*
X167695000Y-32570000D02*
X167695000Y-38880000D01*
X167835000Y-32822000D02*
X167835000Y-38628000D01*
X167975000Y-33106000D02*
X167975000Y-38344000D01*
X168115000Y-33434000D02*
X168115000Y-38016000D01*
X168255000Y-33828000D02*
X168255000Y-37622000D01*
X168395000Y-34342000D02*
X168395000Y-37108000D01*
X168535000Y-35292000D02*
X168535000Y-36158000D01*
X165950000Y-35725000D02*
G75*
G03X165950000Y-35725000I-1150000J0D01*
G01*
X168587500Y-35725000D02*
G75*
G03X168587500Y-35725000I-6287500J0D01*
G01*
X161238000Y-81103460D02*
X160095000Y-81103460D01*
X161238000Y-84151460D02*
X160095000Y-84151460D01*
X160095000Y-87961460D02*
X156412000Y-87961460D01*
X156412000Y-87961460D02*
X156412000Y-77293460D01*
X156412000Y-77293460D02*
X160095000Y-77293460D01*
X161238000Y-87961460D02*
X160095000Y-87961460D01*
X160095000Y-87961460D02*
X160095000Y-77293460D01*
X160095000Y-77293460D02*
X161238000Y-77293460D01*
X161238000Y-82627460D02*
X161238000Y-77293460D01*
X161238000Y-82627460D02*
X161238000Y-87961460D01*
X161290000Y-94234000D02*
X160147000Y-94234000D01*
X161290000Y-97282000D02*
X160147000Y-97282000D01*
X160147000Y-101092000D02*
X156464000Y-101092000D01*
X156464000Y-101092000D02*
X156464000Y-90424000D01*
X156464000Y-90424000D02*
X160147000Y-90424000D01*
X161290000Y-101092000D02*
X160147000Y-101092000D01*
X160147000Y-101092000D02*
X160147000Y-90424000D01*
X160147000Y-90424000D02*
X161290000Y-90424000D01*
X161290000Y-95758000D02*
X161290000Y-90424000D01*
X161290000Y-95758000D02*
X161290000Y-101092000D01*
X183676000Y-118352000D02*
X183676000Y-119495000D01*
X186724000Y-118352000D02*
X186724000Y-119495000D01*
X190534000Y-119495000D02*
X190534000Y-123178000D01*
X190534000Y-123178000D02*
X179866000Y-123178000D01*
X179866000Y-123178000D02*
X179866000Y-119495000D01*
X190534000Y-118352000D02*
X190534000Y-119495000D01*
X190534000Y-119495000D02*
X179866000Y-119495000D01*
X179866000Y-119495000D02*
X179866000Y-118352000D01*
X185200000Y-118352000D02*
X179866000Y-118352000D01*
X185200000Y-118352000D02*
X190534000Y-118352000D01*
X80999000Y-90798000D02*
X80999000Y-89655000D01*
X77951000Y-90798000D02*
X77951000Y-89655000D01*
X74141000Y-89655000D02*
X74141000Y-85972000D01*
X74141000Y-85972000D02*
X84809000Y-85972000D01*
X84809000Y-85972000D02*
X84809000Y-89655000D01*
X74141000Y-90798000D02*
X74141000Y-89655000D01*
X74141000Y-89655000D02*
X84809000Y-89655000D01*
X84809000Y-89655000D02*
X84809000Y-90798000D01*
X79475000Y-90798000D02*
X84809000Y-90798000D01*
X79475000Y-90798000D02*
X74141000Y-90798000D01*
X147008000Y-35973460D02*
X145865000Y-35973460D01*
X147008000Y-39021460D02*
X145865000Y-39021460D01*
X145865000Y-42831460D02*
X142182000Y-42831460D01*
X142182000Y-42831460D02*
X142182000Y-32163460D01*
X142182000Y-32163460D02*
X145865000Y-32163460D01*
X147008000Y-42831460D02*
X145865000Y-42831460D01*
X145865000Y-42831460D02*
X145865000Y-32163460D01*
X145865000Y-32163460D02*
X147008000Y-32163460D01*
X147008000Y-37497460D02*
X147008000Y-32163460D01*
X147008000Y-37497460D02*
X147008000Y-42831460D01*
X172206000Y-74858000D02*
X172206000Y-76128000D01*
X172206000Y-69270000D02*
X172206000Y-72318000D01*
X172206000Y-63682000D02*
X172206000Y-66730000D01*
X172206000Y-61142000D02*
X172206000Y-59872000D01*
X177794000Y-74858000D02*
X177794000Y-76128000D01*
X177794000Y-69270000D02*
X177794000Y-72318000D01*
X177794000Y-63682000D02*
X177794000Y-66730000D01*
X177794000Y-61142000D02*
X177794000Y-59872000D01*
X172206000Y-76128000D02*
X177794000Y-76128000D01*
X177794000Y-59872000D02*
X172206000Y-59872000D01*
X172206000Y-92858000D02*
X172206000Y-94128000D01*
X172206000Y-87270000D02*
X172206000Y-90318000D01*
X172206000Y-81682000D02*
X172206000Y-84730000D01*
X172206000Y-79142000D02*
X172206000Y-77872000D01*
X177794000Y-92858000D02*
X177794000Y-94128000D01*
X177794000Y-87270000D02*
X177794000Y-90318000D01*
X177794000Y-81682000D02*
X177794000Y-84730000D01*
X177794000Y-79142000D02*
X177794000Y-77872000D01*
X172206000Y-94128000D02*
X177794000Y-94128000D01*
X177794000Y-77872000D02*
X172206000Y-77872000D01*
X172206000Y-56858000D02*
X172206000Y-58128000D01*
X172206000Y-51270000D02*
X172206000Y-54318000D01*
X172206000Y-45682000D02*
X172206000Y-48730000D01*
X172206000Y-43142000D02*
X172206000Y-41872000D01*
X177794000Y-56858000D02*
X177794000Y-58128000D01*
X177794000Y-51270000D02*
X177794000Y-54318000D01*
X177794000Y-45682000D02*
X177794000Y-48730000D01*
X177794000Y-43142000D02*
X177794000Y-41872000D01*
X172206000Y-58128000D02*
X177794000Y-58128000D01*
X177794000Y-41872000D02*
X172206000Y-41872000D01*
X185098000Y-108676000D02*
X183955000Y-108676000D01*
X185098000Y-111724000D02*
X183955000Y-111724000D01*
X183955000Y-115534000D02*
X180272000Y-115534000D01*
X180272000Y-115534000D02*
X180272000Y-104866000D01*
X180272000Y-104866000D02*
X183955000Y-104866000D01*
X185098000Y-115534000D02*
X183955000Y-115534000D01*
X183955000Y-115534000D02*
X183955000Y-104866000D01*
X183955000Y-104866000D02*
X185098000Y-104866000D01*
X185098000Y-110200000D02*
X185098000Y-104866000D01*
X185098000Y-110200000D02*
X185098000Y-115534000D01*
X79422000Y-80834000D02*
X80565000Y-80834000D01*
X79422000Y-77786000D02*
X80565000Y-77786000D01*
X80565000Y-73976000D02*
X84248000Y-73976000D01*
X84248000Y-73976000D02*
X84248000Y-84644000D01*
X84248000Y-84644000D02*
X80565000Y-84644000D01*
X79422000Y-73976000D02*
X80565000Y-73976000D01*
X80565000Y-73976000D02*
X80565000Y-84644000D01*
X80565000Y-84644000D02*
X79422000Y-84644000D01*
X79422000Y-79310000D02*
X79422000Y-84644000D01*
X79422000Y-79310000D02*
X79422000Y-73976000D01*
X184848000Y-129076000D02*
X183705000Y-129076000D01*
X184848000Y-132124000D02*
X183705000Y-132124000D01*
X183705000Y-135934000D02*
X180022000Y-135934000D01*
X180022000Y-135934000D02*
X180022000Y-125266000D01*
X180022000Y-125266000D02*
X183705000Y-125266000D01*
X184848000Y-135934000D02*
X183705000Y-135934000D01*
X183705000Y-135934000D02*
X183705000Y-125266000D01*
X183705000Y-125266000D02*
X184848000Y-125266000D01*
X184848000Y-130600000D02*
X184848000Y-125266000D01*
X184848000Y-130600000D02*
X184848000Y-135934000D01*
X131916000Y-35822000D02*
X131916000Y-36965000D01*
X134964000Y-35822000D02*
X134964000Y-36965000D01*
X138774000Y-36965000D02*
X138774000Y-40648000D01*
X138774000Y-40648000D02*
X128106000Y-40648000D01*
X128106000Y-40648000D02*
X128106000Y-36965000D01*
X138774000Y-35822000D02*
X138774000Y-36965000D01*
X138774000Y-36965000D02*
X128106000Y-36965000D01*
X128106000Y-36965000D02*
X128106000Y-35822000D01*
X133440000Y-35822000D02*
X128106000Y-35822000D01*
X133440000Y-35822000D02*
X138774000Y-35822000D01*
X110710000Y-39960000D02*
X115790000Y-39960000D01*
X115790000Y-39960000D02*
X115790000Y-42500000D01*
X115790000Y-42500000D02*
X110710000Y-42500000D01*
X110710000Y-42500000D02*
X110710000Y-39960000D01*
X180530000Y-101810000D02*
X175450000Y-101810000D01*
X175450000Y-101810000D02*
X175450000Y-99270000D01*
X175450000Y-99270000D02*
X180530000Y-99270000D01*
X180530000Y-99270000D02*
X180530000Y-101810000D01*
X92270000Y-41440000D02*
X97350000Y-41440000D01*
X97350000Y-41440000D02*
X97350000Y-43980000D01*
X97350000Y-43980000D02*
X92270000Y-43980000D01*
X92270000Y-43980000D02*
X92270000Y-41440000D01*
X178460000Y-127680000D02*
X178460000Y-132760000D01*
X178460000Y-132760000D02*
X175920000Y-132760000D01*
X175920000Y-132760000D02*
X175920000Y-127680000D01*
X175920000Y-127680000D02*
X178460000Y-127680000D01*
X93924000Y-51248000D02*
X93924000Y-50105000D01*
X90876000Y-51248000D02*
X90876000Y-50105000D01*
X87066000Y-50105000D02*
X87066000Y-46422000D01*
X87066000Y-46422000D02*
X97734000Y-46422000D01*
X97734000Y-46422000D02*
X97734000Y-50105000D01*
X87066000Y-51248000D02*
X87066000Y-50105000D01*
X87066000Y-50105000D02*
X97734000Y-50105000D01*
X97734000Y-50105000D02*
X97734000Y-51248000D01*
X92400000Y-51248000D02*
X97734000Y-51248000D01*
X92400000Y-51248000D02*
X87066000Y-51248000D01*
X123930000Y-38030000D02*
X123930000Y-32950000D01*
X123930000Y-32950000D02*
X126470000Y-32950000D01*
X126470000Y-32950000D02*
X126470000Y-38030000D01*
X126470000Y-38030000D02*
X123930000Y-38030000D01*
X184672064Y-138114440D02*
X184672064Y-137114440D01*
X184910160Y-137114440D01*
X185053017Y-137162060D01*
X185148255Y-137257298D01*
X185195874Y-137352536D01*
X185243493Y-137543012D01*
X185243493Y-137685869D01*
X185195874Y-137876345D01*
X185148255Y-137971583D01*
X185053017Y-138066821D01*
X184910160Y-138114440D01*
X184672064Y-138114440D01*
X186148255Y-137114440D02*
X185672064Y-137114440D01*
X185624445Y-137590631D01*
X185672064Y-137543012D01*
X185767302Y-137495393D01*
X186005398Y-137495393D01*
X186100636Y-137543012D01*
X186148255Y-137590631D01*
X186195874Y-137685869D01*
X186195874Y-137923964D01*
X186148255Y-138019202D01*
X186100636Y-138066821D01*
X186005398Y-138114440D01*
X185767302Y-138114440D01*
X185672064Y-138066821D01*
X185624445Y-138019202D01*
X179801272Y-144792100D02*
X179801272Y-143792100D01*
X180134605Y-144506386D01*
X180467939Y-143792100D01*
X180467939Y-144792100D01*
X181277462Y-144268291D02*
X181420320Y-144315910D01*
X181467939Y-144363529D01*
X181515558Y-144458767D01*
X181515558Y-144601624D01*
X181467939Y-144696862D01*
X181420320Y-144744481D01*
X181325081Y-144792100D01*
X180944129Y-144792100D01*
X180944129Y-143792100D01*
X181277462Y-143792100D01*
X181372700Y-143839720D01*
X181420320Y-143887339D01*
X181467939Y-143982577D01*
X181467939Y-144077815D01*
X181420320Y-144173053D01*
X181372700Y-144220672D01*
X181277462Y-144268291D01*
X180944129Y-144268291D01*
X182515558Y-144792100D02*
X182182224Y-144315910D01*
X181944129Y-144792100D02*
X181944129Y-143792100D01*
X182325081Y-143792100D01*
X182420320Y-143839720D01*
X182467939Y-143887339D01*
X182515558Y-143982577D01*
X182515558Y-144125434D01*
X182467939Y-144220672D01*
X182420320Y-144268291D01*
X182325081Y-144315910D01*
X181944129Y-144315910D01*
X183372700Y-143792100D02*
X183182224Y-143792100D01*
X183086986Y-143839720D01*
X183039367Y-143887339D01*
X182944129Y-144030196D01*
X182896510Y-144220672D01*
X182896510Y-144601624D01*
X182944129Y-144696862D01*
X182991748Y-144744481D01*
X183086986Y-144792100D01*
X183277462Y-144792100D01*
X183372700Y-144744481D01*
X183420320Y-144696862D01*
X183467939Y-144601624D01*
X183467939Y-144363529D01*
X183420320Y-144268291D01*
X183372700Y-144220672D01*
X183277462Y-144173053D01*
X183086986Y-144173053D01*
X182991748Y-144220672D01*
X182944129Y-144268291D01*
X182896510Y-144363529D01*
X184086986Y-143792100D02*
X184182224Y-143792100D01*
X184277462Y-143839720D01*
X184325081Y-143887339D01*
X184372700Y-143982577D01*
X184420320Y-144173053D01*
X184420320Y-144411148D01*
X184372700Y-144601624D01*
X184325081Y-144696862D01*
X184277462Y-144744481D01*
X184182224Y-144792100D01*
X184086986Y-144792100D01*
X183991748Y-144744481D01*
X183944129Y-144696862D01*
X183896510Y-144601624D01*
X183848891Y-144411148D01*
X183848891Y-144173053D01*
X183896510Y-143982577D01*
X183944129Y-143887339D01*
X183991748Y-143839720D01*
X184086986Y-143792100D01*
X184848891Y-144792100D02*
X184848891Y-143792100D01*
X184848891Y-144268291D02*
X185420320Y-144268291D01*
X185420320Y-144792100D02*
X185420320Y-143792100D01*
X186420320Y-144792100D02*
X185848891Y-144792100D01*
X186134605Y-144792100D02*
X186134605Y-143792100D01*
X186039367Y-143934958D01*
X185944129Y-144030196D01*
X185848891Y-144077815D01*
X187039367Y-143792100D02*
X187134605Y-143792100D01*
X187229843Y-143839720D01*
X187277462Y-143887339D01*
X187325081Y-143982577D01*
X187372700Y-144173053D01*
X187372700Y-144411148D01*
X187325081Y-144601624D01*
X187277462Y-144696862D01*
X187229843Y-144744481D01*
X187134605Y-144792100D01*
X187039367Y-144792100D01*
X186944129Y-144744481D01*
X186896510Y-144696862D01*
X186848891Y-144601624D01*
X186801272Y-144411148D01*
X186801272Y-144173053D01*
X186848891Y-143982577D01*
X186896510Y-143887339D01*
X186944129Y-143839720D01*
X187039367Y-143792100D01*
X187991748Y-143792100D02*
X188086986Y-143792100D01*
X188182224Y-143839720D01*
X188229843Y-143887339D01*
X188277462Y-143982577D01*
X188325081Y-144173053D01*
X188325081Y-144411148D01*
X188277462Y-144601624D01*
X188229843Y-144696862D01*
X188182224Y-144744481D01*
X188086986Y-144792100D01*
X187991748Y-144792100D01*
X187896510Y-144744481D01*
X187848891Y-144696862D01*
X187801272Y-144601624D01*
X187753653Y-144411148D01*
X187753653Y-144173053D01*
X187801272Y-143982577D01*
X187848891Y-143887339D01*
X187896510Y-143839720D01*
X187991748Y-143792100D01*
X189325081Y-144696862D02*
X189277462Y-144744481D01*
X189134605Y-144792100D01*
X189039367Y-144792100D01*
X188896510Y-144744481D01*
X188801272Y-144649243D01*
X188753653Y-144554005D01*
X188706034Y-144363529D01*
X188706034Y-144220672D01*
X188753653Y-144030196D01*
X188801272Y-143934958D01*
X188896510Y-143839720D01*
X189039367Y-143792100D01*
X189134605Y-143792100D01*
X189277462Y-143839720D01*
X189325081Y-143887339D01*
X189610796Y-143792100D02*
X190182224Y-143792100D01*
X189896510Y-144792100D02*
X189896510Y-143792100D01*
X191039367Y-143839720D02*
X190944129Y-143792100D01*
X190801272Y-143792100D01*
X190658415Y-143839720D01*
X190563177Y-143934958D01*
X190515558Y-144030196D01*
X190467939Y-144220672D01*
X190467939Y-144363529D01*
X190515558Y-144554005D01*
X190563177Y-144649243D01*
X190658415Y-144744481D01*
X190801272Y-144792100D01*
X190896510Y-144792100D01*
X191039367Y-144744481D01*
X191086986Y-144696862D01*
X191086986Y-144363529D01*
X190896510Y-144363529D01*
X53691904Y-49842380D02*
X53691904Y-48842380D01*
X54072857Y-48842380D01*
X54168095Y-48890000D01*
X54215714Y-48937619D01*
X54263333Y-49032857D01*
X54263333Y-49175714D01*
X54215714Y-49270952D01*
X54168095Y-49318571D01*
X54072857Y-49366190D01*
X53691904Y-49366190D01*
X54596666Y-48842380D02*
X55263333Y-48842380D01*
X54834761Y-49842380D01*
D11*
X51196428Y-47528571D02*
X51196428Y-46028571D01*
X52053571Y-47528571D02*
X51410714Y-46671428D01*
X52053571Y-46028571D02*
X51196428Y-46885714D01*
X53267857Y-47457142D02*
X53125000Y-47528571D01*
X52839285Y-47528571D01*
X52696428Y-47457142D01*
X52625000Y-47314285D01*
X52625000Y-46742857D01*
X52696428Y-46600000D01*
X52839285Y-46528571D01*
X53125000Y-46528571D01*
X53267857Y-46600000D01*
X53339285Y-46742857D01*
X53339285Y-46885714D01*
X52625000Y-47028571D01*
X53839285Y-46528571D02*
X54196428Y-47528571D01*
X54553571Y-46528571D02*
X54196428Y-47528571D01*
X54053571Y-47885714D01*
X53982142Y-47957142D01*
X53839285Y-48028571D01*
X54767857Y-47671428D02*
X55910714Y-47671428D01*
X56196428Y-47457142D02*
X56410714Y-47528571D01*
X56767857Y-47528571D01*
X56910714Y-47457142D01*
X56982142Y-47385714D01*
X57053571Y-47242857D01*
X57053571Y-47100000D01*
X56982142Y-46957142D01*
X56910714Y-46885714D01*
X56767857Y-46814285D01*
X56482142Y-46742857D01*
X56339285Y-46671428D01*
X56267857Y-46600000D01*
X56196428Y-46457142D01*
X56196428Y-46314285D01*
X56267857Y-46171428D01*
X56339285Y-46100000D01*
X56482142Y-46028571D01*
X56839285Y-46028571D01*
X57053571Y-46100000D01*
X57553571Y-46528571D02*
X57839285Y-47528571D01*
X58125000Y-46814285D01*
X58410714Y-47528571D01*
X58696428Y-46528571D01*
D10*
X125498095Y-73272380D02*
X125498095Y-72272380D01*
X125879047Y-72272380D01*
X125974285Y-72320000D01*
X126021904Y-72367619D01*
X126069523Y-72462857D01*
X126069523Y-72605714D01*
X126021904Y-72700952D01*
X125974285Y-72748571D01*
X125879047Y-72796190D01*
X125498095Y-72796190D01*
X127069523Y-73272380D02*
X126736190Y-72796190D01*
X126498095Y-73272380D02*
X126498095Y-72272380D01*
X126879047Y-72272380D01*
X126974285Y-72320000D01*
X127021904Y-72367619D01*
X127069523Y-72462857D01*
X127069523Y-72605714D01*
X127021904Y-72700952D01*
X126974285Y-72748571D01*
X126879047Y-72796190D01*
X126498095Y-72796190D01*
X77451904Y-28892380D02*
X77451904Y-27892380D01*
X77832857Y-27892380D01*
X77928095Y-27940000D01*
X77975714Y-27987619D01*
X78023333Y-28082857D01*
X78023333Y-28225714D01*
X77975714Y-28320952D01*
X77928095Y-28368571D01*
X77832857Y-28416190D01*
X77451904Y-28416190D01*
X78975714Y-28892380D02*
X78404285Y-28892380D01*
X78690000Y-28892380D02*
X78690000Y-27892380D01*
X78594761Y-28035238D01*
X78499523Y-28130476D01*
X78404285Y-28178095D01*
X81266190Y-28767142D02*
X81218571Y-28814761D01*
X81075714Y-28862380D01*
X80980476Y-28862380D01*
X80837619Y-28814761D01*
X80742380Y-28719523D01*
X80694761Y-28624285D01*
X80647142Y-28433809D01*
X80647142Y-28290952D01*
X80694761Y-28100476D01*
X80742380Y-28005238D01*
X80837619Y-27910000D01*
X80980476Y-27862380D01*
X81075714Y-27862380D01*
X81218571Y-27910000D01*
X81266190Y-27957619D01*
X81885238Y-27862380D02*
X82075714Y-27862380D01*
X82170952Y-27910000D01*
X82266190Y-28005238D01*
X82313809Y-28195714D01*
X82313809Y-28529047D01*
X82266190Y-28719523D01*
X82170952Y-28814761D01*
X82075714Y-28862380D01*
X81885238Y-28862380D01*
X81790000Y-28814761D01*
X81694761Y-28719523D01*
X81647142Y-28529047D01*
X81647142Y-28195714D01*
X81694761Y-28005238D01*
X81790000Y-27910000D01*
X81885238Y-27862380D01*
X82742380Y-28862380D02*
X82742380Y-27862380D01*
X83313809Y-28862380D01*
X83313809Y-27862380D01*
X83790000Y-28862380D02*
X83790000Y-27862380D01*
X84361428Y-28862380D01*
X84361428Y-27862380D01*
X84599523Y-28957619D02*
X85361428Y-28957619D01*
X85790000Y-27862380D02*
X85885238Y-27862380D01*
X85980476Y-27910000D01*
X86028095Y-27957619D01*
X86075714Y-28052857D01*
X86123333Y-28243333D01*
X86123333Y-28481428D01*
X86075714Y-28671904D01*
X86028095Y-28767142D01*
X85980476Y-28814761D01*
X85885238Y-28862380D01*
X85790000Y-28862380D01*
X85694761Y-28814761D01*
X85647142Y-28767142D01*
X85599523Y-28671904D01*
X85551904Y-28481428D01*
X85551904Y-28243333D01*
X85599523Y-28052857D01*
X85647142Y-27957619D01*
X85694761Y-27910000D01*
X85790000Y-27862380D01*
X87075714Y-28862380D02*
X86504285Y-28862380D01*
X86790000Y-28862380D02*
X86790000Y-27862380D01*
X86694761Y-28005238D01*
X86599523Y-28100476D01*
X86504285Y-28148095D01*
X87409047Y-27862380D02*
X88075714Y-28862380D01*
X88075714Y-27862380D02*
X87409047Y-28862380D01*
X88980476Y-28862380D02*
X88409047Y-28862380D01*
X88694761Y-28862380D02*
X88694761Y-27862380D01*
X88599523Y-28005238D01*
X88504285Y-28100476D01*
X88409047Y-28148095D01*
X89361428Y-27957619D02*
X89409047Y-27910000D01*
X89504285Y-27862380D01*
X89742380Y-27862380D01*
X89837619Y-27910000D01*
X89885238Y-27957619D01*
X89932857Y-28052857D01*
X89932857Y-28148095D01*
X89885238Y-28290952D01*
X89313809Y-28862380D01*
X89932857Y-28862380D01*
X118877619Y-55785714D02*
X118877619Y-56785714D01*
X118877619Y-55833333D02*
X118972857Y-55785714D01*
X119163333Y-55785714D01*
X119258571Y-55833333D01*
X119306190Y-55880952D01*
X119353809Y-55976190D01*
X119353809Y-56261904D01*
X119306190Y-56357142D01*
X119258571Y-56404761D01*
X119163333Y-56452380D01*
X118972857Y-56452380D01*
X118877619Y-56404761D01*
X120210952Y-56404761D02*
X120115714Y-56452380D01*
X119925238Y-56452380D01*
X119830000Y-56404761D01*
X119782380Y-56357142D01*
X119734761Y-56261904D01*
X119734761Y-55976190D01*
X119782380Y-55880952D01*
X119830000Y-55833333D01*
X119925238Y-55785714D01*
X120115714Y-55785714D01*
X120210952Y-55833333D01*
X120639523Y-56452380D02*
X120639523Y-55785714D01*
X120639523Y-55976190D02*
X120687142Y-55880952D01*
X120734761Y-55833333D01*
X120830000Y-55785714D01*
X120925238Y-55785714D01*
X147185714Y-49602380D02*
X147185714Y-48602380D01*
X147566666Y-48602380D01*
X147661904Y-48650000D01*
X147709523Y-48697619D01*
X147757142Y-48792857D01*
X147757142Y-48935714D01*
X147709523Y-49030952D01*
X147661904Y-49078571D01*
X147566666Y-49126190D01*
X147185714Y-49126190D01*
X148709523Y-49602380D02*
X148138095Y-49602380D01*
X148423809Y-49602380D02*
X148423809Y-48602380D01*
X148328571Y-48745238D01*
X148233333Y-48840476D01*
X148138095Y-48888095D01*
X149328571Y-48602380D02*
X149423809Y-48602380D01*
X149519047Y-48650000D01*
X149566666Y-48697619D01*
X149614285Y-48792857D01*
X149661904Y-48983333D01*
X149661904Y-49221428D01*
X149614285Y-49411904D01*
X149566666Y-49507142D01*
X149519047Y-49554761D01*
X149423809Y-49602380D01*
X149328571Y-49602380D01*
X149233333Y-49554761D01*
X149185714Y-49507142D01*
X149138095Y-49411904D01*
X149090476Y-49221428D01*
X149090476Y-48983333D01*
X149138095Y-48792857D01*
X149185714Y-48697619D01*
X149233333Y-48650000D01*
X149328571Y-48602380D01*
D14*
X143129761Y-53859523D02*
X143415476Y-53954761D01*
X143891666Y-53954761D01*
X144082142Y-53859523D01*
X144177380Y-53764285D01*
X144272619Y-53573809D01*
X144272619Y-53383333D01*
X144177380Y-53192857D01*
X144082142Y-53097619D01*
X143891666Y-53002380D01*
X143510714Y-52907142D01*
X143320238Y-52811904D01*
X143225000Y-52716666D01*
X143129761Y-52526190D01*
X143129761Y-52335714D01*
X143225000Y-52145238D01*
X143320238Y-52050000D01*
X143510714Y-51954761D01*
X143986904Y-51954761D01*
X144272619Y-52050000D01*
X144939285Y-52621428D02*
X145320238Y-53954761D01*
X145701190Y-53002380D01*
X146082142Y-53954761D01*
X146463095Y-52621428D01*
X146748809Y-54145238D02*
X148272619Y-54145238D01*
X148748809Y-53954761D02*
X148748809Y-51954761D01*
X149510714Y-51954761D01*
X149701190Y-52050000D01*
X149796428Y-52145238D01*
X149891666Y-52335714D01*
X149891666Y-52621428D01*
X149796428Y-52811904D01*
X149701190Y-52907142D01*
X149510714Y-53002380D01*
X148748809Y-53002380D01*
X151034523Y-53954761D02*
X150844047Y-53859523D01*
X150748809Y-53764285D01*
X150653571Y-53573809D01*
X150653571Y-53002380D01*
X150748809Y-52811904D01*
X150844047Y-52716666D01*
X151034523Y-52621428D01*
X151320238Y-52621428D01*
X151510714Y-52716666D01*
X151605952Y-52811904D01*
X151701190Y-53002380D01*
X151701190Y-53573809D01*
X151605952Y-53764285D01*
X151510714Y-53859523D01*
X151320238Y-53954761D01*
X151034523Y-53954761D01*
X152463095Y-53859523D02*
X152653571Y-53954761D01*
X153034523Y-53954761D01*
X153225000Y-53859523D01*
X153320238Y-53669047D01*
X153320238Y-53573809D01*
X153225000Y-53383333D01*
X153034523Y-53288095D01*
X152748809Y-53288095D01*
X152558333Y-53192857D01*
X152463095Y-53002380D01*
X152463095Y-52907142D01*
X152558333Y-52716666D01*
X152748809Y-52621428D01*
X153034523Y-52621428D01*
X153225000Y-52716666D01*
D10*
X53881904Y-36122380D02*
X53881904Y-35122380D01*
X54262857Y-35122380D01*
X54358095Y-35170000D01*
X54405714Y-35217619D01*
X54453333Y-35312857D01*
X54453333Y-35455714D01*
X54405714Y-35550952D01*
X54358095Y-35598571D01*
X54262857Y-35646190D01*
X53881904Y-35646190D01*
X55024761Y-35550952D02*
X54929523Y-35503333D01*
X54881904Y-35455714D01*
X54834285Y-35360476D01*
X54834285Y-35312857D01*
X54881904Y-35217619D01*
X54929523Y-35170000D01*
X55024761Y-35122380D01*
X55215238Y-35122380D01*
X55310476Y-35170000D01*
X55358095Y-35217619D01*
X55405714Y-35312857D01*
X55405714Y-35360476D01*
X55358095Y-35455714D01*
X55310476Y-35503333D01*
X55215238Y-35550952D01*
X55024761Y-35550952D01*
X54929523Y-35598571D01*
X54881904Y-35646190D01*
X54834285Y-35741428D01*
X54834285Y-35931904D01*
X54881904Y-36027142D01*
X54929523Y-36074761D01*
X55024761Y-36122380D01*
X55215238Y-36122380D01*
X55310476Y-36074761D01*
X55358095Y-36027142D01*
X55405714Y-35931904D01*
X55405714Y-35741428D01*
X55358095Y-35646190D01*
X55310476Y-35598571D01*
X55215238Y-35550952D01*
X73199523Y-141562380D02*
X73199523Y-140562380D01*
X73628095Y-141562380D02*
X73628095Y-141038571D01*
X73580476Y-140943333D01*
X73485238Y-140895714D01*
X73342380Y-140895714D01*
X73247142Y-140943333D01*
X73199523Y-140990952D01*
X74628095Y-141562380D02*
X74056666Y-141562380D01*
X74342380Y-141562380D02*
X74342380Y-140562380D01*
X74247142Y-140705238D01*
X74151904Y-140800476D01*
X74056666Y-140848095D01*
X175259523Y-142132380D02*
X175259523Y-141132380D01*
X175688095Y-142132380D02*
X175688095Y-141608571D01*
X175640476Y-141513333D01*
X175545238Y-141465714D01*
X175402380Y-141465714D01*
X175307142Y-141513333D01*
X175259523Y-141560952D01*
X176116666Y-141227619D02*
X176164285Y-141180000D01*
X176259523Y-141132380D01*
X176497619Y-141132380D01*
X176592857Y-141180000D01*
X176640476Y-141227619D01*
X176688095Y-141322857D01*
X176688095Y-141418095D01*
X176640476Y-141560952D01*
X176069047Y-142132380D01*
X176688095Y-142132380D01*
X69269523Y-30422380D02*
X69269523Y-29422380D01*
X69698095Y-30422380D02*
X69698095Y-29898571D01*
X69650476Y-29803333D01*
X69555238Y-29755714D01*
X69412380Y-29755714D01*
X69317142Y-29803333D01*
X69269523Y-29850952D01*
X70079047Y-29422380D02*
X70698095Y-29422380D01*
X70364761Y-29803333D01*
X70507619Y-29803333D01*
X70602857Y-29850952D01*
X70650476Y-29898571D01*
X70698095Y-29993809D01*
X70698095Y-30231904D01*
X70650476Y-30327142D01*
X70602857Y-30374761D01*
X70507619Y-30422380D01*
X70221904Y-30422380D01*
X70126666Y-30374761D01*
X70079047Y-30327142D01*
X170529523Y-30832380D02*
X170529523Y-29832380D01*
X170958095Y-30832380D02*
X170958095Y-30308571D01*
X170910476Y-30213333D01*
X170815238Y-30165714D01*
X170672380Y-30165714D01*
X170577142Y-30213333D01*
X170529523Y-30260952D01*
X171386666Y-29927619D02*
X171434285Y-29880000D01*
X171529523Y-29832380D01*
X171767619Y-29832380D01*
X171862857Y-29880000D01*
X171910476Y-29927619D01*
X171958095Y-30022857D01*
X171958095Y-30118095D01*
X171910476Y-30260952D01*
X171339047Y-30832380D01*
X171958095Y-30832380D01*
X151953333Y-29437142D02*
X151905714Y-29484761D01*
X151762857Y-29532380D01*
X151667619Y-29532380D01*
X151524761Y-29484761D01*
X151429523Y-29389523D01*
X151381904Y-29294285D01*
X151334285Y-29103809D01*
X151334285Y-28960952D01*
X151381904Y-28770476D01*
X151429523Y-28675238D01*
X151524761Y-28580000D01*
X151667619Y-28532380D01*
X151762857Y-28532380D01*
X151905714Y-28580000D01*
X151953333Y-28627619D01*
X152905714Y-29532380D02*
X152334285Y-29532380D01*
X152620000Y-29532380D02*
X152620000Y-28532380D01*
X152524761Y-28675238D01*
X152429523Y-28770476D01*
X152334285Y-28818095D01*
X154327619Y-28787619D02*
X154375238Y-28740000D01*
X154470476Y-28692380D01*
X154708571Y-28692380D01*
X154803809Y-28740000D01*
X154851428Y-28787619D01*
X154899047Y-28882857D01*
X154899047Y-28978095D01*
X154851428Y-29120952D01*
X154280000Y-29692380D01*
X154899047Y-29692380D01*
X155280000Y-28787619D02*
X155327619Y-28740000D01*
X155422857Y-28692380D01*
X155660952Y-28692380D01*
X155756190Y-28740000D01*
X155803809Y-28787619D01*
X155851428Y-28882857D01*
X155851428Y-28978095D01*
X155803809Y-29120952D01*
X155232380Y-29692380D01*
X155851428Y-29692380D01*
X156470476Y-28692380D02*
X156565714Y-28692380D01*
X156660952Y-28740000D01*
X156708571Y-28787619D01*
X156756190Y-28882857D01*
X156803809Y-29073333D01*
X156803809Y-29311428D01*
X156756190Y-29501904D01*
X156708571Y-29597142D01*
X156660952Y-29644761D01*
X156565714Y-29692380D01*
X156470476Y-29692380D01*
X156375238Y-29644761D01*
X156327619Y-29597142D01*
X156280000Y-29501904D01*
X156232380Y-29311428D01*
X156232380Y-29073333D01*
X156280000Y-28882857D01*
X156327619Y-28787619D01*
X156375238Y-28740000D01*
X156470476Y-28692380D01*
X157422857Y-28692380D02*
X157518095Y-28692380D01*
X157613333Y-28740000D01*
X157660952Y-28787619D01*
X157708571Y-28882857D01*
X157756190Y-29073333D01*
X157756190Y-29311428D01*
X157708571Y-29501904D01*
X157660952Y-29597142D01*
X157613333Y-29644761D01*
X157518095Y-29692380D01*
X157422857Y-29692380D01*
X157327619Y-29644761D01*
X157280000Y-29597142D01*
X157232380Y-29501904D01*
X157184761Y-29311428D01*
X157184761Y-29073333D01*
X157232380Y-28882857D01*
X157280000Y-28787619D01*
X157327619Y-28740000D01*
X157422857Y-28692380D01*
X158613333Y-29025714D02*
X158613333Y-29692380D01*
X158184761Y-29025714D02*
X158184761Y-29549523D01*
X158232380Y-29644761D01*
X158327619Y-29692380D01*
X158470476Y-29692380D01*
X158565714Y-29644761D01*
X158613333Y-29597142D01*
X158946666Y-29025714D02*
X159327619Y-29025714D01*
X159089523Y-29692380D02*
X159089523Y-28835238D01*
X159137142Y-28740000D01*
X159232380Y-28692380D01*
X159327619Y-28692380D01*
X162480320Y-83375715D02*
X161480320Y-83375715D01*
X161480320Y-83137620D01*
X161527940Y-82994762D01*
X161623178Y-82899524D01*
X161718416Y-82851905D01*
X161908892Y-82804286D01*
X162051749Y-82804286D01*
X162242225Y-82851905D01*
X162337463Y-82899524D01*
X162432701Y-82994762D01*
X162480320Y-83137620D01*
X162480320Y-83375715D01*
X162480320Y-81851905D02*
X162480320Y-82423334D01*
X162480320Y-82137620D02*
X161480320Y-82137620D01*
X161623178Y-82232858D01*
X161718416Y-82328096D01*
X161766035Y-82423334D01*
X155802660Y-88266827D02*
X154802660Y-88266827D01*
X155516946Y-87933494D01*
X154802660Y-87600160D01*
X155802660Y-87600160D01*
X155278851Y-86790637D02*
X155326470Y-86647780D01*
X155374089Y-86600160D01*
X155469327Y-86552541D01*
X155612184Y-86552541D01*
X155707422Y-86600160D01*
X155755041Y-86647780D01*
X155802660Y-86743018D01*
X155802660Y-87123970D01*
X154802660Y-87123970D01*
X154802660Y-86790637D01*
X154850280Y-86695399D01*
X154897899Y-86647780D01*
X154993137Y-86600160D01*
X155088375Y-86600160D01*
X155183613Y-86647780D01*
X155231232Y-86695399D01*
X155278851Y-86790637D01*
X155278851Y-87123970D01*
X155802660Y-85552541D02*
X155326470Y-85885875D01*
X155802660Y-86123970D02*
X154802660Y-86123970D01*
X154802660Y-85743018D01*
X154850280Y-85647780D01*
X154897899Y-85600160D01*
X154993137Y-85552541D01*
X155135994Y-85552541D01*
X155231232Y-85600160D01*
X155278851Y-85647780D01*
X155326470Y-85743018D01*
X155326470Y-86123970D01*
X154802660Y-84695399D02*
X154802660Y-84885875D01*
X154850280Y-84981113D01*
X154897899Y-85028732D01*
X155040756Y-85123970D01*
X155231232Y-85171589D01*
X155612184Y-85171589D01*
X155707422Y-85123970D01*
X155755041Y-85076351D01*
X155802660Y-84981113D01*
X155802660Y-84790637D01*
X155755041Y-84695399D01*
X155707422Y-84647780D01*
X155612184Y-84600160D01*
X155374089Y-84600160D01*
X155278851Y-84647780D01*
X155231232Y-84695399D01*
X155183613Y-84790637D01*
X155183613Y-84981113D01*
X155231232Y-85076351D01*
X155278851Y-85123970D01*
X155374089Y-85171589D01*
X154802660Y-83981113D02*
X154802660Y-83885875D01*
X154850280Y-83790637D01*
X154897899Y-83743018D01*
X154993137Y-83695399D01*
X155183613Y-83647780D01*
X155421708Y-83647780D01*
X155612184Y-83695399D01*
X155707422Y-83743018D01*
X155755041Y-83790637D01*
X155802660Y-83885875D01*
X155802660Y-83981113D01*
X155755041Y-84076351D01*
X155707422Y-84123970D01*
X155612184Y-84171589D01*
X155421708Y-84219208D01*
X155183613Y-84219208D01*
X154993137Y-84171589D01*
X154897899Y-84123970D01*
X154850280Y-84076351D01*
X154802660Y-83981113D01*
X155802660Y-83219208D02*
X154802660Y-83219208D01*
X155278851Y-83219208D02*
X155278851Y-82647780D01*
X155802660Y-82647780D02*
X154802660Y-82647780D01*
X155802660Y-81647780D02*
X155802660Y-82219208D01*
X155802660Y-81933494D02*
X154802660Y-81933494D01*
X154945518Y-82028732D01*
X155040756Y-82123970D01*
X155088375Y-82219208D01*
X154802660Y-81028732D02*
X154802660Y-80933494D01*
X154850280Y-80838256D01*
X154897899Y-80790637D01*
X154993137Y-80743018D01*
X155183613Y-80695399D01*
X155421708Y-80695399D01*
X155612184Y-80743018D01*
X155707422Y-80790637D01*
X155755041Y-80838256D01*
X155802660Y-80933494D01*
X155802660Y-81028732D01*
X155755041Y-81123970D01*
X155707422Y-81171589D01*
X155612184Y-81219208D01*
X155421708Y-81266827D01*
X155183613Y-81266827D01*
X154993137Y-81219208D01*
X154897899Y-81171589D01*
X154850280Y-81123970D01*
X154802660Y-81028732D01*
X154802660Y-80076351D02*
X154802660Y-79981113D01*
X154850280Y-79885875D01*
X154897899Y-79838256D01*
X154993137Y-79790637D01*
X155183613Y-79743018D01*
X155421708Y-79743018D01*
X155612184Y-79790637D01*
X155707422Y-79838256D01*
X155755041Y-79885875D01*
X155802660Y-79981113D01*
X155802660Y-80076351D01*
X155755041Y-80171589D01*
X155707422Y-80219208D01*
X155612184Y-80266827D01*
X155421708Y-80314446D01*
X155183613Y-80314446D01*
X154993137Y-80266827D01*
X154897899Y-80219208D01*
X154850280Y-80171589D01*
X154802660Y-80076351D01*
X155707422Y-78743018D02*
X155755041Y-78790637D01*
X155802660Y-78933494D01*
X155802660Y-79028732D01*
X155755041Y-79171589D01*
X155659803Y-79266827D01*
X155564565Y-79314446D01*
X155374089Y-79362065D01*
X155231232Y-79362065D01*
X155040756Y-79314446D01*
X154945518Y-79266827D01*
X154850280Y-79171589D01*
X154802660Y-79028732D01*
X154802660Y-78933494D01*
X154850280Y-78790637D01*
X154897899Y-78743018D01*
X154802660Y-78457303D02*
X154802660Y-77885875D01*
X155802660Y-78171589D02*
X154802660Y-78171589D01*
X154850280Y-77028732D02*
X154802660Y-77123970D01*
X154802660Y-77266827D01*
X154850280Y-77409684D01*
X154945518Y-77504922D01*
X155040756Y-77552541D01*
X155231232Y-77600160D01*
X155374089Y-77600160D01*
X155564565Y-77552541D01*
X155659803Y-77504922D01*
X155755041Y-77409684D01*
X155802660Y-77266827D01*
X155802660Y-77171589D01*
X155755041Y-77028732D01*
X155707422Y-76981113D01*
X155374089Y-76981113D01*
X155374089Y-77171589D01*
X162532320Y-96506255D02*
X161532320Y-96506255D01*
X161532320Y-96268160D01*
X161579940Y-96125302D01*
X161675178Y-96030064D01*
X161770416Y-95982445D01*
X161960892Y-95934826D01*
X162103749Y-95934826D01*
X162294225Y-95982445D01*
X162389463Y-96030064D01*
X162484701Y-96125302D01*
X162532320Y-96268160D01*
X162532320Y-96506255D01*
X161627559Y-95553874D02*
X161579940Y-95506255D01*
X161532320Y-95411017D01*
X161532320Y-95172921D01*
X161579940Y-95077683D01*
X161627559Y-95030064D01*
X161722797Y-94982445D01*
X161818035Y-94982445D01*
X161960892Y-95030064D01*
X162532320Y-95601493D01*
X162532320Y-94982445D01*
X155854660Y-101397367D02*
X154854660Y-101397367D01*
X155568946Y-101064034D01*
X154854660Y-100730700D01*
X155854660Y-100730700D01*
X155330851Y-99921177D02*
X155378470Y-99778320D01*
X155426089Y-99730700D01*
X155521327Y-99683081D01*
X155664184Y-99683081D01*
X155759422Y-99730700D01*
X155807041Y-99778320D01*
X155854660Y-99873558D01*
X155854660Y-100254510D01*
X154854660Y-100254510D01*
X154854660Y-99921177D01*
X154902280Y-99825939D01*
X154949899Y-99778320D01*
X155045137Y-99730700D01*
X155140375Y-99730700D01*
X155235613Y-99778320D01*
X155283232Y-99825939D01*
X155330851Y-99921177D01*
X155330851Y-100254510D01*
X155854660Y-98683081D02*
X155378470Y-99016415D01*
X155854660Y-99254510D02*
X154854660Y-99254510D01*
X154854660Y-98873558D01*
X154902280Y-98778320D01*
X154949899Y-98730700D01*
X155045137Y-98683081D01*
X155187994Y-98683081D01*
X155283232Y-98730700D01*
X155330851Y-98778320D01*
X155378470Y-98873558D01*
X155378470Y-99254510D01*
X154854660Y-97825939D02*
X154854660Y-98016415D01*
X154902280Y-98111653D01*
X154949899Y-98159272D01*
X155092756Y-98254510D01*
X155283232Y-98302129D01*
X155664184Y-98302129D01*
X155759422Y-98254510D01*
X155807041Y-98206891D01*
X155854660Y-98111653D01*
X155854660Y-97921177D01*
X155807041Y-97825939D01*
X155759422Y-97778320D01*
X155664184Y-97730700D01*
X155426089Y-97730700D01*
X155330851Y-97778320D01*
X155283232Y-97825939D01*
X155235613Y-97921177D01*
X155235613Y-98111653D01*
X155283232Y-98206891D01*
X155330851Y-98254510D01*
X155426089Y-98302129D01*
X154854660Y-97111653D02*
X154854660Y-97016415D01*
X154902280Y-96921177D01*
X154949899Y-96873558D01*
X155045137Y-96825939D01*
X155235613Y-96778320D01*
X155473708Y-96778320D01*
X155664184Y-96825939D01*
X155759422Y-96873558D01*
X155807041Y-96921177D01*
X155854660Y-97016415D01*
X155854660Y-97111653D01*
X155807041Y-97206891D01*
X155759422Y-97254510D01*
X155664184Y-97302129D01*
X155473708Y-97349748D01*
X155235613Y-97349748D01*
X155045137Y-97302129D01*
X154949899Y-97254510D01*
X154902280Y-97206891D01*
X154854660Y-97111653D01*
X155854660Y-96349748D02*
X154854660Y-96349748D01*
X155330851Y-96349748D02*
X155330851Y-95778320D01*
X155854660Y-95778320D02*
X154854660Y-95778320D01*
X155854660Y-94778320D02*
X155854660Y-95349748D01*
X155854660Y-95064034D02*
X154854660Y-95064034D01*
X154997518Y-95159272D01*
X155092756Y-95254510D01*
X155140375Y-95349748D01*
X154854660Y-94159272D02*
X154854660Y-94064034D01*
X154902280Y-93968796D01*
X154949899Y-93921177D01*
X155045137Y-93873558D01*
X155235613Y-93825939D01*
X155473708Y-93825939D01*
X155664184Y-93873558D01*
X155759422Y-93921177D01*
X155807041Y-93968796D01*
X155854660Y-94064034D01*
X155854660Y-94159272D01*
X155807041Y-94254510D01*
X155759422Y-94302129D01*
X155664184Y-94349748D01*
X155473708Y-94397367D01*
X155235613Y-94397367D01*
X155045137Y-94349748D01*
X154949899Y-94302129D01*
X154902280Y-94254510D01*
X154854660Y-94159272D01*
X154854660Y-93206891D02*
X154854660Y-93111653D01*
X154902280Y-93016415D01*
X154949899Y-92968796D01*
X155045137Y-92921177D01*
X155235613Y-92873558D01*
X155473708Y-92873558D01*
X155664184Y-92921177D01*
X155759422Y-92968796D01*
X155807041Y-93016415D01*
X155854660Y-93111653D01*
X155854660Y-93206891D01*
X155807041Y-93302129D01*
X155759422Y-93349748D01*
X155664184Y-93397367D01*
X155473708Y-93444986D01*
X155235613Y-93444986D01*
X155045137Y-93397367D01*
X154949899Y-93349748D01*
X154902280Y-93302129D01*
X154854660Y-93206891D01*
X155759422Y-91873558D02*
X155807041Y-91921177D01*
X155854660Y-92064034D01*
X155854660Y-92159272D01*
X155807041Y-92302129D01*
X155711803Y-92397367D01*
X155616565Y-92444986D01*
X155426089Y-92492605D01*
X155283232Y-92492605D01*
X155092756Y-92444986D01*
X154997518Y-92397367D01*
X154902280Y-92302129D01*
X154854660Y-92159272D01*
X154854660Y-92064034D01*
X154902280Y-91921177D01*
X154949899Y-91873558D01*
X154854660Y-91587843D02*
X154854660Y-91016415D01*
X155854660Y-91302129D02*
X154854660Y-91302129D01*
X154902280Y-90159272D02*
X154854660Y-90254510D01*
X154854660Y-90397367D01*
X154902280Y-90540224D01*
X154997518Y-90635462D01*
X155092756Y-90683081D01*
X155283232Y-90730700D01*
X155426089Y-90730700D01*
X155616565Y-90683081D01*
X155711803Y-90635462D01*
X155807041Y-90540224D01*
X155854660Y-90397367D01*
X155854660Y-90302129D01*
X155807041Y-90159272D01*
X155759422Y-90111653D01*
X155426089Y-90111653D01*
X155426089Y-90302129D01*
X184472064Y-118014440D02*
X184472064Y-117014440D01*
X184710160Y-117014440D01*
X184853017Y-117062060D01*
X184948255Y-117157298D01*
X184995874Y-117252536D01*
X185043493Y-117443012D01*
X185043493Y-117585869D01*
X184995874Y-117776345D01*
X184948255Y-117871583D01*
X184853017Y-117966821D01*
X184710160Y-118014440D01*
X184472064Y-118014440D01*
X185376826Y-117014440D02*
X185995874Y-117014440D01*
X185662540Y-117395393D01*
X185805398Y-117395393D01*
X185900636Y-117443012D01*
X185948255Y-117490631D01*
X185995874Y-117585869D01*
X185995874Y-117823964D01*
X185948255Y-117919202D01*
X185900636Y-117966821D01*
X185805398Y-118014440D01*
X185519683Y-118014440D01*
X185424445Y-117966821D01*
X185376826Y-117919202D01*
X179601272Y-124692100D02*
X179601272Y-123692100D01*
X179934605Y-124406386D01*
X180267939Y-123692100D01*
X180267939Y-124692100D01*
X181077462Y-124168291D02*
X181220320Y-124215910D01*
X181267939Y-124263529D01*
X181315558Y-124358767D01*
X181315558Y-124501624D01*
X181267939Y-124596862D01*
X181220320Y-124644481D01*
X181125081Y-124692100D01*
X180744129Y-124692100D01*
X180744129Y-123692100D01*
X181077462Y-123692100D01*
X181172700Y-123739720D01*
X181220320Y-123787339D01*
X181267939Y-123882577D01*
X181267939Y-123977815D01*
X181220320Y-124073053D01*
X181172700Y-124120672D01*
X181077462Y-124168291D01*
X180744129Y-124168291D01*
X182315558Y-124692100D02*
X181982224Y-124215910D01*
X181744129Y-124692100D02*
X181744129Y-123692100D01*
X182125081Y-123692100D01*
X182220320Y-123739720D01*
X182267939Y-123787339D01*
X182315558Y-123882577D01*
X182315558Y-124025434D01*
X182267939Y-124120672D01*
X182220320Y-124168291D01*
X182125081Y-124215910D01*
X181744129Y-124215910D01*
X183172700Y-123692100D02*
X182982224Y-123692100D01*
X182886986Y-123739720D01*
X182839367Y-123787339D01*
X182744129Y-123930196D01*
X182696510Y-124120672D01*
X182696510Y-124501624D01*
X182744129Y-124596862D01*
X182791748Y-124644481D01*
X182886986Y-124692100D01*
X183077462Y-124692100D01*
X183172700Y-124644481D01*
X183220320Y-124596862D01*
X183267939Y-124501624D01*
X183267939Y-124263529D01*
X183220320Y-124168291D01*
X183172700Y-124120672D01*
X183077462Y-124073053D01*
X182886986Y-124073053D01*
X182791748Y-124120672D01*
X182744129Y-124168291D01*
X182696510Y-124263529D01*
X183886986Y-123692100D02*
X183982224Y-123692100D01*
X184077462Y-123739720D01*
X184125081Y-123787339D01*
X184172700Y-123882577D01*
X184220320Y-124073053D01*
X184220320Y-124311148D01*
X184172700Y-124501624D01*
X184125081Y-124596862D01*
X184077462Y-124644481D01*
X183982224Y-124692100D01*
X183886986Y-124692100D01*
X183791748Y-124644481D01*
X183744129Y-124596862D01*
X183696510Y-124501624D01*
X183648891Y-124311148D01*
X183648891Y-124073053D01*
X183696510Y-123882577D01*
X183744129Y-123787339D01*
X183791748Y-123739720D01*
X183886986Y-123692100D01*
X184648891Y-124692100D02*
X184648891Y-123692100D01*
X184648891Y-124168291D02*
X185220320Y-124168291D01*
X185220320Y-124692100D02*
X185220320Y-123692100D01*
X186220320Y-124692100D02*
X185648891Y-124692100D01*
X185934605Y-124692100D02*
X185934605Y-123692100D01*
X185839367Y-123834958D01*
X185744129Y-123930196D01*
X185648891Y-123977815D01*
X186839367Y-123692100D02*
X186934605Y-123692100D01*
X187029843Y-123739720D01*
X187077462Y-123787339D01*
X187125081Y-123882577D01*
X187172700Y-124073053D01*
X187172700Y-124311148D01*
X187125081Y-124501624D01*
X187077462Y-124596862D01*
X187029843Y-124644481D01*
X186934605Y-124692100D01*
X186839367Y-124692100D01*
X186744129Y-124644481D01*
X186696510Y-124596862D01*
X186648891Y-124501624D01*
X186601272Y-124311148D01*
X186601272Y-124073053D01*
X186648891Y-123882577D01*
X186696510Y-123787339D01*
X186744129Y-123739720D01*
X186839367Y-123692100D01*
X187791748Y-123692100D02*
X187886986Y-123692100D01*
X187982224Y-123739720D01*
X188029843Y-123787339D01*
X188077462Y-123882577D01*
X188125081Y-124073053D01*
X188125081Y-124311148D01*
X188077462Y-124501624D01*
X188029843Y-124596862D01*
X187982224Y-124644481D01*
X187886986Y-124692100D01*
X187791748Y-124692100D01*
X187696510Y-124644481D01*
X187648891Y-124596862D01*
X187601272Y-124501624D01*
X187553653Y-124311148D01*
X187553653Y-124073053D01*
X187601272Y-123882577D01*
X187648891Y-123787339D01*
X187696510Y-123739720D01*
X187791748Y-123692100D01*
X189125081Y-124596862D02*
X189077462Y-124644481D01*
X188934605Y-124692100D01*
X188839367Y-124692100D01*
X188696510Y-124644481D01*
X188601272Y-124549243D01*
X188553653Y-124454005D01*
X188506034Y-124263529D01*
X188506034Y-124120672D01*
X188553653Y-123930196D01*
X188601272Y-123834958D01*
X188696510Y-123739720D01*
X188839367Y-123692100D01*
X188934605Y-123692100D01*
X189077462Y-123739720D01*
X189125081Y-123787339D01*
X189410796Y-123692100D02*
X189982224Y-123692100D01*
X189696510Y-124692100D02*
X189696510Y-123692100D01*
X190839367Y-123739720D02*
X190744129Y-123692100D01*
X190601272Y-123692100D01*
X190458415Y-123739720D01*
X190363177Y-123834958D01*
X190315558Y-123930196D01*
X190267939Y-124120672D01*
X190267939Y-124263529D01*
X190315558Y-124454005D01*
X190363177Y-124549243D01*
X190458415Y-124644481D01*
X190601272Y-124692100D01*
X190696510Y-124692100D01*
X190839367Y-124644481D01*
X190886986Y-124596862D01*
X190886986Y-124263529D01*
X190696510Y-124263529D01*
X73596904Y-85447380D02*
X73596904Y-84447380D01*
X73835000Y-84447380D01*
X73977857Y-84495000D01*
X74073095Y-84590238D01*
X74120714Y-84685476D01*
X74168333Y-84875952D01*
X74168333Y-85018809D01*
X74120714Y-85209285D01*
X74073095Y-85304523D01*
X73977857Y-85399761D01*
X73835000Y-85447380D01*
X73596904Y-85447380D01*
X75025476Y-84780714D02*
X75025476Y-85447380D01*
X74787380Y-84399761D02*
X74549285Y-85114047D01*
X75168333Y-85114047D01*
X73740952Y-92172380D02*
X73740952Y-91172380D01*
X74074285Y-91886666D01*
X74407619Y-91172380D01*
X74407619Y-92172380D01*
X75217142Y-91648571D02*
X75360000Y-91696190D01*
X75407619Y-91743809D01*
X75455238Y-91839047D01*
X75455238Y-91981904D01*
X75407619Y-92077142D01*
X75360000Y-92124761D01*
X75264761Y-92172380D01*
X74883809Y-92172380D01*
X74883809Y-91172380D01*
X75217142Y-91172380D01*
X75312380Y-91220000D01*
X75360000Y-91267619D01*
X75407619Y-91362857D01*
X75407619Y-91458095D01*
X75360000Y-91553333D01*
X75312380Y-91600952D01*
X75217142Y-91648571D01*
X74883809Y-91648571D01*
X76455238Y-92172380D02*
X76121904Y-91696190D01*
X75883809Y-92172380D02*
X75883809Y-91172380D01*
X76264761Y-91172380D01*
X76360000Y-91220000D01*
X76407619Y-91267619D01*
X76455238Y-91362857D01*
X76455238Y-91505714D01*
X76407619Y-91600952D01*
X76360000Y-91648571D01*
X76264761Y-91696190D01*
X75883809Y-91696190D01*
X77312380Y-91172380D02*
X77121904Y-91172380D01*
X77026666Y-91220000D01*
X76979047Y-91267619D01*
X76883809Y-91410476D01*
X76836190Y-91600952D01*
X76836190Y-91981904D01*
X76883809Y-92077142D01*
X76931428Y-92124761D01*
X77026666Y-92172380D01*
X77217142Y-92172380D01*
X77312380Y-92124761D01*
X77360000Y-92077142D01*
X77407619Y-91981904D01*
X77407619Y-91743809D01*
X77360000Y-91648571D01*
X77312380Y-91600952D01*
X77217142Y-91553333D01*
X77026666Y-91553333D01*
X76931428Y-91600952D01*
X76883809Y-91648571D01*
X76836190Y-91743809D01*
X78026666Y-91172380D02*
X78121904Y-91172380D01*
X78217142Y-91220000D01*
X78264761Y-91267619D01*
X78312380Y-91362857D01*
X78360000Y-91553333D01*
X78360000Y-91791428D01*
X78312380Y-91981904D01*
X78264761Y-92077142D01*
X78217142Y-92124761D01*
X78121904Y-92172380D01*
X78026666Y-92172380D01*
X77931428Y-92124761D01*
X77883809Y-92077142D01*
X77836190Y-91981904D01*
X77788571Y-91791428D01*
X77788571Y-91553333D01*
X77836190Y-91362857D01*
X77883809Y-91267619D01*
X77931428Y-91220000D01*
X78026666Y-91172380D01*
X78788571Y-92172380D02*
X78788571Y-91172380D01*
X78788571Y-91648571D02*
X79360000Y-91648571D01*
X79360000Y-92172380D02*
X79360000Y-91172380D01*
X80360000Y-92172380D02*
X79788571Y-92172380D01*
X80074285Y-92172380D02*
X80074285Y-91172380D01*
X79979047Y-91315238D01*
X79883809Y-91410476D01*
X79788571Y-91458095D01*
X80979047Y-91172380D02*
X81074285Y-91172380D01*
X81169523Y-91220000D01*
X81217142Y-91267619D01*
X81264761Y-91362857D01*
X81312380Y-91553333D01*
X81312380Y-91791428D01*
X81264761Y-91981904D01*
X81217142Y-92077142D01*
X81169523Y-92124761D01*
X81074285Y-92172380D01*
X80979047Y-92172380D01*
X80883809Y-92124761D01*
X80836190Y-92077142D01*
X80788571Y-91981904D01*
X80740952Y-91791428D01*
X80740952Y-91553333D01*
X80788571Y-91362857D01*
X80836190Y-91267619D01*
X80883809Y-91220000D01*
X80979047Y-91172380D01*
X81931428Y-91172380D02*
X82026666Y-91172380D01*
X82121904Y-91220000D01*
X82169523Y-91267619D01*
X82217142Y-91362857D01*
X82264761Y-91553333D01*
X82264761Y-91791428D01*
X82217142Y-91981904D01*
X82169523Y-92077142D01*
X82121904Y-92124761D01*
X82026666Y-92172380D01*
X81931428Y-92172380D01*
X81836190Y-92124761D01*
X81788571Y-92077142D01*
X81740952Y-91981904D01*
X81693333Y-91791428D01*
X81693333Y-91553333D01*
X81740952Y-91362857D01*
X81788571Y-91267619D01*
X81836190Y-91220000D01*
X81931428Y-91172380D01*
X83264761Y-92077142D02*
X83217142Y-92124761D01*
X83074285Y-92172380D01*
X82979047Y-92172380D01*
X82836190Y-92124761D01*
X82740952Y-92029523D01*
X82693333Y-91934285D01*
X82645714Y-91743809D01*
X82645714Y-91600952D01*
X82693333Y-91410476D01*
X82740952Y-91315238D01*
X82836190Y-91220000D01*
X82979047Y-91172380D01*
X83074285Y-91172380D01*
X83217142Y-91220000D01*
X83264761Y-91267619D01*
X83550476Y-91172380D02*
X84121904Y-91172380D01*
X83836190Y-92172380D02*
X83836190Y-91172380D01*
X84979047Y-91220000D02*
X84883809Y-91172380D01*
X84740952Y-91172380D01*
X84598095Y-91220000D01*
X84502857Y-91315238D01*
X84455238Y-91410476D01*
X84407619Y-91600952D01*
X84407619Y-91743809D01*
X84455238Y-91934285D01*
X84502857Y-92029523D01*
X84598095Y-92124761D01*
X84740952Y-92172380D01*
X84836190Y-92172380D01*
X84979047Y-92124761D01*
X85026666Y-92077142D01*
X85026666Y-91743809D01*
X84836190Y-91743809D01*
X148602380Y-34163095D02*
X147602380Y-34163095D01*
X147602380Y-33925000D01*
X147650000Y-33782142D01*
X147745238Y-33686904D01*
X147840476Y-33639285D01*
X148030952Y-33591666D01*
X148173809Y-33591666D01*
X148364285Y-33639285D01*
X148459523Y-33686904D01*
X148554761Y-33782142D01*
X148602380Y-33925000D01*
X148602380Y-34163095D01*
X147602380Y-32734523D02*
X147602380Y-32925000D01*
X147650000Y-33020238D01*
X147697619Y-33067857D01*
X147840476Y-33163095D01*
X148030952Y-33210714D01*
X148411904Y-33210714D01*
X148507142Y-33163095D01*
X148554761Y-33115476D01*
X148602380Y-33020238D01*
X148602380Y-32829761D01*
X148554761Y-32734523D01*
X148507142Y-32686904D01*
X148411904Y-32639285D01*
X148173809Y-32639285D01*
X148078571Y-32686904D01*
X148030952Y-32734523D01*
X147983333Y-32829761D01*
X147983333Y-33020238D01*
X148030952Y-33115476D01*
X148078571Y-33163095D01*
X148173809Y-33210714D01*
X141977380Y-42944047D02*
X140977380Y-42944047D01*
X141691666Y-42610714D01*
X140977380Y-42277380D01*
X141977380Y-42277380D01*
X141453571Y-41467857D02*
X141501190Y-41325000D01*
X141548809Y-41277380D01*
X141644047Y-41229761D01*
X141786904Y-41229761D01*
X141882142Y-41277380D01*
X141929761Y-41325000D01*
X141977380Y-41420238D01*
X141977380Y-41801190D01*
X140977380Y-41801190D01*
X140977380Y-41467857D01*
X141025000Y-41372619D01*
X141072619Y-41325000D01*
X141167857Y-41277380D01*
X141263095Y-41277380D01*
X141358333Y-41325000D01*
X141405952Y-41372619D01*
X141453571Y-41467857D01*
X141453571Y-41801190D01*
X141977380Y-40229761D02*
X141501190Y-40563095D01*
X141977380Y-40801190D02*
X140977380Y-40801190D01*
X140977380Y-40420238D01*
X141025000Y-40325000D01*
X141072619Y-40277380D01*
X141167857Y-40229761D01*
X141310714Y-40229761D01*
X141405952Y-40277380D01*
X141453571Y-40325000D01*
X141501190Y-40420238D01*
X141501190Y-40801190D01*
X140977380Y-39372619D02*
X140977380Y-39563095D01*
X141025000Y-39658333D01*
X141072619Y-39705952D01*
X141215476Y-39801190D01*
X141405952Y-39848809D01*
X141786904Y-39848809D01*
X141882142Y-39801190D01*
X141929761Y-39753571D01*
X141977380Y-39658333D01*
X141977380Y-39467857D01*
X141929761Y-39372619D01*
X141882142Y-39325000D01*
X141786904Y-39277380D01*
X141548809Y-39277380D01*
X141453571Y-39325000D01*
X141405952Y-39372619D01*
X141358333Y-39467857D01*
X141358333Y-39658333D01*
X141405952Y-39753571D01*
X141453571Y-39801190D01*
X141548809Y-39848809D01*
X140977380Y-38658333D02*
X140977380Y-38563095D01*
X141025000Y-38467857D01*
X141072619Y-38420238D01*
X141167857Y-38372619D01*
X141358333Y-38325000D01*
X141596428Y-38325000D01*
X141786904Y-38372619D01*
X141882142Y-38420238D01*
X141929761Y-38467857D01*
X141977380Y-38563095D01*
X141977380Y-38658333D01*
X141929761Y-38753571D01*
X141882142Y-38801190D01*
X141786904Y-38848809D01*
X141596428Y-38896428D01*
X141358333Y-38896428D01*
X141167857Y-38848809D01*
X141072619Y-38801190D01*
X141025000Y-38753571D01*
X140977380Y-38658333D01*
X141977380Y-37896428D02*
X140977380Y-37896428D01*
X141453571Y-37896428D02*
X141453571Y-37325000D01*
X141977380Y-37325000D02*
X140977380Y-37325000D01*
X141977380Y-36325000D02*
X141977380Y-36896428D01*
X141977380Y-36610714D02*
X140977380Y-36610714D01*
X141120238Y-36705952D01*
X141215476Y-36801190D01*
X141263095Y-36896428D01*
X140977380Y-35705952D02*
X140977380Y-35610714D01*
X141025000Y-35515476D01*
X141072619Y-35467857D01*
X141167857Y-35420238D01*
X141358333Y-35372619D01*
X141596428Y-35372619D01*
X141786904Y-35420238D01*
X141882142Y-35467857D01*
X141929761Y-35515476D01*
X141977380Y-35610714D01*
X141977380Y-35705952D01*
X141929761Y-35801190D01*
X141882142Y-35848809D01*
X141786904Y-35896428D01*
X141596428Y-35944047D01*
X141358333Y-35944047D01*
X141167857Y-35896428D01*
X141072619Y-35848809D01*
X141025000Y-35801190D01*
X140977380Y-35705952D01*
X140977380Y-34753571D02*
X140977380Y-34658333D01*
X141025000Y-34563095D01*
X141072619Y-34515476D01*
X141167857Y-34467857D01*
X141358333Y-34420238D01*
X141596428Y-34420238D01*
X141786904Y-34467857D01*
X141882142Y-34515476D01*
X141929761Y-34563095D01*
X141977380Y-34658333D01*
X141977380Y-34753571D01*
X141929761Y-34848809D01*
X141882142Y-34896428D01*
X141786904Y-34944047D01*
X141596428Y-34991666D01*
X141358333Y-34991666D01*
X141167857Y-34944047D01*
X141072619Y-34896428D01*
X141025000Y-34848809D01*
X140977380Y-34753571D01*
X141882142Y-33420238D02*
X141929761Y-33467857D01*
X141977380Y-33610714D01*
X141977380Y-33705952D01*
X141929761Y-33848809D01*
X141834523Y-33944047D01*
X141739285Y-33991666D01*
X141548809Y-34039285D01*
X141405952Y-34039285D01*
X141215476Y-33991666D01*
X141120238Y-33944047D01*
X141025000Y-33848809D01*
X140977380Y-33705952D01*
X140977380Y-33610714D01*
X141025000Y-33467857D01*
X141072619Y-33420238D01*
X140977380Y-33134523D02*
X140977380Y-32563095D01*
X141977380Y-32848809D02*
X140977380Y-32848809D01*
X141025000Y-31705952D02*
X140977380Y-31801190D01*
X140977380Y-31944047D01*
X141025000Y-32086904D01*
X141120238Y-32182142D01*
X141215476Y-32229761D01*
X141405952Y-32277380D01*
X141548809Y-32277380D01*
X141739285Y-32229761D01*
X141834523Y-32182142D01*
X141929761Y-32086904D01*
X141977380Y-31944047D01*
X141977380Y-31848809D01*
X141929761Y-31705952D01*
X141882142Y-31658333D01*
X141548809Y-31658333D01*
X141548809Y-31848809D01*
X149901904Y-61382380D02*
X149901904Y-60382380D01*
X150282857Y-60382380D01*
X150378095Y-60430000D01*
X150425714Y-60477619D01*
X150473333Y-60572857D01*
X150473333Y-60715714D01*
X150425714Y-60810952D01*
X150378095Y-60858571D01*
X150282857Y-60906190D01*
X149901904Y-60906190D01*
X150854285Y-60477619D02*
X150901904Y-60430000D01*
X150997142Y-60382380D01*
X151235238Y-60382380D01*
X151330476Y-60430000D01*
X151378095Y-60477619D01*
X151425714Y-60572857D01*
X151425714Y-60668095D01*
X151378095Y-60810952D01*
X150806666Y-61382380D01*
X151425714Y-61382380D01*
D14*
X141205952Y-69579761D02*
X141205952Y-67579761D01*
X141872619Y-69008333D01*
X142539285Y-67579761D01*
X142539285Y-69579761D01*
X143777380Y-69579761D02*
X143586904Y-69484523D01*
X143491666Y-69389285D01*
X143396428Y-69198809D01*
X143396428Y-68627380D01*
X143491666Y-68436904D01*
X143586904Y-68341666D01*
X143777380Y-68246428D01*
X144063095Y-68246428D01*
X144253571Y-68341666D01*
X144348809Y-68436904D01*
X144444047Y-68627380D01*
X144444047Y-69198809D01*
X144348809Y-69389285D01*
X144253571Y-69484523D01*
X144063095Y-69579761D01*
X143777380Y-69579761D01*
X145015476Y-68246428D02*
X145777380Y-68246428D01*
X145301190Y-67579761D02*
X145301190Y-69294047D01*
X145396428Y-69484523D01*
X145586904Y-69579761D01*
X145777380Y-69579761D01*
X145967857Y-69770238D02*
X147491666Y-69770238D01*
X149110714Y-69389285D02*
X149015476Y-69484523D01*
X148729761Y-69579761D01*
X148539285Y-69579761D01*
X148253571Y-69484523D01*
X148063095Y-69294047D01*
X147967857Y-69103571D01*
X147872619Y-68722619D01*
X147872619Y-68436904D01*
X147967857Y-68055952D01*
X148063095Y-67865476D01*
X148253571Y-67675000D01*
X148539285Y-67579761D01*
X148729761Y-67579761D01*
X149015476Y-67675000D01*
X149110714Y-67770238D01*
X149682142Y-68246428D02*
X150444047Y-68246428D01*
X149967857Y-67579761D02*
X149967857Y-69294047D01*
X150063095Y-69484523D01*
X150253571Y-69579761D01*
X150444047Y-69579761D01*
X151110714Y-69579761D02*
X151110714Y-68246428D01*
X151110714Y-68627380D02*
X151205952Y-68436904D01*
X151301190Y-68341666D01*
X151491666Y-68246428D01*
X151682142Y-68246428D01*
X152634523Y-69579761D02*
X152444047Y-69484523D01*
X152348809Y-69294047D01*
X152348809Y-67579761D01*
D10*
X54551904Y-88182380D02*
X54551904Y-87182380D01*
X54932857Y-87182380D01*
X55028095Y-87230000D01*
X55075714Y-87277619D01*
X55123333Y-87372857D01*
X55123333Y-87515714D01*
X55075714Y-87610952D01*
X55028095Y-87658571D01*
X54932857Y-87706190D01*
X54551904Y-87706190D01*
X55456666Y-87182380D02*
X56075714Y-87182380D01*
X55742380Y-87563333D01*
X55885238Y-87563333D01*
X55980476Y-87610952D01*
X56028095Y-87658571D01*
X56075714Y-87753809D01*
X56075714Y-87991904D01*
X56028095Y-88087142D01*
X55980476Y-88134761D01*
X55885238Y-88182380D01*
X55599523Y-88182380D01*
X55504285Y-88134761D01*
X55456666Y-88087142D01*
D11*
X52749285Y-86032142D02*
X52963571Y-86103571D01*
X53320714Y-86103571D01*
X53463571Y-86032142D01*
X53535000Y-85960714D01*
X53606428Y-85817857D01*
X53606428Y-85675000D01*
X53535000Y-85532142D01*
X53463571Y-85460714D01*
X53320714Y-85389285D01*
X53035000Y-85317857D01*
X52892142Y-85246428D01*
X52820714Y-85175000D01*
X52749285Y-85032142D01*
X52749285Y-84889285D01*
X52820714Y-84746428D01*
X52892142Y-84675000D01*
X53035000Y-84603571D01*
X53392142Y-84603571D01*
X53606428Y-84675000D01*
X53892142Y-86246428D02*
X55035000Y-86246428D01*
X55392142Y-84603571D02*
X55392142Y-85817857D01*
X55463571Y-85960714D01*
X55535000Y-86032142D01*
X55677857Y-86103571D01*
X55963571Y-86103571D01*
X56106428Y-86032142D01*
X56177857Y-85960714D01*
X56249285Y-85817857D01*
X56249285Y-84603571D01*
X56963571Y-86103571D02*
X56963571Y-84603571D01*
X57534999Y-84603571D01*
X57677857Y-84675000D01*
X57749285Y-84746428D01*
X57820714Y-84889285D01*
X57820714Y-85103571D01*
X57749285Y-85246428D01*
X57677857Y-85317857D01*
X57534999Y-85389285D01*
X56963571Y-85389285D01*
D10*
X53981904Y-73892380D02*
X53981904Y-72892380D01*
X54362857Y-72892380D01*
X54458095Y-72940000D01*
X54505714Y-72987619D01*
X54553333Y-73082857D01*
X54553333Y-73225714D01*
X54505714Y-73320952D01*
X54458095Y-73368571D01*
X54362857Y-73416190D01*
X53981904Y-73416190D01*
X55410476Y-73225714D02*
X55410476Y-73892380D01*
X55172380Y-72844761D02*
X54934285Y-73559047D01*
X55553333Y-73559047D01*
X50811666Y-72182380D02*
X50811666Y-71182380D01*
X51145000Y-71896666D01*
X51478333Y-71182380D01*
X51478333Y-72182380D01*
X52097380Y-72182380D02*
X52002142Y-72134761D01*
X51954523Y-72087142D01*
X51906904Y-71991904D01*
X51906904Y-71706190D01*
X51954523Y-71610952D01*
X52002142Y-71563333D01*
X52097380Y-71515714D01*
X52240238Y-71515714D01*
X52335476Y-71563333D01*
X52383095Y-71610952D01*
X52430714Y-71706190D01*
X52430714Y-71991904D01*
X52383095Y-72087142D01*
X52335476Y-72134761D01*
X52240238Y-72182380D01*
X52097380Y-72182380D01*
X52716428Y-71515714D02*
X53097380Y-71515714D01*
X52859285Y-71182380D02*
X52859285Y-72039523D01*
X52906904Y-72134761D01*
X53002142Y-72182380D01*
X53097380Y-72182380D01*
X53192619Y-72277619D02*
X53954523Y-72277619D01*
X54764047Y-72182380D02*
X54430714Y-71706190D01*
X54192619Y-72182380D02*
X54192619Y-71182380D01*
X54573571Y-71182380D01*
X54668809Y-71230000D01*
X54716428Y-71277619D01*
X54764047Y-71372857D01*
X54764047Y-71515714D01*
X54716428Y-71610952D01*
X54668809Y-71658571D01*
X54573571Y-71706190D01*
X54192619Y-71706190D01*
X55335476Y-72182380D02*
X55240238Y-72134761D01*
X55192619Y-72039523D01*
X55192619Y-71182380D01*
X55621190Y-71515714D02*
X55859285Y-72182380D01*
X56097380Y-71515714D02*
X55859285Y-72182380D01*
X55764047Y-72420476D01*
X55716428Y-72468095D01*
X55621190Y-72515714D01*
X56240238Y-72277619D02*
X57002142Y-72277619D01*
X57811666Y-72087142D02*
X57764047Y-72134761D01*
X57621190Y-72182380D01*
X57525952Y-72182380D01*
X57383095Y-72134761D01*
X57287857Y-72039523D01*
X57240238Y-71944285D01*
X57192619Y-71753809D01*
X57192619Y-71610952D01*
X57240238Y-71420476D01*
X57287857Y-71325238D01*
X57383095Y-71230000D01*
X57525952Y-71182380D01*
X57621190Y-71182380D01*
X57764047Y-71230000D01*
X57811666Y-71277619D01*
X58097380Y-71515714D02*
X58478333Y-71515714D01*
X58240238Y-71182380D02*
X58240238Y-72039523D01*
X58287857Y-72134761D01*
X58383095Y-72182380D01*
X58478333Y-72182380D01*
X58811666Y-72182380D02*
X58811666Y-71515714D01*
X58811666Y-71706190D02*
X58859285Y-71610952D01*
X58906904Y-71563333D01*
X59002142Y-71515714D01*
X59097380Y-71515714D01*
X59573571Y-72182380D02*
X59478333Y-72134761D01*
X59430714Y-72039523D01*
X59430714Y-71182380D01*
X54591904Y-60942380D02*
X54591904Y-59942380D01*
X54972857Y-59942380D01*
X55068095Y-59990000D01*
X55115714Y-60037619D01*
X55163333Y-60132857D01*
X55163333Y-60275714D01*
X55115714Y-60370952D01*
X55068095Y-60418571D01*
X54972857Y-60466190D01*
X54591904Y-60466190D01*
X56068095Y-59942380D02*
X55591904Y-59942380D01*
X55544285Y-60418571D01*
X55591904Y-60370952D01*
X55687142Y-60323333D01*
X55925238Y-60323333D01*
X56020476Y-60370952D01*
X56068095Y-60418571D01*
X56115714Y-60513809D01*
X56115714Y-60751904D01*
X56068095Y-60847142D01*
X56020476Y-60894761D01*
X55925238Y-60942380D01*
X55687142Y-60942380D01*
X55591904Y-60894761D01*
X55544285Y-60847142D01*
D11*
X51571428Y-58567857D02*
X51785714Y-58639285D01*
X51857142Y-58710714D01*
X51928571Y-58853571D01*
X51928571Y-59067857D01*
X51857142Y-59210714D01*
X51785714Y-59282142D01*
X51642857Y-59353571D01*
X51071428Y-59353571D01*
X51071428Y-57853571D01*
X51571428Y-57853571D01*
X51714285Y-57925000D01*
X51785714Y-57996428D01*
X51857142Y-58139285D01*
X51857142Y-58282142D01*
X51785714Y-58425000D01*
X51714285Y-58496428D01*
X51571428Y-58567857D01*
X51071428Y-58567857D01*
X53214285Y-59353571D02*
X53214285Y-58567857D01*
X53142857Y-58425000D01*
X53000000Y-58353571D01*
X52714285Y-58353571D01*
X52571428Y-58425000D01*
X53214285Y-59282142D02*
X53071428Y-59353571D01*
X52714285Y-59353571D01*
X52571428Y-59282142D01*
X52500000Y-59139285D01*
X52500000Y-58996428D01*
X52571428Y-58853571D01*
X52714285Y-58782142D01*
X53071428Y-58782142D01*
X53214285Y-58710714D01*
X53714285Y-58353571D02*
X54285714Y-58353571D01*
X53928571Y-57853571D02*
X53928571Y-59139285D01*
X54000000Y-59282142D01*
X54142857Y-59353571D01*
X54285714Y-59353571D01*
X54428571Y-59496428D02*
X55571428Y-59496428D01*
X55928571Y-59353571D02*
X55928571Y-57853571D01*
X56785714Y-59353571D01*
X56785714Y-57853571D01*
X58071428Y-59282142D02*
X57928571Y-59353571D01*
X57642857Y-59353571D01*
X57500000Y-59282142D01*
X57428571Y-59139285D01*
X57428571Y-58567857D01*
X57500000Y-58425000D01*
X57642857Y-58353571D01*
X57928571Y-58353571D01*
X58071428Y-58425000D01*
X58142857Y-58567857D01*
X58142857Y-58710714D01*
X57428571Y-58853571D01*
X59428571Y-58353571D02*
X59428571Y-59567857D01*
X59357142Y-59710714D01*
X59285714Y-59782142D01*
X59142857Y-59853571D01*
X58928571Y-59853571D01*
X58785714Y-59782142D01*
X59428571Y-59282142D02*
X59285714Y-59353571D01*
X59000000Y-59353571D01*
X58857142Y-59282142D01*
X58785714Y-59210714D01*
X58714285Y-59067857D01*
X58714285Y-58639285D01*
X58785714Y-58496428D01*
X58857142Y-58425000D01*
X59000000Y-58353571D01*
X59285714Y-58353571D01*
X59428571Y-58425000D01*
D10*
X54731904Y-100182380D02*
X54731904Y-99182380D01*
X55112857Y-99182380D01*
X55208095Y-99230000D01*
X55255714Y-99277619D01*
X55303333Y-99372857D01*
X55303333Y-99515714D01*
X55255714Y-99610952D01*
X55208095Y-99658571D01*
X55112857Y-99706190D01*
X54731904Y-99706190D01*
X56160476Y-99182380D02*
X55970000Y-99182380D01*
X55874761Y-99230000D01*
X55827142Y-99277619D01*
X55731904Y-99420476D01*
X55684285Y-99610952D01*
X55684285Y-99991904D01*
X55731904Y-100087142D01*
X55779523Y-100134761D01*
X55874761Y-100182380D01*
X56065238Y-100182380D01*
X56160476Y-100134761D01*
X56208095Y-100087142D01*
X56255714Y-99991904D01*
X56255714Y-99753809D01*
X56208095Y-99658571D01*
X56160476Y-99610952D01*
X56065238Y-99563333D01*
X55874761Y-99563333D01*
X55779523Y-99610952D01*
X55731904Y-99658571D01*
X55684285Y-99753809D01*
D11*
X52924285Y-98187142D02*
X53138571Y-98258571D01*
X53495714Y-98258571D01*
X53638571Y-98187142D01*
X53710000Y-98115714D01*
X53781428Y-97972857D01*
X53781428Y-97830000D01*
X53710000Y-97687142D01*
X53638571Y-97615714D01*
X53495714Y-97544285D01*
X53210000Y-97472857D01*
X53067142Y-97401428D01*
X52995714Y-97330000D01*
X52924285Y-97187142D01*
X52924285Y-97044285D01*
X52995714Y-96901428D01*
X53067142Y-96830000D01*
X53210000Y-96758571D01*
X53567142Y-96758571D01*
X53781428Y-96830000D01*
X54067142Y-98401428D02*
X55210000Y-98401428D01*
X55567142Y-98258571D02*
X55567142Y-96758571D01*
X55924285Y-96758571D01*
X56138571Y-96830000D01*
X56281428Y-96972857D01*
X56352857Y-97115714D01*
X56424285Y-97401428D01*
X56424285Y-97615714D01*
X56352857Y-97901428D01*
X56281428Y-98044285D01*
X56138571Y-98187142D01*
X55924285Y-98258571D01*
X55567142Y-98258571D01*
X57067142Y-98258571D02*
X57067142Y-96758571D01*
X57924285Y-98258571D01*
X57924285Y-96758571D01*
D10*
X132991904Y-47172380D02*
X132991904Y-46172380D01*
X133372857Y-46172380D01*
X133468095Y-46220000D01*
X133515714Y-46267619D01*
X133563333Y-46362857D01*
X133563333Y-46505714D01*
X133515714Y-46600952D01*
X133468095Y-46648571D01*
X133372857Y-46696190D01*
X132991904Y-46696190D01*
X134039523Y-47172380D02*
X134230000Y-47172380D01*
X134325238Y-47124761D01*
X134372857Y-47077142D01*
X134468095Y-46934285D01*
X134515714Y-46743809D01*
X134515714Y-46362857D01*
X134468095Y-46267619D01*
X134420476Y-46220000D01*
X134325238Y-46172380D01*
X134134761Y-46172380D01*
X134039523Y-46220000D01*
X133991904Y-46267619D01*
X133944285Y-46362857D01*
X133944285Y-46600952D01*
X133991904Y-46696190D01*
X134039523Y-46743809D01*
X134134761Y-46791428D01*
X134325238Y-46791428D01*
X134420476Y-46743809D01*
X134468095Y-46696190D01*
X134515714Y-46600952D01*
D11*
X127807142Y-49728571D02*
X127807142Y-48228571D01*
X128378571Y-48228571D01*
X128521428Y-48300000D01*
X128592857Y-48371428D01*
X128664285Y-48514285D01*
X128664285Y-48728571D01*
X128592857Y-48871428D01*
X128521428Y-48942857D01*
X128378571Y-49014285D01*
X127807142Y-49014285D01*
X130164285Y-49728571D02*
X129664285Y-49014285D01*
X129307142Y-49728571D02*
X129307142Y-48228571D01*
X129878571Y-48228571D01*
X130021428Y-48300000D01*
X130092857Y-48371428D01*
X130164285Y-48514285D01*
X130164285Y-48728571D01*
X130092857Y-48871428D01*
X130021428Y-48942857D01*
X129878571Y-49014285D01*
X129307142Y-49014285D01*
X130450000Y-49871428D02*
X131592857Y-49871428D01*
X132807142Y-49585714D02*
X132735714Y-49657142D01*
X132521428Y-49728571D01*
X132378571Y-49728571D01*
X132164285Y-49657142D01*
X132021428Y-49514285D01*
X131950000Y-49371428D01*
X131878571Y-49085714D01*
X131878571Y-48871428D01*
X131950000Y-48585714D01*
X132021428Y-48442857D01*
X132164285Y-48300000D01*
X132378571Y-48228571D01*
X132521428Y-48228571D01*
X132735714Y-48300000D01*
X132807142Y-48371428D01*
X133664285Y-49728571D02*
X133521428Y-49657142D01*
X133450000Y-49585714D01*
X133378571Y-49442857D01*
X133378571Y-49014285D01*
X133450000Y-48871428D01*
X133521428Y-48800000D01*
X133664285Y-48728571D01*
X133878571Y-48728571D01*
X134021428Y-48800000D01*
X134092857Y-48871428D01*
X134164285Y-49014285D01*
X134164285Y-49442857D01*
X134092857Y-49585714D01*
X134021428Y-49657142D01*
X133878571Y-49728571D01*
X133664285Y-49728571D01*
X134807142Y-49728571D02*
X134807142Y-48728571D01*
X134807142Y-48228571D02*
X134735714Y-48300000D01*
X134807142Y-48371428D01*
X134878571Y-48300000D01*
X134807142Y-48228571D01*
X134807142Y-48371428D01*
X135735714Y-49728571D02*
X135592857Y-49657142D01*
X135521428Y-49514285D01*
X135521428Y-48228571D01*
D10*
X180282380Y-71256666D02*
X179282380Y-71256666D01*
X179282380Y-70875714D02*
X180282380Y-70209047D01*
X179282380Y-70209047D02*
X180282380Y-70875714D01*
X179282380Y-69970952D02*
X179282380Y-69399523D01*
X180282380Y-69685238D02*
X179282380Y-69685238D01*
X180377619Y-68399523D02*
X180330000Y-68494761D01*
X180234761Y-68590000D01*
X180091904Y-68732857D01*
X180044285Y-68828095D01*
X180044285Y-68923333D01*
X180282380Y-68875714D02*
X180234761Y-68970952D01*
X180139523Y-69066190D01*
X179949047Y-69113809D01*
X179615714Y-69113809D01*
X179425238Y-69066190D01*
X179330000Y-68970952D01*
X179282380Y-68875714D01*
X179282380Y-68685238D01*
X179330000Y-68590000D01*
X179425238Y-68494761D01*
X179615714Y-68447142D01*
X179949047Y-68447142D01*
X180139523Y-68494761D01*
X180234761Y-68590000D01*
X180282380Y-68685238D01*
X180282380Y-68875714D01*
X179282380Y-67542380D02*
X179282380Y-68018571D01*
X179758571Y-68066190D01*
X179710952Y-68018571D01*
X179663333Y-67923333D01*
X179663333Y-67685238D01*
X179710952Y-67590000D01*
X179758571Y-67542380D01*
X179853809Y-67494761D01*
X180091904Y-67494761D01*
X180187142Y-67542380D01*
X180234761Y-67590000D01*
X180282380Y-67685238D01*
X180282380Y-67923333D01*
X180234761Y-68018571D01*
X180187142Y-68066190D01*
X179377619Y-67113809D02*
X179330000Y-67066190D01*
X179282380Y-66970952D01*
X179282380Y-66732857D01*
X179330000Y-66637619D01*
X179377619Y-66590000D01*
X179472857Y-66542380D01*
X179568095Y-66542380D01*
X179710952Y-66590000D01*
X180282380Y-67161428D01*
X180282380Y-66542380D01*
X180282380Y-66113809D02*
X179282380Y-66113809D01*
X179282380Y-65732857D01*
X179330000Y-65637619D01*
X179377619Y-65590000D01*
X179472857Y-65542380D01*
X179615714Y-65542380D01*
X179710952Y-65590000D01*
X179758571Y-65637619D01*
X179806190Y-65732857D01*
X179806190Y-66113809D01*
X180282380Y-64590000D02*
X180282380Y-65161428D01*
X180282380Y-64875714D02*
X179282380Y-64875714D01*
X179425238Y-64970952D01*
X179520476Y-65066190D01*
X179568095Y-65161428D01*
X179282380Y-63970952D02*
X179282380Y-63875714D01*
X179330000Y-63780476D01*
X179377619Y-63732857D01*
X179472857Y-63685238D01*
X179663333Y-63637619D01*
X179901428Y-63637619D01*
X180091904Y-63685238D01*
X180187142Y-63732857D01*
X180234761Y-63780476D01*
X180282380Y-63875714D01*
X180282380Y-63970952D01*
X180234761Y-64066190D01*
X180187142Y-64113809D01*
X180091904Y-64161428D01*
X179901428Y-64209047D01*
X179663333Y-64209047D01*
X179472857Y-64161428D01*
X179377619Y-64113809D01*
X179330000Y-64066190D01*
X179282380Y-63970952D01*
X180282380Y-63209047D02*
X179282380Y-63209047D01*
X179282380Y-62828095D01*
X179330000Y-62732857D01*
X179377619Y-62685238D01*
X179472857Y-62637619D01*
X179615714Y-62637619D01*
X179710952Y-62685238D01*
X179758571Y-62732857D01*
X179806190Y-62828095D01*
X179806190Y-63209047D01*
X170357619Y-70208571D02*
X170310000Y-70303809D01*
X170214761Y-70399047D01*
X170071904Y-70541904D01*
X170024285Y-70637142D01*
X170024285Y-70732380D01*
X170262380Y-70684761D02*
X170214761Y-70780000D01*
X170119523Y-70875238D01*
X169929047Y-70922857D01*
X169595714Y-70922857D01*
X169405238Y-70875238D01*
X169310000Y-70780000D01*
X169262380Y-70684761D01*
X169262380Y-70494285D01*
X169310000Y-70399047D01*
X169405238Y-70303809D01*
X169595714Y-70256190D01*
X169929047Y-70256190D01*
X170119523Y-70303809D01*
X170214761Y-70399047D01*
X170262380Y-70494285D01*
X170262380Y-70684761D01*
X170357619Y-70065714D02*
X170357619Y-69303809D01*
X170262380Y-69065714D02*
X169262380Y-69065714D01*
X169262380Y-68684761D01*
X169310000Y-68589523D01*
X169357619Y-68541904D01*
X169452857Y-68494285D01*
X169595714Y-68494285D01*
X169690952Y-68541904D01*
X169738571Y-68589523D01*
X169786190Y-68684761D01*
X169786190Y-69065714D01*
X170262380Y-68065714D02*
X169262380Y-68065714D01*
X169976666Y-67732380D01*
X169262380Y-67399047D01*
X170262380Y-67399047D01*
X169262380Y-66732380D02*
X169262380Y-66541904D01*
X169310000Y-66446666D01*
X169405238Y-66351428D01*
X169595714Y-66303809D01*
X169929047Y-66303809D01*
X170119523Y-66351428D01*
X170214761Y-66446666D01*
X170262380Y-66541904D01*
X170262380Y-66732380D01*
X170214761Y-66827619D01*
X170119523Y-66922857D01*
X169929047Y-66970476D01*
X169595714Y-66970476D01*
X169405238Y-66922857D01*
X169310000Y-66827619D01*
X169262380Y-66732380D01*
X170214761Y-65922857D02*
X170262380Y-65780000D01*
X170262380Y-65541904D01*
X170214761Y-65446666D01*
X170167142Y-65399047D01*
X170071904Y-65351428D01*
X169976666Y-65351428D01*
X169881428Y-65399047D01*
X169833809Y-65446666D01*
X169786190Y-65541904D01*
X169738571Y-65732380D01*
X169690952Y-65827619D01*
X169643333Y-65875238D01*
X169548095Y-65922857D01*
X169452857Y-65922857D01*
X169357619Y-65875238D01*
X169310000Y-65827619D01*
X169262380Y-65732380D01*
X169262380Y-65494285D01*
X169310000Y-65351428D01*
X170357619Y-65160952D02*
X170357619Y-64399047D01*
X169310000Y-63637142D02*
X169262380Y-63732380D01*
X169262380Y-63875238D01*
X169310000Y-64018095D01*
X169405238Y-64113333D01*
X169500476Y-64160952D01*
X169690952Y-64208571D01*
X169833809Y-64208571D01*
X170024285Y-64160952D01*
X170119523Y-64113333D01*
X170214761Y-64018095D01*
X170262380Y-63875238D01*
X170262380Y-63780000D01*
X170214761Y-63637142D01*
X170167142Y-63589523D01*
X169833809Y-63589523D01*
X169833809Y-63780000D01*
X170262380Y-63160952D02*
X169262380Y-63160952D01*
X169262380Y-62922857D01*
X169310000Y-62780000D01*
X169405238Y-62684761D01*
X169500476Y-62637142D01*
X169690952Y-62589523D01*
X169833809Y-62589523D01*
X170024285Y-62637142D01*
X170119523Y-62684761D01*
X170214761Y-62780000D01*
X170262380Y-62922857D01*
X170262380Y-63160952D01*
X170214761Y-62208571D02*
X170262380Y-62065714D01*
X170262380Y-61827619D01*
X170214761Y-61732380D01*
X170167142Y-61684761D01*
X170071904Y-61637142D01*
X169976666Y-61637142D01*
X169881428Y-61684761D01*
X169833809Y-61732380D01*
X169786190Y-61827619D01*
X169738571Y-62018095D01*
X169690952Y-62113333D01*
X169643333Y-62160952D01*
X169548095Y-62208571D01*
X169452857Y-62208571D01*
X169357619Y-62160952D01*
X169310000Y-62113333D01*
X169262380Y-62018095D01*
X169262380Y-61780000D01*
X169310000Y-61637142D01*
X180032380Y-90306666D02*
X179032380Y-90306666D01*
X179032380Y-89925714D02*
X180032380Y-89259047D01*
X179032380Y-89259047D02*
X180032380Y-89925714D01*
X179032380Y-89020952D02*
X179032380Y-88449523D01*
X180032380Y-88735238D02*
X179032380Y-88735238D01*
X180127619Y-87449523D02*
X180080000Y-87544761D01*
X179984761Y-87640000D01*
X179841904Y-87782857D01*
X179794285Y-87878095D01*
X179794285Y-87973333D01*
X180032380Y-87925714D02*
X179984761Y-88020952D01*
X179889523Y-88116190D01*
X179699047Y-88163809D01*
X179365714Y-88163809D01*
X179175238Y-88116190D01*
X179080000Y-88020952D01*
X179032380Y-87925714D01*
X179032380Y-87735238D01*
X179080000Y-87640000D01*
X179175238Y-87544761D01*
X179365714Y-87497142D01*
X179699047Y-87497142D01*
X179889523Y-87544761D01*
X179984761Y-87640000D01*
X180032380Y-87735238D01*
X180032380Y-87925714D01*
X179032380Y-86592380D02*
X179032380Y-87068571D01*
X179508571Y-87116190D01*
X179460952Y-87068571D01*
X179413333Y-86973333D01*
X179413333Y-86735238D01*
X179460952Y-86640000D01*
X179508571Y-86592380D01*
X179603809Y-86544761D01*
X179841904Y-86544761D01*
X179937142Y-86592380D01*
X179984761Y-86640000D01*
X180032380Y-86735238D01*
X180032380Y-86973333D01*
X179984761Y-87068571D01*
X179937142Y-87116190D01*
X179127619Y-86163809D02*
X179080000Y-86116190D01*
X179032380Y-86020952D01*
X179032380Y-85782857D01*
X179080000Y-85687619D01*
X179127619Y-85640000D01*
X179222857Y-85592380D01*
X179318095Y-85592380D01*
X179460952Y-85640000D01*
X180032380Y-86211428D01*
X180032380Y-85592380D01*
X180032380Y-85163809D02*
X179032380Y-85163809D01*
X179032380Y-84782857D01*
X179080000Y-84687619D01*
X179127619Y-84640000D01*
X179222857Y-84592380D01*
X179365714Y-84592380D01*
X179460952Y-84640000D01*
X179508571Y-84687619D01*
X179556190Y-84782857D01*
X179556190Y-85163809D01*
X180032380Y-83640000D02*
X180032380Y-84211428D01*
X180032380Y-83925714D02*
X179032380Y-83925714D01*
X179175238Y-84020952D01*
X179270476Y-84116190D01*
X179318095Y-84211428D01*
X179032380Y-83020952D02*
X179032380Y-82925714D01*
X179080000Y-82830476D01*
X179127619Y-82782857D01*
X179222857Y-82735238D01*
X179413333Y-82687619D01*
X179651428Y-82687619D01*
X179841904Y-82735238D01*
X179937142Y-82782857D01*
X179984761Y-82830476D01*
X180032380Y-82925714D01*
X180032380Y-83020952D01*
X179984761Y-83116190D01*
X179937142Y-83163809D01*
X179841904Y-83211428D01*
X179651428Y-83259047D01*
X179413333Y-83259047D01*
X179222857Y-83211428D01*
X179127619Y-83163809D01*
X179080000Y-83116190D01*
X179032380Y-83020952D01*
X180032380Y-82259047D02*
X179032380Y-82259047D01*
X179032380Y-81878095D01*
X179080000Y-81782857D01*
X179127619Y-81735238D01*
X179222857Y-81687619D01*
X179365714Y-81687619D01*
X179460952Y-81735238D01*
X179508571Y-81782857D01*
X179556190Y-81878095D01*
X179556190Y-82259047D01*
X170337619Y-89478571D02*
X170290000Y-89573809D01*
X170194761Y-89669047D01*
X170051904Y-89811904D01*
X170004285Y-89907142D01*
X170004285Y-90002380D01*
X170242380Y-89954761D02*
X170194761Y-90050000D01*
X170099523Y-90145238D01*
X169909047Y-90192857D01*
X169575714Y-90192857D01*
X169385238Y-90145238D01*
X169290000Y-90050000D01*
X169242380Y-89954761D01*
X169242380Y-89764285D01*
X169290000Y-89669047D01*
X169385238Y-89573809D01*
X169575714Y-89526190D01*
X169909047Y-89526190D01*
X170099523Y-89573809D01*
X170194761Y-89669047D01*
X170242380Y-89764285D01*
X170242380Y-89954761D01*
X170337619Y-89335714D02*
X170337619Y-88573809D01*
X170242380Y-88335714D02*
X169242380Y-88335714D01*
X169242380Y-87954761D01*
X169290000Y-87859523D01*
X169337619Y-87811904D01*
X169432857Y-87764285D01*
X169575714Y-87764285D01*
X169670952Y-87811904D01*
X169718571Y-87859523D01*
X169766190Y-87954761D01*
X169766190Y-88335714D01*
X170242380Y-87335714D02*
X169242380Y-87335714D01*
X169956666Y-87002380D01*
X169242380Y-86669047D01*
X170242380Y-86669047D01*
X169242380Y-86002380D02*
X169242380Y-85811904D01*
X169290000Y-85716666D01*
X169385238Y-85621428D01*
X169575714Y-85573809D01*
X169909047Y-85573809D01*
X170099523Y-85621428D01*
X170194761Y-85716666D01*
X170242380Y-85811904D01*
X170242380Y-86002380D01*
X170194761Y-86097619D01*
X170099523Y-86192857D01*
X169909047Y-86240476D01*
X169575714Y-86240476D01*
X169385238Y-86192857D01*
X169290000Y-86097619D01*
X169242380Y-86002380D01*
X170194761Y-85192857D02*
X170242380Y-85050000D01*
X170242380Y-84811904D01*
X170194761Y-84716666D01*
X170147142Y-84669047D01*
X170051904Y-84621428D01*
X169956666Y-84621428D01*
X169861428Y-84669047D01*
X169813809Y-84716666D01*
X169766190Y-84811904D01*
X169718571Y-85002380D01*
X169670952Y-85097619D01*
X169623333Y-85145238D01*
X169528095Y-85192857D01*
X169432857Y-85192857D01*
X169337619Y-85145238D01*
X169290000Y-85097619D01*
X169242380Y-85002380D01*
X169242380Y-84764285D01*
X169290000Y-84621428D01*
X170337619Y-84430952D02*
X170337619Y-83669047D01*
X169290000Y-82907142D02*
X169242380Y-83002380D01*
X169242380Y-83145238D01*
X169290000Y-83288095D01*
X169385238Y-83383333D01*
X169480476Y-83430952D01*
X169670952Y-83478571D01*
X169813809Y-83478571D01*
X170004285Y-83430952D01*
X170099523Y-83383333D01*
X170194761Y-83288095D01*
X170242380Y-83145238D01*
X170242380Y-83050000D01*
X170194761Y-82907142D01*
X170147142Y-82859523D01*
X169813809Y-82859523D01*
X169813809Y-83050000D01*
X170242380Y-82430952D02*
X169242380Y-82430952D01*
X169242380Y-82192857D01*
X169290000Y-82050000D01*
X169385238Y-81954761D01*
X169480476Y-81907142D01*
X169670952Y-81859523D01*
X169813809Y-81859523D01*
X170004285Y-81907142D01*
X170099523Y-81954761D01*
X170194761Y-82050000D01*
X170242380Y-82192857D01*
X170242380Y-82430952D01*
X170194761Y-81478571D02*
X170242380Y-81335714D01*
X170242380Y-81097619D01*
X170194761Y-81002380D01*
X170147142Y-80954761D01*
X170051904Y-80907142D01*
X169956666Y-80907142D01*
X169861428Y-80954761D01*
X169813809Y-81002380D01*
X169766190Y-81097619D01*
X169718571Y-81288095D01*
X169670952Y-81383333D01*
X169623333Y-81430952D01*
X169528095Y-81478571D01*
X169432857Y-81478571D01*
X169337619Y-81430952D01*
X169290000Y-81383333D01*
X169242380Y-81288095D01*
X169242380Y-81050000D01*
X169290000Y-80907142D01*
X179822380Y-52046666D02*
X178822380Y-52046666D01*
X178822380Y-51665714D02*
X179822380Y-50999047D01*
X178822380Y-50999047D02*
X179822380Y-51665714D01*
X178822380Y-50760952D02*
X178822380Y-50189523D01*
X179822380Y-50475238D02*
X178822380Y-50475238D01*
X179917619Y-49189523D02*
X179870000Y-49284761D01*
X179774761Y-49380000D01*
X179631904Y-49522857D01*
X179584285Y-49618095D01*
X179584285Y-49713333D01*
X179822380Y-49665714D02*
X179774761Y-49760952D01*
X179679523Y-49856190D01*
X179489047Y-49903809D01*
X179155714Y-49903809D01*
X178965238Y-49856190D01*
X178870000Y-49760952D01*
X178822380Y-49665714D01*
X178822380Y-49475238D01*
X178870000Y-49380000D01*
X178965238Y-49284761D01*
X179155714Y-49237142D01*
X179489047Y-49237142D01*
X179679523Y-49284761D01*
X179774761Y-49380000D01*
X179822380Y-49475238D01*
X179822380Y-49665714D01*
X178822380Y-48332380D02*
X178822380Y-48808571D01*
X179298571Y-48856190D01*
X179250952Y-48808571D01*
X179203333Y-48713333D01*
X179203333Y-48475238D01*
X179250952Y-48380000D01*
X179298571Y-48332380D01*
X179393809Y-48284761D01*
X179631904Y-48284761D01*
X179727142Y-48332380D01*
X179774761Y-48380000D01*
X179822380Y-48475238D01*
X179822380Y-48713333D01*
X179774761Y-48808571D01*
X179727142Y-48856190D01*
X178917619Y-47903809D02*
X178870000Y-47856190D01*
X178822380Y-47760952D01*
X178822380Y-47522857D01*
X178870000Y-47427619D01*
X178917619Y-47380000D01*
X179012857Y-47332380D01*
X179108095Y-47332380D01*
X179250952Y-47380000D01*
X179822380Y-47951428D01*
X179822380Y-47332380D01*
X179822380Y-46903809D02*
X178822380Y-46903809D01*
X178822380Y-46522857D01*
X178870000Y-46427619D01*
X178917619Y-46380000D01*
X179012857Y-46332380D01*
X179155714Y-46332380D01*
X179250952Y-46380000D01*
X179298571Y-46427619D01*
X179346190Y-46522857D01*
X179346190Y-46903809D01*
X179822380Y-45380000D02*
X179822380Y-45951428D01*
X179822380Y-45665714D02*
X178822380Y-45665714D01*
X178965238Y-45760952D01*
X179060476Y-45856190D01*
X179108095Y-45951428D01*
X178822380Y-44760952D02*
X178822380Y-44665714D01*
X178870000Y-44570476D01*
X178917619Y-44522857D01*
X179012857Y-44475238D01*
X179203333Y-44427619D01*
X179441428Y-44427619D01*
X179631904Y-44475238D01*
X179727142Y-44522857D01*
X179774761Y-44570476D01*
X179822380Y-44665714D01*
X179822380Y-44760952D01*
X179774761Y-44856190D01*
X179727142Y-44903809D01*
X179631904Y-44951428D01*
X179441428Y-44999047D01*
X179203333Y-44999047D01*
X179012857Y-44951428D01*
X178917619Y-44903809D01*
X178870000Y-44856190D01*
X178822380Y-44760952D01*
X179822380Y-43999047D02*
X178822380Y-43999047D01*
X178822380Y-43618095D01*
X178870000Y-43522857D01*
X178917619Y-43475238D01*
X179012857Y-43427619D01*
X179155714Y-43427619D01*
X179250952Y-43475238D01*
X179298571Y-43522857D01*
X179346190Y-43618095D01*
X179346190Y-43999047D01*
X170767619Y-51478571D02*
X170720000Y-51573809D01*
X170624761Y-51669047D01*
X170481904Y-51811904D01*
X170434285Y-51907142D01*
X170434285Y-52002380D01*
X170672380Y-51954761D02*
X170624761Y-52050000D01*
X170529523Y-52145238D01*
X170339047Y-52192857D01*
X170005714Y-52192857D01*
X169815238Y-52145238D01*
X169720000Y-52050000D01*
X169672380Y-51954761D01*
X169672380Y-51764285D01*
X169720000Y-51669047D01*
X169815238Y-51573809D01*
X170005714Y-51526190D01*
X170339047Y-51526190D01*
X170529523Y-51573809D01*
X170624761Y-51669047D01*
X170672380Y-51764285D01*
X170672380Y-51954761D01*
X170767619Y-51335714D02*
X170767619Y-50573809D01*
X170672380Y-50335714D02*
X169672380Y-50335714D01*
X169672380Y-49954761D01*
X169720000Y-49859523D01*
X169767619Y-49811904D01*
X169862857Y-49764285D01*
X170005714Y-49764285D01*
X170100952Y-49811904D01*
X170148571Y-49859523D01*
X170196190Y-49954761D01*
X170196190Y-50335714D01*
X170672380Y-49335714D02*
X169672380Y-49335714D01*
X170386666Y-49002380D01*
X169672380Y-48669047D01*
X170672380Y-48669047D01*
X169672380Y-48002380D02*
X169672380Y-47811904D01*
X169720000Y-47716666D01*
X169815238Y-47621428D01*
X170005714Y-47573809D01*
X170339047Y-47573809D01*
X170529523Y-47621428D01*
X170624761Y-47716666D01*
X170672380Y-47811904D01*
X170672380Y-48002380D01*
X170624761Y-48097619D01*
X170529523Y-48192857D01*
X170339047Y-48240476D01*
X170005714Y-48240476D01*
X169815238Y-48192857D01*
X169720000Y-48097619D01*
X169672380Y-48002380D01*
X170624761Y-47192857D02*
X170672380Y-47050000D01*
X170672380Y-46811904D01*
X170624761Y-46716666D01*
X170577142Y-46669047D01*
X170481904Y-46621428D01*
X170386666Y-46621428D01*
X170291428Y-46669047D01*
X170243809Y-46716666D01*
X170196190Y-46811904D01*
X170148571Y-47002380D01*
X170100952Y-47097619D01*
X170053333Y-47145238D01*
X169958095Y-47192857D01*
X169862857Y-47192857D01*
X169767619Y-47145238D01*
X169720000Y-47097619D01*
X169672380Y-47002380D01*
X169672380Y-46764285D01*
X169720000Y-46621428D01*
X170767619Y-46430952D02*
X170767619Y-45669047D01*
X169720000Y-44907142D02*
X169672380Y-45002380D01*
X169672380Y-45145238D01*
X169720000Y-45288095D01*
X169815238Y-45383333D01*
X169910476Y-45430952D01*
X170100952Y-45478571D01*
X170243809Y-45478571D01*
X170434285Y-45430952D01*
X170529523Y-45383333D01*
X170624761Y-45288095D01*
X170672380Y-45145238D01*
X170672380Y-45050000D01*
X170624761Y-44907142D01*
X170577142Y-44859523D01*
X170243809Y-44859523D01*
X170243809Y-45050000D01*
X170672380Y-44430952D02*
X169672380Y-44430952D01*
X169672380Y-44192857D01*
X169720000Y-44050000D01*
X169815238Y-43954761D01*
X169910476Y-43907142D01*
X170100952Y-43859523D01*
X170243809Y-43859523D01*
X170434285Y-43907142D01*
X170529523Y-43954761D01*
X170624761Y-44050000D01*
X170672380Y-44192857D01*
X170672380Y-44430952D01*
X170624761Y-43478571D02*
X170672380Y-43335714D01*
X170672380Y-43097619D01*
X170624761Y-43002380D01*
X170577142Y-42954761D01*
X170481904Y-42907142D01*
X170386666Y-42907142D01*
X170291428Y-42954761D01*
X170243809Y-43002380D01*
X170196190Y-43097619D01*
X170148571Y-43288095D01*
X170100952Y-43383333D01*
X170053333Y-43430952D01*
X169958095Y-43478571D01*
X169862857Y-43478571D01*
X169767619Y-43430952D01*
X169720000Y-43383333D01*
X169672380Y-43288095D01*
X169672380Y-43050000D01*
X169720000Y-42907142D01*
X187677619Y-110295238D02*
X187630000Y-110390476D01*
X187534761Y-110485714D01*
X187391904Y-110628571D01*
X187344285Y-110723809D01*
X187344285Y-110819047D01*
X187582380Y-110771428D02*
X187534761Y-110866666D01*
X187439523Y-110961904D01*
X187249047Y-111009523D01*
X186915714Y-111009523D01*
X186725238Y-110961904D01*
X186630000Y-110866666D01*
X186582380Y-110771428D01*
X186582380Y-110580952D01*
X186630000Y-110485714D01*
X186725238Y-110390476D01*
X186915714Y-110342857D01*
X187249047Y-110342857D01*
X187439523Y-110390476D01*
X187534761Y-110485714D01*
X187582380Y-110580952D01*
X187582380Y-110771428D01*
X186915714Y-109485714D02*
X187582380Y-109485714D01*
X186534761Y-109723809D02*
X187249047Y-109961904D01*
X187249047Y-109342857D01*
X178644761Y-115557142D02*
X178692380Y-115414285D01*
X178692380Y-115176190D01*
X178644761Y-115080952D01*
X178597142Y-115033333D01*
X178501904Y-114985714D01*
X178406666Y-114985714D01*
X178311428Y-115033333D01*
X178263809Y-115080952D01*
X178216190Y-115176190D01*
X178168571Y-115366666D01*
X178120952Y-115461904D01*
X178073333Y-115509523D01*
X177978095Y-115557142D01*
X177882857Y-115557142D01*
X177787619Y-115509523D01*
X177740000Y-115461904D01*
X177692380Y-115366666D01*
X177692380Y-115128571D01*
X177740000Y-114985714D01*
X177692380Y-114700000D02*
X177692380Y-114128571D01*
X178692380Y-114414285D02*
X177692380Y-114414285D01*
X178692380Y-113795238D02*
X177692380Y-113795238D01*
X177692380Y-113414285D01*
X177740000Y-113319047D01*
X177787619Y-113271428D01*
X177882857Y-113223809D01*
X178025714Y-113223809D01*
X178120952Y-113271428D01*
X178168571Y-113319047D01*
X178216190Y-113414285D01*
X178216190Y-113795238D01*
X178692380Y-112271428D02*
X178692380Y-112842857D01*
X178692380Y-112557142D02*
X177692380Y-112557142D01*
X177835238Y-112652380D01*
X177930476Y-112747619D01*
X177978095Y-112842857D01*
X177692380Y-111414285D02*
X177692380Y-111604761D01*
X177740000Y-111700000D01*
X177787619Y-111747619D01*
X177930476Y-111842857D01*
X178120952Y-111890476D01*
X178501904Y-111890476D01*
X178597142Y-111842857D01*
X178644761Y-111795238D01*
X178692380Y-111700000D01*
X178692380Y-111509523D01*
X178644761Y-111414285D01*
X178597142Y-111366666D01*
X178501904Y-111319047D01*
X178263809Y-111319047D01*
X178168571Y-111366666D01*
X178120952Y-111414285D01*
X178073333Y-111509523D01*
X178073333Y-111700000D01*
X178120952Y-111795238D01*
X178168571Y-111842857D01*
X178263809Y-111890476D01*
X177692380Y-110414285D02*
X177692380Y-110890476D01*
X178168571Y-110938095D01*
X178120952Y-110890476D01*
X178073333Y-110795238D01*
X178073333Y-110557142D01*
X178120952Y-110461904D01*
X178168571Y-110414285D01*
X178263809Y-110366666D01*
X178501904Y-110366666D01*
X178597142Y-110414285D01*
X178644761Y-110461904D01*
X178692380Y-110557142D01*
X178692380Y-110795238D01*
X178644761Y-110890476D01*
X178597142Y-110938095D01*
X178692380Y-109938095D02*
X177692380Y-109938095D01*
X178692380Y-109366666D01*
X177692380Y-109366666D01*
X178692380Y-108366666D02*
X178692380Y-108938095D01*
X178692380Y-108652380D02*
X177692380Y-108652380D01*
X177835238Y-108747619D01*
X177930476Y-108842857D01*
X177978095Y-108938095D01*
X177692380Y-107747619D02*
X177692380Y-107652380D01*
X177740000Y-107557142D01*
X177787619Y-107509523D01*
X177882857Y-107461904D01*
X178073333Y-107414285D01*
X178311428Y-107414285D01*
X178501904Y-107461904D01*
X178597142Y-107509523D01*
X178644761Y-107557142D01*
X178692380Y-107652380D01*
X178692380Y-107747619D01*
X178644761Y-107842857D01*
X178597142Y-107890476D01*
X178501904Y-107938095D01*
X178311428Y-107985714D01*
X178073333Y-107985714D01*
X177882857Y-107938095D01*
X177787619Y-107890476D01*
X177740000Y-107842857D01*
X177692380Y-107747619D01*
X178168571Y-106652380D02*
X178168571Y-106985714D01*
X178692380Y-106985714D02*
X177692380Y-106985714D01*
X177692380Y-106509523D01*
X178025714Y-105700000D02*
X178692380Y-105700000D01*
X177644761Y-105938095D02*
X178359047Y-106176190D01*
X178359047Y-105557142D01*
X85228571Y-82566666D02*
X85228571Y-82900000D01*
X85752380Y-82900000D02*
X84752380Y-82900000D01*
X84752380Y-82423809D01*
X85847619Y-81376190D02*
X85800000Y-81471428D01*
X85704761Y-81566666D01*
X85561904Y-81709523D01*
X85514285Y-81804761D01*
X85514285Y-81900000D01*
X85752380Y-81852380D02*
X85704761Y-81947619D01*
X85609523Y-82042857D01*
X85419047Y-82090476D01*
X85085714Y-82090476D01*
X84895238Y-82042857D01*
X84800000Y-81947619D01*
X84752380Y-81852380D01*
X84752380Y-81661904D01*
X84800000Y-81566666D01*
X84895238Y-81471428D01*
X85085714Y-81423809D01*
X85419047Y-81423809D01*
X85609523Y-81471428D01*
X85704761Y-81566666D01*
X85752380Y-81661904D01*
X85752380Y-81852380D01*
X85752380Y-80995238D02*
X84752380Y-80995238D01*
X84752380Y-80614285D01*
X84800000Y-80519047D01*
X84847619Y-80471428D01*
X84942857Y-80423809D01*
X85085714Y-80423809D01*
X85180952Y-80471428D01*
X85228571Y-80519047D01*
X85276190Y-80614285D01*
X85276190Y-80995238D01*
X85085714Y-79566666D02*
X85752380Y-79566666D01*
X84704761Y-79804761D02*
X85419047Y-80042857D01*
X85419047Y-79423809D01*
X84752380Y-79138095D02*
X84752380Y-78471428D01*
X85752380Y-78900000D01*
X85752380Y-78090476D02*
X84752380Y-78090476D01*
X84752380Y-77709523D01*
X84800000Y-77614285D01*
X84847619Y-77566666D01*
X84942857Y-77519047D01*
X85085714Y-77519047D01*
X85180952Y-77566666D01*
X85228571Y-77614285D01*
X85276190Y-77709523D01*
X85276190Y-78090476D01*
X84752380Y-76900000D02*
X84752380Y-76804761D01*
X84800000Y-76709523D01*
X84847619Y-76661904D01*
X84942857Y-76614285D01*
X85133333Y-76566666D01*
X85371428Y-76566666D01*
X85561904Y-76614285D01*
X85657142Y-76661904D01*
X85704761Y-76709523D01*
X85752380Y-76804761D01*
X85752380Y-76900000D01*
X85704761Y-76995238D01*
X85657142Y-77042857D01*
X85561904Y-77090476D01*
X85371428Y-77138095D01*
X85133333Y-77138095D01*
X84942857Y-77090476D01*
X84847619Y-77042857D01*
X84800000Y-76995238D01*
X84752380Y-76900000D01*
X84752380Y-75709523D02*
X84752380Y-75900000D01*
X84800000Y-75995238D01*
X84847619Y-76042857D01*
X84990476Y-76138095D01*
X85180952Y-76185714D01*
X85561904Y-76185714D01*
X85657142Y-76138095D01*
X85704761Y-76090476D01*
X85752380Y-75995238D01*
X85752380Y-75804761D01*
X85704761Y-75709523D01*
X85657142Y-75661904D01*
X85561904Y-75614285D01*
X85323809Y-75614285D01*
X85228571Y-75661904D01*
X85180952Y-75709523D01*
X85133333Y-75804761D01*
X85133333Y-75995238D01*
X85180952Y-76090476D01*
X85228571Y-76138095D01*
X85323809Y-76185714D01*
X185757619Y-131645238D02*
X185710000Y-131740476D01*
X185614761Y-131835714D01*
X185471904Y-131978571D01*
X185424285Y-132073809D01*
X185424285Y-132169047D01*
X185662380Y-132121428D02*
X185614761Y-132216666D01*
X185519523Y-132311904D01*
X185329047Y-132359523D01*
X184995714Y-132359523D01*
X184805238Y-132311904D01*
X184710000Y-132216666D01*
X184662380Y-132121428D01*
X184662380Y-131930952D01*
X184710000Y-131835714D01*
X184805238Y-131740476D01*
X184995714Y-131692857D01*
X185329047Y-131692857D01*
X185519523Y-131740476D01*
X185614761Y-131835714D01*
X185662380Y-131930952D01*
X185662380Y-132121428D01*
X184662380Y-130835714D02*
X184662380Y-131026190D01*
X184710000Y-131121428D01*
X184757619Y-131169047D01*
X184900476Y-131264285D01*
X185090952Y-131311904D01*
X185471904Y-131311904D01*
X185567142Y-131264285D01*
X185614761Y-131216666D01*
X185662380Y-131121428D01*
X185662380Y-130930952D01*
X185614761Y-130835714D01*
X185567142Y-130788095D01*
X185471904Y-130740476D01*
X185233809Y-130740476D01*
X185138571Y-130788095D01*
X185090952Y-130835714D01*
X185043333Y-130930952D01*
X185043333Y-131121428D01*
X185090952Y-131216666D01*
X185138571Y-131264285D01*
X185233809Y-131311904D01*
X187004761Y-135982142D02*
X187052380Y-135839285D01*
X187052380Y-135601190D01*
X187004761Y-135505952D01*
X186957142Y-135458333D01*
X186861904Y-135410714D01*
X186766666Y-135410714D01*
X186671428Y-135458333D01*
X186623809Y-135505952D01*
X186576190Y-135601190D01*
X186528571Y-135791666D01*
X186480952Y-135886904D01*
X186433333Y-135934523D01*
X186338095Y-135982142D01*
X186242857Y-135982142D01*
X186147619Y-135934523D01*
X186100000Y-135886904D01*
X186052380Y-135791666D01*
X186052380Y-135553571D01*
X186100000Y-135410714D01*
X186052380Y-135125000D02*
X186052380Y-134553571D01*
X187052380Y-134839285D02*
X186052380Y-134839285D01*
X187052380Y-134220238D02*
X186052380Y-134220238D01*
X186052380Y-133839285D01*
X186100000Y-133744047D01*
X186147619Y-133696428D01*
X186242857Y-133648809D01*
X186385714Y-133648809D01*
X186480952Y-133696428D01*
X186528571Y-133744047D01*
X186576190Y-133839285D01*
X186576190Y-134220238D01*
X187052380Y-132696428D02*
X187052380Y-133267857D01*
X187052380Y-132982142D02*
X186052380Y-132982142D01*
X186195238Y-133077380D01*
X186290476Y-133172619D01*
X186338095Y-133267857D01*
X186052380Y-131839285D02*
X186052380Y-132029761D01*
X186100000Y-132125000D01*
X186147619Y-132172619D01*
X186290476Y-132267857D01*
X186480952Y-132315476D01*
X186861904Y-132315476D01*
X186957142Y-132267857D01*
X187004761Y-132220238D01*
X187052380Y-132125000D01*
X187052380Y-131934523D01*
X187004761Y-131839285D01*
X186957142Y-131791666D01*
X186861904Y-131744047D01*
X186623809Y-131744047D01*
X186528571Y-131791666D01*
X186480952Y-131839285D01*
X186433333Y-131934523D01*
X186433333Y-132125000D01*
X186480952Y-132220238D01*
X186528571Y-132267857D01*
X186623809Y-132315476D01*
X186052380Y-130839285D02*
X186052380Y-131315476D01*
X186528571Y-131363095D01*
X186480952Y-131315476D01*
X186433333Y-131220238D01*
X186433333Y-130982142D01*
X186480952Y-130886904D01*
X186528571Y-130839285D01*
X186623809Y-130791666D01*
X186861904Y-130791666D01*
X186957142Y-130839285D01*
X187004761Y-130886904D01*
X187052380Y-130982142D01*
X187052380Y-131220238D01*
X187004761Y-131315476D01*
X186957142Y-131363095D01*
X187052380Y-130363095D02*
X186052380Y-130363095D01*
X187052380Y-129791666D01*
X186052380Y-129791666D01*
X187052380Y-128791666D02*
X187052380Y-129363095D01*
X187052380Y-129077380D02*
X186052380Y-129077380D01*
X186195238Y-129172619D01*
X186290476Y-129267857D01*
X186338095Y-129363095D01*
X186052380Y-128172619D02*
X186052380Y-128077380D01*
X186100000Y-127982142D01*
X186147619Y-127934523D01*
X186242857Y-127886904D01*
X186433333Y-127839285D01*
X186671428Y-127839285D01*
X186861904Y-127886904D01*
X186957142Y-127934523D01*
X187004761Y-127982142D01*
X187052380Y-128077380D01*
X187052380Y-128172619D01*
X187004761Y-128267857D01*
X186957142Y-128315476D01*
X186861904Y-128363095D01*
X186671428Y-128410714D01*
X186433333Y-128410714D01*
X186242857Y-128363095D01*
X186147619Y-128315476D01*
X186100000Y-128267857D01*
X186052380Y-128172619D01*
X186528571Y-127077380D02*
X186528571Y-127410714D01*
X187052380Y-127410714D02*
X186052380Y-127410714D01*
X186052380Y-126934523D01*
X186385714Y-126125000D02*
X187052380Y-126125000D01*
X186004761Y-126363095D02*
X186719047Y-126601190D01*
X186719047Y-125982142D01*
X133344761Y-34337619D02*
X133249523Y-34290000D01*
X133154285Y-34194761D01*
X133011428Y-34051904D01*
X132916190Y-34004285D01*
X132820952Y-34004285D01*
X132868571Y-34242380D02*
X132773333Y-34194761D01*
X132678095Y-34099523D01*
X132630476Y-33909047D01*
X132630476Y-33575714D01*
X132678095Y-33385238D01*
X132773333Y-33290000D01*
X132868571Y-33242380D01*
X133059047Y-33242380D01*
X133154285Y-33290000D01*
X133249523Y-33385238D01*
X133297142Y-33575714D01*
X133297142Y-33909047D01*
X133249523Y-34099523D01*
X133154285Y-34194761D01*
X133059047Y-34242380D01*
X132868571Y-34242380D01*
X133630476Y-33242380D02*
X134297142Y-33242380D01*
X133868571Y-34242380D01*
X128082857Y-43084761D02*
X128225714Y-43132380D01*
X128463809Y-43132380D01*
X128559047Y-43084761D01*
X128606666Y-43037142D01*
X128654285Y-42941904D01*
X128654285Y-42846666D01*
X128606666Y-42751428D01*
X128559047Y-42703809D01*
X128463809Y-42656190D01*
X128273333Y-42608571D01*
X128178095Y-42560952D01*
X128130476Y-42513333D01*
X128082857Y-42418095D01*
X128082857Y-42322857D01*
X128130476Y-42227619D01*
X128178095Y-42180000D01*
X128273333Y-42132380D01*
X128511428Y-42132380D01*
X128654285Y-42180000D01*
X128940000Y-42132380D02*
X129511428Y-42132380D01*
X129225714Y-43132380D02*
X129225714Y-42132380D01*
X129844761Y-43132380D02*
X129844761Y-42132380D01*
X130225714Y-42132380D01*
X130320952Y-42180000D01*
X130368571Y-42227619D01*
X130416190Y-42322857D01*
X130416190Y-42465714D01*
X130368571Y-42560952D01*
X130320952Y-42608571D01*
X130225714Y-42656190D01*
X129844761Y-42656190D01*
X131368571Y-43132380D02*
X130797142Y-43132380D01*
X131082857Y-43132380D02*
X131082857Y-42132380D01*
X130987619Y-42275238D01*
X130892380Y-42370476D01*
X130797142Y-42418095D01*
X132225714Y-42132380D02*
X132035238Y-42132380D01*
X131940000Y-42180000D01*
X131892380Y-42227619D01*
X131797142Y-42370476D01*
X131749523Y-42560952D01*
X131749523Y-42941904D01*
X131797142Y-43037142D01*
X131844761Y-43084761D01*
X131940000Y-43132380D01*
X132130476Y-43132380D01*
X132225714Y-43084761D01*
X132273333Y-43037142D01*
X132320952Y-42941904D01*
X132320952Y-42703809D01*
X132273333Y-42608571D01*
X132225714Y-42560952D01*
X132130476Y-42513333D01*
X131940000Y-42513333D01*
X131844761Y-42560952D01*
X131797142Y-42608571D01*
X131749523Y-42703809D01*
X133225714Y-42132380D02*
X132749523Y-42132380D01*
X132701904Y-42608571D01*
X132749523Y-42560952D01*
X132844761Y-42513333D01*
X133082857Y-42513333D01*
X133178095Y-42560952D01*
X133225714Y-42608571D01*
X133273333Y-42703809D01*
X133273333Y-42941904D01*
X133225714Y-43037142D01*
X133178095Y-43084761D01*
X133082857Y-43132380D01*
X132844761Y-43132380D01*
X132749523Y-43084761D01*
X132701904Y-43037142D01*
X133701904Y-43132380D02*
X133701904Y-42132380D01*
X134273333Y-43132380D01*
X134273333Y-42132380D01*
X135273333Y-43132380D02*
X134701904Y-43132380D01*
X134987619Y-43132380D02*
X134987619Y-42132380D01*
X134892380Y-42275238D01*
X134797142Y-42370476D01*
X134701904Y-42418095D01*
X135892380Y-42132380D02*
X135987619Y-42132380D01*
X136082857Y-42180000D01*
X136130476Y-42227619D01*
X136178095Y-42322857D01*
X136225714Y-42513333D01*
X136225714Y-42751428D01*
X136178095Y-42941904D01*
X136130476Y-43037142D01*
X136082857Y-43084761D01*
X135987619Y-43132380D01*
X135892380Y-43132380D01*
X135797142Y-43084761D01*
X135749523Y-43037142D01*
X135701904Y-42941904D01*
X135654285Y-42751428D01*
X135654285Y-42513333D01*
X135701904Y-42322857D01*
X135749523Y-42227619D01*
X135797142Y-42180000D01*
X135892380Y-42132380D01*
X136987619Y-42608571D02*
X136654285Y-42608571D01*
X136654285Y-43132380D02*
X136654285Y-42132380D01*
X137130476Y-42132380D01*
X137940000Y-42465714D02*
X137940000Y-43132380D01*
X137701904Y-42084761D02*
X137463809Y-42799047D01*
X138082857Y-42799047D01*
X112463333Y-44002380D02*
X112130000Y-43526190D01*
X111891904Y-44002380D02*
X111891904Y-43002380D01*
X112272857Y-43002380D01*
X112368095Y-43050000D01*
X112415714Y-43097619D01*
X112463333Y-43192857D01*
X112463333Y-43335714D01*
X112415714Y-43430952D01*
X112368095Y-43478571D01*
X112272857Y-43526190D01*
X111891904Y-43526190D01*
X113415714Y-44002380D02*
X112844285Y-44002380D01*
X113130000Y-44002380D02*
X113130000Y-43002380D01*
X113034761Y-43145238D01*
X112939523Y-43240476D01*
X112844285Y-43288095D01*
X115329523Y-43952380D02*
X114758095Y-43952380D01*
X115043809Y-43952380D02*
X115043809Y-42952380D01*
X114948571Y-43095238D01*
X114853333Y-43190476D01*
X114758095Y-43238095D01*
X115948571Y-42952380D02*
X116043809Y-42952380D01*
X116139047Y-43000000D01*
X116186666Y-43047619D01*
X116234285Y-43142857D01*
X116281904Y-43333333D01*
X116281904Y-43571428D01*
X116234285Y-43761904D01*
X116186666Y-43857142D01*
X116139047Y-43904761D01*
X116043809Y-43952380D01*
X115948571Y-43952380D01*
X115853333Y-43904761D01*
X115805714Y-43857142D01*
X115758095Y-43761904D01*
X115710476Y-43571428D01*
X115710476Y-43333333D01*
X115758095Y-43142857D01*
X115805714Y-43047619D01*
X115853333Y-43000000D01*
X115948571Y-42952380D01*
X117281904Y-43952380D02*
X116948571Y-43476190D01*
X116710476Y-43952380D02*
X116710476Y-42952380D01*
X117091428Y-42952380D01*
X117186666Y-43000000D01*
X117234285Y-43047619D01*
X117281904Y-43142857D01*
X117281904Y-43285714D01*
X117234285Y-43380952D01*
X117186666Y-43428571D01*
X117091428Y-43476190D01*
X116710476Y-43476190D01*
X176423333Y-98632380D02*
X176090000Y-98156190D01*
X175851904Y-98632380D02*
X175851904Y-97632380D01*
X176232857Y-97632380D01*
X176328095Y-97680000D01*
X176375714Y-97727619D01*
X176423333Y-97822857D01*
X176423333Y-97965714D01*
X176375714Y-98060952D01*
X176328095Y-98108571D01*
X176232857Y-98156190D01*
X175851904Y-98156190D01*
X176804285Y-97727619D02*
X176851904Y-97680000D01*
X176947142Y-97632380D01*
X177185238Y-97632380D01*
X177280476Y-97680000D01*
X177328095Y-97727619D01*
X177375714Y-97822857D01*
X177375714Y-97918095D01*
X177328095Y-98060952D01*
X176756666Y-98632380D01*
X177375714Y-98632380D01*
X179859523Y-98472380D02*
X179288095Y-98472380D01*
X179573809Y-98472380D02*
X179573809Y-97472380D01*
X179478571Y-97615238D01*
X179383333Y-97710476D01*
X179288095Y-97758095D01*
X180478571Y-97472380D02*
X180573809Y-97472380D01*
X180669047Y-97520000D01*
X180716666Y-97567619D01*
X180764285Y-97662857D01*
X180811904Y-97853333D01*
X180811904Y-98091428D01*
X180764285Y-98281904D01*
X180716666Y-98377142D01*
X180669047Y-98424761D01*
X180573809Y-98472380D01*
X180478571Y-98472380D01*
X180383333Y-98424761D01*
X180335714Y-98377142D01*
X180288095Y-98281904D01*
X180240476Y-98091428D01*
X180240476Y-97853333D01*
X180288095Y-97662857D01*
X180335714Y-97567619D01*
X180383333Y-97520000D01*
X180478571Y-97472380D01*
X181811904Y-98472380D02*
X181478571Y-97996190D01*
X181240476Y-98472380D02*
X181240476Y-97472380D01*
X181621428Y-97472380D01*
X181716666Y-97520000D01*
X181764285Y-97567619D01*
X181811904Y-97662857D01*
X181811904Y-97805714D01*
X181764285Y-97900952D01*
X181716666Y-97948571D01*
X181621428Y-97996190D01*
X181240476Y-97996190D01*
X92583333Y-40782380D02*
X92250000Y-40306190D01*
X92011904Y-40782380D02*
X92011904Y-39782380D01*
X92392857Y-39782380D01*
X92488095Y-39830000D01*
X92535714Y-39877619D01*
X92583333Y-39972857D01*
X92583333Y-40115714D01*
X92535714Y-40210952D01*
X92488095Y-40258571D01*
X92392857Y-40306190D01*
X92011904Y-40306190D01*
X92916666Y-39782380D02*
X93535714Y-39782380D01*
X93202380Y-40163333D01*
X93345238Y-40163333D01*
X93440476Y-40210952D01*
X93488095Y-40258571D01*
X93535714Y-40353809D01*
X93535714Y-40591904D01*
X93488095Y-40687142D01*
X93440476Y-40734761D01*
X93345238Y-40782380D01*
X93059523Y-40782380D01*
X92964285Y-40734761D01*
X92916666Y-40687142D01*
X95679523Y-40722380D02*
X95108095Y-40722380D01*
X95393809Y-40722380D02*
X95393809Y-39722380D01*
X95298571Y-39865238D01*
X95203333Y-39960476D01*
X95108095Y-40008095D01*
X96298571Y-39722380D02*
X96393809Y-39722380D01*
X96489047Y-39770000D01*
X96536666Y-39817619D01*
X96584285Y-39912857D01*
X96631904Y-40103333D01*
X96631904Y-40341428D01*
X96584285Y-40531904D01*
X96536666Y-40627142D01*
X96489047Y-40674761D01*
X96393809Y-40722380D01*
X96298571Y-40722380D01*
X96203333Y-40674761D01*
X96155714Y-40627142D01*
X96108095Y-40531904D01*
X96060476Y-40341428D01*
X96060476Y-40103333D01*
X96108095Y-39912857D01*
X96155714Y-39817619D01*
X96203333Y-39770000D01*
X96298571Y-39722380D01*
X97631904Y-40722380D02*
X97298571Y-40246190D01*
X97060476Y-40722380D02*
X97060476Y-39722380D01*
X97441428Y-39722380D01*
X97536666Y-39770000D01*
X97584285Y-39817619D01*
X97631904Y-39912857D01*
X97631904Y-40055714D01*
X97584285Y-40150952D01*
X97536666Y-40198571D01*
X97441428Y-40246190D01*
X97060476Y-40246190D01*
X175242380Y-130626666D02*
X174766190Y-130960000D01*
X175242380Y-131198095D02*
X174242380Y-131198095D01*
X174242380Y-130817142D01*
X174290000Y-130721904D01*
X174337619Y-130674285D01*
X174432857Y-130626666D01*
X174575714Y-130626666D01*
X174670952Y-130674285D01*
X174718571Y-130721904D01*
X174766190Y-130817142D01*
X174766190Y-131198095D01*
X174575714Y-129769523D02*
X175242380Y-129769523D01*
X174194761Y-130007619D02*
X174909047Y-130245714D01*
X174909047Y-129626666D01*
X90363333Y-52862380D02*
X90030000Y-52386190D01*
X89791904Y-52862380D02*
X89791904Y-51862380D01*
X90172857Y-51862380D01*
X90268095Y-51910000D01*
X90315714Y-51957619D01*
X90363333Y-52052857D01*
X90363333Y-52195714D01*
X90315714Y-52290952D01*
X90268095Y-52338571D01*
X90172857Y-52386190D01*
X89791904Y-52386190D01*
X91268095Y-51862380D02*
X90791904Y-51862380D01*
X90744285Y-52338571D01*
X90791904Y-52290952D01*
X90887142Y-52243333D01*
X91125238Y-52243333D01*
X91220476Y-52290952D01*
X91268095Y-52338571D01*
X91315714Y-52433809D01*
X91315714Y-52671904D01*
X91268095Y-52767142D01*
X91220476Y-52814761D01*
X91125238Y-52862380D01*
X90887142Y-52862380D01*
X90791904Y-52814761D01*
X90744285Y-52767142D01*
X93473333Y-52576666D02*
X93949523Y-52576666D01*
X93378095Y-52862380D02*
X93711428Y-51862380D01*
X94044761Y-52862380D01*
X94378095Y-52862380D02*
X94378095Y-51862380D01*
X94759047Y-51862380D01*
X94854285Y-51910000D01*
X94901904Y-51957619D01*
X94949523Y-52052857D01*
X94949523Y-52195714D01*
X94901904Y-52290952D01*
X94854285Y-52338571D01*
X94759047Y-52386190D01*
X94378095Y-52386190D01*
X95520952Y-52290952D02*
X95425714Y-52243333D01*
X95378095Y-52195714D01*
X95330476Y-52100476D01*
X95330476Y-52052857D01*
X95378095Y-51957619D01*
X95425714Y-51910000D01*
X95520952Y-51862380D01*
X95711428Y-51862380D01*
X95806666Y-51910000D01*
X95854285Y-51957619D01*
X95901904Y-52052857D01*
X95901904Y-52100476D01*
X95854285Y-52195714D01*
X95806666Y-52243333D01*
X95711428Y-52290952D01*
X95520952Y-52290952D01*
X95425714Y-52338571D01*
X95378095Y-52386190D01*
X95330476Y-52481428D01*
X95330476Y-52671904D01*
X95378095Y-52767142D01*
X95425714Y-52814761D01*
X95520952Y-52862380D01*
X95711428Y-52862380D01*
X95806666Y-52814761D01*
X95854285Y-52767142D01*
X95901904Y-52671904D01*
X95901904Y-52481428D01*
X95854285Y-52386190D01*
X95806666Y-52338571D01*
X95711428Y-52290952D01*
X96806666Y-51862380D02*
X96330476Y-51862380D01*
X96282857Y-52338571D01*
X96330476Y-52290952D01*
X96425714Y-52243333D01*
X96663809Y-52243333D01*
X96759047Y-52290952D01*
X96806666Y-52338571D01*
X96854285Y-52433809D01*
X96854285Y-52671904D01*
X96806666Y-52767142D01*
X96759047Y-52814761D01*
X96663809Y-52862380D01*
X96425714Y-52862380D01*
X96330476Y-52814761D01*
X96282857Y-52767142D01*
X97806666Y-52862380D02*
X97235238Y-52862380D01*
X97520952Y-52862380D02*
X97520952Y-51862380D01*
X97425714Y-52005238D01*
X97330476Y-52100476D01*
X97235238Y-52148095D01*
X123542380Y-37016666D02*
X123066190Y-37350000D01*
X123542380Y-37588095D02*
X122542380Y-37588095D01*
X122542380Y-37207142D01*
X122590000Y-37111904D01*
X122637619Y-37064285D01*
X122732857Y-37016666D01*
X122875714Y-37016666D01*
X122970952Y-37064285D01*
X123018571Y-37111904D01*
X123066190Y-37207142D01*
X123066190Y-37588095D01*
X122542380Y-36159523D02*
X122542380Y-36350000D01*
X122590000Y-36445238D01*
X122637619Y-36492857D01*
X122780476Y-36588095D01*
X122970952Y-36635714D01*
X123351904Y-36635714D01*
X123447142Y-36588095D01*
X123494761Y-36540476D01*
X123542380Y-36445238D01*
X123542380Y-36254761D01*
X123494761Y-36159523D01*
X123447142Y-36111904D01*
X123351904Y-36064285D01*
X123113809Y-36064285D01*
X123018571Y-36111904D01*
X122970952Y-36159523D01*
X122923333Y-36254761D01*
X122923333Y-36445238D01*
X122970952Y-36540476D01*
X123018571Y-36588095D01*
X123113809Y-36635714D01*
X123542380Y-34420476D02*
X123542380Y-34991904D01*
X123542380Y-34706190D02*
X122542380Y-34706190D01*
X122685238Y-34801428D01*
X122780476Y-34896666D01*
X122828095Y-34991904D01*
X122542380Y-33801428D02*
X122542380Y-33706190D01*
X122590000Y-33610952D01*
X122637619Y-33563333D01*
X122732857Y-33515714D01*
X122923333Y-33468095D01*
X123161428Y-33468095D01*
X123351904Y-33515714D01*
X123447142Y-33563333D01*
X123494761Y-33610952D01*
X123542380Y-33706190D01*
X123542380Y-33801428D01*
X123494761Y-33896666D01*
X123447142Y-33944285D01*
X123351904Y-33991904D01*
X123161428Y-34039523D01*
X122923333Y-34039523D01*
X122732857Y-33991904D01*
X122637619Y-33944285D01*
X122590000Y-33896666D01*
X122542380Y-33801428D01*
X123542380Y-32468095D02*
X123066190Y-32801428D01*
X123542380Y-33039523D02*
X122542380Y-33039523D01*
X122542380Y-32658571D01*
X122590000Y-32563333D01*
X122637619Y-32515714D01*
X122732857Y-32468095D01*
X122875714Y-32468095D01*
X122970952Y-32515714D01*
X123018571Y-32563333D01*
X123066190Y-32658571D01*
X123066190Y-33039523D01*
M02*
